<svg width="32" height="32" viewBox="0 0 32 32" fill="none" xmlns="http://www.w3.org/2000/svg">
<path d="M27 14V16C27 22.625 16 27 16 30C16 27 5 22.625 5 16V14" stroke="#1C1C1E" stroke-linecap="round" stroke-linejoin="round"/>
<path d="M10 7H22C23.5913 7 25.1174 7.63214 26.2426 8.75736C27.3679 9.88258 28 11.4087 28 13C28 13.2652 27.8946 13.5196 27.7071 13.7071C27.5196 13.8946 27.2652 14 27 14H5C4.73478 14 4.48043 13.8946 4.29289 13.7071C4.10536 13.5196 4 13.2652 4 13C4 11.4087 4.63214 9.88258 5.75736 8.75736C6.88258 7.63214 8.4087 7 10 7Z" stroke="#1C1C1E" stroke-linecap="round" stroke-linejoin="round"/>
<path d="M16 7V6C16 4.93913 16.4214 3.92172 17.1716 3.17157C17.9217 2.42143 18.9391 2 20 2" stroke="#1C1C1E" stroke-linecap="round" stroke-linejoin="round"/>
</svg>
