<svg width="32" height="32" viewBox="0 0 32 32" fill="none" xmlns="http://www.w3.org/2000/svg">
<path d="M30 21L28 23C28 23 23.5 28 16 28C8.5 28 4 23 4 23" stroke="#1C1C1E" stroke-linecap="round" stroke-linejoin="round"/>
<path d="M26 21H30V25" stroke="#1C1C1E" stroke-linecap="round" stroke-linejoin="round"/>
<path d="M15.5 22C18.5376 22 21 19.5376 21 16.5C21 13.4624 18.5376 11 15.5 11C12.4624 11 10 13.4624 10 16.5C10 19.5376 12.4624 22 15.5 22Z" stroke="#1C1C1E" stroke-linecap="round" stroke-linejoin="round"/>
<path d="M20.9996 22.0001V10.5001C21.0001 9.26458 20.5845 8.06493 19.82 7.09445C19.0554 6.12396 17.9864 5.43915 16.7851 5.15039C15.5838 4.86162 14.3204 4.98572 13.1982 5.50268C12.0761 6.01964 11.1607 6.89936 10.5996 8.00005" stroke="#1C1C1E" stroke-linecap="round" stroke-linejoin="round"/>
</svg>
