<svg width="32" height="32" viewBox="0 0 32 32" fill="none" xmlns="http://www.w3.org/2000/svg">
<path d="M16 25C18.7614 25 21 22.7614 21 20C21 17.2386 18.7614 15 16 15C13.2386 15 11 17.2386 11 20C11 22.7614 13.2386 25 16 25Z" stroke="#1C1C1E" stroke-linecap="round" stroke-linejoin="round"/>
<path d="M10.341 5.99999C10.757 4.81735 11.533 3.79473 12.56 3.07575C13.587 2.35677 14.8135 1.97754 16.0671 1.99133C17.3206 2.00512 18.5384 2.41124 19.5494 3.15264C20.5603 3.89404 21.3136 4.93349 21.7035 6.12499L25.431 16.66C25.966 18.1773 26.1269 19.8013 25.9002 21.3941C25.6735 22.9869 25.0659 24.5015 24.1288 25.8093C23.1918 27.1171 21.9531 28.1795 20.5178 28.9064C19.0824 29.6332 17.493 30.003 15.8842 29.9844C14.2755 29.9657 12.695 29.5592 11.2769 28.7993C9.85878 28.0395 8.64496 26.9486 7.73846 25.6195C6.83197 24.2903 6.25955 22.7621 6.0698 21.1644C5.88005 19.5668 6.07857 17.947 6.64852 16.4425L10.341 5.99999Z" stroke="#1C1C1E" stroke-linecap="round" stroke-linejoin="round"/>
</svg>
