<svg width="32" height="32" viewBox="0 0 32 32" fill="none" xmlns="http://www.w3.org/2000/svg">
<path d="M20.5583 23.7063C20.4258 23.8389 20.2587 23.9316 20.0761 23.9738C19.8935 24.016 19.7027 24.0061 19.5255 23.9451C19.3482 23.8841 19.1917 23.7745 19.0737 23.6289C18.9558 23.4832 18.8811 23.3073 18.8583 23.1213C17.972 16.4788 13.557 12.1463 11.427 10.6513C11.3072 10.5677 11.2072 10.459 11.1339 10.3326C11.0607 10.2063 11.016 10.0654 11.003 9.91993C10.99 9.77445 11.009 9.6279 11.0588 9.49057C11.1085 9.35324 11.1877 9.22847 11.2908 9.12503L16.1245 4.29128C16.228 4.18839 16.3527 4.10938 16.4899 4.05979C16.6271 4.0102 16.7735 3.99123 16.9188 4.00421C17.0641 4.01719 17.2048 4.06182 17.331 4.13494C17.4573 4.20807 17.566 4.30794 17.6495 4.42753C19.1495 6.55253 23.477 10.9725 30.1195 11.8588C30.3056 11.8816 30.4815 11.9563 30.6271 12.0742C30.7728 12.1922 30.8824 12.3487 30.9434 12.5259C31.0043 12.7032 31.0143 12.894 30.9721 13.0766C30.9298 13.2592 30.8371 13.4263 30.7045 13.5588L20.5583 23.7063Z" stroke="#1C1C1E" stroke-linecap="round" stroke-linejoin="round"/>
<path d="M18.9727 6.02718L21.3752 3.62468C21.7735 3.22776 22.3128 3.00488 22.8752 3.00488C23.4375 3.00488 23.9769 3.22776 24.3752 3.62468C24.7721 4.02298 24.995 4.56237 24.995 5.12468C24.995 5.68699 24.7721 6.22638 24.3752 6.62468L22.2127 8.78718" stroke="#1C1C1E" stroke-linecap="round" stroke-linejoin="round"/>
<path d="M15.7872 15.2125L4.62468 26.375C4.22638 26.7719 3.68699 26.9948 3.12468 26.9948C2.56237 26.9948 2.02298 26.7719 1.62468 26.375C1.22776 25.9767 1.00488 25.4373 1.00488 24.875C1.00488 24.3127 1.22776 23.7733 1.62468 23.375L13.0309 11.9688" stroke="#1C1C1E" stroke-linecap="round" stroke-linejoin="round"/>
</svg>
