<svg width="32" height="32" viewBox="0 0 32 32" fill="none" xmlns="http://www.w3.org/2000/svg">
<path d="M26 13C26 18.5225 21.5225 25 16 25C10.4775 25 6 18.5225 6 13C6 10.3478 7.05357 7.8043 8.92893 5.92893C10.8043 4.05357 13.3478 3 16 3C18.6522 3 21.1957 4.05357 23.0711 5.92893C24.9464 7.8043 26 10.3478 26 13Z" stroke="#1C1C1E" stroke-linecap="round" stroke-linejoin="round"/>
<path d="M17 7C18.2443 7.22316 19.3904 7.82193 20.2842 8.71579C21.1781 9.60965 21.7768 10.7557 22 12" stroke="#1C1C1E" stroke-linecap="round" stroke-linejoin="round"/>
<path d="M17.2388 24.8916L19 29.0004H13L14.7612 24.8916" stroke="#1C1C1E" stroke-linecap="round" stroke-linejoin="round"/>
</svg>
