<svg width="32" height="32" viewBox="0 0 32 32" fill="none" xmlns="http://www.w3.org/2000/svg">
<path d="M16 28C22.6274 28 28 22.6274 28 16C28 9.37258 22.6274 4 16 4C9.37258 4 4 9.37258 4 16C4 22.6274 9.37258 28 16 28Z" stroke="#1C1C1E" stroke-linecap="round" stroke-linejoin="round"/>
<path d="M10.9999 18C10.8859 18.6805 10.7128 19.3497 10.4824 20" stroke="#1C1C1E" stroke-linecap="round" stroke-linejoin="round"/>
<path d="M10.4824 12C10.7128 12.6503 10.8859 13.3195 10.9999 14" stroke="#1C1C1E" stroke-linecap="round" stroke-linejoin="round"/>
<path d="M7.58203 7.44727C7.91982 7.77881 8.23747 8.13027 8.53328 8.49977" stroke="#1C1C1E" stroke-linecap="round" stroke-linejoin="round"/>
<path d="M8.53328 23.5C8.23747 23.8695 7.91982 24.221 7.58203 24.5525" stroke="#1C1C1E" stroke-linecap="round" stroke-linejoin="round"/>
<path d="M21 18C21.114 18.6805 21.2871 19.3497 21.5175 20" stroke="#1C1C1E" stroke-linecap="round" stroke-linejoin="round"/>
<path d="M21.5175 12C21.2871 12.6503 21.114 13.3195 21 14" stroke="#1C1C1E" stroke-linecap="round" stroke-linejoin="round"/>
<path d="M24.4171 7.44727C24.0793 7.77881 23.7616 8.13027 23.4658 8.49977" stroke="#1C1C1E" stroke-linecap="round" stroke-linejoin="round"/>
<path d="M23.4658 23.5C23.7616 23.8695 24.0793 24.221 24.4171 24.5525" stroke="#1C1C1E" stroke-linecap="round" stroke-linejoin="round"/>
</svg>
