<svg width="32" height="32" viewBox="0 0 32 32" fill="none" xmlns="http://www.w3.org/2000/svg">
<path d="M27 21H5C4.44772 21 4 21.4477 4 22V26C4 26.5523 4.44772 27 5 27H27C27.5523 27 28 26.5523 28 26V22C28 21.4477 27.5523 21 27 21Z" stroke="#1C1C1E" stroke-linecap="round" stroke-linejoin="round"/>
<path d="M9 21V27" stroke="#1C1C1E" stroke-linecap="round" stroke-linejoin="round"/>
<path d="M16 21V27" stroke="#1C1C1E" stroke-linecap="round" stroke-linejoin="round"/>
<path d="M23 21V27" stroke="#1C1C1E" stroke-linecap="round" stroke-linejoin="round"/>
<path d="M5 21V18C5 15.0826 6.15893 12.2847 8.22183 10.2218C10.2847 8.15893 13.0826 7 16 7C18.9174 7 21.7153 8.15893 23.7782 10.2218C25.8411 12.2847 27 15.0826 27 18V21" stroke="#1C1C1E" stroke-linecap="round" stroke-linejoin="round"/>
<path d="M16 7C17.3807 7 18.5 5.88071 18.5 4.5C18.5 3.11929 17.3807 2 16 2C14.6193 2 13.5 3.11929 13.5 4.5C13.5 5.88071 14.6193 7 16 7Z" stroke="#1C1C1E" stroke-linecap="round" stroke-linejoin="round"/>
</svg>
