<svg width="32" height="32" viewBox="0 0 32 32" fill="none" xmlns="http://www.w3.org/2000/svg">
<path d="M6 5L26 27" stroke="#1C1C1E" stroke-linecap="round" stroke-linejoin="round"/>
<path d="M12 28H20" stroke="#1C1C1E" stroke-linecap="round" stroke-linejoin="round"/>
<path d="M23.2723 23.9997H5.99984C5.82482 23.9986 5.65314 23.9517 5.50195 23.8635C5.35077 23.7753 5.22539 23.6489 5.13833 23.4971C5.05127 23.3452 5.00559 23.1732 5.00586 22.9982C5.00613 22.8232 5.05233 22.6513 5.13984 22.4997C5.96359 21.0747 6.99984 17.4759 6.99984 12.9997C6.99684 11.1647 7.55754 9.37308 8.60609 7.86719" stroke="#1C1C1E" stroke-linecap="round" stroke-linejoin="round"/>
<path d="M11.5596 5.17046C12.9288 4.39391 14.4777 3.99004 16.0518 3.99917C17.6258 4.00831 19.17 4.43011 20.5301 5.2225C21.8902 6.01488 23.0187 7.15013 23.803 8.51493C24.5872 9.87974 24.9998 11.4264 24.9996 13.0005C24.9996 16.638 25.6846 19.6955 26.3833 21.4755" stroke="#1C1C1E" stroke-linecap="round" stroke-linejoin="round"/>
</svg>
