<svg width="32" height="32" viewBox="0 0 32 32" fill="none" xmlns="http://www.w3.org/2000/svg">
<path d="M20.5 9.5C21.0523 9.5 21.5 9.05228 21.5 8.5C21.5 7.94772 21.0523 7.5 20.5 7.5C19.9477 7.5 19.5 7.94772 19.5 8.5C19.5 9.05228 19.9477 9.5 20.5 9.5Z" fill="#1C1C1E"/>
<path d="M12.9996 12.4401V9.61134C12.9996 6.01509 15.8746 3.01759 19.4671 3.00009C20.9115 2.9926 22.3172 3.4664 23.4623 4.34669C24.6075 5.22699 25.4268 6.46361 25.7909 7.86134L28.9996 10.0001L25.9996 12.0001V15.0001C25.9996 18.1827 24.7354 21.2349 22.4849 23.4854C20.2345 25.7358 17.1822 27.0001 13.9996 27.0001H2.99965C2.8112 27.0002 2.62655 26.9471 2.46698 26.8468C2.30741 26.7465 2.17943 26.6032 2.09777 26.4334C2.01612 26.2635 1.98412 26.0741 2.00546 25.8868C2.0268 25.6996 2.10062 25.5222 2.2184 25.3751L12.9996 12.4401Z" stroke="#1C1C1E" stroke-linecap="round" stroke-linejoin="round"/>
<path d="M16.0002 16L6.83398 27" stroke="#1C1C1E" stroke-linecap="round" stroke-linejoin="round"/>
</svg>
