<svg width="32" height="32" viewBox="0 0 32 32" fill="none" xmlns="http://www.w3.org/2000/svg">
<path d="M7.04016 24.9597C6.4821 25.0467 5.91128 24.9974 5.37643 24.8159C4.84157 24.6345 4.35858 24.3263 3.96869 23.9176C3.5788 23.509 3.2936 23.0121 3.13743 22.4693C2.98126 21.9265 2.95877 21.354 3.07187 20.8006C3.18498 20.2473 3.43032 19.7295 3.78695 19.2915C4.14357 18.8536 4.6009 18.5084 5.11986 18.2855C5.63883 18.0627 6.20403 17.9687 6.76719 18.0117C7.33035 18.0546 7.87476 18.2332 8.35391 18.5322C8.54613 18.6563 8.77508 18.7107 9.00256 18.6863C9.23004 18.662 9.44229 18.5604 9.60391 18.3985L18.4014 9.60098C18.5633 9.43936 18.6649 9.22711 18.6893 8.99963C18.7136 8.77215 18.6592 8.5432 18.5352 8.35098C18.2362 7.87183 18.0575 7.32742 18.0146 6.76426C17.9716 6.2011 18.0656 5.6359 18.2885 5.11693C18.5113 4.59797 18.8565 4.14064 19.2945 3.78402C19.7324 3.42739 20.2502 3.18205 20.8036 3.06894C21.3569 2.95584 21.9294 2.97833 22.4722 3.1345C23.015 3.29067 23.5119 3.57587 23.9205 3.96576C24.3292 4.35565 24.6374 4.83864 24.8189 5.3735C25.0003 5.90835 25.0497 6.47917 24.9627 7.03723C25.5207 6.95022 26.0915 6.99956 26.6264 7.18103C27.1613 7.3625 27.6442 7.67071 28.0341 8.07935C28.424 8.48799 28.7092 8.98491 28.8654 9.52769C29.0216 10.0705 29.0441 10.643 28.931 11.1963C28.8178 11.7497 28.5725 12.2675 28.2159 12.7054C27.8592 13.1434 27.4019 13.4886 26.883 13.7114C26.364 13.9343 25.7988 14.0283 25.2356 13.9853C24.6725 13.9424 24.1281 13.7637 23.6489 13.4647C23.4567 13.3407 23.2277 13.2863 23.0003 13.3106C22.7728 13.335 22.5605 13.4366 22.3989 13.5985L13.6014 22.396C13.4395 22.5576 13.3379 22.7699 13.3136 22.9973C13.2892 23.2248 13.3436 23.4538 13.4677 23.646C13.7667 24.1251 13.9453 24.6695 13.9882 25.2327C14.0312 25.7959 13.9372 26.3611 13.7144 26.88C13.4915 27.399 13.1463 27.8563 12.7084 28.2129C12.2704 28.5696 11.7526 28.8149 11.1993 28.928C10.6459 29.0411 10.0734 29.0186 9.53062 28.8625C8.98784 28.7063 8.49092 28.4211 8.08228 28.0312C7.67364 27.6413 7.36543 27.1583 7.18396 26.6235C7.00249 26.0886 6.95315 25.5178 7.04016 24.9597Z" stroke="#1C1C1E" stroke-linecap="round" stroke-linejoin="round"/>
</svg>
