<svg width="32" height="32" viewBox="0 0 32 32" fill="none" xmlns="http://www.w3.org/2000/svg">
<path d="M16 28C22.6274 28 28 22.6274 28 16C28 9.37258 22.6274 4 16 4C9.37258 4 4 9.37258 4 16C4 22.6274 9.37258 28 16 28Z" stroke="#1C1C1E" stroke-linecap="round" stroke-linejoin="round"/>
<path d="M16.5 15.5C17.0523 15.5 17.5 15.0523 17.5 14.5C17.5 13.9477 17.0523 13.5 16.5 13.5C15.9477 13.5 15.5 13.9477 15.5 14.5C15.5 15.0523 15.9477 15.5 16.5 15.5Z" fill="#1C1C1E"/>
<path d="M20.5 12.5C21.0523 12.5 21.5 12.0523 21.5 11.5C21.5 10.9477 21.0523 10.5 20.5 10.5C19.9477 10.5 19.5 10.9477 19.5 11.5C19.5 12.0523 19.9477 12.5 20.5 12.5Z" fill="#1C1C1E"/>
<path d="M21.5 17.5C22.0523 17.5 22.5 17.0523 22.5 16.5C22.5 15.9477 22.0523 15.5 21.5 15.5C20.9477 15.5 20.5 15.9477 20.5 16.5C20.5 17.0523 20.9477 17.5 21.5 17.5Z" fill="#1C1C1E"/>
</svg>
