<svg width="32" height="32" viewBox="0 0 32 32" fill="none" xmlns="http://www.w3.org/2000/svg">
<path d="M19.5 12.5C20.0523 12.5 20.5 12.0523 20.5 11.5C20.5 10.9477 20.0523 10.5 19.5 10.5C18.9477 10.5 18.5 10.9477 18.5 11.5C18.5 12.0523 18.9477 12.5 19.5 12.5Z" fill="#1C1C1E"/>
<path d="M12.5 12.5C13.0523 12.5 13.5 12.0523 13.5 11.5C13.5 10.9477 13.0523 10.5 12.5 10.5C11.9477 10.5 11.5 10.9477 11.5 11.5C11.5 12.0523 11.9477 12.5 12.5 12.5Z" fill="#1C1C1E"/>
<path d="M16 16V28" stroke="#1C1C1E" stroke-linecap="round" stroke-linejoin="round"/>
<path d="M26 18C26 20.6522 24.9464 23.1957 23.0711 25.0711C21.1957 26.9464 18.6522 28 16 28C13.3478 28 10.8043 26.9464 8.92893 25.0711C7.05357 23.1957 6 20.6522 6 18V14C6 11.3478 7.05357 8.8043 8.92893 6.92893C10.8043 5.05357 13.3478 4 16 4C18.6522 4 21.1957 5.05357 23.0711 6.92893C24.9464 8.8043 26 11.3478 26 14V18Z" stroke="#1C1C1E" stroke-linecap="round" stroke-linejoin="round"/>
<path d="M29 22.9995L25.3975 21.4258" stroke="#1C1C1E" stroke-linecap="round" stroke-linejoin="round"/>
<path d="M29 9L25.3975 10.5737" stroke="#1C1C1E" stroke-linecap="round" stroke-linejoin="round"/>
<path d="M3 9L6.6025 10.5737" stroke="#1C1C1E" stroke-linecap="round" stroke-linejoin="round"/>
<path d="M3 22.9995L6.6025 21.4258" stroke="#1C1C1E" stroke-linecap="round" stroke-linejoin="round"/>
<path d="M2 16H30" stroke="#1C1C1E" stroke-linecap="round" stroke-linejoin="round"/>
</svg>
