<svg width="32" height="32" viewBox="0 0 32 32" fill="none" xmlns="http://www.w3.org/2000/svg">
<path d="M26 5H6C5.44772 5 5 5.44772 5 6V26C5 26.5523 5.44772 27 6 27H26C26.5523 27 27 26.5523 27 26V6C27 5.44772 26.5523 5 26 5Z" stroke="#1C1C1E" stroke-linecap="round" stroke-linejoin="round"/>
<path d="M22 3V7" stroke="#1C1C1E" stroke-linecap="round" stroke-linejoin="round"/>
<path d="M10 3V7" stroke="#1C1C1E" stroke-linecap="round" stroke-linejoin="round"/>
<path d="M5 11H27" stroke="#1C1C1E" stroke-linecap="round" stroke-linejoin="round"/>
<path d="M16 17.5C16.5523 17.5 17 17.0523 17 16.5C17 15.9477 16.5523 15.5 16 15.5C15.4477 15.5 15 15.9477 15 16.5C15 17.0523 15.4477 17.5 16 17.5Z" fill="#1C1C1E"/>
<path d="M21.5 17.5C22.0523 17.5 22.5 17.0523 22.5 16.5C22.5 15.9477 22.0523 15.5 21.5 15.5C20.9477 15.5 20.5 15.9477 20.5 16.5C20.5 17.0523 20.9477 17.5 21.5 17.5Z" fill="#1C1C1E"/>
<path d="M10.5 22.5C11.0523 22.5 11.5 22.0523 11.5 21.5C11.5 20.9477 11.0523 20.5 10.5 20.5C9.94772 20.5 9.5 20.9477 9.5 21.5C9.5 22.0523 9.94772 22.5 10.5 22.5Z" fill="#1C1C1E"/>
<path d="M16 22.5C16.5523 22.5 17 22.0523 17 21.5C17 20.9477 16.5523 20.5 16 20.5C15.4477 20.5 15 20.9477 15 21.5C15 22.0523 15.4477 22.5 16 22.5Z" fill="#1C1C1E"/>
<path d="M21.5 22.5C22.0523 22.5 22.5 22.0523 22.5 21.5C22.5 20.9477 22.0523 20.5 21.5 20.5C20.9477 20.5 20.5 20.9477 20.5 21.5C20.5 22.0523 20.9477 22.5 21.5 22.5Z" fill="#1C1C1E"/>
</svg>
