<svg width="32" height="32" viewBox="0 0 32 32" fill="none" xmlns="http://www.w3.org/2000/svg">
<path d="M24 28V14L25.7075 12.2925C25.8947 12.1051 25.9999 11.8511 26 11.5863V6C26 5.73478 25.8946 5.48043 25.7071 5.29289C25.5196 5.10536 25.2652 5 25 5H22V9H18V5H14V9H10V5H7C6.73478 5 6.48043 5.10536 6.29289 5.29289C6.10536 5.48043 6 5.73478 6 6V11.5863C6.00012 11.8511 6.10532 12.1051 6.2925 12.2925L8 14V28" stroke="#1C1C1E" stroke-linecap="round" stroke-linejoin="round"/>
<path d="M13 28V21C13 20.2044 13.3161 19.4413 13.8787 18.8787C14.4413 18.3161 15.2044 18 16 18C16.7956 18 17.5587 18.3161 18.1213 18.8787C18.6839 19.4413 19 20.2044 19 21V28" stroke="#1C1C1E" stroke-linecap="round" stroke-linejoin="round"/>
<path d="M5 28H27" stroke="#1C1C1E" stroke-linecap="round" stroke-linejoin="round"/>
</svg>
