<svg width="32" height="32" viewBox="0 0 32 32" fill="none" xmlns="http://www.w3.org/2000/svg">
<path d="M16 24V28" stroke="#1C1C1E" stroke-linecap="round" stroke-linejoin="round"/>
<path d="M16 6V11" stroke="#1C1C1E" stroke-linecap="round" stroke-linejoin="round"/>
<path d="M18 22L16 24L14 22" stroke="#1C1C1E" stroke-linecap="round" stroke-linejoin="round"/>
<path d="M12 6.62598V10.9997" stroke="#1C1C1E" stroke-linecap="round" stroke-linejoin="round"/>
<path d="M20 6.62598V10.9997" stroke="#1C1C1E" stroke-linecap="round" stroke-linejoin="round"/>
<path d="M8.45 8.44981C10.6453 6.85744 13.288 5.99995 16 5.99995C18.712 5.99995 21.3547 6.85744 23.55 8.44981L26.2925 5.29481C26.4322 5.15495 26.6102 5.05963 26.8041 5.0209C26.9979 4.98217 27.1989 5.00177 27.3816 5.07721C27.5644 5.15265 27.7206 5.28056 27.8307 5.44477C27.9407 5.60898 27.9997 5.80213 28 5.99981V16.9998C28 23.0748 22.625 27.9998 16 27.9998C9.375 27.9998 4 23.0748 4 16.9998V5.99981C3.99984 5.80192 4.05841 5.60842 4.16828 5.44383C4.27815 5.27923 4.43439 5.15094 4.61721 5.07519C4.80003 4.99944 5.00122 4.97963 5.19531 5.01828C5.38939 5.05693 5.56764 5.1523 5.7075 5.29231L8.45 8.44981Z" stroke="#1C1C1E" stroke-linecap="round" stroke-linejoin="round"/>
<path d="M10.5 18.5C11.0523 18.5 11.5 18.0523 11.5 17.5C11.5 16.9477 11.0523 16.5 10.5 16.5C9.94772 16.5 9.5 16.9477 9.5 17.5C9.5 18.0523 9.94772 18.5 10.5 18.5Z" fill="#1C1C1E"/>
<path d="M21.5 18.5C22.0523 18.5 22.5 18.0523 22.5 17.5C22.5 16.9477 22.0523 16.5 21.5 16.5C20.9477 16.5 20.5 16.9477 20.5 17.5C20.5 18.0523 20.9477 18.5 21.5 18.5Z" fill="#1C1C1E"/>
</svg>
