<svg width="32" height="32" viewBox="0 0 32 32" fill="none" xmlns="http://www.w3.org/2000/svg">
<path d="M12 30H18" stroke="#1C1C1E" stroke-linecap="round" stroke-linejoin="round"/>
<path d="M12.2124 2H17.7874C17.7874 2 24.2874 22 14.9999 22C5.71243 22 12.2124 2 12.2124 2Z" stroke="#1C1C1E" stroke-linecap="round" stroke-linejoin="round"/>
<path d="M15 22V30" stroke="#1C1C1E" stroke-linecap="round" stroke-linejoin="round"/>
<path d="M27.5 7.5C28.0523 7.5 28.5 7.05228 28.5 6.5C28.5 5.94772 28.0523 5.5 27.5 5.5C26.9477 5.5 26.5 5.94772 26.5 6.5C26.5 7.05228 26.9477 7.5 27.5 7.5Z" fill="#1C1C1E"/>
<path d="M24.5 3.5C25.0523 3.5 25.5 3.05228 25.5 2.5C25.5 1.94772 25.0523 1.5 24.5 1.5C23.9477 1.5 23.5 1.94772 23.5 2.5C23.5 3.05228 23.9477 3.5 24.5 3.5Z" fill="#1C1C1E"/>
<path d="M24.5 13.5C25.0523 13.5 25.5 13.0523 25.5 12.5C25.5 11.9477 25.0523 11.5 24.5 11.5C23.9477 11.5 23.5 11.9477 23.5 12.5C23.5 13.0523 23.9477 13.5 24.5 13.5Z" fill="#1C1C1E"/>
<path d="M10.5254 9H19.4754" stroke="#1C1C1E" stroke-linecap="round" stroke-linejoin="round"/>
</svg>
