<svg width="32" height="32" viewBox="0 0 32 32" fill="none" xmlns="http://www.w3.org/2000/svg">
<path d="M28 26H4V6" stroke="#1C1C1E" stroke-linecap="round" stroke-linejoin="round"/>
<path d="M16.5 19.5C17.0523 19.5 17.5 19.0523 17.5 18.5C17.5 17.9477 17.0523 17.5 16.5 17.5C15.9477 17.5 15.5 17.9477 15.5 18.5C15.5 19.0523 15.9477 19.5 16.5 19.5Z" fill="#1C1C1E"/>
<path d="M13.5 12.5C14.0523 12.5 14.5 12.0523 14.5 11.5C14.5 10.9477 14.0523 10.5 13.5 10.5C12.9477 10.5 12.5 10.9477 12.5 11.5C12.5 12.0523 12.9477 12.5 13.5 12.5Z" fill="#1C1C1E"/>
<path d="M9.5 21.5C10.0523 21.5 10.5 21.0523 10.5 20.5C10.5 19.9477 10.0523 19.5 9.5 19.5C8.94772 19.5 8.5 19.9477 8.5 20.5C8.5 21.0523 8.94772 21.5 9.5 21.5Z" fill="#1C1C1E"/>
<path d="M21.5 15.5C22.0523 15.5 22.5 15.0523 22.5 14.5C22.5 13.9477 22.0523 13.5 21.5 13.5C20.9477 13.5 20.5 13.9477 20.5 14.5C20.5 15.0523 20.9477 15.5 21.5 15.5Z" fill="#1C1C1E"/>
<path d="M24.5 10.5C25.0523 10.5 25.5 10.0523 25.5 9.5C25.5 8.94772 25.0523 8.5 24.5 8.5C23.9477 8.5 23.5 8.94772 23.5 9.5C23.5 10.0523 23.9477 10.5 24.5 10.5Z" fill="#1C1C1E"/>
<path d="M23.5 21.5C24.0523 21.5 24.5 21.0523 24.5 20.5C24.5 19.9477 24.0523 19.5 23.5 19.5C22.9477 19.5 22.5 19.9477 22.5 20.5C22.5 21.0523 22.9477 21.5 23.5 21.5Z" fill="#1C1C1E"/>
</svg>
