<svg width="32" height="32" viewBox="0 0 32 32" fill="none" xmlns="http://www.w3.org/2000/svg">
<path d="M16 17C16.5523 17 17 16.5523 17 16C17 15.4477 16.5523 15 16 15C15.4477 15 15 15.4477 15 16C15 16.5523 15.4477 17 16 17Z" fill="#1C1C1E"/>
<path d="M10.5 17C11.0523 17 11.5 16.5523 11.5 16C11.5 15.4477 11.0523 15 10.5 15C9.94772 15 9.5 15.4477 9.5 16C9.5 16.5523 9.94772 17 10.5 17Z" fill="#1C1C1E"/>
<path d="M21.5 17C22.0523 17 22.5 16.5523 22.5 16C22.5 15.4477 22.0523 15 21.5 15C20.9477 15 20.5 15.4477 20.5 16C20.5 16.5523 20.9477 17 21.5 17Z" fill="#1C1C1E"/>
<path d="M9.99109 26.3889C12.5118 27.8478 15.4769 28.3401 18.3338 27.7742C21.1907 27.2083 23.7443 25.6227 25.5184 23.3131C27.2926 21.0035 28.1663 18.1275 27.9766 15.2213C27.7869 12.3151 26.5467 9.57703 24.4873 7.51766C22.428 5.45829 19.6899 4.21814 16.7837 4.02843C13.8775 3.83872 11.0015 4.71239 8.69189 6.48656C6.38228 8.26073 4.7967 10.8143 4.23078 13.6712C3.66486 16.5281 4.15723 19.4932 5.61609 22.0139L4.05234 26.6827C3.99358 26.8589 3.98505 27.0479 4.02771 27.2287C4.07037 27.4095 4.16254 27.5748 4.29387 27.7061C4.42521 27.8375 4.59052 27.9296 4.77129 27.9723C4.95206 28.0149 5.14114 28.0064 5.31734 27.9477L9.99109 26.3889Z" stroke="#1C1C1E" stroke-linecap="round" stroke-linejoin="round"/>
</svg>
