<svg width="32" height="32" viewBox="0 0 32 32" fill="none" xmlns="http://www.w3.org/2000/svg">
<path d="M16 16C16.5523 16 17 15.5523 17 15C17 14.4477 16.5523 14 16 14C15.4477 14 15 14.4477 15 15C15 15.5523 15.4477 16 16 16Z" fill="#1C1C1E"/>
<path d="M10.5 16C11.0523 16 11.5 15.5523 11.5 15C11.5 14.4477 11.0523 14 10.5 14C9.94772 14 9.5 14.4477 9.5 15C9.5 15.5523 9.94772 16 10.5 16Z" fill="#1C1C1E"/>
<path d="M21.5 16C22.0523 16 22.5 15.5523 22.5 15C22.5 14.4477 22.0523 14 21.5 14C20.9477 14 20.5 14.4477 20.5 15C20.5 15.5523 20.9477 16 21.5 16Z" fill="#1C1C1E"/>
<path d="M13.1337 24L15.1337 27.5C15.2211 27.6533 15.3475 27.7808 15.5001 27.8694C15.6527 27.9581 15.826 28.0047 16.0025 28.0047C16.179 28.0047 16.3523 27.9581 16.5049 27.8694C16.6575 27.7808 16.7839 27.6533 16.8713 27.5L18.8713 24H27C27.2652 24 27.5196 23.8946 27.7071 23.7071C27.8946 23.5196 28 23.2652 28 23V7C28 6.73478 27.8946 6.48043 27.7071 6.29289C27.5196 6.10536 27.2652 6 27 6H5C4.73478 6 4.48043 6.10536 4.29289 6.29289C4.10536 6.48043 4 6.73478 4 7V23C4 23.2652 4.10536 23.5196 4.29289 23.7071C4.48043 23.8946 4.73478 24 5 24H13.1337Z" stroke="#1C1C1E" stroke-linecap="round" stroke-linejoin="round"/>
</svg>
