<svg width="32" height="32" viewBox="0 0 32 32" fill="none" xmlns="http://www.w3.org/2000/svg">
<path d="M16.0003 7L20.0003 6C20.0003 6 23.3103 11.1688 24.8628 16.9638C25.0009 17.4718 25.0373 18.0022 24.9699 18.5244C24.9026 19.0465 24.7328 19.5503 24.4704 20.0067C24.2079 20.4632 23.8579 20.8633 23.4405 21.1842C23.0231 21.505 22.5464 21.7403 22.0378 21.8766C21.5292 22.0128 20.9988 22.0473 20.4768 21.978C19.9549 21.9088 19.4517 21.7372 18.9963 21.4731C18.5408 21.209 18.1419 20.8576 17.8226 20.439C17.5032 20.0203 17.2697 19.5428 17.1353 19.0338C15.5828 13.2388 16.0003 7 16.0003 7Z" stroke="#1C1C1E" stroke-linecap="round" stroke-linejoin="round"/>
<path d="M22.0342 21.8623L23.8292 28.5586" stroke="#1C1C1E" stroke-linecap="round" stroke-linejoin="round"/>
<path d="M27 27.709L21 29.3165" stroke="#1C1C1E" stroke-linecap="round" stroke-linejoin="round"/>
<path d="M15.9996 4L11.9996 3C11.9996 3 8.68958 8.16875 7.13708 13.9637C6.999 14.4718 6.96258 15.0022 7.02992 15.5244C7.09726 16.0465 7.26702 16.5503 7.52948 17.0067C7.79194 17.4632 8.14193 17.8633 8.55937 18.1842C8.97681 18.505 9.45349 18.7403 9.96206 18.8766C10.4706 19.0128 11.0011 19.0473 11.5231 18.978C12.045 18.9088 12.5481 18.7372 13.0036 18.4731C13.4591 18.209 13.8579 17.8576 14.1773 17.439C14.4966 17.0203 14.7302 16.5428 14.8646 16.0338C16.2858 10.225 15.9996 4 15.9996 4Z" stroke="#1C1C1E" stroke-linecap="round" stroke-linejoin="round"/>
<path d="M9.9659 18.8623L8.1709 25.5586" stroke="#1C1C1E" stroke-linecap="round" stroke-linejoin="round"/>
<path d="M5 24.709L11 26.3165" stroke="#1C1C1E" stroke-linecap="round" stroke-linejoin="round"/>
<path d="M16.0615 12.235L22.4928 10.625" stroke="#1C1C1E" stroke-linecap="round" stroke-linejoin="round"/>
<path d="M15.8646 9.46656L9.40332 7.85156" stroke="#1C1C1E" stroke-linecap="round" stroke-linejoin="round"/>
<path d="M24 5L26 4" stroke="#1C1C1E" stroke-linecap="round" stroke-linejoin="round"/>
<path d="M26 9H28" stroke="#1C1C1E" stroke-linecap="round" stroke-linejoin="round"/>
<path d="M7 4L5 3" stroke="#1C1C1E" stroke-linecap="round" stroke-linejoin="round"/>
<path d="M5 8H3" stroke="#1C1C1E" stroke-linecap="round" stroke-linejoin="round"/>
</svg>
