<svg width="32" height="32" viewBox="0 0 32 32" fill="none" xmlns="http://www.w3.org/2000/svg">
<path d="M11 23V17" stroke="#1C1C1E" stroke-linecap="round" stroke-linejoin="round"/>
<path d="M26 13C26 13 23.75 12 26 8C28.25 4 26 3 26 3" stroke="#1C1C1E" stroke-linecap="round" stroke-linejoin="round"/>
<path d="M21 13C21 13 18.75 12 21 8C23.25 4 21 3 21 3" stroke="#1C1C1E" stroke-linecap="round" stroke-linejoin="round"/>
<path d="M6 5L26 27" stroke="#1C1C1E" stroke-linecap="round" stroke-linejoin="round"/>
<path d="M22.3154 17H28.0004C28.2656 17 28.52 17.1054 28.7075 17.2929C28.8951 17.4804 29.0004 17.7348 29.0004 18V22C29.0004 22.2652 28.8951 22.5196 28.7075 22.7071C28.52 22.8946 28.2656 23 28.0004 23H27.7704" stroke="#1C1C1E" stroke-linecap="round" stroke-linejoin="round"/>
<path d="M22.3638 23H4C3.73478 23 3.48043 22.8946 3.29289 22.7071C3.10536 22.5196 3 22.2652 3 22V18C3 17.7348 3.10536 17.4804 3.29289 17.2929C3.48043 17.1054 3.73478 17 4 17H16.9088" stroke="#1C1C1E" stroke-linecap="round" stroke-linejoin="round"/>
</svg>
