<svg width="32" height="32" viewBox="0 0 32 32" fill="none" xmlns="http://www.w3.org/2000/svg">
<path d="M21 15C22.1046 15 23 14.1046 23 13C23 11.8954 22.1046 11 21 11C19.8954 11 19 11.8954 19 13C19 14.1046 19.8954 15 21 15Z" stroke="#1C1C1E" stroke-linecap="round" stroke-linejoin="round"/>
<path d="M11 23C12.1046 23 13 22.1046 13 21C13 19.8954 12.1046 19 11 19C9.89543 19 9 19.8954 9 21C9 22.1046 9.89543 23 11 23Z" stroke="#1C1C1E" stroke-linecap="round" stroke-linejoin="round"/>
<path d="M19 27V20L11 12V5" stroke="#1C1C1E" stroke-linecap="round" stroke-linejoin="round"/>
<path d="M11 19V12" stroke="#1C1C1E" stroke-linecap="round" stroke-linejoin="round"/>
<path d="M26 5H6C5.44772 5 5 5.44772 5 6V26C5 26.5523 5.44772 27 6 27H26C26.5523 27 27 26.5523 27 26V6C27 5.44772 26.5523 5 26 5Z" stroke="#1C1C1E" stroke-linecap="round" stroke-linejoin="round"/>
<path d="M17 5V9L19.5863 11.5863" stroke="#1C1C1E" stroke-linecap="round" stroke-linejoin="round"/>
</svg>
