<svg width="32" height="32" viewBox="0 0 32 32" fill="none" xmlns="http://www.w3.org/2000/svg">
<path d="M10 14C12.2091 14 14 12.2091 14 10C14 7.79086 12.2091 6 10 6C7.79086 6 6 7.79086 6 10C6 12.2091 7.79086 14 10 14Z" stroke="#1C1C1E" stroke-linecap="round" stroke-linejoin="round"/>
<path d="M22 14C24.2091 14 26 12.2091 26 10C26 7.79086 24.2091 6 22 6C19.7909 6 18 7.79086 18 10C18 12.2091 19.7909 14 22 14Z" stroke="#1C1C1E" stroke-linecap="round" stroke-linejoin="round"/>
<path d="M10 26C12.2091 26 14 24.2091 14 22C14 19.7909 12.2091 18 10 18C7.79086 18 6 19.7909 6 22C6 24.2091 7.79086 26 10 26Z" stroke="#1C1C1E" stroke-linecap="round" stroke-linejoin="round"/>
<path d="M22 18V26" stroke="#1C1C1E" stroke-linecap="round" stroke-linejoin="round"/>
<path d="M26 22H18" stroke="#1C1C1E" stroke-linecap="round" stroke-linejoin="round"/>
</svg>
