<svg width="32" height="32" viewBox="0 0 32 32" fill="none" xmlns="http://www.w3.org/2000/svg">
<path d="M28 17C27.4912 23.16 22.2913 28 16 28C12.8174 28 9.76516 26.7357 7.51472 24.4853C5.26428 22.2348 4 19.1826 4 16C4 9.70875 8.84 4.50875 15 4" stroke="#1C1C1E" stroke-linecap="round" stroke-linejoin="round"/>
<path d="M16 9V16H23" stroke="#1C1C1E" stroke-linecap="round" stroke-linejoin="round"/>
<path d="M20 5.5C20.5523 5.5 21 5.05228 21 4.5C21 3.94772 20.5523 3.5 20 3.5C19.4477 3.5 19 3.94772 19 4.5C19 5.05228 19.4477 5.5 20 5.5Z" fill="#1C1C1E"/>
<path d="M24.5 8.5C25.0523 8.5 25.5 8.05228 25.5 7.5C25.5 6.94772 25.0523 6.5 24.5 6.5C23.9477 6.5 23.5 6.94772 23.5 7.5C23.5 8.05228 23.9477 8.5 24.5 8.5Z" fill="#1C1C1E"/>
<path d="M27.5 13C28.0523 13 28.5 12.5523 28.5 12C28.5 11.4477 28.0523 11 27.5 11C26.9477 11 26.5 11.4477 26.5 12C26.5 12.5523 26.9477 13 27.5 13Z" fill="#1C1C1E"/>
</svg>
