<svg width="32" height="32" viewBox="0 0 32 32" fill="none" xmlns="http://www.w3.org/2000/svg">
<path d="M9.5 25.5C10.0523 25.5 10.5 25.0523 10.5 24.5C10.5 23.9477 10.0523 23.5 9.5 23.5C8.94772 23.5 8.5 23.9477 8.5 24.5C8.5 25.0523 8.94772 25.5 9.5 25.5Z" fill="#1C1C1E"/>
<path d="M14.5 27.5C15.0523 27.5 15.5 27.0523 15.5 26.5C15.5 25.9477 15.0523 25.5 14.5 25.5C13.9477 25.5 13.5 25.9477 13.5 26.5C13.5 27.0523 13.9477 27.5 14.5 27.5Z" fill="#1C1C1E"/>
<path d="M20.5 25.5C21.0523 25.5 21.5 25.0523 21.5 24.5C21.5 23.9477 21.0523 23.5 20.5 23.5C19.9477 23.5 19.5 23.9477 19.5 24.5C19.5 25.0523 19.9477 25.5 20.5 25.5Z" fill="#1C1C1E"/>
<path d="M8.5 30.5C9.05228 30.5 9.5 30.0523 9.5 29.5C9.5 28.9477 9.05228 28.5 8.5 28.5C7.94772 28.5 7.5 28.9477 7.5 29.5C7.5 30.0523 7.94772 30.5 8.5 30.5Z" fill="#1C1C1E"/>
<path d="M19.5 30.5C20.0523 30.5 20.5 30.0523 20.5 29.5C20.5 28.9477 20.0523 28.5 19.5 28.5C18.9477 28.5 18.5 28.9477 18.5 29.5C18.5 30.0523 18.9477 30.5 19.5 30.5Z" fill="#1C1C1E"/>
<path d="M11.0006 11.0003C11.0968 9.34178 11.6764 7.74766 12.6681 6.41473C13.6598 5.08179 15.02 4.06838 16.581 3.49955C18.1419 2.93073 19.8352 2.83138 21.452 3.21378C23.0687 3.59617 24.5382 4.44357 25.6789 5.6514C26.8196 6.85923 27.5817 8.37463 27.8712 10.0106C28.1607 11.6465 27.9648 13.3314 27.3078 14.8573C26.6507 16.3833 25.5613 17.6834 24.1739 18.5974C22.7866 19.5113 21.1619 19.999 19.5006 20.0004H9.50058C8.70265 19.9996 7.91445 19.8252 7.19066 19.4893C6.46687 19.1534 5.82483 18.6641 5.30909 18.0552C4.79336 17.4464 4.41628 16.7326 4.20402 15.9634C3.99177 15.1942 3.94941 14.3881 4.07991 13.6009C4.2104 12.8137 4.51061 12.0643 4.95971 11.4048C5.40881 10.7452 5.99604 10.1913 6.68065 9.78143C7.36526 9.37156 8.13086 9.11555 8.92432 9.03118C9.71777 8.94681 10.5201 9.0361 11.2756 9.29285" stroke="#1C1C1E" stroke-linecap="round" stroke-linejoin="round"/>
</svg>
