<svg width="32" height="32" viewBox="0 0 32 32" fill="none" xmlns="http://www.w3.org/2000/svg">
<path d="M14.0002 26H9.00015C8.0076 25.9988 7.02666 25.7865 6.12242 25.3772C5.21817 24.9679 4.4113 24.3711 3.75535 23.6262C3.09939 22.8813 2.60934 22.0054 2.31773 21.0566C2.02611 20.1079 1.9396 19.108 2.06392 18.1232C2.18824 17.1385 2.52055 16.1915 3.03881 15.345C3.55707 14.4985 4.24942 13.7718 5.06993 13.2133C5.89044 12.6548 6.82034 12.2772 7.79793 12.1055C8.77552 11.9338 9.77844 11.972 10.7402 12.2175" stroke="#1C1C1E" stroke-linecap="round" stroke-linejoin="round"/>
<path d="M15 20L19 16L23 20" stroke="#1C1C1E" stroke-linecap="round" stroke-linejoin="round"/>
<path d="M19 26V16" stroke="#1C1C1E" stroke-linecap="round" stroke-linejoin="round"/>
<path d="M10 16.0001C10.0004 14.1973 10.4882 12.4281 11.4117 10.8798C12.3352 9.33154 13.6601 8.06169 15.2461 7.20467C16.8322 6.34764 18.6205 5.93532 20.4216 6.01134C22.2228 6.08735 23.97 6.64888 25.4782 7.63649C26.9864 8.6241 28.1996 10.0011 28.9894 11.6217C29.7791 13.2423 30.1161 15.0462 29.9646 16.8427C29.8132 18.6391 29.1789 20.3611 28.1289 21.8266C27.0789 23.2921 25.6523 24.4465 24 25.1676" stroke="#1C1C1E" stroke-linecap="round" stroke-linejoin="round"/>
</svg>
