<svg width="32" height="32" viewBox="0 0 32 32" fill="none" xmlns="http://www.w3.org/2000/svg">
<path d="M19.5 22.5C20.0523 22.5 20.5 22.0523 20.5 21.5C20.5 20.9477 20.0523 20.5 19.5 20.5C18.9477 20.5 18.5 20.9477 18.5 21.5C18.5 22.0523 18.9477 22.5 19.5 22.5Z" fill="#1C1C1E"/>
<path d="M11.5 21.5C12.0523 21.5 12.5 21.0523 12.5 20.5C12.5 19.9477 12.0523 19.5 11.5 19.5C10.9477 19.5 10.5 19.9477 10.5 20.5C10.5 21.0523 10.9477 21.5 11.5 21.5Z" fill="#1C1C1E"/>
<path d="M10.5 14.5C11.0523 14.5 11.5 14.0523 11.5 13.5C11.5 12.9477 11.0523 12.5 10.5 12.5C9.94772 12.5 9.5 12.9477 9.5 13.5C9.5 14.0523 9.94772 14.5 10.5 14.5Z" fill="#1C1C1E"/>
<path d="M16.5 16.5C17.0523 16.5 17.5 16.0523 17.5 15.5C17.5 14.9477 17.0523 14.5 16.5 14.5C15.9477 14.5 15.5 14.9477 15.5 15.5C15.5 16.0523 15.9477 16.5 16.5 16.5Z" fill="#1C1C1E"/>
<path d="M28 16C26.4087 16 24.8826 15.3679 23.7574 14.2426C22.6321 13.1174 22 11.5913 22 10C20.4087 10 18.8826 9.36786 17.7574 8.24264C16.6321 7.11742 16 5.5913 16 4C13.6266 4 11.3066 4.70379 9.33316 6.02236C7.35977 7.34094 5.8217 9.21509 4.91345 11.4078C4.0052 13.6005 3.76756 16.0133 4.23058 18.3411C4.6936 20.6689 5.83649 22.8071 7.51472 24.4853C9.19295 26.1635 11.3312 27.3064 13.6589 27.7694C15.9867 28.2324 18.3995 27.9948 20.5922 27.0866C22.7849 26.1783 24.6591 24.6402 25.9776 22.6668C27.2962 20.6935 28 18.3734 28 16Z" stroke="#1C1C1E" stroke-linecap="round" stroke-linejoin="round"/>
</svg>
