<svg width="32" height="32" viewBox="0 0 32 32" fill="none" xmlns="http://www.w3.org/2000/svg">
<path d="M3 14V9C3 8.73478 3.10536 8.48043 3.29289 8.29289C3.48043 8.10536 3.73478 8 4 8H28C28.2652 8 28.5196 8.10536 28.7071 8.29289C28.8946 8.48043 29 8.73478 29 9V14" stroke="#1C1C1E" stroke-linecap="round" stroke-linejoin="round"/>
<path d="M27 22V25" stroke="#1C1C1E" stroke-linecap="round" stroke-linejoin="round"/>
<path d="M5 22V25" stroke="#1C1C1E" stroke-linecap="round" stroke-linejoin="round"/>
<path d="M26 18V15C26 14.7348 26.1054 14.4804 26.2929 14.2929C26.4804 14.1054 26.7348 14 27 14H29C29.2652 14 29.5196 14.1054 29.7071 14.2929C29.8946 14.4804 30 14.7348 30 15V21C30 21.2652 29.8946 21.5196 29.7071 21.7071C29.5196 21.8946 29.2652 22 29 22H3C2.73478 22 2.48043 21.8946 2.29289 21.7071C2.10536 21.5196 2 21.2652 2 21V15C2 14.7348 2.10536 14.4804 2.29289 14.2929C2.48043 14.1054 2.73478 14 3 14H5C5.26522 14 5.51957 14.1054 5.70711 14.2929C5.89464 14.4804 6 14.7348 6 15V18H26Z" stroke="#1C1C1E" stroke-linecap="round" stroke-linejoin="round"/>
<path d="M16 8V18" stroke="#1C1C1E" stroke-linecap="round" stroke-linejoin="round"/>
</svg>
