<svg width="32" height="32" viewBox="0 0 32 32" fill="none" xmlns="http://www.w3.org/2000/svg">
<path d="M6.83862 24.9997H25.1611C25.3962 24.9997 25.6239 24.9169 25.804 24.7658C25.9841 24.6147 26.1053 24.405 26.1461 24.1734L28.9836 11.1734C29.0193 10.9595 28.9844 10.7398 28.8842 10.5474C28.7841 10.355 28.6242 10.2004 28.4285 10.1069C28.2328 10.0134 28.012 9.98598 27.7994 10.0289C27.5869 10.0718 27.394 10.1826 27.2499 10.3447L21.9999 15.9997L16.9074 4.58092C16.8272 4.40774 16.6992 4.26111 16.5384 4.15835C16.3776 4.05558 16.1907 4.00098 15.9999 4.00098C15.809 4.00098 15.6222 4.05558 15.4614 4.15835C15.3006 4.26111 15.1725 4.40774 15.0924 4.58092L9.99987 15.9997L4.74987 10.3447C4.60608 10.1802 4.4124 10.0674 4.19843 10.0234C3.98446 9.97942 3.76197 10.0067 3.56497 10.1011C3.36797 10.1955 3.2073 10.3518 3.10751 10.5461C3.00772 10.7404 2.97431 10.9621 3.01237 11.1772L5.84987 24.1772C5.89162 24.4087 6.01364 24.618 6.19448 24.7685C6.37532 24.9189 6.60339 25.0008 6.83862 24.9997Z" stroke="#1C1C1E" stroke-linecap="round" stroke-linejoin="round"/>
</svg>
