<svg width="32" height="32" viewBox="0 0 32 32" fill="none" xmlns="http://www.w3.org/2000/svg">
<path d="M16 8.5C16.5523 8.5 17 8.05228 17 7.5C17 6.94772 16.5523 6.5 16 6.5C15.4477 6.5 15 6.94772 15 7.5C15 8.05228 15.4477 8.5 16 8.5Z" fill="#1C1C1E"/>
<path d="M16 17C16.5523 17 17 16.5523 17 16C17 15.4477 16.5523 15 16 15C15.4477 15 15 15.4477 15 16C15 16.5523 15.4477 17 16 17Z" fill="#1C1C1E"/>
<path d="M16 25.5C16.5523 25.5 17 25.0523 17 24.5C17 23.9477 16.5523 23.5 16 23.5C15.4477 23.5 15 23.9477 15 24.5C15 25.0523 15.4477 25.5 16 25.5Z" fill="#1C1C1E"/>
</svg>
