<svg width="32" height="32" viewBox="0 0 32 32" fill="none" xmlns="http://www.w3.org/2000/svg">
<path d="M16 17C16.5523 17 17 16.5523 17 16C17 15.4477 16.5523 15 16 15C15.4477 15 15 15.4477 15 16C15 16.5523 15.4477 17 16 17Z" fill="#1C1C1E"/>
<path d="M7.5 17C8.05228 17 8.5 16.5523 8.5 16C8.5 15.4477 8.05228 15 7.5 15C6.94772 15 6.5 15.4477 6.5 16C6.5 16.5523 6.94772 17 7.5 17Z" fill="#1C1C1E"/>
<path d="M24.5 17C25.0523 17 25.5 16.5523 25.5 16C25.5 15.4477 25.0523 15 24.5 15C23.9477 15 23.5 15.4477 23.5 16C23.5 16.5523 23.9477 17 24.5 17Z" fill="#1C1C1E"/>
</svg>
