<svg width="32" height="32" viewBox="0 0 32 32" fill="none" xmlns="http://www.w3.org/2000/svg">
<path d="M16 28C22.6274 28 28 22.6274 28 16C28 9.37258 22.6274 4 16 4C9.37258 4 4 9.37258 4 16C4 22.6274 9.37258 28 16 28Z" stroke="#1C1C1E" stroke-linecap="round" stroke-linejoin="round"/>
<path d="M16 17C16.5523 17 17 16.5523 17 16C17 15.4477 16.5523 15 16 15C15.4477 15 15 15.4477 15 16C15 16.5523 15.4477 17 16 17Z" fill="#1C1C1E"/>
<path d="M10.5 17C11.0523 17 11.5 16.5523 11.5 16C11.5 15.4477 11.0523 15 10.5 15C9.94772 15 9.5 15.4477 9.5 16C9.5 16.5523 9.94772 17 10.5 17Z" fill="#1C1C1E"/>
<path d="M21.5 17C22.0523 17 22.5 16.5523 22.5 16C22.5 15.4477 22.0523 15 21.5 15C20.9477 15 20.5 15.4477 20.5 16C20.5 16.5523 20.9477 17 21.5 17Z" fill="#1C1C1E"/>
</svg>
