<svg width="32" height="32" viewBox="0 0 32 32" fill="none" xmlns="http://www.w3.org/2000/svg">
<path d="M8.5 25C10.9853 25 13 22.9853 13 20.5C13 18.0147 10.9853 16 8.5 16C6.01472 16 4 18.0147 4 20.5C4 22.9853 6.01472 25 8.5 25Z" stroke="#1C1C1E" stroke-linecap="round" stroke-linejoin="round"/>
<path d="M23.5 25C25.9853 25 28 22.9853 28 20.5C28 18.0147 25.9853 16 23.5 16C21.0147 16 19 18.0147 19 20.5C19 22.9853 21.0147 25 23.5 25Z" stroke="#1C1C1E" stroke-linecap="round" stroke-linejoin="round"/>
<path d="M13 20H19" stroke="#1C1C1E" stroke-linecap="round" stroke-linejoin="round"/>
<path d="M4 20.5V9C4 8.20435 4.31607 7.44129 4.87868 6.87868C5.44129 6.31607 6.20435 6 7 6" stroke="#1C1C1E" stroke-linecap="round" stroke-linejoin="round"/>
<path d="M25 6C25.7956 6 26.5587 6.31607 27.1213 6.87868C27.6839 7.44129 28 8.20435 28 9V20.5" stroke="#1C1C1E" stroke-linecap="round" stroke-linejoin="round"/>
</svg>
