<svg width="32" height="32" viewBox="0 0 32 32" fill="none" xmlns="http://www.w3.org/2000/svg">
<path d="M6 14V5C6 4.73478 6.10536 4.48043 6.29289 4.29289C6.48043 4.10536 6.73478 4 7 4H19L26 11V14" stroke="#1C1C1E" stroke-linecap="round" stroke-linejoin="round"/>
<path d="M19 4V11H26" stroke="#1C1C1E" stroke-linecap="round" stroke-linejoin="round"/>
<path d="M25 22.5H22" stroke="#1C1C1E" stroke-linecap="round" stroke-linejoin="round"/>
<path d="M5 19L7.5 26L10 19" stroke="#1C1C1E" stroke-linecap="round" stroke-linejoin="round"/>
<path d="M26 26H22V19H26" stroke="#1C1C1E" stroke-linecap="round" stroke-linejoin="round"/>
<path d="M13.5 19V23.75C13.5 24.3467 13.7371 24.919 14.159 25.341C14.581 25.7629 15.1533 26 15.75 26C16.3467 26 16.919 25.7629 17.341 25.341C17.7629 24.919 18 24.3467 18 23.75V19" stroke="#1C1C1E" stroke-linecap="round" stroke-linejoin="round"/>
</svg>
