<svg width="32" height="32" viewBox="0 0 32 32" fill="none" xmlns="http://www.w3.org/2000/svg">
<path d="M10 25.1087C9.74488 25.3856 9.43589 25.6075 9.09198 25.7608C8.74807 25.914 8.37648 25.9954 8 26C6.3425 26 5 24.4325 5 22.5C5 20.5675 6.3425 19 8 19C8.37648 19.0046 8.74807 19.086 9.09198 19.2392C9.43589 19.3925 9.74488 19.6144 10 19.8913" stroke="#1C1C1E" stroke-linecap="round" stroke-linejoin="round"/>
<path d="M15 28H25C25.2652 28 25.5196 27.8946 25.7071 27.7071C25.8946 27.5196 26 27.2652 26 27V11L19 4H7C6.73478 4 6.48043 4.10536 6.29289 4.29289C6.10536 4.48043 6 4.73478 6 5V14" stroke="#1C1C1E" stroke-linecap="round" stroke-linejoin="round"/>
<path d="M19 4V11H26" stroke="#1C1C1E" stroke-linecap="round" stroke-linejoin="round"/>
</svg>
