<svg width="32" height="32" viewBox="0 0 32 32" fill="none" xmlns="http://www.w3.org/2000/svg">
<path d="M23 28H25C25.2652 28 25.5196 27.8946 25.7071 27.7071C25.8946 27.5196 26 27.2652 26 27V11L19 4H7C6.73478 4 6.48043 4.10536 6.29289 4.29289C6.10536 4.48043 6 4.73478 6 5V14" stroke="#1C1C1E" stroke-linecap="round" stroke-linejoin="round"/>
<path d="M19 4V11H26" stroke="#1C1C1E" stroke-linecap="round" stroke-linejoin="round"/>
<path d="M6 24H8C8.66304 24 9.29893 23.7366 9.76777 23.2678C10.2366 22.7989 10.5 22.163 10.5 21.5C10.5 20.837 10.2366 20.2011 9.76777 19.7322C9.29893 19.2634 8.66304 19 8 19H6V26" stroke="#1C1C1E" stroke-linecap="round" stroke-linejoin="round"/>
<path d="M10.5 25.9999L9.16504 23.7124" stroke="#1C1C1E" stroke-linecap="round" stroke-linejoin="round"/>
<path d="M17.9874 19.2002C17.9874 19.2002 14.3087 18.2277 14.0124 20.5752C13.7162 22.9227 18.8162 21.8402 18.4849 24.4152C18.1762 26.8102 14.5124 25.7902 14.5124 25.7902" stroke="#1C1C1E" stroke-linecap="round" stroke-linejoin="round"/>
</svg>
