<svg width="32" height="32" viewBox="0 0 32 32" fill="none" xmlns="http://www.w3.org/2000/svg">
<path d="M6 14V5C6 4.73478 6.10536 4.48043 6.29289 4.29289C6.48043 4.10536 6.73478 4 7 4H19L26 11V14" stroke="#1C1C1E" stroke-linecap="round" stroke-linejoin="round"/>
<path d="M19 4V11H26" stroke="#1C1C1E" stroke-linecap="round" stroke-linejoin="round"/>
<path d="M27.5 26H24V19" stroke="#1C1C1E" stroke-linecap="round" stroke-linejoin="round"/>
<path d="M9.98743 19.2002C9.98743 19.2002 6.30868 18.2277 6.01243 20.5752C5.71618 22.9227 10.8162 21.8402 10.4849 24.4152C10.1762 26.8102 6.51243 25.7902 6.51243 25.7902" stroke="#1C1C1E" stroke-linecap="round" stroke-linejoin="round"/>
<path d="M17 26C18.6569 26 20 24.433 20 22.5C20 20.567 18.6569 19 17 19C15.3431 19 14 20.567 14 22.5C14 24.433 15.3431 26 17 26Z" stroke="#1C1C1E" stroke-linecap="round" stroke-linejoin="round"/>
<path d="M18 24L20 26" stroke="#1C1C1E" stroke-linecap="round" stroke-linejoin="round"/>
</svg>
