<svg width="32" height="32" viewBox="0 0 32 32" fill="none" xmlns="http://www.w3.org/2000/svg">
<path d="M6 14V5C6 4.73478 6.10536 4.48043 6.29289 4.29289C6.48043 4.10536 6.73478 4 7 4H19L26 11V14" stroke="#1C1C1E" stroke-linecap="round" stroke-linejoin="round"/>
<path d="M19 4V11H26" stroke="#1C1C1E" stroke-linecap="round" stroke-linejoin="round"/>
<path d="M16.9874 19.2002C16.9874 19.2002 13.3087 18.2277 13.0124 20.5752C12.7162 22.9227 17.8162 21.8402 17.4849 24.4152C17.1762 26.8102 13.5124 25.7902 13.5124 25.7902" stroke="#1C1C1E" stroke-linecap="round" stroke-linejoin="round"/>
<path d="M4.5 23.75C4.5 24.3467 4.73705 24.919 5.15901 25.341C5.58097 25.7629 6.15326 26 6.75 26C7.34674 26 7.91903 25.7629 8.34099 25.341C8.76295 24.919 9 24.3467 9 23.75V19" stroke="#1C1C1E" stroke-linecap="round" stroke-linejoin="round"/>
<path d="M21 19L26 26" stroke="#1C1C1E" stroke-linecap="round" stroke-linejoin="round"/>
<path d="M26 19L21 26" stroke="#1C1C1E" stroke-linecap="round" stroke-linejoin="round"/>
</svg>
