<svg width="32" height="32" viewBox="0 0 32 32" fill="none" xmlns="http://www.w3.org/2000/svg">
<path d="M6 14V5C6 4.73478 6.10536 4.48043 6.29289 4.29289C6.48043 4.10536 6.73478 4 7 4H19L26 11V14" stroke="#1C1C1E" stroke-linecap="round" stroke-linejoin="round"/>
<path d="M19 4V11H26" stroke="#1C1C1E" stroke-linecap="round" stroke-linejoin="round"/>
<path d="M9.48743 19.2002C9.48743 19.2002 5.80868 18.2277 5.51243 20.5752C5.21618 22.9227 10.3162 21.8402 9.98493 24.4152C9.67618 26.8102 6.01243 25.7902 6.01243 25.7902" stroke="#1C1C1E" stroke-linecap="round" stroke-linejoin="round"/>
<path d="M13 19L15.5 26L18 19" stroke="#1C1C1E" stroke-linecap="round" stroke-linejoin="round"/>
<path d="M25 23H26V25.1087C25.7449 25.3856 25.4359 25.6075 25.092 25.7608C24.7481 25.914 24.3765 25.9954 24 26C22.3438 26 21 24.4325 21 22.5C21 20.5675 22.3438 19 24 19C24.5358 19.0016 25.0586 19.165 25.5 19.4688" stroke="#1C1C1E" stroke-linecap="round" stroke-linejoin="round"/>
</svg>
