<svg width="32" height="32" viewBox="0 0 32 32" fill="none" xmlns="http://www.w3.org/2000/svg">
<path d="M4 10V7C4 6.73478 4.10536 6.48043 4.29289 6.29289C4.48043 6.10536 4.73478 6 5 6H11.5863C11.8511 6.00012 12.1051 6.10532 12.2925 6.2925L16 10" stroke="#1C1C1E" stroke-linecap="round" stroke-linejoin="round"/>
<path d="M15.07 26H4.9225C4.67804 25.9993 4.44378 25.9019 4.27092 25.7291C4.09806 25.5562 4.00066 25.322 4 25.0775V10H27C27.2652 10 27.5196 10.1054 27.7071 10.2929C27.8946 10.4804 28 10.7348 28 11V15" stroke="#1C1C1E" stroke-linecap="round" stroke-linejoin="round"/>
<path d="M23 24.8175L26.7087 27L25.7 22.9263L29 20.2013L24.6688 19.8675L23 16L21.3312 19.8675L17 20.2013L20.3 22.9263L19.2913 27L23 24.8175Z" stroke="#1C1C1E" stroke-linecap="round" stroke-linejoin="round"/>
</svg>
