<svg width="32" height="32" viewBox="0 0 32 32" fill="none" xmlns="http://www.w3.org/2000/svg">
<path d="M28 11V25.1112C28 25.347 27.9064 25.573 27.7397 25.7397C27.573 25.9064 27.347 26 27.1112 26H5C4.73478 26 4.48043 25.8946 4.29289 25.7071C4.10536 25.5196 4 25.2652 4 25V8C4 7.73478 4.10536 7.48043 4.29289 7.29289C4.48043 7.10536 4.73478 7 5 7H11.6663C11.8826 7 12.0932 7.07018 12.2662 7.2L16 10H27C27.2652 10 27.5196 10.1054 27.7071 10.2929C27.8946 10.4804 28 10.7348 28 11Z" stroke="#1C1C1E" stroke-linecap="round" stroke-linejoin="round"/>
<path d="M13 18H19" stroke="#1C1C1E" stroke-linecap="round" stroke-linejoin="round"/>
<path d="M16 15V21" stroke="#1C1C1E" stroke-linecap="round" stroke-linejoin="round"/>
</svg>
