<svg width="32" height="32" viewBox="0 0 32 32" fill="none" xmlns="http://www.w3.org/2000/svg">
<path d="M9 27C10.6569 27 12 25.6569 12 24C12 22.3431 10.6569 21 9 21C7.34315 21 6 22.3431 6 24C6 25.6569 7.34315 27 9 27Z" stroke="#1C1C1E" stroke-linecap="round" stroke-linejoin="round"/>
<path d="M9 11C10.6569 11 12 9.65685 12 8C12 6.34315 10.6569 5 9 5C7.34315 5 6 6.34315 6 8C6 9.65685 7.34315 11 9 11Z" stroke="#1C1C1E" stroke-linecap="round" stroke-linejoin="round"/>
<path d="M9 11V21" stroke="#1C1C1E" stroke-linecap="round" stroke-linejoin="round"/>
<path d="M25 27C26.6569 27 28 25.6569 28 24C28 22.3431 26.6569 21 25 21C23.3431 21 22 22.3431 22 24C22 25.6569 23.3431 27 25 27Z" stroke="#1C1C1E" stroke-linecap="round" stroke-linejoin="round"/>
<path d="M25 21V13.8287C25 13.5659 24.9483 13.3057 24.8477 13.0629C24.7471 12.8201 24.5996 12.5995 24.4137 12.4137L18 6" stroke="#1C1C1E" stroke-linecap="round" stroke-linejoin="round"/>
<path d="M18 12V6H24" stroke="#1C1C1E" stroke-linecap="round" stroke-linejoin="round"/>
</svg>
