<svg width="32" height="32" viewBox="0 0 32 32" fill="none" xmlns="http://www.w3.org/2000/svg">
<path d="M20.5 13.5C21.0523 13.5 21.5 13.0523 21.5 12.5C21.5 11.9477 21.0523 11.5 20.5 11.5C19.9477 11.5 19.5 11.9477 19.5 12.5C19.5 13.0523 19.9477 13.5 20.5 13.5Z" fill="#1C1C1E"/>
<path d="M16.5 17.5C17.0523 17.5 17.5 17.0523 17.5 16.5C17.5 15.9477 17.0523 15.5 16.5 15.5C15.9477 15.5 15.5 15.9477 15.5 16.5C15.5 17.0523 15.9477 17.5 16.5 17.5Z" fill="#1C1C1E"/>
<path d="M16 22C21.5228 22 26 17.5228 26 12C26 6.47715 21.5228 2 16 2C10.4772 2 6 6.47715 6 12C6 17.5228 10.4772 22 16 22Z" stroke="#1C1C1E" stroke-linecap="round" stroke-linejoin="round"/>
<path d="M16 26V31" stroke="#1C1C1E" stroke-linecap="round" stroke-linejoin="round"/>
<path d="M21 25C19.4475 25.5938 17.7613 26 16 26C14.2387 26 12.5525 25.5938 11 25" stroke="#1C1C1E" stroke-linecap="round" stroke-linejoin="round"/>
</svg>
