<svg width="32" height="32" viewBox="0 0 32 32" fill="none" xmlns="http://www.w3.org/2000/svg">
<path d="M16 28C13.3478 28 10.8043 26.9464 8.92893 25.0711C7.05357 23.1957 6 20.6522 6 18V15C8.65216 15 11.1957 16.0536 13.0711 17.9289C14.9464 19.8043 16 22.3478 16 25V28Z" stroke="#1C1C1E" stroke-linecap="round" stroke-linejoin="round"/>
<path d="M6 5L26 27" stroke="#1C1C1E" stroke-linecap="round" stroke-linejoin="round"/>
<path d="M26.0002 15V8C24.4181 7.99879 22.8583 8.37351 21.4494 9.09329C20.0405 9.81308 18.8227 10.8573 17.8965 12.14" stroke="#1C1C1E" stroke-linecap="round" stroke-linejoin="round"/>
<path d="M25.6425 20.66C25.8802 19.7933 26.0005 18.8987 26 18V15C24.4285 14.9975 22.8787 15.3672 21.4775 16.0788" stroke="#1C1C1E" stroke-linecap="round" stroke-linejoin="round"/>
<path d="M18.3388 18.5723C16.8249 20.3715 15.9964 22.6484 16 24.9998V27.9998C17.4606 28.001 18.9037 27.6818 20.2275 27.0645C21.5512 26.4472 22.7234 25.547 23.6613 24.4273" stroke="#1C1C1E" stroke-linecap="round" stroke-linejoin="round"/>
<path d="M6 15V8.00001C7.08933 7.99875 8.17153 8.17567 9.20375 8.52376" stroke="#1C1C1E" stroke-linecap="round" stroke-linejoin="round"/>
<path d="M12.3125 6C13.3483 4.78332 14.598 3.76656 16 3C16 3 20.0488 5.02375 21.5 9.0725" stroke="#1C1C1E" stroke-linecap="round" stroke-linejoin="round"/>
</svg>
