<svg width="32" height="32" viewBox="0 0 32 32" fill="none" xmlns="http://www.w3.org/2000/svg">
<path d="M2 23H29C29.2652 23 29.5196 22.8946 29.7071 22.7071C29.8946 22.5196 30 22.2652 30 22V8C30 7.73478 29.8946 7.48043 29.7071 7.29289C29.5196 7.10536 29.2652 7 29 7H2V26" stroke="#1C1C1E" stroke-linecap="round" stroke-linejoin="round"/>
<path d="M22 19C24.2091 19 26 17.2091 26 15C26 12.7909 24.2091 11 22 11C19.7909 11 18 12.7909 18 15C18 17.2091 19.7909 19 22 19Z" stroke="#1C1C1E" stroke-linecap="round" stroke-linejoin="round"/>
<path d="M10 26V23" stroke="#1C1C1E" stroke-linecap="round" stroke-linejoin="round"/>
<path d="M6 23V26" stroke="#1C1C1E" stroke-linecap="round" stroke-linejoin="round"/>
<path d="M14 26V23" stroke="#1C1C1E" stroke-linecap="round" stroke-linejoin="round"/>
<path d="M19.1709 12.1709L24.8284 17.8284" stroke="#1C1C1E" stroke-linecap="round" stroke-linejoin="round"/>
<path d="M10 19C12.2091 19 14 17.2091 14 15C14 12.7909 12.2091 11 10 11C7.79086 11 6 12.7909 6 15C6 17.2091 7.79086 19 10 19Z" stroke="#1C1C1E" stroke-linecap="round" stroke-linejoin="round"/>
<path d="M7.1709 12.1709L12.8284 17.8284" stroke="#1C1C1E" stroke-linecap="round" stroke-linejoin="round"/>
</svg>
