<svg width="32" height="32" viewBox="0 0 32 32" fill="none" xmlns="http://www.w3.org/2000/svg">
<path d="M8 9.5C8 7.77609 8.68482 6.12279 9.90381 4.90381C11.1228 3.68482 12.7761 3 14.5 3C16.2239 3 17.8772 3.68482 19.0962 4.90381C20.3152 6.12279 21 7.77609 21 9.5" stroke="#1C1C1E" stroke-linecap="round" stroke-linejoin="round"/>
<path d="M8.99953 28L5.33453 21.75C5.00823 21.1761 4.92218 20.4964 5.09515 19.8593C5.26812 19.2222 5.68607 18.6794 6.25779 18.3493C6.82951 18.0192 7.50858 17.9287 8.14682 18.0974C8.78506 18.2661 9.33065 18.6805 9.66453 19.25L11.9995 23V9.5C11.9995 8.83696 12.2629 8.20107 12.7318 7.73223C13.2006 7.26339 13.8365 7 14.4995 7C15.1626 7 15.7985 7.26339 16.2673 7.73223C16.7361 8.20107 16.9995 8.83696 16.9995 9.5V16.5C16.9995 15.837 17.2629 15.2011 17.7318 14.7322C18.2006 14.2634 18.8365 14 19.4995 14C20.1626 14 20.7985 14.2634 21.2673 14.7322C21.7361 15.2011 21.9995 15.837 21.9995 16.5V18.5C21.9995 17.837 22.2629 17.2011 22.7318 16.7322C23.2006 16.2634 23.8365 16 24.4995 16C25.1626 16 25.7985 16.2634 26.2673 16.7322C26.7361 17.2011 26.9995 17.837 26.9995 18.5V23C26.9995 26 25.9995 28 25.9995 28" stroke="#1C1C1E" stroke-linecap="round" stroke-linejoin="round"/>
</svg>
