<svg width="32" height="32" viewBox="0 0 32 32" fill="none" xmlns="http://www.w3.org/2000/svg">
<path d="M20.9995 9.5C20.9995 8.83696 21.2629 8.20107 21.7318 7.73223C22.2006 7.26339 22.8365 7 23.4995 7C24.1626 7 24.7985 7.26339 25.2673 7.73223C25.7361 8.20107 25.9995 8.83696 25.9995 9.5V19C25.9995 20.3132 25.7409 21.6136 25.2383 22.8268C24.7358 24.0401 23.9992 25.1425 23.0706 26.0711C22.142 26.9997 21.0396 27.7362 19.8264 28.2388C18.6131 28.7413 17.3127 29 15.9995 29C10.477 29 8.40578 26.34 4.33453 17.75C4.00823 17.1761 3.92218 16.4964 4.09515 15.8593C4.26812 15.2222 4.68607 14.6794 5.25779 14.3493C5.82951 14.0192 6.50858 13.9287 7.14682 14.0974C7.78506 14.2661 8.33065 14.6805 8.66453 15.25L10.9995 19V7.5C10.9995 6.83696 11.2629 6.20107 11.7318 5.73223C12.2006 5.26339 12.8365 5 13.4995 5C14.1626 5 14.7985 5.26339 15.2673 5.73223C15.7361 6.20107 15.9995 6.83696 15.9995 7.5" stroke="#1C1C1E" stroke-linecap="round" stroke-linejoin="round"/>
<path d="M16 15V5.5C16 4.83696 16.2634 4.20107 16.7322 3.73223C17.2011 3.26339 17.837 3 18.5 3C19.163 3 19.7989 3.26339 20.2678 3.73223C20.7366 4.20107 21 4.83696 21 5.5V15" stroke="#1C1C1E" stroke-linecap="round" stroke-linejoin="round"/>
</svg>
