<svg width="32" height="32" viewBox="0 0 32 32" fill="none" xmlns="http://www.w3.org/2000/svg">
<path d="M16 11C17.1046 11 18 10.1046 18 9C18 7.89543 17.1046 7 16 7C14.8954 7 14 7.89543 14 9C14 10.1046 14.8954 11 16 11Z" stroke="#1C1C1E" stroke-linecap="round" stroke-linejoin="round"/>
<path d="M18 19C19.1046 19 20 18.1046 20 17C20 15.8954 19.1046 15 18 15C16.8954 15 16 15.8954 16 17C16 18.1046 16.8954 19 18 19Z" stroke="#1C1C1E" stroke-linecap="round" stroke-linejoin="round"/>
<path d="M15.0004 27H9.0004C8.73519 27 8.48083 26.8946 8.2933 26.7071C8.10576 26.5196 8.0004 26.2652 8.0004 26V21.4763L4.5529 19.8975C4.32511 19.7833 4.14949 19.5865 4.0619 19.3472C3.97432 19.1079 3.98139 18.8443 4.08165 18.61L7.0004 13C7.0004 11.2954 7.43612 9.61916 8.26619 8.13036C9.09625 6.64155 10.2931 5.38964 11.7431 4.49349C13.1931 3.59735 14.8481 3.08673 16.5509 3.01011C18.2538 2.93349 19.9479 3.29342 21.4725 4.05573C22.9971 4.81803 24.3016 5.95741 25.262 7.36565C26.2224 8.7739 26.8069 10.4043 26.96 12.1019C27.1131 13.7996 26.8297 15.5083 26.1366 17.0656C25.4436 18.6229 24.3641 19.9773 23.0004 21L24.0004 29" stroke="#1C1C1E" stroke-linecap="round" stroke-linejoin="round"/>
<path d="M16 7.00008V3.04883" stroke="#1C1C1E" stroke-linecap="round" stroke-linejoin="round"/>
<path d="M26.7978 11H23.0003L19.2803 15.4637" stroke="#1C1C1E" stroke-linecap="round" stroke-linejoin="round"/>
</svg>
