<svg width="32" height="32" viewBox="0 0 32 32" fill="none" xmlns="http://www.w3.org/2000/svg">
<path d="M16 19C17.6569 19 19 17.6569 19 16C19 14.3431 17.6569 13 16 13C14.3431 13 13 14.3431 13 16C13 17.6569 14.3431 19 16 19Z" stroke="#1C1C1E" stroke-linecap="round" stroke-linejoin="round"/>
<path d="M18.5775 6.335C20.7068 6.90301 22.5888 8.15847 23.931 9.90626C25.2733 11.654 26.0006 13.7963 26 16C26 28 12 31 12 31L13.4225 25.665C11.2932 25.097 9.41122 23.8415 8.06896 22.0937C6.7267 20.346 5.99936 18.2037 6 16C6 4 20 1 20 1L18.5775 6.335Z" stroke="#1C1C1E" stroke-linecap="round" stroke-linejoin="round"/>
</svg>
