<svg width="32" height="32" viewBox="0 0 32 32" fill="none" xmlns="http://www.w3.org/2000/svg">
<path d="M19 14H24" stroke="#1C1C1E" stroke-linecap="round" stroke-linejoin="round"/>
<path d="M19 18H24" stroke="#1C1C1E" stroke-linecap="round" stroke-linejoin="round"/>
<path d="M27 6H5C4.44772 6 4 6.44772 4 7V25C4 25.5523 4.44772 26 5 26H27C27.5523 26 28 25.5523 28 25V7C28 6.44772 27.5523 6 27 6Z" stroke="#1C1C1E" stroke-linecap="round" stroke-linejoin="round"/>
<path d="M12 18C13.6569 18 15 16.6569 15 15C15 13.3431 13.6569 12 12 12C10.3431 12 9 13.3431 9 15C9 16.6569 10.3431 18 12 18Z" stroke="#1C1C1E" stroke-linecap="round" stroke-linejoin="round"/>
<path d="M8 21C8.44375 19.275 10.1363 18 12 18C13.8637 18 15.5575 19.2737 16 21" stroke="#1C1C1E" stroke-linecap="round" stroke-linejoin="round"/>
</svg>
