<svg width="32" height="32" viewBox="0 0 32 32" fill="none" xmlns="http://www.w3.org/2000/svg">
<path d="M25 18C25.5523 18 26 17.5523 26 17C26 16.4477 25.5523 16 25 16C24.4477 16 24 16.4477 24 17C24 17.5523 24.4477 18 25 18Z" fill="#1C1C1E"/>
<path d="M25 25C27.7614 25 30 21.4183 30 17C30 12.5817 27.7614 9 25 9C22.2386 9 20 12.5817 20 17C20 21.4183 22.2386 25 25 25Z" stroke="#1C1C1E" stroke-linecap="round" stroke-linejoin="round"/>
<path d="M12 9L17 4H21" stroke="#1C1C1E" stroke-linecap="round" stroke-linejoin="round"/>
<path d="M25 25H7C4.23875 25 2 21.4187 2 17C2 12.5813 4.23875 9 7 9H25" stroke="#1C1C1E" stroke-linecap="round" stroke-linejoin="round"/>
<path d="M2.15723 15H12.9997" stroke="#1C1C1E" stroke-linecap="round" stroke-linejoin="round"/>
<path d="M10 20H20.3638" stroke="#1C1C1E" stroke-linecap="round" stroke-linejoin="round"/>
</svg>
