<svg width="32" height="32" viewBox="0 0 32 32" fill="none" xmlns="http://www.w3.org/2000/svg">
<path d="M3.29267 16.1096L6.87517 19.6921C6.96865 19.7855 7.07972 19.8595 7.20197 19.9097C7.32421 19.96 7.4552 19.9855 7.58736 19.9848C7.71952 19.9841 7.85024 19.9572 7.97194 19.9057C8.09365 19.8541 8.20393 19.779 8.29642 19.6846L15.9114 11.8746C16.4668 11.319 17.218 11.0034 18.0036 10.9957C18.7892 10.988 19.5464 11.2888 20.1127 11.8333C21.3239 13.0008 21.2952 14.9758 20.1064 16.1646L12.3177 23.6996C12.2225 23.792 12.1467 23.9024 12.0946 24.0243C12.0426 24.1463 12.0153 24.2774 12.0143 24.41C12.0134 24.5426 12.0389 24.6741 12.0892 24.7968C12.1396 24.9194 12.2138 25.0309 12.3077 25.1246L15.8902 28.7071C16.0766 28.8934 16.3291 28.9986 16.5926 28.9998C16.8562 29.0009 17.1096 28.898 17.2977 28.7133L25.0152 21.1596C28.9139 17.2608 29.0277 10.9096 25.1577 6.98209C24.2317 6.04185 23.1287 5.29419 21.9124 4.78222C20.696 4.27025 19.3904 4.00409 18.0707 3.9991C16.7511 3.9941 15.4435 4.25036 14.2233 4.7531C13.0031 5.25585 11.8945 5.99514 10.9614 6.92834L3.28892 14.6996C3.10317 14.8875 2.9993 15.1412 3 15.4054C3.00071 15.6696 3.10592 15.9227 3.29267 16.1096Z" stroke="#1C1C1E" stroke-linecap="round" stroke-linejoin="round"/>
<path d="M16.0713 20.0713L21.045 25.045" stroke="#1C1C1E" stroke-linecap="round" stroke-linejoin="round"/>
<path d="M6.9707 10.9717L11.9445 15.9454" stroke="#1C1C1E" stroke-linecap="round" stroke-linejoin="round"/>
</svg>
