<svg width="32" height="32" viewBox="0 0 32 32" fill="none" xmlns="http://www.w3.org/2000/svg">
<path d="M16 11.5C16.8284 11.5 17.5 10.8284 17.5 10C17.5 9.17157 16.8284 8.5 16 8.5C15.1716 8.5 14.5 9.17157 14.5 10C14.5 10.8284 15.1716 11.5 16 11.5Z" fill="#1C1C1E"/>
<path d="M23 10C23 17 16 21 16 21C16 21 9 17 9 10C9 8.14348 9.7375 6.36301 11.0503 5.05025C12.363 3.7375 14.1435 3 16 3C17.8565 3 19.637 3.7375 20.9497 5.05025C22.2625 6.36301 23 8.14348 23 10Z" stroke="#1C1C1E" stroke-linecap="round" stroke-linejoin="round"/>
<path d="M25 19.3925C27.465 20.3025 29 21.5825 29 23C29 25.7612 23.18 28 16 28C8.82 28 3 25.7612 3 23C3 21.5825 4.535 20.3025 7 19.3925" stroke="#1C1C1E" stroke-linecap="round" stroke-linejoin="round"/>
</svg>
