<svg width="32" height="32" viewBox="0 0 32 32" fill="none" xmlns="http://www.w3.org/2000/svg">
<path d="M10 18L14 14L18 18L22 14" stroke="#1C1C1E" stroke-linecap="round" stroke-linejoin="round"/>
<path d="M9.99109 26.3888C12.5118 27.8476 15.4769 28.34 18.3338 27.7741C21.1907 27.2081 23.7443 25.6226 25.5184 23.3129C27.2926 21.0033 28.1663 18.1273 27.9766 15.2211C27.7869 12.3149 26.5467 9.57687 24.4873 7.5175C22.428 5.45813 19.6899 4.21798 16.7837 4.02827C13.8775 3.83856 11.0015 4.71223 8.69189 6.4864C6.38228 8.26057 4.7967 10.8141 4.23078 13.671C3.66486 16.5279 4.15723 19.4931 5.61609 22.0138L4.05234 26.6825C3.99358 26.8587 3.98505 27.0478 4.02771 27.2285C4.07037 27.4093 4.16254 27.5746 4.29387 27.706C4.42521 27.8373 4.59052 27.9295 4.77129 27.9721C4.95206 28.0148 5.14114 28.0063 5.31734 27.9475L9.99109 26.3888Z" stroke="#1C1C1E" stroke-linecap="round" stroke-linejoin="round"/>
</svg>
