<svg width="32" height="32" viewBox="0 0 32 32" fill="none" xmlns="http://www.w3.org/2000/svg">
<path d="M17 5H21L27 21" stroke="#1C1C1E" stroke-linecap="round" stroke-linejoin="round"/>
<path d="M27 25C29.2091 25 31 23.2091 31 21C31 18.7909 29.2091 17 27 17C24.7909 17 23 18.7909 23 21C23 23.2091 24.7909 25 27 25Z" stroke="#1C1C1E" stroke-linecap="round" stroke-linejoin="round"/>
<path d="M11 21C11 22.0609 10.5786 23.0783 9.82843 23.8284C9.07828 24.5786 8.06087 25 7 25C5.93913 25 4.92172 24.5786 4.17157 23.8284C3.42143 23.0783 3 22.0609 3 21" stroke="#1C1C1E" stroke-linecap="round" stroke-linejoin="round"/>
<path d="M5 12V15.3413C3.82989 15.7549 2.81686 16.5213 2.10047 17.5348C1.38409 18.5482 0.999608 19.7589 1 21H23" stroke="#1C1C1E" stroke-linecap="round" stroke-linejoin="round"/>
<path d="M3 12H13L16.375 21" stroke="#1C1C1E" stroke-linecap="round" stroke-linejoin="round"/>
</svg>
