<svg width="32" height="32" viewBox="0 0 32 32" fill="none" xmlns="http://www.w3.org/2000/svg">
<path d="M24 3C24 3.53043 23.7893 4.03914 23.4142 4.41421C23.0391 4.78929 22.5304 5 22 5H19C18.4696 5 17.9609 5.21071 17.5858 5.58579C17.2107 5.96086 17 6.46957 17 7" stroke="#1C1C1E" stroke-linecap="round" stroke-linejoin="round"/>
<path d="M20 1H19C17.4087 1 15.8826 1.63214 14.7574 2.75736C13.6321 3.88258 13 5.4087 13 7" stroke="#1C1C1E" stroke-linecap="round" stroke-linejoin="round"/>
<path d="M2 27H30" stroke="#1C1C1E" stroke-linecap="round" stroke-linejoin="round"/>
<path d="M4.70898 27C6.39523 23.7062 8.75023 18.0688 8.98273 11.955C8.99433 11.6977 9.10478 11.4547 9.29107 11.2768C9.47737 11.0989 9.72513 10.9997 9.98273 11H17.0202C17.2778 10.9997 17.5256 11.0989 17.7119 11.2768C17.8982 11.4547 18.0086 11.6977 18.0202 11.955C18.249 18.0688 20.6077 23.705 22.294 27" stroke="#1C1C1E" stroke-linecap="round" stroke-linejoin="round"/>
<path d="M17.0186 11H21.0186C21.2759 10.9997 21.5235 11.0987 21.7098 11.2764C21.8961 11.454 22.0067 11.6966 22.0186 11.9538C22.3123 18.6513 25.5961 24.86 26.8486 27" stroke="#1C1C1E" stroke-linecap="round" stroke-linejoin="round"/>
</svg>
