<svg width="32" height="32" viewBox="0 0 32 32" fill="none" xmlns="http://www.w3.org/2000/svg">
<path d="M8 7.5C8.82843 7.5 9.5 6.82843 9.5 6C9.5 5.17157 8.82843 4.5 8 4.5C7.17157 4.5 6.5 5.17157 6.5 6C6.5 6.82843 7.17157 7.5 8 7.5Z" fill="#1C1C1E"/>
<path d="M16 7.5C16.8284 7.5 17.5 6.82843 17.5 6C17.5 5.17157 16.8284 4.5 16 4.5C15.1716 4.5 14.5 5.17157 14.5 6C14.5 6.82843 15.1716 7.5 16 7.5Z" fill="#1C1C1E"/>
<path d="M24 7.5C24.8284 7.5 25.5 6.82843 25.5 6C25.5 5.17157 24.8284 4.5 24 4.5C23.1716 4.5 22.5 5.17157 22.5 6C22.5 6.82843 23.1716 7.5 24 7.5Z" fill="#1C1C1E"/>
<path d="M8 14.5C8.82843 14.5 9.5 13.8284 9.5 13C9.5 12.1716 8.82843 11.5 8 11.5C7.17157 11.5 6.5 12.1716 6.5 13C6.5 13.8284 7.17157 14.5 8 14.5Z" fill="#1C1C1E"/>
<path d="M16 14.5C16.8284 14.5 17.5 13.8284 17.5 13C17.5 12.1716 16.8284 11.5 16 11.5C15.1716 11.5 14.5 12.1716 14.5 13C14.5 13.8284 15.1716 14.5 16 14.5Z" fill="#1C1C1E"/>
<path d="M24 14.5C24.8284 14.5 25.5 13.8284 25.5 13C25.5 12.1716 24.8284 11.5 24 11.5C23.1716 11.5 22.5 12.1716 22.5 13C22.5 13.8284 23.1716 14.5 24 14.5Z" fill="#1C1C1E"/>
<path d="M8 21.5C8.82843 21.5 9.5 20.8284 9.5 20C9.5 19.1716 8.82843 18.5 8 18.5C7.17157 18.5 6.5 19.1716 6.5 20C6.5 20.8284 7.17157 21.5 8 21.5Z" fill="#1C1C1E"/>
<path d="M16 21.5C16.8284 21.5 17.5 20.8284 17.5 20C17.5 19.1716 16.8284 18.5 16 18.5C15.1716 18.5 14.5 19.1716 14.5 20C14.5 20.8284 15.1716 21.5 16 21.5Z" fill="#1C1C1E"/>
<path d="M16 28.5C16.8284 28.5 17.5 27.8284 17.5 27C17.5 26.1716 16.8284 25.5 16 25.5C15.1716 25.5 14.5 26.1716 14.5 27C14.5 27.8284 15.1716 28.5 16 28.5Z" fill="#1C1C1E"/>
<path d="M24 21.5C24.8284 21.5 25.5 20.8284 25.5 20C25.5 19.1716 24.8284 18.5 24 18.5C23.1716 18.5 22.5 19.1716 22.5 20C22.5 20.8284 23.1716 21.5 24 21.5Z" fill="#1C1C1E"/>
</svg>
