<svg width="32" height="32" viewBox="0 0 32 32" fill="none" xmlns="http://www.w3.org/2000/svg">
<path d="M21.5 19.5C22.0523 19.5 22.5 19.0523 22.5 18.5C22.5 17.9477 22.0523 17.5 21.5 17.5C20.9477 17.5 20.5 17.9477 20.5 18.5C20.5 19.0523 20.9477 19.5 21.5 19.5Z" fill="#1C1C1E"/>
<path d="M12 16.1338V27.1675" stroke="#1C1C1E" stroke-linecap="round" stroke-linejoin="round"/>
<path d="M6.08203 19.2887L15.9995 14V28" stroke="#1C1C1E" stroke-linecap="round" stroke-linejoin="round"/>
<path d="M25.5429 21C25.0006 22.7235 24.0015 24.2678 22.6519 25.4689C21.3022 26.67 19.6523 27.483 17.8776 27.8215C16.1028 28.1601 14.2695 28.0114 12.5725 27.3915C10.8755 26.7715 9.37808 25.7034 8.23949 24.3005C7.10091 22.8977 6.36365 21.2126 6.10606 19.4243C5.84848 17.6361 6.08019 15.8114 6.77657 14.1443C7.47296 12.4771 8.608 11.0298 10.0611 9.95608C11.5142 8.88237 13.231 8.22238 15.0291 8.04626" stroke="#1C1C1E" stroke-linecap="round" stroke-linejoin="round"/>
<path d="M8.02414 11.9675C7.14537 11.8469 6.34517 11.3971 5.7853 10.7092C5.22543 10.0212 4.94766 9.14626 5.00815 8.26132C5.06864 7.37638 5.46287 6.54741 6.11115 5.942C6.75943 5.33659 7.61339 4.9999 8.50039 5L23.5004 12C24.4287 12 25.3189 11.6313 25.9753 10.9749C26.6316 10.3185 27.0004 9.42826 27.0004 8.5C27.0004 7.57174 26.6316 6.6815 25.9753 6.02513C25.3189 5.36875 24.4287 5 23.5004 5" stroke="#1C1C1E" stroke-linecap="round" stroke-linejoin="round"/>
</svg>
