<svg width="32" height="32" viewBox="0 0 32 32" fill="none" xmlns="http://www.w3.org/2000/svg">
<path d="M31 11C31 14.9782 29.4196 18.7936 26.6066 21.6066C23.7936 24.4196 19.9782 26 16 26C12.0218 26 8.20644 24.4196 5.3934 21.6066C2.58035 18.7936 1 14.9782 1 11H31Z" stroke="#1C1C1E" stroke-linecap="round" stroke-linejoin="round"/>
<path d="M27 11C27 13.9174 25.8411 16.7153 23.7782 18.7782C21.7153 20.8411 18.9174 22 16 22C13.0826 22 10.2847 20.8411 8.22183 18.7782C6.15893 16.7153 5 13.9174 5 11" stroke="#1C1C1E" stroke-linecap="round" stroke-linejoin="round"/>
<path d="M16 11V22" stroke="#1C1C1E" stroke-linecap="round" stroke-linejoin="round"/>
<path d="M16 11L23.7787 18.7787" stroke="#1C1C1E" stroke-linecap="round" stroke-linejoin="round"/>
<path d="M16.0004 11L8.22168 18.7787" stroke="#1C1C1E" stroke-linecap="round" stroke-linejoin="round"/>
</svg>
