<svg width="32" height="32" viewBox="0 0 32 32" fill="none" xmlns="http://www.w3.org/2000/svg">
<path d="M26 5H6C5.44772 5 5 5.44772 5 6V26C5 26.5523 5.44772 27 6 27H26C26.5523 27 27 26.5523 27 26V6C27 5.44772 26.5523 5 26 5Z" stroke="#1C1C1E" stroke-linecap="round" stroke-linejoin="round"/>
<path d="M10.5 10.5C11.0523 10.5 11.5 10.0523 11.5 9.5C11.5 8.94772 11.0523 8.5 10.5 8.5C9.94772 8.5 9.5 8.94772 9.5 9.5C9.5 10.0523 9.94772 10.5 10.5 10.5Z" fill="#1C1C1E"/>
<path d="M16 10.5C16.5523 10.5 17 10.0523 17 9.5C17 8.94772 16.5523 8.5 16 8.5C15.4477 8.5 15 8.94772 15 9.5C15 10.0523 15.4477 10.5 16 10.5Z" fill="#1C1C1E"/>
<path d="M21.5 10.5C22.0523 10.5 22.5 10.0523 22.5 9.5C22.5 8.94772 22.0523 8.5 21.5 8.5C20.9477 8.5 20.5 8.94772 20.5 9.5C20.5 10.0523 20.9477 10.5 21.5 10.5Z" fill="#1C1C1E"/>
<path d="M23 14H9V23H23V14Z" stroke="#1C1C1E" stroke-linecap="round" stroke-linejoin="round"/>
</svg>
