<svg width="32" height="32" viewBox="0 0 32 32" fill="none" xmlns="http://www.w3.org/2000/svg">
<path d="M2 8.00004C1.99986 7.8468 2.03495 7.69558 2.10254 7.55805C2.17013 7.42053 2.26843 7.30037 2.38983 7.20687C2.51124 7.11337 2.65251 7.04902 2.80274 7.0188C2.95296 6.98857 3.10813 6.99327 3.25625 7.03254C5.41875 7.61129 10.18 9.00004 16 9.00004C21.82 9.00004 26.5812 7.61129 28.75 7.03379C28.8976 6.99567 29.052 6.99181 29.2013 7.0225C29.3506 7.05319 29.491 7.11761 29.6116 7.21085C29.7322 7.30409 29.8299 7.42366 29.8972 7.56044C29.9645 7.69722 29.9997 7.84759 30 8.00004V24C30 24.1533 29.9648 24.3045 29.897 24.442C29.8293 24.5795 29.7308 24.6996 29.6093 24.793C29.4878 24.8863 29.3464 24.9505 29.1961 24.9806C29.0458 25.0106 28.8906 25.0058 28.7425 24.9663C26.5788 24.385 21.8187 23 16 23C10.1813 23 5.42125 24.385 3.2575 24.965C3.1095 25.0045 2.95442 25.0094 2.80422 24.9794C2.65402 24.9494 2.51271 24.8853 2.3912 24.7921C2.26969 24.6988 2.17123 24.5789 2.1034 24.4416C2.03557 24.3043 2.0002 24.1532 2 24V8.00004Z" stroke="#1C1C1E" stroke-linecap="round" stroke-linejoin="round"/>
<path d="M25.5 14.5C26.0523 14.5 26.5 14.0523 26.5 13.5C26.5 12.9477 26.0523 12.5 25.5 12.5C24.9477 12.5 24.5 12.9477 24.5 13.5C24.5 14.0523 24.9477 14.5 25.5 14.5Z" fill="#1C1C1E"/>
<path d="M2 20.0863L8.7925 13.2926C8.88537 13.1996 8.99566 13.1258 9.11706 13.0755C9.23846 13.0252 9.36858 12.9993 9.5 12.9993C9.63142 12.9993 9.76154 13.0252 9.88294 13.0755C10.0043 13.1258 10.1146 13.1996 10.2075 13.2926L20.14 23.2251" stroke="#1C1C1E" stroke-linecap="round" stroke-linejoin="round"/>
<path d="M16.4141 19.5L19.6253 16.2925C19.8128 16.1051 20.0671 15.9999 20.3322 15.9999C20.5973 15.9999 20.8515 16.1051 21.0391 16.2925L29.5703 24.8238" stroke="#1C1C1E" stroke-linecap="round" stroke-linejoin="round"/>
</svg>
