<svg width="32" height="32" viewBox="0 0 32 32" fill="none" xmlns="http://www.w3.org/2000/svg">
<path d="M23.2503 4C23.494 3.99992 23.7292 4.08877 23.912 4.24989C24.0947 4.411 24.2124 4.63328 24.2428 4.875L26.9928 26.875C27.0106 27.0158 26.9982 27.1587 26.9564 27.2944C26.9146 27.43 26.8445 27.5552 26.7506 27.6616C26.6567 27.768 26.5412 27.8532 26.4119 27.9115C26.2825 27.9699 26.1422 28 26.0003 28H20.9141C20.6911 28 20.4745 27.9254 20.2988 27.7881C20.123 27.6509 19.9982 27.4588 19.9441 27.2425L16.0003 12L12.0566 27.2425C12.0025 27.4588 11.8777 27.6509 11.7019 27.7881C11.5262 27.9254 11.3096 28 11.0866 28H6.00034C5.85844 28 5.71815 27.9699 5.5888 27.9115C5.45944 27.8532 5.34399 27.768 5.25011 27.6616C5.15623 27.5552 5.08608 27.43 5.04431 27.2944C5.00253 27.1587 4.99011 27.0158 5.00784 26.875L7.75784 4.875C7.7883 4.63328 7.90594 4.411 8.08869 4.24989C8.27144 4.08877 8.50672 3.99992 8.75034 4H23.2503Z" stroke="#1C1C1E" stroke-linecap="round" stroke-linejoin="round"/>
<path d="M16 12V8" stroke="#1C1C1E" stroke-linecap="round" stroke-linejoin="round"/>
<path d="M7.36719 8H24.6322" stroke="#1C1C1E" stroke-linecap="round" stroke-linejoin="round"/>
<path d="M12 8C12 8.65661 11.8707 9.30679 11.6194 9.91342C11.3681 10.52 10.9998 11.0712 10.5355 11.5355C10.0712 11.9998 9.52004 12.3681 8.91342 12.6194C8.30679 12.8707 7.65661 13 7 13C6.91375 13 6.82875 13 6.75 13" stroke="#1C1C1E" stroke-linecap="round" stroke-linejoin="round"/>
<path d="M25.2575 13C25.1725 13 25.0862 13 25 13C23.6739 13 22.4021 12.4732 21.4645 11.5355C20.5268 10.5979 20 9.32608 20 8" stroke="#1C1C1E" stroke-linecap="round" stroke-linejoin="round"/>
</svg>
