<svg width="32" height="32" viewBox="0 0 32 32" fill="none" xmlns="http://www.w3.org/2000/svg">
<path d="M19.9996 10.0005L9.58588 20.5867C9.21994 20.9637 9.01702 21.4695 9.02097 21.9948C9.02493 22.5202 9.23544 23.0229 9.60702 23.3943C9.97859 23.7657 10.4814 23.976 11.0067 23.9797C11.5321 23.9835 12.0378 23.7803 12.4146 23.4142L24.8284 10.8292C25.5786 10.079 26.0001 9.06144 26.0001 8.00046C26.0001 6.93947 25.5786 5.92194 24.8284 5.17171C24.0781 4.42148 23.0606 4 21.9996 4C20.9386 4 19.9211 4.42148 19.1709 5.17171L6.75713 17.758C5.64705 18.8863 5.02778 20.4075 5.03423 21.9903C5.04067 23.5732 5.67231 25.0893 6.79154 26.2085C7.91077 27.3278 9.42693 27.9594 11.0097 27.9659C12.5926 27.9723 14.1138 27.353 15.2421 26.243L25.4996 16.0005" stroke="#1C1C1E" stroke-linecap="round" stroke-linejoin="round"/>
</svg>
