<svg width="32" height="32" viewBox="0 0 32 32" fill="none" xmlns="http://www.w3.org/2000/svg">
<path d="M13.5 18.5L20 12" stroke="#1C1C1E" stroke-linecap="round" stroke-linejoin="round"/>
<path d="M27.9612 5.27246C28.0094 5.1014 28.0111 4.92058 27.9662 4.74863C27.9213 4.57667 27.8314 4.41978 27.7058 4.29411C27.5801 4.16845 27.4232 4.07854 27.2512 4.03365C27.0793 3.98876 26.8985 3.9905 26.7274 4.03871L2.72741 11.3162C2.53147 11.3715 2.35708 11.4853 2.22754 11.6424C2.09801 11.7994 2.0195 11.9923 2.00251 12.1952C1.98552 12.3981 2.03087 12.6013 2.13248 12.7777C2.2341 12.9541 2.38714 13.0953 2.57116 13.1825L13.4999 18.5L18.8174 29.4275C18.9045 29.6115 19.0457 29.7645 19.2221 29.8661C19.3986 29.9677 19.6018 30.0131 19.8047 29.9961C20.0076 29.9791 20.2004 29.9006 20.3575 29.7711C20.5146 29.6415 20.6284 29.4671 20.6837 29.2712L27.9612 5.27246Z" stroke="#1C1C1E" stroke-linecap="round" stroke-linejoin="round"/>
</svg>
