<svg width="32" height="32" viewBox="0 0 32 32" fill="none" xmlns="http://www.w3.org/2000/svg">
<path d="M26.5 16C27.8807 16 29 14.8807 29 13.5C29 12.1193 27.8807 11 26.5 11C25.1193 11 24 12.1193 24 13.5C24 14.8807 25.1193 16 26.5 16Z" stroke="#1C1C1E" stroke-linecap="round" stroke-linejoin="round"/>
<path d="M5.5 16C6.88071 16 8 14.8807 8 13.5C8 12.1193 6.88071 11 5.5 11C4.11929 11 3 12.1193 3 13.5C3 14.8807 4.11929 16 5.5 16Z" stroke="#1C1C1E" stroke-linecap="round" stroke-linejoin="round"/>
<path d="M11.5 10C12.8807 10 14 8.88071 14 7.5C14 6.11929 12.8807 5 11.5 5C10.1193 5 9 6.11929 9 7.5C9 8.88071 10.1193 10 11.5 10Z" stroke="#1C1C1E" stroke-linecap="round" stroke-linejoin="round"/>
<path d="M20.5 10C21.8807 10 23 8.88071 23 7.5C23 6.11929 21.8807 5 20.5 5C19.1193 5 18 6.11929 18 7.5C18 8.88071 19.1193 10 20.5 10Z" stroke="#1C1C1E" stroke-linecap="round" stroke-linejoin="round"/>
<path d="M15.9996 13C15.0245 13.0004 14.0758 13.3175 13.2965 13.9036C12.5171 14.4898 11.9493 15.3132 11.6784 16.25C11.2781 17.6278 10.3494 18.7916 9.09462 19.4875C8.18374 19.9732 7.49588 20.7922 7.17488 21.7733C6.85388 22.7544 6.9246 23.8216 7.37224 24.7517C7.81989 25.6819 8.6098 26.403 9.5768 26.7642C10.5438 27.1255 11.613 27.0989 12.5609 26.69C14.7636 25.7869 17.2332 25.7869 19.4359 26.69C20.3837 27.0989 21.4529 27.1255 22.4199 26.7642C23.3869 26.403 24.1769 25.6819 24.6245 24.7517C25.0721 23.8216 25.1429 22.7544 24.8219 21.7733C24.5009 20.7922 23.813 19.9732 22.9021 19.4875C21.6481 18.7914 20.7202 17.6276 20.3209 16.25C20.05 15.3132 19.4821 14.4898 18.7028 13.9036C17.9234 13.3175 16.9748 13.0004 15.9996 13Z" stroke="#1C1C1E" stroke-linecap="round" stroke-linejoin="round"/>
</svg>
