<svg width="32" height="32" viewBox="0 0 32 32" fill="none" xmlns="http://www.w3.org/2000/svg">
<path d="M17 8L24 15" stroke="#1C1C1E" stroke-linecap="round" stroke-linejoin="round"/>
<path d="M11.936 26.9362L5.06348 20.0637" stroke="#1C1C1E" stroke-linecap="round" stroke-linejoin="round"/>
<path d="M6 5L26 27" stroke="#1C1C1E" stroke-linecap="round" stroke-linejoin="round"/>
<path d="M19.3337 19.6663L12.2925 26.7075C12.1051 26.8947 11.8511 26.9999 11.5863 27H6C5.73478 27 5.48043 26.8947 5.29289 26.7071C5.10536 26.5196 5 26.2652 5 26V20.4138C5.00012 20.1489 5.10532 19.8949 5.2925 19.7075L12.6675 12.3325" stroke="#1C1C1E" stroke-linecap="round" stroke-linejoin="round"/>
<path d="M15.5 9.49995L20.7087 4.2912C20.8963 4.1038 21.1505 3.99854 21.4156 3.99854C21.6807 3.99854 21.935 4.1038 22.1225 4.2912L27.7075 9.87495C27.8949 10.0625 28.0002 10.3167 28.0002 10.5818C28.0002 10.8469 27.8949 11.1012 27.7075 11.2887L22.165 16.8312" stroke="#1C1C1E" stroke-linecap="round" stroke-linejoin="round"/>
<path d="M16 16L8.5 23.5" stroke="#1C1C1E" stroke-linecap="round" stroke-linejoin="round"/>
<path d="M20.4998 11.5L18.8311 13.1687" stroke="#1C1C1E" stroke-linecap="round" stroke-linejoin="round"/>
</svg>
