<svg width="32" height="32" viewBox="0 0 32 32" fill="none" xmlns="http://www.w3.org/2000/svg">
<path d="M7.59337 25.6863C7.5279 25.8872 7.52774 26.1036 7.5929 26.3046C7.65807 26.5056 7.78521 26.6808 7.9561 26.805C8.12698 26.9293 8.33282 26.9962 8.5441 26.9962C8.75537 26.9962 8.96122 26.9293 9.13212 26.8051L28.5859 12.8051C28.7549 12.6805 28.8805 12.5058 28.9447 12.3059C29.0089 12.106 29.0086 11.8909 28.9437 11.6911C28.8788 11.4914 28.7527 11.3172 28.5833 11.1931C28.4138 11.0691 28.2096 11.0015 27.9996 11.0001H3.99962C3.78843 10.9999 3.58262 11.0667 3.41169 11.1907C3.24077 11.3148 3.1135 11.4897 3.04813 11.6906C2.98276 11.8914 2.98265 12.1077 3.04782 12.3086C3.11298 12.5095 3.24007 12.6846 3.41087 12.8088L22.8646 26.8088C23.0355 26.933 23.2414 26.9999 23.4526 26.9999C23.6639 26.9999 23.8698 26.933 24.0406 26.8088C24.2115 26.6845 24.3387 26.5093 24.4038 26.3084C24.469 26.1074 24.4688 25.8909 24.4034 25.6901L16.9509 2.71007C16.8899 2.50515 16.7643 2.3254 16.5929 2.19759C16.4215 2.06978 16.2134 2.00073 15.9996 2.00073C15.7858 2.00073 15.5777 2.06978 15.4063 2.19759C15.2349 2.3254 15.1094 2.50515 15.0484 2.71007L7.59337 25.6863Z" stroke="#1C1C1E" stroke-linecap="round" stroke-linejoin="round"/>
</svg>
