<svg width="32" height="32" viewBox="0 0 32 32" fill="none" xmlns="http://www.w3.org/2000/svg">
<path d="M26.9999 13C26.9999 11.1435 26.2624 9.36301 24.9496 8.05025C23.6369 6.7375 21.8564 6 19.9999 6C18.1434 6 16.3629 6.7375 15.0502 8.05025C13.7374 9.36301 12.9999 11.1435 12.9999 13C12.9999 19.0125 9.7949 23.5 2.71615 25.5875C1.7024 25.8862 1.7874 27.3512 2.82865 27.535C10.9999 28.98 26.9999 27.81 26.9999 13Z" stroke="#1C1C1E" stroke-linecap="round" stroke-linejoin="round"/>
<path d="M13.1465 11.5725L16.0002 13L20.0002 11L24.0002 13L26.8552 11.5725" stroke="#1C1C1E" stroke-linecap="round" stroke-linejoin="round"/>
<path d="M16 2C17.0609 2 18.0783 2.42143 18.8284 3.17157C19.5786 3.92172 20 4.93913 20 6" stroke="#1C1C1E" stroke-linecap="round" stroke-linejoin="round"/>
</svg>
