<svg width="32" height="32" viewBox="0 0 32 32" fill="none" xmlns="http://www.w3.org/2000/svg">
<path d="M16 10C17.6569 10 19 8.65685 19 7C19 5.34315 17.6569 4 16 4C14.3431 4 13 5.34315 13 7C13 8.65685 14.3431 10 16 10Z" stroke="#1C1C1E" stroke-linecap="round" stroke-linejoin="round"/>
<path d="M8 13.5C8.82843 13.5 9.5 12.8284 9.5 12C9.5 11.1716 8.82843 10.5 8 10.5C7.17157 10.5 6.5 11.1716 6.5 12C6.5 12.8284 7.17157 13.5 8 13.5Z" fill="#1C1C1E"/>
<path d="M27 13.2003C27 13.2003 23 9.99156 17 14.0753C10.6912 18.3628 7 16.6816 7 16.6816" stroke="#1C1C1E" stroke-linecap="round" stroke-linejoin="round"/>
<path d="M17.9862 13.4521C17.875 15.7709 18 25.9996 8 28.9996" stroke="#1C1C1E" stroke-linecap="round" stroke-linejoin="round"/>
<path d="M17.4922 18.2441L21.9997 22.0004L19.9997 28.0004" stroke="#1C1C1E" stroke-linecap="round" stroke-linejoin="round"/>
</svg>
