<svg width="32" height="32" viewBox="0 0 32 32" fill="none" xmlns="http://www.w3.org/2000/svg">
<path d="M16 28C22.6274 28 28 22.6274 28 16C28 9.37258 22.6274 4 16 4C9.37258 4 4 9.37258 4 16C4 22.6274 9.37258 28 16 28Z" stroke="#1C1C1E" stroke-linecap="round" stroke-linejoin="round"/>
<path d="M16 11.5C16.8284 11.5 17.5 10.8284 17.5 10C17.5 9.17157 16.8284 8.5 16 8.5C15.1716 8.5 14.5 9.17157 14.5 10C14.5 10.8284 15.1716 11.5 16 11.5Z" fill="#1C1C1E"/>
<path d="M10 14H22" stroke="#1C1C1E" stroke-linecap="round" stroke-linejoin="round"/>
<path d="M20 23L16 17L12 23" stroke="#1C1C1E" stroke-linecap="round" stroke-linejoin="round"/>
<path d="M16 14V17" stroke="#1C1C1E" stroke-linecap="round" stroke-linejoin="round"/>
</svg>
