<svg width="32" height="32" viewBox="0 0 32 32" fill="none" xmlns="http://www.w3.org/2000/svg">
<path d="M20.5 9C21.8807 9 23 7.88071 23 6.5C23 5.11929 21.8807 4 20.5 4C19.1193 4 18 5.11929 18 6.5C18 7.88071 19.1193 9 20.5 9Z" stroke="#1C1C1E" stroke-linecap="round" stroke-linejoin="round"/>
<path d="M3.555 22.2087L23.235 27.9125C23.5559 28.0069 23.8943 28.0254 24.2235 27.9665C24.5528 27.9076 24.8638 27.7729 25.132 27.5731C25.4002 27.3732 25.6183 27.1138 25.7689 26.8151C25.9196 26.5165 25.9987 26.1869 26 25.8525C25.9992 25.3868 25.8471 24.934 25.5666 24.5622C25.2862 24.1905 24.8925 23.9199 24.445 23.7912L4.765 18.0875C4.44414 17.993 4.10571 17.9746 3.77647 18.0335C3.44723 18.0924 3.13621 18.2271 2.86799 18.4269C2.59978 18.6267 2.38173 18.8862 2.23108 19.1848C2.08044 19.4834 2.00132 19.813 2 20.1475C2.00083 20.6132 2.15292 21.066 2.43337 21.4377C2.71382 21.8095 3.10745 22.08 3.555 22.2087Z" stroke="#1C1C1E" stroke-linecap="round" stroke-linejoin="round"/>
<path d="M10 10L27 15" stroke="#1C1C1E" stroke-linecap="round" stroke-linejoin="round"/>
<path d="M16.4098 11.885L11.0586 19.9113" stroke="#1C1C1E" stroke-linecap="round" stroke-linejoin="round"/>
<path d="M14.2725 15.0913L20 16.7501L16.7687 21.5663" stroke="#1C1C1E" stroke-linecap="round" stroke-linejoin="round"/>
</svg>
