<svg width="32" height="32" viewBox="0 0 32 32" fill="none" xmlns="http://www.w3.org/2000/svg">
<path d="M21.5 10C22.8807 10 24 8.88071 24 7.5C24 6.11929 22.8807 5 21.5 5C20.1193 5 19 6.11929 19 7.5C19 8.88071 20.1193 10 21.5 10Z" stroke="#1C1C1E" stroke-linecap="round" stroke-linejoin="round"/>
<path d="M19.1175 14.1175L5 10" stroke="#1C1C1E" stroke-linecap="round" stroke-linejoin="round"/>
<path d="M25 15H20L16 11L14.29 12.71" stroke="#1C1C1E" stroke-linecap="round" stroke-linejoin="round"/>
<path d="M11 16L18 18L13.065 22.935" stroke="#1C1C1E" stroke-linecap="round" stroke-linejoin="round"/>
<path d="M29 24.7C28.0604 25.3262 26.9951 25.7393 25.879 25.9103C24.7628 26.0813 23.6228 26.0061 22.5387 25.69L3 20" stroke="#1C1C1E" stroke-linecap="round" stroke-linejoin="round"/>
</svg>
