<svg width="32" height="32" viewBox="0 0 32 32" fill="none" xmlns="http://www.w3.org/2000/svg">
<path d="M16.8226 25.8238C16.3634 26.2866 15.7972 26.6293 15.1742 26.8216C14.5511 27.0138 13.8904 27.0498 13.2501 26.9263C7.92513 25.875 3.92263 20.99 4.00013 15.3363C4.08638 9.14251 9.14138 4.08626 15.3351 4.00126C20.9889 3.92251 25.8689 7.92501 26.9251 13.2513C27.0487 13.8915 27.0127 14.5523 26.8204 15.1753C26.6282 15.7984 26.2855 16.3645 25.8226 16.8238L22.8751 19.7763L28.5864 23.8563C28.7044 23.9408 28.8025 24.0499 28.8741 24.1762C28.9457 24.3024 28.9889 24.4427 29.0008 24.5873C29.0127 24.732 28.9929 24.8774 28.943 25.0137C28.893 25.1499 28.814 25.2736 28.7114 25.3763L25.3751 28.7075C25.2725 28.8101 25.1488 28.8891 25.0125 28.9391C24.8763 28.9891 24.7308 29.0088 24.5862 28.9969C24.4416 28.985 24.3013 28.9418 24.175 28.8702C24.0488 28.7987 23.9396 28.7005 23.8551 28.5825L19.7764 22.875L16.8226 25.8238Z" stroke="#1C1C1E" stroke-linecap="round" stroke-linejoin="round"/>
<path d="M25.8248 10.175L10.1748 25.825" stroke="#1C1C1E" stroke-linecap="round" stroke-linejoin="round"/>
</svg>
