<svg width="32" height="32" viewBox="0 0 32 32" fill="none" xmlns="http://www.w3.org/2000/svg">
<path d="M11.835 3.3937C13.4549 2.80409 15.2428 2.88216 16.8052 3.61074C17.5788 3.9715 18.2738 4.4811 18.8505 5.11045C19.4272 5.7398 19.8743 6.47657 20.1662 7.2787C20.4582 8.08083 20.5893 8.93261 20.552 9.7854C20.5148 10.6382 20.3099 11.4753 19.9492 12.2489C19.5884 13.0226 19.0788 13.7176 18.4495 14.2942C17.8201 14.8709 17.0833 15.318 16.2812 15.6099L11.835 3.3937Z" stroke="#1C1C1E" stroke-linecap="round" stroke-linejoin="round"/>
<path d="M3.39394 18.165C2.80433 16.545 2.88241 14.7572 3.61099 13.1948C4.33956 11.6324 5.65897 10.4234 7.27894 9.83376C8.89892 9.24415 10.6868 9.32223 12.2492 10.0508C13.8116 10.7794 15.0206 12.0988 15.6102 13.7188L3.39394 18.165Z" stroke="#1C1C1E" stroke-linecap="round" stroke-linejoin="round"/>
<path d="M18.1646 26.6063C16.5447 27.1959 14.7568 27.1178 13.1944 26.3892C11.632 25.6606 10.423 24.3412 9.8334 22.7213C9.24379 21.1013 9.32186 19.3134 10.0504 17.751C10.779 16.1886 12.0984 14.9796 13.7184 14.39L18.1646 26.6063Z" stroke="#1C1C1E" stroke-linecap="round" stroke-linejoin="round"/>
<path d="M26.6059 11.835C26.8978 12.6371 27.0289 13.4889 26.9917 14.3417C26.9545 15.1945 26.7496 16.0316 26.3889 16.8052C26.0281 17.5788 25.5185 18.2738 24.8892 18.8505C24.2598 19.4272 23.523 19.8743 22.7209 20.1662C21.9188 20.4582 21.067 20.5893 20.2142 20.552C19.3614 20.5148 18.5243 20.3099 17.7507 19.9492C16.977 19.5884 16.282 19.0788 15.7054 18.4495C15.1287 17.8201 14.6816 17.0833 14.3896 16.2812L26.6059 11.835Z" stroke="#1C1C1E" stroke-linecap="round" stroke-linejoin="round"/>
<path d="M20.5596 20.5601L27.9996 28.0001" stroke="#1C1C1E" stroke-linecap="round" stroke-linejoin="round"/>
</svg>
