<svg width="32" height="32" viewBox="0 0 32 32" fill="none" xmlns="http://www.w3.org/2000/svg">
<path d="M3.14531 8.86225C3.07703 8.74985 3.0316 8.62508 3.01162 8.4951C2.99163 8.36511 2.99748 8.23246 3.02883 8.10474C3.06018 7.97702 3.11641 7.85674 3.19431 7.75078C3.27221 7.64482 3.37025 7.55527 3.48281 7.48725C7.25869 5.20339 11.5875 3.99609 16.0003 3.99609C20.4132 3.99609 24.7419 5.20339 28.5178 7.48725C28.6304 7.55527 28.7284 7.64482 28.8063 7.75078C28.8842 7.85674 28.9404 7.97702 28.9718 8.10474C29.0031 8.23246 29.009 8.36511 28.989 8.4951C28.969 8.62508 28.9236 8.74985 28.8553 8.86225L16.8553 28.5198C16.7663 28.6673 16.6407 28.7893 16.4907 28.874C16.3407 28.9587 16.1713 29.0032 15.9991 29.0032C15.8268 29.0032 15.6574 28.9587 15.5074 28.874C15.3574 28.7893 15.2318 28.6673 15.1428 28.5198L3.14531 8.86225Z" stroke="#1C1C1E" stroke-linecap="round" stroke-linejoin="round"/>
<path d="M4.7373 11.4699C8.05809 9.20908 11.9825 8 15.9998 8C20.0172 8 23.9415 9.20908 27.2623 11.4699" stroke="#1C1C1E" stroke-linecap="round" stroke-linejoin="round"/>
<path d="M19.2496 24.5992C18.7495 24.3547 18.306 24.0084 17.9474 23.5826C17.5888 23.1569 17.323 22.6609 17.167 22.1265C17.0111 21.5922 16.9684 21.0311 17.0417 20.4793C17.1149 19.9274 17.3026 19.397 17.5926 18.9218C17.8827 18.4467 18.2687 18.0373 18.726 17.7199C19.1833 17.4024 19.7019 17.184 20.2484 17.0784C20.795 16.9729 21.3576 16.9826 21.9002 17.1069C22.4428 17.2312 22.9535 17.4675 23.3996 17.8005" stroke="#1C1C1E" stroke-linecap="round" stroke-linejoin="round"/>
<path d="M6.71777 14.7139C7.09776 14.169 7.60748 13.7273 8.20091 13.4288C8.79434 13.1302 9.45278 12.9841 10.1168 13.0037C10.7808 13.0233 11.4295 13.208 12.0043 13.541C12.5791 13.8741 13.0618 14.3451 13.409 14.9115C13.7562 15.4778 13.9569 16.1218 13.9929 16.7851C14.0289 17.4484 13.8991 18.1103 13.6153 18.7109C13.3315 19.3115 12.9026 19.832 12.3672 20.2254C11.8319 20.6187 11.207 20.8725 10.549 20.9639" stroke="#1C1C1E" stroke-linecap="round" stroke-linejoin="round"/>
</svg>
