<svg width="32" height="32" viewBox="0 0 32 32" fill="none" xmlns="http://www.w3.org/2000/svg">
<path d="M9 4.98503V27.015C9.00327 27.1908 9.05282 27.3627 9.14368 27.5132C9.23453 27.6637 9.36347 27.7876 9.51749 27.8724C9.67152 27.9573 9.84518 28 10.021 27.9962C10.1967 27.9925 10.3684 27.9425 10.5188 27.8513L28.5287 16.8363C28.6726 16.7492 28.7916 16.6265 28.8741 16.48C28.9567 16.3335 29.0001 16.1682 29.0001 16C29.0001 15.8319 28.9567 15.6666 28.8741 15.5201C28.7916 15.3736 28.6726 15.2509 28.5287 15.1638L10.5188 4.14878C10.3684 4.05754 10.1967 4.00754 10.021 4.00382C9.84518 4.00011 9.67152 4.04281 9.51749 4.12761C9.36347 4.21242 9.23453 4.33634 9.14368 4.48687C9.05282 4.63741 9.00327 4.80923 9 4.98503Z" stroke="#1C1C1E" stroke-linecap="round" stroke-linejoin="round"/>
</svg>
