<svg width="32" height="32" viewBox="0 0 32 32" fill="none" xmlns="http://www.w3.org/2000/svg">
<path d="M16.1207 8.87833L8.87816 16.1209C7.70658 17.2924 7.70658 19.1919 8.87816 20.3635L11.6359 23.1212C12.8074 24.2928 14.7069 24.2928 15.8785 23.1212L23.1211 15.8787C24.2926 14.7071 24.2926 12.8076 23.1211 11.636L20.3633 8.87833C19.1918 7.70675 17.2923 7.70675 16.1207 8.87833Z" stroke="#1C1C1E" stroke-linecap="round" stroke-linejoin="round"/>
<path d="M11 11L21 21" stroke="#1C1C1E" stroke-linecap="round" stroke-linejoin="round"/>
<path d="M28.9997 3L21.7422 10.2575" stroke="#1C1C1E" stroke-linecap="round" stroke-linejoin="round"/>
<path d="M10.2575 21.7422L3 28.9997" stroke="#1C1C1E" stroke-linecap="round" stroke-linejoin="round"/>
<path d="M12 4L13 6.5" stroke="#1C1C1E" stroke-linecap="round" stroke-linejoin="round"/>
<path d="M4 12L6.5 13" stroke="#1C1C1E" stroke-linecap="round" stroke-linejoin="round"/>
<path d="M25.5 19L28 20" stroke="#1C1C1E" stroke-linecap="round" stroke-linejoin="round"/>
<path d="M19 25.5L20 28" stroke="#1C1C1E" stroke-linecap="round" stroke-linejoin="round"/>
</svg>
