<svg width="32" height="32" viewBox="0 0 32 32" fill="none" xmlns="http://www.w3.org/2000/svg">
<path d="M18.035 13.9649C14.9 8.73868 19.08 3.51368 27.9637 4.03618C28.4862 12.9199 23.2612 17.0999 18.035 13.9649Z" stroke="#1C1C1E" stroke-linecap="round" stroke-linejoin="round"/>
<path d="M12.2499 14.2495C14.5299 10.4483 11.4899 6.64827 5.0286 7.02827C4.6461 13.487 8.4461 16.527 12.2499 14.2495Z" stroke="#1C1C1E" stroke-linecap="round" stroke-linejoin="round"/>
<path d="M7 19H25" stroke="#1C1C1E" stroke-linecap="round" stroke-linejoin="round"/>
<path d="M23 19L21.1737 27.2175C21.1243 27.4395 21.0006 27.638 20.8231 27.7803C20.6456 27.9225 20.425 28 20.1975 28H11.8025C11.575 28 11.3544 27.9225 11.1769 27.7803C10.9994 27.638 10.8757 27.4395 10.8263 27.2175L9 19" stroke="#1C1C1E" stroke-linecap="round" stroke-linejoin="round"/>
<path d="M18.035 13.9648L13 18.9998" stroke="#1C1C1E" stroke-linecap="round" stroke-linejoin="round"/>
<path d="M12.2471 14.2471L14.9996 16.9996" stroke="#1C1C1E" stroke-linecap="round" stroke-linejoin="round"/>
</svg>
