<svg width="32" height="32" viewBox="0 0 32 32" fill="none" xmlns="http://www.w3.org/2000/svg">
<path d="M7.99982 27C7.73461 27 7.48025 26.8946 7.29272 26.7071C7.10518 26.5196 6.99982 26.2652 6.99982 26V20.6637C6.46636 20.9161 5.87773 21.0295 5.28868 20.9934C4.69962 20.9573 4.12927 20.7728 3.63065 20.4571C3.13203 20.1414 2.72133 19.7047 2.43674 19.1877C2.15216 18.6707 2.00293 18.0901 2.00293 17.5C2.00293 16.9098 2.15216 16.3292 2.43674 15.8122C2.72133 15.2952 3.13203 14.8586 3.63065 14.5429C4.12927 14.2272 4.69962 14.0427 5.28868 14.0065C5.87773 13.9704 6.46636 14.0838 6.99982 14.3362V8.99998C6.99982 8.73477 7.10518 8.48041 7.29272 8.29288C7.48025 8.10534 7.73461 7.99998 7.99982 7.99998H13.8361C13.5834 7.46651 13.4697 6.8778 13.5057 6.28861C13.5416 5.69942 13.726 5.1289 14.0417 4.63011C14.3573 4.13131 14.794 3.72046 15.3111 3.43576C15.8282 3.15106 16.4089 3.00177 16.9992 3.00177C17.5895 3.00177 18.1702 3.15106 18.6873 3.43576C19.2044 3.72046 19.641 4.13131 19.9567 4.63011C20.2724 5.1289 20.4567 5.69942 20.4927 6.28861C20.5286 6.8778 20.415 7.46651 20.1623 7.99998H25.9998C26.265 7.99998 26.5194 8.10534 26.7069 8.29288C26.8945 8.48041 26.9998 8.73477 26.9998 8.99998V14.3362C26.4664 14.0838 25.8777 13.9704 25.2887 14.0065C24.6996 14.0427 24.1293 14.2272 23.6306 14.5429C23.132 14.8586 22.7213 15.2952 22.4367 15.8122C22.1522 16.3292 22.0029 16.9098 22.0029 17.5C22.0029 18.0901 22.1522 18.6707 22.4367 19.1877C22.7213 19.7047 23.132 20.1414 23.6306 20.4571C24.1293 20.7728 24.6996 20.9573 25.2887 20.9934C25.8777 21.0295 26.4664 20.9161 26.9998 20.6637V26C26.9998 26.2652 26.8945 26.5196 26.7069 26.7071C26.5194 26.8946 26.265 27 25.9998 27H7.99982Z" stroke="#1C1C1E" stroke-linecap="round" stroke-linejoin="round"/>
</svg>
