<svg width="32" height="32" viewBox="0 0 32 32" fill="none" xmlns="http://www.w3.org/2000/svg">
<path d="M16 23.5C16.5523 23.5 17 23.0523 17 22.5C17 21.9477 16.5523 21.5 16 21.5C15.4477 21.5 15 21.9477 15 22.5C15 23.0523 15.4477 23.5 16 23.5Z" fill="#1C1C1E"/>
<path d="M16 18V17C18.2088 17 20 15.4325 20 13.5C20 11.5675 18.2088 10 16 10C13.7912 10 12 11.5675 12 13.5V14" stroke="#1C1C1E" stroke-linecap="round" stroke-linejoin="round"/>
<path d="M16 28C22.6274 28 28 22.6274 28 16C28 9.37258 22.6274 4 16 4C9.37258 4 4 9.37258 4 16C4 22.6274 9.37258 28 16 28Z" stroke="#1C1C1E" stroke-linecap="round" stroke-linejoin="round"/>
</svg>
