<svg width="32" height="32" viewBox="0 0 32 32" fill="none" xmlns="http://www.w3.org/2000/svg">
<path d="M12.5 21.5C13.0523 21.5 13.5 21.0523 13.5 20.5C13.5 19.9477 13.0523 19.5 12.5 19.5C11.9477 19.5 11.5 19.9477 11.5 20.5C11.5 21.0523 11.9477 21.5 12.5 21.5Z" fill="#1C1C1E"/>
<path d="M19.5 21.5C20.0523 21.5 20.5 21.0523 20.5 20.5C20.5 19.9477 20.0523 19.5 19.5 19.5C18.9477 19.5 18.5 19.9477 18.5 20.5C18.5 21.0523 18.9477 21.5 19.5 21.5Z" fill="#1C1C1E"/>
<path d="M18 25L16 26.6637L14 25" stroke="#1C1C1E" stroke-linecap="round" stroke-linejoin="round"/>
<path d="M18.3203 12.3413C19.0203 9.04875 20.8753 2 23.8678 2C27.3953 2 26.1516 10.1325 23.0041 16.125" stroke="#1C1C1E" stroke-linecap="round" stroke-linejoin="round"/>
<path d="M13.6805 12.3413C12.9805 9.04875 11.1255 2 8.13298 2C4.60548 2 5.84923 10.1325 9.00048 16.125" stroke="#1C1C1E" stroke-linecap="round" stroke-linejoin="round"/>
<path d="M23.964 19.2276C24.5747 19.7229 25.0721 20.3434 25.4227 21.0472C25.7733 21.7511 25.9688 22.5219 25.9962 23.3078C26.0236 24.0936 25.8821 24.8762 25.5814 25.6028C25.2807 26.3293 24.8277 26.9829 24.2529 27.5195C23.6781 28.0561 22.995 28.4633 22.2495 28.7135C21.504 28.9636 20.7136 29.0511 19.9315 28.9699C19.1494 28.8886 18.3937 28.6407 17.7156 28.2426C17.0374 27.8446 16.4525 27.3058 16.0003 26.6626C15.548 27.3058 14.9631 27.8446 14.2849 28.2426C13.6068 28.6407 12.8512 28.8886 12.0691 28.9699C11.2869 29.0511 10.4965 28.9636 9.75103 28.7135C9.00556 28.4633 8.32241 28.0561 7.74764 27.5195C7.17287 26.9829 6.71985 26.3293 6.41911 25.6028C6.11838 24.8762 5.97693 24.0936 6.00431 23.3078C6.03169 22.5219 6.22725 21.7511 6.57782 21.0472C6.92838 20.3434 7.4258 19.7229 8.03652 19.2276C8.22575 17.2465 9.14653 15.4072 10.6191 14.0686C12.0916 12.73 14.0102 11.9883 16.0003 11.9883C17.9903 11.9883 19.9089 12.73 21.3814 14.0686C22.854 15.4072 23.7748 17.2465 23.964 19.2276Z" stroke="#1C1C1E" stroke-linecap="round" stroke-linejoin="round"/>
</svg>
