<svg width="32" height="32" viewBox="0 0 32 32" fill="none" xmlns="http://www.w3.org/2000/svg">
<path d="M26.6221 16.6226C30.5035 12.7413 31.1327 7.0776 28.0275 3.97245C24.9223 0.867291 19.2587 1.4965 15.3774 5.37782C11.496 9.25914 10.8668 14.9228 13.972 18.028C17.0771 21.1331 22.7408 20.5039 26.6221 16.6226Z" stroke="#1C1C1E" stroke-linecap="round" stroke-linejoin="round"/>
<path d="M6.70749 22.2924L3.29304 25.7068C2.90252 26.0974 2.90252 26.7305 3.29304 27.121L4.87873 28.7067C5.26926 29.0973 5.90242 29.0973 6.29294 28.7067L9.70739 25.2923C10.0979 24.9018 10.0979 24.2686 9.70739 23.8781L8.1217 22.2924C7.73118 21.9019 7.09801 21.9019 6.70749 22.2924Z" stroke="#1C1C1E" stroke-linecap="round" stroke-linejoin="round"/>
<path d="M8.91406 23.0863L13.9728 18.0275" stroke="#1C1C1E" stroke-linecap="round" stroke-linejoin="round"/>
<path d="M24 2.0625V18.6225" stroke="#1C1C1E" stroke-linecap="round" stroke-linejoin="round"/>
<path d="M18 3.3775V19.9375" stroke="#1C1C1E" stroke-linecap="round" stroke-linejoin="round"/>
<path d="M13.3779 8H29.9379" stroke="#1C1C1E" stroke-linecap="round" stroke-linejoin="round"/>
<path d="M12.0625 14H28.6225" stroke="#1C1C1E" stroke-linecap="round" stroke-linejoin="round"/>
</svg>
