<svg width="32" height="32" viewBox="0 0 32 32" fill="none" xmlns="http://www.w3.org/2000/svg">
<path d="M22.5 5H27V9.5" stroke="#1C1C1E" stroke-linecap="round" stroke-linejoin="round"/>
<path d="M22.5 27H27V22.5" stroke="#1C1C1E" stroke-linecap="round" stroke-linejoin="round"/>
<path d="M9.5 27H5V22.5" stroke="#1C1C1E" stroke-linecap="round" stroke-linejoin="round"/>
<path d="M9.5 5H5V9.5" stroke="#1C1C1E" stroke-linecap="round" stroke-linejoin="round"/>
<path d="M16 24C20.4183 24 24 20.4183 24 16C24 11.5817 20.4183 8 16 8C11.5817 8 8 11.5817 8 16C8 20.4183 11.5817 24 16 24Z" stroke="#1C1C1E" stroke-linecap="round" stroke-linejoin="round"/>
<path d="M13 15.5C13.5523 15.5 14 15.0523 14 14.5C14 13.9477 13.5523 13.5 13 13.5C12.4477 13.5 12 13.9477 12 14.5C12 15.0523 12.4477 15.5 13 15.5Z" fill="#1C1C1E"/>
<path d="M19 15.5C19.5523 15.5 20 15.0523 20 14.5C20 13.9477 19.5523 13.5 19 13.5C18.4477 13.5 18 13.9477 18 14.5C18 15.0523 18.4477 15.5 19 15.5Z" fill="#1C1C1E"/>
<path d="M19 19C18.295 19.625 17.015 20 16 20C14.985 20 13.705 19.625 13 19" stroke="#1C1C1E" stroke-linecap="round" stroke-linejoin="round"/>
</svg>
