<svg width="32" height="32" viewBox="0 0 32 32" fill="none" xmlns="http://www.w3.org/2000/svg">
<path d="M11.0001 5.00006L5.82881 10.1713C5.56606 10.4339 5.35762 10.7457 5.21541 11.0888C5.0732 11.432 5 11.7998 5 12.1713C5 12.5428 5.0732 12.9106 5.21541 13.2538C5.35762 13.5969 5.56606 13.9087 5.82881 14.1713C6.09139 14.4341 6.40318 14.6425 6.74635 14.7847C7.08951 14.9269 7.45734 15.0001 7.82881 15.0001C8.20028 15.0001 8.56811 14.9269 8.91128 14.7847C9.25445 14.6425 9.56623 14.4341 9.82881 14.1713L18.1713 5.82881C18.4339 5.56606 18.7457 5.35762 19.0888 5.21541C19.432 5.0732 19.7998 5 20.1713 5C20.5428 5 20.9106 5.0732 21.2538 5.21541C21.5969 5.35762 21.9087 5.56606 22.1713 5.82881C22.4341 6.09139 22.6425 6.40318 22.7847 6.74635C22.9269 7.08951 23.0001 7.45734 23.0001 7.82881C23.0001 8.20028 22.9269 8.56811 22.7847 8.91128C22.6425 9.25445 22.4341 9.56623 22.1713 9.82881L9.82881 22.1713C9.56606 22.4339 9.35762 22.7457 9.21541 23.0888C9.0732 23.432 9 23.7998 9 24.1713C9 24.5428 9.0732 24.9106 9.21541 25.2538C9.35762 25.5969 9.56606 25.9087 9.82881 26.1713C10.0914 26.4341 10.4032 26.6425 10.7463 26.7847C11.0895 26.9269 11.4573 27.0001 11.8288 27.0001C12.2003 27.0001 12.5681 26.9269 12.9113 26.7847C13.2544 26.6425 13.5662 26.4341 13.8288 26.1713L22.1713 17.8288C22.4339 17.5661 22.7457 17.3576 23.0888 17.2154C23.432 17.0732 23.7998 17 24.1713 17C24.5428 17 24.9106 17.0732 25.2538 17.2154C25.5969 17.3576 25.9087 17.5661 26.1713 17.8288C26.4341 18.0914 26.6425 18.4032 26.7847 18.7463C26.9269 19.0895 27.0001 19.4573 27.0001 19.8288C27.0001 20.2003 26.9269 20.5681 26.7847 20.9113C26.6425 21.2544 26.4341 21.5662 26.1713 21.8288L25.0001 23.0001C24.7373 23.2626 24.5289 23.5744 24.3867 23.9176C24.2444 24.2608 24.1712 24.6286 24.1712 25.0001C24.1712 25.3715 24.2444 25.7394 24.3867 26.0825C24.5289 26.4257 24.7373 26.7375 25.0001 27.0001" stroke="#1C1C1E" stroke-linecap="round" stroke-linejoin="round"/>
</svg>
