<svg width="32" height="32" viewBox="0 0 32 32" fill="none" xmlns="http://www.w3.org/2000/svg">
<path d="M14 29H27" stroke="#1C1C1E" stroke-linecap="round" stroke-linejoin="round"/>
<path d="M13.1047 9.55247C13.0352 9.6914 12.999 9.84462 12.999 9.99997C12.999 10.1553 13.0352 10.3085 13.1047 10.4475L17.0772 18.4475C17.1604 18.6136 17.2881 18.7533 17.4462 18.8509C17.6043 18.9485 17.7865 19.0001 17.9722 19H25.9997C26.265 19 26.5193 19.1053 26.7068 19.2929C26.8944 19.4804 26.9997 19.7348 26.9997 20V24C26.9997 24.2652 26.8944 24.5195 26.7068 24.7071C26.5193 24.8946 26.265 25 25.9997 25H14.2635C14.0779 24.9999 13.896 24.9481 13.7382 24.8506C13.5804 24.753 13.4528 24.6134 13.3697 24.4475L6.10474 9.94747C6.03522 9.80854 5.99902 9.65532 5.99902 9.49997C5.99902 9.34462 6.03522 9.1914 6.10474 9.05247L8.87474 3.55247C8.99352 3.31552 9.20151 3.13543 9.45301 3.05175C9.7045 2.96808 9.97893 2.98767 10.216 3.10622L14.4522 4.89497C14.6892 5.01375 14.8693 5.22174 14.953 5.47324C15.0366 5.72473 15.017 5.99916 14.8985 6.23622L13.1047 9.55247Z" stroke="#1C1C1E" stroke-linecap="round" stroke-linejoin="round"/>
</svg>
