<svg width="32" height="32" viewBox="0 0 32 32" fill="none" xmlns="http://www.w3.org/2000/svg">
<path d="M18 5H14" stroke="#1C1C1E" stroke-linecap="round" stroke-linejoin="round"/>
<path d="M14 27H18" stroke="#1C1C1E" stroke-linecap="round" stroke-linejoin="round"/>
<path d="M23 5H26C26.2652 5 26.5196 5.10536 26.7071 5.29289C26.8946 5.48043 27 5.73478 27 6V9" stroke="#1C1C1E" stroke-linecap="round" stroke-linejoin="round"/>
<path d="M27 18V14" stroke="#1C1C1E" stroke-linecap="round" stroke-linejoin="round"/>
<path d="M5 14V18" stroke="#1C1C1E" stroke-linecap="round" stroke-linejoin="round"/>
<path d="M9 27H6C5.73478 27 5.48043 26.8946 5.29289 26.7071C5.10536 26.5196 5 26.2652 5 26V23" stroke="#1C1C1E" stroke-linecap="round" stroke-linejoin="round"/>
<path d="M9 5H6C5.73478 5 5.48043 5.10536 5.29289 5.29289C5.10536 5.48043 5 5.73478 5 6V9" stroke="#1C1C1E" stroke-linecap="round" stroke-linejoin="round"/>
<path d="M27 24V30" stroke="#1C1C1E" stroke-linecap="round" stroke-linejoin="round"/>
<path d="M24 27H30" stroke="#1C1C1E" stroke-linecap="round" stroke-linejoin="round"/>
</svg>
