<svg width="32" height="32" viewBox="0 0 32 32" fill="none" xmlns="http://www.w3.org/2000/svg">
<path d="M16 17V12" stroke="#1C1C1E" stroke-linecap="round" stroke-linejoin="round"/>
<path d="M16 22.5C16.5523 22.5 17 22.0523 17 21.5C17 20.9477 16.5523 20.5 16 20.5C15.4477 20.5 15 20.9477 15 21.5C15 22.0523 15.4477 22.5 16 22.5Z" fill="#1C1C1E"/>
<path d="M27 14V7C27 6.73478 26.8946 6.48043 26.7071 6.29289C26.5196 6.10536 26.2652 6 26 6H6C5.73478 6 5.48043 6.10536 5.29289 6.29289C5.10536 6.48043 5 6.73478 5 7V14C5 26 16 29 16 29C16 29 27 26 27 14Z" stroke="#1C1C1E" stroke-linecap="round" stroke-linejoin="round"/>
</svg>
