<svg width="32" height="32" viewBox="0 0 32 32" fill="none" xmlns="http://www.w3.org/2000/svg">
<path d="M2 4H5L9.59375 20.535C9.71066 20.9561 9.96229 21.3273 10.3101 21.5919C10.658 21.8565 11.083 21.9998 11.52 22H23.875C24.3123 22.0001 24.7375 21.8569 25.0856 21.5923C25.4337 21.3277 25.6855 20.9563 25.8025 20.535L29 9H6.38875" stroke="#1C1C1E" stroke-linecap="round" stroke-linejoin="round"/>
<path d="M11 28.5C11.8284 28.5 12.5 27.8284 12.5 27C12.5 26.1716 11.8284 25.5 11 25.5C10.1716 25.5 9.5 26.1716 9.5 27C9.5 27.8284 10.1716 28.5 11 28.5Z" fill="#1C1C1E"/>
<path d="M24 28.5C24.8284 28.5 25.5 27.8284 25.5 27C25.5 26.1716 24.8284 25.5 24 25.5C23.1716 25.5 22.5 26.1716 22.5 27C22.5 27.8284 23.1716 28.5 24 28.5Z" fill="#1C1C1E"/>
</svg>
