<svg width="32" height="32" viewBox="0 0 32 32" fill="none" xmlns="http://www.w3.org/2000/svg">
<path d="M6.5 30.5C7.05228 30.5 7.5 30.0523 7.5 29.5C7.5 28.9477 7.05228 28.5 6.5 28.5C5.94772 28.5 5.5 28.9477 5.5 29.5C5.5 30.0523 5.94772 30.5 6.5 30.5Z" fill="#1C1C1E"/>
<path d="M10.5 26.5C11.0523 26.5 11.5 26.0523 11.5 25.5C11.5 24.9477 11.0523 24.5 10.5 24.5C9.94772 24.5 9.5 24.9477 9.5 25.5C9.5 26.0523 9.94772 26.5 10.5 26.5Z" fill="#1C1C1E"/>
<path d="M2.5 26.5C3.05228 26.5 3.5 26.0523 3.5 25.5C3.5 24.9477 3.05228 24.5 2.5 24.5C1.94772 24.5 1.5 24.9477 1.5 25.5C1.5 26.0523 1.94772 26.5 2.5 26.5Z" fill="#1C1C1E"/>
<path d="M6.5 22.5C7.05228 22.5 7.5 22.0523 7.5 21.5C7.5 20.9477 7.05228 20.5 6.5 20.5C5.94772 20.5 5.5 20.9477 5.5 21.5C5.5 22.0523 5.94772 22.5 6.5 22.5Z" fill="#1C1C1E"/>
<path d="M30.9997 5H26.9997L22.9997 9M22.9997 9L20.2385 25.1637C20.2081 25.3448 20.1285 25.5139 20.0084 25.6527C19.8883 25.7915 19.7323 25.8946 19.5575 25.9506C19.3827 26.0066 19.1959 26.0135 19.0174 25.9704C18.839 25.9273 18.6759 25.8359 18.546 25.7062L6.29597 13.4563C6.16634 13.3263 6.07496 13.1632 6.03186 12.9848C5.98877 12.8064 5.9956 12.6195 6.05163 12.4447C6.10765 12.2699 6.21071 12.1139 6.34949 11.9938C6.48828 11.8737 6.65745 11.7941 6.83847 11.7638L22.9997 9Z" stroke="#1C1C1E" stroke-linecap="round" stroke-linejoin="round"/>
</svg>
