<svg width="32" height="32" viewBox="0 0 32 32" fill="none" xmlns="http://www.w3.org/2000/svg">
<path d="M4 9H6.8825C8.15591 8.99997 9.41093 9.30392 10.5432 9.88659C11.6755 10.4693 12.6523 11.3138 13.3925 12.35L18.6075 19.65C19.3477 20.6862 20.3245 21.5307 21.4568 22.1134C22.5891 22.6961 23.8441 23 25.1175 23H29" stroke="#1C1C1E" stroke-linecap="round" stroke-linejoin="round"/>
<path d="M26 6L29 9L26 12" stroke="#1C1C1E" stroke-linecap="round" stroke-linejoin="round"/>
<path d="M26 20L29 23L26 26" stroke="#1C1C1E" stroke-linecap="round" stroke-linejoin="round"/>
<path d="M18.457 12.5588L18.607 12.35C19.3472 11.3138 20.324 10.4693 21.4563 9.88659C22.5886 9.30392 23.8436 8.99997 25.117 9H28.9995" stroke="#1C1C1E" stroke-linecap="round" stroke-linejoin="round"/>
<path d="M4 23H6.8825C8.15591 23 9.41093 22.6961 10.5432 22.1134C11.6755 21.5307 12.6523 20.6862 13.3925 19.65L13.5425 19.4412" stroke="#1C1C1E" stroke-linecap="round" stroke-linejoin="round"/>
</svg>
