<svg width="32" height="32" viewBox="0 0 32 32" fill="none" xmlns="http://www.w3.org/2000/svg">
<path d="M25 5V27" stroke="#1C1C1E" stroke-linecap="round" stroke-linejoin="round"/>
<path d="M7 5.985V26.015C7.00361 26.1911 7.05368 26.3632 7.14515 26.5137C7.23662 26.6643 7.36624 26.788 7.52089 26.8724C7.67554 26.9567 7.84973 26.9988 8.02583 26.9942C8.20194 26.9896 8.3737 26.9386 8.52375 26.8463L24.5375 16.8312C24.6788 16.7434 24.7954 16.621 24.8763 16.4755C24.9571 16.3301 24.9996 16.1664 24.9996 16C24.9996 15.8336 24.9571 15.6699 24.8763 15.5245C24.7954 15.379 24.6788 15.2566 24.5375 15.1687L8.52375 5.15375C8.3737 5.06145 8.20194 5.01042 8.02583 5.00583C7.84973 5.00124 7.67554 5.04326 7.52089 5.12763C7.36624 5.21199 7.23662 5.33571 7.14515 5.48627C7.05368 5.63683 7.00361 5.80887 7 5.985Z" stroke="#1C1C1E" stroke-linecap="round" stroke-linejoin="round"/>
</svg>
