<svg width="32" height="32" viewBox="0 0 32 32" fill="none" xmlns="http://www.w3.org/2000/svg">
<path d="M7 20C8.65685 20 10 18.6569 10 17C10 15.3431 8.65685 14 7 14C5.34315 14 4 15.3431 4 17C4 18.6569 5.34315 20 7 20Z" stroke="#1C1C1E" stroke-linecap="round" stroke-linejoin="round"/>
<path d="M16 14C17.6569 14 19 12.6569 19 11C19 9.34315 17.6569 8 16 8C14.3431 8 13 9.34315 13 11C13 12.6569 14.3431 14 16 14Z" stroke="#1C1C1E" stroke-linecap="round" stroke-linejoin="round"/>
<path d="M25 24C26.6569 24 28 22.6569 28 21C28 19.3431 26.6569 18 25 18C23.3431 18 22 19.3431 22 21C22 22.6569 23.3431 24 25 24Z" stroke="#1C1C1E" stroke-linecap="round" stroke-linejoin="round"/>
<path d="M7 5V14" stroke="#1C1C1E" stroke-linecap="round" stroke-linejoin="round"/>
<path d="M25 5V18" stroke="#1C1C1E" stroke-linecap="round" stroke-linejoin="round"/>
<path d="M16 5V8" stroke="#1C1C1E" stroke-linecap="round" stroke-linejoin="round"/>
<path d="M7 20V27" stroke="#1C1C1E" stroke-linecap="round" stroke-linejoin="round"/>
<path d="M25 24V27" stroke="#1C1C1E" stroke-linecap="round" stroke-linejoin="round"/>
<path d="M16 14V27" stroke="#1C1C1E" stroke-linecap="round" stroke-linejoin="round"/>
</svg>
