<svg width="32" height="32" viewBox="0 0 32 32" fill="none" xmlns="http://www.w3.org/2000/svg">
<path d="M20.5 18.5C21.0523 18.5 21.5 18.0523 21.5 17.5C21.5 16.9477 21.0523 16.5 20.5 16.5C19.9477 16.5 19.5 16.9477 19.5 17.5C19.5 18.0523 19.9477 18.5 20.5 18.5Z" fill="#1C1C1E"/>
<path d="M14.5 12.5C15.0523 12.5 15.5 12.0523 15.5 11.5C15.5 10.9477 15.0523 10.5 14.5 10.5C13.9477 10.5 13.5 10.9477 13.5 11.5C13.5 12.0523 13.9477 12.5 14.5 12.5Z" fill="#1C1C1E"/>
<path d="M7.05481 24.0003C5.027 21.7402 3.93481 18.7935 3.99981 15.7578C4.12481 9.32277 9.39356 4.09152 15.8286 4.00027C18.1597 3.96664 20.4502 4.6128 22.42 5.85977C24.3899 7.10674 25.9539 8.90053 26.9208 11.0219C27.8878 13.1433 28.2159 15.5005 27.8649 17.8053C27.514 20.1101 26.4993 22.2628 24.9448 24.0003" stroke="#1C1C1E" stroke-linecap="round" stroke-linejoin="round"/>
<path d="M12 30C11.4696 30 10.9609 29.7893 10.5858 29.4142C10.2107 29.0391 10 28.5304 10 28C10 27.4696 10.2107 26.9609 10.5858 26.5858C10.9609 26.2107 11.4696 26 12 26H19C19.5304 26 20.0391 25.7893 20.4142 25.4142C20.7893 25.0391 21 24.5304 21 24C21 23.4696 20.7893 22.9609 20.4142 22.5858C20.0391 22.2107 19.5304 22 19 22H17C13.6862 22 10 19.3138 10 16C10.0001 15.665 10.0277 15.3305 10.0825 15" stroke="#1C1C1E" stroke-linecap="round" stroke-linejoin="round"/>
</svg>
