<svg width="32" height="32" viewBox="0 0 32 32" fill="none" xmlns="http://www.w3.org/2000/svg">
<path d="M24.9998 4V18.1712C24.9998 18.4341 24.9481 18.6943 24.8475 18.9371C24.7469 19.1799 24.5994 19.4005 24.4135 19.5863L15.8635 28.1362C14.6699 29.3295 13.0513 29.9998 11.3635 29.9998C9.67579 29.9998 8.05714 29.3295 6.86353 28.1362C5.67031 26.9426 5 25.324 5 23.6362C5 21.9485 5.67031 20.3299 6.86353 19.1362L11.9998 14V4C11.9998 3.73478 12.1051 3.48043 12.2927 3.29289C12.4802 3.10536 12.7346 3 12.9998 3H23.9998C24.265 3 24.5194 3.10536 24.7069 3.29289C24.8944 3.48043 24.9998 3.73478 24.9998 4Z" stroke="#1C1C1E" stroke-linecap="round" stroke-linejoin="round"/>
<path d="M25 7H12" stroke="#1C1C1E" stroke-linecap="round" stroke-linejoin="round"/>
<path d="M25.0002 14C23.8737 13.9998 22.7698 14.3167 21.8149 14.9146C20.8601 15.5124 20.0929 16.367 19.601 17.3805C19.1092 18.3941 18.9126 19.5256 19.0339 20.6456C19.1551 21.7656 19.5892 22.8289 20.2865 23.7138" stroke="#1C1C1E" stroke-linecap="round" stroke-linejoin="round"/>
</svg>
