<svg width="32" height="32" viewBox="0 0 32 32" fill="none" xmlns="http://www.w3.org/2000/svg">
<path d="M16 28C22.6274 28 28 22.6274 28 16C28 9.37258 22.6274 4 16 4C9.37258 4 4 9.37258 4 16C4 22.6274 9.37258 28 16 28Z" stroke="#1C1C1E" stroke-linecap="round" stroke-linejoin="round"/>
<path d="M19.5 17C21.433 17 23 15.433 23 13.5C23 11.567 21.433 10 19.5 10C17.567 10 16 11.567 16 13.5C16 15.433 17.567 17 19.5 17Z" stroke="#1C1C1E" stroke-linecap="round" stroke-linejoin="round"/>
<path d="M12.5 23C13.8807 23 15 21.8807 15 20.5C15 19.1193 13.8807 18 12.5 18C11.1193 18 10 19.1193 10 20.5C10 21.8807 11.1193 23 12.5 23Z" stroke="#1C1C1E" stroke-linecap="round" stroke-linejoin="round"/>
<path d="M10.5713 18.9099L16.7988 11.2737" stroke="#1C1C1E" stroke-linecap="round" stroke-linejoin="round"/>
<path d="M14.0898 22.4287L21.7261 16.2012" stroke="#1C1C1E" stroke-linecap="round" stroke-linejoin="round"/>
<path d="M10.7324 18.7324L4.51367 12.5137" stroke="#1C1C1E" stroke-linecap="round" stroke-linejoin="round"/>
</svg>
