<svg width="32" height="32" viewBox="0 0 32 32" fill="none" xmlns="http://www.w3.org/2000/svg">
<path d="M12 19C12 20.6562 13.7912 22 16 22C18.2088 22 20 20.6562 20 19C20 15 12.2225 16.5 12.2225 13C12.2225 11.3438 13.7912 10 16 10C17.6562 10 18.9538 10.75 19.5 11.8325" stroke="#1C1C1E" stroke-linecap="round" stroke-linejoin="round"/>
<path d="M26 5H6C5.44772 5 5 5.44772 5 6V26C5 26.5523 5.44772 27 6 27H26C26.5523 27 27 26.5523 27 26V6C27 5.44772 26.5523 5 26 5Z" stroke="#1C1C1E" stroke-linecap="round" stroke-linejoin="round"/>
</svg>
