<svg width="32" height="32" viewBox="0 0 32 32" fill="none" xmlns="http://www.w3.org/2000/svg">
<path d="M27 8H5C4.44772 8 4 8.44772 4 9V25C4 25.5523 4.44772 26 5 26H27C27.5523 26 28 25.5523 28 25V9C28 8.44772 27.5523 8 27 8Z" stroke="#1C1C1E" stroke-linecap="round" stroke-linejoin="round"/>
<path d="M21 8V6C21 5.46957 20.7893 4.96086 20.4142 4.58579C20.0391 4.21071 19.5304 4 19 4H13C12.4696 4 11.9609 4.21071 11.5858 4.58579C11.2107 4.96086 11 5.46957 11 6V8" stroke="#1C1C1E" stroke-linecap="round" stroke-linejoin="round"/>
<path d="M4 19H28" stroke="#1C1C1E" stroke-linecap="round" stroke-linejoin="round"/>
</svg>
