<svg width="32" height="32" viewBox="0 0 32 32" fill="none" xmlns="http://www.w3.org/2000/svg">
<path d="M16 20V11" stroke="#1C1C1E" stroke-linecap="round" stroke-linejoin="round"/>
<path d="M16 26C17.6569 26 19 24.6569 19 23C19 21.3431 17.6569 20 16 20C14.3431 20 13 21.3431 13 23C13 24.6569 14.3431 26 16 26Z" stroke="#1C1C1E" stroke-linecap="round" stroke-linejoin="round"/>
<path d="M12 6C12 4.93913 12.4214 3.92172 13.1716 3.17157C13.9217 2.42143 14.9391 2 16 2C17.0609 2 18.0783 2.42143 18.8284 3.17157C19.5786 3.92172 20 4.93913 20 6V17.25C21.223 18.1016 22.1423 19.3212 22.6241 20.7315C23.1059 22.1417 23.125 23.6689 22.6788 25.0908C22.2325 26.5126 21.3441 27.755 20.1429 28.637C18.9416 29.519 17.4903 29.9946 16 29.9946C14.5097 29.9946 13.0584 29.519 11.8571 28.637C10.6559 27.755 9.7675 26.5126 9.32123 25.0908C8.87496 23.6689 8.89412 22.1417 9.37592 20.7315C9.85772 19.3212 10.777 18.1016 12 17.25V6Z" stroke="#1C1C1E" stroke-linecap="round" stroke-linejoin="round"/>
</svg>
