<svg width="32" height="32" viewBox="0 0 32 32" fill="none" xmlns="http://www.w3.org/2000/svg">
<path d="M28 9H4C3.44772 9 3 9.44772 3 10V24C3 24.5523 3.44772 25 4 25H28C28.5523 25 29 24.5523 29 24V10C29 9.44772 28.5523 9 28 9Z" stroke="#1C1C1E" stroke-linecap="round" stroke-linejoin="round"/>
<path d="M3 15H29" stroke="#1C1C1E" stroke-linecap="round" stroke-linejoin="round"/>
<path d="M9 13V17" stroke="#1C1C1E" stroke-linecap="round" stroke-linejoin="round"/>
<path d="M23 13V17" stroke="#1C1C1E" stroke-linecap="round" stroke-linejoin="round"/>
<path d="M21 9V7C21 6.46957 20.7893 5.96086 20.4142 5.58579C20.0391 5.21071 19.5304 5 19 5H13C12.4696 5 11.9609 5.21071 11.5858 5.58579C11.2107 5.96086 11 6.46957 11 7V9" stroke="#1C1C1E" stroke-linecap="round" stroke-linejoin="round"/>
</svg>
