<svg width="32" height="32" viewBox="0 0 32 32" fill="none" xmlns="http://www.w3.org/2000/svg">
<path d="M12 26L9 30" stroke="#1C1C1E" stroke-linecap="round" stroke-linejoin="round"/>
<path d="M20 26L23 30" stroke="#1C1C1E" stroke-linecap="round" stroke-linejoin="round"/>
<path d="M6 16H26" stroke="#1C1C1E" stroke-linecap="round" stroke-linejoin="round"/>
<path d="M23 7H9C7.34315 7 6 8.34315 6 10V23C6 24.6569 7.34315 26 9 26H23C24.6569 26 26 24.6569 26 23V10C26 8.34315 24.6569 7 23 7Z" stroke="#1C1C1E" stroke-linecap="round" stroke-linejoin="round"/>
<path d="M16 2V7" stroke="#1C1C1E" stroke-linecap="round" stroke-linejoin="round"/>
<path d="M10.5 22.5C11.0523 22.5 11.5 22.0523 11.5 21.5C11.5 20.9477 11.0523 20.5 10.5 20.5C9.94772 20.5 9.5 20.9477 9.5 21.5C9.5 22.0523 9.94772 22.5 10.5 22.5Z" fill="#1C1C1E"/>
<path d="M21.5 22.5C22.0523 22.5 22.5 22.0523 22.5 21.5C22.5 20.9477 22.0523 20.5 21.5 20.5C20.9477 20.5 20.5 20.9477 20.5 21.5C20.5 22.0523 20.9477 22.5 21.5 22.5Z" fill="#1C1C1E"/>
<path d="M11 2H21" stroke="#1C1C1E" stroke-linecap="round" stroke-linejoin="round"/>
</svg>
