<svg width="32" height="32" viewBox="0 0 32 32" fill="none" xmlns="http://www.w3.org/2000/svg">
<path d="M20.6375 25H15L9 30V25H6C5.73478 25 5.48043 24.8946 5.29289 24.7071C5.10536 24.5196 5 24.2652 5 24V6C5 5.73478 5.10536 5.48043 5.29289 5.29289C5.48043 5.10536 5.73478 5 6 5H26C26.2652 5 26.5196 5.10536 26.7071 5.29289C26.8946 5.48043 27 5.73478 27 6V19.5312C27.0001 19.6779 26.9678 19.8229 26.9056 19.9557C26.8434 20.0886 26.7527 20.2061 26.64 20.3L21.2787 24.7687C21.0984 24.9181 20.8716 24.9999 20.6375 25Z" stroke="#1C1C1E" stroke-linecap="round" stroke-linejoin="round"/>
<path d="M21 11V17" stroke="#1C1C1E" stroke-linecap="round" stroke-linejoin="round"/>
<path d="M15 11V17" stroke="#1C1C1E" stroke-linecap="round" stroke-linejoin="round"/>
</svg>
