<svg width="32" height="32" viewBox="0 0 32 32" fill="none" xmlns="http://www.w3.org/2000/svg">
<path d="M16 20C18.7614 20 21 17.7614 21 15C21 12.2386 18.7614 10 16 10C13.2386 10 11 12.2386 11 15C11 17.7614 13.2386 20 16 20Z" stroke="#1C1C1E" stroke-linecap="round" stroke-linejoin="round"/>
<path d="M26 5H6C5.44772 5 5 5.44772 5 6V26C5 26.5523 5.44772 27 6 27H26C26.5523 27 27 26.5523 27 26V6C27 5.44772 26.5523 5 26 5Z" stroke="#1C1C1E" stroke-linecap="round" stroke-linejoin="round"/>
<path d="M7.22266 27.0004C7.67375 25.0096 8.78824 23.2312 10.3832 21.9572C11.9782 20.6832 13.9588 19.9893 16.0002 19.9893C18.0415 19.9893 20.0222 20.6832 21.6171 21.9572C23.2121 23.2312 24.3266 25.0096 24.7777 27.0004" stroke="#1C1C1E" stroke-linecap="round" stroke-linejoin="round"/>
</svg>
