<svg width="32" height="32" viewBox="0 0 32 32" fill="none" xmlns="http://www.w3.org/2000/svg">
<path d="M16 20C18.7614 20 21 17.7614 21 15C21 12.2386 18.7614 10 16 10C13.2386 10 11 12.2386 11 15C11 17.7614 13.2386 20 16 20Z" stroke="#1C1C1E" stroke-linecap="round" stroke-linejoin="round"/>
<path d="M7.97461 24.9209C8.727 23.4389 9.87506 22.1942 11.2915 21.3248C12.708 20.4553 14.3376 19.9951 15.9996 19.9951C17.6616 19.9951 19.2912 20.4553 20.7077 21.3248C22.1242 22.1942 23.2722 23.4389 24.0246 24.9209" stroke="#1C1C1E" stroke-linecap="round" stroke-linejoin="round"/>
<path d="M25 16L28 19L31 16" stroke="#1C1C1E" stroke-linecap="round" stroke-linejoin="round"/>
<path d="M1 16L4 13L7 16" stroke="#1C1C1E" stroke-linecap="round" stroke-linejoin="round"/>
<path d="M4 13V16C3.99906 18.5406 4.8045 21.016 6.30033 23.0696C7.79615 25.1232 9.90517 26.6491 12.3236 27.4274C14.7421 28.2058 17.3452 28.1965 19.758 27.4008C22.1709 26.6052 24.2689 25.0643 25.75 23" stroke="#1C1C1E" stroke-linecap="round" stroke-linejoin="round"/>
<path d="M28 18.9996V15.9996C28.0009 13.459 27.1955 10.9836 25.6997 8.92997C24.2038 6.87636 22.0948 5.3505 19.6764 4.57214C17.2579 3.79378 14.6548 3.8031 12.242 4.59875C9.82913 5.3944 7.73109 6.93532 6.25 8.99958" stroke="#1C1C1E" stroke-linecap="round" stroke-linejoin="round"/>
</svg>
