<svg width="32" height="32" viewBox="0 0 32 32" fill="none" xmlns="http://www.w3.org/2000/svg">
<path d="M7.97461 24.9209C8.727 23.4389 9.87506 22.1942 11.2915 21.3248C12.708 20.4553 14.3376 19.9951 15.9996 19.9951C17.6616 19.9951 19.2912 20.4553 20.7077 21.3248C22.1242 22.1942 23.2722 23.4389 24.0246 24.9209" stroke="#1C1C1E" stroke-linecap="round" stroke-linejoin="round"/>
<path d="M16 28C22.6274 28 28 22.6274 28 16C28 9.37258 22.6274 4 16 4C9.37258 4 4 9.37258 4 16C4 22.6274 9.37258 28 16 28Z" stroke="#1C1C1E" stroke-linecap="round" stroke-linejoin="round"/>
<path d="M16 20C18.7614 20 21 17.7614 21 15C21 12.2386 18.7614 10 16 10C13.2386 10 11 12.2386 11 15C11 17.7614 13.2386 20 16 20Z" stroke="#1C1C1E" stroke-linecap="round" stroke-linejoin="round"/>
</svg>
