<svg width="32" height="32" viewBox="0 0 32 32" fill="none" xmlns="http://www.w3.org/2000/svg">
<path d="M26 5H6C5.44772 5 5 5.44772 5 6V26C5 26.5523 5.44772 27 6 27H26C26.5523 27 27 26.5523 27 26V6C27 5.44772 26.5523 5 26 5Z" stroke="#1C1C1E" stroke-linecap="round" stroke-linejoin="round"/>
<path d="M16 23C19.866 23 23 19.866 23 16C23 12.134 19.866 9 16 9C12.134 9 9 12.134 9 16C9 19.866 12.134 23 16 23Z" stroke="#1C1C1E" stroke-linecap="round" stroke-linejoin="round"/>
<path d="M23.5 9.5C24.0523 9.5 24.5 9.05228 24.5 8.5C24.5 7.94772 24.0523 7.5 23.5 7.5C22.9477 7.5 22.5 7.94772 22.5 8.5C22.5 9.05228 22.9477 9.5 23.5 9.5Z" fill="#1C1C1E"/>
<path d="M15 14L13 16" stroke="#1C1C1E" stroke-linecap="round" stroke-linejoin="round"/>
<path d="M15 19L19 15" stroke="#1C1C1E" stroke-linecap="round" stroke-linejoin="round"/>
</svg>
