<svg width="32" height="32" viewBox="0 0 32 32" fill="none" xmlns="http://www.w3.org/2000/svg">
<path d="M24 22.5C24.8284 22.5 25.5 21.8284 25.5 21C25.5 20.1716 24.8284 19.5 24 19.5C23.1716 19.5 22.5 20.1716 22.5 21C22.5 21.8284 23.1716 22.5 24 22.5Z" fill="#1C1C1E"/>
<path d="M16 9.5C16.8284 9.5 17.5 8.82843 17.5 8C17.5 7.17157 16.8284 6.5 16 6.5C15.1716 6.5 14.5 7.17157 14.5 8C14.5 8.82843 15.1716 9.5 16 9.5Z" fill="#1C1C1E"/>
<path d="M8 22.5C8.82843 22.5 9.5 21.8284 9.5 21C9.5 20.1716 8.82843 19.5 8 19.5C7.17157 19.5 6.5 20.1716 6.5 21C6.5 21.8284 7.17157 22.5 8 22.5Z" fill="#1C1C1E"/>
<path d="M4 18C3.52464 18.6338 3.20671 19.3715 3.07239 20.1523C2.93806 20.9331 2.99121 21.7346 3.22743 22.4908C3.46366 23.2471 3.87621 23.9363 4.43108 24.5018C4.98595 25.0673 5.66726 25.4929 6.41886 25.7434C7.17047 25.994 7.97084 26.0623 8.75404 25.9428C9.53724 25.8233 10.2808 25.5195 10.9236 25.0562C11.5663 24.593 12.0897 23.9836 12.4507 23.2784C12.8117 22.5732 13 21.7923 13 21H24" stroke="#1C1C1E" stroke-linecap="round" stroke-linejoin="round"/>
<path d="M20.5825 5.99954C20.2681 5.28114 19.7892 4.64675 19.1844 4.14761C18.5796 3.64847 17.8659 3.29858 17.1009 3.12621C16.336 2.95383 15.5412 2.9638 14.7807 3.15531C14.0203 3.34681 13.3156 3.71449 12.7235 4.22864C12.1314 4.74279 11.6686 5.38899 11.3723 6.11504C11.0761 6.8411 10.9548 7.62665 11.0182 8.40825C11.0816 9.18985 11.328 9.94557 11.7374 10.6144C12.1468 11.2832 12.7078 11.8463 13.375 12.2583L8 20.9995" stroke="#1C1C1E" stroke-linecap="round" stroke-linejoin="round"/>
<path d="M24 26C24.7726 25.9992 25.5345 25.8193 26.2259 25.4746C26.9173 25.1298 27.5194 24.6295 27.985 24.0129C28.4506 23.3964 28.7669 22.6803 28.9092 21.9209C29.0515 21.1615 29.0159 20.3795 28.8051 19.6362C28.5944 18.8929 28.2143 18.2085 27.6946 17.6368C27.1749 17.0651 26.5298 16.6216 25.8099 16.3411C25.09 16.0606 24.3149 15.9508 23.5455 16.0202C22.776 16.0897 22.0331 16.3364 21.375 16.7412L16 8" stroke="#1C1C1E" stroke-linecap="round" stroke-linejoin="round"/>
</svg>
