<svg width="32" height="32" viewBox="0 0 32 32" fill="none" xmlns="http://www.w3.org/2000/svg">
<path d="M9 13C9 11.9391 9.42143 10.9217 10.1716 10.1716C10.9217 9.42143 11.9391 9 13 9L15 13L13.46 15.3088C14.0709 16.7684 15.2316 17.9291 16.6912 18.54L19 17L23 19C23 20.0609 22.5786 21.0783 21.8284 21.8284C21.0783 22.5786 20.0609 23 19 23C16.3478 23 13.8043 21.9464 11.9289 20.0711C10.0536 18.1957 9 15.6522 9 13Z" stroke="#1C1C1E" stroke-linecap="round" stroke-linejoin="round"/>
<path d="M9.99109 26.3889C12.5118 27.8478 15.4769 28.3401 18.3338 27.7742C21.1907 27.2083 23.7443 25.6227 25.5184 23.3131C27.2926 21.0035 28.1663 18.1275 27.9766 15.2213C27.7869 12.3151 26.5467 9.57703 24.4873 7.51766C22.428 5.45829 19.6899 4.21814 16.7837 4.02843C13.8775 3.83872 11.0015 4.71239 8.69189 6.48656C6.38228 8.26073 4.7967 10.8143 4.23078 13.6712C3.66486 16.5281 4.15723 19.4932 5.61609 22.0139L4.05234 26.6827C3.99358 26.8589 3.98505 27.0479 4.02771 27.2287C4.07037 27.4095 4.16254 27.5748 4.29387 27.7061C4.42521 27.8375 4.59052 27.9296 4.77129 27.9723C4.95206 28.0149 5.14114 28.0064 5.31734 27.9477L9.99109 26.3889Z" stroke="#1C1C1E" stroke-linecap="round" stroke-linejoin="round"/>
</svg>
