<svg width="32" height="32" viewBox="0 0 32 32" fill="none" xmlns="http://www.w3.org/2000/svg">
<path d="M16 26.5C16.5523 26.5 17 26.0523 17 25.5C17 24.9477 16.5523 24.5 16 24.5C15.4477 24.5 15 24.9477 15 25.5C15 26.0523 15.4477 26.5 16 26.5Z" fill="#1C1C1E"/>
<path d="M28 7L22 13" stroke="#1C1C1E" stroke-linecap="round" stroke-linejoin="round"/>
<path d="M28 13L22 7" stroke="#1C1C1E" stroke-linecap="round" stroke-linejoin="round"/>
<path d="M21 20.6252C19.5471 19.5683 17.7966 18.999 16 18.999C14.2034 18.999 12.4529 19.5683 11 20.6252" stroke="#1C1C1E" stroke-linecap="round" stroke-linejoin="round"/>
<path d="M17 7.02377C16.6667 7.00794 16.3333 7.00002 16 7.00002C11.2583 6.99275 6.66191 8.63639 3 11.6488" stroke="#1C1C1E" stroke-linecap="round" stroke-linejoin="round"/>
<path d="M17 13.0338C16.6667 13.0113 16.3333 13 16 13C12.7328 12.9934 9.56004 14.0951 7 16.125" stroke="#1C1C1E" stroke-linecap="round" stroke-linejoin="round"/>
</svg>
