<svg width="32" height="32" viewBox="0 0 32 32" fill="none" xmlns="http://www.w3.org/2000/svg">
<path d="M13.0003 15.8673C12.2009 14.4206 11.8692 12.7618 12.0509 11.1189C12.2325 9.47608 12.9185 7.92981 14.0147 6.6927C15.1108 5.45558 16.5632 4.58834 18.1722 4.21021C19.7812 3.83208 21.4679 3.96161 23.0003 4.58101L18.0003 9.99976L18.7078 13.2923L22.0003 13.9998L27.4191 8.99976C28.0385 10.5322 28.168 12.2188 27.7899 13.8279C27.4117 15.4369 26.5445 16.8893 25.3074 17.9854C24.0703 19.0816 22.524 19.7676 20.8811 19.9492C19.2383 20.1309 17.5795 19.7992 16.1328 18.9998L9.12532 27.1248C8.56174 27.6883 7.79735 28.005 7.00032 28.005C6.20329 28.005 5.43891 27.6883 4.87532 27.1248C4.31174 26.5612 3.99512 25.7968 3.99512 24.9998C3.99512 24.2027 4.31174 23.4383 4.87532 22.8748L13.0003 15.8673Z" stroke="#1C1C1E" stroke-linecap="round" stroke-linejoin="round"/>
</svg>
