<svg width="32" height="32" viewBox="0 0 32 32" fill="none" xmlns="http://www.w3.org/2000/svg">
<path d="M16 27.9998L29 27.9961" stroke="#1C1C1E" stroke-linecap="round" stroke-linejoin="round"/>
<path d="M16 28C22.6274 28 28 22.6274 28 16C28 9.37258 22.6274 4 16 4C9.37258 4 4 9.37258 4 16C4 22.6274 9.37258 28 16 28Z" stroke="#1C1C1E" stroke-linecap="round" stroke-linejoin="round"/>
<path d="M11.5371 27.1425C12.4082 23.3122 14.2873 19.7844 16.9797 16.9243C19.6722 14.0642 23.0802 11.9757 26.8509 10.875" stroke="#1C1C1E" stroke-linecap="round" stroke-linejoin="round"/>
<path d="M7.16797 24.1252C8.38252 20.1557 10.4939 16.5188 13.3388 13.4957C16.1836 10.4727 19.6857 8.14456 23.5742 6.69141" stroke="#1C1C1E" stroke-linecap="round" stroke-linejoin="round"/>
<path d="M16.4746 27.9912C17.173 25.1284 18.602 22.4956 20.622 20.35C22.642 18.2044 25.184 16.6195 27.9996 15.75" stroke="#1C1C1E" stroke-linecap="round" stroke-linejoin="round"/>
<path d="M4.03906 15.0312C6.34674 15.1685 8.60165 15.7782 10.6641 16.8225" stroke="#1C1C1E" stroke-linecap="round" stroke-linejoin="round"/>
<path d="M5.52344 10.1436C8.4801 10.4796 11.3371 11.4154 13.9197 12.8936" stroke="#1C1C1E" stroke-linecap="round" stroke-linejoin="round"/>
<path d="M9.63965 5.82227C12.6187 6.57642 15.4464 7.83593 17.9996 9.54602" stroke="#1C1C1E" stroke-linecap="round" stroke-linejoin="round"/>
</svg>
