<svg width="32" height="32" viewBox="0 0 32 32" fill="none" xmlns="http://www.w3.org/2000/svg">
<path opacity="0.2" d="M26 4H8C7.73478 4 7.48043 4.10536 7.29289 4.29289C7.10536 4.48043 7 4.73478 7 5V27C7 27.2652 7.10536 27.5196 7.29289 27.7071C7.48043 27.8946 7.73478 28 8 28H26C26.2652 28 26.5196 27.8946 26.7071 27.7071C26.8946 27.5196 27 27.2652 27 27V5C27 4.73478 26.8946 4.48043 26.7071 4.29289C26.5196 4.10536 26.2652 4 26 4ZM17 18C16.2089 18 15.4355 17.7654 14.7777 17.3259C14.1199 16.8864 13.6072 16.2616 13.3045 15.5307C13.0017 14.7998 12.9225 13.9956 13.0769 13.2196C13.2312 12.4437 13.6122 11.731 14.1716 11.1716C14.731 10.6122 15.4437 10.2312 16.2196 10.0769C16.9956 9.92252 17.7998 10.0017 18.5307 10.3045C19.2616 10.6072 19.8864 11.1199 20.3259 11.7777C20.7654 12.4355 21 13.2089 21 14C21 15.0609 20.5786 16.0783 19.8284 16.8284C19.0783 17.5786 18.0609 18 17 18Z" fill="#1C1C1E"/>
<path d="M17 18C19.2091 18 21 16.2091 21 14C21 11.7909 19.2091 10 17 10C14.7909 10 13 11.7909 13 14C13 16.2091 14.7909 18 17 18Z" stroke="#1C1C1E" stroke-width="2" stroke-linecap="round" stroke-linejoin="round"/>
<path d="M4 9H7" stroke="#1C1C1E" stroke-width="2" stroke-linecap="round" stroke-linejoin="round"/>
<path d="M4 16H7" stroke="#1C1C1E" stroke-width="2" stroke-linecap="round" stroke-linejoin="round"/>
<path d="M4 23H7" stroke="#1C1C1E" stroke-width="2" stroke-linecap="round" stroke-linejoin="round"/>
<path d="M11 21C11.6986 20.0685 12.6045 19.3125 13.6459 18.7918C14.6873 18.2711 15.8357 18 17 18C18.1643 18 19.3127 18.2711 20.3541 18.7918C21.3955 19.3125 22.3014 20.0685 23 21" stroke="#1C1C1E" stroke-width="2" stroke-linecap="round" stroke-linejoin="round"/>
<path d="M27 27V5C27 4.44772 26.5523 4 26 4L8 4C7.44772 4 7 4.44772 7 5V27C7 27.5523 7.44772 28 8 28H26C26.5523 28 27 27.5523 27 27Z" stroke="#1C1C1E" stroke-width="2" stroke-linecap="round" stroke-linejoin="round"/>
</svg>
