<svg width="32" height="32" viewBox="0 0 32 32" fill="none" xmlns="http://www.w3.org/2000/svg">
<path opacity="0.2" d="M26 11H6C5.44772 11 5 11.4477 5 12V20C5 20.5523 5.44772 21 6 21H26C26.5523 21 27 20.5523 27 20V12C27 11.4477 26.5523 11 26 11Z" fill="#1C1C1E"/>
<path d="M16 6V11" stroke="#1C1C1E" stroke-width="2" stroke-linecap="round" stroke-linejoin="round"/>
<path d="M16 21V26" stroke="#1C1C1E" stroke-width="2" stroke-linecap="round" stroke-linejoin="round"/>
<path d="M26 11H6C5.44772 11 5 11.4477 5 12V20C5 20.5523 5.44772 21 6 21H26C26.5523 21 27 20.5523 27 20V12C27 11.4477 26.5523 11 26 11Z" stroke="#1C1C1E" stroke-width="2" stroke-linecap="round" stroke-linejoin="round"/>
</svg>
