<svg width="32" height="32" viewBox="0 0 32 32" fill="none" xmlns="http://www.w3.org/2000/svg">
<path opacity="0.2" d="M16 18C17.6569 18 19 16.6569 19 15C19 13.3431 17.6569 12 16 12C14.3431 12 13 13.3431 13 15C13 16.6569 14.3431 18 16 18Z" fill="#1C1C1E"/>
<path opacity="0.2" d="M16.4453 28.0001H15.5553C15.1053 28.0024 14.6673 27.8547 14.3106 27.5803C13.9538 27.306 13.6986 26.9206 13.5853 26.4851L12.0615 20.4851C11.9888 20.1879 11.9849 19.878 12.0501 19.5791C12.1154 19.2802 12.2482 19.0002 12.4383 18.7604C12.6283 18.5206 12.8707 18.3275 13.1468 18.1957C13.423 18.0639 13.7256 17.997 14.0315 18.0001H17.969C18.275 17.997 18.5776 18.0639 18.8537 18.1957C19.1299 18.3275 19.3722 18.5206 19.5623 18.7604C19.7524 19.0002 19.8852 19.2802 19.9504 19.5791C20.0157 19.878 20.0118 20.1879 19.939 20.4851L18.4153 26.4851C18.302 26.9206 18.0468 27.306 17.69 27.5803C17.3333 27.8547 16.8953 28.0024 16.4453 28.0001Z" fill="#1C1C1E"/>
<path d="M16 18C17.6569 18 19 16.6569 19 15C19 13.3431 17.6569 12 16 12C14.3431 12 13 13.3431 13 15C13 16.6569 14.3431 18 16 18Z" stroke="#1C1C1E" stroke-width="2" stroke-linecap="round" stroke-linejoin="round"/>
<path d="M16.4453 28.0001H15.5553C15.1053 28.0024 14.6673 27.8547 14.3106 27.5803C13.9538 27.306 13.6986 26.9206 13.5853 26.4851L12.0615 20.4851C11.9888 20.1879 11.9849 19.878 12.0501 19.5791C12.1154 19.2802 12.2482 19.0002 12.4383 18.7604C12.6283 18.5206 12.8707 18.3275 13.1468 18.1957C13.423 18.0639 13.7256 17.997 14.0315 18.0001H17.969C18.275 17.997 18.5776 18.0639 18.8537 18.1957C19.1299 18.3275 19.3722 18.5206 19.5623 18.7604C19.7524 19.0002 19.8852 19.2802 19.9504 19.5791C20.0157 19.878 20.0118 20.1879 19.939 20.4851L18.4153 26.4851C18.302 26.9206 18.0468 27.306 17.69 27.5803C17.3333 27.8547 16.8953 28.0024 16.4453 28.0001Z" stroke="#1C1C1E" stroke-width="2" stroke-linecap="round" stroke-linejoin="round"/>
<path d="M8.29125 18.1478C7.96156 16.9596 7.911 15.7112 8.14352 14.5003C8.37603 13.2893 8.88534 12.1485 9.63165 11.1669C10.378 10.1853 11.3411 9.3895 12.4458 8.84167C13.5505 8.29383 14.7669 8.00879 16 8.00879C17.2331 8.00879 18.4495 8.29383 19.5542 8.84167C20.6589 9.3895 21.622 10.1853 22.3683 11.1669C23.1147 12.1485 23.624 13.2893 23.8565 14.5003C24.089 15.7112 24.0384 16.9596 23.7087 18.1478" stroke="#1C1C1E" stroke-width="2" stroke-linecap="round" stroke-linejoin="round"/>
<path d="M9.32875 25.9766C7.18921 24.5457 5.56647 22.4647 4.70013 20.0409C3.83379 17.6171 3.76976 14.979 4.51749 12.516C5.26521 10.053 6.78507 7.89576 8.85267 6.36267C10.9203 4.82959 13.426 4.00195 16 4.00195C18.574 4.00195 21.0797 4.82959 23.1473 6.36267C25.2149 7.89576 26.7348 10.053 27.4825 12.516C28.2302 14.979 28.1662 17.6171 27.2999 20.0409C26.4335 22.4647 24.8108 24.5457 22.6712 25.9766" stroke="#1C1C1E" stroke-width="2" stroke-linecap="round" stroke-linejoin="round"/>
</svg>
