<svg width="32" height="32" viewBox="0 0 32 32" fill="none" xmlns="http://www.w3.org/2000/svg">
<path opacity="0.2" d="M16 27C22.0751 27 27 22.0751 27 16C27 9.92487 22.0751 5 16 5C9.92487 5 5 9.92487 5 16C5 22.0751 9.92487 27 16 27Z" fill="#1C1C1E"/>
<path d="M3 7V13H9" stroke="#1C1C1E" stroke-width="2" stroke-linecap="round" stroke-linejoin="round"/>
<path d="M8.44875 23.9999C10.0211 25.4838 11.9959 26.4715 14.1263 26.8395C16.2568 27.2075 18.4484 26.9395 20.4275 26.0691C22.4065 25.1986 24.0851 23.7643 25.2537 21.9453C26.4222 20.1262 27.0287 18.0032 26.9976 15.8414C26.9664 13.6796 26.2989 11.575 25.0784 9.7904C23.8579 8.00582 22.1386 6.62047 20.1353 5.80744C18.132 4.9944 15.9335 4.78974 13.8146 5.21902C11.6956 5.64831 9.75016 6.6925 8.22125 8.22113L3 12.9999" stroke="#1C1C1E" stroke-width="2" stroke-linecap="round" stroke-linejoin="round"/>
</svg>
