<svg width="32" height="32" viewBox="0 0 32 32" fill="none" xmlns="http://www.w3.org/2000/svg">
<path opacity="0.2" d="M25.431 16.6663L21.7035 6.13133C21.3136 4.93983 20.5603 3.90039 19.5494 3.15899C18.5384 2.41758 17.3206 2.01147 16.0671 1.99768C14.8135 1.98389 13.587 2.36311 12.56 3.0821C11.533 3.80108 10.757 4.8237 10.341 6.00633L6.64852 16.4488C6.07857 17.9533 5.88005 19.5732 6.0698 21.1708C6.25955 22.7684 6.83197 24.2967 7.73846 25.6258C8.64496 26.955 9.85878 28.0458 11.2769 28.8057C12.695 29.5656 14.2755 29.9721 15.8842 29.9907C17.493 30.0093 19.0824 29.6395 20.5178 28.9127C21.9531 28.1859 23.1918 27.1234 24.1288 25.8156C25.0659 24.5078 25.6735 22.9932 25.9002 21.4004C26.1269 19.8076 25.966 18.1836 25.431 16.6663ZM15.9998 25.0001C15.0109 25.0001 14.0442 24.7068 13.2219 24.1574C12.3997 23.608 11.7588 22.8271 11.3804 21.9135C11.0019 20.9999 10.9029 19.9945 11.0958 19.0246C11.2888 18.0547 11.765 17.1638 12.4642 16.4645C13.1635 15.7653 14.0544 15.2891 15.0243 15.0962C15.9942 14.9032 16.9996 15.0022 17.9132 15.3807C18.8268 15.7591 19.6077 16.4 20.1571 17.2222C20.7065 18.0445 20.9998 19.0112 20.9998 20.0001C20.9998 21.3262 20.473 22.5979 19.5353 23.5356C18.5976 24.4733 17.3258 25.0001 15.9998 25.0001Z" fill="#1C1C1E"/>
<path d="M16 25C18.7614 25 21 22.7614 21 20C21 17.2386 18.7614 15 16 15C13.2386 15 11 17.2386 11 20C11 22.7614 13.2386 25 16 25Z" stroke="#1C1C1E" stroke-width="2" stroke-linecap="round" stroke-linejoin="round"/>
<path d="M10.341 5.99999C10.757 4.81735 11.533 3.79473 12.56 3.07575C13.587 2.35677 14.8135 1.97754 16.0671 1.99133C17.3206 2.00512 18.5384 2.41124 19.5494 3.15264C20.5603 3.89404 21.3136 4.93349 21.7035 6.12499L25.431 16.66C25.966 18.1773 26.1269 19.8013 25.9002 21.3941C25.6735 22.9869 25.0659 24.5015 24.1288 25.8093C23.1918 27.1171 21.9531 28.1795 20.5178 28.9064C19.0824 29.6332 17.493 30.003 15.8842 29.9844C14.2755 29.9657 12.695 29.5592 11.2769 28.7993C9.85878 28.0395 8.64496 26.9486 7.73846 25.6195C6.83197 24.2903 6.25955 22.7621 6.0698 21.1644C5.88005 19.5668 6.07857 17.947 6.64852 16.4425L10.341 5.99999Z" stroke="#1C1C1E" stroke-width="2" stroke-linecap="round" stroke-linejoin="round"/>
</svg>
