<svg width="32" height="32" viewBox="0 0 32 32" fill="none" xmlns="http://www.w3.org/2000/svg">
<path opacity="0.2" d="M25.8288 11.8292C26.579 11.079 27.0005 10.0614 27.0005 9.00046C27.0005 7.93947 26.579 6.92194 25.8288 6.17171C25.4573 5.80023 25.0163 5.50556 24.5309 5.30452C24.0456 5.10348 23.5253 5 23 5C21.939 5 20.9215 5.42148 20.1712 6.17171L16 10.3442L21.6562 16.0005L25.8288 11.8292Z" fill="#1C1C1E"/>
<path opacity="0.2" d="M6.17171 20.1712C5.42148 20.9215 5 21.939 5 23C5 23.5253 5.10348 24.0456 5.30452 24.5309C5.50556 25.0163 5.80023 25.4573 6.17171 25.8288C6.54318 26.2002 6.98419 26.4949 7.46955 26.6959C7.95491 26.897 8.47511 27.0005 9.00046 27.0005C10.0614 27.0005 11.079 26.579 11.8292 25.8288L16.0005 21.6562L10.3442 16L6.17171 20.1712Z" fill="#1C1C1E"/>
<path opacity="0.2" d="M11.8292 6.17171C11.079 5.42148 10.0614 5 9.00046 5C7.93947 5 6.92194 5.42148 6.17171 6.17171C5.42148 6.92194 5 7.93947 5 9.00046C5 10.0614 5.42148 11.079 6.17171 11.8292L10.3442 16.0005L16.0005 10.3442L11.8292 6.17171Z" fill="#1C1C1E"/>
<path opacity="0.2" d="M21.6562 16L16 21.6562L20.1712 25.8288C20.9215 26.579 21.939 27.0005 23 27.0005C24.061 27.0005 25.0785 26.579 25.8288 25.8288C26.579 25.0785 27.0005 24.061 27.0005 23C27.0005 21.939 26.579 20.9215 25.8288 20.1712L21.6562 16Z" fill="#1C1C1E"/>
<path d="M6.17171 11.8292C5.42148 11.079 5 10.0614 5 9.00046C5 7.93947 5.42148 6.92194 6.17171 6.17171C6.92194 5.42148 7.93947 5 9.00046 5C10.0614 5 11.079 5.42148 11.8292 6.17171L25.8292 20.1717C26.5794 20.9219 27.0009 21.9395 27.0009 23.0005C27.0009 24.0614 26.5794 25.079 25.8292 25.8292C25.079 26.5794 24.0614 27.0009 23.0005 27.0009C21.9395 27.0009 20.9219 26.5794 20.1717 25.8292L6.17171 11.8292Z" stroke="#1C1C1E" stroke-width="2" stroke-linecap="round" stroke-linejoin="round"/>
<path d="M20.1717 6.17171C20.9219 5.42148 21.9395 5 23.0005 5C23.5258 5 24.046 5.10348 24.5314 5.30452C25.0167 5.50556 25.4577 5.80023 25.8292 6.17171C26.2007 6.54318 26.4954 6.98419 26.6964 7.46955C26.8974 7.95491 27.0009 8.47511 27.0009 9.00046C27.0009 9.5258 26.8974 10.046 26.6964 10.5314C26.4954 11.0167 26.2007 11.4577 25.8292 11.8292L11.8292 25.8292C11.4577 26.2007 11.0167 26.4954 10.5314 26.6964C10.046 26.8974 9.5258 27.0009 9.00046 27.0009C8.47511 27.0009 7.95491 26.8974 7.46955 26.6964C6.98419 26.4954 6.54318 26.2007 6.17171 25.8292C5.42148 25.079 5 24.0614 5 23.0005C5 21.9395 5.42148 20.9219 6.17171 20.1717L20.1717 6.17171Z" stroke="#1C1C1E" stroke-width="2" stroke-linecap="round" stroke-linejoin="round"/>
<path opacity="0.5" d="M16 16.5C16.2761 16.5 16.5 16.2761 16.5 16C16.5 15.7239 16.2761 15.5 16 15.5C15.7239 15.5 15.5 15.7239 15.5 16C15.5 16.2761 15.7239 16.5 16 16.5Z" stroke="#1C1C1E" stroke-width="2" stroke-linecap="round" stroke-linejoin="round"/>
<path d="M16 17.5C16.8284 17.5 17.5 16.8284 17.5 16C17.5 15.1716 16.8284 14.5 16 14.5C15.1716 14.5 14.5 15.1716 14.5 16C14.5 16.8284 15.1716 17.5 16 17.5Z" fill="#1C1C1E"/>
</svg>
