<svg width="32" height="32" viewBox="0 0 32 32" fill="none" xmlns="http://www.w3.org/2000/svg">
<path opacity="0.2" d="M19.5 9L29 18.5V10C29 9.73478 28.8946 9.48043 28.7071 9.29289C28.5196 9.10536 28.2652 9 28 9H19.5Z" fill="#1C1C1E"/>
<path opacity="0.2" d="M10.5 9L21.5 20H12.5L3 10.5V10C3 9.73478 3.10536 9.48043 3.29289 9.29289C3.48043 9.10536 3.73478 9 4 9H10.5Z" fill="#1C1C1E"/>
<path d="M28 9H4C3.44772 9 3 9.44772 3 10V19C3 19.5523 3.44772 20 4 20H28C28.5523 20 29 19.5523 29 19V10C29 9.44772 28.5523 9 28 9Z" stroke="#1C1C1E" stroke-width="2" stroke-linecap="round" stroke-linejoin="round"/>
<path d="M10.5 9L21.5 20" stroke="#1C1C1E" stroke-width="2" stroke-linecap="round" stroke-linejoin="round"/>
<path d="M19.5 9L29 18.5" stroke="#1C1C1E" stroke-width="2" stroke-linecap="round" stroke-linejoin="round"/>
<path d="M3 10.5L12.5 20" stroke="#1C1C1E" stroke-width="2" stroke-linecap="round" stroke-linejoin="round"/>
<path d="M24 20V25" stroke="#1C1C1E" stroke-width="2" stroke-linecap="round" stroke-linejoin="round"/>
<path d="M8 20V25" stroke="#1C1C1E" stroke-width="2" stroke-linecap="round" stroke-linejoin="round"/>
</svg>
