<svg width="32" height="32" viewBox="0 0 32 32" fill="none" xmlns="http://www.w3.org/2000/svg">
<path opacity="0.2" d="M7.50726 24.4885C5.25921 22.2406 3.995 19.1925 3.99219 16.0135C3.98938 12.8344 5.24819 9.78407 7.49226 7.53223C8.60375 8.64469 9.48498 9.96539 10.0855 11.4188C10.6861 12.8721 10.9942 14.4297 10.9923 16.0022C10.9941 17.575 10.686 19.1326 10.0854 20.5862C9.48485 22.0398 8.60367 23.3607 7.49226 24.4735L7.50726 24.4885Z" fill="#1C1C1E"/>
<path opacity="0.2" d="M24.5073 24.4885C22.2592 22.2406 20.995 19.1925 20.9922 16.0135C20.9894 12.8344 22.2482 9.78407 24.4923 7.53223C26.7337 9.78146 27.9924 12.8274 27.9924 16.0029C27.9924 19.1783 26.7337 22.2242 24.4923 24.4735L24.5073 24.4885Z" fill="#1C1C1E"/>
<path d="M16 28C22.6274 28 28 22.6274 28 16C28 9.37258 22.6274 4 16 4C9.37258 4 4 9.37258 4 16C4 22.6274 9.37258 28 16 28Z" stroke="#1C1C1E" stroke-width="2" stroke-linecap="round" stroke-linejoin="round"/>
<path d="M7.5 7.53027C8.61148 8.64274 9.49272 9.96343 10.0933 11.4168C10.6939 12.8702 11.002 14.4277 11 16.0003C11.002 17.5728 10.6939 19.1304 10.0933 20.5837C9.49272 22.0371 8.61148 23.3578 7.5 24.4703" stroke="#1C1C1E" stroke-width="2" stroke-linecap="round" stroke-linejoin="round"/>
<path d="M24.4995 7.53027C22.2584 9.77946 21 12.8252 21 16.0003C21 19.1754 22.2584 22.2211 24.4995 24.4703" stroke="#1C1C1E" stroke-width="2" stroke-linecap="round" stroke-linejoin="round"/>
<path d="M4 16H28" stroke="#1C1C1E" stroke-width="2" stroke-linecap="round" stroke-linejoin="round"/>
<path d="M16 4V28" stroke="#1C1C1E" stroke-width="2" stroke-linecap="round" stroke-linejoin="round"/>
</svg>
