<svg width="32" height="32" viewBox="0 0 32 32" fill="none" xmlns="http://www.w3.org/2000/svg">
<path opacity="0.2" d="M25 13V18H17V13H2V18C2 19.5913 2.63214 21.1174 3.75736 22.2426C4.88258 23.3679 6.4087 24 8 24H24C25.5913 24 27.1174 23.3679 28.2426 22.2426C29.3679 21.1174 30 19.5913 30 18V13H25Z" fill="#1C1C1E"/>
<path d="M9 24V27" stroke="#1C1C1E" stroke-width="2" stroke-linecap="round" stroke-linejoin="round"/>
<path d="M23 24V27" stroke="#1C1C1E" stroke-width="2" stroke-linecap="round" stroke-linejoin="round"/>
<path d="M25 12H17V18H25V12Z" stroke="#1C1C1E" stroke-width="2" stroke-linecap="round" stroke-linejoin="round"/>
<path d="M25 13H30V18C30 19.5913 29.3679 21.1174 28.2426 22.2426C27.1174 23.3679 25.5913 24 24 24H8C6.4087 24 4.88258 23.3679 3.75736 22.2426C2.63214 21.1174 2 19.5913 2 18V13H17" stroke="#1C1C1E" stroke-width="2" stroke-linecap="round" stroke-linejoin="round"/>
<path d="M7 13V6.50001C7 5.83697 7.26339 5.20108 7.73223 4.73224C8.20107 4.2634 8.83696 4.00001 9.5 4.00001C10.0822 3.99864 10.6475 4.19617 11.1021 4.55988C11.5567 4.9236 11.8735 5.43168 12 6.00001" stroke="#1C1C1E" stroke-width="2" stroke-linecap="round" stroke-linejoin="round"/>
</svg>
