<svg width="32" height="32" viewBox="0 0 32 32" fill="none" xmlns="http://www.w3.org/2000/svg">
<path opacity="0.2" d="M22 5H10C8.89543 5 8 5.89543 8 7V28C8 29.1046 8.89543 30 10 30H22C23.1046 30 24 29.1046 24 28V7C24 5.89543 23.1046 5 22 5Z" fill="#1C1C1E"/>
<path d="M12 1H20" stroke="#1C1C1E" stroke-width="2" stroke-linecap="round" stroke-linejoin="round"/>
<path d="M22 5H10C8.89543 5 8 5.89543 8 7V28C8 29.1046 8.89543 30 10 30H22C23.1046 30 24 29.1046 24 28V7C24 5.89543 23.1046 5 22 5Z" stroke="#1C1C1E" stroke-width="2" stroke-linecap="round" stroke-linejoin="round"/>
<path d="M16 12V17" stroke="#1C1C1E" stroke-width="2" stroke-linecap="round" stroke-linejoin="round"/>
<path d="M16 23C16.8284 23 17.5 22.3284 17.5 21.5C17.5 20.6716 16.8284 20 16 20C15.1716 20 14.5 20.6716 14.5 21.5C14.5 22.3284 15.1716 23 16 23Z" fill="#1C1C1E"/>
</svg>
