<svg width="32" height="32" viewBox="0 0 32 32" fill="none" xmlns="http://www.w3.org/2000/svg">
<path opacity="0.2" d="M25 8H4C2.89543 8 2 8.89543 2 10V22C2 23.1046 2.89543 24 4 24H25C26.1046 24 27 23.1046 27 22V10C27 8.89543 26.1046 8 25 8Z" fill="#1C1C1E"/>
<path d="M25 8H4C2.89543 8 2 8.89543 2 10V22C2 23.1046 2.89543 24 4 24H25C26.1046 24 27 23.1046 27 22V10C27 8.89543 26.1046 8 25 8Z" stroke="#1C1C1E" stroke-width="2" stroke-linecap="round" stroke-linejoin="round"/>
<path d="M17 12V20" stroke="#1C1C1E" stroke-width="2" stroke-linecap="round" stroke-linejoin="round"/>
<path d="M12 12V20" stroke="#1C1C1E" stroke-width="2" stroke-linecap="round" stroke-linejoin="round"/>
<path d="M7 12V20" stroke="#1C1C1E" stroke-width="2" stroke-linecap="round" stroke-linejoin="round"/>
<path d="M31 12V20" stroke="#1C1C1E" stroke-width="2" stroke-linecap="round" stroke-linejoin="round"/>
</svg>
