<svg width="32" height="32" viewBox="0 0 32 32" fill="none" xmlns="http://www.w3.org/2000/svg">
<path opacity="0.2" d="M9.90723 5.65879C12.4948 4.13952 15.5561 3.6403 18.4922 4.25879C19.436 6.62532 19.9968 9.12708 20.1535 11.67C17.2988 8.83533 13.7744 6.76762 9.90723 5.65879Z" fill="#1C1C1E"/>
<path opacity="0.2" d="M26.3413 22.0908C25.2334 18.2221 23.1656 14.6963 20.3301 11.8408C22.873 11.9981 25.3746 12.5589 27.7413 13.5021C28.3599 16.4378 27.8606 19.4987 26.3413 22.0858V22.0908Z" fill="#1C1C1E"/>
<path opacity="0.2" d="M20.1632 11.8367C20.4918 17.6483 18.6921 23.3807 15.1007 27.9617C12.2368 27.7465 9.54501 26.5114 7.51421 24.4806C5.48342 22.4498 4.24831 19.7581 4.0332 16.8942C8.61621 13.3034 14.3505 11.5054 20.1632 11.8367Z" fill="#1C1C1E"/>
<path d="M16 28C22.6274 28 28 22.6274 28 16C28 9.37258 22.6274 4 16 4C9.37258 4 4 9.37258 4 16C4 22.6274 9.37258 28 16 28Z" stroke="#1C1C1E" stroke-width="2" stroke-linecap="round" stroke-linejoin="round"/>
<path d="M18.4916 4.25977C20.0494 8.1625 20.5562 12.4056 19.9613 16.5655C19.3665 20.7253 17.6908 24.6563 15.1016 27.966" stroke="#1C1C1E" stroke-width="2" stroke-linecap="round" stroke-linejoin="round"/>
<path d="M4.03418 16.8986C7.34388 14.3093 11.2749 12.6336 15.4347 12.0388C19.5946 11.4439 23.8377 11.9507 27.7404 13.5086" stroke="#1C1C1E" stroke-width="2" stroke-linecap="round" stroke-linejoin="round"/>
<path d="M9.90625 5.65918C13.8144 6.77956 17.3721 8.8787 20.2425 11.7579C23.1217 14.6283 25.2209 18.186 26.3412 22.0942" stroke="#1C1C1E" stroke-width="2" stroke-linecap="round" stroke-linejoin="round"/>
</svg>
