<svg width="32" height="32" viewBox="0 0 32 32" fill="none" xmlns="http://www.w3.org/2000/svg">
<path opacity="0.2" d="M12.0004 11.9996L5 19L13 27L20.0004 19.9997L12.0004 11.9996Z" fill="#1C1C1E"/>
<path d="M26 2L30 6" stroke="#1C1C1E" stroke-width="2" stroke-linecap="round" stroke-linejoin="round"/>
<path d="M26.9997 3L18.9997 9L13.9997 10L3.58595 20.4137C3.40018 20.5995 3.25282 20.82 3.15228 21.0627C3.05175 21.3053 3 21.5654 3 21.8281C3 22.0908 3.05175 22.3509 3.15228 22.5936C3.25282 22.8363 3.40018 23.0568 3.58595 23.2425L8.7572 28.4137C8.94292 28.5995 9.16342 28.7469 9.4061 28.8474C9.64878 28.948 9.90889 28.9997 10.1716 28.9997C10.4343 28.9997 10.6944 28.948 10.937 28.8474C11.1797 28.7469 11.4002 28.5995 11.5859 28.4137L21.9997 18L22.9997 13L28.9997 5" stroke="#1C1C1E" stroke-width="2" stroke-linecap="round" stroke-linejoin="round"/>
<path d="M12 12L20 20" stroke="#1C1C1E" stroke-width="2" stroke-linecap="round" stroke-linejoin="round"/>
<path d="M13 27L5 19" stroke="#1C1C1E" stroke-width="2" stroke-linecap="round" stroke-linejoin="round"/>
</svg>
