<svg width="32" height="32" viewBox="0 0 32 32" fill="none" xmlns="http://www.w3.org/2000/svg">
<path opacity="0.2" d="M6.99984 13C6.99984 10.6131 7.94806 8.32387 9.63588 6.63604C11.3237 4.94821 13.6129 4 15.9998 4C18.3868 4 20.676 4.94821 22.3638 6.63604C24.0516 8.32387 24.9998 10.6131 24.9998 13C24.9998 17.4775 26.0373 21.075 26.8623 22.5C26.95 22.6518 26.9962 22.8239 26.9963 22.9991C26.9965 23.1744 26.9506 23.3466 26.8632 23.4985C26.7759 23.6504 26.6501 23.7767 26.4986 23.8647C26.3471 23.9527 26.1751 23.9994 25.9998 24H5.99984C5.82482 23.9989 5.65314 23.952 5.50195 23.8638C5.35077 23.7756 5.22539 23.6492 5.13833 23.4974C5.05127 23.3456 5.00559 23.1735 5.00586 22.9985C5.00613 22.8235 5.05233 22.6516 5.13984 22.5C5.96359 21.075 6.99984 17.4762 6.99984 13Z" fill="#1C1C1E"/>
<path d="M6 5L26 27" stroke="#1C1C1E" stroke-width="2" stroke-linecap="round" stroke-linejoin="round"/>
<path d="M12 28H20" stroke="#1C1C1E" stroke-width="2" stroke-linecap="round" stroke-linejoin="round"/>
<path d="M23.2723 23.9997H5.99984C5.82482 23.9986 5.65314 23.9517 5.50195 23.8635C5.35077 23.7753 5.22539 23.6489 5.13833 23.4971C5.05127 23.3452 5.00559 23.1732 5.00586 22.9982C5.00613 22.8232 5.05233 22.6513 5.13984 22.4997C5.96359 21.0747 6.99984 17.4759 6.99984 12.9997C6.99684 11.1647 7.55754 9.37308 8.60609 7.86719" stroke="#1C1C1E" stroke-width="2" stroke-linecap="round" stroke-linejoin="round"/>
<path d="M11.5596 5.17046C12.9288 4.39391 14.4777 3.99004 16.0518 3.99917C17.6258 4.00831 19.17 4.43011 20.5301 5.2225C21.8902 6.01488 23.0187 7.15013 23.803 8.51493C24.5872 9.87974 24.9998 11.4264 24.9996 13.0005C24.9996 16.638 25.6846 19.6955 26.3833 21.4755" stroke="#1C1C1E" stroke-width="2" stroke-linecap="round" stroke-linejoin="round"/>
</svg>
