<svg width="32" height="32" viewBox="0 0 32 32" fill="none" xmlns="http://www.w3.org/2000/svg">
<path opacity="0.2" d="M16 23.5C19.866 23.5 23 20.366 23 16.5C23 12.634 19.866 9.5 16 9.5C12.134 9.5 9 12.634 9 16.5C9 20.366 12.134 23.5 16 23.5Z" fill="#1C1C1E"/>
<path d="M16 23.5C19.866 23.5 23 20.366 23 16.5C23 12.634 19.866 9.5 16 9.5C12.134 9.5 9 12.634 9 16.5C9 20.366 12.134 23.5 16 23.5Z" stroke="#1C1C1E" stroke-width="2" stroke-linecap="round" stroke-linejoin="round"/>
<path d="M26 25.9792C24.7838 26.7564 23.3435 27.1066 21.9062 26.9748C20.4689 26.8429 19.1164 26.2364 18.0618 25.2509C17.0073 24.2654 16.3108 22.957 16.0821 21.5319C15.8534 20.1068 16.1056 18.6461 16.7988 17.3801C17.492 16.1142 18.5868 15.1149 19.9107 14.54C21.2346 13.965 22.7121 13.847 24.1105 14.2046C25.5088 14.5622 26.7483 15.3751 27.6336 16.515C28.519 17.6549 28.9997 19.0571 29 20.5004" stroke="#1C1C1E" stroke-width="2" stroke-linecap="round" stroke-linejoin="round"/>
<path d="M3 20.5004C3.00034 19.0571 3.48106 17.6549 4.36637 16.515C5.25167 15.3751 6.49121 14.5622 7.88954 14.2046C9.28787 13.847 10.7655 13.965 12.0893 14.54C13.4132 15.1149 14.508 16.1142 15.2012 17.3801C15.8944 18.6461 16.1466 20.1068 15.9179 21.5319C15.6892 22.957 14.9927 24.2654 13.9382 25.2509C12.8837 26.2364 11.5311 26.8429 10.0938 26.9748C8.65653 27.1066 7.21622 26.7564 6 25.9792" stroke="#1C1C1E" stroke-width="2" stroke-linecap="round" stroke-linejoin="round"/>
<path d="M19 3.47363C20.291 4.14531 21.3193 5.2308 21.9201 6.55627C22.521 7.88173 22.6596 9.37049 22.3139 10.7841C21.9682 12.1978 21.158 13.4545 20.0133 14.353C18.8685 15.2515 17.4553 15.7399 16 15.7399C14.5447 15.7399 13.1315 15.2515 11.9867 14.353C10.842 13.4545 10.0318 12.1978 9.6861 10.7841C9.34036 9.37049 9.47902 7.88173 10.0799 6.55627C10.6807 5.2308 11.709 4.14531 13 3.47363" stroke="#1C1C1E" stroke-width="2" stroke-linecap="round" stroke-linejoin="round"/>
</svg>
