<svg width="32" height="32" viewBox="0 0 32 32" fill="none" xmlns="http://www.w3.org/2000/svg">
<path opacity="0.2" d="M30 21C30 19.4087 29.3679 17.8826 28.2426 16.7574C27.1174 15.6321 25.5913 15 24 15H19V7C19 6.73478 18.8946 6.48043 18.7071 6.29289C18.5196 6.10536 18.2652 6 18 6H4C5.5 9.91875 5.1525 16.9925 4 21H30Z" fill="#1C1C1E"/>
<path d="M19 15H14" stroke="#1C1C1E" stroke-width="2" stroke-linecap="round" stroke-linejoin="round"/>
<path d="M19 11H14" stroke="#1C1C1E" stroke-width="2" stroke-linecap="round" stroke-linejoin="round"/>
<path d="M30 21V25C30 25.2652 29.8946 25.5196 29.7071 25.7071C29.5196 25.8946 29.2652 26 29 26H25.7362C25.581 25.9999 25.4279 25.9639 25.2887 25.895L23.7113 25.105C23.5721 25.0361 23.419 25.0001 23.2638 25H21.2362C21.081 25.0001 20.9279 25.0361 20.7887 25.105L19.2113 25.895C19.0721 25.9639 18.919 25.9999 18.7638 26H15.2362C15.081 25.9999 14.9279 25.9639 14.7887 25.895L13.2113 25.105C13.0721 25.0361 12.919 25.0001 12.7638 25H10.7362C10.581 25.0001 10.4279 25.0361 10.2887 25.105L8.71125 25.895C8.57214 25.9639 8.419 25.9999 8.26375 26H5C4.73478 26 4.48043 25.8946 4.29289 25.7071C4.10536 25.5196 4 25.2652 4 25V21C5.1525 16.9925 5.5 9.91875 4 6H18C18.2652 6 18.5196 6.10536 18.7071 6.29289C18.8946 6.48043 19 6.73478 19 7V15H24C25.5913 15 27.1174 15.6321 28.2426 16.7574C29.3679 17.8826 30 19.4087 30 21Z" stroke="#1C1C1E" stroke-width="2" stroke-linecap="round" stroke-linejoin="round"/>
<path d="M4 21H30" stroke="#1C1C1E" stroke-width="2" stroke-linecap="round" stroke-linejoin="round"/>
</svg>
