<svg width="32" height="32" viewBox="0 0 32 32" fill="none" xmlns="http://www.w3.org/2000/svg">
<path opacity="0.2" d="M26.0005 9.84125V9C26.0005 7.67392 25.4737 6.40215 24.536 5.46447C23.5983 4.52678 22.3266 4 21.0005 4C19.6744 4 18.4026 4.52678 17.465 5.46447C16.5273 6.40215 16.0005 7.67392 16.0005 9C16.0005 7.67392 15.4737 6.40215 14.536 5.46447C13.5983 4.52678 12.3266 4 11.0005 4C9.67441 4 8.40264 4.52678 7.46495 5.46447C6.52727 6.40215 6.00049 7.67392 6.00049 9V9.84125C4.82937 10.2541 3.81518 11.02 3.09778 12.0336C2.38038 13.0471 1.99512 14.2583 1.99512 15.5C1.99512 16.7417 2.38038 17.9529 3.09778 18.9664C3.81518 19.98 4.82937 20.7459 6.00049 21.1588V22C6.00049 23.3261 6.52727 24.5979 7.46495 25.5355C8.40264 26.4732 9.67441 27 11.0005 27C12.3266 27 13.5983 26.4732 14.536 25.5355C15.4737 24.5979 16.0005 23.3261 16.0005 22C16.0005 23.3261 16.5273 24.5979 17.465 25.5355C18.4026 26.4732 19.6744 27 21.0005 27C22.3266 27 23.5983 26.4732 24.536 25.5355C25.4737 24.5979 26.0005 23.3261 26.0005 22V21.1588C27.1716 20.7459 28.1858 19.98 28.9032 18.9664C29.6206 17.9529 30.0059 16.7417 30.0059 15.5C30.0059 14.2583 29.6206 13.0471 28.9032 12.0336C28.1858 11.02 27.1716 10.2541 26.0005 9.84125Z" fill="#1C1C1E"/>
<path d="M11 17C11.9889 17 12.9556 17.2932 13.7779 17.8427C14.6001 18.3921 15.241 19.173 15.6194 20.0866C15.9978 21.0002 16.0969 22.0055 15.9039 22.9755C15.711 23.9454 15.2348 24.8363 14.5355 25.5355C13.8363 26.2348 12.9454 26.711 11.9755 26.9039C11.0055 27.0969 10.0002 26.9978 9.08658 26.6194C8.17295 26.241 7.39206 25.6001 6.84265 24.7779C6.29324 23.9556 6 22.9889 6 22V21.1588" stroke="#1C1C1E" stroke-width="2" stroke-linecap="round" stroke-linejoin="round"/>
<path d="M21 17C20.0111 17 19.0444 17.2932 18.2222 17.8427C17.3999 18.3921 16.759 19.173 16.3806 20.0866C16.0022 21.0002 15.9031 22.0055 16.0961 22.9755C16.289 23.9454 16.7652 24.8363 17.4645 25.5355C18.1637 26.2348 19.0546 26.711 20.0246 26.9039C20.9945 27.0969 21.9998 26.9978 22.9134 26.6194C23.8271 26.241 24.6079 25.6001 25.1574 24.7779C25.7068 23.9556 26 22.9889 26 22V21.1588" stroke="#1C1C1E" stroke-width="2" stroke-linecap="round" stroke-linejoin="round"/>
<path d="M8.99953 21.5H7.99953C6.5832 21.5013 5.21209 21.0015 4.12883 20.089C3.04556 19.1766 2.32 17.9104 2.08053 16.5145C1.84107 15.1185 2.10314 13.6829 2.82037 12.4616C3.53761 11.2403 4.66376 10.3121 5.99953 9.84125V9C5.99953 7.67392 6.52631 6.40215 7.464 5.46447C8.40168 4.52678 9.67345 4 10.9995 4C12.3256 4 13.5974 4.52678 14.5351 5.46447C15.4727 6.40215 15.9995 7.67392 15.9995 9V22" stroke="#1C1C1E" stroke-width="2" stroke-linecap="round" stroke-linejoin="round"/>
<path d="M23 21.5H24C25.4163 21.5013 26.7874 21.0015 27.8707 20.089C28.954 19.1766 29.6795 17.9104 29.919 16.5145C30.1585 15.1185 29.8964 13.6829 29.1792 12.4616C28.4619 11.2403 27.3358 10.3121 26 9.84125V9C26 7.67392 25.4732 6.40215 24.5355 5.46447C23.5979 4.52678 22.3261 4 21 4C19.6739 4 18.4021 4.52678 17.4645 5.46447C16.5268 6.40215 16 7.67392 16 9" stroke="#1C1C1E" stroke-width="2" stroke-linecap="round" stroke-linejoin="round"/>
<path d="M25 14H24.5C23.5717 14 22.6815 13.6313 22.0251 12.9749C21.3687 12.3185 21 11.4283 21 10.5V10" stroke="#1C1C1E" stroke-width="2" stroke-linecap="round" stroke-linejoin="round"/>
<path d="M7 14H7.5C8.42826 14 9.3185 13.6313 9.97487 12.9749C10.6313 12.3185 11 11.4283 11 10.5V10" stroke="#1C1C1E" stroke-width="2" stroke-linecap="round" stroke-linejoin="round"/>
</svg>
