<svg width="32" height="32" viewBox="0 0 32 32" fill="none" xmlns="http://www.w3.org/2000/svg">
<path opacity="0.2" d="M26 13.875C26.9445 13.6332 27.7681 13.0547 28.3162 12.2484C28.8642 11.442 29.0988 10.4633 28.976 9.49611C28.8532 8.52893 28.3814 7.63989 27.6492 6.9961C26.917 6.35231 25.9749 5.99809 25 6.00001H18C18.9749 5.99809 19.917 6.35231 20.6492 6.9961C21.3814 7.63989 21.8532 8.52893 21.976 9.49611C22.0988 10.4633 21.8642 11.442 21.3162 12.2484C20.7681 13.0547 19.9445 13.6332 19 13.875V25C19 25.2652 18.8946 25.5196 18.7071 25.7071C18.5196 25.8947 18.2652 26 18 26H25C25.2652 26 25.5196 25.8947 25.7071 25.7071C25.8946 25.5196 26 25.2652 26 25V13.875Z" fill="#1C1C1E"/>
<path d="M6 14C4.93913 14 3.92172 13.5786 3.17157 12.8284C2.42143 12.0783 2 11.0609 2 10C2 8.93913 2.42143 7.92172 3.17157 7.17157C3.92172 6.42143 4.93913 6 6 6H18C19.0609 6 20.0783 6.42143 20.8284 7.17157C21.5786 7.92172 22 8.93913 22 10C22 11.0609 21.5786 12.0783 20.8284 12.8284C20.0783 13.5786 19.0609 14 18 14" stroke="#1C1C1E" stroke-width="2" stroke-linecap="round" stroke-linejoin="round"/>
<path d="M16 6H25C26.0609 6 27.0783 6.42143 27.8284 7.17157C28.5786 7.92172 29 8.93913 29 10C29 11.0609 28.5786 12.0783 27.8284 12.8284C27.0783 13.5786 26.0609 14 25 14" stroke="#1C1C1E" stroke-width="2" stroke-linecap="round" stroke-linejoin="round"/>
<path d="M19 13.875V25C19 25.2652 18.8946 25.5196 18.7071 25.7071C18.5196 25.8946 18.2652 26 18 26H6C5.73478 26 5.48043 25.8946 5.29289 25.7071C5.10536 25.5196 5 25.2652 5 25V13.875" stroke="#1C1C1E" stroke-width="2" stroke-linecap="round" stroke-linejoin="round"/>
<path d="M26 13.875V25C26 25.2652 25.8946 25.5196 25.7071 25.7071C25.5196 25.8946 25.2652 26 25 26H18" stroke="#1C1C1E" stroke-width="2" stroke-linecap="round" stroke-linejoin="round"/>
</svg>
