<svg width="32" height="32" viewBox="0 0 32 32" fill="none" xmlns="http://www.w3.org/2000/svg">
<path opacity="0.2" d="M16 18.0003C11.7869 18.007 7.64702 16.8996 4 14.7903V25.0003C4 25.2655 4.10536 25.5199 4.29289 25.7074C4.48043 25.895 4.73478 26.0003 5 26.0003H27C27.2652 26.0003 27.5196 25.895 27.7071 25.7074C27.8946 25.5199 28 25.2655 28 25.0003V14.7891C24.3532 16.8991 20.2132 18.007 16 18.0003Z" fill="#1C1C1E"/>
<path d="M14 14H18" stroke="#1C1C1E" stroke-width="2" stroke-linecap="round" stroke-linejoin="round"/>
<path d="M27 8H5C4.44772 8 4 8.44772 4 9V25C4 25.5523 4.44772 26 5 26H27C27.5523 26 28 25.5523 28 25V9C28 8.44772 27.5523 8 27 8Z" stroke="#1C1C1E" stroke-width="2" stroke-linecap="round" stroke-linejoin="round"/>
<path d="M21 8V6C21 5.46957 20.7893 4.96086 20.4142 4.58579C20.0391 4.21071 19.5304 4 19 4H13C12.4696 4 11.9609 4.21071 11.5858 4.58579C11.2107 4.96086 11 5.46957 11 6V8" stroke="#1C1C1E" stroke-width="2" stroke-linecap="round" stroke-linejoin="round"/>
<path d="M28 14.7891C24.3532 16.8991 20.2132 18.0069 16 18.0003C11.7869 18.007 7.64702 16.8996 4 14.7903" stroke="#1C1C1E" stroke-width="2" stroke-linecap="round" stroke-linejoin="round"/>
</svg>
