<svg width="32" height="32" viewBox="0 0 32 32" fill="none" xmlns="http://www.w3.org/2000/svg">
<path opacity="0.2" d="M5.49121 13.196C6.09164 12.1377 6.82881 11.1631 7.68371 10.2973C7.822 10.157 7.99862 10.0607 8.19142 10.0205C8.38422 9.98023 8.58461 9.99781 8.76746 10.071L11.94 11.356C12.1846 11.4537 12.4462 11.502 12.7096 11.4983C12.9731 11.4946 13.2332 11.4389 13.475 11.3343C13.7168 11.2298 13.9356 11.0785 14.1188 10.8892C14.302 10.6998 14.446 10.4762 14.5425 10.231L17.1675 3.59351C17.6862 2.34351 19.1012 1.67726 20.3712 2.15226C20.6861 2.26935 20.9741 2.44869 21.2181 2.67956C21.4621 2.91044 21.657 3.18812 21.7913 3.49602C21.9256 3.80392 21.9965 4.13572 21.9997 4.47162C22.0029 4.80751 21.9384 5.14061 21.81 5.45101L19.1412 12.0885C18.9462 12.5806 18.9542 13.1299 19.1634 13.616C19.3726 14.1022 19.7661 14.4856 20.2575 14.6823L23.375 15.9123C23.5599 15.9871 23.7182 16.1155 23.8296 16.281C23.941 16.4465 24.0003 16.6415 24 16.841V18.9998C23.9989 19.548 24.0323 20.0957 24.1 20.6398L5.49121 13.196Z" fill="#1C1C1E"/>
<path d="M14 28C12.2166 26.4093 10.9535 24.3186 10.375 22" stroke="#1C1C1E" stroke-width="2" stroke-linecap="round" stroke-linejoin="round"/>
<path d="M24 19.0001C24 22.9588 25.6638 26.3751 29 28.0001H7.62501C5.29657 25.5828 3.99701 22.3564 4.00001 19.0001C4.00001 15.4738 5.40376 12.6388 7.68376 10.2951C7.82204 10.1548 7.99866 10.0585 8.19146 10.0183C8.38426 9.97804 8.58466 9.99563 8.76751 10.0688L11.94 11.3538C12.1847 11.4515 12.4463 11.4999 12.7097 11.4961C12.9731 11.4924 13.2332 11.4367 13.475 11.3322C13.7169 11.2276 13.9357 11.0763 14.1189 10.887C14.302 10.6977 14.446 10.474 14.5425 10.2288L17.1675 3.59008C17.6863 2.34008 19.1013 1.67508 20.3713 2.14883C20.6863 2.26591 20.9744 2.44529 21.2185 2.67625C21.4626 2.90722 21.6576 3.18503 21.7919 3.49307C21.9262 3.80112 21.9971 4.13308 22.0002 4.46911C22.0033 4.80515 21.9386 5.13836 21.81 5.44883L19.1413 12.0863C18.9458 12.5785 18.9536 13.1281 19.1629 13.6146C19.3721 14.1011 19.7658 14.4847 20.2575 14.6813L23.375 15.9113C23.5599 15.9861 23.7183 16.1145 23.8296 16.2801C23.941 16.4456 24.0003 16.6406 24 16.8401V19.0001Z" stroke="#1C1C1E" stroke-width="2" stroke-linecap="round" stroke-linejoin="round"/>
<path d="M5.49121 13.1963L24.1 20.64" stroke="#1C1C1E" stroke-width="2" stroke-linecap="round" stroke-linejoin="round"/>
</svg>
