<svg width="32" height="32" viewBox="0 0 32 32" fill="none" xmlns="http://www.w3.org/2000/svg">
<path opacity="0.2" d="M27 6H9C8.73478 6 8.48043 6.10536 8.29289 6.29289C8.10536 6.48043 8 6.73478 8 7V10H23C23.2652 10 23.5196 10.1054 23.7071 10.2929C23.8946 10.4804 24 10.7348 24 11V22H27C27.2652 22 27.5196 21.8946 27.7071 21.7071C27.8946 21.5196 28 21.2652 28 21V7C28 6.73478 27.8946 6.48043 27.7071 6.29289C27.5196 6.10536 27.2652 6 27 6Z" fill="#1C1C1E"/>
<path d="M23 10H5C4.44772 10 4 10.4477 4 11V25C4 25.5523 4.44772 26 5 26H23C23.5523 26 24 25.5523 24 25V11C24 10.4477 23.5523 10 23 10Z" stroke="#1C1C1E" stroke-width="2" stroke-linecap="round" stroke-linejoin="round"/>
<path d="M8 10V7C8 6.73478 8.10536 6.48043 8.29289 6.29289C8.48043 6.10536 8.73478 6 9 6H27C27.2652 6 27.5196 6.10536 27.7071 6.29289C27.8946 6.48043 28 6.73478 28 7V21C28 21.2652 27.8946 21.5196 27.7071 21.7071C27.5196 21.8946 27.2652 22 27 22H24" stroke="#1C1C1E" stroke-width="2" stroke-linecap="round" stroke-linejoin="round"/>
<path d="M4 14H24" stroke="#1C1C1E" stroke-width="2" stroke-linecap="round" stroke-linejoin="round"/>
</svg>
