<svg width="32" height="32" viewBox="0 0 32 32" fill="none" xmlns="http://www.w3.org/2000/svg">
<path opacity="0.2" d="M25 14V20C25 22.3869 24.0518 24.6761 22.364 26.364C20.6761 28.0518 18.3869 29 16 29C13.6131 29 11.3239 28.0518 9.63604 26.364C7.94821 24.6761 7 22.3869 7 20V14H25Z" fill="#1C1C1E"/>
<path d="M25 14C25 9.02944 20.9706 5 16 5C11.0294 5 7 9.02944 7 14V20C7 24.9706 11.0294 29 16 29C20.9706 29 25 24.9706 25 20V14Z" stroke="#1C1C1E" stroke-width="2" stroke-linecap="round" stroke-linejoin="round"/>
<path d="M25 18H28" stroke="#1C1C1E" stroke-width="2" stroke-linecap="round" stroke-linejoin="round"/>
<path d="M4 18H7" stroke="#1C1C1E" stroke-width="2" stroke-linecap="round" stroke-linejoin="round"/>
<path d="M4 22H7.2225" stroke="#1C1C1E" stroke-width="2" stroke-linecap="round" stroke-linejoin="round"/>
<path d="M4 14H28" stroke="#1C1C1E" stroke-width="2" stroke-linecap="round" stroke-linejoin="round"/>
<path d="M16 18V29" stroke="#1C1C1E" stroke-width="2" stroke-linecap="round" stroke-linejoin="round"/>
<path d="M24.7773 22H27.9998" stroke="#1C1C1E" stroke-width="2" stroke-linecap="round" stroke-linejoin="round"/>
<path d="M25 4L21.8438 7.15625" stroke="#1C1C1E" stroke-width="2" stroke-linecap="round" stroke-linejoin="round"/>
<path d="M7 4L10.1562 7.15625" stroke="#1C1C1E" stroke-width="2" stroke-linecap="round" stroke-linejoin="round"/>
</svg>
