<svg width="32" height="32" viewBox="0 0 32 32" fill="none" xmlns="http://www.w3.org/2000/svg">
<path opacity="0.2" d="M20 18H5C2.79086 18 1 19.7909 1 22C1 24.2091 2.79086 26 5 26H20C22.2091 26 24 24.2091 24 22C24 19.7909 22.2091 18 20 18Z" fill="#1C1C1E"/>
<path d="M20 18H5C2.79086 18 1 19.7909 1 22C1 24.2091 2.79086 26 5 26H20C22.2091 26 24 24.2091 24 22C24 19.7909 22.2091 18 20 18Z" stroke="#1C1C1E" stroke-width="2" stroke-linecap="round" stroke-linejoin="round"/>
<path d="M7 6V18" stroke="#1C1C1E" stroke-width="2" stroke-linecap="round" stroke-linejoin="round"/>
<path d="M31 18H30C29.4696 18 28.9609 18.2107 28.5858 18.5858C28.2107 18.9609 28 19.4696 28 20V24C28 24.5304 28.2107 25.0391 28.5858 25.4142C28.9609 25.7893 29.4696 26 30 26H31" stroke="#1C1C1E" stroke-width="2" stroke-linecap="round" stroke-linejoin="round"/>
<path d="M24 22H28" stroke="#1C1C1E" stroke-width="2" stroke-linecap="round" stroke-linejoin="round"/>
<path d="M5 22H20" stroke="#1C1C1E" stroke-width="2" stroke-linecap="round" stroke-linejoin="round"/>
<path d="M2 19.3538V7C2 6.73478 2.10536 6.48043 2.29289 6.29289C2.48043 6.10536 2.73478 6 3 6H14.3337C14.531 6.00008 14.7239 6.05852 14.888 6.16795C15.0522 6.27738 15.1803 6.43292 15.2563 6.615L20 18" stroke="#1C1C1E" stroke-width="2" stroke-linecap="round" stroke-linejoin="round"/>
</svg>
