<svg width="32" height="32" viewBox="0 0 32 32" fill="none" xmlns="http://www.w3.org/2000/svg">
<path opacity="0.2" d="M12 27V17H10.5C8.51088 17 6.60322 16.2098 5.1967 14.8033C3.79018 13.3968 3 11.4891 3 9.5C3 8.83696 3.26339 8.20107 3.73223 7.73223C4.20107 7.26339 4.83696 7 5.5 7C6.16304 7 6.79893 7.26339 7.26777 7.73223C7.73661 8.20107 8 8.83696 8 9.5C8 9.8283 8.06466 10.1534 8.1903 10.4567C8.31594 10.76 8.50009 11.0356 8.73223 11.2678C9.20107 11.7366 9.83696 12 10.5 12H12V7C12 5.93913 12.4214 4.92172 13.1716 4.17157C13.9217 3.42143 14.9391 3 16 3C17.0609 3 18.0783 3.42143 18.8284 4.17157C19.5786 4.92172 20 5.93913 20 7V17H21.5C21.8283 17 22.1534 16.9353 22.4567 16.8097C22.76 16.6841 23.0356 16.4999 23.2678 16.2678C23.4999 16.0356 23.6841 15.76 23.8097 15.4567C23.9353 15.1534 24 14.8283 24 14.5C24 13.837 24.2634 13.2011 24.7322 12.7322C25.2011 12.2634 25.837 12 26.5 12C27.163 12 27.7989 12.2634 28.2678 12.7322C28.7366 13.2011 29 13.837 29 14.5C29 16.4891 28.2098 18.3968 26.8033 19.8033C25.3968 21.2098 23.4891 22 21.5 22H20V27H12Z" fill="#1C1C1E"/>
<path d="M5 27H27" stroke="#1C1C1E" stroke-width="2" stroke-linecap="round" stroke-linejoin="round"/>
<path d="M12 27V17H10.5C8.51088 17 6.60322 16.2098 5.1967 14.8033C3.79018 13.3968 3 11.4891 3 9.5C3 8.83696 3.26339 8.20107 3.73223 7.73223C4.20107 7.26339 4.83696 7 5.5 7C6.16304 7 6.79893 7.26339 7.26777 7.73223C7.73661 8.20107 8 8.83696 8 9.5C8 9.8283 8.06466 10.1534 8.1903 10.4567C8.31594 10.76 8.50009 11.0356 8.73223 11.2678C9.20107 11.7366 9.83696 12 10.5 12H12V7C12 5.93913 12.4214 4.92172 13.1716 4.17157C13.9217 3.42143 14.9391 3 16 3C17.0609 3 18.0783 3.42143 18.8284 4.17157C19.5786 4.92172 20 5.93913 20 7V17H21.5C21.8283 17 22.1534 16.9353 22.4567 16.8097C22.76 16.6841 23.0356 16.4999 23.2678 16.2678C23.4999 16.0356 23.6841 15.76 23.8097 15.4567C23.9353 15.1534 24 14.8283 24 14.5C24 13.837 24.2634 13.2011 24.7322 12.7322C25.2011 12.2634 25.837 12 26.5 12C27.163 12 27.7989 12.2634 28.2678 12.7322C28.7366 13.2011 29 13.837 29 14.5C29 16.4891 28.2098 18.3968 26.8033 19.8033C25.3968 21.2098 23.4891 22 21.5 22H20V27" stroke="#1C1C1E" stroke-width="2" stroke-linecap="round" stroke-linejoin="round"/>
</svg>
