<svg width="32" height="32" viewBox="0 0 32 32" fill="none" xmlns="http://www.w3.org/2000/svg">
<path opacity="0.2" d="M26 8H22L20 5H12L10 8H6C5.46957 8 4.96086 8.21071 4.58579 8.58579C4.21071 8.96086 4 9.46957 4 10V24C4 24.5304 4.21071 25.0391 4.58579 25.4142C4.96086 25.7893 5.46957 26 6 26H26C26.5304 26 27.0391 25.7893 27.4142 25.4142C27.7893 25.0391 28 24.5304 28 24V10C28 9.46957 27.7893 8.96086 27.4142 8.58579C27.0391 8.21071 26.5304 8 26 8ZM16 21C15.11 21 14.24 20.7361 13.4999 20.2416C12.7599 19.7471 12.1831 19.0443 11.8425 18.2221C11.5019 17.3998 11.4128 16.495 11.5865 15.6221C11.7601 14.7492 12.1887 13.9474 12.818 13.318C13.4474 12.6887 14.2492 12.2601 15.1221 12.0865C15.995 11.9128 16.8998 12.0019 17.7221 12.3425C18.5443 12.6831 19.2471 13.2599 19.7416 13.9999C20.2361 14.74 20.5 15.61 20.5 16.5C20.5 17.6935 20.0259 18.8381 19.182 19.682C18.3381 20.5259 17.1935 21 16 21Z" fill="#1C1C1E"/>
<path d="M6 5L26 27" stroke="#1C1C1E" stroke-width="2" stroke-linecap="round" stroke-linejoin="round"/>
<path d="M19.2674 19.5941C18.8418 20.0442 18.3277 20.4015 17.7576 20.6437C17.1874 20.886 16.5733 21.0079 15.9539 21.0018C15.3344 20.9957 14.7229 20.8618 14.1576 20.6084C13.5923 20.355 13.0854 19.9877 12.6686 19.5293C12.2518 19.071 11.9342 18.5315 11.7356 17.9447C11.537 17.3579 11.4617 16.7365 11.5144 16.1192C11.5671 15.502 11.7466 14.9023 12.0418 14.3576C12.337 13.813 12.7415 13.3352 13.2299 12.9541" stroke="#1C1C1E" stroke-width="2" stroke-linecap="round" stroke-linejoin="round"/>
<path d="M11.75 5.375L12 5H20L22 8H26C26.5304 8 27.0391 8.21071 27.4142 8.58579C27.7893 8.96086 28 9.46957 28 10V23.25" stroke="#1C1C1E" stroke-width="2" stroke-linecap="round" stroke-linejoin="round"/>
<path d="M25.0912 26H6C5.46957 26 4.96086 25.7893 4.58579 25.4142C4.21071 25.0391 4 24.5304 4 24V10C4 9.46957 4.21071 8.96086 4.58579 8.58579C4.96086 8.21071 5.46957 8 6 8H8.7275" stroke="#1C1C1E" stroke-width="2" stroke-linecap="round" stroke-linejoin="round"/>
</svg>
