<svg width="32" height="32" viewBox="0 0 32 32" fill="none" xmlns="http://www.w3.org/2000/svg">
<path opacity="0.2" d="M24.9998 25.0001C24.9998 25.2653 24.8945 25.5196 24.7069 25.7072C24.5194 25.8947 24.265 26.0001 23.9998 26.0001H3.99981C3.80192 26.0002 3.60842 25.9416 3.44383 25.8318C3.27923 25.7219 3.15094 25.5657 3.07519 25.3828C2.99944 25.2 2.97963 24.9988 3.01828 24.8047C3.05693 24.6107 3.1523 24.4324 3.29231 24.2926L23.2923 4.29256C23.4322 4.15254 23.6104 4.05718 23.8045 4.01853C23.9986 3.97988 24.1998 3.99968 24.3826 4.07543C24.5654 4.15119 24.7217 4.27948 24.8315 4.44407C24.9414 4.60867 25 4.80216 24.9998 5.00006V25.0001Z" fill="#1C1C1E"/>
<path d="M6 5L26 27" stroke="#1C1C1E" stroke-width="2" stroke-linecap="round" stroke-linejoin="round"/>
<path d="M16.7305 10.8575L23.293 4.295C23.4327 4.15514 23.6107 4.05982 23.8046 4.02109C23.9984 3.98236 24.1994 4.00195 24.3821 4.0774C24.5648 4.15284 24.7211 4.28075 24.8311 4.44496C24.9412 4.60917 25.0001 4.80231 25.0005 5V19.9537" stroke="#1C1C1E" stroke-width="2" stroke-linecap="round" stroke-linejoin="round"/>
<path d="M24.7661 25.6425C24.6722 25.7544 24.555 25.8444 24.4226 25.9062C24.2902 25.968 24.1459 26 23.9998 26H3.99981C3.80192 26.0001 3.60842 25.9416 3.44383 25.8317C3.27923 25.7218 3.15094 25.5656 3.07519 25.3828C2.99944 25.1999 2.97963 24.9987 3.01828 24.8047C3.05693 24.6106 3.1523 24.4323 3.29231 24.2925L13.8961 13.6887" stroke="#1C1C1E" stroke-width="2" stroke-linecap="round" stroke-linejoin="round"/>
</svg>
