<svg width="32" height="32" viewBox="0 0 32 32" fill="none" xmlns="http://www.w3.org/2000/svg">
<path opacity="0.2" d="M16.0004 2C13.9729 1.99991 12.0048 2.68442 10.4149 3.94261C8.82505 5.2008 7.7066 6.95895 7.24077 8.9322C6.77495 10.9055 6.98904 12.9782 7.84837 14.8146C8.7077 16.6509 10.1619 18.1433 11.9754 19.05L16.0004 11L20.0254 19.05C21.8389 18.1433 23.2931 16.6509 24.1524 14.8146C25.0118 12.9782 25.2258 10.9055 24.76 8.9322C24.2942 6.95895 23.1757 5.2008 21.5859 3.94261C19.996 2.68442 18.0279 1.99991 16.0004 2Z" fill="#1C1C1E"/>
<path d="M7 29L16 11L25 29" stroke="#1C1C1E" stroke-width="2" stroke-linecap="round" stroke-linejoin="round"/>
<path d="M11.08 11.8967C10.9496 11.1764 10.9789 10.4362 11.1659 9.7284C11.353 9.02065 11.6931 8.36259 12.1624 7.80072C12.6317 7.23886 13.2186 6.78689 13.8817 6.47675C14.5448 6.16661 15.2679 6.00586 16 6.00586C16.7321 6.00586 17.4552 6.16661 18.1183 6.47675C18.7814 6.78689 19.3683 7.23886 19.8376 7.80072C20.3069 8.36259 20.647 9.02065 20.8341 9.7284C21.0211 10.4362 21.0504 11.1764 20.92 11.8967" stroke="#1C1C1E" stroke-width="2" stroke-linecap="round" stroke-linejoin="round"/>
<path d="M8.81625 16.4226C7.80802 15.0866 7.19228 13.496 7.03821 11.8294C6.88415 10.1628 7.19787 8.48628 7.94412 6.98815C8.69038 5.49002 9.8396 4.22966 11.2627 3.34867C12.6858 2.46769 14.3263 2.00098 16 2.00098C17.6737 2.00098 19.3143 2.46769 20.7373 3.34867C22.1604 4.22966 23.3096 5.49002 24.0559 6.98815C24.8021 8.48628 25.1159 10.1628 24.9618 11.8294C24.8077 13.496 24.192 15.0866 23.1838 16.4226" stroke="#1C1C1E" stroke-width="2" stroke-linecap="round" stroke-linejoin="round"/>
<path d="M9 25H23" stroke="#1C1C1E" stroke-width="2" stroke-linecap="round" stroke-linejoin="round"/>
<path d="M11 21H21" stroke="#1C1C1E" stroke-width="2" stroke-linecap="round" stroke-linejoin="round"/>
</svg>
