<svg width="32" height="32" viewBox="0 0 32 32" fill="none" xmlns="http://www.w3.org/2000/svg">
<path opacity="0.2" d="M21 19.7425C20.4377 19.2845 19.9716 18.7199 19.6283 18.0811C19.2851 17.4423 19.0716 16.7419 19.0001 16.0202C18.9286 15.2986 19.0006 14.5699 19.2118 13.8762C19.423 13.1825 19.7693 12.5373 20.2308 11.9779C20.6922 11.4186 21.2598 10.956 21.9008 10.6168C22.5417 10.2776 23.2434 10.0685 23.9655 10.0015C24.6876 9.93455 25.4158 10.011 26.1082 10.2266C26.8006 10.4422 27.4435 10.7925 28 11.2575V7C28 6.73478 27.8946 6.48043 27.7071 6.29289C27.5196 6.10536 27.2652 6 27 6H5C4.73478 6 4.48043 6.10536 4.29289 6.29289C4.10536 6.48043 4 6.73478 4 7V23C4 23.2652 4.10536 23.5196 4.29289 23.7071C4.48043 23.8946 4.73478 24 5 24H21V19.7425Z" fill="#1C1C1E"/>
<path d="M9 17H15" stroke="#1C1C1E" stroke-width="2" stroke-linecap="round" stroke-linejoin="round"/>
<path d="M9 13H15" stroke="#1C1C1E" stroke-width="2" stroke-linecap="round" stroke-linejoin="round"/>
<path d="M24.5 21C27.5376 21 30 18.5376 30 15.5C30 12.4624 27.5376 10 24.5 10C21.4624 10 19 12.4624 19 15.5C19 18.5376 21.4624 21 24.5 21Z" stroke="#1C1C1E" stroke-width="2" stroke-linecap="round" stroke-linejoin="round"/>
<path d="M21 24H5C4.73478 24 4.48043 23.8946 4.29289 23.7071C4.10536 23.5196 4 23.2652 4 23V7C4 6.73478 4.10536 6.48043 4.29289 6.29289C4.48043 6.10536 4.73478 6 5 6H27C27.2652 6 27.5196 6.10536 27.7071 6.29289C27.8946 6.48043 28 6.73478 28 7V11.2575" stroke="#1C1C1E" stroke-width="2" stroke-linecap="round" stroke-linejoin="round"/>
<path d="M21 19.7422V27.9997L24.5 25.9997L28 27.9997V19.7422" stroke="#1C1C1E" stroke-width="2" stroke-linecap="round" stroke-linejoin="round"/>
</svg>
