<svg width="32" height="32" viewBox="0 0 32 32" fill="none" xmlns="http://www.w3.org/2000/svg">
<path d="M16 17.5C16.8284 17.5 17.5 16.8284 17.5 16C17.5 15.1716 16.8284 14.5 16 14.5C15.1716 14.5 14.5 15.1716 14.5 16C14.5 16.8284 15.1716 17.5 16 17.5Z" fill="#1C1C1E"/>
<path d="M10.5 17.5C11.3284 17.5 12 16.8284 12 16C12 15.1716 11.3284 14.5 10.5 14.5C9.67157 14.5 9 15.1716 9 16C9 16.8284 9.67157 17.5 10.5 17.5Z" fill="#1C1C1E"/>
<path d="M21.5 17.5C22.3284 17.5 23 16.8284 23 16C23 15.1716 22.3284 14.5 21.5 14.5C20.6716 14.5 20 15.1716 20 16C20 16.8284 20.6716 17.5 21.5 17.5Z" fill="#1C1C1E"/>
<path opacity="0.2" d="M5.64375 28.7638C5.4981 28.8863 5.3205 28.9647 5.13183 28.9898C4.94315 29.0149 4.75124 28.9856 4.57862 28.9054C4.40601 28.8252 4.25987 28.6974 4.15738 28.537C4.05488 28.3766 4.00028 28.1903 4 28V8C4 7.73478 4.10536 7.48043 4.29289 7.29289C4.48043 7.10536 4.73478 7 5 7H27C27.2652 7 27.5196 7.10536 27.7071 7.29289C27.8946 7.48043 28 7.73478 28 8V24C28 24.2652 27.8946 24.5196 27.7071 24.7071C27.5196 24.8946 27.2652 25 27 25H10L5.64375 28.7638Z" fill="#1C1C1E"/>
<path d="M5.64375 28.7638C5.4981 28.8863 5.3205 28.9647 5.13183 28.9898C4.94315 29.0149 4.75124 28.9856 4.57862 28.9054C4.40601 28.8252 4.25987 28.6974 4.15738 28.537C4.05488 28.3766 4.00028 28.1903 4 28V8C4 7.73478 4.10536 7.48043 4.29289 7.29289C4.48043 7.10536 4.73478 7 5 7H27C27.2652 7 27.5196 7.10536 27.7071 7.29289C27.8946 7.48043 28 7.73478 28 8V24C28 24.2652 27.8946 24.5196 27.7071 24.7071C27.5196 24.8946 27.2652 25 27 25H10L5.64375 28.7638Z" stroke="#1C1C1E" stroke-width="2" stroke-linecap="round" stroke-linejoin="round"/>
</svg>
