<svg width="32" height="32" viewBox="0 0 32 32" fill="none" xmlns="http://www.w3.org/2000/svg">
<path opacity="0.2" d="M27.9378 23.2499C28.6527 21.9152 29.0194 20.4217 29.0038 18.9076C28.9882 17.3936 28.5908 15.9079 27.8485 14.5882C27.1062 13.2685 26.043 12.1574 24.7572 11.3578C23.4714 10.5582 22.0047 10.0959 20.4928 10.0137C20.9702 11.371 21.1152 12.8229 20.9158 14.2478C20.7163 15.6727 20.1781 17.029 19.3463 18.203C18.5145 19.377 17.4133 20.3344 16.1352 20.9951C14.857 21.6557 13.4391 22.0003 12.0003 21.9999C11.8353 21.9999 11.6716 21.9999 11.5078 21.9862C11.939 23.211 12.6299 24.3281 13.5332 25.2608C14.4365 26.1936 15.5308 26.9201 16.7411 27.3904C17.9515 27.8606 19.2492 28.0637 20.5453 27.9855C21.8414 27.9073 23.1053 27.5498 24.2503 26.9374L27.7203 27.9574C27.8926 28.008 28.0754 28.0113 28.2494 27.9669C28.4234 27.9225 28.5822 27.832 28.7092 27.705C28.8362 27.5781 28.9266 27.4192 28.971 27.2452C29.0154 27.0712 29.0122 26.8885 28.9616 26.7162L27.9378 23.2499Z" fill="#1C1C1E"/>
<path d="M4.06231 17.2502C3.04363 15.3471 2.74288 13.1413 3.21489 11.0349C3.6869 8.92859 4.90024 7.06205 6.63365 5.77566C8.36706 4.48928 10.5051 3.86875 12.6578 4.02723C14.8106 4.18571 16.8347 5.11263 18.361 6.63898C19.8874 8.16533 20.8143 10.1894 20.9728 12.3422C21.1313 14.495 20.5107 16.633 19.2244 18.3664C17.938 20.0998 16.0714 21.3131 13.9651 21.7851C11.8587 22.2571 9.65291 21.9564 7.74981 20.9377L4.27981 21.9577C4.10751 22.0083 3.92476 22.0116 3.75075 21.9672C3.57675 21.9228 3.41792 21.8323 3.29094 21.7053C3.16395 21.5784 3.07351 21.4195 3.0291 21.2455C2.98469 21.0715 2.98796 20.8888 3.03856 20.7165L4.06231 17.2502Z" stroke="#1C1C1E" stroke-width="2" stroke-linecap="round" stroke-linejoin="round"/>
<path d="M20.4928 10.0137C22.0047 10.0959 23.4714 10.5582 24.7572 11.3578C26.043 12.1574 27.1062 13.2685 27.8485 14.5882C28.5908 15.9079 28.9882 17.3936 29.0038 18.9076C29.0194 20.4217 28.6527 21.9152 27.9378 23.2499L28.9578 26.7199C29.0084 26.8922 29.0117 27.075 28.9673 27.249C28.9229 27.423 28.8324 27.5818 28.7054 27.7088C28.5785 27.8358 28.4196 27.9262 28.2456 27.9706C28.0716 28.015 27.8889 28.0118 27.7166 27.9612L24.2503 26.9374C23.1053 27.5498 21.8414 27.9073 20.5453 27.9855C19.2492 28.0637 17.9515 27.8606 16.7411 27.3904C15.5308 26.9201 14.4365 26.1936 13.5332 25.2608C12.6299 24.3281 11.939 23.211 11.5078 21.9862" stroke="#1C1C1E" stroke-width="2" stroke-linecap="round" stroke-linejoin="round"/>
</svg>
