<svg width="32" height="32" viewBox="0 0 32 32" fill="none" xmlns="http://www.w3.org/2000/svg">
<path opacity="0.2" d="M9.99109 26.3889C12.5118 27.8478 15.4769 28.3401 18.3338 27.7742C21.1907 27.2083 23.7443 25.6227 25.5184 23.3131C27.2926 21.0035 28.1663 18.1275 27.9766 15.2213C27.7869 12.3151 26.5467 9.57703 24.4873 7.51766C22.428 5.45829 19.6899 4.21814 16.7837 4.02843C13.8775 3.83872 11.0015 4.71239 8.69189 6.48656C6.38228 8.26073 4.7967 10.8143 4.23078 13.6712C3.66486 16.5281 4.15723 19.4932 5.61609 22.0139L4.05234 26.6827C3.99358 26.8589 3.98505 27.0479 4.02771 27.2287C4.07037 27.4095 4.16254 27.5748 4.29387 27.7061C4.42521 27.8375 4.59052 27.9296 4.77129 27.9723C4.95206 28.0149 5.14114 28.0064 5.31734 27.9477L9.99109 26.3889Z" fill="#1C1C1E"/>
<path d="M6 5L26 27" stroke="#1C1C1E" stroke-width="2" stroke-linecap="round" stroke-linejoin="round"/>
<path d="M26.5714 21.6827C27.7492 19.4964 28.2198 16.9986 27.9181 14.5336C27.6165 12.0686 26.5575 9.75791 24.8872 7.92017C23.2169 6.08243 21.0176 4.80815 18.5926 4.27308C16.1675 3.738 13.6362 3.96847 11.3477 4.93271" stroke="#1C1C1E" stroke-width="2" stroke-linecap="round" stroke-linejoin="round"/>
<path d="M7.92747 7.125C5.8991 8.96876 4.5631 11.4514 4.1417 14.1599C3.72029 16.8685 4.23889 19.6396 5.61122 22.0125L4.05247 26.6825C3.99371 26.8587 3.98519 27.0478 4.02785 27.2285C4.07051 27.4093 4.16267 27.5746 4.29401 27.706C4.42534 27.8373 4.59066 27.9295 4.77143 27.9721C4.9522 28.0148 5.14128 28.0063 5.31747 27.9475L9.99122 26.3888C12.1954 27.6628 14.7477 28.2028 17.279 27.9307C19.8103 27.6585 22.1894 26.5884 24.0725 24.875" stroke="#1C1C1E" stroke-width="2" stroke-linecap="round" stroke-linejoin="round"/>
</svg>
