<svg width="32" height="32" viewBox="0 0 32 32" fill="none" xmlns="http://www.w3.org/2000/svg">
<path opacity="0.2" d="M16.5 27H6C5.73478 27 5.48043 26.8946 5.29289 26.7071C5.10536 26.5196 5 26.2652 5 26V15.5C5 12.45 6.2116 9.52494 8.36827 7.36827C10.5249 5.2116 13.45 4 16.5 4C18.0102 4 19.5056 4.29746 20.9009 4.87539C22.2961 5.45331 23.5639 6.3004 24.6317 7.36827C25.6996 8.43615 26.5467 9.7039 27.1246 11.0991C27.7025 12.4944 28 13.9898 28 15.5C28 17.0102 27.7025 18.5056 27.1246 19.9009C26.5467 21.2961 25.6996 22.5639 24.6317 23.6317C23.5639 24.6996 22.2961 25.5467 20.9009 26.1246C19.5056 26.7025 18.0102 27 16.5 27Z" fill="#1C1C1E"/>
<path d="M6 5L26 27" stroke="#1C1C1E" stroke-width="2" stroke-linecap="round" stroke-linejoin="round"/>
<path d="M23.6988 24.4689C21.6592 26.111 19.1184 27.0044 16.5 27.0002H6.00001C5.73479 27.0002 5.48044 26.8948 5.2929 26.7073C5.10537 26.5198 5.00001 26.2654 5.00001 26.0002V15.5002C4.99614 12.5045 6.16492 9.6263 8.25626 7.48145" stroke="#1C1C1E" stroke-width="2" stroke-linecap="round" stroke-linejoin="round"/>
<path d="M11.5234 5.12504C13.0764 4.38027 14.7774 3.99571 16.4997 4.00004C18.0099 4.00004 19.5053 4.29749 20.9005 4.87542C22.2958 5.45335 23.5635 6.30043 24.6314 7.36831C25.6993 8.43618 26.5464 9.70393 27.1243 11.0992C27.7022 12.4944 27.9997 13.9898 27.9997 15.5C28.003 17.5932 27.4323 19.6473 26.3497 21.4388" stroke="#1C1C1E" stroke-width="2" stroke-linecap="round" stroke-linejoin="round"/>
</svg>
