<svg width="32" height="32" viewBox="0 0 32 32" fill="none" xmlns="http://www.w3.org/2000/svg">
<path opacity="0.2" d="M23 5L3 11V14H4C4.78579 13.9999 5.54026 14.308 6.10125 14.8583C6.66223 15.4085 6.98494 16.1569 7 16.9425C7.03125 18.625 5.61375 20 3.9325 20H3V24H10V23C10 21.9391 10.4214 20.9217 11.1716 20.1716C11.9217 19.4214 12.9391 19 14 19C15.0609 19 16.0783 19.4214 16.8284 20.1716C17.5786 20.9217 18 21.9391 18 23V24H28C28.2652 24 28.5196 23.8946 28.7071 23.7071C28.8946 23.5196 29 23.2652 29 23V11C29 9.4087 28.3679 7.88258 27.2426 6.75736C26.1174 5.63214 24.5913 5 23 5ZM21 17C20.2978 17.0002 19.6079 16.8154 18.9997 16.4644C18.3915 16.1134 17.8864 15.6085 17.5352 15.0004C17.184 14.3923 16.9991 13.7024 16.9991 13.0002C16.9991 12.298 17.1839 11.6081 17.535 11H24.465C24.8161 11.6081 25.0009 12.298 25.0009 13.0002C25.0009 13.7024 24.816 14.3923 24.4648 15.0004C24.1136 15.6085 23.6085 16.1134 23.0003 16.4644C22.3921 16.8154 21.7022 17.0002 21 17Z" fill="#1C1C1E"/>
<path d="M3 20H3.9325C5.61375 20 7.03125 18.625 7 16.9425C6.98494 16.1569 6.66223 15.4085 6.10125 14.8583C5.54026 14.308 4.78579 13.9999 4 14H3V11H29V23C29 23.2652 28.8946 23.5196 28.7071 23.7071C28.5196 23.8946 28.2652 24 28 24H3V20Z" stroke="#1C1C1E" stroke-width="2" stroke-linecap="round" stroke-linejoin="round"/>
<path d="M3 11L23 5C24.5913 5 26.1174 5.63214 27.2426 6.75736C28.3679 7.88258 29 9.4087 29 11" stroke="#1C1C1E" stroke-width="2" stroke-linecap="round" stroke-linejoin="round"/>
<path d="M10 24V23C10 21.9391 10.4214 20.9217 11.1716 20.1716C11.9217 19.4214 12.9391 19 14 19C15.0609 19 16.0783 19.4214 16.8284 20.1716C17.5786 20.9217 18 21.9391 18 23V24" stroke="#1C1C1E" stroke-width="2" stroke-linecap="round" stroke-linejoin="round"/>
<path d="M24.465 11C24.8157 11.6081 25.0002 12.2978 25 12.9998C24.9998 13.7018 24.8148 14.3914 24.4637 14.9992C24.1125 15.6071 23.6076 16.1118 22.9996 16.4628C22.3916 16.8137 21.702 16.9984 21 16.9984C20.298 16.9984 19.6084 16.8137 19.0004 16.4628C18.3924 16.1118 17.8875 15.6071 17.5363 14.9992C17.1852 14.3914 17.0002 13.7018 17 12.9998C16.9998 12.2978 17.1843 11.6081 17.535 11" stroke="#1C1C1E" stroke-width="2" stroke-linecap="round" stroke-linejoin="round"/>
</svg>
