<svg width="32" height="32" viewBox="0 0 32 32" fill="none" xmlns="http://www.w3.org/2000/svg">
<path opacity="0.2" d="M9.40333 7.85156C8.47628 9.82125 7.71814 11.8661 7.13708 13.9641C6.999 14.4721 6.96258 15.0025 7.02992 15.5247C7.09726 16.0469 7.26702 16.5506 7.52948 17.007C7.79194 17.4635 8.14193 17.8636 8.55937 18.1845C8.97681 18.5053 9.45349 18.7406 9.96206 18.8769C10.4706 19.0131 11.0011 19.0476 11.5231 18.9784C12.045 18.9091 12.5481 18.7375 13.0036 18.4734C13.4591 18.2093 13.8579 17.8579 14.1773 17.4393C14.4966 17.0207 14.7302 16.5431 14.8646 16.0341C15.3728 13.8751 15.7072 11.6789 15.8646 9.46656L9.40333 7.85156Z" fill="#1C1C1E"/>
<path opacity="0.2" d="M22.4927 10.625C23.4671 12.664 24.2618 14.7841 24.8677 16.9613C25.0057 17.4693 25.0422 17.9997 24.9748 18.5219C24.9075 19.044 24.7377 19.5478 24.4753 20.0042C24.2128 20.4607 23.8628 20.8608 23.4454 21.1817C23.0279 21.5025 22.5512 21.7378 22.0427 21.8741C21.5341 22.0103 21.0036 22.0448 20.4817 21.9755C19.9597 21.9063 19.4566 21.7347 19.0011 21.4706C18.5457 21.2065 18.1468 20.8551 17.8275 20.4365C17.5081 20.0179 17.2745 19.5403 17.1402 19.0312C16.5152 16.6912 16.2077 14.2812 16.0664 12.2325L22.4927 10.625Z" fill="#1C1C1E"/>
<path d="M16.0003 7L20.0003 6C20.0003 6 23.3103 11.1688 24.8628 16.9638C25.0009 17.4718 25.0373 18.0022 24.9699 18.5244C24.9026 19.0465 24.7328 19.5503 24.4704 20.0067C24.2079 20.4632 23.8579 20.8633 23.4405 21.1842C23.0231 21.505 22.5464 21.7403 22.0378 21.8766C21.5292 22.0128 20.9988 22.0473 20.4768 21.978C19.9549 21.9088 19.4517 21.7372 18.9963 21.4731C18.5408 21.209 18.1419 20.8576 17.8226 20.439C17.5032 20.0203 17.2697 19.5428 17.1353 19.0338C15.5828 13.2388 16.0003 7 16.0003 7Z" stroke="#1C1C1E" stroke-width="2" stroke-linecap="round" stroke-linejoin="round"/>
<path d="M22.0342 21.8623L23.8292 28.5586" stroke="#1C1C1E" stroke-width="2" stroke-linecap="round" stroke-linejoin="round"/>
<path d="M27 27.709L21 29.3165" stroke="#1C1C1E" stroke-width="2" stroke-linecap="round" stroke-linejoin="round"/>
<path d="M15.9996 4L11.9996 3C11.9996 3 8.68958 8.16875 7.13708 13.9637C6.999 14.4718 6.96258 15.0022 7.02992 15.5244C7.09726 16.0465 7.26702 16.5503 7.52948 17.0067C7.79194 17.4632 8.14193 17.8633 8.55937 18.1842C8.97681 18.505 9.45349 18.7403 9.96206 18.8766C10.4706 19.0128 11.0011 19.0473 11.5231 18.978C12.045 18.9088 12.5481 18.7372 13.0036 18.4731C13.4591 18.209 13.8579 17.8576 14.1773 17.439C14.4966 17.0203 14.7302 16.5428 14.8646 16.0338C16.2858 10.225 15.9996 4 15.9996 4Z" stroke="#1C1C1E" stroke-width="2" stroke-linecap="round" stroke-linejoin="round"/>
<path d="M9.9659 18.8623L8.1709 25.5586" stroke="#1C1C1E" stroke-width="2" stroke-linecap="round" stroke-linejoin="round"/>
<path d="M5 24.709L11 26.3165" stroke="#1C1C1E" stroke-width="2" stroke-linecap="round" stroke-linejoin="round"/>
<path d="M16.0615 12.235L22.4928 10.625" stroke="#1C1C1E" stroke-width="2" stroke-linecap="round" stroke-linejoin="round"/>
<path d="M15.8646 9.46656L9.40332 7.85156" stroke="#1C1C1E" stroke-width="2" stroke-linecap="round" stroke-linejoin="round"/>
<path d="M24 5L26 4" stroke="#1C1C1E" stroke-width="2" stroke-linecap="round" stroke-linejoin="round"/>
<path d="M26 9H28" stroke="#1C1C1E" stroke-width="2" stroke-linecap="round" stroke-linejoin="round"/>
<path d="M7 4L5 3" stroke="#1C1C1E" stroke-width="2" stroke-linecap="round" stroke-linejoin="round"/>
<path d="M5 8H3" stroke="#1C1C1E" stroke-width="2" stroke-linecap="round" stroke-linejoin="round"/>
</svg>
