<svg width="32" height="32" viewBox="0 0 32 32" fill="none" xmlns="http://www.w3.org/2000/svg">
<path opacity="0.2" d="M22.0005 10C20.7224 9.99979 19.4629 10.3062 18.3278 10.8934C17.1926 11.4807 16.2149 12.3317 15.4767 13.375C14.172 12.4929 12.636 12.0156 11.0611 12.0028C9.48625 11.99 7.94266 12.4423 6.62378 13.3031C5.3049 14.1638 4.26942 15.3947 3.64712 16.8414C3.02482 18.2882 2.84338 19.8864 3.12554 21.4358C3.40771 22.9853 4.14093 24.4169 5.2333 25.5514C6.32567 26.6859 7.7286 27.4727 9.26625 27.8133C10.8039 28.1538 12.4079 28.0329 13.8771 27.4658C15.3463 26.8986 16.6155 25.9104 17.5255 24.625V24.6338C18.5623 25.3326 19.7486 25.7787 20.9891 25.9363C22.2295 26.0938 23.4897 25.9583 24.6683 25.5408C25.8469 25.1232 26.9113 24.4352 27.776 23.5319C28.6406 22.6286 29.2815 21.5352 29.6472 20.3395C30.0128 19.1437 30.0931 17.8789 29.8815 16.6465C29.67 15.4141 29.1725 14.2484 28.4289 13.2431C27.6854 12.2377 26.7166 11.4207 25.6002 10.8574C24.4838 10.2942 23.2509 10.0006 22.0005 10Z" fill="#1C1C1E"/>
<path d="M11 28C15.4183 28 19 24.4183 19 20C19 15.5817 15.4183 12 11 12C6.58172 12 3 15.5817 3 20C3 24.4183 6.58172 28 11 28Z" stroke="#1C1C1E" stroke-width="2" stroke-linecap="round" stroke-linejoin="round"/>
<path d="M14 17C14 17 13 18 11 18C9 18 8 17 8 17" stroke="#1C1C1E" stroke-width="2" stroke-linecap="round" stroke-linejoin="round"/>
<path d="M25 15C25 15 24 16 22 16C20 16 19 15 19 15" stroke="#1C1C1E" stroke-width="2" stroke-linecap="round" stroke-linejoin="round"/>
<path d="M22 16.0001C21 2.00013 7 4.00013 7 4.00013C13 8.00013 11 18.0001 11 18.0001" stroke="#1C1C1E" stroke-width="2" stroke-linecap="round" stroke-linejoin="round"/>
<path d="M15.4766 13.3754C16.3878 12.092 17.6574 11.1059 19.1263 10.5406C20.5953 9.97531 22.1984 9.85589 23.7349 10.1973C25.2714 10.5387 26.673 11.3258 27.7643 12.46C28.8557 13.5942 29.5882 15.0252 29.8701 16.5737C30.1521 18.1222 29.971 19.7195 29.3495 21.1656C28.7281 22.6117 27.6938 23.8423 26.3763 24.7034C25.0588 25.5645 23.5165 26.0179 21.9425 26.0066C20.3686 25.9954 18.8329 25.5202 17.5278 24.6404" stroke="#1C1C1E" stroke-width="2" stroke-linecap="round" stroke-linejoin="round"/>
</svg>
