<svg width="32" height="32" viewBox="0 0 32 32" fill="none" xmlns="http://www.w3.org/2000/svg">
<path opacity="0.2" d="M23 16L28 19V27H23V16Z" fill="#1C1C1E"/>
<path opacity="0.2" d="M9 16L4 19V27H9V16Z" fill="#1C1C1E"/>
<path d="M9 27H14V21C14 20.4696 14.2107 19.9609 14.5858 19.5858C14.9609 19.2107 15.4696 19 16 19C16.5304 19 17.0391 19.2107 17.4142 19.5858C17.7893 19.9609 18 20.4696 18 21V27H23V13L16 9L9 13V27Z" stroke="#1C1C1E" stroke-width="2" stroke-linecap="round" stroke-linejoin="round"/>
<path d="M16 9V2" stroke="#1C1C1E" stroke-width="2" stroke-linecap="round" stroke-linejoin="round"/>
<path d="M13 5H19" stroke="#1C1C1E" stroke-width="2" stroke-linecap="round" stroke-linejoin="round"/>
<path d="M23 16L28 19V27H23" stroke="#1C1C1E" stroke-width="2" stroke-linecap="round" stroke-linejoin="round"/>
<path d="M9 16L4 19V27H9" stroke="#1C1C1E" stroke-width="2" stroke-linecap="round" stroke-linejoin="round"/>
</svg>
