<svg width="32" height="32" viewBox="0 0 32 32" fill="none" xmlns="http://www.w3.org/2000/svg">
<path opacity="0.2" d="M16 28C22.6274 28 28 22.6274 28 16C28 9.37258 22.6274 4 16 4C9.37258 4 4 9.37258 4 16C4 22.6274 9.37258 28 16 28Z" fill="#1C1C1E"/>
<path d="M21 5C23.0934 5.97633 24.8643 7.53029 26.1044 9.47902C27.3445 11.4277 28.0022 13.6902 28 16C28 19.1826 26.7357 22.2348 24.4853 24.4853C22.2349 26.7357 19.1826 28 16 28C12.8174 28 9.76516 26.7357 7.51472 24.4853C5.26429 22.2348 4.00001 19.1826 4.00001 16C3.99784 13.6902 4.6555 11.4277 5.8956 9.47902C7.13571 7.53029 8.90664 5.97633 11 5" stroke="#1C1C1E" stroke-width="2" stroke-linecap="round" stroke-linejoin="round"/>
</svg>
