<svg width="32" height="32" viewBox="0 0 32 32" fill="none" xmlns="http://www.w3.org/2000/svg">
<path opacity="0.2" d="M26 5H6C5.73478 5 5.48043 5.10536 5.29289 5.29289C5.10536 5.48043 5 5.73478 5 6V26C5 26.2652 5.10536 26.5196 5.29289 26.7071C5.48043 26.8946 5.73478 27 6 27H26C26.2652 27 26.5196 26.8946 26.7071 26.7071C26.8946 26.5196 27 26.2652 27 26V6C27 5.73478 26.8946 5.48043 26.7071 5.29289C26.5196 5.10536 26.2652 5 26 5ZM11 23C10.6044 23 10.2178 22.8827 9.88886 22.6629C9.55996 22.4432 9.30362 22.1308 9.15224 21.7654C9.00087 21.3999 8.96126 20.9978 9.03843 20.6098C9.1156 20.2219 9.30608 19.8655 9.58579 19.5858C9.86549 19.3061 10.2219 19.1156 10.6098 19.0384C10.9978 18.9613 11.3999 19.0009 11.7654 19.1522C12.1308 19.3036 12.4432 19.56 12.6629 19.8889C12.8827 20.2178 13 20.6044 13 21C13 21.5304 12.7893 22.0391 12.4142 22.4142C12.0391 22.7893 11.5304 23 11 23ZM21 15C20.6044 15 20.2178 14.8827 19.8889 14.6629C19.56 14.4432 19.3036 14.1308 19.1522 13.7654C19.0009 13.3999 18.9613 12.9978 19.0384 12.6098C19.1156 12.2219 19.3061 11.8655 19.5858 11.5858C19.8655 11.3061 20.2219 11.1156 20.6098 11.0384C20.9978 10.9613 21.3999 11.0009 21.7654 11.1522C22.1308 11.3036 22.4432 11.56 22.6629 11.8889C22.8827 12.2178 23 12.6044 23 13C23 13.5304 22.7893 14.0391 22.4142 14.4142C22.0391 14.7893 21.5304 15 21 15Z" fill="#1C1C1E"/>
<path d="M21 15C22.1046 15 23 14.1046 23 13C23 11.8954 22.1046 11 21 11C19.8954 11 19 11.8954 19 13C19 14.1046 19.8954 15 21 15Z" stroke="#1C1C1E" stroke-width="2" stroke-linecap="round" stroke-linejoin="round"/>
<path d="M11 23C12.1046 23 13 22.1046 13 21C13 19.8954 12.1046 19 11 19C9.89543 19 9 19.8954 9 21C9 22.1046 9.89543 23 11 23Z" stroke="#1C1C1E" stroke-width="2" stroke-linecap="round" stroke-linejoin="round"/>
<path d="M19 27V20L11 12V5" stroke="#1C1C1E" stroke-width="2" stroke-linecap="round" stroke-linejoin="round"/>
<path d="M11 19V12" stroke="#1C1C1E" stroke-width="2" stroke-linecap="round" stroke-linejoin="round"/>
<path d="M26 5H6C5.44772 5 5 5.44772 5 6V26C5 26.5523 5.44772 27 6 27H26C26.5523 27 27 26.5523 27 26V6C27 5.44772 26.5523 5 26 5Z" stroke="#1C1C1E" stroke-width="2" stroke-linecap="round" stroke-linejoin="round"/>
<path d="M17 5V9L19.5863 11.5863" stroke="#1C1C1E" stroke-width="2" stroke-linecap="round" stroke-linejoin="round"/>
</svg>
