<svg width="32" height="32" viewBox="0 0 32 32" fill="none" xmlns="http://www.w3.org/2000/svg">
<path opacity="0.2" d="M23.9355 24.9995C23.3837 24.9879 22.8458 24.8242 22.381 24.5265C21.9163 24.2289 21.5426 23.8088 21.3012 23.3125C21.0598 22.8162 20.9599 22.2629 21.0127 21.7135C21.0654 21.1641 21.2687 20.6399 21.6001 20.1986C21.9316 19.7573 22.3783 19.416 22.8913 19.2122C23.4042 19.0084 23.9634 18.9501 24.5073 19.0436C25.0512 19.1371 25.5588 19.3789 25.9742 19.7423C26.3896 20.1057 26.6967 20.5766 26.8617 21.1033C28.0465 18.5806 28.3163 15.7243 27.6247 13.0244C26.9332 10.3245 25.3235 7.94958 23.0718 6.30714C20.8202 4.66471 18.0671 3.85722 15.285 4.02328C12.5029 4.18935 9.86544 5.3186 7.82517 7.21722C5.7849 9.11584 4.46911 11.6654 4.10364 14.4284C3.73818 17.1913 4.34582 19.9953 5.82228 22.3591C7.29874 24.7229 9.55194 26.4991 12.1952 27.3828C14.8384 28.2665 17.7067 28.2026 20.308 27.202C20.6579 26.542 21.1798 25.9889 21.8184 25.6012C22.4569 25.2134 23.1884 25.0056 23.9355 24.9995Z" fill="#1C1C1E"/>
<path d="M22 13L16 16V9" stroke="#1C1C1E" stroke-width="2" stroke-linecap="round" stroke-linejoin="round"/>
<path d="M16 28C13.6266 28 11.3066 27.2962 9.33316 25.9776C7.35977 24.6591 5.8217 22.7849 4.91345 20.5922C4.0052 18.3995 3.76756 15.9867 4.23058 13.6589C4.6936 11.3312 5.83649 9.19295 7.51472 7.51472C9.19295 5.83649 11.3312 4.6936 13.6589 4.23058C15.9867 3.76756 18.3995 4.0052 20.5922 4.91345C22.7849 5.8217 24.6591 7.35977 25.9776 9.33316C27.2962 11.3066 28 13.6266 28 16" stroke="#1C1C1E" stroke-width="2" stroke-linecap="round" stroke-linejoin="round"/>
<path d="M20 28C20.4588 26.275 22.075 25 24 25C25.925 25 27.5412 26.275 28 28" stroke="#1C1C1E" stroke-width="2" stroke-linecap="round" stroke-linejoin="round"/>
<path d="M24 25C25.6569 25 27 23.6569 27 22C27 20.3431 25.6569 19 24 19C22.3431 19 21 20.3431 21 22C21 23.6569 22.3431 25 24 25Z" stroke="#1C1C1E" stroke-width="2" stroke-linecap="round" stroke-linejoin="round"/>
</svg>
