<svg width="32" height="32" viewBox="0 0 32 32" fill="none" xmlns="http://www.w3.org/2000/svg">
<path opacity="0.2" d="M13.2884 16.2975C13.6612 14.9127 14.3776 13.6445 15.3712 12.6105C16.3648 11.5765 17.6034 10.8101 18.9721 10.3825H18.9909C18.9909 10.2575 18.9996 10.1325 18.9996 10.0075C19.0001 8.19782 18.387 6.44148 17.2605 5.02525C16.1339 3.60901 14.5605 2.61656 12.7971 2.20996C13.0988 3.53143 13.0601 4.90785 12.6847 6.21028C12.3092 7.5127 11.6093 8.6985 10.6505 9.65659C9.69162 10.6147 8.50527 11.3137 7.20255 11.6881C5.89983 12.0626 4.52338 12.1002 3.20215 11.7975C3.487 13.0282 4.05875 14.1742 4.87077 15.142C5.68278 16.1098 6.71206 16.8719 7.87465 17.3662C8.60379 16.7276 9.48848 16.2927 10.4394 16.1052C11.3904 15.9178 12.374 15.9845 13.2909 16.2987L13.2884 16.2975Z" fill="#1C1C1E"/>
<path d="M7.87465 17.3659C6.71206 16.8716 5.68278 16.1095 4.87077 15.1417C4.05875 14.1739 3.487 13.0279 3.20215 11.7971C4.52413 12.1004 5.90147 12.0628 7.20497 11.688C8.50847 11.3133 9.69542 10.6135 10.6545 9.65448C11.6135 8.69542 12.3133 7.50847 12.688 6.20497C13.0628 4.90147 13.1004 3.52413 12.7971 2.20215C14.5605 2.60875 16.1339 3.6012 17.2605 5.01743C18.387 6.43367 19.0001 8.19001 18.9996 9.99965C18.9996 10.1246 18.9996 10.2496 18.9909 10.3746" stroke="#1C1C1E" stroke-width="2" stroke-linecap="round" stroke-linejoin="round"/>
<path d="M13.0006 18.0004C13.0968 16.3418 13.6764 14.7477 14.6681 13.4147C15.6598 12.0818 17.02 11.0684 18.581 10.4996C20.1419 9.93073 21.8352 9.83138 23.452 10.2138C25.0687 10.5962 26.5382 11.4436 27.6789 12.6514C28.8196 13.8592 29.5817 15.3746 29.8712 17.0106C30.1607 18.6465 29.9648 20.3314 29.3078 21.8573C28.6507 23.3833 27.5613 24.6834 26.1739 25.5974C24.7866 26.5113 23.1619 26.999 21.5006 27.0004H11.5006C10.7027 26.9996 9.91445 26.8252 9.19066 26.4893C8.46687 26.1534 7.82483 25.6641 7.30909 25.0552C6.79336 24.4464 6.41628 23.7326 6.20402 22.9634C5.99177 22.1942 5.94941 21.3881 6.07991 20.6009C6.2104 19.8137 6.51061 19.0643 6.95971 18.4048C7.40881 17.7452 7.99604 17.1913 8.68065 16.7814C9.36526 16.3716 10.1309 16.1156 10.9243 16.0312C11.7178 15.9468 12.5201 16.0361 13.2756 16.2929" stroke="#1C1C1E" stroke-width="2" stroke-linecap="round" stroke-linejoin="round"/>
</svg>
