<svg width="32" height="32" viewBox="0 0 32 32" fill="none" xmlns="http://www.w3.org/2000/svg">
<path opacity="0.2" d="M9.99987 15.9525C9.99987 13.9747 10.5864 12.0413 11.6852 10.3968C12.784 8.75233 14.3458 7.4706 16.173 6.71372C18.0003 5.95685 20.011 5.75881 21.9508 6.14467C23.8906 6.53052 25.6724 7.48293 27.0709 8.88145C28.4695 10.28 29.4219 12.0618 29.8077 14.0016C30.1936 15.9414 29.9955 17.9521 29.2387 19.7794C28.4818 21.6066 27.2001 23.1684 25.5556 24.2672C23.9111 25.366 21.9777 25.9525 19.9999 25.9525H8.99987C8.00738 25.9511 7.02652 25.7387 6.12239 25.3293C5.21826 24.9199 4.41152 24.3229 3.7557 23.578C3.09988 22.833 2.60997 21.9571 2.31848 21.0084C2.02698 20.0597 1.94057 19.0598 2.06497 18.0751C2.18937 17.0905 2.52174 16.1435 3.04003 15.2971C3.55832 14.4507 4.25068 13.7241 5.07116 13.1657C5.89165 12.6073 6.82151 12.2297 7.79905 12.058C8.77659 11.8864 9.77946 11.9245 10.7411 12.17" fill="#1C1C1E"/>
<path d="M10.0002 16C10.0002 14.0222 10.5866 12.0888 11.6855 10.4443C12.7843 8.79981 14.3461 7.51809 16.1733 6.76121C18.0006 6.00433 20.0112 5.8063 21.9511 6.19215C23.8909 6.578 25.6727 7.53041 27.0712 8.92894C28.4697 10.3275 29.4222 12.1093 29.808 14.0491C30.1939 15.9889 29.9958 17.9996 29.239 19.8268C28.4821 21.6541 27.2003 23.2159 25.5559 24.3147C23.9114 25.4135 21.978 26 20.0002 26H9.00015C8.0076 25.9988 7.02666 25.7865 6.12242 25.3772C5.21817 24.968 4.4113 24.3711 3.75535 23.6262C3.09939 22.8813 2.60934 22.0054 2.31773 21.0566C2.02611 20.1079 1.9396 19.108 2.06392 18.1232C2.18824 17.1385 2.52055 16.1915 3.03881 15.345C3.55707 14.4985 4.24942 13.7719 5.06993 13.2134C5.89044 12.6549 6.82034 12.2772 7.79793 12.1055C8.77552 11.9338 9.77844 11.972 10.7402 12.2175" stroke="#1C1C1E" stroke-width="2" stroke-linecap="round" stroke-linejoin="round"/>
<path d="M20 16V11" stroke="#1C1C1E" stroke-width="2" stroke-linecap="round" stroke-linejoin="round"/>
<path d="M20 22C20.8284 22 21.5 21.3284 21.5 20.5C21.5 19.6716 20.8284 19 20 19C19.1716 19 18.5 19.6716 18.5 20.5C18.5 21.3284 19.1716 22 20 22Z" fill="#1C1C1E"/>
</svg>
