<svg width="32" height="32" viewBox="0 0 32 32" fill="none" xmlns="http://www.w3.org/2000/svg">
<path opacity="0.2" d="M19.9997 6C18.0114 5.99993 16.0682 6.5926 14.4183 7.70231C12.7684 8.81201 11.4868 10.3884 10.7372 12.23V12.2175C9.77542 11.972 8.77238 11.9338 7.7947 12.1056C6.81701 12.2773 5.88704 12.6551 5.06649 13.2137C4.24594 13.7723 3.55359 14.4991 3.03539 15.3458C2.51719 16.1924 2.18499 17.1396 2.06083 18.1245C1.93667 19.1093 2.0234 20.1093 2.31526 21.0581C2.60712 22.0069 3.09743 22.8828 3.75366 23.6276C4.40988 24.3724 5.21702 24.9691 6.12149 25.3781C7.02596 25.7871 8.00708 25.9991 8.99973 26H19.9997C22.6519 26 25.1954 24.9464 27.0708 23.0711C28.9462 21.1957 29.9997 18.6522 29.9997 16C29.9997 13.3478 28.9462 10.8043 27.0708 8.92893C25.1954 7.05357 22.6519 6 19.9997 6Z" fill="#1C1C1E"/>
<path d="M10.0002 16C10.0002 14.0222 10.5866 12.0888 11.6855 10.4443C12.7843 8.79981 14.3461 7.51809 16.1733 6.76121C18.0006 6.00433 20.0112 5.8063 21.9511 6.19215C23.8909 6.578 25.6727 7.53041 27.0712 8.92894C28.4697 10.3275 29.4222 12.1093 29.808 14.0491C30.1939 15.9889 29.9958 17.9996 29.239 19.8268C28.4821 21.6541 27.2003 23.2159 25.5559 24.3147C23.9114 25.4135 21.978 26 20.0002 26H9.00015C8.0076 25.9988 7.02666 25.7865 6.12242 25.3772C5.21817 24.968 4.4113 24.3711 3.75535 23.6262C3.09939 22.8813 2.60934 22.0054 2.31773 21.0566C2.02611 20.1079 1.9396 19.108 2.06392 18.1232C2.18824 17.1385 2.52055 16.1915 3.03881 15.345C3.55707 14.4985 4.24942 13.7719 5.06993 13.2134C5.89044 12.6549 6.82034 12.2772 7.79793 12.1055C8.77552 11.9338 9.77844 11.972 10.7402 12.2175" stroke="#1C1C1E" stroke-width="2" stroke-linecap="round" stroke-linejoin="round"/>
<path d="M15 17L18 20L24 14" stroke="#1C1C1E" stroke-width="2" stroke-linecap="round" stroke-linejoin="round"/>
</svg>
