<svg width="32" height="32" viewBox="0 0 32 32" fill="none" xmlns="http://www.w3.org/2000/svg">
<path opacity="0.2" d="M19.4999 4C17.6261 4.00025 15.8046 4.61823 14.3175 5.75826C12.8303 6.89829 11.7605 8.49678 11.2736 10.3062V10.2925C10.5181 10.0357 9.71572 9.94645 8.92221 10.0308C8.12871 10.1152 7.36307 10.3713 6.67843 10.7812C5.9938 11.1912 5.40657 11.7452 4.9575 12.4048C4.50842 13.0644 4.20826 13.8139 4.07785 14.6011C3.94744 15.3884 3.9899 16.1946 4.20228 16.9638C4.41466 17.733 4.79187 18.4468 5.30775 19.0556C5.82362 19.6644 6.46579 20.1537 7.1897 20.4894C7.9136 20.8252 8.7019 20.9994 9.49988 21H19.4999C21.7542 21 23.9162 20.1045 25.5103 18.5104C27.1043 16.9163 27.9999 14.7543 27.9999 12.5C27.9999 10.2457 27.1043 8.08365 25.5103 6.48959C23.9162 4.89553 21.7542 4 19.4999 4Z" fill="#1C1C1E"/>
<path d="M15 25H9" stroke="#1C1C1E" stroke-width="2" stroke-linecap="round" stroke-linejoin="round"/>
<path d="M23 25H20" stroke="#1C1C1E" stroke-width="2" stroke-linecap="round" stroke-linejoin="round"/>
<path d="M20 29H13" stroke="#1C1C1E" stroke-width="2" stroke-linecap="round" stroke-linejoin="round"/>
<path d="M11.0006 12.0003C11.0968 10.3418 11.6764 8.74766 12.6681 7.41473C13.6598 6.08179 15.02 5.06838 16.581 4.49955C18.1419 3.93073 19.8352 3.83138 21.452 4.21378C23.0687 4.59617 24.5382 5.44357 25.6789 6.6514C26.8196 7.85923 27.5817 9.37463 27.8712 11.0106C28.1607 12.6465 27.9648 14.3314 27.3078 15.8573C26.6507 17.3833 25.5613 18.6834 24.1739 19.5974C22.7866 20.5113 21.1619 20.999 19.5006 21.0004H9.50058C8.70265 20.9996 7.91445 20.8252 7.19066 20.4893C6.46687 20.1534 5.82483 19.6641 5.30909 19.0552C4.79336 18.4464 4.41628 17.7326 4.20402 16.9634C3.99177 16.1942 3.94941 15.3881 4.07991 14.6009C4.2104 13.8137 4.51061 13.0643 4.95971 12.4048C5.40881 11.7452 5.99604 11.1913 6.68065 10.7814C7.36526 10.3716 8.13086 10.1156 8.92432 10.0312C9.71777 9.94681 10.5201 10.0361 11.2756 10.2929" stroke="#1C1C1E" stroke-width="2" stroke-linecap="round" stroke-linejoin="round"/>
</svg>
