<svg width="32" height="32" viewBox="0 0 32 32" fill="none" xmlns="http://www.w3.org/2000/svg">
<path opacity="0.2" d="M11 26L11 6C11 5.44772 10.5523 5 10 5H7C6.44772 5 6 5.44772 6 6L6 26C6 26.5523 6.44772 27 7 27H10C10.5523 27 11 26.5523 11 26Z" fill="#1C1C1E"/>
<path opacity="0.2" d="M20 26V6C20 5.44772 19.5523 5 19 5H16C15.4477 5 15 5.44772 15 6V26C15 26.5523 15.4477 27 16 27H19C19.5523 27 20 26.5523 20 26Z" fill="#1C1C1E"/>
<path d="M11 26L11 6C11 5.44772 10.5523 5 10 5H7C6.44772 5 6 5.44772 6 6L6 26C6 26.5523 6.44772 27 7 27H10C10.5523 27 11 26.5523 11 26Z" stroke="#1C1C1E" stroke-width="2" stroke-linecap="round" stroke-linejoin="round"/>
<path d="M20 26V6C20 5.44772 19.5523 5 19 5H16C15.4477 5 15 5.44772 15 6V26C15 26.5523 15.4477 27 16 27H19C19.5523 27 20 26.5523 20 26Z" stroke="#1C1C1E" stroke-width="2" stroke-linecap="round" stroke-linejoin="round"/>
<path d="M24 16H30" stroke="#1C1C1E" stroke-width="2" stroke-linecap="round" stroke-linejoin="round"/>
<path d="M27 13V19" stroke="#1C1C1E" stroke-width="2" stroke-linecap="round" stroke-linejoin="round"/>
</svg>
