<svg width="32" height="32" viewBox="0 0 32 32" fill="none" xmlns="http://www.w3.org/2000/svg">
<path opacity="0.2" d="M12.6383 24.6388L7.36082 19.3613L5.06082 25.6901C4.99665 25.8646 4.98377 26.0538 5.02371 26.2353C5.06364 26.4169 5.15472 26.5833 5.28618 26.7147C5.41764 26.8462 5.58398 26.9373 5.76555 26.9772C5.94712 27.0171 6.13633 27.0042 6.31082 26.9401L12.6383 24.6388Z" fill="#1C1C1E"/>
<path opacity="0.2" d="M9.76172 12.7611L19.2392 22.2386L24.3642 20.3761C24.5184 20.3203 24.656 20.2265 24.7642 20.1033C24.8725 19.9801 24.9479 19.8316 24.9834 19.6715C25.0189 19.5114 25.0135 19.345 24.9675 19.1876C24.9215 19.0302 24.8366 18.8869 24.7205 18.7711L13.2292 7.28611C13.1134 7.17031 12.9702 7.0856 12.813 7.03981C12.6557 6.99402 12.4895 6.98863 12.3296 7.02415C12.1697 7.05966 12.0214 7.13493 11.8983 7.243C11.7752 7.35106 11.6814 7.48842 11.6255 7.64236L9.76172 12.7611Z" fill="#1C1C1E"/>
<path d="M5.06107 25.6898L11.6248 7.6423C11.6806 7.48812 11.7745 7.35053 11.8977 7.24229C12.0208 7.13405 12.1693 7.05867 12.3294 7.02314C12.4895 6.9876 12.656 6.99307 12.8134 7.03903C12.9708 7.085 13.114 7.16996 13.2298 7.28606L24.7148 18.7711C24.8306 18.887 24.9153 19.0302 24.961 19.1875C25.0067 19.3449 25.0119 19.5112 24.9763 19.6711C24.9407 19.831 24.8652 19.9793 24.757 20.1023C24.6488 20.2253 24.5114 20.319 24.3573 20.3748L6.30982 26.9386C6.13553 27.0022 5.94668 27.0148 5.7655 26.9747C5.58433 26.9347 5.41836 26.8437 5.28716 26.7125C5.15595 26.5813 5.06497 26.4153 5.02491 26.2341C4.98486 26.0529 4.9974 25.8641 5.06107 25.6898Z" stroke="#1C1C1E" stroke-width="2" stroke-linecap="round" stroke-linejoin="round"/>
<path d="M21 9C21 9 21 6 24 6C27 6 27 3 27 3" stroke="#1C1C1E" stroke-width="2" stroke-linecap="round" stroke-linejoin="round"/>
<path d="M18 2V5" stroke="#1C1C1E" stroke-width="2" stroke-linecap="round" stroke-linejoin="round"/>
<path d="M27 14L29 16" stroke="#1C1C1E" stroke-width="2" stroke-linecap="round" stroke-linejoin="round"/>
<path d="M27 10L30 9" stroke="#1C1C1E" stroke-width="2" stroke-linecap="round" stroke-linejoin="round"/>
<path d="M9.76172 12.7617L19.2392 22.2392" stroke="#1C1C1E" stroke-width="2" stroke-linecap="round" stroke-linejoin="round"/>
<path d="M12.6388 24.6388L7.36133 19.3613" stroke="#1C1C1E" stroke-width="2" stroke-linecap="round" stroke-linejoin="round"/>
</svg>
