<svg width="32" height="32" viewBox="0 0 32 32" fill="none" xmlns="http://www.w3.org/2000/svg">
<path opacity="0.2" d="M25.9266 11.9414L21.0003 18.0002L17.0003 8.79395C16.6863 8.93018 16.3476 9.00048 16.0053 9.00048C15.663 9.00048 15.3243 8.93018 15.0103 8.79395L11.0003 18.0002L6.07656 11.9402C5.74384 12.2103 5.34674 12.3895 4.92406 12.4602H4.91406L6.86406 24.1589C6.9017 24.393 7.02128 24.6061 7.20147 24.7602C7.38165 24.9143 7.61073 24.9993 7.84781 25.0002H24.1528C24.3894 25.0002 24.6184 24.9163 24.7989 24.7634C24.9795 24.6105 25.1 24.3986 25.1391 24.1652L27.0891 12.4664H27.0791C26.6559 12.3942 26.2588 12.2133 25.9266 11.9414Z" fill="#1C1C1E"/>
<path d="M16 9C17.3807 9 18.5 7.88071 18.5 6.5C18.5 5.11929 17.3807 4 16 4C14.6193 4 13.5 5.11929 13.5 6.5C13.5 7.88071 14.6193 9 16 9Z" stroke="#1C1C1E" stroke-width="2" stroke-linecap="round" stroke-linejoin="round"/>
<path d="M27.5 12.5C28.8807 12.5 30 11.3807 30 10C30 8.61929 28.8807 7.5 27.5 7.5C26.1193 7.5 25 8.61929 25 10C25 11.3807 26.1193 12.5 27.5 12.5Z" stroke="#1C1C1E" stroke-width="2" stroke-linecap="round" stroke-linejoin="round"/>
<path d="M4.5 12.5C5.88071 12.5 7 11.3807 7 10C7 8.61929 5.88071 7.5 4.5 7.5C3.11929 7.5 2 8.61929 2 10C2 11.3807 3.11929 12.5 4.5 12.5Z" stroke="#1C1C1E" stroke-width="2" stroke-linecap="round" stroke-linejoin="round"/>
<path d="M15.0024 8.79395L10.9999 18.0002L6.07617 11.9402" stroke="#1C1C1E" stroke-width="2" stroke-linecap="round" stroke-linejoin="round"/>
<path d="M25.9233 11.9402L20.9996 18.0002L16.9971 8.79395" stroke="#1C1C1E" stroke-width="2" stroke-linecap="round" stroke-linejoin="round"/>
<path d="M4.91113 12.4658L6.86113 24.1646C6.90017 24.3979 7.02069 24.6099 7.20127 24.7628C7.38184 24.9157 7.61078 24.9996 7.84738 24.9996H24.1524C24.389 24.9996 24.6179 24.9157 24.7985 24.7628C24.9791 24.6099 25.0996 24.3979 25.1386 24.1646L27.0886 12.4658" stroke="#1C1C1E" stroke-width="2" stroke-linecap="round" stroke-linejoin="round"/>
</svg>
