<svg width="32" height="32" viewBox="0 0 32 32" fill="none" xmlns="http://www.w3.org/2000/svg">
<path opacity="0.2" d="M15.2964 3.29152L3.29058 15.2973C2.90249 15.6854 2.90249 16.3146 3.29058 16.7027L15.2964 28.7085C15.6845 29.0966 16.3137 29.0966 16.7017 28.7085L28.7075 16.7027C29.0956 16.3146 29.0956 15.6854 28.7075 15.2973L16.7017 3.29152C16.3137 2.90344 15.6845 2.90344 15.2964 3.29152Z" fill="#1C1C1E"/>
<path d="M15.2964 3.29152L3.29058 15.2973C2.90249 15.6854 2.90249 16.3146 3.29058 16.7027L15.2964 28.7085C15.6845 29.0966 16.3137 29.0966 16.7017 28.7085L28.7075 16.7027C29.0956 16.3146 29.0956 15.6854 28.7075 15.2973L16.7017 3.29152C16.3137 2.90344 15.6845 2.90344 15.2964 3.29152Z" stroke="#1C1C1E" stroke-width="2" stroke-linecap="round" stroke-linejoin="round"/>
</svg>
