<svg width="32" height="32" viewBox="0 0 32 32" fill="none" xmlns="http://www.w3.org/2000/svg">
<path opacity="0.2" d="M18.3752 22.8829C17.586 22.9616 16.7933 23.0008 16.0002 23.0004C15.2071 23.0008 14.4144 22.9616 13.6252 22.8829L12.3439 26.3417C12.2949 26.4723 12.2196 26.5916 12.1226 26.6919C12.0256 26.7923 11.9091 26.8717 11.7801 26.9251C11.6512 26.9785 11.5127 27.0049 11.3731 27.0026C11.2336 27.0003 11.096 26.9693 10.9689 26.9117L2.59393 23.1992C2.3783 23.1044 2.20301 22.9367 2.09897 22.7254C1.99492 22.5141 1.96879 22.2728 2.02518 22.0442L5.72143 7.50041C5.76963 7.30926 5.87272 7.13639 6.01799 7.00312C6.16325 6.86984 6.34434 6.782 6.53893 6.75041L11.0464 6.01041C11.2975 5.96774 11.5554 6.02124 11.7687 6.16024C11.9821 6.29924 12.1353 6.51353 12.1977 6.76041L12.8227 9.21416C14.9333 8.93249 17.072 8.93249 19.1827 9.21416L19.8077 6.76041C19.8701 6.51353 20.0233 6.29924 20.2366 6.16024C20.45 6.02124 20.7079 5.96774 20.9589 6.01041L25.4614 6.75041C25.656 6.782 25.8371 6.86984 25.9824 7.00312C26.1276 7.13639 26.2307 7.30926 26.2789 7.50041L29.9702 22.0467C30.0266 22.2753 30.0004 22.5166 29.8964 22.7279C29.7924 22.9391 29.6171 23.1069 29.4014 23.2017L21.0264 26.9142C20.8993 26.9718 20.7618 27.0028 20.6222 27.0051C20.4827 27.0074 20.3441 26.981 20.2152 26.9276C20.0863 26.8742 19.9697 26.7948 19.8727 26.6944C19.7758 26.5941 19.7004 26.4748 19.6514 26.3442L18.3752 22.8829Z" fill="#1C1C1E"/>
<path d="M11.5 19C12.3284 19 13 18.3284 13 17.5C13 16.6716 12.3284 16 11.5 16C10.6716 16 10 16.6716 10 17.5C10 18.3284 10.6716 19 11.5 19Z" fill="#1C1C1E"/>
<path d="M20.5 19C21.3284 19 22 18.3284 22 17.5C22 16.6716 21.3284 16 20.5 16C19.6716 16 19 16.6716 19 17.5C19 18.3284 19.6716 19 20.5 19Z" fill="#1C1C1E"/>
<path d="M19.18 9.21123L19.805 6.75748C19.8674 6.5106 20.0206 6.29631 20.2339 6.15731C20.4473 6.01831 20.7052 5.96481 20.9562 6.00748L25.4613 6.74998C25.6558 6.78157 25.8369 6.86941 25.9822 7.00269C26.1275 7.13596 26.2305 7.30883 26.2787 7.49998L29.97 22.0462C30.0264 22.2749 30.0003 22.5161 29.8962 22.7274C29.7922 22.9387 29.6169 23.1065 29.4013 23.2012L21.0263 26.9137C20.8992 26.9714 20.7616 27.0024 20.622 27.0047C20.4825 27.007 20.344 26.9806 20.215 26.9272C20.0861 26.8737 19.9695 26.7944 19.8726 26.694C19.7756 26.5936 19.7002 26.4744 19.6513 26.3437L18.375 22.8825" stroke="#1C1C1E" stroke-width="2" stroke-linecap="round" stroke-linejoin="round"/>
<path d="M12.8201 9.21123L12.1951 6.75748C12.1326 6.5106 11.9795 6.29631 11.7661 6.15731C11.5528 6.01831 11.2949 5.96481 11.0438 6.00748L6.53881 6.74998C6.34422 6.78157 6.16313 6.86941 6.01787 7.00269C5.8726 7.13596 5.76952 7.30883 5.72131 7.49998L2.03006 22.0437C1.97367 22.2724 1.9998 22.5136 2.10385 22.7249C2.20789 22.9362 2.38318 23.104 2.59881 23.1987L10.9738 26.9112C11.1009 26.9689 11.2385 26.9999 11.378 27.0022C11.5176 27.0045 11.6561 26.9781 11.785 26.9247C11.914 26.8712 12.0305 26.7919 12.1275 26.6915C12.2245 26.5911 12.2998 26.4719 12.3488 26.3412L13.6251 22.8825" stroke="#1C1C1E" stroke-width="2" stroke-linecap="round" stroke-linejoin="round"/>
<path d="M10 9.78903C11.955 9.25552 13.9735 8.99018 16 9.00028C18.0265 8.99018 20.045 9.25552 22 9.78903" stroke="#1C1C1E" stroke-width="2" stroke-linecap="round" stroke-linejoin="round"/>
<path d="M22 22.2109C20.045 22.7444 18.0265 23.0098 16 22.9997C13.9735 23.0098 11.955 22.7444 10 22.2109" stroke="#1C1C1E" stroke-width="2" stroke-linecap="round" stroke-linejoin="round"/>
</svg>
