<svg width="32" height="32" viewBox="0 0 32 32" fill="none" xmlns="http://www.w3.org/2000/svg">
<path opacity="0.2" d="M20 16.0004C19.9999 16.9258 19.6788 17.8226 19.0917 18.5378C18.5045 19.2531 17.6874 19.7426 16.7798 19.923C15.8721 20.1034 14.93 19.9636 14.1139 19.5272C13.2978 19.0908 12.6583 18.385 12.3043 17.53C11.9503 16.675 11.9036 15.7237 12.1724 14.8381C12.4411 13.9526 13.0086 13.1877 13.7781 12.6736C14.5477 12.1596 15.4716 11.9283 16.3925 12.0191C17.3135 12.1099 18.1745 12.5172 18.8288 13.1717L24.485 7.51543C22.5218 5.55238 19.9387 4.33076 17.1758 4.05874C14.4129 3.78671 11.6411 4.48111 9.3328 6.0236C7.02447 7.5661 5.32239 9.86126 4.51659 12.518C3.71078 15.1748 3.8511 18.0287 4.91363 20.5936C5.97617 23.1585 7.89518 25.2757 10.3437 26.5843C12.7922 27.8929 15.6187 28.3121 18.3416 27.7703C21.0645 27.2286 23.5153 25.7595 25.2765 23.6133C27.0376 21.4671 28.0001 18.7767 28 16.0004H20Z" fill="#1C1C1E"/>
<path d="M16 28C22.6274 28 28 22.6274 28 16C28 9.37258 22.6274 4 16 4C9.37258 4 4 9.37258 4 16C4 22.6274 9.37258 28 16 28Z" stroke="#1C1C1E" stroke-width="2" stroke-linecap="round" stroke-linejoin="round"/>
<path d="M16 20C18.2091 20 20 18.2091 20 16C20 13.7909 18.2091 12 16 12C13.7909 12 12 13.7909 12 16C12 18.2091 13.7909 20 16 20Z" stroke="#1C1C1E" stroke-width="2" stroke-linecap="round" stroke-linejoin="round"/>
<path d="M28 16H20" stroke="#1C1C1E" stroke-width="2" stroke-linecap="round" stroke-linejoin="round"/>
<path d="M24.4854 7.51465L18.8291 13.1709" stroke="#1C1C1E" stroke-width="2" stroke-linecap="round" stroke-linejoin="round"/>
</svg>
