<svg width="32" height="32" viewBox="0 0 32 32" fill="none" xmlns="http://www.w3.org/2000/svg">
<path opacity="0.2" d="M8 26V25.5625C7.99996 23.8911 8.46537 22.2527 9.34407 20.8308C10.2228 19.409 11.48 18.26 12.975 17.5125L19.025 14.4875C20.52 13.74 21.7772 12.591 22.6559 11.1692C23.5346 9.74734 24 8.10893 24 6.4375V6H8V6.4375C7.99996 8.10893 8.46537 9.74734 9.34407 11.1692C10.2228 12.591 11.48 13.74 12.975 14.4875L19.025 17.5125C20.52 18.26 21.7772 19.409 22.6559 20.8308C23.5346 22.2527 24 23.8911 24 25.5625V26H8Z" fill="#1C1C1E"/>
<path d="M12 6H24" stroke="#1C1C1E" stroke-width="2" stroke-linecap="round" stroke-linejoin="round"/>
<path d="M8 3V6.4375C7.99996 8.10893 8.46537 9.74734 9.34407 11.1692C10.2228 12.591 11.48 13.74 12.975 14.4875L19.025 17.5125C20.52 18.26 21.7772 19.409 22.6559 20.8308C23.5346 22.2527 24 23.8911 24 25.5625V29" stroke="#1C1C1E" stroke-width="2" stroke-linecap="round" stroke-linejoin="round"/>
<path d="M8 26H20" stroke="#1C1C1E" stroke-width="2" stroke-linecap="round" stroke-linejoin="round"/>
<path d="M13.4863 10H23.2651" stroke="#1C1C1E" stroke-width="2" stroke-linecap="round" stroke-linejoin="round"/>
<path d="M8.73535 22H18.5141" stroke="#1C1C1E" stroke-width="2" stroke-linecap="round" stroke-linejoin="round"/>
<path d="M11.6725 18.3088C10.5341 19.1449 9.60846 20.2372 8.97046 21.4973C8.33246 22.7575 8.00001 24.1501 8 25.5625V29" stroke="#1C1C1E" stroke-width="2" stroke-linecap="round" stroke-linejoin="round"/>
<path d="M23.9996 3V6.4375C23.9991 7.84932 23.6663 9.24119 23.0283 10.5006C22.3904 11.7601 21.465 12.8518 20.3271 13.6875" stroke="#1C1C1E" stroke-width="2" stroke-linecap="round" stroke-linejoin="round"/>
</svg>
