<svg width="32" height="32" viewBox="0 0 32 32" fill="none" xmlns="http://www.w3.org/2000/svg">
<path opacity="0.2" d="M13 6H19L26 15.0475V23C26 24.0609 25.5786 25.0783 24.8284 25.8284C24.0783 26.5786 23.0609 27 22 27H10C8.93913 27 7.92172 26.5786 7.17157 25.8284C6.42143 25.0783 6 24.0609 6 23V15.0475L13 6Z" fill="#1C1C1E"/>
<path d="M16 24V27" stroke="#1C1C1E" stroke-width="2" stroke-linecap="round" stroke-linejoin="round"/>
<path d="M18 22L16 24L14 22" stroke="#1C1C1E" stroke-width="2" stroke-linecap="round" stroke-linejoin="round"/>
<path d="M13 6H19" stroke="#1C1C1E" stroke-width="2" stroke-linecap="round" stroke-linejoin="round"/>
<path d="M13.0003 5.99974L6.29651 4.02974C6.16424 3.99674 6.02662 3.99113 5.8921 4.01326C5.75759 4.03539 5.62902 4.08479 5.51429 4.15843C5.39956 4.23207 5.3011 4.32838 5.22496 4.44146C5.14882 4.55454 5.0966 4.68199 5.07151 4.81599L3.01901 15.816C2.82651 16.8447 4.14401 17.441 4.78901 16.6185L13.0003 5.99974Z" stroke="#1C1C1E" stroke-width="2" stroke-linecap="round" stroke-linejoin="round"/>
<path d="M19 5.99974L25.7038 4.02974C25.836 3.99674 25.9736 3.99113 26.1082 4.01326C26.2427 4.03539 26.3712 4.08479 26.486 4.15843C26.6007 4.23207 26.6992 4.32838 26.7753 4.44146C26.8514 4.55454 26.9037 4.68199 26.9287 4.81599L28.9813 15.816C29.1738 16.8447 27.8563 17.441 27.2113 16.6185L19 5.99974Z" stroke="#1C1C1E" stroke-width="2" stroke-linecap="round" stroke-linejoin="round"/>
<path d="M11.5 19C12.3284 19 13 18.3284 13 17.5C13 16.6716 12.3284 16 11.5 16C10.6716 16 10 16.6716 10 17.5C10 18.3284 10.6716 19 11.5 19Z" fill="#1C1C1E"/>
<path d="M20.5 19C21.3284 19 22 18.3284 22 17.5C22 16.6716 21.3284 16 20.5 16C19.6716 16 19 16.6716 19 17.5C19 18.3284 19.6716 19 20.5 19Z" fill="#1C1C1E"/>
<path d="M26 15.0479V23.0004C26 24.0612 25.5786 25.0786 24.8284 25.8288C24.0783 26.5789 23.0609 27.0004 22 27.0004H10C8.93913 27.0004 7.92172 26.5789 7.17157 25.8288C6.42143 25.0786 6 24.0612 6 23.0004V15.0479" stroke="#1C1C1E" stroke-width="2" stroke-linecap="round" stroke-linejoin="round"/>
</svg>
