<svg width="32" height="32" viewBox="0 0 32 32" fill="none" xmlns="http://www.w3.org/2000/svg">
<path opacity="0.2" d="M9.5 14C11.9853 14 14 11.9853 14 9.5C14 7.01472 11.9853 5 9.5 5C7.01472 5 5 7.01472 5 9.5C5 11.9853 7.01472 14 9.5 14Z" fill="#1C1C1E"/>
<path opacity="0.2" d="M22.5 14C24.9853 14 27 11.9853 27 9.5C27 7.01472 24.9853 5 22.5 5C20.0147 5 18 7.01472 18 9.5C18 11.9853 20.0147 14 22.5 14Z" fill="#1C1C1E"/>
<path opacity="0.2" d="M9.5 27C11.9853 27 14 24.9853 14 22.5C14 20.0147 11.9853 18 9.5 18C7.01472 18 5 20.0147 5 22.5C5 24.9853 7.01472 27 9.5 27Z" fill="#1C1C1E"/>
<path opacity="0.2" d="M22.5 27C24.9853 27 27 24.9853 27 22.5C27 20.0147 24.9853 18 22.5 18C20.0147 18 18 20.0147 18 22.5C18 24.9853 20.0147 27 22.5 27Z" fill="#1C1C1E"/>
<path d="M19 13L23 9" stroke="#1C1C1E" stroke-width="2" stroke-linecap="round" stroke-linejoin="round"/>
<path d="M9 23L13 19" stroke="#1C1C1E" stroke-width="2" stroke-linecap="round" stroke-linejoin="round"/>
<path d="M19 19L23 23" stroke="#1C1C1E" stroke-width="2" stroke-linecap="round" stroke-linejoin="round"/>
<path d="M9 9L13 13" stroke="#1C1C1E" stroke-width="2" stroke-linecap="round" stroke-linejoin="round"/>
<path d="M18.2559 7.99992C18.5105 7.28432 18.9422 6.64483 19.5107 6.14104C20.0791 5.63724 20.7659 5.28554 21.5069 5.11869C22.2479 4.95185 23.0191 4.97529 23.7486 5.18684C24.4782 5.39838 25.1423 5.79115 25.6791 6.32854C26.2159 6.86593 26.6079 7.53046 26.8187 8.26021C27.0294 8.98996 27.052 9.76118 26.8844 10.502C26.7167 11.2429 26.3643 11.9292 25.8599 12.4971C25.3554 13.065 24.7155 13.496 23.9996 13.7499" stroke="#1C1C1E" stroke-width="2" stroke-linecap="round" stroke-linejoin="round"/>
<path d="M23.9996 18.2563C24.716 18.51 25.3566 18.9409 25.8615 19.509C26.3663 20.0771 26.7191 20.7638 26.8869 21.505C27.0547 22.2463 27.0319 23.018 26.8209 23.7481C26.6098 24.4782 26.2173 25.143 25.6799 25.6804C25.1425 26.2178 24.4777 26.6103 23.7476 26.8214C23.0175 27.0324 22.2458 27.0551 21.5045 26.8874C20.7633 26.7196 20.0766 26.3668 19.5085 25.8619C18.9404 25.3571 18.5095 24.7165 18.2559 24.0001" stroke="#1C1C1E" stroke-width="2" stroke-linecap="round" stroke-linejoin="round"/>
<path d="M13.7499 24.0001C13.496 24.716 13.065 25.3559 12.4971 25.8603C11.9292 26.3648 11.2429 26.7172 10.502 26.8849C9.76118 27.0525 8.98996 27.0299 8.26021 26.8192C7.53046 26.6084 6.86593 26.2164 6.32854 25.6796C5.79115 25.1427 5.39838 24.4786 5.18684 23.7491C4.97529 23.0196 4.95185 22.2484 5.11869 21.5074C5.28554 20.7664 5.63724 20.0796 6.14104 19.5112C6.64483 18.9427 7.28432 18.511 7.99992 18.2563" stroke="#1C1C1E" stroke-width="2" stroke-linecap="round" stroke-linejoin="round"/>
<path d="M8.00031 13.7498C7.28527 13.4948 6.64636 13.0631 6.14303 12.4948C5.6397 11.9266 5.28832 11.2402 5.12159 10.4996C4.95486 9.75896 4.9782 8.98822 5.18944 8.25906C5.40068 7.52991 5.79295 6.86604 6.32974 6.32925C6.86653 5.79246 7.5304 5.40019 8.25955 5.18895C8.98871 4.97772 9.75945 4.95438 10.5001 5.12111C11.2407 5.28784 11.927 5.63921 12.4953 6.14254C13.0636 6.64587 13.4953 7.28478 13.7503 7.99982" stroke="#1C1C1E" stroke-width="2" stroke-linecap="round" stroke-linejoin="round"/>
<path d="M19 13H13V19H19V13Z" stroke="#1C1C1E" stroke-width="2" stroke-linecap="round" stroke-linejoin="round"/>
</svg>
