<svg width="32" height="32" viewBox="0 0 32 32" fill="none" xmlns="http://www.w3.org/2000/svg">
<path opacity="0.2" d="M26 18C26 9 16 2 16 2C16 2 6 9 6 18C6 20.6522 7.05357 23.1957 8.92893 25.0711C10.8043 26.9464 13.3478 28 16 28C18.6522 28 21.1957 26.9464 23.0711 25.0711C24.9464 23.1957 26 20.6522 26 18Z" fill="#1C1C1E"/>
<path d="M6 5L26 27" stroke="#1C1C1E" stroke-width="2" stroke-linecap="round" stroke-linejoin="round"/>
<path d="M25.6424 20.66C25.8801 19.7933 26.0003 18.8987 25.9999 18C25.9999 9 15.9999 2 15.9999 2C14.5429 3.07306 13.1849 4.27453 11.9424 5.59" stroke="#1C1C1E" stroke-width="2" stroke-linecap="round" stroke-linejoin="round"/>
<path d="M9.3625 8.69873C7.51375 11.3 6 14.5 6 18C5.99988 20.0523 6.63125 22.055 7.80841 23.7362C8.98557 25.4174 10.6515 26.6957 12.5801 27.3976C14.5087 28.0995 16.6066 28.191 18.589 27.6596C20.5713 27.1283 22.3422 25.9998 23.6612 24.4275" stroke="#1C1C1E" stroke-width="2" stroke-linecap="round" stroke-linejoin="round"/>
</svg>
