<svg width="32" height="32" viewBox="0 0 32 32" fill="none" xmlns="http://www.w3.org/2000/svg">
<path opacity="0.2" d="M20 27C18.9913 28.2213 17.7075 29 16 29C14.5413 29 13.1424 28.4205 12.1109 27.3891C11.0795 26.3576 10.5 24.9587 10.5 23.5C10.5 18.3137 6 20 6 13C6 10.3478 7.05357 7.8043 8.92893 5.92893C10.8043 4.05357 13.3478 3 16 3C18.6522 3 21.1957 4.05357 23.0711 5.92893C24.9464 7.8043 26 10.3478 26 13C26 18 24.195 22 20 27Z" fill="#1C1C1E"/>
<path d="M6 5L26 27" stroke="#1C1C1E" stroke-width="2" stroke-linecap="round" stroke-linejoin="round"/>
<path d="M10.875 4.41215C12.3929 3.5062 14.1238 3.0188 15.8914 2.99961C17.6591 2.98042 19.4002 3.43013 20.9374 4.30292C22.4746 5.1757 23.753 6.44037 24.6423 7.96808C25.5316 9.49579 26.0001 11.2319 26 12.9997" stroke="#1C1C1E" stroke-width="2" stroke-linecap="round" stroke-linejoin="round"/>
<path d="M20 27.0004C18.9913 28.2216 17.7075 29.0004 16 29.0004C14.5413 29.0004 13.1424 28.4209 12.1109 27.3894C11.0795 26.358 10.5 24.959 10.5 23.5004C10.5 18.3141 6.00001 20.0004 6.00001 13.0004C5.99647 10.883 6.66817 8.81977 7.91751 7.11035" stroke="#1C1C1E" stroke-width="2" stroke-linecap="round" stroke-linejoin="round"/>
<path d="M11.4288 10.9717C11.1448 11.6103 10.9987 12.3016 11 13.0004" stroke="#1C1C1E" stroke-width="2" stroke-linecap="round" stroke-linejoin="round"/>
<path d="M20.5 14.9998C20.8283 14.3842 21 13.6973 21 12.9998C21.0004 12.2034 20.8106 11.4184 20.4464 10.7102C20.0821 10.0019 19.5539 9.39098 18.9058 8.92814C18.2577 8.4653 17.5084 8.16397 16.7204 8.04923C15.9323 7.9345 15.1282 8.00967 14.375 8.2685" stroke="#1C1C1E" stroke-width="2" stroke-linecap="round" stroke-linejoin="round"/>
<path d="M21.1338 21.6475C20.8335 21.8541 20.4825 21.9748 20.1186 21.9964C19.7548 22.018 19.392 21.9398 19.0694 21.7702C18.7467 21.6005 18.4766 21.346 18.2881 21.034C18.0997 20.722 18 20.3645 18 20C17.9981 19.4873 18.0914 18.9787 18.275 18.5" stroke="#1C1C1E" stroke-width="2" stroke-linecap="round" stroke-linejoin="round"/>
</svg>
