<svg width="32" height="32" viewBox="0 0 32 32" fill="none" xmlns="http://www.w3.org/2000/svg">
<path opacity="0.2" d="M10.9997 19.9999C10.9997 17.613 11.9479 15.3238 13.6357 13.636C15.3236 11.9481 17.6127 10.9999 19.9997 10.9999C20.317 11.0002 20.6341 11.0168 20.9497 11.0499C20.7703 9.36041 20.1163 7.75617 19.0634 6.42274C18.0105 5.08931 16.6016 4.08116 14.9997 3.51487C13.3979 2.94858 11.6684 2.84728 10.0114 3.2227C8.35435 3.59811 6.83743 4.43489 5.63604 5.63628C4.43465 6.83768 3.59786 8.3546 3.22245 10.0116C2.84704 11.6687 2.94833 13.3981 3.51463 15C4.08092 16.6019 5.08907 18.0107 6.4225 19.0636C7.75593 20.1166 9.36016 20.7705 11.0497 20.9499C11.0166 20.6343 10.9999 20.3173 10.9997 19.9999Z" fill="#1C1C1E"/>
<path opacity="0.2" d="M20.9498 11.05C20.9829 11.3656 20.9996 11.6827 20.9998 12C20.9998 14.387 20.0516 16.6762 18.3638 18.364C16.6759 20.0518 14.3868 21 11.9998 21C11.6825 20.9998 11.3654 20.9831 11.0498 20.95C11.2292 22.6396 11.8832 24.2438 12.9361 25.5772C13.989 26.9107 15.3979 27.9188 16.9998 28.4851C18.6016 29.0514 20.3311 29.1527 21.9881 28.7773C23.6451 28.4019 25.1621 27.5651 26.3635 26.3637C27.5648 25.1623 28.4016 23.6454 28.777 21.9884C29.1525 20.3313 29.0512 18.6019 28.4849 17C27.9186 15.3981 26.9104 13.9893 25.577 12.9363C24.2436 11.8834 22.6393 11.2294 20.9498 11.05Z" fill="#1C1C1E"/>
<path d="M12 21C16.9706 21 21 16.9706 21 12C21 7.02944 16.9706 3 12 3C7.02944 3 3 7.02944 3 12C3 16.9706 7.02944 21 12 21Z" stroke="#1C1C1E" stroke-width="2" stroke-linecap="round" stroke-linejoin="round"/>
<path d="M20 29C24.9706 29 29 24.9706 29 20C29 15.0294 24.9706 11 20 11C15.0294 11 11 15.0294 11 20C11 24.9706 15.0294 29 20 29Z" stroke="#1C1C1E" stroke-width="2" stroke-linecap="round" stroke-linejoin="round"/>
</svg>
