<svg width="32" height="32" viewBox="0 0 32 32" fill="none" xmlns="http://www.w3.org/2000/svg">
<path opacity="0.2" d="M16 7C6 7 2 16 2 16C2 16 6 25 16 25C26 25 30 16 30 16C30 16 26 7 16 7ZM16 21C15.0111 21 14.0444 20.7068 13.2221 20.1573C12.3999 19.6079 11.759 18.827 11.3806 17.9134C11.0022 16.9998 10.9031 15.9945 11.0961 15.0245C11.289 14.0546 11.7652 13.1637 12.4645 12.4645C13.1637 11.7652 14.0546 11.289 15.0245 11.0961C15.9945 10.9031 16.9998 11.0022 17.9134 11.3806C18.827 11.759 19.6079 12.3999 20.1573 13.2221C20.7068 14.0444 21 15.0111 21 16C21 17.3261 20.4732 18.5979 19.5355 19.5355C18.5979 20.4732 17.3261 21 16 21Z" fill="#1C1C1E"/>
<path d="M6 5L26 27" stroke="#1C1C1E" stroke-width="2" stroke-linecap="round" stroke-linejoin="round"/>
<path d="M19.3642 19.7C18.3829 20.5922 17.0874 21.0579 15.7627 20.9949C14.438 20.9318 13.1926 20.3451 12.3005 19.3638C11.4084 18.3825 10.9426 17.087 11.0057 15.7623C11.0687 14.4376 11.6554 13.1922 12.6367 12.3" stroke="#1C1C1E" stroke-width="2" stroke-linecap="round" stroke-linejoin="round"/>
<path d="M16.9414 11.0889C18.0044 11.2924 18.9727 11.8354 19.7007 12.6363C20.4287 13.4371 20.8773 14.4526 20.9789 15.5301" stroke="#1C1C1E" stroke-width="2" stroke-linecap="round" stroke-linejoin="round"/>
<path d="M26.0763 21.1375C28.8013 18.6975 30 16 30 16C30 16 26 7.00001 16 7.00001C15.1341 6.99883 14.2695 7.06907 13.415 7.21001" stroke="#1C1C1E" stroke-width="2" stroke-linecap="round" stroke-linejoin="round"/>
<path d="M9.25 8.57495C4.15375 11.155 2 16 2 16C2 16 6 25 16 25C18.3431 25.0183 20.657 24.4784 22.75 23.425" stroke="#1C1C1E" stroke-width="2" stroke-linecap="round" stroke-linejoin="round"/>
</svg>
