<svg width="32" height="32" viewBox="0 0 32 32" fill="none" xmlns="http://www.w3.org/2000/svg">
<path opacity="0.2" d="M16 7C6 7 2 16 2 16C2 16 6 25 16 25C26 25 30 16 30 16C30 16 26 7 16 7ZM16 21C15.0111 21 14.0444 20.7068 13.2221 20.1573C12.3999 19.6079 11.759 18.827 11.3806 17.9134C11.0022 16.9998 10.9031 15.9945 11.0961 15.0245C11.289 14.0546 11.7652 13.1637 12.4645 12.4645C13.1637 11.7652 14.0546 11.289 15.0245 11.0961C15.9945 10.9031 16.9998 11.0022 17.9134 11.3806C18.827 11.759 19.6079 12.3999 20.1573 13.2221C20.7068 14.0444 21 15.0111 21 16C21 17.3261 20.4732 18.5979 19.5355 19.5355C18.5979 20.4732 17.3261 21 16 21Z" fill="#1C1C1E"/>
<path d="M16 7C6 7 2 16 2 16C2 16 6 25 16 25C26 25 30 16 30 16C30 16 26 7 16 7Z" stroke="#1C1C1E" stroke-width="2" stroke-linecap="round" stroke-linejoin="round"/>
<path d="M16 21C18.7614 21 21 18.7614 21 16C21 13.2386 18.7614 11 16 11C13.2386 11 11 13.2386 11 16C11 18.7614 13.2386 21 16 21Z" stroke="#1C1C1E" stroke-width="2" stroke-linecap="round" stroke-linejoin="round"/>
</svg>
