<svg width="32" height="32" viewBox="0 0 32 32" fill="none" xmlns="http://www.w3.org/2000/svg">
<path opacity="0.2" d="M22.8039 14.1462L23.4139 14.7574C23.5997 14.9431 23.747 15.1636 23.8476 15.4063C23.9481 15.649 23.9999 15.9091 23.9999 16.1718C23.9999 16.4345 23.9481 16.6946 23.8476 16.9373C23.747 17.1799 23.5997 17.4004 23.4139 17.5862L22.2889 18.7112C22.1014 18.8986 21.8471 19.0038 21.582 19.0038C21.3169 19.0038 21.0627 18.8986 20.8752 18.7112L13.2927 11.1249C13.1053 10.9374 13 10.6831 13 10.418C13 10.1529 13.1053 9.89869 13.2927 9.71117L14.4177 8.58617C14.6034 8.4004 14.8239 8.25304 15.0666 8.1525C15.3092 8.05197 15.5694 8.00022 15.832 8.00022C16.0947 8.00022 16.3548 8.05197 16.5975 8.1525C16.8402 8.25304 17.0607 8.4004 17.2464 8.58617L17.8577 9.19617L20.9827 6.05867C22.3314 4.70992 24.5289 4.62742 25.9127 5.93367C26.2528 6.25506 26.525 6.64139 26.7133 7.06982C26.9015 7.49825 27.0019 7.96008 27.0086 8.42799C27.0152 8.8959 26.9279 9.36039 26.7519 9.794C26.576 10.2276 26.3148 10.6215 25.9839 10.9524L22.8039 14.1462Z" fill="#1C1C1E"/>
<path opacity="0.2" d="M6.20892 23.28L5.06017 25.9125C5.00232 26.0447 4.98568 26.1913 5.01244 26.3332C5.0392 26.475 5.10811 26.6054 5.21018 26.7075C5.3524 26.8496 5.53415 26.9455 5.73172 26.9827C5.92928 27.02 6.13348 26.9968 6.31768 26.9163L8.81768 25.8237C9.51343 26.0374 10.2543 26.0572 10.9605 25.881C11.6667 25.7048 12.3114 25.3393 12.8252 24.8237L17.6564 20H6.53767C6.2535 20.4922 6.07723 21.0392 6.02056 21.6046C5.96388 22.1701 6.02809 22.7412 6.20892 23.28Z" fill="#1C1C1E"/>
<path d="M22.8039 14.1462L23.4139 14.7574C23.5997 14.9431 23.747 15.1636 23.8476 15.4063C23.9481 15.649 23.9999 15.9091 23.9999 16.1718C23.9999 16.4345 23.9481 16.6946 23.8476 16.9373C23.747 17.1799 23.5997 17.4004 23.4139 17.5862L22.2889 18.7112C22.1014 18.8986 21.8471 19.0038 21.582 19.0038C21.3169 19.0038 21.0627 18.8986 20.8752 18.7112L13.2927 11.1249C13.1053 10.9374 13 10.6831 13 10.418C13 10.1529 13.1053 9.89869 13.2927 9.71117L14.4177 8.58617C14.6034 8.4004 14.8239 8.25304 15.0666 8.1525C15.3092 8.05197 15.5694 8.00022 15.832 8.00022C16.0947 8.00022 16.3548 8.05197 16.5975 8.1525C16.8402 8.25304 17.0607 8.4004 17.2464 8.58617L17.8577 9.19617L20.9827 6.05867C22.3314 4.70992 24.5289 4.62742 25.9127 5.93367C26.2528 6.25506 26.525 6.64139 26.7133 7.06982C26.9015 7.49825 27.0019 7.96008 27.0086 8.42799C27.0152 8.8959 26.9279 9.36039 26.7519 9.794C26.576 10.2276 26.3148 10.6215 25.9839 10.9524L22.8039 14.1462Z" stroke="#1C1C1E" stroke-width="2" stroke-linecap="round" stroke-linejoin="round"/>
<path d="M19.9141 17.7426L12.8291 24.8288C12.3153 25.3443 11.6706 25.7099 10.9644 25.8861C10.2582 26.0623 9.51734 26.0425 8.82158 25.8288L6.32158 26.9213C6.13739 27.0019 5.93319 27.025 5.73562 26.9878C5.53806 26.9506 5.35631 26.8546 5.21408 26.7126C5.11202 26.6105 5.04311 26.48 5.01635 26.3382C4.98959 26.1964 5.00622 26.0498 5.06408 25.9176L6.21283 23.2851C5.97435 22.5786 5.93809 21.8194 6.10817 21.0934C6.27824 20.3674 6.64787 19.7034 7.17533 19.1763L14.2616 12.0913" stroke="#1C1C1E" stroke-width="2" stroke-linecap="round" stroke-linejoin="round"/>
<path d="M6.53516 20H17.6564" stroke="#1C1C1E" stroke-width="2" stroke-linecap="round" stroke-linejoin="round"/>
</svg>
