<svg width="32" height="32" viewBox="0 0 32 32" fill="none" xmlns="http://www.w3.org/2000/svg">
<path opacity="0.2" d="M17.0627 18.8052C16.7234 18.9346 16.3633 19.0007 16.0002 19.0002C15.3485 19.0001 14.7146 18.7877 14.1943 18.3953C13.674 18.0029 13.2956 17.4518 13.1164 16.8252L4.12515 19.3914C4.08638 20.2925 4.23553 21.1917 4.56312 22.032C4.89071 22.8722 5.38957 23.6351 6.02797 24.2721C6.66637 24.9091 7.43035 25.4063 8.27132 25.7321C9.11229 26.0578 10.0118 26.205 10.9128 26.1643C11.8137 26.1235 12.6963 25.8957 13.5045 25.4954C14.3126 25.0951 15.0286 24.531 15.6069 23.8389C16.1852 23.1469 16.6131 22.3421 16.8636 21.4757C17.114 20.6093 17.1813 19.7003 17.0614 18.8064L17.0627 18.8052Z" fill="#1C1C1E"/>
<path opacity="0.2" d="M13.0386 15.5173C13.1054 15.1076 13.2565 14.7161 13.4824 14.3678C13.7083 14.0194 14.004 13.7218 14.3508 13.4936C14.6976 13.2654 15.0881 13.1117 15.4974 13.0422C15.9067 12.9727 16.3259 12.9889 16.7286 13.0898L18.9999 4.02106C18.2388 3.54064 17.3863 3.22351 16.4963 3.08976C15.6062 2.956 14.6981 3.00854 13.8295 3.24404C12.9608 3.47954 12.1505 3.89287 11.4499 4.45785C10.7493 5.02283 10.1737 5.72715 9.75952 6.52619C9.34532 7.32524 9.10157 8.20159 9.04372 9.09975C8.98586 9.9979 9.11516 10.8983 9.42342 11.7439C9.73168 12.5894 10.2122 13.3618 10.8345 14.012C11.4568 14.6622 12.2074 15.1761 13.0386 15.5211V15.5173Z" fill="#1C1C1E"/>
<path opacity="0.2" d="M25.1245 13.1878C24.007 12.5424 22.7227 12.2442 21.4351 12.3312C20.1475 12.4183 18.915 12.8866 17.8945 13.6766C18.2157 13.9393 18.4789 14.2657 18.6675 14.6353C18.8561 15.0049 18.966 15.4096 18.9902 15.8238C19.0144 16.2381 18.9524 16.6528 18.8081 17.0419C18.6638 17.4309 18.4404 17.7858 18.152 18.0841L24.8695 24.5841C25.9043 24.0467 26.7754 23.2409 27.3917 22.251C28.0079 21.2612 28.3466 20.1239 28.3721 18.9582C28.3977 17.7925 28.1092 16.6414 27.537 15.6255C26.9647 14.6096 26.1297 13.7663 25.1195 13.1841L25.1245 13.1878Z" fill="#1C1C1E"/>
<path d="M16 19C17.6569 19 19 17.6569 19 16C19 14.3431 17.6569 13 16 13C14.3431 13 13 14.3431 13 16C13 17.6569 14.3431 19 16 19Z" stroke="#1C1C1E" stroke-width="2" stroke-linecap="round" stroke-linejoin="round"/>
<path d="M13.0386 15.5172C12.2074 15.1722 11.4568 14.6583 10.8345 14.0081C10.2122 13.3579 9.73168 12.5855 9.42342 11.74C9.11516 10.8944 8.98586 9.994 9.04372 9.09584C9.10157 8.19768 9.34532 7.32133 9.75952 6.52229C10.1737 5.72324 10.7493 5.01893 11.4499 4.45395C12.1505 3.88897 12.9608 3.47563 13.8295 3.24013C14.6981 3.00463 15.6062 2.9521 16.4963 3.08585C17.3863 3.21961 18.2388 3.53674 18.9999 4.01715L16.7286 13.0847" stroke="#1C1C1E" stroke-width="2" stroke-linecap="round" stroke-linejoin="round"/>
<path d="M17.0623 18.8067C17.1812 19.7001 17.113 20.6084 16.8621 21.474C16.6111 22.3397 16.1829 23.1436 15.6046 23.8349C15.0263 24.5261 14.3105 25.0896 13.5028 25.4894C12.6951 25.8892 11.8131 26.1167 10.9128 26.1574C10.0124 26.1982 9.11346 26.0512 8.27296 25.7259C7.43246 25.4006 6.6688 24.904 6.03047 24.2678C5.39215 23.6315 4.89311 22.8695 4.56505 22.0301C4.23699 21.1907 4.08709 20.2922 4.12485 19.3917L13.1136 16.8242" stroke="#1C1C1E" stroke-width="2" stroke-linecap="round" stroke-linejoin="round"/>
<path d="M17.8984 13.6758C18.6127 13.1262 19.4334 12.7311 20.3084 12.5157C21.1835 12.3002 22.0938 12.269 22.9816 12.4242C23.8693 12.5794 24.7151 12.9174 25.4652 13.4169C26.2154 13.9165 26.8534 14.5665 27.3389 15.3258C27.8243 16.0851 28.1466 16.937 28.2852 17.8275C28.4238 18.718 28.3757 19.6276 28.144 20.4985C27.9122 21.3694 27.502 22.1826 26.9391 22.8865C26.3763 23.5903 25.6733 24.1695 24.8747 24.5871L18.1572 18.0871" stroke="#1C1C1E" stroke-width="2" stroke-linecap="round" stroke-linejoin="round"/>
</svg>
