<svg width="32" height="32" viewBox="0 0 32 32" fill="none" xmlns="http://www.w3.org/2000/svg">
<path opacity="0.2" d="M16 4C13.6266 4 11.3066 4.70379 9.33316 6.02236C7.35977 7.34094 5.8217 9.21509 4.91345 11.4078C4.0052 13.6005 3.76756 16.0133 4.23058 18.3411C4.6936 20.6689 5.83649 22.8071 7.51472 24.4853C9.19295 26.1635 11.3312 27.3064 13.6589 27.7694C15.9867 28.2324 18.3995 27.9948 20.5922 27.0866C22.7849 26.1783 24.6591 24.6402 25.9776 22.6668C27.2962 20.6935 28 18.3734 28 16C28 12.8174 26.7357 9.76515 24.4853 7.51472C22.2348 5.26428 19.1826 4 16 4ZM10 18C9.60444 18 9.21776 17.8827 8.88887 17.6629C8.55997 17.4432 8.30362 17.1308 8.15225 16.7654C8.00087 16.3999 7.96126 15.9978 8.03843 15.6098C8.11561 15.2219 8.30609 14.8655 8.58579 14.5858C8.8655 14.3061 9.22186 14.1156 9.60983 14.0384C9.99779 13.9613 10.3999 14.0009 10.7654 14.1522C11.1308 14.3036 11.4432 14.56 11.6629 14.8889C11.8827 15.2178 12 15.6044 12 16C12 16.5304 11.7893 17.0391 11.4142 17.4142C11.0391 17.7893 10.5304 18 10 18ZM16 24C15.6044 24 15.2178 23.8827 14.8889 23.6629C14.56 23.4432 14.3036 23.1308 14.1522 22.7654C14.0009 22.3999 13.9613 21.9978 14.0384 21.6098C14.1156 21.2219 14.3061 20.8655 14.5858 20.5858C14.8655 20.3061 15.2219 20.1156 15.6098 20.0384C15.9978 19.9613 16.3999 20.0009 16.7654 20.1522C17.1308 20.3036 17.4432 20.56 17.6629 20.8889C17.8827 21.2178 18 21.6044 18 22C18 22.5304 17.7893 23.0391 17.4142 23.4142C17.0391 23.7893 16.5304 24 16 24ZM16 12C15.6044 12 15.2178 11.8827 14.8889 11.6629C14.56 11.4432 14.3036 11.1308 14.1522 10.7654C14.0009 10.3999 13.9613 9.99778 14.0384 9.60982C14.1156 9.22186 14.3061 8.86549 14.5858 8.58579C14.8655 8.30608 15.2219 8.1156 15.6098 8.03843C15.9978 7.96126 16.3999 8.00087 16.7654 8.15224C17.1308 8.30362 17.4432 8.55996 17.6629 8.88886C17.8827 9.21776 18 9.60444 18 10C18 10.5304 17.7893 11.0391 17.4142 11.4142C17.0391 11.7893 16.5304 12 16 12ZM22 18C21.6044 18 21.2178 17.8827 20.8889 17.6629C20.56 17.4432 20.3036 17.1308 20.1522 16.7654C20.0009 16.3999 19.9613 15.9978 20.0384 15.6098C20.1156 15.2219 20.3061 14.8655 20.5858 14.5858C20.8655 14.3061 21.2219 14.1156 21.6098 14.0384C21.9978 13.9613 22.3999 14.0009 22.7654 14.1522C23.1308 14.3036 23.4432 14.56 23.6629 14.8889C23.8827 15.2178 24 15.6044 24 16C24 16.5304 23.7893 17.0391 23.4142 17.4142C23.0391 17.7893 22.5304 18 22 18Z" fill="#1C1C1E"/>
<path d="M16 28C22.6274 28 28 22.6274 28 16C28 9.37258 22.6274 4 16 4C9.37258 4 4 9.37258 4 16C4 22.6274 9.37258 28 16 28Z" stroke="#1C1C1E" stroke-width="2" stroke-linecap="round" stroke-linejoin="round"/>
<path d="M16 28H29" stroke="#1C1C1E" stroke-width="2" stroke-linecap="round" stroke-linejoin="round"/>
<path d="M16 12C17.1046 12 18 11.1046 18 10C18 8.89543 17.1046 8 16 8C14.8954 8 14 8.89543 14 10C14 11.1046 14.8954 12 16 12Z" stroke="#1C1C1E" stroke-width="2" stroke-linecap="round" stroke-linejoin="round"/>
<path d="M16 24C17.1046 24 18 23.1046 18 22C18 20.8954 17.1046 20 16 20C14.8954 20 14 20.8954 14 22C14 23.1046 14.8954 24 16 24Z" stroke="#1C1C1E" stroke-width="2" stroke-linecap="round" stroke-linejoin="round"/>
<path d="M22 18C23.1046 18 24 17.1046 24 16C24 14.8954 23.1046 14 22 14C20.8954 14 20 14.8954 20 16C20 17.1046 20.8954 18 22 18Z" stroke="#1C1C1E" stroke-width="2" stroke-linecap="round" stroke-linejoin="round"/>
<path d="M10 18C11.1046 18 12 17.1046 12 16C12 14.8954 11.1046 14 10 14C8.89543 14 8 14.8954 8 16C8 17.1046 8.89543 18 10 18Z" stroke="#1C1C1E" stroke-width="2" stroke-linecap="round" stroke-linejoin="round"/>
</svg>
