<svg width="32" height="32" viewBox="0 0 32 32" fill="none" xmlns="http://www.w3.org/2000/svg">
<path opacity="0.2" d="M25 4H7C6.44772 4 6 4.44772 6 5V27C6 27.5523 6.44772 28 7 28H25C25.5523 28 26 27.5523 26 27V5C26 4.44772 25.5523 4 25 4Z" fill="#1C1C1E"/>
<path d="M25 4H7C6.44772 4 6 4.44772 6 5V27C6 27.5523 6.44772 28 7 28H25C25.5523 28 26 27.5523 26 27V5C26 4.44772 25.5523 4 25 4Z" stroke="#1C1C1E" stroke-width="2" stroke-linecap="round" stroke-linejoin="round"/>
<path d="M10.5 11.5C11.3284 11.5 12 10.8284 12 10C12 9.17157 11.3284 8.5 10.5 8.5C9.67157 8.5 9 9.17157 9 10C9 10.8284 9.67157 11.5 10.5 11.5Z" fill="#1C1C1E"/>
<path d="M10.5 23.5C11.3284 23.5 12 22.8284 12 22C12 21.1716 11.3284 20.5 10.5 20.5C9.67157 20.5 9 21.1716 9 22C9 22.8284 9.67157 23.5 10.5 23.5Z" fill="#1C1C1E"/>
<path d="M10.5 17.5C11.3284 17.5 12 16.8284 12 16C12 15.1716 11.3284 14.5 10.5 14.5C9.67157 14.5 9 15.1716 9 16C9 16.8284 9.67157 17.5 10.5 17.5Z" fill="#1C1C1E"/>
</svg>
