<svg width="32" height="32" viewBox="0 0 32 32" fill="none" xmlns="http://www.w3.org/2000/svg">
<path opacity="0.2" d="M16 28C22.6274 28 28 22.6274 28 16C28 9.37258 22.6274 4 16 4C9.37258 4 4 9.37258 4 16C4 22.6274 9.37258 28 16 28Z" fill="#1C1C1E"/>
<path d="M6.33594 23.115C7.43396 20.9042 8.00351 18.4685 7.99969 16C7.99758 14.7997 8.26623 13.6144 8.78564 12.5323C9.30506 11.4502 10.0618 10.4991 10.9997 9.75" stroke="#1C1C1E" stroke-width="2" stroke-linecap="round" stroke-linejoin="round"/>
<path d="M16 16C16.0059 20.0672 14.9733 24.0686 13 27.625" stroke="#1C1C1E" stroke-width="2" stroke-linecap="round" stroke-linejoin="round"/>
<path d="M12 16C12 14.9391 12.4214 13.9217 13.1716 13.1716C13.9217 12.4214 14.9391 12 16 12C17.0609 12 18.0783 12.4214 18.8284 13.1716C19.5786 13.9217 20 14.9391 20 16C20.0058 20.1232 19.0973 24.1963 17.34 27.9263" stroke="#1C1C1E" stroke-width="2" stroke-linecap="round" stroke-linejoin="round"/>
<path d="M27.3202 23C27.7736 20.6943 28.0013 18.3499 28.0002 16C28.0002 12.8174 26.7359 9.76516 24.4854 7.51472C22.235 5.26428 19.1828 4 16.0002 4C12.8176 4 9.76531 5.26428 7.51487 7.51472C5.26444 9.76516 4.00016 12.8174 4.00016 16C4.00146 17.3625 3.77022 18.7153 3.31641 20" stroke="#1C1C1E" stroke-width="2" stroke-linecap="round" stroke-linejoin="round"/>
<path d="M11.6009 20C11.1738 22.1026 10.4089 24.1221 9.33594 25.98" stroke="#1C1C1E" stroke-width="2" stroke-linecap="round" stroke-linejoin="round"/>
<path d="M15 8.06223C15.3318 8.02157 15.6657 8.00112 16 8.00098C18.1217 8.00098 20.1566 8.84383 21.6569 10.3441C23.1571 11.8444 24 13.8792 24 16.001C23.9991 17.3382 23.9156 18.6741 23.75 20.001" stroke="#1C1C1E" stroke-width="2" stroke-linecap="round" stroke-linejoin="round"/>
<path d="M22.9922 24C22.8022 24.74 22.5864 25.4692 22.3447 26.1875" stroke="#1C1C1E" stroke-width="2" stroke-linecap="round" stroke-linejoin="round"/>
</svg>
