<svg width="32" height="32" viewBox="0 0 32 32" fill="none" xmlns="http://www.w3.org/2000/svg">
<path opacity="0.2" d="M18.6112 19.3886C18.0372 18.8158 17.5972 18.1229 17.3229 17.3597C17.0487 16.5965 16.9469 15.782 17.025 14.9748C16.2011 15.0539 15.37 14.9459 14.5937 14.6591C13.8173 14.3723 13.1157 13.9139 12.5411 13.3182C11.9665 12.7224 11.5338 12.0047 11.2752 11.2185C11.0166 10.4323 10.9388 9.59783 11.0475 8.77734C9.31 11.0273 8.12125 14.2973 8.00875 18.9836L1 21.9836L8.00875 23.9911L10.0087 30.9998L13.0087 23.9911C17.6975 23.8786 20.9637 22.6898 23.2188 20.9523C22.3822 21.0633 21.5314 20.98 20.7323 20.7088C19.9332 20.4376 19.2074 19.9858 18.6112 19.3886Z" fill="#1C1C1E"/>
<path d="M19.5 11C20.3284 11 21 10.3284 21 9.5C21 8.67157 20.3284 8 19.5 8C18.6716 8 18 8.67157 18 9.5C18 10.3284 18.6716 11 19.5 11Z" fill="#1C1C1E"/>
<path d="M1 21.9837L8.00875 23.9912L10.0087 31L13.0087 23.9912C32.3138 23.5325 27.5 4.83496 27.375 4.62496C27.1587 4.49996 8.46875 -0.307542 8 18.9875L1 21.9837Z" stroke="#1C1C1E" stroke-width="2" stroke-linecap="round" stroke-linejoin="round"/>
<path d="M23.2278 20.9526C22.407 21.0622 21.572 20.985 20.7851 20.7267C19.9982 20.4685 19.2799 20.0359 18.6836 19.4612C18.0873 18.8865 17.6284 18.1846 17.3413 17.4079C17.0542 16.6311 16.9462 15.7995 17.0253 14.9751C16.2013 15.0542 15.3701 14.9462 14.5937 14.6593C13.8172 14.3724 13.1155 13.9139 12.5409 13.3181C11.9663 12.7222 11.5336 12.0043 11.2751 11.2179C11.0166 10.4315 10.9389 9.59695 11.0478 8.77637" stroke="#1C1C1E" stroke-width="2" stroke-linecap="round" stroke-linejoin="round"/>
</svg>
