<svg width="32" height="32" viewBox="0 0 32 32" fill="none" xmlns="http://www.w3.org/2000/svg">
<path opacity="0.2" d="M13.0186 6.69629C9.49984 9.35254 6.98609 14.455 8.00984 23.9863C17.5423 25.0113 22.6461 22.5025 25.3036 18.9863C22.1003 18.8144 19.0738 17.4642 16.8059 15.1955C14.5381 12.9267 13.1892 9.8996 13.0186 6.69629Z" fill="#1C1C1E"/>
<path d="M19.5 11C20.3284 11 21 10.3284 21 9.5C21 8.67157 20.3284 8 19.5 8C18.6716 8 18 8.67157 18 9.5C18 10.3284 18.6716 11 19.5 11Z" fill="#1C1C1E"/>
<path d="M2 22.9837C34 29.9999 27.5 4.83742 27.375 4.62492C27.1612 4.49992 2 -2.00008 9.0125 29.9999" stroke="#1C1C1E" stroke-width="2" stroke-linecap="round" stroke-linejoin="round"/>
<path d="M25.3061 18.9813C22.1028 18.8101 19.0759 17.4606 16.8076 15.1923C14.5393 12.924 13.1898 9.89712 13.0186 6.69385" stroke="#1C1C1E" stroke-width="2" stroke-linecap="round" stroke-linejoin="round"/>
</svg>
