<svg width="32" height="32" viewBox="0 0 32 32" fill="none" xmlns="http://www.w3.org/2000/svg">
<path opacity="0.2" d="M16 3C16 3 6 9 6 18C5.99914 20.6081 7.01728 23.1134 8.83731 24.9816C10.6573 26.8497 13.1352 27.9328 15.7425 28C14.4616 27.9339 13.255 27.3781 12.3723 26.4475C11.4896 25.5169 10.9983 24.2826 11 23C11 18 16 15 16 15C16 15 21 18 21 23C21.0017 24.2826 20.5104 25.5169 19.6277 26.4475C18.745 27.3781 17.5385 27.9339 16.2575 28C18.8648 27.9328 21.3427 26.8497 23.1627 24.9816C24.9827 23.1134 26.0009 20.6081 26 18C26 9 16 3 16 3Z" fill="#1C1C1E"/>
<path d="M26 18C26 9 16 3 16 3C16 3 6 9 6 18C6 20.6522 7.05357 23.1957 8.92893 25.0711C10.8043 26.9464 13.3478 28 16 28C18.6522 28 21.1957 26.9464 23.0711 25.0711C24.9464 23.1957 26 20.6522 26 18Z" stroke="#1C1C1E" stroke-width="2" stroke-linecap="round" stroke-linejoin="round"/>
<path d="M11 23C11 24.3261 11.5268 25.5979 12.4645 26.5355C13.4021 27.4732 14.6739 28 16 28C17.3261 28 18.5979 27.4732 19.5355 26.5355C20.4732 25.5979 21 24.3261 21 23C21 18 16 15 16 15C16 15 11 18 11 23Z" stroke="#1C1C1E" stroke-width="2" stroke-linecap="round" stroke-linejoin="round"/>
</svg>
