<svg width="32" height="32" viewBox="0 0 32 32" fill="none" xmlns="http://www.w3.org/2000/svg">
<path opacity="0.2" d="M8.95406 19.135C10.6078 18.825 12.9541 18.9587 16.0003 20.5C20.0316 22.5412 22.8441 22.1137 24.4378 21.4562L26.8553 25.485C26.9464 25.6365 26.9956 25.8095 26.998 25.9864C27.0004 26.1632 26.9559 26.3375 26.869 26.4915C26.7821 26.6454 26.6559 26.7736 26.5033 26.863C26.3507 26.9523 26.1771 26.9996 26.0003 27H6.00031C5.82327 27 5.64939 26.9531 5.49644 26.8639C5.34348 26.7748 5.21694 26.6466 5.12973 26.4925C5.04253 26.3385 4.99779 26.164 5.00008 25.987C5.00238 25.81 5.05163 25.6367 5.14281 25.485L8.95281 19.135H8.95406Z" fill="#1C1C1E"/>
<path d="M11 4H21" stroke="#1C1C1E" stroke-width="2" stroke-linecap="round" stroke-linejoin="round"/>
<path d="M19.0003 4V12.3925L26.8566 25.485C26.9477 25.6367 26.9969 25.8098 26.9993 25.9867C27.0016 26.1636 26.957 26.338 26.8699 26.492C26.7829 26.6461 26.6565 26.7742 26.5037 26.8635C26.351 26.9527 26.1772 26.9998 26.0003 27H6.00031C5.82327 27.0001 5.64939 26.9531 5.49644 26.864C5.34348 26.7748 5.21694 26.6467 5.12973 26.4926C5.04253 26.3385 4.99779 26.164 5.00008 25.987C5.00238 25.81 5.05163 25.6368 5.14281 25.485L13.0003 12.3925V4" stroke="#1C1C1E" stroke-width="2" stroke-linecap="round" stroke-linejoin="round"/>
<path d="M8.9541 19.135C10.6079 18.825 12.9541 18.9587 16.0004 20.5C20.0316 22.5412 22.8441 22.1137 24.4379 21.4562" stroke="#1C1C1E" stroke-width="2" stroke-linecap="round" stroke-linejoin="round"/>
</svg>
