<svg width="32" height="32" viewBox="0 0 32 32" fill="none" xmlns="http://www.w3.org/2000/svg">
<path opacity="0.2" d="M24 9.66625C24 9.88262 23.9298 10.0932 23.8 10.2662L21.2 13.7338C21.0702 13.9068 21 14.1174 21 14.3337V28C21 28.2652 20.8946 28.5196 20.7071 28.7071C20.5196 28.8946 20.2652 29 20 29H12C11.7348 29 11.4804 28.8946 11.2929 28.7071C11.1054 28.5196 11 28.2652 11 28V14.3337C11 14.1174 10.9298 13.9068 10.8 13.7338L8.2 10.2662C8.07018 10.0932 8 9.88262 8 9.66625V8H24V9.66625Z" fill="#1C1C1E"/>
<path d="M9 3H23C23.2652 3 23.5196 3.10536 23.7071 3.29289C23.8946 3.48043 24 3.73478 24 4V9.66625C24 9.88262 23.9298 10.0932 23.8 10.2662L21.2 13.7338C21.0702 13.9068 21 14.1174 21 14.3337V28C21 28.2652 20.8946 28.5196 20.7071 28.7071C20.5196 28.8946 20.2652 29 20 29H12C11.7348 29 11.4804 28.8946 11.2929 28.7071C11.1054 28.5196 11 28.2652 11 28V14.3337C11 14.1174 10.9298 13.9068 10.8 13.7338L8.2 10.2662C8.07018 10.0932 8 9.88262 8 9.66625V4C8 3.73478 8.10536 3.48043 8.29289 3.29289C8.48043 3.10536 8.73478 3 9 3Z" stroke="#1C1C1E" stroke-width="2" stroke-linecap="round" stroke-linejoin="round"/>
<path d="M16 15V19" stroke="#1C1C1E" stroke-width="2" stroke-linecap="round" stroke-linejoin="round"/>
<path d="M8 8H24" stroke="#1C1C1E" stroke-width="2" stroke-linecap="round" stroke-linejoin="round"/>
</svg>
