<svg width="32" height="32" viewBox="0 0 32 32" fill="none" xmlns="http://www.w3.org/2000/svg">
<path opacity="0.2" d="M26 5H22V10C22 10.2652 21.8946 10.5196 21.7071 10.7071C21.5196 10.8946 21.2652 11 21 11H11C10.7348 11 10.4804 10.8946 10.2929 10.7071C10.1054 10.5196 10 10.2652 10 10V5.09125C9.89128 5.14035 9.79222 5.20851 9.7075 5.2925L5.2925 9.7075C5.10532 9.89489 5.00012 10.1489 5 10.4137V26C5 26.2652 5.10536 26.5196 5.29289 26.7071C5.48043 26.8946 5.73478 27 6 27H26C26.2652 27 26.5196 26.8946 26.7071 26.7071C26.8946 26.5196 27 26.2652 27 26V6C27 5.73478 26.8946 5.48043 26.7071 5.29289C26.5196 5.10536 26.2652 5 26 5ZM16 23C15.2089 23 14.4355 22.7654 13.7777 22.3259C13.1199 21.8864 12.6072 21.2616 12.3045 20.5307C12.0017 19.7998 11.9225 18.9956 12.0769 18.2196C12.2312 17.4437 12.6122 16.731 13.1716 16.1716C13.731 15.6122 14.4437 15.2312 15.2196 15.0769C15.9956 14.9225 16.7998 15.0017 17.5307 15.3045C18.2616 15.6072 18.8864 16.1199 19.3259 16.7777C19.7654 17.4355 20 18.2089 20 19C20 20.0609 19.5786 21.0783 18.8284 21.8284C18.0783 22.5786 17.0609 23 16 23Z" fill="#1C1C1E"/>
<path d="M5 10.4137V26C5 26.2652 5.10536 26.5196 5.29289 26.7071C5.48043 26.8946 5.73478 27 6 27H26C26.2652 27 26.5196 26.8946 26.7071 26.7071C26.8946 26.5196 27 26.2652 27 26V6C27 5.73478 26.8946 5.48043 26.7071 5.29289C26.5196 5.10536 26.2652 5 26 5H10.4137C10.1489 5.00012 9.89489 5.10532 9.7075 5.2925L5.2925 9.7075C5.10532 9.89489 5.00012 10.1489 5 10.4137Z" stroke="#1C1C1E" stroke-width="2" stroke-linecap="round" stroke-linejoin="round"/>
<path d="M16 23C18.2091 23 20 21.2091 20 19C20 16.7909 18.2091 15 16 15C13.7909 15 12 16.7909 12 19C12 21.2091 13.7909 23 16 23Z" stroke="#1C1C1E" stroke-width="2" stroke-linecap="round" stroke-linejoin="round"/>
<path d="M10 5.09V10C10 10.2652 10.1054 10.5196 10.2929 10.7071C10.4804 10.8946 10.7348 11 11 11H21C21.2652 11 21.5196 10.8946 21.7071 10.7071C21.8946 10.5196 22 10.2652 22 10V5" stroke="#1C1C1E" stroke-width="2" stroke-linecap="round" stroke-linejoin="round"/>
</svg>
