<svg width="32" height="32" viewBox="0 0 32 32" fill="none" xmlns="http://www.w3.org/2000/svg">
<path opacity="0.2" d="M11.0002 14.8975C10.9843 13.2625 11.2642 11.638 11.8265 10.1025C10.1602 8.75004 8.57024 8.22379 7.62524 8.02254C7.37663 7.96953 7.1172 8.01078 6.8973 8.13828C6.6774 8.26579 6.51272 8.47045 6.43524 8.71254C6.06024 9.87129 5.61274 12.1913 6.56024 15.1763C5.28624 14.9146 3.96977 14.942 2.70774 15.2563C2.45549 15.3285 2.24208 15.4976 2.11419 15.7267C1.98629 15.9558 1.95431 16.2262 2.02524 16.4788C2.40024 17.8788 3.58648 20.6125 7.24023 22.7963C10.894 24.98 14.079 25 16.0002 25C16.0002 25 11.0002 22.25 11.0002 14.8975Z" fill="#1C1C1E"/>
<path opacity="0.2" d="M29.2825 15.2499C28.0205 14.9356 26.704 14.9083 25.43 15.1699C26.3837 12.1849 25.93 9.86495 25.555 8.7062C25.4764 8.46733 25.3128 8.26567 25.0952 8.1396C24.8776 8.01353 24.6213 7.97183 24.375 8.02245C23.435 8.2237 21.845 8.74745 20.18 10.0999C20.7404 11.6366 21.0182 13.2619 21 14.8974C21 22.2499 16 24.9999 16 24.9999C17.9212 24.9999 21.0963 24.9774 24.75 22.7949C28.4037 20.6124 29.5863 17.8774 29.965 16.4774C30.0009 16.352 30.0117 16.2208 29.9968 16.0912C29.9819 15.9616 29.9416 15.8362 29.8782 15.7222C29.8148 15.6082 29.7296 15.5078 29.6274 15.4268C29.5251 15.3458 29.408 15.2857 29.2825 15.2499Z" fill="#1C1C1E"/>
<path d="M16 24.9999C16 24.9999 21 22.2499 21 14.8974C21 9.1474 17.9312 6.2049 16.6012 5.2024C16.4279 5.07199 16.2169 5.00146 16 5.00146C15.7831 5.00146 15.5721 5.07199 15.3988 5.2024C14.0688 6.2049 11 9.1424 11 14.8974C11 22.2499 16 24.9999 16 24.9999Z" stroke="#1C1C1E" stroke-width="2" stroke-linecap="round" stroke-linejoin="round"/>
<path d="M11.825 10.1C10.16 8.75005 8.56998 8.22379 7.62498 8.02254C7.37638 7.96953 7.11695 8.01078 6.89705 8.13828C6.67715 8.26579 6.51247 8.47045 6.43498 8.71254C5.94998 10.2125 5.33748 13.67 7.82373 17.9963C10.31 22.3225 14.4575 24.6713 15.995 24.9963" stroke="#1C1C1E" stroke-width="2" stroke-linecap="round" stroke-linejoin="round"/>
<path d="M20.175 10.1C21.84 8.74755 23.425 8.22504 24.37 8.02254C24.6186 7.96953 24.878 8.01078 25.0979 8.13828C25.3178 8.26579 25.4825 8.47045 25.56 8.71254C26.045 10.2125 26.6575 13.67 24.1712 17.9963C21.685 22.3225 17.5375 24.6713 16 25" stroke="#1C1C1E" stroke-width="2" stroke-linecap="round" stroke-linejoin="round"/>
<path d="M16 24.9999C17.9212 24.9999 21.0963 24.9774 24.75 22.7949C28.4037 20.6124 29.5863 17.8774 29.965 16.4774C30.0359 16.2248 30.0039 15.9544 29.876 15.7253C29.7482 15.4963 29.5347 15.3271 29.2825 15.2549C28.0205 14.9406 26.704 14.9133 25.43 15.1749" stroke="#1C1C1E" stroke-width="2" stroke-linecap="round" stroke-linejoin="round"/>
<path d="M6.57 15.1749C5.296 14.9133 3.97954 14.9406 2.7175 15.2549C2.46525 15.3271 2.25185 15.4963 2.12395 15.7253C1.99606 15.9544 1.96407 16.2248 2.035 16.4774C2.41 17.8774 3.59625 20.6112 7.25 22.7949C10.9038 24.9787 14.0788 24.9999 16 24.9999" stroke="#1C1C1E" stroke-width="2" stroke-linecap="round" stroke-linejoin="round"/>
</svg>
