<svg width="32" height="32" viewBox="0 0 32 32" fill="none" xmlns="http://www.w3.org/2000/svg">
<path opacity="0.2" d="M6 26C8.20914 26 10 24.2091 10 22C10 19.7909 8.20914 18 6 18C3.79086 18 2 19.7909 2 22C2 24.2091 3.79086 26 6 26Z" fill="#1C1C1E"/>
<path d="M6 26C8.20914 26 10 24.2091 10 22C10 19.7909 8.20914 18 6 18C3.79086 18 2 19.7909 2 22C2 24.2091 3.79086 26 6 26Z" stroke="#1C1C1E" stroke-width="2" stroke-linecap="round" stroke-linejoin="round"/>
<path d="M26 6L30 10L26 14" stroke="#1C1C1E" stroke-width="2" stroke-linecap="round" stroke-linejoin="round"/>
<path d="M10 22C21 22 15 10 26 10H30" stroke="#1C1C1E" stroke-width="2" stroke-linecap="round" stroke-linejoin="round"/>
</svg>
