<svg width="32" height="32" viewBox="0 0 32 32" fill="none" xmlns="http://www.w3.org/2000/svg">
<path opacity="0.2" d="M25.7933 17.0362C24.6846 16.395 22.7358 16.1138 20.8683 16C22.7358 15.8862 24.6846 15.605 25.7933 14.9637C26.2551 14.7047 26.6608 14.3565 26.9869 13.9395C27.3131 13.5224 27.5532 13.0448 27.6934 12.5342C27.8335 12.0237 27.8709 11.4904 27.8034 10.9653C27.7359 10.4402 27.5648 9.93367 27.3001 9.47517C27.0353 9.01667 26.6822 8.61529 26.2612 8.2943C25.8401 7.97332 25.3596 7.73911 24.8473 7.60526C24.3351 7.47141 23.8014 7.44058 23.2771 7.51457C22.7529 7.58855 22.2485 7.76587 21.7933 8.03625C20.6846 8.67625 19.4671 10.2213 18.4346 11.7863C19.2708 10.1088 19.9996 8.28125 19.9996 7C19.9996 5.93913 19.5781 4.92172 18.828 4.17157C18.0779 3.42143 17.0604 3 15.9996 3C14.9387 3 13.9213 3.42143 13.1712 4.17157C12.421 4.92172 11.9996 5.93913 11.9996 7C11.9996 8.28125 12.7283 10.1088 13.5646 11.7825C12.5321 10.2213 11.3146 8.67625 10.2058 8.0325C9.75063 7.76212 9.24629 7.5848 8.72204 7.51082C8.1978 7.43683 7.66408 7.46766 7.15184 7.60151C6.63959 7.73536 6.15902 7.96957 5.73798 8.29055C5.31694 8.61154 4.96381 9.01292 4.69907 9.47142C4.43433 9.92992 4.26325 10.4364 4.19574 10.9615C4.12823 11.4866 4.16564 12.0199 4.3058 12.5305C4.44596 13.041 4.68608 13.5187 5.01223 13.9357C5.33839 14.3528 5.7441 14.7009 6.20583 14.96C7.31458 15.6012 9.26333 15.8825 11.1308 15.9963C9.26333 16.11 7.31458 16.3912 6.20583 17.0325C5.7441 17.2916 5.33839 17.6397 5.01223 18.0568C4.68608 18.4738 4.44596 18.9515 4.3058 19.462C4.16564 19.9726 4.12823 20.5059 4.19574 21.031C4.26325 21.5561 4.43433 22.0626 4.69907 22.5211C4.96381 22.9796 5.31694 23.381 5.73798 23.7019C6.15902 24.0229 6.63959 24.2571 7.15184 24.391C7.66408 24.5248 8.1978 24.5557 8.72204 24.4817C9.24629 24.4077 9.75063 24.2304 10.2058 23.96C11.3146 23.32 12.5321 21.775 13.5646 20.21C12.7283 21.8912 11.9996 23.7188 11.9996 25C11.9996 26.0609 12.421 27.0783 13.1712 27.8284C13.9213 28.5786 14.9387 29 15.9996 29C17.0604 29 18.0779 28.5786 18.828 27.8284C19.5781 27.0783 19.9996 26.0609 19.9996 25C19.9996 23.7188 19.2708 21.8913 18.4346 20.2175C19.4671 21.7788 20.6846 23.3238 21.7933 23.9675C22.2485 24.2379 22.7529 24.4152 23.2771 24.4892C23.8014 24.5632 24.3351 24.5323 24.8473 24.3985C25.3596 24.2646 25.8401 24.0304 26.2612 23.7094C26.6822 23.3885 27.0353 22.9871 27.3001 22.5286C27.5648 22.0701 27.7359 21.5636 27.8034 21.0385C27.8709 20.5134 27.8335 19.9801 27.6934 19.4695C27.5532 18.959 27.3131 18.4813 26.9869 18.0643C26.6608 17.6472 26.2551 17.2991 25.7933 17.04V17.0362ZM19.4633 18C18.978 18.8403 18.2037 19.4756 17.2847 19.7873C16.3657 20.0991 15.3647 20.0662 14.4682 19.6946C13.5717 19.3231 12.8409 18.6384 12.4118 17.7679C11.9827 16.8975 11.8847 15.9008 12.136 14.9635C12.3874 14.0262 12.9709 13.2122 13.7778 12.6732C14.5848 12.1341 15.5602 11.9069 16.5223 12.0337C17.4844 12.1605 18.3676 12.6328 19.0073 13.3625C19.6471 14.0922 19.9997 15.0296 19.9996 16C20.001 16.7024 19.816 17.3926 19.4633 18Z" fill="#1C1C1E"/>
<path d="M16 20C18.2091 20 20 18.2091 20 16C20 13.7909 18.2091 12 16 12C13.7909 12 12 13.7909 12 16C12 18.2091 13.7909 20 16 20Z" stroke="#1C1C1E" stroke-width="2" stroke-linecap="round" stroke-linejoin="round"/>
<path d="M13.9637 12.5562C12.9762 10.695 12 8.48125 12 7C12 5.93913 12.4214 4.92172 13.1716 4.17157C13.9217 3.42143 14.9391 3 16 3C17.0609 3 18.0783 3.42143 18.8284 4.17157C19.5786 4.92172 20 5.93913 20 7C20 8.48125 19.0237 10.695 18.0362 12.5562" stroke="#1C1C1E" stroke-width="2" stroke-linecap="round" stroke-linejoin="round"/>
<path d="M11.9996 16.041C9.89333 15.966 7.48833 15.7048 6.20583 14.9635C5.7441 14.7045 5.33839 14.3563 5.01223 13.9393C4.68608 13.5222 4.44596 13.0446 4.3058 12.534C4.16564 12.0235 4.12823 11.4902 4.19574 10.9651C4.26325 10.4399 4.43433 9.93344 4.69907 9.47495C4.96381 9.01645 5.31694 8.61507 5.73798 8.29408C6.15902 7.97309 6.63959 7.73889 7.15184 7.60504C7.66408 7.47119 8.1978 7.44036 8.72204 7.51434C9.24629 7.58833 9.75063 7.76565 10.2058 8.03603C11.4883 8.77603 12.9183 10.7285 14.0358 12.5148" stroke="#1C1C1E" stroke-width="2" stroke-linecap="round" stroke-linejoin="round"/>
<path d="M14.0358 19.4852C12.9183 21.2715 11.4883 23.224 10.2058 23.964C9.75063 24.2344 9.24629 24.4117 8.72204 24.4857C8.1978 24.5597 7.66408 24.5288 7.15184 24.395C6.63959 24.2611 6.15902 24.0269 5.73798 23.7059C5.31694 23.3849 4.96381 22.9836 4.69907 22.5251C4.43433 22.0666 4.26325 21.5601 4.19574 21.035C4.12823 20.5098 4.16564 19.9765 4.3058 19.466C4.44596 18.9554 4.68608 18.4778 5.01223 18.0607C5.33839 17.6437 5.7441 17.2955 6.20583 17.0365C7.48833 16.2952 9.89333 16.0365 11.9996 15.959" stroke="#1C1C1E" stroke-width="2" stroke-linecap="round" stroke-linejoin="round"/>
<path d="M18.0362 19.4438C19.0237 21.3051 20 23.5188 20 25.0001C20 26.061 19.5786 27.0784 18.8284 27.8285C18.0783 28.5787 17.0609 29.0001 16 29.0001C14.9391 29.0001 13.9217 28.5787 13.1716 27.8285C12.4214 27.0784 12 26.061 12 25.0001C12 23.5188 12.9762 21.3051 13.9637 19.4438" stroke="#1C1C1E" stroke-width="2" stroke-linecap="round" stroke-linejoin="round"/>
<path d="M20.0001 15.959C22.1064 16.034 24.5114 16.2952 25.7939 17.0365C26.2556 17.2955 26.6613 17.6437 26.9875 18.0607C27.3136 18.4778 27.5537 18.9554 27.6939 19.466C27.8341 19.9765 27.8715 20.5098 27.804 21.035C27.7364 21.5601 27.5654 22.0666 27.3006 22.5251C27.0359 22.9836 26.6828 23.3849 26.2617 23.7059C25.8407 24.0269 25.3601 24.2611 24.8479 24.395C24.3356 24.5288 23.8019 24.5597 23.2777 24.4857C22.7534 24.4117 22.2491 24.2344 21.7939 23.964C20.5114 23.224 19.0814 21.2715 17.9639 19.4852" stroke="#1C1C1E" stroke-width="2" stroke-linecap="round" stroke-linejoin="round"/>
<path d="M17.9639 12.5148C19.0814 10.7285 20.5114 8.77603 21.7939 8.03603C22.2491 7.76565 22.7534 7.58833 23.2777 7.51434C23.8019 7.44036 24.3356 7.47119 24.8479 7.60504C25.3601 7.73889 25.8407 7.97309 26.2617 8.29408C26.6828 8.61507 27.0359 9.01645 27.3006 9.47495C27.5654 9.93344 27.7364 10.4399 27.804 10.9651C27.8715 11.4902 27.8341 12.0235 27.6939 12.534C27.5537 13.0446 27.3136 13.5222 26.9875 13.9393C26.6613 14.3563 26.2556 14.7045 25.7939 14.9635C24.5114 15.7048 22.1064 15.9635 20.0001 16.041" stroke="#1C1C1E" stroke-width="2" stroke-linecap="round" stroke-linejoin="round"/>
</svg>
