<svg width="32" height="32" viewBox="0 0 32 32" fill="none" xmlns="http://www.w3.org/2000/svg">
<path opacity="0.2" d="M9 5H25V25C25 25.5304 24.7893 26.0391 24.4142 26.4142C24.0391 26.7893 23.5304 27 23 27H7V7C7 6.46957 7.21071 5.96086 7.58579 5.58579C7.96086 5.21071 8.46957 5 9 5Z" fill="#1C1C1E"/>
<path d="M9 16H23" stroke="#1C1C1E" stroke-width="2" stroke-linecap="round" stroke-linejoin="round"/>
<path d="M7 27H10.6613C11.5982 27.0002 12.5055 26.6714 13.2249 26.071C13.9442 25.4707 14.43 24.6369 14.5975 23.715L17.4025 8.285C17.57 7.36313 18.0558 6.5293 18.7751 5.92895C19.4945 5.32861 20.4018 4.99984 21.3388 5H25" stroke="#1C1C1E" stroke-width="2" stroke-linecap="round" stroke-linejoin="round"/>
</svg>
