<svg width="32" height="32" viewBox="0 0 32 32" fill="none" xmlns="http://www.w3.org/2000/svg">
<path opacity="0.2" d="M15.4137 4H25C25.2652 4 25.5196 4.10536 25.7071 4.29289C25.8946 4.48043 26 4.73478 26 5V27C26 27.2652 25.8946 27.5196 25.7071 27.7071C25.5196 27.8946 25.2652 28 25 28H7C6.73478 28 6.48043 27.8946 6.29289 27.7071C6.10536 27.5196 6 27.2652 6 27V13.4137C6.00012 13.1489 6.10532 12.8949 6.2925 12.7075L14.7075 4.2925C14.8949 4.10532 15.1489 4.00012 15.4137 4Z" fill="#1C1C1E"/>
<path d="M15.4137 4H25C25.2652 4 25.5196 4.10536 25.7071 4.29289C25.8946 4.48043 26 4.73478 26 5V27C26 27.2652 25.8946 27.5196 25.7071 27.7071C25.5196 27.8946 25.2652 28 25 28H7C6.73478 28 6.48043 27.8946 6.29289 27.7071C6.10536 27.5196 6 27.2652 6 27V13.4137C6.00012 13.1489 6.10532 12.8949 6.2925 12.7075L14.7075 4.2925C14.8949 4.10532 15.1489 4.00012 15.4137 4Z" stroke="#1C1C1E" stroke-width="2" stroke-linecap="round" stroke-linejoin="round"/>
<path d="M17 8H22" stroke="#1C1C1E" stroke-width="2" stroke-linecap="round" stroke-linejoin="round"/>
<path d="M10 15L22 24" stroke="#1C1C1E" stroke-width="2" stroke-linecap="round" stroke-linejoin="round"/>
<path d="M22 15L10 24" stroke="#1C1C1E" stroke-width="2" stroke-linecap="round" stroke-linejoin="round"/>
<path d="M8.29231 10.7076L6.29231 8.70755C6.19933 8.61468 6.12557 8.50439 6.07525 8.38299C6.02493 8.2616 5.99902 8.13147 5.99902 8.00005C5.99902 7.86864 6.02493 7.73851 6.07525 7.61711C6.12557 7.49572 6.19933 7.38543 6.29231 7.29255L9.29231 4.29255C9.38518 4.19958 9.49547 4.12582 9.61687 4.07549C9.73827 4.02517 9.86839 3.99927 9.99981 3.99927C10.1312 3.99927 10.2614 4.02517 10.3828 4.07549C10.5041 4.12582 10.6144 4.19958 10.7073 4.29255L12.7073 6.29255" stroke="#1C1C1E" stroke-width="2" stroke-linecap="round" stroke-linejoin="round"/>
</svg>
