<svg width="32" height="32" viewBox="0 0 32 32" fill="none" xmlns="http://www.w3.org/2000/svg">
<path opacity="0.2" d="M25.9829 15.3974L28.0804 12.7724C27.7974 11.7089 27.3741 10.6879 26.8216 9.73617L23.4841 9.36117C23.2175 9.06079 22.9332 8.77654 22.6329 8.50992L22.2579 5.17117C21.3051 4.62196 20.2837 4.20162 19.2204 3.92117L16.5954 6.01742C16.194 5.99367 15.7917 5.99367 15.3904 6.01742L12.7654 3.91992C11.7053 4.20367 10.6877 4.62695 9.7391 5.17867L9.3641 8.51617C9.06372 8.78279 8.77947 9.06704 8.51285 9.36742L5.1741 9.74242C4.62489 10.6952 4.20455 11.7166 3.9241 12.7799L6.02035 15.4049C5.9966 15.8062 5.9966 16.2086 6.02035 16.6099L3.92285 19.2349C4.20576 20.2984 4.62907 21.3195 5.1816 22.2712L8.5191 22.6462C8.78572 22.9466 9.06997 23.2308 9.37035 23.4974L9.74535 26.8362C10.6981 27.3854 11.7195 27.8057 12.7829 28.0862L15.4079 25.9899C15.8092 26.0137 16.2115 26.0137 16.6129 25.9899L19.2379 28.0874C20.3013 27.8045 21.3224 27.3812 22.2741 26.8287L22.6491 23.4912C22.9495 23.2246 23.2337 22.9403 23.5004 22.6399L26.8391 22.2649C27.3883 21.3122 27.8086 20.2908 28.0891 19.2274L25.9929 16.6024C26.0133 16.2009 26.0099 15.7985 25.9829 15.3974ZM16.0004 20.9999C15.0114 20.9999 14.0447 20.7067 13.2225 20.1573C12.4003 19.6079 11.7594 18.827 11.381 17.9133C11.0025 16.9997 10.9035 15.9944 11.0964 15.0245C11.2894 14.0546 11.7656 13.1637 12.4648 12.4644C13.1641 11.7651 14.055 11.2889 15.0249 11.096C15.9948 10.9031 17.0001 11.0021 17.9138 11.3805C18.8274 11.759 19.6083 12.3998 20.1577 13.2221C20.7071 14.0443 21.0004 15.011 21.0004 15.9999C21.0004 17.326 20.4736 18.5978 19.5359 19.5355C18.5982 20.4731 17.3264 20.9999 16.0004 20.9999Z" fill="#1C1C1E"/>
<path d="M16 21C18.7614 21 21 18.7614 21 16C21 13.2386 18.7614 11 16 11C13.2386 11 11 13.2386 11 16C11 18.7614 13.2386 21 16 21Z" stroke="#1C1C1E" stroke-width="2" stroke-linecap="round" stroke-linejoin="round"/>
<path d="M5.17867 22.2612C4.62614 21.3095 4.20283 20.2884 3.91992 19.2249L6.01742 16.5999C5.99367 16.1986 5.99367 15.7962 6.01742 15.3949L3.92117 12.7699C4.2036 11.7063 4.62604 10.6848 5.17742 9.73242L8.51617 9.35742C8.78279 9.05704 9.06704 8.77279 9.36742 8.50617L9.74242 5.16867C10.6935 4.61992 11.7132 4.19999 12.7749 3.91992L15.3999 6.01742C15.8012 5.99367 16.2036 5.99367 16.6049 6.01742L19.2299 3.92117C20.2936 4.2036 21.315 4.62604 22.2674 5.17742L22.6424 8.51617C22.9428 8.78279 23.2271 9.06704 23.4937 9.36742L26.8312 9.74242C27.3837 10.6941 27.807 11.7152 28.0899 12.7787L25.9924 15.4037C26.0162 15.805 26.0162 16.2074 25.9924 16.6087L28.0887 19.2337C27.8082 20.297 27.3879 21.3184 26.8387 22.2712L23.4999 22.6462C23.2333 22.9466 22.9491 23.2308 22.6487 23.4974L22.2737 26.8349C21.322 27.3875 20.3009 27.8108 19.2374 28.0937L16.6124 25.9962C16.2111 26.0199 15.8087 26.0199 15.4074 25.9962L12.7824 28.0924C11.7191 27.812 10.6977 27.3916 9.74492 26.8424L9.36992 23.5037C9.06954 23.2371 8.78529 22.9528 8.51867 22.6524L5.17867 22.2612Z" stroke="#1C1C1E" stroke-width="2" stroke-linecap="round" stroke-linejoin="round"/>
</svg>
