<svg width="32" height="32" viewBox="0 0 32 32" fill="none" xmlns="http://www.w3.org/2000/svg">
<path opacity="0.2" d="M28.7626 13.595L24.7813 11.3275C24.7013 11.1825 24.6176 11.0412 24.5313 10.9012L24.5163 6.40125C23.2581 5.33939 21.8106 4.5247 20.2501 4L16.2501 6.23625C16.0826 6.23625 15.9138 6.23625 15.7501 6.23625L11.7501 4C10.19 4.52641 8.74334 5.34281 7.48631 6.40625L7.46631 10.9062C7.37881 11.0462 7.29506 11.1888 7.21631 11.3325L3.23631 13.595C2.92253 15.1821 2.92253 16.8154 3.23631 18.4025L7.21756 20.67C7.29756 20.815 7.38131 20.9563 7.46756 21.0963L7.48256 25.5963C8.74097 26.6591 10.1889 27.4747 11.7501 28L15.7501 25.7663C15.9176 25.7663 16.0863 25.7663 16.2501 25.7663L20.2501 28C21.8088 27.4732 23.2542 26.6568 24.5101 25.5938L24.5301 21.0938C24.6176 20.9538 24.7013 20.8112 24.7801 20.6675L28.7601 18.405C29.075 16.8172 29.0758 15.1831 28.7626 13.595ZM16.0001 21C15.0112 21 14.0445 20.7068 13.2222 20.1573C12.4 19.6079 11.7591 18.827 11.3807 17.9134C11.0022 16.9998 10.9032 15.9945 11.0961 15.0245C11.2891 14.0546 11.7653 13.1637 12.4645 12.4645C13.1638 11.7652 14.0547 11.289 15.0246 11.0961C15.9945 10.9031 16.9999 11.0022 17.9135 11.3806C18.8271 11.759 19.608 12.3999 20.1574 13.2221C20.7068 14.0444 21.0001 15.0111 21.0001 16C21.0001 17.3261 20.4733 18.5979 19.5356 19.5355C18.5979 20.4732 17.3261 21 16.0001 21Z" fill="#1C1C1E"/>
<path d="M16 21C18.7614 21 21 18.7614 21 16C21 13.2386 18.7614 11 16 11C13.2386 11 11 13.2386 11 16C11 18.7614 13.2386 21 16 21Z" stroke="#1C1C1E" stroke-width="2" stroke-linecap="round" stroke-linejoin="round"/>
<path d="M16.256 25.7638C16.0885 25.7638 15.9198 25.7638 15.756 25.7638L11.7498 28C10.1902 27.4754 8.74363 26.6611 7.48604 25.6L7.47104 21.1C7.38229 20.96 7.29854 20.8187 7.22104 20.6737L3.23729 18.405C2.92351 16.8179 2.92351 15.1846 3.23729 13.5975L7.21729 11.335C7.29854 11.1913 7.38229 11.0487 7.46729 10.9087L7.48729 6.40875C8.74374 5.34455 10.1899 4.52731 11.7498 4L15.7498 6.23625C15.9173 6.23625 16.086 6.23625 16.2498 6.23625L20.2498 4C21.8094 4.52461 23.256 5.33886 24.5135 6.4L24.5285 10.9C24.6173 11.04 24.701 11.1813 24.7785 11.3263L28.7598 13.5938C29.0736 15.1809 29.0736 16.8141 28.7598 18.4013L24.7798 20.6637C24.6985 20.8075 24.6148 20.95 24.5298 21.09L24.5098 25.59C23.2542 26.6544 21.8089 27.472 20.2498 28L16.256 25.7638Z" stroke="#1C1C1E" stroke-width="2" stroke-linecap="round" stroke-linejoin="round"/>
</svg>
