<svg width="32" height="32" viewBox="0 0 32 32" fill="none" xmlns="http://www.w3.org/2000/svg">
<path opacity="0.2" d="M26 16V25C26 25.2652 25.8946 25.5196 25.7071 25.7071C25.5196 25.8946 25.2652 26 25 26H7C6.73478 26 6.48043 25.8946 6.29289 25.7071C6.10536 25.5196 6 25.2652 6 25V16H26Z" fill="#1C1C1E"/>
<path d="M27 10H5C4.44772 10 4 10.4477 4 11V15C4 15.5523 4.44772 16 5 16H27C27.5523 16 28 15.5523 28 15V11C28 10.4477 27.5523 10 27 10Z" stroke="#1C1C1E" stroke-width="2" stroke-linecap="round" stroke-linejoin="round"/>
<path d="M26 16V25C26 25.2652 25.8946 25.5196 25.7071 25.7071C25.5196 25.8946 25.2652 26 25 26H7C6.73478 26 6.48043 25.8946 6.29289 25.7071C6.10536 25.5196 6 25.2652 6 25V16" stroke="#1C1C1E" stroke-width="2" stroke-linecap="round" stroke-linejoin="round"/>
<path d="M16 10V26" stroke="#1C1C1E" stroke-width="2" stroke-linecap="round" stroke-linejoin="round"/>
<path d="M22.0987 3.90159C23.2662 5.06909 23.335 7.03409 22.0987 8.12909C19.985 10.0003 16 10.0003 16 10.0003C16 10.0003 16 6.01534 17.875 3.90159C18.9662 2.66534 20.9312 2.73409 22.0987 3.90159Z" stroke="#1C1C1E" stroke-width="2" stroke-linecap="round" stroke-linejoin="round"/>
<path d="M9.90159 3.90159C8.73409 5.06909 8.66534 7.03409 9.90159 8.12909C12.0153 10.0003 16.0003 10.0003 16.0003 10.0003C16.0003 10.0003 16.0003 6.01534 14.1253 3.90159C13.0341 2.66534 11.0691 2.73409 9.90159 3.90159Z" stroke="#1C1C1E" stroke-width="2" stroke-linecap="round" stroke-linejoin="round"/>
</svg>
