<svg width="32" height="32" viewBox="0 0 32 32" fill="none" xmlns="http://www.w3.org/2000/svg">
<path opacity="0.2" d="M20.0889 17.5325C19.9698 17.46 19.8371 17.4127 19.6989 17.3938L16.8464 17.0088C16.6322 16.9798 16.4143 17.021 16.2255 17.1262C16.0366 17.2315 15.887 17.3951 15.7989 17.5925L14.0864 21.435C14.0068 21.6139 13.9815 21.8121 14.0135 22.0052C14.0454 22.1983 14.1334 22.3777 14.2664 22.5213L16.7339 25.0625C16.8409 25.1775 16.9193 25.3161 16.9627 25.4671C17.0061 25.618 17.0134 25.777 16.9839 25.9313L16.5877 27.9863C18.6779 27.8846 20.7053 27.238 22.4685 26.1107C24.2316 24.9834 25.6694 23.4146 26.6389 21.56L20.0889 17.5325Z" fill="#1C1C1E"/>
<path d="M16 28C22.6274 28 28 22.6274 28 16C28 9.37258 22.6274 4 16 4C9.37258 4 4 9.37258 4 16C4 22.6274 9.37258 28 16 28Z" stroke="#1C1C1E" stroke-width="2" stroke-linecap="round" stroke-linejoin="round"/>
<path d="M9.48535 15.4074L11.1504 12.4999C11.2382 12.3477 11.3647 12.2213 11.517 12.1335C11.6693 12.0458 11.8421 11.9997 12.0179 11.9999H14.1066C14.2755 12.0002 14.4416 11.9572 14.5891 11.8749L16.1254 11.0299C16.1929 10.9936 16.2555 10.9486 16.3116 10.8962L19.6766 7.85493C19.844 7.70265 19.9548 7.49809 19.9909 7.27467C20.0271 7.05125 19.9863 6.82219 19.8754 6.62493L18.5629 4.27368" stroke="#1C1C1E" stroke-width="2" stroke-linecap="round" stroke-linejoin="round"/>
<path d="M8.47209 6.65381L6.99959 10.1351C6.90013 10.3707 6.89476 10.6356 6.98459 10.8751L8.42209 14.7088C8.48115 14.8654 8.5786 15.0048 8.70548 15.114C8.83237 15.2232 8.98464 15.2987 9.14834 15.3338L11.8271 15.9101C11.9757 15.9419 12.115 16.0072 12.2346 16.101C12.3541 16.1948 12.4508 16.3146 12.5171 16.4513L12.9921 17.4351C13.074 17.6041 13.2019 17.7466 13.3611 17.8463C13.5202 17.946 13.7043 17.9988 13.8921 17.9988H15.6171" stroke="#1C1C1E" stroke-width="2" stroke-linecap="round" stroke-linejoin="round"/>
<path opacity="0.2" d="M9.48459 15.4075L11.1496 12.5C11.2375 12.3478 11.364 12.2214 11.5163 12.1336C11.6686 12.0458 11.8413 11.9998 12.0171 12H14.1058C14.2747 12.0003 14.4408 11.9573 14.5883 11.875L16.1246 11.03C16.1922 10.9936 16.2548 10.9487 16.3108 10.8963L19.6758 7.85501C19.8433 7.70274 19.9541 7.49817 19.9902 7.27475C20.0263 7.05133 19.9855 6.82227 19.8746 6.62501L18.5621 4.27376C17.7201 4.09138 16.8611 3.99961 15.9996 4.00001C13.2605 3.99584 10.603 4.93269 8.47209 6.65376L6.99959 10.135C6.90013 10.3707 6.89476 10.6355 6.98459 10.875L8.42209 14.7088C8.48115 14.8654 8.5786 15.0047 8.70548 15.1139C8.83237 15.2231 8.98464 15.2987 9.14834 15.3338L9.48459 15.4075Z" fill="#1C1C1E"/>
<path d="M26.6364 21.56L20.0889 17.5325C19.9698 17.46 19.8371 17.4127 19.6989 17.3938L16.8464 17.0088C16.6322 16.9798 16.4143 17.021 16.2255 17.1262C16.0366 17.2315 15.887 17.3951 15.7989 17.5925L14.0864 21.435C14.0068 21.6139 13.9815 21.8121 14.0135 22.0052C14.0454 22.1983 14.1334 22.3777 14.2664 22.5213L16.7339 25.0625C16.8409 25.1775 16.9193 25.3161 16.9627 25.4671C17.0061 25.618 17.0134 25.777 16.9839 25.9313L16.5877 27.9863" stroke="#1C1C1E" stroke-width="2" stroke-linecap="round" stroke-linejoin="round"/>
</svg>
