<svg width="32" height="32" viewBox="0 0 32 32" fill="none" xmlns="http://www.w3.org/2000/svg">
<path opacity="0.2" d="M20 16L7.29001 3.29004C7.19774 3.38015 7.12452 3.48789 7.0747 3.60685C7.02489 3.72581 6.99948 3.85357 7.00001 3.98254V28.0175C6.99948 28.1465 7.02489 28.2743 7.0747 28.3932C7.12452 28.5122 7.19774 28.6199 7.29001 28.71L20 16Z" fill="#1C1C1E"/>
<path d="M7 28.0175C7.00268 28.1924 7.05123 28.3636 7.14079 28.514C7.23035 28.6643 7.35779 28.7885 7.51038 28.8741C7.66296 28.9598 7.83535 29.0039 8.01033 29.0021C8.1853 29.0003 8.35674 28.9525 8.5075 28.8637L29.4875 16.855C29.6425 16.7724 29.7722 16.6492 29.8626 16.4986C29.953 16.348 30.0008 16.1756 30.0008 16C30.0008 15.8243 29.953 15.652 29.8626 15.5014C29.7722 15.3507 29.6425 15.2276 29.4875 15.145L8.5075 3.13622C8.35674 3.0474 8.1853 2.99969 8.01033 2.99786C7.83535 2.99603 7.66296 3.04015 7.51038 3.1258C7.35779 3.21146 7.23035 3.33565 7.14079 3.48598C7.05123 3.63631 7.00268 3.80751 7 3.98247V28.0175Z" stroke="#1C1C1E" stroke-width="2" stroke-linecap="round" stroke-linejoin="round"/>
<path d="M7.29102 3.29126L23.9998 20" stroke="#1C1C1E" stroke-width="2" stroke-linecap="round" stroke-linejoin="round"/>
<path d="M7.29102 28.7087L23.9973 12.0024" stroke="#1C1C1E" stroke-width="2" stroke-linecap="round" stroke-linejoin="round"/>
</svg>
