<svg width="32" height="32" viewBox="0 0 32 32" fill="none" xmlns="http://www.w3.org/2000/svg">
<path opacity="0.2" d="M28 7H4C3.73478 7 3.48043 7.10536 3.29289 7.29289C3.10536 7.48043 3 7.73478 3 8V24C3 24.2652 3.10536 24.5196 3.29289 24.7071C3.48043 24.8946 3.73478 25 4 25H12L15.2925 21.7075C15.3854 21.6145 15.4957 21.5408 15.6171 21.4904C15.7385 21.4401 15.8686 21.4142 16 21.4142C16.1314 21.4142 16.2615 21.4401 16.3829 21.4904C16.5043 21.5408 16.6146 21.6145 16.7075 21.7075L20 25H28C28.2652 25 28.5196 24.8946 28.7071 24.7071C28.8946 24.5196 29 24.2652 29 24V8C29 7.73478 28.8946 7.48043 28.7071 7.29289C28.5196 7.10536 28.2652 7 28 7ZM10 19C9.40666 19 8.82664 18.8241 8.33329 18.4944C7.83994 18.1648 7.45542 17.6962 7.22836 17.1481C7.0013 16.5999 6.94189 15.9967 7.05764 15.4147C7.1734 14.8328 7.45912 14.2982 7.87868 13.8787C8.29824 13.4591 8.83279 13.1734 9.41473 13.0576C9.99667 12.9419 10.5999 13.0013 11.1481 13.2284C11.6962 13.4554 12.1648 13.8399 12.4944 14.3333C12.8241 14.8266 13 15.4067 13 16C13 16.7956 12.6839 17.5587 12.1213 18.1213C11.5587 18.6839 10.7956 19 10 19ZM22 19C21.4067 19 20.8266 18.8241 20.3333 18.4944C19.8399 18.1648 19.4554 17.6962 19.2284 17.1481C19.0013 16.5999 18.9419 15.9967 19.0576 15.4147C19.1734 14.8328 19.4591 14.2982 19.8787 13.8787C20.2982 13.4591 20.8328 13.1734 21.4147 13.0576C21.9967 12.9419 22.5999 13.0013 23.1481 13.2284C23.6962 13.4554 24.1648 13.8399 24.4944 14.3333C24.8241 14.8266 25 15.4067 25 16C25 16.7956 24.6839 17.5587 24.1213 18.1213C23.5587 18.6839 22.7956 19 22 19Z" fill="#1C1C1E"/>
<path d="M3 24V8C3 7.73478 3.10536 7.48043 3.29289 7.29289C3.48043 7.10536 3.73478 7 4 7H28C28.2652 7 28.5196 7.10536 28.7071 7.29289C28.8946 7.48043 29 7.73478 29 8V24C29 24.2652 28.8946 24.5196 28.7071 24.7071C28.5196 24.8946 28.2652 25 28 25H20L16.7075 21.7075C16.6146 21.6145 16.5043 21.5408 16.3829 21.4904C16.2615 21.4401 16.1314 21.4142 16 21.4142C15.8686 21.4142 15.7385 21.4401 15.6171 21.4904C15.4957 21.5408 15.3854 21.6145 15.2925 21.7075L12 25H4C3.73478 25 3.48043 24.8946 3.29289 24.7071C3.10536 24.5196 3 24.2652 3 24Z" stroke="#1C1C1E" stroke-width="2" stroke-linecap="round" stroke-linejoin="round"/>
<path d="M10 19C11.6569 19 13 17.6569 13 16C13 14.3431 11.6569 13 10 13C8.34315 13 7 14.3431 7 16C7 17.6569 8.34315 19 10 19Z" stroke="#1C1C1E" stroke-width="2" stroke-linecap="round" stroke-linejoin="round"/>
<path d="M22 19C23.6569 19 25 17.6569 25 16C25 14.3431 23.6569 13 22 13C20.3431 13 19 14.3431 19 16C19 17.6569 20.3431 19 22 19Z" stroke="#1C1C1E" stroke-width="2" stroke-linecap="round" stroke-linejoin="round"/>
</svg>
