<svg width="32" height="32" viewBox="0 0 32 32" fill="none" xmlns="http://www.w3.org/2000/svg">
<path opacity="0.2" d="M29 7H2V23H29C29.2652 23 29.5196 22.8946 29.7071 22.7071C29.8946 22.5196 30 22.2652 30 22V8C30 7.73478 29.8946 7.48043 29.7071 7.29289C29.5196 7.10536 29.2652 7 29 7ZM10 19C9.20887 19 8.43552 18.7654 7.77772 18.3259C7.11992 17.8864 6.60723 17.2616 6.30448 16.5307C6.00173 15.7998 5.92252 14.9956 6.07686 14.2196C6.2312 13.4437 6.61216 12.731 7.17157 12.1716C7.73098 11.6122 8.44371 11.2312 9.21964 11.0769C9.99556 10.9225 10.7998 11.0017 11.5307 11.3045C12.2616 11.6072 12.8864 12.1199 13.3259 12.7777C13.7654 13.4355 14 14.2089 14 15C14 16.0609 13.5786 17.0783 12.8284 17.8284C12.0783 18.5786 11.0609 19 10 19ZM22 19C21.2089 19 20.4355 18.7654 19.7777 18.3259C19.1199 17.8864 18.6072 17.2616 18.3045 16.5307C18.0017 15.7998 17.9225 14.9956 18.0769 14.2196C18.2312 13.4437 18.6122 12.731 19.1716 12.1716C19.731 11.6122 20.4437 11.2312 21.2196 11.0769C21.9956 10.9225 22.7998 11.0017 23.5307 11.3045C24.2616 11.6072 24.8864 12.1199 25.3259 12.7777C25.7654 13.4355 26 14.2089 26 15C26 16.0609 25.5786 17.0783 24.8284 17.8284C24.0783 18.5786 23.0609 19 22 19Z" fill="#1C1C1E"/>
<path d="M2 23H29C29.2652 23 29.5196 22.8946 29.7071 22.7071C29.8946 22.5196 30 22.2652 30 22V8C30 7.73478 29.8946 7.48043 29.7071 7.29289C29.5196 7.10536 29.2652 7 29 7H2V26" stroke="#1C1C1E" stroke-width="2" stroke-linecap="round" stroke-linejoin="round"/>
<path d="M22 19C24.2091 19 26 17.2091 26 15C26 12.7909 24.2091 11 22 11C19.7909 11 18 12.7909 18 15C18 17.2091 19.7909 19 22 19Z" stroke="#1C1C1E" stroke-width="2" stroke-linecap="round" stroke-linejoin="round"/>
<path d="M10 26V23" stroke="#1C1C1E" stroke-width="2" stroke-linecap="round" stroke-linejoin="round"/>
<path d="M6 23V26" stroke="#1C1C1E" stroke-width="2" stroke-linecap="round" stroke-linejoin="round"/>
<path d="M14 26V23" stroke="#1C1C1E" stroke-width="2" stroke-linecap="round" stroke-linejoin="round"/>
<path d="M19.1709 12.1709L24.8284 17.8284" stroke="#1C1C1E" stroke-width="2" stroke-linecap="round" stroke-linejoin="round"/>
<path d="M10 19C12.2091 19 14 17.2091 14 15C14 12.7909 12.2091 11 10 11C7.79086 11 6 12.7909 6 15C6 17.2091 7.79086 19 10 19Z" stroke="#1C1C1E" stroke-width="2" stroke-linecap="round" stroke-linejoin="round"/>
<path d="M7.1709 12.1709L12.8284 17.8284" stroke="#1C1C1E" stroke-width="2" stroke-linecap="round" stroke-linejoin="round"/>
</svg>
