<svg width="32" height="32" viewBox="0 0 32 32" fill="none" xmlns="http://www.w3.org/2000/svg">
<path opacity="0.2" d="M19.3998 12.6C16.5248 9.72501 12.4535 9.14626 10.2998 11.3C9.88615 11.7155 9.56237 12.2116 9.34855 12.7575C9.19692 13.1224 8.94201 13.4351 8.61514 13.6572C8.28827 13.8792 7.90366 14.001 7.50855 14.0075C5.9998 14.055 4.6248 14.5763 3.5998 15.6C0.949799 18.25 1.66605 23.265 5.1998 26.8C8.73355 30.335 13.7485 31.05 16.3998 28.4C17.4235 27.375 17.9448 26 17.9998 24.4913C18.0063 24.0962 18.1281 23.7115 18.3501 23.3847C18.5722 23.0578 18.8849 22.8029 19.2498 22.6513C19.7957 22.4374 20.2918 22.1137 20.7073 21.7C22.8535 19.5463 22.271 15.4725 19.3998 12.6ZM13.9998 21C13.4065 21 12.8264 20.8241 12.3331 20.4944C11.8397 20.1648 11.4552 19.6962 11.2282 19.1481C11.0011 18.5999 10.9417 17.9967 11.0574 17.4147C11.1732 16.8328 11.4589 16.2982 11.8785 15.8787C12.298 15.4591 12.8326 15.1734 13.4145 15.0577C13.9965 14.9419 14.5997 15.0013 15.1478 15.2284C15.696 15.4554 16.1646 15.84 16.4942 16.3333C16.8239 16.8267 16.9998 17.4067 16.9998 18C16.9998 18.7957 16.6837 19.5587 16.1211 20.1213C15.5585 20.6839 14.7954 21 13.9998 21Z" fill="#1C1C1E"/>
<path d="M25.5 1.5L30.5 6.5" stroke="#1C1C1E" stroke-width="2" stroke-linecap="round" stroke-linejoin="round"/>
<path d="M22 7L25 10" stroke="#1C1C1E" stroke-width="2" stroke-linecap="round" stroke-linejoin="round"/>
<path d="M7.50892 13.9999C7.90403 13.9934 8.28864 13.8716 8.61551 13.6495C8.94238 13.4275 9.19728 13.1148 9.34892 12.7499C9.56364 12.2067 9.88738 11.7132 10.3002 11.2999C12.4539 9.14613 16.5277 9.72863 19.4002 12.5999C22.2727 15.4711 22.8539 19.5461 20.7002 21.6999C20.2847 22.1135 19.7886 22.4373 19.2427 22.6511C18.8778 22.8028 18.5651 23.0577 18.343 23.3845C18.1209 23.7114 17.9992 24.096 17.9927 24.4911C17.9452 25.9999 17.4239 27.3749 16.4002 28.3999C13.7502 31.0499 8.73517 30.3336 5.20017 26.7999C1.66517 23.2661 0.950167 18.2499 3.60017 15.5999C4.62517 14.5761 6.00017 14.0549 7.50892 13.9999Z" stroke="#1C1C1E" stroke-width="2" stroke-linecap="round" stroke-linejoin="round"/>
<path d="M7 21L11 25" stroke="#1C1C1E" stroke-width="2" stroke-linecap="round" stroke-linejoin="round"/>
<path d="M14 21C15.6569 21 17 19.6569 17 18C17 16.3431 15.6569 15 14 15C12.3431 15 11 16.3431 11 18C11 19.6569 12.3431 21 14 21Z" stroke="#1C1C1E" stroke-width="2" stroke-linecap="round" stroke-linejoin="round"/>
<path d="M14 15L26.5 2.5" stroke="#1C1C1E" stroke-width="2" stroke-linecap="round" stroke-linejoin="round"/>
<path d="M17 18L29.5 5.5" stroke="#1C1C1E" stroke-width="2" stroke-linecap="round" stroke-linejoin="round"/>
</svg>
