<svg width="32" height="32" viewBox="0 0 32 32" fill="none" xmlns="http://www.w3.org/2000/svg">
<path opacity="0.2" d="M21 4L3.835 6.86125C3.60164 6.90029 3.38968 7.02081 3.2368 7.20138C3.08391 7.38196 3.00001 7.6109 3 7.8475V14.1525C3.00001 14.3891 3.08391 14.618 3.2368 14.7986C3.38968 14.9792 3.60164 15.0997 3.835 15.1388L21 18C22.8565 18 24.637 17.2625 25.9497 15.9497C27.2625 14.637 28 12.8565 28 11C28 9.14348 27.2625 7.36301 25.9497 6.05025C24.637 4.7375 22.8565 4 21 4ZM21 14C20.4067 14 19.8266 13.8241 19.3333 13.4944C18.8399 13.1648 18.4554 12.6962 18.2284 12.1481C18.0013 11.5999 17.9419 10.9967 18.0576 10.4147C18.1734 9.83279 18.4591 9.29824 18.8787 8.87868C19.2982 8.45912 19.8328 8.1734 20.4147 8.05764C20.9967 7.94189 21.5999 8.0013 22.1481 8.22836C22.6962 8.45542 23.1648 8.83994 23.4944 9.33329C23.8241 9.82664 24 10.4067 24 11C24 11.7956 23.6839 12.5587 23.1213 13.1213C22.5587 13.6839 21.7956 14 21 14Z" fill="#1C1C1E"/>
<path d="M21 14C22.6569 14 24 12.6569 24 11C24 9.34315 22.6569 8 21 8C19.3431 8 18 9.34315 18 11C18 12.6569 19.3431 14 21 14Z" stroke="#1C1C1E" stroke-width="2" stroke-linecap="round" stroke-linejoin="round"/>
<path d="M3 14.1525V7.8475C3.00001 7.6109 3.08391 7.38196 3.2368 7.20138C3.38968 7.02081 3.60164 6.90029 3.835 6.86125L21 4C22.8565 4 24.637 4.7375 25.9497 6.05025C27.2625 7.36301 28 9.14348 28 11C28 12.8565 27.2625 14.637 25.9497 15.9497C24.637 17.2625 22.8565 18 21 18L3.835 15.1388C3.60164 15.0997 3.38968 14.9792 3.2368 14.7986C3.08391 14.618 3.00001 14.3891 3 14.1525Z" stroke="#1C1C1E" stroke-width="2" stroke-linecap="round" stroke-linejoin="round"/>
<path d="M19 26V27C19 28.0609 19.4214 29.0783 20.1716 29.8284C20.9217 30.5786 21.9391 31 23 31H25" stroke="#1C1C1E" stroke-width="2" stroke-linecap="round" stroke-linejoin="round"/>
<path d="M25.3113 16.5146L21.2663 25.4134C21.1868 25.5881 21.0588 25.7363 20.8974 25.8403C20.7361 25.9443 20.5482 25.9996 20.3563 25.9996H18C17.7348 25.9996 17.4804 25.8943 17.2929 25.7068C17.1054 25.5192 17 25.2649 17 24.9996V17.3334" stroke="#1C1C1E" stroke-width="2" stroke-linecap="round" stroke-linejoin="round"/>
</svg>
