<svg width="32" height="32" viewBox="0 0 32 32" fill="none" xmlns="http://www.w3.org/2000/svg">
<path opacity="0.2" d="M17.4999 18.4996L20.9999 14.9996L23.4999 17.4996L28.5074 12.4921L22.2786 6.22084C20.6989 4.64033 18.6753 3.57843 16.4771 3.17648C14.2789 2.77454 12.0104 3.05162 9.97363 3.97084L16.9999 10.9996L13.4999 14.4996L17.4999 18.4996Z" fill="#1C1C1E"/>
<path d="M13.5 14.5L17.5 18.5" stroke="#1C1C1E" stroke-width="2" stroke-linecap="round" stroke-linejoin="round"/>
<path d="M28.5075 12.4922L23.5 17.4997" stroke="#1C1C1E" stroke-width="2" stroke-linecap="round" stroke-linejoin="round"/>
<path d="M5.00016 8.00017L6.72141 6.22142C7.74288 5.19981 8.95558 4.38941 10.2903 3.8365C11.625 3.2836 13.0555 2.99902 14.5002 2.99902C15.9448 2.99902 17.3754 3.2836 18.7101 3.8365C20.0447 4.38941 21.2574 5.19981 22.2789 6.22142L30.7077 14.7077C30.8951 14.8952 31.0003 15.1494 31.0003 15.4145C31.0003 15.6797 30.8951 15.9339 30.7077 16.1214L27.1252 19.7077C26.9376 19.8951 26.6834 20.0003 26.4183 20.0003C26.1532 20.0003 25.8989 19.8951 25.7114 19.7077L21.0002 15.0002L8.29266 27.7077C8.10514 27.8951 7.85089 28.0003 7.58579 28.0003C7.32068 28.0003 7.06643 27.8951 6.87891 27.7077L4.29266 25.1252C4.10527 24.9377 4 24.6834 4 24.4183C4 24.1532 4.10527 23.8989 4.29266 23.7114L17.0002 11.0002L9.97266 3.97267" stroke="#1C1C1E" stroke-width="2" stroke-linecap="round" stroke-linejoin="round"/>
</svg>
