<svg width="32" height="32" viewBox="0 0 32 32" fill="none" xmlns="http://www.w3.org/2000/svg">
<path opacity="0.2" d="M26.2149 12.6964L23.5761 8.12517C23.2777 7.608 22.7861 7.23053 22.2095 7.07581C21.6328 6.9211 21.0183 7.0018 20.5011 7.30017C19.9839 7.59854 19.6065 8.09013 19.4518 8.6668C19.297 9.24348 19.3777 9.858 19.6761 10.3752L16.6474 5.12517C16.4996 4.86925 16.3029 4.64494 16.0685 4.46505C15.8341 4.28515 15.5665 4.15319 15.2811 4.0767C14.9957 4.00021 14.698 3.98068 14.405 4.01924C14.112 4.0578 13.8295 4.15368 13.5736 4.30142C13.3177 4.44915 13.0934 4.64585 12.9135 4.88028C12.7336 5.1147 12.6016 5.38226 12.5251 5.66769C12.4486 5.95311 12.4291 6.25081 12.4677 6.54378C12.5062 6.83675 12.6021 7.11925 12.7499 7.37517L12.0349 6.12517C11.8871 5.86925 11.6904 5.64495 11.456 5.46505C11.2216 5.28515 10.954 5.15319 10.6686 5.0767C10.3832 5.00021 10.0855 4.98068 9.79249 5.01924C9.49952 5.0578 9.21702 5.15368 8.9611 5.30142C8.70519 5.44915 8.48088 5.64585 8.30099 5.88028C8.12109 6.1147 7.98913 6.38226 7.91263 6.66769C7.83614 6.95311 7.81662 7.25081 7.85518 7.54378C7.89373 7.83675 7.98962 8.11925 8.13735 8.37517L9.7261 11.1252L10.4424 12.3752C10.2882 12.1191 10.1866 11.8348 10.1435 11.539C10.1004 11.2432 10.1166 10.9418 10.1914 10.6523C10.2661 10.3629 10.3977 10.0912 10.5786 9.85324C10.7594 9.61524 10.9859 9.41567 11.2448 9.26618C11.5036 9.11669 11.7897 9.02029 12.0862 8.98259C12.3828 8.9449 12.6839 8.96667 12.9719 9.04664C13.2599 9.12661 13.5291 9.26318 13.7638 9.44836C13.9985 9.63354 14.1939 9.86362 14.3386 10.1252L17.3236 15.2827C17.0692 14.7626 17.025 14.1644 17.2003 13.6126C17.3756 13.0608 17.7569 12.5978 18.2648 12.3199C18.7728 12.042 19.3683 11.9707 19.9275 12.1206C20.4867 12.2706 20.9666 12.6304 21.2674 13.1252L23.7924 17.5002C24.8363 19.3033 25.2191 21.414 24.8749 23.4689C26.2403 22.0639 27.11 20.2517 27.3518 18.3074C27.5937 16.3632 27.1945 14.3931 26.2149 12.6964Z" fill="#1C1C1E"/>
<path d="M21 1V3" stroke="#1C1C1E" stroke-width="2" stroke-linecap="round" stroke-linejoin="round"/>
<path d="M26 2.62793L25 4.26668" stroke="#1C1C1E" stroke-width="2" stroke-linecap="round" stroke-linejoin="round"/>
<path d="M29.4571 7L27.5771 7.60625" stroke="#1C1C1E" stroke-width="2" stroke-linecap="round" stroke-linejoin="round"/>
<path d="M10.4425 12.3752L9.72627 11.1252C9.4279 10.6083 8.93644 10.2312 8.36 10.0767C7.78356 9.92222 7.16936 10.0031 6.65252 10.3014C6.13568 10.5998 5.75853 11.0913 5.60405 11.6677C5.44956 12.2441 5.5304 12.8583 5.82877 13.3752L8.20377 17.4889" stroke="#1C1C1E" stroke-width="2" stroke-linecap="round" stroke-linejoin="round"/>
<path d="M13.6935 18.0004L10.4435 12.3754C10.2893 12.1193 10.1877 11.835 10.1446 11.5392C10.1015 11.2434 10.1178 10.942 10.1925 10.6526C10.2672 10.3631 10.3988 10.0915 10.5797 9.85346C10.7606 9.61546 10.987 9.41588 11.2459 9.26639C11.5048 9.11691 11.7908 9.0205 12.0874 8.9828C12.3839 8.94511 12.685 8.96688 12.973 9.04685C13.2611 9.12682 13.5303 9.26339 13.7649 9.44857C13.9996 9.63375 14.195 9.86383 14.3397 10.1254L18.896 18.0004" stroke="#1C1C1E" stroke-width="2" stroke-linecap="round" stroke-linejoin="round"/>
<path d="M12.7499 7.37517L12.0349 6.12517C11.8871 5.86925 11.6904 5.64494 11.456 5.46505C11.2216 5.28515 10.954 5.15319 10.6686 5.0767C10.3832 5.00021 10.0855 4.98068 9.79249 5.01924C9.49952 5.0578 9.21702 5.15368 8.9611 5.30142C8.70519 5.44915 8.48088 5.64585 8.30099 5.88028C8.12109 6.1147 7.98913 6.38226 7.91263 6.66769C7.83614 6.95311 7.81662 7.25081 7.85518 7.54378C7.89373 7.83675 7.98962 8.11925 8.13735 8.37517L9.7261 11.1252" stroke="#1C1C1E" stroke-width="2" stroke-linecap="round" stroke-linejoin="round"/>
<path d="M14.3389 10.1254L12.7501 7.37538C12.5959 7.11929 12.4943 6.83503 12.4512 6.53923C12.4081 6.24342 12.4244 5.942 12.4991 5.65255C12.5738 5.36311 12.7055 5.09146 12.8863 4.85346C13.0672 4.61546 13.2937 4.41588 13.5525 4.26639C13.8114 4.11691 14.0975 4.0205 14.394 3.9828C14.6906 3.94511 14.9916 3.96688 15.2797 4.04685C15.5677 4.12682 15.8369 4.26339 16.0716 4.44857C16.3062 4.63375 16.5016 4.86383 16.6464 5.12538L21.2714 13.1254" stroke="#1C1C1E" stroke-width="2" stroke-linecap="round" stroke-linejoin="round"/>
<path d="M24.8746 23.4702C26.24 22.0648 27.1094 20.2522 27.3508 18.3077C27.5922 16.3632 27.1924 14.393 26.2121 12.6964L23.5759 8.12517C23.4281 7.86926 23.2314 7.64495 22.997 7.46505C22.7626 7.28516 22.495 7.1532 22.2096 7.0767C21.6332 6.92222 21.019 7.00305 20.5021 7.30142C19.9853 7.59979 19.6081 8.09125 19.4537 8.66769C19.2992 9.24413 19.38 9.85833 19.6784 10.3752" stroke="#1C1C1E" stroke-width="2" stroke-linecap="round" stroke-linejoin="round"/>
<path d="M10.2264 21L7.69892 16.625C7.40055 16.1082 6.90909 15.7311 6.33265 15.5766C5.75621 15.4221 5.14201 15.5029 4.62517 15.8013C4.10833 16.0997 3.73119 16.5911 3.5767 17.1676C3.42222 17.744 3.50305 18.3582 3.80142 18.875L5.00017 20.9488L8.20392 26.5C9.3974 28.5672 11.3632 30.0757 13.6688 30.6935C15.9745 31.3113 18.4311 30.9879 20.4983 29.7944C22.5655 28.6009 24.0739 26.6352 24.6917 24.3295C25.3095 22.0239 24.9861 19.5672 23.7927 17.5L21.2677 13.125C21.127 12.8562 20.9334 12.6185 20.6985 12.4264C20.4636 12.2342 20.1923 12.0916 19.9009 12.0071C19.6094 11.9225 19.3039 11.8978 19.0027 11.9344C18.7014 11.971 18.4107 12.0681 18.148 12.22C17.8853 12.3719 17.656 12.5753 17.4739 12.8181C17.2919 13.0608 17.1608 13.3379 17.0886 13.6327C17.0164 13.9274 17.0046 14.2337 17.0538 14.5331C17.1031 14.8326 17.2124 15.1189 17.3752 15.375" stroke="#1C1C1E" stroke-width="2" stroke-linecap="round" stroke-linejoin="round"/>
</svg>
