<svg width="32" height="32" viewBox="0 0 32 32" fill="none" xmlns="http://www.w3.org/2000/svg">
<path opacity="0.2" d="M22 11H8C7.73478 11 7.48043 11.1054 7.29289 11.2929C7.10536 11.4804 7 11.7348 7 12V25H17.0525C16.9353 24.4192 17.0282 23.8157 17.3146 23.297C17.601 22.7783 18.0623 22.3782 18.6163 22.168C19.1702 21.9579 19.7809 21.9513 20.3392 22.1494C20.8976 22.3476 21.3675 22.7376 21.665 23.25L23 25.2887V12C23 11.7348 22.8946 11.4804 22.7071 11.2929C22.5196 11.1054 22.2652 11 22 11Z" fill="#1C1C1E"/>
<path d="M15 16V2" stroke="#1C1C1E" stroke-width="2" stroke-linecap="round" stroke-linejoin="round"/>
<path d="M11 6L15 2L19 6" stroke="#1C1C1E" stroke-width="2" stroke-linecap="round" stroke-linejoin="round"/>
<path d="M23 16C24.5251 16.9149 25.7872 18.2093 26.6635 19.7569C27.5397 21.3046 28.0002 23.0528 28 24.8312V30" stroke="#1C1C1E" stroke-width="2" stroke-linecap="round" stroke-linejoin="round"/>
<path d="M10 11H8C7.73478 11 7.48043 11.1054 7.29289 11.2929C7.10536 11.4804 7 11.7348 7 12V25" stroke="#1C1C1E" stroke-width="2" stroke-linecap="round" stroke-linejoin="round"/>
<path d="M20.117 30L17.3345 25.75C17.0082 25.1761 16.9222 24.4964 17.0952 23.8593C17.2681 23.2222 17.6861 22.6794 18.2578 22.3493C18.8295 22.0192 19.5086 21.9287 20.1468 22.0974C20.7851 22.2661 21.3307 22.6805 21.6645 23.25L22.9995 25.2887V12C22.9995 11.7348 22.8942 11.4804 22.7066 11.2929C22.5191 11.1054 22.2647 11 21.9995 11H19.9995" stroke="#1C1C1E" stroke-width="2" stroke-linecap="round" stroke-linejoin="round"/>
</svg>
