<svg width="32" height="32" viewBox="0 0 32 32" fill="none" xmlns="http://www.w3.org/2000/svg">
<path opacity="0.2" d="M26.6583 12.9998L24.4995 9.24984C24.1657 8.68032 23.6201 8.26598 22.9818 8.09724C22.3436 7.9285 21.6645 8.01906 21.0928 8.34915C20.5211 8.67924 20.1031 9.22207 19.9302 9.85917C19.7572 10.4963 19.8432 11.1759 20.1695 11.7498L16.4195 5.24983C16.088 4.67448 15.5415 4.25439 14.9002 4.08197C14.259 3.90956 13.5755 3.99894 13.0002 4.33046C12.4248 4.66198 12.0047 5.20848 11.8323 5.84974C11.6599 6.491 11.7493 7.17448 12.0808 7.74984L11.2158 6.24984C10.8843 5.67548 10.3382 5.25634 9.6976 5.08462C9.05704 4.91291 8.37451 5.00269 7.80015 5.33421C7.22579 5.66573 6.80665 6.21184 6.63494 6.85239C6.46323 7.49294 6.55301 8.17548 6.88453 8.74984L8.66453 11.8336C8.33065 11.2641 7.78506 10.8497 7.14682 10.681C6.50858 10.5123 5.82951 10.6028 5.25779 10.9329C4.68607 11.263 4.26812 11.8058 4.09515 12.4429C3.92218 13.08 4.00823 13.7597 4.33453 14.3336L9.33703 22.9998C10.6631 25.2968 12.8473 26.9729 15.4092 27.6594C17.9711 28.3459 20.7007 27.9865 22.9977 26.6605C25.2946 25.3344 26.9707 23.1502 27.6572 20.5883C28.3437 18.0264 27.9844 15.2968 26.6583 12.9998Z" fill="#1C1C1E"/>
<path d="M12.0816 7.75029C11.7553 7.1764 11.6693 6.49674 11.8422 5.85963C12.0152 5.22253 12.4331 4.6797 13.0049 4.34961C13.5766 4.01952 14.2557 3.92896 14.8939 4.0977C15.5321 4.26644 16.0777 4.68078 16.4116 5.25029L20.1616 11.7503" stroke="#1C1C1E" stroke-width="2" stroke-linecap="round" stroke-linejoin="round"/>
<path d="M8.66467 11.8333L6.88467 8.74952C6.55315 8.17516 6.46337 7.49263 6.63509 6.85207C6.8068 6.21152 7.22594 5.66541 7.8003 5.33389C8.37466 5.00237 9.05719 4.91259 9.69774 5.0843C10.3383 5.25602 10.8844 5.67516 11.2159 6.24952L15.1122 12.9995" stroke="#1C1C1E" stroke-width="2" stroke-linecap="round" stroke-linejoin="round"/>
<path d="M19.8587 20.0002C19.139 18.9367 18.8561 17.637 19.0686 16.3706C19.281 15.1042 19.9726 13.9681 21 13.1977L20.165 11.7502C19.8334 11.1753 19.7439 10.4923 19.9159 9.85139C20.088 9.21049 20.5076 8.66418 21.0825 8.33266C21.6573 8.00114 22.3403 7.91156 22.9812 8.08363C23.6221 8.25569 24.1684 8.67531 24.5 9.25016L26.6637 13.0002C27.3203 14.1378 27.7464 15.3937 27.9177 16.696C28.0889 17.9983 28.002 19.3216 27.6619 20.5904C27.3217 21.8591 26.735 23.0484 25.9352 24.0904C25.1354 25.1324 24.1382 26.0067 23.0006 26.6633C20.703 27.9894 17.9727 28.3484 15.4104 27.6615C12.848 26.9745 10.6635 25.2978 9.33746 23.0002L4.33746 14.3352C4.01116 13.7613 3.92511 13.0816 4.09808 12.4445C4.27105 11.8074 4.689 11.2646 5.26072 10.9345C5.83244 10.6044 6.51151 10.5138 7.14975 10.6826C7.78799 10.8513 8.33358 11.2656 8.66746 11.8352L11.0712 16.0002" stroke="#1C1C1E" stroke-width="2" stroke-linecap="round" stroke-linejoin="round"/>
<path d="M24 4.22266C24.827 4.44104 25.6026 4.82099 26.2821 5.34061C26.9615 5.86022 27.5314 6.50922 27.9587 7.25016L28 7.32141" stroke="#1C1C1E" stroke-width="2" stroke-linecap="round" stroke-linejoin="round"/>
<path d="M9.3275 29C7.93295 27.8982 6.7612 26.5406 5.875 25" stroke="#1C1C1E" stroke-width="2" stroke-linecap="round" stroke-linejoin="round"/>
</svg>
