<svg width="32" height="32" viewBox="0 0 32 32" fill="none" xmlns="http://www.w3.org/2000/svg">
<path opacity="0.2" d="M6 26H2C1.73478 26 1.48043 25.8946 1.29289 25.7071C1.10536 25.5196 1 25.2652 1 25V20C1 19.7348 1.10536 19.4804 1.29289 19.2929C1.48043 19.1054 1.73478 19 2 19H6V26Z" fill="#1C1C1E"/>
<path opacity="0.2" d="M25.5003 6.9998C24.9814 7.00012 24.469 7.11583 24.0003 7.33855C23.9663 6.58788 23.6916 5.8681 23.2168 5.28566C22.742 4.70322 22.0924 4.28904 21.364 4.10439C20.6356 3.91974 19.8671 3.97441 19.1722 4.26033C18.4773 4.54625 17.8928 5.04823 17.5053 5.69202C17.1177 6.33582 16.9477 7.08725 17.0203 7.83517C17.0929 8.58309 17.4042 9.2878 17.9083 9.84505C18.4124 10.4023 19.0825 10.7825 19.8194 10.9295C20.5564 11.0764 21.321 10.9823 22.0003 10.6611C22.0319 11.3455 22.2637 12.0057 22.6669 12.5597C23.0702 13.1136 23.6272 13.5371 24.2689 13.7774C24.9106 14.0178 25.6087 14.0645 26.2766 13.9118C26.9446 13.7591 27.5531 13.4136 28.0266 12.9183C28.5 12.423 28.8177 11.7996 28.9402 11.1255C29.0627 10.4513 28.9846 9.756 28.7156 9.1258C28.4466 8.4956 27.9986 7.95822 27.427 7.58029C26.8554 7.20237 26.1855 7.00053 25.5003 6.9998Z" fill="#1C1C1E"/>
<path d="M25.5 14C27.433 14 29 12.433 29 10.5C29 8.567 27.433 7 25.5 7C23.567 7 22 8.567 22 10.5C22 12.433 23.567 14 25.5 14Z" stroke="#1C1C1E" stroke-width="2" stroke-linecap="round" stroke-linejoin="round"/>
<path d="M6 26H2C1.73478 26 1.48043 25.8946 1.29289 25.7071C1.10536 25.5196 1 25.2652 1 25V20C1 19.7348 1.10536 19.4804 1.29289 19.2929C1.48043 19.1054 1.73478 19 2 19H6" stroke="#1C1C1E" stroke-width="2" stroke-linecap="round" stroke-linejoin="round"/>
<path d="M14 20H18L26.375 18.0738C26.6829 17.9894 27.0061 17.9771 27.3195 18.038C27.6329 18.0989 27.9281 18.2312 28.182 18.4247C28.436 18.6181 28.6419 18.8676 28.7838 19.1536C28.9256 19.4396 28.9996 19.7545 29 20.0738C29.0002 20.4592 28.8929 20.8371 28.6902 21.165C28.4875 21.4929 28.1974 21.7578 27.8525 21.93L23 24L15 26H6V19L9.125 15.875C9.40432 15.5967 9.73577 15.3761 10.1004 15.226C10.465 15.0758 10.8557 14.999 11.25 15H17.5C18.163 15 18.7989 15.2634 19.2678 15.7322C19.7366 16.2011 20 16.837 20 17.5C20 18.1631 19.7366 18.7989 19.2678 19.2678C18.7989 19.7366 18.163 20 17.5 20H14Z" stroke="#1C1C1E" stroke-width="2" stroke-linecap="round" stroke-linejoin="round"/>
<path d="M22.0003 10.6611C21.321 10.9823 20.5564 11.0764 19.8194 10.9295C19.0825 10.7825 18.4124 10.4023 17.9083 9.84505C17.4042 9.2878 17.0929 8.58309 17.0203 7.83517C16.9477 7.08725 17.1177 6.33582 17.5053 5.69202C17.8928 5.04823 18.4773 4.54625 19.1722 4.26033C19.8671 3.97441 20.6356 3.91974 21.364 4.10439C22.0924 4.28904 22.742 4.70322 23.2168 5.28566C23.6916 5.8681 23.9663 6.58788 24.0003 7.33855" stroke="#1C1C1E" stroke-width="2" stroke-linecap="round" stroke-linejoin="round"/>
</svg>
