<svg width="32" height="32" viewBox="0 0 32 32" fill="none" xmlns="http://www.w3.org/2000/svg">
<path opacity="0.2" d="M7.99953 27L4.33453 20.75C4.00823 20.1761 3.92218 19.4964 4.09515 18.8593C4.26812 18.2222 4.68607 17.6794 5.25779 17.3493C5.82951 17.0192 6.50858 16.9287 7.14682 17.0974C7.78506 17.2661 8.33065 17.6805 8.66453 18.25L10.9995 22V8.5C10.9995 7.83696 11.2629 7.20107 11.7318 6.73223C12.2006 6.26339 12.8365 6 13.4995 6C14.1626 6 14.7985 6.26339 15.2673 6.73223C15.7361 7.20107 15.9995 7.83696 15.9995 8.5V15.5C15.9995 14.837 16.2629 14.2011 16.7318 13.7322C17.2006 13.2634 17.8365 13 18.4995 13C19.1626 13 19.7985 13.2634 20.2673 13.7322C20.7361 14.2011 20.9995 14.837 20.9995 15.5V17.5C20.9995 16.837 21.2629 16.2011 21.7318 15.7322C22.2006 15.2634 22.8365 15 23.4995 15C24.1626 15 24.7985 15.2634 25.2673 15.7322C25.7361 16.2011 25.9995 16.837 25.9995 17.5V22C25.9995 25 24.9995 27 24.9995 27H7.99953Z" fill="#1C1C1E"/>
<path d="M7.99953 27L4.33453 20.75C4.00823 20.1761 3.92218 19.4964 4.09515 18.8593C4.26812 18.2222 4.68607 17.6794 5.25779 17.3493C5.82951 17.0192 6.50858 16.9287 7.14682 17.0974C7.78506 17.2661 8.33065 17.6805 8.66453 18.25L10.9995 22V8.5C10.9995 7.83696 11.2629 7.20107 11.7318 6.73223C12.2006 6.26339 12.8365 6 13.4995 6C14.1626 6 14.7985 6.26339 15.2673 6.73223C15.7361 7.20107 15.9995 7.83696 15.9995 8.5V15.5C15.9995 14.837 16.2629 14.2011 16.7318 13.7322C17.2006 13.2634 17.8365 13 18.4995 13C19.1626 13 19.7985 13.2634 20.2673 13.7322C20.7361 14.2011 20.9995 14.837 20.9995 15.5V17.5C20.9995 16.837 21.2629 16.2011 21.7318 15.7322C22.2006 15.2634 22.8365 15 23.4995 15C24.1626 15 24.7985 15.2634 25.2673 15.7322C25.7361 16.2011 25.9995 16.837 25.9995 17.5V22C25.9995 25 24.9995 27 24.9995 27" stroke="#1C1C1E" stroke-width="2" stroke-linecap="round" stroke-linejoin="round"/>
<path d="M22 7H31" stroke="#1C1C1E" stroke-width="2" stroke-linecap="round" stroke-linejoin="round"/>
<path d="M26 3L22 7L26 11" stroke="#1C1C1E" stroke-width="2" stroke-linecap="round" stroke-linejoin="round"/>
</svg>
