<svg width="32" height="32" viewBox="0 0 32 32" fill="none" xmlns="http://www.w3.org/2000/svg">
<path opacity="0.2" d="M26.9911 12.5897C26.8818 9.9767 25.7531 7.51056 23.8471 5.71983C21.9412 3.9291 19.4095 2.95629 16.7948 3.00992C14.1801 3.06354 11.6905 4.13933 9.85953 6.0067C8.02857 7.87408 7.002 10.3844 6.99987 12.9997L4.08112 18.6084C3.98048 18.8428 3.97322 19.1068 4.06082 19.3464C4.14842 19.5859 4.32427 19.783 4.55237 19.8972L7.99987 21.4759V25.9997C7.99987 26.2649 8.10523 26.5192 8.29276 26.7068C8.4803 26.8943 8.73465 26.9997 8.99987 26.9997H14.9999C14.9999 27.5301 15.2106 28.0388 15.5857 28.4139C15.9607 28.7889 16.4694 28.9997 16.9999 28.9997H23.9999L22.9999 20.9997C24.2983 20.0276 25.3404 18.7538 26.0358 17.2884C26.7313 15.823 27.0592 14.2102 26.9911 12.5897ZM14.0161 9.25966C13.9619 8.84544 14.0388 8.42466 14.236 8.05637C14.4331 7.68808 14.7407 7.39077 15.1154 7.20617C15.4902 7.02157 15.9133 6.95894 16.3254 7.02708C16.7376 7.09521 17.1181 7.29069 17.4134 7.58608C17.7088 7.88147 17.9043 8.26194 17.9724 8.67408C18.0406 9.08623 17.978 9.50937 17.7934 9.88411C17.6087 10.2588 17.3114 10.5664 16.9432 10.7635C16.5749 10.9607 16.1541 11.0376 15.7399 10.9834C15.3027 10.9262 14.8967 10.7262 14.585 10.4145C14.2733 10.1028 14.0733 9.69679 14.0161 9.25966ZM18.2661 18.9834C17.8519 19.0376 17.4311 18.9607 17.0628 18.7635C16.6945 18.5664 16.3972 18.2588 16.2126 17.8841C16.028 17.5094 15.9654 17.0862 16.0335 16.6741C16.1017 16.2619 16.2972 15.8815 16.5925 15.5861C16.8879 15.2907 17.2684 15.0952 17.6805 15.0271C18.0927 14.9589 18.5158 15.0216 18.8906 15.2062C19.2653 15.3908 19.5728 15.6881 19.77 16.0564C19.9672 16.4247 20.044 16.8454 19.9899 17.2597C19.9324 17.6977 19.7315 18.1044 19.4185 18.4162C19.1055 18.7281 18.6981 18.9275 18.2599 18.9834H18.2661Z" fill="#1C1C1E"/>
<path d="M16 11C17.1046 11 18 10.1046 18 9C18 7.89543 17.1046 7 16 7C14.8954 7 14 7.89543 14 9C14 10.1046 14.8954 11 16 11Z" stroke="#1C1C1E" stroke-width="2" stroke-linecap="round" stroke-linejoin="round"/>
<path d="M18 19C19.1046 19 20 18.1046 20 17C20 15.8954 19.1046 15 18 15C16.8954 15 16 15.8954 16 17C16 18.1046 16.8954 19 18 19Z" stroke="#1C1C1E" stroke-width="2" stroke-linecap="round" stroke-linejoin="round"/>
<path d="M15.0004 27H9.0004C8.73519 27 8.48083 26.8946 8.2933 26.7071C8.10576 26.5196 8.0004 26.2652 8.0004 26V21.4763L4.5529 19.8975C4.32511 19.7833 4.14949 19.5865 4.0619 19.3472C3.97432 19.1079 3.98139 18.8443 4.08165 18.61L7.0004 13C7.0004 11.2954 7.43612 9.61916 8.26619 8.13036C9.09625 6.64155 10.2931 5.38964 11.7431 4.49349C13.1931 3.59735 14.8481 3.08673 16.5509 3.01011C18.2538 2.93349 19.9479 3.29342 21.4725 4.05573C22.9971 4.81803 24.3016 5.95741 25.262 7.36565C26.2224 8.7739 26.8069 10.4043 26.96 12.1019C27.1131 13.7996 26.8297 15.5083 26.1366 17.0656C25.4436 18.6229 24.3641 19.9773 23.0004 21L24.0004 29" stroke="#1C1C1E" stroke-width="2" stroke-linecap="round" stroke-linejoin="round"/>
<path d="M16 7.00008V3.04883" stroke="#1C1C1E" stroke-width="2" stroke-linecap="round" stroke-linejoin="round"/>
<path d="M26.7978 11H23.0003L19.2803 15.4637" stroke="#1C1C1E" stroke-width="2" stroke-linecap="round" stroke-linejoin="round"/>
</svg>
