<svg width="32" height="32" viewBox="0 0 32 32" fill="none" xmlns="http://www.w3.org/2000/svg">
<path opacity="0.2" d="M15.9998 28.0001L27.1698 16.6701C28.3421 15.4978 29.0007 13.9079 29.0007 12.2501C29.0007 10.5923 28.3421 9.00235 27.1698 7.83009C25.9976 6.65783 24.4077 5.99927 22.7498 5.99927C21.092 5.99927 19.5021 6.65783 18.3298 7.83009L15.9998 10.0001L13.6698 7.83009C12.4976 6.65783 10.9077 5.99927 9.24985 5.99927C7.59203 5.99927 6.0021 6.65783 4.82985 7.83009C3.65759 9.00235 2.99902 10.5923 2.99902 12.2501C2.99902 13.9079 3.65759 15.4978 4.82985 16.6701L15.9998 28.0001Z" fill="#1C1C1E"/>
<path d="M15.9998 10.075L13.6698 7.82496C12.4976 6.65271 10.9077 5.99414 9.24985 5.99414C7.59203 5.99414 6.0021 6.65271 4.82985 7.82496C3.65759 8.99722 2.99902 10.5871 2.99902 12.245C2.99902 13.9028 3.65759 15.4927 4.82985 16.665L15.9998 28L27.1698 16.67C28.3421 15.4977 29.0007 13.9078 29.0007 12.25C29.0007 10.5921 28.3421 9.00222 27.1698 7.82996C25.9976 6.65771 24.4077 5.99914 22.7498 5.99914C21.092 5.99914 19.5021 6.65771 18.3298 7.82996L13.9998 12L17.9998 16L15.9998 18" stroke="#1C1C1E" stroke-width="2" stroke-linecap="round" stroke-linejoin="round"/>
</svg>
