<svg width="32" height="32" viewBox="0 0 32 32" fill="none" xmlns="http://www.w3.org/2000/svg">
<path opacity="0.2" d="M24.4853 7.51494C23.2436 6.2744 21.7449 5.32135 20.0948 4.72299C18.4447 4.12463 16.6835 3.89552 14.9353 4.05183C13.1871 4.20813 11.4944 4.74604 9.97667 5.62762C8.45893 6.5092 7.15306 7.713 6.15113 9.15413C5.1492 10.5953 4.47561 12.2386 4.17785 13.9684C3.88008 15.6982 3.9654 17.4722 4.42778 19.1654C4.89016 20.8586 5.71835 22.4297 6.85395 23.7681C7.98956 25.1064 9.40492 26.1793 11.0003 26.9112V18.9999C11.0003 18.7347 11.1056 18.4804 11.2931 18.2928C11.4807 18.1053 11.735 17.9999 12.0003 17.9999H13.0003V11.9999L19.0003 8.99994V17.9999H20.0003C20.2655 17.9999 20.5198 18.1053 20.7074 18.2928C20.8949 18.4804 21.0003 18.7347 21.0003 18.9999V26.9112C22.7604 26.1047 24.2992 24.8843 25.4855 23.3541C26.6717 21.824 27.4701 20.0296 27.8125 18.124C28.1549 16.2184 28.0311 14.2582 27.4517 12.4109C26.8723 10.5635 25.8546 8.88371 24.4853 7.51494Z" fill="#1C1C1E"/>
<path d="M16 28C22.6274 28 28 22.6274 28 16C28 9.37258 22.6274 4 16 4C9.37258 4 4 9.37258 4 16C4 22.6274 9.37258 28 16 28Z" stroke="#1C1C1E" stroke-width="2" stroke-linecap="round" stroke-linejoin="round"/>
<path d="M13 18V12L19 9V18" stroke="#1C1C1E" stroke-width="2" stroke-linecap="round" stroke-linejoin="round"/>
<path d="M21 26.9125V19C21 18.7348 20.8946 18.4804 20.7071 18.2929C20.5196 18.1054 20.2652 18 20 18H12C11.7348 18 11.4804 18.1054 11.2929 18.2929C11.1054 18.4804 11 18.7348 11 19V26.9125" stroke="#1C1C1E" stroke-width="2" stroke-linecap="round" stroke-linejoin="round"/>
</svg>
