<svg width="32" height="32" viewBox="0 0 32 32" fill="none" xmlns="http://www.w3.org/2000/svg">
<path opacity="0.2" d="M9.33398 11H22.6152L16.0002 16L9.33398 11Z" fill="#1C1C1E"/>
<path d="M16 16L8.4 10.3C8.2758 10.2069 8.175 10.0861 8.10557 9.94721C8.03614 9.80836 8 9.65525 8 9.5V5C8 4.73478 8.10536 4.48043 8.29289 4.29289C8.48043 4.10536 8.73478 4 9 4H23C23.2652 4 23.5196 4.10536 23.7071 4.29289C23.8946 4.48043 24 4.73478 24 5V9.455C23.9995 9.60919 23.9634 9.76118 23.8944 9.89909C23.8255 10.037 23.7256 10.1571 23.6025 10.25L16 16Z" stroke="#1C1C1E" stroke-width="2" stroke-linecap="round" stroke-linejoin="round"/>
<path d="M16 16L8.4 21.7C8.2758 21.7931 8.175 21.9139 8.10557 22.0528C8.03614 22.1916 8 22.3448 8 22.5V27C8 27.2652 8.10536 27.5196 8.29289 27.7071C8.48043 27.8946 8.73478 28 9 28H23C23.2652 28 23.5196 27.8946 23.7071 27.7071C23.8946 27.5196 24 27.2652 24 27V22.545C23.9999 22.3904 23.964 22.2379 23.895 22.0995C23.826 21.9612 23.7259 21.8407 23.6025 21.7475L16 16Z" stroke="#1C1C1E" stroke-width="2" stroke-linecap="round" stroke-linejoin="round"/>
<path d="M16 21V16" stroke="#1C1C1E" stroke-width="2" stroke-linecap="round" stroke-linejoin="round"/>
<path d="M9.33398 11H22.6152" stroke="#1C1C1E" stroke-width="2" stroke-linecap="round" stroke-linejoin="round"/>
</svg>
