<svg width="32" height="32" viewBox="0 0 32 32" fill="none" xmlns="http://www.w3.org/2000/svg">
<path opacity="0.2" d="M18.5775 6.335L20 1C20 1 6 4 6 16C5.99936 18.2037 6.7267 20.346 8.06896 22.0937C9.41122 23.8415 11.2932 25.097 13.4225 25.665L12 31C12 31 26 28 26 16C26.0006 13.7963 25.2733 11.654 23.931 9.90626C22.5888 8.15847 20.7068 6.90301 18.5775 6.335ZM16 19C15.4067 19 14.8266 18.8241 14.3333 18.4944C13.8399 18.1648 13.4554 17.6962 13.2284 17.1481C13.0013 16.5999 12.9419 15.9967 13.0576 15.4147C13.1734 14.8328 13.4591 14.2982 13.8787 13.8787C14.2982 13.4591 14.8328 13.1734 15.4147 13.0576C15.9967 12.9419 16.5999 13.0013 17.1481 13.2284C17.6962 13.4554 18.1648 13.8399 18.4944 14.3333C18.8241 14.8266 19 15.4067 19 16C19 16.7956 18.6839 17.5587 18.1213 18.1213C17.5587 18.6839 16.7956 19 16 19Z" fill="#1C1C1E"/>
<path d="M16 19C17.6569 19 19 17.6569 19 16C19 14.3431 17.6569 13 16 13C14.3431 13 13 14.3431 13 16C13 17.6569 14.3431 19 16 19Z" stroke="#1C1C1E" stroke-width="2" stroke-linecap="round" stroke-linejoin="round"/>
<path d="M18.5775 6.335C20.7068 6.90301 22.5888 8.15847 23.931 9.90626C25.2733 11.654 26.0006 13.7963 26 16C26 28 12 31 12 31L13.4225 25.665C11.2932 25.097 9.41122 23.8415 8.06896 22.0937C6.7267 20.346 5.99936 18.2037 6 16C6 4 20 1 20 1L18.5775 6.335Z" stroke="#1C1C1E" stroke-width="2" stroke-linecap="round" stroke-linejoin="round"/>
</svg>
