<svg width="32" height="32" viewBox="0 0 32 32" fill="none" xmlns="http://www.w3.org/2000/svg">
<path opacity="0.2" d="M7 12C7 9.61305 7.94821 7.32387 9.63604 5.63604C11.3239 3.94821 13.6131 3 16 3C18.3869 3 20.6761 3.94821 22.364 5.63604C24.0518 7.32387 25 9.61305 25 12V13C25.5304 13 26.0391 13.2107 26.4142 13.5858C26.7893 13.9609 27 14.4696 27 15C27 15.5304 26.7893 16.0391 26.4142 16.4142C26.0391 16.7893 25.5304 17 25 17H7C6.46957 17 5.96086 16.7893 5.58579 16.4142C5.21071 16.0391 5 15.5304 5 15C5 14.4696 5.21071 13.9609 5.58579 13.5858C5.96086 13.2107 6.46957 13 7 13V12Z" fill="#1C1C1E"/>
<path d="M7 12C7 9.61305 7.94821 7.32387 9.63604 5.63604C11.3239 3.94821 13.6131 3 16 3C18.3869 3 20.6761 3.94821 22.364 5.63604C24.0518 7.32387 25 9.61305 25 12V13C25.5304 13 26.0391 13.2107 26.4142 13.5858C26.7893 13.9609 27 14.4696 27 15C27 15.5304 26.7893 16.0391 26.4142 16.4142C26.0391 16.7893 25.5304 17 25 17H7C6.46957 17 5.96086 16.7893 5.58579 16.4142C5.21071 16.0391 5 15.5304 5 15C5 14.4696 5.21071 13.9609 5.58579 13.5858C5.96086 13.2107 6.46957 13 7 13V12Z" stroke="#1C1C1E" stroke-width="2" stroke-linecap="round" stroke-linejoin="round"/>
<path d="M18.3576 26.875L12.7139 17" stroke="#1C1C1E" stroke-width="2" stroke-linecap="round" stroke-linejoin="round"/>
<path d="M20.7137 22.75L17.4287 17" stroke="#1C1C1E" stroke-width="2" stroke-linecap="round" stroke-linejoin="round"/>
<path d="M24.0087 17L16.875 29.5C16.7876 29.6533 16.6612 29.7808 16.5086 29.8694C16.356 29.9581 16.1827 30.0047 16.0062 30.0047C15.8297 30.0047 15.6564 29.9581 15.5038 29.8694C15.3513 29.7808 15.2249 29.6533 15.1375 29.5L7.99121 17" stroke="#1C1C1E" stroke-width="2" stroke-linecap="round" stroke-linejoin="round"/>
</svg>
