<svg width="32" height="32" viewBox="0 0 32 32" fill="none" xmlns="http://www.w3.org/2000/svg">
<path opacity="0.2" d="M26 5H10C9.73478 5 9.48043 5.10536 9.29289 5.29289C9.10536 5.48043 9 5.73478 9 6V22C9 22.2652 9.10536 22.5196 9.29289 22.7071C9.48043 22.8946 9.73478 23 10 23H12.0863L21.7925 13.2925C21.8854 13.1995 21.9957 13.1258 22.1171 13.0754C22.2385 13.0251 22.3686 12.9992 22.5 12.9992C22.6314 12.9992 22.7615 13.0251 22.8829 13.0754C23.0043 13.1258 23.1146 13.1995 23.2075 13.2925L27 17.0863V6C27 5.73478 26.8946 5.48043 26.7071 5.29289C26.5196 5.10536 26.2652 5 26 5ZM15 13C14.6044 13 14.2178 12.8827 13.8889 12.6629C13.56 12.4432 13.3036 12.1308 13.1522 11.7654C13.0009 11.3999 12.9613 10.9978 13.0384 10.6098C13.1156 10.2219 13.3061 9.86549 13.5858 9.58579C13.8655 9.30608 14.2219 9.1156 14.6098 9.03843C14.9978 8.96126 15.3999 9.00087 15.7654 9.15224C16.1308 9.30362 16.4432 9.55996 16.6629 9.88886C16.8827 10.2178 17 10.6044 17 11C17 11.5304 16.7893 12.0391 16.4142 12.4142C16.0391 12.7893 15.5304 13 15 13Z" fill="#1C1C1E"/>
<path d="M26 5H10C9.44772 5 9 5.44772 9 6V22C9 22.5523 9.44772 23 10 23H26C26.5523 23 27 22.5523 27 22V6C27 5.44772 26.5523 5 26 5Z" stroke="#1C1C1E" stroke-width="2" stroke-linecap="round" stroke-linejoin="round"/>
<path d="M15 13C16.1046 13 17 12.1046 17 11C17 9.89543 16.1046 9 15 9C13.8954 9 13 9.89543 13 11C13 12.1046 13.8954 13 15 13Z" stroke="#1C1C1E" stroke-width="2" stroke-linecap="round" stroke-linejoin="round"/>
<path d="M23 23V26C23 26.2652 22.8946 26.5196 22.7071 26.7071C22.5196 26.8946 22.2652 27 22 27H6C5.73478 27 5.48043 26.8946 5.29289 26.7071C5.10536 26.5196 5 26.2652 5 26V10C5 9.73478 5.10536 9.48043 5.29289 9.29289C5.48043 9.10536 5.73478 9 6 9H9" stroke="#1C1C1E" stroke-width="2" stroke-linecap="round" stroke-linejoin="round"/>
<path d="M12.0859 23.0001L21.7922 13.2926C21.8851 13.1996 21.9953 13.1258 22.1167 13.0755C22.2381 13.0252 22.3683 12.9993 22.4997 12.9993C22.6311 12.9993 22.7612 13.0252 22.8826 13.0755C23.004 13.1258 23.1143 13.1996 23.2072 13.2926L26.9997 17.0863" stroke="#1C1C1E" stroke-width="2" stroke-linecap="round" stroke-linejoin="round"/>
</svg>
