<svg width="32" height="32" viewBox="0 0 32 32" fill="none" xmlns="http://www.w3.org/2000/svg">
<path opacity="0.2" d="M12.2428 20.2425C11.4037 21.0817 10.3346 21.6531 9.17069 21.8847C8.00679 22.1162 6.80037 21.9974 5.70399 21.5433C4.60761 21.0892 3.67052 20.3202 3.01121 19.3335C2.3519 18.3468 2 17.1867 2 16C2 14.8133 2.3519 13.6532 3.01121 12.6665C3.67052 11.6798 4.60761 10.9108 5.70399 10.4567C6.80037 10.0026 8.00679 9.88378 9.17069 10.1153C10.3346 10.3469 11.4037 10.9183 12.2428 11.7575L19.7578 20.2425C20.5969 21.0817 21.666 21.6531 22.8299 21.8847C23.9938 22.1162 25.2002 21.9974 26.2966 21.5433C27.393 21.0892 28.33 20.3202 28.9894 19.3335C29.6487 18.3468 30.0006 17.1867 30.0006 16C30.0006 14.8133 29.6487 13.6532 28.9894 12.6665C28.33 11.6798 27.393 10.9108 26.2966 10.4567C25.2002 10.0026 23.9938 9.88378 22.8299 10.1153C21.666 10.3469 20.5969 10.9183 19.7578 11.7575L12.2428 20.2425Z" fill="#1C1C1E"/>
<path d="M13.329 19.0163L12.2428 20.2425C11.4037 21.0817 10.3346 21.6531 9.17069 21.8847C8.00679 22.1162 6.80037 21.9974 5.70399 21.5433C4.60761 21.0892 3.67052 20.3202 3.01121 19.3335C2.3519 18.3468 2 17.1867 2 16C2 14.8133 2.3519 13.6532 3.01121 12.6665C3.67052 11.6798 4.60761 10.9108 5.70399 10.4567C6.80037 10.0026 8.00679 9.88378 9.17069 10.1153C10.3346 10.3469 11.4037 10.9183 12.2428 11.7575L19.7578 20.2425C20.5969 21.0817 21.666 21.6531 22.8299 21.8847C23.9938 22.1162 25.2002 21.9974 26.2966 21.5433C27.3929 21.0892 28.33 20.3202 28.9894 19.3335C29.6487 18.3468 30.0006 17.1867 30.0006 16C30.0006 14.8133 29.6487 13.6532 28.9894 12.6665C28.33 11.6798 27.3929 10.9108 26.2966 10.4567C25.2002 10.0026 23.9938 9.88378 22.8299 10.1153C21.666 10.3469 20.5969 10.9183 19.7578 11.7575L18.6715 12.9838" stroke="#1C1C1E" stroke-width="2" stroke-linecap="round" stroke-linejoin="round"/>
</svg>
