<svg width="32" height="32" viewBox="0 0 32 32" fill="none" xmlns="http://www.w3.org/2000/svg">
<path opacity="0.2" d="M16.0001 13.5C14.9505 12.7134 13.7132 12.2154 12.4114 12.0558C11.1096 11.8961 9.78859 12.0803 8.58008 12.59C8.767 13.8649 9.27926 15.0702 10.0675 16.0896C10.8557 17.1091 11.8932 17.9082 13.0801 18.41C13.3668 16.4519 14.4165 14.6868 16.0001 13.5Z" fill="#1C1C1E"/>
<path opacity="0.2" d="M13.0797 18.41C12.8835 19.7451 13.0512 21.1085 13.5651 22.3563C14.079 23.6042 14.9201 24.6902 15.9997 25.5C17.0792 24.6902 17.9203 23.6042 18.4342 22.3563C18.9481 21.1085 19.1158 19.7451 18.9197 18.41C17.9954 18.7993 17.0026 18.9999 15.9997 18.9999C14.9967 18.9999 14.0039 18.7993 13.0797 18.41Z" fill="#1C1C1E"/>
<path opacity="0.2" d="M23.42 12.59C22.2115 12.0803 20.8905 11.8961 19.5887 12.0558C18.2868 12.2154 17.0495 12.7134 16 13.5C17.5836 14.6868 18.6333 16.4519 18.92 18.41C20.1069 17.9082 21.1444 17.1091 21.9326 16.0896C22.7208 15.0702 23.2331 13.8649 23.42 12.59Z" fill="#1C1C1E"/>
<path d="M16 19C20.1421 19 23.5 15.6421 23.5 11.5C23.5 7.35786 20.1421 4 16 4C11.8579 4 8.5 7.35786 8.5 11.5C8.5 15.6421 11.8579 19 16 19Z" stroke="#1C1C1E" stroke-width="2" stroke-linecap="round" stroke-linejoin="round"/>
<path d="M20.5 27C24.6421 27 28 23.6421 28 19.5C28 15.3579 24.6421 12 20.5 12C16.3579 12 13 15.3579 13 19.5C13 23.6421 16.3579 27 20.5 27Z" stroke="#1C1C1E" stroke-width="2" stroke-linecap="round" stroke-linejoin="round"/>
<path d="M11.5 27C15.6421 27 19 23.6421 19 19.5C19 15.3579 15.6421 12 11.5 12C7.35786 12 4 15.3579 4 19.5C4 23.6421 7.35786 27 11.5 27Z" stroke="#1C1C1E" stroke-width="2" stroke-linecap="round" stroke-linejoin="round"/>
</svg>
