<svg width="32" height="32" viewBox="0 0 32 32" fill="none" xmlns="http://www.w3.org/2000/svg">
<path opacity="0.2" d="M11 9C11 8.73478 11.1054 8.48043 11.2929 8.29289C11.4804 8.10536 11.7348 8 12 8H20C20.2652 8 20.5196 8.10536 20.7071 8.29289C20.8946 8.48043 21 8.73478 21 9V10C23.3691 10.9871 25.393 12.6534 26.8167 14.7889C28.2403 16.9244 29 19.4335 29 22H3C3 19.4335 3.75969 16.9244 5.18335 14.7889C6.607 12.6534 8.6309 10.9871 11 10V9Z" fill="#1C1C1E"/>
<path d="M16 2V8" stroke="#1C1C1E" stroke-width="2" stroke-linecap="round" stroke-linejoin="round"/>
<path d="M12 22V23C12 24.0609 12.4214 25.0783 13.1716 25.8284C13.9217 26.5786 14.9391 27 16 27C17.0609 27 18.0783 26.5786 18.8284 25.8284C19.5786 25.0783 20 24.0609 20 23V22" stroke="#1C1C1E" stroke-width="2" stroke-linecap="round" stroke-linejoin="round"/>
<path d="M11 9C11 8.73478 11.1054 8.48043 11.2929 8.29289C11.4804 8.10536 11.7348 8 12 8H20C20.2652 8 20.5196 8.10536 20.7071 8.29289C20.8946 8.48043 21 8.73478 21 9V10C23.3691 10.9871 25.393 12.6534 26.8167 14.7889C28.2403 16.9244 29 19.4335 29 22H3C3 19.4335 3.75969 16.9244 5.18335 14.7889C6.607 12.6534 8.6309 10.9871 11 10V9Z" stroke="#1C1C1E" stroke-width="2" stroke-linecap="round" stroke-linejoin="round"/>
</svg>
