<svg width="32" height="32" viewBox="0 0 32 32" fill="none" xmlns="http://www.w3.org/2000/svg">
<path opacity="0.2" d="M23 7H9C7.34315 7 6 8.34315 6 10V22C6 23.6569 7.34315 25 9 25H23C24.6569 25 26 23.6569 26 22V10C26 8.34315 24.6569 7 23 7Z" fill="#1C1C1E"/>
<path d="M12.5 15.5C13.3284 15.5 14 14.8284 14 14C14 13.1716 13.3284 12.5 12.5 12.5C11.6716 12.5 11 13.1716 11 14C11 14.8284 11.6716 15.5 12.5 15.5Z" fill="#1C1C1E"/>
<path d="M19.5 15.5C20.3284 15.5 21 14.8284 21 14C21 13.1716 20.3284 12.5 19.5 12.5C18.6716 12.5 18 13.1716 18 14C18 14.8284 18.6716 15.5 19.5 15.5Z" fill="#1C1C1E"/>
<path d="M19.5 19C18.4496 19.6536 17.2372 20 16 20C14.7628 20 13.5504 19.6536 12.5 19" stroke="#1C1C1E" stroke-width="2" stroke-linecap="round" stroke-linejoin="round"/>
<path d="M23 7H9C7.34315 7 6 8.34315 6 10V22C6 23.6569 7.34315 25 9 25H23C24.6569 25 26 23.6569 26 22V10C26 8.34315 24.6569 7 23 7Z" stroke="#1C1C1E" stroke-width="2" stroke-linecap="round" stroke-linejoin="round"/>
<path d="M12 7V4C12 3.73478 12.1054 3.48043 12.2929 3.29289C12.4804 3.10536 12.7348 3 13 3H19C19.2652 3 19.5196 3.10536 19.7071 3.29289C19.8946 3.48043 20 3.73478 20 4V7" stroke="#1C1C1E" stroke-width="2" stroke-linecap="round" stroke-linejoin="round"/>
<path d="M9 25V28C9 28.2652 9.10536 28.5196 9.29289 28.7071C9.48043 28.8946 9.73478 29 10 29H22C22.2652 29 22.5196 28.8946 22.7071 28.7071C22.8946 28.5196 23 28.2652 23 28V25" stroke="#1C1C1E" stroke-width="2" stroke-linecap="round" stroke-linejoin="round"/>
</svg>
