<svg width="32" height="32" viewBox="0 0 32 32" fill="none" xmlns="http://www.w3.org/2000/svg">
<path opacity="0.2" d="M8 27C9.65685 27 11 25.6569 11 24C11 22.3431 9.65685 21 8 21C6.34315 21 5 22.3431 5 24C5 25.6569 6.34315 27 8 27Z" fill="#1C1C1E"/>
<path opacity="0.2" d="M24 11C25.6569 11 27 9.65685 27 8C27 6.34315 25.6569 5 24 5C22.3431 5 21 6.34315 21 8C21 9.65685 22.3431 11 24 11Z" fill="#1C1C1E"/>
<path d="M8 27C9.65685 27 11 25.6569 11 24C11 22.3431 9.65685 21 8 21C6.34315 21 5 22.3431 5 24C5 25.6569 6.34315 27 8 27Z" stroke="#1C1C1E" stroke-width="2" stroke-linecap="round" stroke-linejoin="round"/>
<path d="M24 11C25.6569 11 27 9.65685 27 8C27 6.34315 25.6569 5 24 5C22.3431 5 21 6.34315 21 8C21 9.65685 22.3431 11 24 11Z" stroke="#1C1C1E" stroke-width="2" stroke-linecap="round" stroke-linejoin="round"/>
<path d="M21.8786 10.1213L10.1211 21.8788" stroke="#1C1C1E" stroke-width="2" stroke-linecap="round" stroke-linejoin="round"/>
</svg>
