<svg width="32" height="32" viewBox="0 0 32 32" fill="none" xmlns="http://www.w3.org/2000/svg">
<path opacity="0.2" d="M14.2421 26.2426C13.1138 27.3527 11.5926 27.972 10.0097 27.9655C8.42693 27.9591 6.91077 27.3274 5.79154 26.2082C4.67231 25.089 4.04067 23.5728 4.03423 21.99C4.02778 20.4072 4.64705 18.8859 5.75713 17.7576L17.7571 5.75762C18.8854 4.64754 20.4067 4.02827 21.9895 4.03472C23.5723 4.04116 25.0885 4.67279 26.2077 5.79203C27.327 6.91126 27.9586 8.42742 27.965 10.0102C27.9715 11.5931 27.3522 13.1143 26.2421 14.2426L14.2421 26.2426Z" fill="#1C1C1E"/>
<path d="M12 20L20 12" stroke="#1C1C1E" stroke-width="2" stroke-linecap="round" stroke-linejoin="round"/>
<path d="M14 9.51396L17.7575 5.76396C18.8858 4.65388 20.4071 4.03462 21.9899 4.04107C23.5727 4.04751 25.0889 4.67914 26.2081 5.79837C27.3273 6.91761 27.959 8.43376 27.9654 10.0166C27.9718 11.5994 27.3526 13.1207 26.2425 14.249L22.485 18.0002" stroke="#1C1C1E" stroke-width="2" stroke-linecap="round" stroke-linejoin="round"/>
<path d="M9.51396 14L5.76396 17.7575C4.65388 18.8858 4.03462 20.4071 4.04107 21.9899C4.04751 23.5727 4.67914 25.0889 5.79837 26.2081C6.91761 27.3273 8.43376 27.959 10.0166 27.9654C11.5994 27.9718 13.1207 27.3526 14.249 26.2425L18.0002 22.485" stroke="#1C1C1E" stroke-width="2" stroke-linecap="round" stroke-linejoin="round"/>
</svg>
