<svg width="32" height="32" viewBox="0 0 32 32" fill="none" xmlns="http://www.w3.org/2000/svg">
<path opacity="0.2" d="M26 11H6C5.73478 11 5.48043 11.1054 5.29289 11.2929C5.10536 11.4804 5 11.7348 5 12V26C5 26.2652 5.10536 26.5196 5.29289 26.7071C5.48043 26.8946 5.73478 27 6 27H26C26.2652 27 26.5196 26.8946 26.7071 26.7071C26.8946 26.5196 27 26.2652 27 26V12C27 11.7348 26.8946 11.4804 26.7071 11.2929C26.5196 11.1054 26.2652 11 26 11ZM16 20C15.5055 20 15.0222 19.8534 14.6111 19.5787C14.2 19.304 13.8795 18.9135 13.6903 18.4567C13.5011 17.9999 13.4516 17.4972 13.548 17.0123C13.6445 16.5273 13.8826 16.0819 14.2322 15.7322C14.5819 15.3826 15.0273 15.1445 15.5123 15.048C15.9972 14.9516 16.4999 15.0011 16.9567 15.1903C17.4135 15.3795 17.804 15.7 18.0787 16.1111C18.3534 16.5222 18.5 17.0055 18.5 17.5C18.5 18.163 18.2366 18.7989 17.7678 19.2678C17.2989 19.7366 16.663 20 16 20Z" fill="#1C1C1E"/>
<path d="M26 11H6C5.44772 11 5 11.4477 5 12V26C5 26.5523 5.44772 27 6 27H26C26.5523 27 27 26.5523 27 26V12C27 11.4477 26.5523 11 26 11Z" stroke="#1C1C1E" stroke-width="2" stroke-linecap="round" stroke-linejoin="round"/>
<path d="M11 11V7C11 5.67392 11.5268 4.40215 12.4645 3.46447C13.4021 2.52678 14.6739 2 16 2C17.3261 2 18.5979 2.52678 19.5355 3.46447C20.4732 4.40215 21 5.67392 21 7V11" stroke="#1C1C1E" stroke-width="2" stroke-linecap="round" stroke-linejoin="round"/>
<path d="M16 20C17.3807 20 18.5 18.8807 18.5 17.5C18.5 16.1193 17.3807 15 16 15C14.6193 15 13.5 16.1193 13.5 17.5C13.5 18.8807 14.6193 20 16 20Z" stroke="#1C1C1E" stroke-width="2" stroke-linecap="round" stroke-linejoin="round"/>
<path d="M16 20V23" stroke="#1C1C1E" stroke-width="2" stroke-linecap="round" stroke-linejoin="round"/>
</svg>
