<svg width="32" height="32" viewBox="0 0 32 32" fill="none" xmlns="http://www.w3.org/2000/svg">
<path opacity="0.2" d="M9.29266 26.7075C9.10514 26.8949 8.85089 27.0002 8.58579 27.0002C8.32068 27.0002 8.06643 26.8949 7.87891 26.7075L5.29266 24.125C5.10527 23.9375 5 23.6832 5 23.4181C5 23.153 5.10527 22.8988 5.29266 22.7113L18.0002 10L22.0002 14L9.29266 26.7075Z" fill="#1C1C1E"/>
<path d="M27 16V22" stroke="#1C1C1E" stroke-width="2" stroke-linecap="round" stroke-linejoin="round"/>
<path d="M24 19H30" stroke="#1C1C1E" stroke-width="2" stroke-linecap="round" stroke-linejoin="round"/>
<path d="M10 5V11" stroke="#1C1C1E" stroke-width="2" stroke-linecap="round" stroke-linejoin="round"/>
<path d="M7 8H13" stroke="#1C1C1E" stroke-width="2" stroke-linecap="round" stroke-linejoin="round"/>
<path d="M21 23V27" stroke="#1C1C1E" stroke-width="2" stroke-linecap="round" stroke-linejoin="round"/>
<path d="M19 25H23" stroke="#1C1C1E" stroke-width="2" stroke-linecap="round" stroke-linejoin="round"/>
<path d="M18 10L22 14" stroke="#1C1C1E" stroke-width="2" stroke-linecap="round" stroke-linejoin="round"/>
<path d="M22.7063 5.29264L5.29207 22.7069C4.90154 23.0974 4.90154 23.7306 5.29207 24.1211L7.87743 26.7065C8.26795 27.097 8.90112 27.097 9.29164 26.7065L26.7059 9.29221C27.0964 8.90169 27.0964 8.26852 26.7059 7.878L24.1206 5.29264C23.73 4.90211 23.0969 4.90212 22.7063 5.29264Z" stroke="#1C1C1E" stroke-width="2" stroke-linecap="round" stroke-linejoin="round"/>
</svg>
