<svg width="32" height="32" viewBox="0 0 32 32" fill="none" xmlns="http://www.w3.org/2000/svg">
<path opacity="0.2" d="M16 12C18.2091 12 20 10.2091 20 8C20 5.79086 18.2091 4 16 4C13.7909 4 12 5.79086 12 8C12 10.2091 13.7909 12 16 12Z" fill="#1C1C1E"/>
<path d="M16 12C18.2091 12 20 10.2091 20 8C20 5.79086 18.2091 4 16 4C13.7909 4 12 5.79086 12 8C12 10.2091 13.7909 12 16 12Z" stroke="#1C1C1E" stroke-width="2" stroke-linecap="round" stroke-linejoin="round"/>
<path d="M16 12V22" stroke="#1C1C1E" stroke-width="2" stroke-linecap="round" stroke-linejoin="round"/>
<path d="M21 17.3837C25.6975 18.1337 29 19.92 29 22C29 24.7612 23.18 27 16 27C8.82 27 3 24.7612 3 22C3 19.92 6.3025 18.1362 11 17.3837" stroke="#1C1C1E" stroke-width="2" stroke-linecap="round" stroke-linejoin="round"/>
</svg>
