<svg width="32" height="32" viewBox="0 0 32 32" fill="none" xmlns="http://www.w3.org/2000/svg">
<path opacity="0.2" d="M22 26.395C24.2877 25.0742 26.0757 23.0354 27.0866 20.5949C28.0975 18.1544 28.2748 15.4485 27.5911 12.8969C26.9074 10.3453 25.4009 8.09056 23.3051 6.48245C21.2094 4.87434 18.6416 4.00269 16 4.00269C13.3584 4.00269 10.7906 4.87434 8.69487 6.48245C6.59914 8.09056 5.09259 10.3453 4.40889 12.8969C3.7252 15.4485 3.90255 18.1544 4.91345 20.5949C5.92435 23.0354 7.7123 25.0742 10 26.395V22C10 21.7348 10.1054 21.4804 10.2929 21.2929C10.4804 21.1054 10.7348 21 11 21H12V18C12 17.7348 12.1054 17.4804 12.2929 17.2929C12.4804 17.1054 12.7348 17 13 17H13.52L15.02 9.79625C15.2413 8.735 16.7563 8.735 16.9775 9.79625L18.4775 17H19C19.2652 17 19.5196 17.1054 19.7071 17.2929C19.8946 17.4804 20 17.7348 20 18V21H21C21.2652 21 21.5196 21.1054 21.7071 21.2929C21.8946 21.4804 22 21.7348 22 22V26.395Z" fill="#1C1C1E"/>
<path d="M16 28C22.6274 28 28 22.6274 28 16C28 9.37258 22.6274 4 16 4C9.37258 4 4 9.37258 4 16C4 22.6274 9.37258 28 16 28Z" stroke="#1C1C1E" stroke-width="2" stroke-linecap="round" stroke-linejoin="round"/>
<path d="M22 26.395V22C22 21.7348 21.8946 21.4804 21.7071 21.2929C21.5196 21.1054 21.2652 21 21 21H11C10.7348 21 10.4804 21.1054 10.2929 21.2929C10.1054 21.4804 10 21.7348 10 22V26.395" stroke="#1C1C1E" stroke-width="2" stroke-linecap="round" stroke-linejoin="round"/>
<path d="M12 21V18C12 17.7348 12.1054 17.4804 12.2929 17.2929C12.4804 17.1054 12.7348 17 13 17H19C19.2652 17 19.5196 17.1054 19.7071 17.2929C19.8946 17.4804 20 17.7348 20 18V21" stroke="#1C1C1E" stroke-width="2" stroke-linecap="round" stroke-linejoin="round"/>
<path d="M18.48 17L16.98 9.79625C16.7587 8.735 15.2437 8.735 15.0225 9.79625L13.5225 17" stroke="#1C1C1E" stroke-width="2" stroke-linecap="round" stroke-linejoin="round"/>
</svg>
