<svg width="32" height="32" viewBox="0 0 32 32" fill="none" xmlns="http://www.w3.org/2000/svg">
<path opacity="0.2" d="M22.7503 7C21.1728 7 19.7378 8.3375 18.3753 10.2837L16.0615 14.325C18.7815 19.3075 21.4253 25 24.6803 25C32.3953 25 28.5378 7 22.7503 7Z" fill="#1C1C1E"/>
<path opacity="0.2" d="M9.25032 7C3.46282 7 -0.39468 25 7.32032 25C9.69532 25 11.7353 21.9825 13.7228 18.4188L16.0616 14.325C13.9453 10.4475 11.7816 7 9.25032 7Z" fill="#1C1C1E"/>
<path d="M13.7228 18.4188C11.7353 21.9825 9.69032 25 7.32032 25C-0.39468 25 3.46282 7 9.25032 7C15.0378 7 18.8941 25 24.6816 25C32.3953 25 28.5378 7 22.7503 7C21.1728 7 19.7378 8.3375 18.3753 10.2837" stroke="#1C1C1E" stroke-width="2" stroke-linecap="round" stroke-linejoin="round"/>
</svg>
