<svg width="32" height="32" viewBox="0 0 32 32" fill="none" xmlns="http://www.w3.org/2000/svg">
<path opacity="0.2" d="M17 9H5C4.44772 9 4 9.44772 4 10V22C4 22.5523 4.44772 23 5 23H17C17.5523 23 18 22.5523 18 22V10C18 9.44772 17.5523 9 17 9Z" fill="#1C1C1E"/>
<path d="M17 9H5C4.44772 9 4 9.44772 4 10V22C4 22.5523 4.44772 23 5 23H17C17.5523 23 18 22.5523 18 22V10C18 9.44772 17.5523 9 17 9Z" stroke="#1C1C1E" stroke-width="2" stroke-linecap="round" stroke-linejoin="round"/>
<path d="M11 19C12.6569 19 14 17.6569 14 16C14 14.3431 12.6569 13 11 13C9.34315 13 8 14.3431 8 16C8 17.6569 9.34315 19 11 19Z" stroke="#1C1C1E" stroke-width="2" stroke-linecap="round" stroke-linejoin="round"/>
<path d="M25 14H28V26C28 26.2652 27.8946 26.5196 27.7071 26.7071C27.5196 26.8946 27.2652 27 27 27H11C10.7348 27 10.4804 26.8946 10.2929 26.7071C10.1054 26.5196 10 26.2652 10 26V23" stroke="#1C1C1E" stroke-width="2" stroke-linecap="round" stroke-linejoin="round"/>
<path d="M13 9V5H25V16.1663" stroke="#1C1C1E" stroke-width="2" stroke-linecap="round" stroke-linejoin="round"/>
<path d="M27.6575 26.7525L18 19.7775" stroke="#1C1C1E" stroke-width="2" stroke-linecap="round" stroke-linejoin="round"/>
<path d="M28 14L19 20.5" stroke="#1C1C1E" stroke-width="2" stroke-linecap="round" stroke-linejoin="round"/>
</svg>
