<svg width="32" height="32" viewBox="0 0 32 32" fill="none" xmlns="http://www.w3.org/2000/svg">
<path opacity="0.2" d="M13.1309 12.4399L4.19342 24.6249C4.05236 24.8174 3.98478 25.054 4.00289 25.292C4.02099 25.5299 4.1236 25.7535 4.29217 25.9224L6.07967 27.7099C6.24858 27.8785 6.47221 27.9811 6.71016 27.9992C6.94811 28.0173 7.18469 27.9498 7.37717 27.8087L19.5622 18.8749C17.9634 18.5826 16.4916 17.8102 15.3428 16.6606C14.1939 15.5111 13.4223 14.0389 13.1309 12.4399Z" fill="#1C1C1E"/>
<path d="M21 19C25.4183 19 29 15.4183 29 11C29 6.58172 25.4183 3 21 3C16.5817 3 13 6.58172 13 11C13 15.4183 16.5817 19 21 19Z" stroke="#1C1C1E" stroke-width="2" stroke-linecap="round" stroke-linejoin="round"/>
<path d="M26.6562 16.6562L15.3438 5.34375" stroke="#1C1C1E" stroke-width="2" stroke-linecap="round" stroke-linejoin="round"/>
<path d="M12 20L13 19" stroke="#1C1C1E" stroke-width="2" stroke-linecap="round" stroke-linejoin="round"/>
<path d="M13.1247 12.4375L4.19342 24.625C4.05236 24.8175 3.98478 25.0541 4.00289 25.292C4.02099 25.53 4.1236 25.7536 4.29217 25.9225L6.07967 27.71C6.24858 27.8786 6.47221 27.9812 6.71016 27.9993C6.94811 28.0174 7.18469 27.9498 7.37717 27.8088L19.5622 18.875" stroke="#1C1C1E" stroke-width="2" stroke-linecap="round" stroke-linejoin="round"/>
</svg>
