<svg width="32" height="32" viewBox="0 0 32 32" fill="none" xmlns="http://www.w3.org/2000/svg">
<path opacity="0.2" d="M17 9H5C4.44772 9 4 9.44772 4 10V22C4 22.5523 4.44772 23 5 23H17C17.5523 23 18 22.5523 18 22V10C18 9.44772 17.5523 9 17 9Z" fill="#1C1C1E"/>
<path d="M17 9H5C4.44772 9 4 9.44772 4 10V22C4 22.5523 4.44772 23 5 23H17C17.5523 23 18 22.5523 18 22V10C18 9.44772 17.5523 9 17 9Z" stroke="#1C1C1E" stroke-width="2" stroke-linecap="round" stroke-linejoin="round"/>
<path d="M18 11H23C23.2653 11 23.5196 11.1054 23.7071 11.2929C23.8947 11.4804 24 11.7348 24 12V21C24 22.8565 23.2625 24.637 21.9498 25.9497C20.637 27.2625 18.8566 28 17 28C15.4923 28.0004 14.0247 27.5139 12.8157 26.613C11.6066 25.7121 10.7208 24.4449 10.29 23" stroke="#1C1C1E" stroke-width="2" stroke-linecap="round" stroke-linejoin="round"/>
<path d="M13 13H9" stroke="#1C1C1E" stroke-width="2" stroke-linecap="round" stroke-linejoin="round"/>
<path d="M11 19V13" stroke="#1C1C1E" stroke-width="2" stroke-linecap="round" stroke-linejoin="round"/>
<path d="M23 11H27.4075C27.5646 11 27.7153 11.0624 27.8265 11.1735C27.9376 11.2847 28 11.4354 28 11.5925V19C28 20.0609 27.5786 21.0783 26.8284 21.8284C26.0783 22.5786 25.0609 23 24 23C23.9038 23 23.8075 23 23.7125 22.99" stroke="#1C1C1E" stroke-width="2" stroke-linecap="round" stroke-linejoin="round"/>
<path d="M13.5348 9C13.1166 8.27469 12.9365 7.43643 13.0199 6.60335C13.1033 5.77027 13.4461 4.98438 13.9998 4.35641C14.5536 3.72844 15.2904 3.29005 16.1065 3.10303C16.9226 2.91601 17.7768 2.98977 18.5487 3.31394C19.3207 3.6381 19.9714 4.19632 20.4093 4.90993C20.8472 5.62353 21.0501 6.45655 20.9895 7.2916C20.9289 8.12665 20.6078 8.92162 20.0714 9.5645C19.535 10.2074 18.8104 10.6657 17.9998 10.875" stroke="#1C1C1E" stroke-width="2" stroke-linecap="round" stroke-linejoin="round"/>
<path d="M20.8486 5.90875C21.1938 5.55375 21.6214 5.28969 22.0934 5.14013C22.5654 4.99058 23.0671 4.96017 23.5537 5.05162C24.0403 5.14307 24.4967 5.35354 24.8822 5.66425C25.2677 5.97496 25.5703 6.37626 25.763 6.83234C25.9558 7.28843 26.0326 7.78512 25.9867 8.27811C25.9408 8.77111 25.7736 9.24508 25.5 9.65775C25.2264 10.0704 24.8549 10.409 24.4187 10.6432C23.9824 10.8774 23.495 11 22.9999 11" stroke="#1C1C1E" stroke-width="2" stroke-linecap="round" stroke-linejoin="round"/>
</svg>
