<svg width="32" height="32" viewBox="0 0 32 32" fill="none" xmlns="http://www.w3.org/2000/svg">
<path opacity="0.2" d="M2 8.65112V23.6511C13.455 18.0549 18.545 28.9449 30 23.3486V8.34862C18.545 13.9449 13.455 3.05487 2 8.65112ZM16 18.9999C15.4067 18.9999 14.8266 18.8239 14.3333 18.4943C13.8399 18.1646 13.4554 17.6961 13.2284 17.1479C13.0013 16.5997 12.9419 15.9965 13.0576 15.4146C13.1734 14.8327 13.4591 14.2981 13.8787 13.8786C14.2982 13.459 14.8328 13.1733 15.4147 13.0575C15.9967 12.9418 16.5999 13.0012 17.1481 13.2282C17.6962 13.4553 18.1648 13.8398 18.4944 14.3332C18.8241 14.8265 19 15.4065 19 15.9999C19 16.7955 18.6839 17.5586 18.1213 18.1212C17.5587 18.6838 16.7956 18.9999 16 18.9999Z" fill="#1C1C1E"/>
<path d="M30 23.3486C18.545 28.9449 13.455 18.0549 2 23.6511V8.65112C13.455 3.05487 18.545 13.9449 30 8.34862V23.3486Z" stroke="#1C1C1E" stroke-width="2" stroke-linecap="round" stroke-linejoin="round"/>
<path d="M16 19C17.6569 19 19 17.6569 19 16C19 14.3431 17.6569 13 16 13C14.3431 13 13 14.3431 13 16C13 17.6569 14.3431 19 16 19Z" stroke="#1C1C1E" stroke-width="2" stroke-linecap="round" stroke-linejoin="round"/>
<path d="M6 12V18" stroke="#1C1C1E" stroke-width="2" stroke-linecap="round" stroke-linejoin="round"/>
<path d="M26 14V20" stroke="#1C1C1E" stroke-width="2" stroke-linecap="round" stroke-linejoin="round"/>
</svg>
