<svg width="32" height="32" viewBox="0 0 32 32" fill="none" xmlns="http://www.w3.org/2000/svg">
<path opacity="0.2" d="M5 24C7.20914 24 9 22.2091 9 20C9 17.7909 7.20914 16 5 16C2.79086 16 1 17.7909 1 20C1 22.2091 2.79086 24 5 24Z" fill="#1C1C1E"/>
<path opacity="0.2" d="M27 24C29.2091 24 31 22.2091 31 20C31 17.7909 29.2091 16 27 16C24.7909 16 23 17.7909 23 20C23 22.2091 24.7909 24 27 24Z" fill="#1C1C1E"/>
<path d="M5 24C7.20914 24 9 22.2091 9 20C9 17.7909 7.20914 16 5 16C2.79086 16 1 17.7909 1 20C1 22.2091 2.79086 24 5 24Z" stroke="#1C1C1E" stroke-width="2" stroke-linecap="round" stroke-linejoin="round"/>
<path d="M27 24C29.2091 24 31 22.2091 31 20C31 17.7909 29.2091 16 27 16C24.7909 16 23 17.7909 23 20C23 22.2091 24.7909 24 27 24Z" stroke="#1C1C1E" stroke-width="2" stroke-linecap="round" stroke-linejoin="round"/>
<path d="M18 7H22L27 20" stroke="#1C1C1E" stroke-width="2" stroke-linecap="round" stroke-linejoin="round"/>
<path d="M2 10C2 10 7.91375 12.2925 11.07 13.7262C11.579 13.9603 12.1435 14.0471 12.6993 13.9768C13.2551 13.9066 13.7802 13.6821 14.215 13.3287C15.205 12.5112 16.8 12 19 12H27C25.2537 11.9995 23.5553 12.5704 22.1638 13.6255C20.7724 14.6807 19.7644 16.1621 19.2938 17.8438C19.1147 18.4672 18.737 19.0151 18.2181 19.4043C17.6991 19.7935 17.0674 20.0026 16.4188 20H5" stroke="#1C1C1E" stroke-width="2" stroke-linecap="round" stroke-linejoin="round"/>
</svg>
