<svg width="32" height="32" viewBox="0 0 32 32" fill="none" xmlns="http://www.w3.org/2000/svg">
<path opacity="0.2" d="M6.29375 16H15.7063L21 25H1L6.29375 16Z" fill="#1C1C1E"/>
<path opacity="0.2" d="M20.5 9C21.8807 9 23 7.88071 23 6.5C23 5.11929 21.8807 4 20.5 4C19.1193 4 18 5.11929 18 6.5C18 7.88071 19.1193 9 20.5 9Z" fill="#1C1C1E"/>
<path opacity="0.2" d="M18.3262 20.4637L22.4587 13.49C22.5472 13.3407 22.6731 13.2171 22.8238 13.1313C22.9746 13.0454 23.1452 13.0002 23.3187 13.0002C23.4922 13.0002 23.6627 13.0454 23.8135 13.1313C23.9643 13.2171 24.0901 13.3407 24.1787 13.49L30.9999 25H20.9999L18.3262 20.4637Z" fill="#1C1C1E"/>
<path d="M20.5 9C21.8807 9 23 7.88071 23 6.5C23 5.11929 21.8807 4 20.5 4C19.1193 4 18 5.11929 18 6.5C18 7.88071 19.1193 9 20.5 9Z" stroke="#1C1C1E" stroke-width="2" stroke-linecap="round" stroke-linejoin="round"/>
<path d="M1 25L10.1375 9.49248C10.2257 9.3421 10.3517 9.21741 10.503 9.13076C10.6543 9.04412 10.8257 8.99854 11 8.99854C11.1743 8.99854 11.3457 9.04412 11.497 9.13076C11.6483 9.21741 11.7743 9.3421 11.8625 9.49248L21 25H1Z" stroke="#1C1C1E" stroke-width="2" stroke-linecap="round" stroke-linejoin="round"/>
<path d="M6.29395 16H15.7064" stroke="#1C1C1E" stroke-width="2" stroke-linecap="round" stroke-linejoin="round"/>
<path d="M18.3262 20.4637L22.4587 13.49C22.5472 13.3407 22.6731 13.2171 22.8238 13.1313C22.9746 13.0454 23.1452 13.0002 23.3187 13.0002C23.4922 13.0002 23.6627 13.0454 23.8135 13.1313C23.9643 13.2171 24.0901 13.3407 24.1787 13.49L30.9999 25H20.9999" stroke="#1C1C1E" stroke-width="2" stroke-linecap="round" stroke-linejoin="round"/>
</svg>
