<svg width="32" height="32" viewBox="0 0 32 32" fill="none" xmlns="http://www.w3.org/2000/svg">
<path opacity="0.2" d="M17 10H15C14.4477 10 14 10.4477 14 11V17C14 17.5523 14.4477 18 15 18H17C17.5523 18 18 17.5523 18 17V11C18 10.4477 17.5523 10 17 10Z" fill="#1C1C1E"/>
<path d="M17 10H15C14.4477 10 14 10.4477 14 11V17C14 17.5523 14.4477 18 15 18H17C17.5523 18 18 17.5523 18 17V11C18 10.4477 17.5523 10 17 10Z" stroke="#1C1C1E" stroke-width="2" stroke-linecap="round" stroke-linejoin="round"/>
<path d="M18 3H14C10.134 3 7 6.13401 7 10V22C7 25.866 10.134 29 14 29H18C21.866 29 25 25.866 25 22V10C25 6.13401 21.866 3 18 3Z" stroke="#1C1C1E" stroke-width="2" stroke-linecap="round" stroke-linejoin="round"/>
<path d="M16 10V3" stroke="#1C1C1E" stroke-width="2" stroke-linecap="round" stroke-linejoin="round"/>
<path d="M7 14H14" stroke="#1C1C1E" stroke-width="2" stroke-linecap="round" stroke-linejoin="round"/>
<path d="M18 14H25" stroke="#1C1C1E" stroke-width="2" stroke-linecap="round" stroke-linejoin="round"/>
</svg>
