<svg width="32" height="32" viewBox="0 0 32 32" fill="none" xmlns="http://www.w3.org/2000/svg">
<path opacity="0.2" d="M18 3H14C10.134 3 7 6.13401 7 10V22C7 25.866 10.134 29 14 29H18C21.866 29 25 25.866 25 22V10C25 6.13401 21.866 3 18 3Z" fill="#1C1C1E"/>
<path d="M18 3H14C10.134 3 7 6.13401 7 10V22C7 25.866 10.134 29 14 29H18C21.866 29 25 25.866 25 22V10C25 6.13401 21.866 3 18 3Z" stroke="#1C1C1E" stroke-width="2" stroke-linecap="round" stroke-linejoin="round"/>
<path d="M16 14V8" stroke="#1C1C1E" stroke-width="2" stroke-linecap="round" stroke-linejoin="round"/>
</svg>
