<svg width="32" height="32" viewBox="0 0 32 32" fill="none" xmlns="http://www.w3.org/2000/svg">
<path opacity="0.2" d="M7 14H25V22C25 23.8565 24.2625 25.637 22.9497 26.9497C21.637 28.2625 19.8565 29 18 29H14C12.1435 29 10.363 28.2625 9.05025 26.9497C7.7375 25.637 7 23.8565 7 22V14Z" fill="#1C1C1E"/>
<path d="M18 3H14C10.134 3 7 6.13401 7 10V22C7 25.866 10.134 29 14 29H18C21.866 29 25 25.866 25 22V10C25 6.13401 21.866 3 18 3Z" stroke="#1C1C1E" stroke-width="2" stroke-linecap="round" stroke-linejoin="round"/>
<path d="M16 14V3" stroke="#1C1C1E" stroke-width="2" stroke-linecap="round" stroke-linejoin="round"/>
<path d="M7 14H25" stroke="#1C1C1E" stroke-width="2" stroke-linecap="round" stroke-linejoin="round"/>
</svg>
