<svg width="32" height="32" viewBox="0 0 32 32" fill="none" xmlns="http://www.w3.org/2000/svg">
<path opacity="0.2" d="M18 4H14C13.4477 4 13 4.44772 13 5V9C13 9.55228 13.4477 10 14 10H18C18.5523 10 19 9.55228 19 9V5C19 4.44772 18.5523 4 18 4Z" fill="#1C1C1E"/>
<path opacity="0.2" d="M10 21H6C5.44772 21 5 21.4477 5 22V26C5 26.5523 5.44772 27 6 27H10C10.5523 27 11 26.5523 11 26V22C11 21.4477 10.5523 21 10 21Z" fill="#1C1C1E"/>
<path opacity="0.2" d="M26 21H22C21.4477 21 21 21.4477 21 22V26C21 26.5523 21.4477 27 22 27H26C26.5523 27 27 26.5523 27 26V22C27 21.4477 26.5523 21 26 21Z" fill="#1C1C1E"/>
<path d="M18 4H14C13.4477 4 13 4.44772 13 5V9C13 9.55228 13.4477 10 14 10H18C18.5523 10 19 9.55228 19 9V5C19 4.44772 18.5523 4 18 4Z" stroke="#1C1C1E" stroke-width="2" stroke-linecap="round" stroke-linejoin="round"/>
<path d="M10 21H6C5.44772 21 5 21.4477 5 22V26C5 26.5523 5.44772 27 6 27H10C10.5523 27 11 26.5523 11 26V22C11 21.4477 10.5523 21 10 21Z" stroke="#1C1C1E" stroke-width="2" stroke-linecap="round" stroke-linejoin="round"/>
<path d="M26 21H22C21.4477 21 21 21.4477 21 22V26C21 26.5523 21.4477 27 22 27H26C26.5523 27 27 26.5523 27 26V22C27 21.4477 26.5523 21 26 21Z" stroke="#1C1C1E" stroke-width="2" stroke-linecap="round" stroke-linejoin="round"/>
<path d="M16 10V15" stroke="#1C1C1E" stroke-width="2" stroke-linecap="round" stroke-linejoin="round"/>
<path d="M24 15V21" stroke="#1C1C1E" stroke-width="2" stroke-linecap="round" stroke-linejoin="round"/>
<path d="M8 21V15" stroke="#1C1C1E" stroke-width="2" stroke-linecap="round" stroke-linejoin="round"/>
<path d="M3 15H29" stroke="#1C1C1E" stroke-width="2" stroke-linecap="round" stroke-linejoin="round"/>
</svg>
