<svg width="32" height="32" viewBox="0 0 32 32" fill="none" xmlns="http://www.w3.org/2000/svg">
<path opacity="0.2" d="M25 6H16C13.3478 6 10.8043 7.05357 8.92893 8.92893C7.05357 10.8043 6 13.3478 6 16C6 18.6522 7.05357 21.1957 8.92893 23.0711C10.8043 24.9464 13.3478 26 16 26H25V6Z" fill="#1C1C1E"/>
<path d="M26 5L6 27" stroke="#1C1C1E" stroke-width="2" stroke-linecap="round" stroke-linejoin="round"/>
<path d="M25 6H16C13.3478 6 10.8043 7.05357 8.92893 8.92893C7.05357 10.8043 6 13.3478 6 16C6 18.6522 7.05357 21.1957 8.92893 23.0711C10.8043 24.9464 13.3478 26 16 26H25" stroke="#1C1C1E" stroke-width="2" stroke-linecap="round" stroke-linejoin="round"/>
</svg>
