<svg width="32" height="32" viewBox="0 0 32 32" fill="none" xmlns="http://www.w3.org/2000/svg">
<path opacity="0.2" d="M27 5V27C27 27.5304 26.7893 28.0391 26.4142 28.4142C26.0391 28.7893 25.5304 29 25 29H7C6.46957 29 5.96086 28.7893 5.58579 28.4142C5.21071 28.0391 5 27.5304 5 27V5C5 4.46957 5.21071 3.96086 5.58579 3.58579C5.96086 3.21071 6.46957 3 7 3H25C25.5304 3 26.0391 3.21071 26.4142 3.58579C26.7893 3.96086 27 4.46957 27 5Z" fill="#1C1C1E"/>
<path d="M11 24.4725C11.8585 25.2403 12.9198 25.7447 14.0573 25.9256C15.1947 26.1066 16.3602 25.9563 17.4145 25.4927C18.4689 25.0292 19.3675 24.272 20.0032 23.3116C20.6388 22.3511 20.9846 21.228 20.9992 20.0764C21.0139 18.9248 20.6968 17.7932 20.0857 16.817C19.4747 15.8407 18.5956 15.0609 17.5534 14.5707C16.5112 14.0805 15.3499 13.9006 14.2082 14.0526C13.0666 14.2045 11.9927 14.6818 11.115 15.4275L13 6H21" stroke="#1C1C1E" stroke-width="2" stroke-linecap="round" stroke-linejoin="round"/>
</svg>
