<svg width="32" height="32" viewBox="0 0 32 32" fill="none" xmlns="http://www.w3.org/2000/svg">
<path opacity="0.2" d="M27 5V27C27 27.5304 26.7893 28.0391 26.4142 28.4142C26.0391 28.7893 25.5304 29 25 29H7C6.46957 29 5.96086 28.7893 5.58579 28.4142C5.21071 28.0391 5 27.5304 5 27V5C5 4.46957 5.21071 3.96086 5.58579 3.58579C5.96086 3.21071 6.46957 3 7 3H25C25.5304 3 26.0391 3.21071 26.4142 3.58579C26.7893 3.96086 27 4.46957 27 5Z" fill="#1C1C1E"/>
<path d="M11 6H21L15 14C15.9725 14.0001 16.9305 14.2365 17.7913 14.6891C18.6522 15.1416 19.3901 15.7966 19.9416 16.5976C20.4931 17.3987 20.8416 18.3218 20.9571 19.2874C21.0726 20.2531 20.9517 21.2323 20.6047 22.1409C20.2576 23.0494 19.695 23.8599 18.9651 24.5027C18.2353 25.1455 17.3601 25.6012 16.415 25.8307C15.47 26.0601 14.4833 26.0563 13.5399 25.8197C12.5966 25.5831 11.7249 25.1208 11 24.4725" stroke="#1C1C1E" stroke-width="2" stroke-linecap="round" stroke-linejoin="round"/>
</svg>
