<svg width="32" height="32" viewBox="0 0 32 32" fill="none" xmlns="http://www.w3.org/2000/svg">
<path opacity="0.2" d="M26 5H6C5.44772 5 5 5.44772 5 6V26C5 26.5523 5.44772 27 6 27H26C26.5523 27 27 26.5523 27 26V6C27 5.44772 26.5523 5 26 5Z" fill="#1C1C1E"/>
<path d="M26 5H6C5.44772 5 5 5.44772 5 6V26C5 26.5523 5.44772 27 6 27H26C26.5523 27 27 26.5523 27 26V6C27 5.44772 26.5523 5 26 5Z" stroke="#1C1C1E" stroke-width="2" stroke-linecap="round" stroke-linejoin="round"/>
<path d="M13 10H19L15.5 15C16.077 15.0001 16.6451 15.1428 17.1536 15.4155C17.6622 15.6883 18.0954 16.0825 18.4147 16.5631C18.734 17.0437 18.9296 17.5958 18.9839 18.1703C19.0383 18.7448 18.9498 19.3238 18.7262 19.8558C18.5027 20.3878 18.1511 20.8562 17.7028 21.2195C17.2544 21.5827 16.7232 21.8295 16.1564 21.9378C15.5896 22.0461 15.0049 22.0126 14.4542 21.8403C13.9035 21.6679 13.4039 21.3621 13 20.95" stroke="#1C1C1E" stroke-width="2" stroke-linecap="round" stroke-linejoin="round"/>
</svg>
