<svg width="32" height="32" viewBox="0 0 32 32" fill="none" xmlns="http://www.w3.org/2000/svg">
<path opacity="0.2" d="M27 5V27C27 27.5304 26.7893 28.0391 26.4142 28.4142C26.0391 28.7893 25.5304 29 25 29H7C6.46957 29 5.96086 28.7893 5.58579 28.4142C5.21071 28.0391 5 27.5304 5 27V5C5 4.46957 5.21071 3.96086 5.58579 3.58579C5.96086 3.21071 6.46957 3 7 3H25C25.5304 3 26.0391 3.21071 26.4142 3.58579C26.7893 3.96086 27 4.46957 27 5Z" fill="#1C1C1E"/>
<path d="M11.4163 9.00018C11.6987 8.35333 12.1149 7.77361 12.6375 7.29915C13.16 6.82469 13.7771 6.46624 14.4482 6.24739C15.1192 6.02854 15.829 5.95425 16.5308 6.02939C17.2326 6.10454 17.9106 6.32742 18.5201 6.68338C19.1296 7.03934 19.6568 7.52031 20.0671 8.09466C20.4773 8.669 20.7613 9.3237 20.9004 10.0157C21.0395 10.7077 21.0305 11.4213 20.874 12.1095C20.7176 12.7978 20.4171 13.4451 19.9925 14.0089L11 26.0002H21" stroke="#1C1C1E" stroke-width="2" stroke-linecap="round" stroke-linejoin="round"/>
</svg>
