<svg width="32" height="32" viewBox="0 0 32 32" fill="none" xmlns="http://www.w3.org/2000/svg">
<path opacity="0.2" d="M27.48 9.14517L16.48 3.12517C16.3328 3.04465 16.1678 3.00244 16 3.00244C15.8322 3.00244 15.6672 3.04465 15.52 3.12517L4.52 9.14767C4.36293 9.23361 4.23181 9.36015 4.14035 9.51406C4.04888 9.66798 4.00041 9.84363 4 10.0227V21.9777C4.00041 22.1567 4.04888 22.3324 4.14035 22.4863C4.23181 22.6402 4.36293 22.7667 4.52 22.8527L15.52 28.8752C15.6672 28.9557 15.8322 28.9979 16 28.9979C16.1678 28.9979 16.3328 28.9557 16.48 28.8752L27.48 22.8527C27.6371 22.7667 27.7682 22.6402 27.8597 22.4863C27.9511 22.3324 27.9996 22.1567 28 21.9777V10.0227C28 9.8432 27.9518 9.66703 27.8603 9.51264C27.7688 9.35824 27.6374 9.23132 27.48 9.14517ZM16 21.0002C15.0111 21.0002 14.0444 20.7069 13.2221 20.1575C12.3999 19.6081 11.759 18.8272 11.3806 17.9136C11.0022 17 10.9031 15.9946 11.0961 15.0247C11.289 14.0548 11.7652 13.1639 12.4645 12.4646C13.1637 11.7654 14.0546 11.2892 15.0245 11.0962C15.9945 10.9033 16.9998 11.0023 17.9134 11.3808C18.827 11.7592 19.6079 12.4001 20.1573 13.2223C20.7068 14.0446 21 15.0113 21 16.0002C21 17.3263 20.4732 18.598 19.5355 19.5357C18.5979 20.4734 17.3261 21.0002 16 21.0002Z" fill="#1C1C1E"/>
<path d="M16 21C18.7614 21 21 18.7614 21 16C21 13.2386 18.7614 11 16 11C13.2386 11 11 13.2386 11 16C11 18.7614 13.2386 21 16 21Z" stroke="#1C1C1E" stroke-width="2" stroke-linecap="round" stroke-linejoin="round"/>
<path d="M27.48 22.8552L16.48 28.8777C16.3328 28.9582 16.1678 29.0004 16 29.0004C15.8322 29.0004 15.6672 28.9582 15.52 28.8777L4.52 22.8552C4.36293 22.7692 4.23181 22.6427 4.14035 22.4888C4.04888 22.3349 4.00041 22.1592 4 21.9802V10.0227C4.00041 9.84363 4.04888 9.66798 4.14035 9.51406C4.23181 9.36015 4.36293 9.23361 4.52 9.14767L15.52 3.12517C15.6672 3.04465 15.8322 3.00244 16 3.00244C16.1678 3.00244 16.3328 3.04465 16.48 3.12517L27.48 9.14767C27.6371 9.23361 27.7682 9.36015 27.8597 9.51406C27.9511 9.66798 27.9996 9.84363 28 10.0227V21.9777C28 22.1571 27.9518 22.3333 27.8603 22.4877C27.7688 22.6421 27.6374 22.769 27.48 22.8552Z" stroke="#1C1C1E" stroke-width="2" stroke-linecap="round" stroke-linejoin="round"/>
</svg>
