<svg width="32" height="32" viewBox="0 0 32 32" fill="none" xmlns="http://www.w3.org/2000/svg">
<path opacity="0.2" d="M11.715 3C11.4743 2.99999 11.2416 3.08684 11.0597 3.24459C10.8779 3.40235 10.759 3.62041 10.725 3.85875L9.01003 15.8588C8.98979 16.0006 9.00026 16.1451 9.04074 16.2825C9.08121 16.4199 9.15074 16.5471 9.24461 16.6553C9.33849 16.7635 9.45452 16.8503 9.58485 16.9098C9.71518 16.9692 9.85677 17 10 17H22C22.1433 17 22.2849 16.9692 22.4152 16.9098C22.5455 16.8503 22.6616 16.7635 22.7554 16.6553C22.8493 16.5471 22.9188 16.4199 22.9593 16.2825C22.9998 16.1451 23.0103 16.0006 22.99 15.8588L21.275 3.85875C21.241 3.62041 21.1222 3.40235 20.9403 3.24459C20.7584 3.08684 20.5258 2.99999 20.285 3H11.715Z" fill="#1C1C1E"/>
<path d="M9 29C9 28.2044 9.31607 27.4413 9.87868 26.8787C10.4413 26.3161 11.2044 26 12 26H20C20.7956 26 21.5587 26.3161 22.1213 26.8787C22.6839 27.4413 23 28.2044 23 29" stroke="#1C1C1E" stroke-width="2" stroke-linecap="round" stroke-linejoin="round"/>
<path d="M16 21V29" stroke="#1C1C1E" stroke-width="2" stroke-linecap="round" stroke-linejoin="round"/>
<path d="M2 16H5C5 17.3261 5.52678 18.5979 6.46447 19.5355C7.40215 20.4732 8.67392 21 10 21H22C23.3261 21 24.5979 20.4732 25.5355 19.5355C26.4732 18.5979 27 17.3261 27 16H30" stroke="#1C1C1E" stroke-width="2" stroke-linecap="round" stroke-linejoin="round"/>
<path d="M11.715 3C11.4743 2.99999 11.2416 3.08684 11.0597 3.24459C10.8779 3.40235 10.759 3.62041 10.725 3.85875L9.01003 15.8588C8.98979 16.0006 9.00026 16.1451 9.04074 16.2825C9.08121 16.4199 9.15074 16.5471 9.24461 16.6553C9.33849 16.7635 9.45452 16.8503 9.58485 16.9098C9.71518 16.9692 9.85677 17 10 17H22C22.1433 17 22.2849 16.9692 22.4152 16.9098C22.5455 16.8503 22.6616 16.7635 22.7554 16.6553C22.8493 16.5471 22.9188 16.4199 22.9593 16.2825C22.9998 16.1451 23.0103 16.0006 22.99 15.8588L21.275 3.85875C21.241 3.62041 21.1222 3.40235 20.9403 3.24459C20.7584 3.08684 20.5258 2.99999 20.285 3H11.715Z" stroke="#1C1C1E" stroke-width="2" stroke-linecap="round" stroke-linejoin="round"/>
</svg>
