<svg width="32" height="32" viewBox="0 0 32 32" fill="none" xmlns="http://www.w3.org/2000/svg">
<path opacity="0.2" d="M11 28V21C11 20.7348 11.1054 20.4804 11.2929 20.2929C11.4804 20.1054 11.7348 20 12 20H20C20.2652 20 20.5196 20.1054 20.7071 20.2929C20.8946 20.4804 21 20.7348 21 21V28H11Z" fill="#1C1C1E"/>
<path d="M11 28V21C11 20.7348 11.1054 20.4804 11.2929 20.2929C11.4804 20.1054 11.7348 20 12 20H20C20.2652 20 20.5196 20.1054 20.7071 20.2929C20.8946 20.4804 21 20.7348 21 21V28" stroke="#1C1C1E" stroke-width="2" stroke-linecap="round" stroke-linejoin="round"/>
<path d="M3.9113 18.8359C1.4313 22.8322 4.30505 27.9997 9.01005 27.9997H22.9901C27.6951 27.9997 30.5688 22.8322 28.0888 18.8359L21.0976 6.83594C18.7501 3.05469 13.2501 3.05469 10.9026 6.83594L3.9113 18.8359Z" stroke="#1C1C1E" stroke-width="2" stroke-linecap="round" stroke-linejoin="round"/>
</svg>
