<svg width="32" height="32" viewBox="0 0 32 32" fill="none" xmlns="http://www.w3.org/2000/svg">
<path opacity="0.2" d="M6.43704 18.5625C5.96024 18.287 5.52364 17.9471 5.13954 17.5525C4.52845 18.703 4.30842 20.0212 4.51272 21.3078C4.71701 22.5945 5.33452 23.7797 6.27194 24.6843C7.20936 25.589 8.41575 26.164 9.70884 26.3224C11.0019 26.4808 12.3114 26.2141 13.4395 25.5625L18.9995 22.3512V17.7325L11.9995 21.7737L6.43704 18.5625Z" fill="#1C1C1E"/>
<path opacity="0.2" d="M25.5625 13.4374L20 10.2262L16 12.5362L23 16.5774V22.9999C22.9993 23.5494 22.9232 24.0962 22.7738 24.6249C24.0741 24.5774 25.3238 24.1084 26.3344 23.2886C27.3449 22.4689 28.0616 21.3428 28.3763 20.0802C28.6911 18.8176 28.5868 17.4869 28.0793 16.2887C27.5717 15.0905 26.6884 14.0898 25.5625 13.4374Z" fill="#1C1C1E"/>
<path opacity="0.2" d="M13 17.7325V9.64872L18.5625 6.43747C19.0391 6.15975 19.5519 5.94942 20.0863 5.81247C19.3951 4.70794 18.3631 3.85842 17.1464 3.3923C15.9297 2.92619 14.5943 2.86881 13.3421 3.22885C12.0898 3.58889 10.9888 4.34677 10.2055 5.38795C9.42212 6.42913 8.99898 7.69701 9 8.99997V15.4225L13 17.7325Z" fill="#1C1C1E"/>
<path d="M13 17.7325V9.64877L18.5625 6.43752C19.6906 5.78591 21.0001 5.51917 22.2932 5.67759C23.5863 5.83602 24.7927 6.411 25.7301 7.31567C26.6675 8.22034 27.285 9.40553 27.4893 10.6922C27.6936 11.9788 27.4736 13.297 26.8625 14.4475" stroke="#1C1C1E" stroke-width="2" stroke-linecap="round" stroke-linejoin="round"/>
<path d="M16 19.4637L9 15.4225V9C8.99979 7.69736 9.42352 6.43004 10.2072 5.38949C10.9908 4.34893 12.0918 3.59168 13.3439 3.23212C14.5959 2.87256 15.9309 2.93023 17.1473 3.39642C18.3636 3.86261 19.3953 4.71199 20.0863 5.81625" stroke="#1C1C1E" stroke-width="2" stroke-linecap="round" stroke-linejoin="round"/>
<path d="M18.9999 17.7325L11.9999 21.7738L6.43743 18.5625C5.31167 17.9103 4.42843 16.9098 3.92082 15.7118C3.4132 14.5139 3.30874 13.1834 3.62316 11.9209C3.93759 10.6584 4.65386 9.53232 5.66403 8.71238C6.6742 7.89243 7.92352 7.42306 9.22369 7.375" stroke="#1C1C1E" stroke-width="2" stroke-linecap="round" stroke-linejoin="round"/>
<path d="M19.0001 14.2675V22.3512L13.4376 25.5625C12.3095 26.2141 11 26.4808 9.70689 26.3224C8.4138 26.164 7.2074 25.589 6.26999 24.6843C5.33257 23.7796 4.71506 22.5944 4.51076 21.3078C4.30647 20.0212 4.52649 18.703 5.13758 17.5525" stroke="#1C1C1E" stroke-width="2" stroke-linecap="round" stroke-linejoin="round"/>
<path d="M16.0003 12.5363L23.0003 16.5775V23C23.0005 24.3026 22.5768 25.57 21.7931 26.6105C21.0095 27.6511 19.9085 28.4083 18.6565 28.7679C17.4044 29.1274 16.0694 29.0698 14.853 28.6036C13.6367 28.1374 12.6051 27.288 11.9141 26.1838" stroke="#1C1C1E" stroke-width="2" stroke-linecap="round" stroke-linejoin="round"/>
<path d="M13 14.2674L20 10.2262L25.5625 13.4374C26.6912 14.0884 27.5773 15.0891 28.0868 16.2882C28.5964 17.4874 28.7019 18.8198 28.3871 20.0842C28.0724 21.3485 27.3547 22.4761 26.3424 23.2964C25.3302 24.1167 24.0784 24.5853 22.7763 24.6312" stroke="#1C1C1E" stroke-width="2" stroke-linecap="round" stroke-linejoin="round"/>
</svg>
