<svg width="32" height="32" viewBox="0 0 32 32" fill="none" xmlns="http://www.w3.org/2000/svg">
<path opacity="0.2" d="M27 17C27 17.5304 26.7893 18.0391 26.4142 18.4142C26.0391 18.7893 25.5304 19 25 19H19C18.8567 19 18.7152 19.0308 18.5848 19.0902C18.4545 19.1497 18.3385 19.2365 18.2446 19.3447C18.1507 19.4529 18.0812 19.5801 18.0407 19.7175C18.0002 19.8549 17.9898 19.9994 18.01 20.1413L19 26C19 26.7956 18.6839 27.5587 18.1213 28.1213C17.5587 28.6839 16.7956 29 16 29C15.2044 29 14.4413 28.6839 13.8787 28.1213C13.3161 27.5587 13 26.7956 13 26L13.99 20.1413C14.0102 19.9994 13.9998 19.8549 13.9593 19.7175C13.9188 19.5801 13.8493 19.4529 13.7554 19.3447C13.6615 19.2365 13.5455 19.1497 13.4152 19.0902C13.2848 19.0308 13.1433 19 13 19H7C6.46957 19 5.96086 18.7893 5.58579 18.4142C5.21071 18.0391 5 17.5304 5 17V14H27V17Z" fill="#1C1C1E"/>
<path d="M5 14H27" stroke="#1C1C1E" stroke-width="2" stroke-linecap="round" stroke-linejoin="round"/>
<path d="M7 19C6.46957 19 5.96086 18.7893 5.58579 18.4142C5.21071 18.0391 5 17.5304 5 17V8C5 6.93913 5.42143 5.92172 6.17157 5.17157C6.92172 4.42143 7.93913 4 9 4H27V17C27 17.5304 26.7893 18.0391 26.4142 18.4142C26.0391 18.7893 25.5304 19 25 19H19C18.8567 19 18.7152 19.0308 18.5848 19.0902C18.4545 19.1497 18.3385 19.2365 18.2446 19.3447C18.1507 19.4529 18.0812 19.5801 18.0407 19.7175C18.0002 19.8549 17.9898 19.9994 18.01 20.1413L19 26C19 26.7956 18.6839 27.5587 18.1213 28.1213C17.5587 28.6839 16.7956 29 16 29C15.2044 29 14.4413 28.6839 13.8787 28.1213C13.3161 27.5587 13 26.7956 13 26L13.99 20.1413C14.0102 19.9994 13.9998 19.8549 13.9593 19.7175C13.9188 19.5801 13.8493 19.4529 13.7554 19.3447C13.6615 19.2365 13.5455 19.1497 13.4152 19.0902C13.2848 19.0308 13.1433 19 13 19H7Z" stroke="#1C1C1E" stroke-width="2" stroke-linecap="round" stroke-linejoin="round"/>
<path d="M23 4V10" stroke="#1C1C1E" stroke-width="2" stroke-linecap="round" stroke-linejoin="round"/>
</svg>
