<svg width="32" height="32" viewBox="0 0 32 32" fill="none" xmlns="http://www.w3.org/2000/svg">
<path opacity="0.2" d="M28.125 3.87498C27.8463 3.5953 27.5151 3.37339 27.1505 3.22197C26.7858 3.07056 26.3948 2.99261 26 2.99261C25.6052 2.99261 25.2142 3.07056 24.8495 3.22197C24.4849 3.37339 24.1537 3.5953 23.875 3.87498L16.5 12.5L14.4137 10.4137C14.0387 10.0389 13.5302 9.82841 13 9.82841C12.4698 9.82841 11.9613 10.0389 11.5863 10.4137L9 13L19 23L21.5863 20.4137C21.961 20.0387 22.1716 19.5302 22.1716 19C22.1716 18.4698 21.961 17.9613 21.5863 17.5862L19.5 15.5L28.125 8.12498C28.4047 7.84627 28.6266 7.51509 28.778 7.15044C28.9294 6.78578 29.0074 6.39482 29.0074 5.99998C29.0074 5.60514 28.9294 5.21418 28.778 4.84952C28.6266 4.48487 28.4047 4.15369 28.125 3.87498Z" fill="#1C1C1E"/>
<path d="M9 13L19 23" stroke="#1C1C1E" stroke-width="2" stroke-linecap="round" stroke-linejoin="round"/>
<path d="M5.5 23.5L9 20" stroke="#1C1C1E" stroke-width="2" stroke-linecap="round" stroke-linejoin="round"/>
<path d="M8.5 26.5L12 23" stroke="#1C1C1E" stroke-width="2" stroke-linecap="round" stroke-linejoin="round"/>
<path d="M19.5 15.5L21.5863 17.5863C21.961 17.9613 22.1716 18.4698 22.1716 19C22.1716 19.5302 21.961 20.0387 21.5863 20.4138L12 30L2 20L11.5863 10.4138C11.9613 10.039 12.4698 9.82844 13 9.82844C13.5302 9.82844 14.0387 10.039 14.4137 10.4138L16.5 12.5L23.875 3.87502C24.4386 3.31143 25.203 2.99481 26 2.99481C26.797 2.99481 27.5614 3.31143 28.125 3.87502C28.6886 4.4386 29.0052 5.20299 29.0052 6.00002C29.0052 6.79705 28.6886 7.56143 28.125 8.12502L19.5 15.5Z" stroke="#1C1C1E" stroke-width="2" stroke-linecap="round" stroke-linejoin="round"/>
</svg>
