<svg width="32" height="32" viewBox="0 0 32 32" fill="none" xmlns="http://www.w3.org/2000/svg">
<path opacity="0.2" d="M16 24C16 23.2043 16.3161 22.4413 16.8787 21.8787C17.4413 21.3161 18.2044 21 19 21H24.7763C25.4558 21.0001 26.1152 20.7695 26.6465 20.346C27.1779 19.9225 27.5498 19.3312 27.7013 18.6687C27.9077 17.7592 28.008 16.8289 28 15.8962C27.9438 9.29375 22.48 3.93375 15.875 4C12.7141 4.03292 9.69388 5.31173 7.47041 7.55861C5.24694 9.80548 3.99983 12.8389 4 16C4 21.2262 7.34125 25.18 12 26.8262C12.4523 26.9862 12.9364 27.0353 13.4116 26.9694C13.8868 26.9036 14.3393 26.7248 14.7312 26.4479C15.123 26.1711 15.4427 25.8043 15.6635 25.3784C15.8842 24.9524 15.9997 24.4798 16 24Z" fill="#1C1C1E"/>
<path d="M16 24C16 23.2043 16.3161 22.4413 16.8787 21.8787C17.4413 21.3161 18.2044 21 19 21H24.7763C25.4558 21.0001 26.1152 20.7695 26.6465 20.346C27.1779 19.9225 27.5498 19.3312 27.7013 18.6687C27.9077 17.7592 28.008 16.8289 28 15.8962C27.9438 9.29375 22.48 3.93375 15.875 4C12.7141 4.03292 9.69388 5.31173 7.47041 7.55861C5.24694 9.80548 3.99983 12.8389 4 16C4 21.2262 7.34125 25.18 12 26.8262C12.4523 26.9862 12.9364 27.0353 13.4116 26.9694C13.8868 26.9036 14.3393 26.7248 14.7312 26.4479C15.123 26.1711 15.4427 25.8043 15.6635 25.3784C15.8842 24.9524 15.9997 24.4798 16 24Z" stroke="#1C1C1E" stroke-width="2" stroke-linecap="round" stroke-linejoin="round"/>
<path d="M16 11C16.8284 11 17.5 10.3284 17.5 9.5C17.5 8.67157 16.8284 8 16 8C15.1716 8 14.5 8.67157 14.5 9.5C14.5 10.3284 15.1716 11 16 11Z" fill="#1C1C1E"/>
<path d="M10.5 14C11.3284 14 12 13.3284 12 12.5C12 11.6716 11.3284 11 10.5 11C9.67157 11 9 11.6716 9 12.5C9 13.3284 9.67157 14 10.5 14Z" fill="#1C1C1E"/>
<path d="M10.5 21C11.3284 21 12 20.3284 12 19.5C12 18.6716 11.3284 18 10.5 18C9.67157 18 9 18.6716 9 19.5C9 20.3284 9.67157 21 10.5 21Z" fill="#1C1C1E"/>
<path d="M21.5 14C22.3284 14 23 13.3284 23 12.5C23 11.6716 22.3284 11 21.5 11C20.6716 11 20 11.6716 20 12.5C20 13.3284 20.6716 14 21.5 14Z" fill="#1C1C1E"/>
</svg>
