<svg width="32" height="32" viewBox="0 0 32 32" fill="none" xmlns="http://www.w3.org/2000/svg">
<path opacity="0.2" d="M29.5662 24.8238C29.6999 24.7319 29.8093 24.6089 29.8848 24.4654C29.9604 24.3219 29.9999 24.1622 30 24V8.00001C29.9997 7.84756 29.9645 7.69719 29.8972 7.56041C29.8299 7.42363 29.7322 7.30406 29.6116 7.21082C29.491 7.11759 29.3506 7.05316 29.2013 7.02247C29.052 6.99178 28.8976 6.99564 28.75 7.03376C26.5812 7.61126 21.82 9.00001 16 9.00001C10.18 9.00001 5.41875 7.61126 3.25625 7.03376C3.10823 6.99452 2.95318 6.98979 2.80304 7.01995C2.65291 7.05011 2.51171 7.11435 2.39033 7.20771C2.26895 7.30107 2.17063 7.42106 2.10295 7.55843C2.03528 7.6958 2.00006 7.84687 2 8.00001V20.085L8.7925 13.2913C8.88537 13.1983 8.99566 13.1245 9.11706 13.0742C9.23846 13.0239 9.36858 12.998 9.5 12.998C9.63142 12.998 9.76154 13.0239 9.88294 13.0742C10.0043 13.1245 10.1146 13.1983 10.2075 13.2913L16.4137 19.5L19.625 16.2925C19.8125 16.1051 20.0668 15.9998 20.3319 15.9998C20.597 15.9998 20.8512 16.1051 21.0387 16.2925L29.5662 24.8238Z" fill="#1C1C1E"/>
<path d="M2 8.00004C1.99986 7.8468 2.03495 7.69558 2.10254 7.55805C2.17013 7.42053 2.26843 7.30037 2.38983 7.20687C2.51124 7.11337 2.65251 7.04902 2.80274 7.0188C2.95296 6.98857 3.10813 6.99327 3.25625 7.03254C5.41875 7.61129 10.18 9.00004 16 9.00004C21.82 9.00004 26.5812 7.61129 28.75 7.03379C28.8976 6.99567 29.052 6.99181 29.2013 7.0225C29.3506 7.05319 29.491 7.11761 29.6116 7.21085C29.7322 7.30409 29.8299 7.42366 29.8972 7.56044C29.9645 7.69722 29.9997 7.84759 30 8.00004V24C30 24.1533 29.9648 24.3045 29.897 24.442C29.8293 24.5795 29.7308 24.6996 29.6093 24.793C29.4878 24.8863 29.3464 24.9505 29.1961 24.9806C29.0458 25.0106 28.8906 25.0058 28.7425 24.9663C26.5788 24.385 21.8187 23 16 23C10.1813 23 5.42125 24.385 3.2575 24.965C3.1095 25.0045 2.95442 25.0094 2.80422 24.9794C2.65402 24.9494 2.51271 24.8853 2.3912 24.7921C2.26969 24.6988 2.17123 24.5789 2.1034 24.4416C2.03557 24.3043 2.0002 24.1532 2 24V8.00004Z" stroke="#1C1C1E" stroke-width="2" stroke-linecap="round" stroke-linejoin="round"/>
<path d="M25.5 15C26.3284 15 27 14.3284 27 13.5C27 12.6716 26.3284 12 25.5 12C24.6716 12 24 12.6716 24 13.5C24 14.3284 24.6716 15 25.5 15Z" fill="#1C1C1E"/>
<path d="M2 20.0863L8.7925 13.2926C8.88537 13.1996 8.99566 13.1258 9.11706 13.0755C9.23846 13.0252 9.36858 12.9993 9.5 12.9993C9.63142 12.9993 9.76154 13.0252 9.88294 13.0755C10.0043 13.1258 10.1146 13.1996 10.2075 13.2926L20.14 23.2251" stroke="#1C1C1E" stroke-width="2" stroke-linecap="round" stroke-linejoin="round"/>
<path d="M16.4141 19.5L19.6253 16.2925C19.8128 16.1051 20.0671 15.9999 20.3322 15.9999C20.5973 15.9999 20.8515 16.1051 21.0391 16.2925L29.5703 24.8238" stroke="#1C1C1E" stroke-width="2" stroke-linecap="round" stroke-linejoin="round"/>
</svg>
