<svg width="32" height="32" viewBox="0 0 32 32" fill="none" xmlns="http://www.w3.org/2000/svg">
<path opacity="0.2" d="M24 10H10V14H6C4.93913 14 3.92172 14.4214 3.17157 15.1716C2.42143 15.9217 2 16.9391 2 18C2 19.0609 2.42143 20.0783 3.17157 20.8284C3.92172 21.5786 4.93913 22 6 22H24C25.5913 22 27.1174 21.3679 28.2426 20.2426C29.3679 19.1174 30 17.5913 30 16C30 14.4087 29.3679 12.8826 28.2426 11.7574C27.1174 10.6321 25.5913 10 24 10Z" fill="#1C1C1E"/>
<path d="M10 18H24C24.5304 18 25.0391 17.7893 25.4142 17.4142C25.7893 17.0391 26 16.5304 26 16C26 15.4696 25.7893 14.9609 25.4142 14.5858C25.0391 14.2107 24.5304 14 24 14H6C4.93913 14 3.92172 14.4214 3.17157 15.1716C2.42143 15.9217 2 16.9391 2 18C2 19.0609 2.42143 20.0783 3.17157 20.8284C3.92172 21.5786 4.93913 22 6 22H24C25.5913 22 27.1174 21.3679 28.2426 20.2426C29.3679 19.1174 30 17.5913 30 16C30 14.4087 29.3679 12.8826 28.2426 11.7574C27.1174 10.6321 25.5913 10 24 10H10" stroke="#1C1C1E" stroke-width="2" stroke-linecap="round" stroke-linejoin="round"/>
</svg>
