<svg width="32" height="32" viewBox="0 0 32 32" fill="none" xmlns="http://www.w3.org/2000/svg">
<path opacity="0.2" d="M26.8961 15.9288L22.9998 9H8.99983L5.10358 15.9288C5.02226 16.0932 4.98776 16.2769 5.00386 16.4597C5.01995 16.6424 5.08602 16.8173 5.19483 16.965L15.9998 31L26.8036 16.965C26.9126 16.8174 26.9789 16.6426 26.9952 16.4599C27.0115 16.2771 26.9772 16.0933 26.8961 15.9288ZM15.9998 19C15.5054 19 15.022 18.8534 14.6109 18.5787C14.1998 18.304 13.8794 17.9135 13.6901 17.4567C13.5009 16.9999 13.4514 16.4972 13.5479 16.0123C13.6443 15.5273 13.8824 15.0819 14.2321 14.7322C14.5817 14.3826 15.0272 14.1445 15.5121 14.048C15.9971 13.9516 16.4997 14.0011 16.9565 14.1903C17.4134 14.3795 17.8038 14.7 18.0785 15.1111C18.3532 15.5222 18.4998 16.0055 18.4998 16.5C18.4998 17.163 18.2364 17.7989 17.7676 18.2678C17.2988 18.7366 16.6629 19 15.9998 19Z" fill="#1C1C1E"/>
<path d="M16 19C17.3807 19 18.5 17.8807 18.5 16.5C18.5 15.1193 17.3807 14 16 14C14.6193 14 13.5 15.1193 13.5 16.5C13.5 17.8807 14.6193 19 16 19Z" stroke="#1C1C1E" stroke-width="2" stroke-linecap="round" stroke-linejoin="round"/>
<path d="M16 19V31" stroke="#1C1C1E" stroke-width="2" stroke-linecap="round" stroke-linejoin="round"/>
<path d="M8.99983 9L5.10358 15.9288C5.02226 16.0932 4.98776 16.2769 5.00386 16.4597C5.01995 16.6424 5.08602 16.8173 5.19483 16.965L15.9998 31L26.8036 16.965C26.9124 16.8173 26.9785 16.6424 26.9946 16.4597C27.0107 16.2769 26.9761 16.0932 26.8948 15.9288L22.9998 9H8.99983Z" stroke="#1C1C1E" stroke-width="2" stroke-linecap="round" stroke-linejoin="round"/>
<path d="M23 9V4C23 3.73478 22.8946 3.48043 22.7071 3.29289C22.5196 3.10536 22.2652 3 22 3H10C9.73478 3 9.48043 3.10536 9.29289 3.29289C9.10536 3.48043 9 3.73478 9 4V9" stroke="#1C1C1E" stroke-width="2" stroke-linecap="round" stroke-linejoin="round"/>
</svg>
