<svg width="32" height="32" viewBox="0 0 32 32" fill="none" xmlns="http://www.w3.org/2000/svg">
<path opacity="0.2" d="M16 6L8.54 8.7975C8.37583 8.8591 8.23074 8.96278 8.11929 9.09815C8.00784 9.23351 7.93394 9.39581 7.905 9.56875L5 27L22.4312 24.095C22.6042 24.0661 22.7665 23.9922 22.9019 23.8807C23.0372 23.7693 23.1409 23.6242 23.2025 23.46L26 16L16 6ZM15.5 19C15.0055 19 14.5222 18.8534 14.1111 18.5787C13.7 18.304 13.3795 17.9135 13.1903 17.4567C13.0011 16.9999 12.9516 16.4972 13.048 16.0123C13.1445 15.5273 13.3826 15.0819 13.7322 14.7322C14.0819 14.3826 14.5273 14.1445 15.0123 14.048C15.4972 13.9516 15.9999 14.0011 16.4567 14.1903C16.9135 14.3795 17.304 14.7 17.5787 15.1111C17.8534 15.5222 18 16.0055 18 16.5C18 17.163 17.7366 17.7989 17.2678 18.2678C16.7989 18.7366 16.163 19 15.5 19Z" fill="#1C1C1E"/>
<path d="M5.00098 27L13.7322 18.2675" stroke="#1C1C1E" stroke-width="2" stroke-linecap="round" stroke-linejoin="round"/>
<path d="M15.5 19C16.8807 19 18 17.8807 18 16.5C18 15.1193 16.8807 14 15.5 14C14.1193 14 13 15.1193 13 16.5C13 17.8807 14.1193 19 15.5 19Z" stroke="#1C1C1E" stroke-width="2" stroke-linecap="round" stroke-linejoin="round"/>
<path d="M5 27L22.4312 24.095C22.6042 24.0661 22.7665 23.9922 22.9019 23.8807C23.0372 23.7693 23.1409 23.6242 23.2025 23.46L26 16L16 6L8.54 8.7975C8.37583 8.8591 8.23074 8.96278 8.11929 9.09815C8.00784 9.23351 7.93394 9.39581 7.905 9.56875L5 27Z" stroke="#1C1C1E" stroke-width="2" stroke-linecap="round" stroke-linejoin="round"/>
<path d="M26 16L29.7075 12.2925C29.8949 12.105 30.0002 11.8508 30.0002 11.5857C30.0002 11.3206 29.8949 11.0663 29.7075 10.8788L21.125 2.29254C20.9375 2.10514 20.6832 1.99988 20.4181 1.99988C20.153 1.99988 19.8988 2.10514 19.7113 2.29254L16 6.00004" stroke="#1C1C1E" stroke-width="2" stroke-linecap="round" stroke-linejoin="round"/>
</svg>
