<svg width="32" height="32" viewBox="0 0 32 32" fill="none" xmlns="http://www.w3.org/2000/svg">
<path opacity="0.2" d="M24 14.9999L17 7.99992L20.7075 4.29242C20.895 4.10502 21.1493 3.99976 21.4144 3.99976C21.6795 3.99976 21.9337 4.10502 22.1213 4.29242L27.7075 9.87492C27.8949 10.0624 28.0002 10.3167 28.0002 10.5818C28.0002 10.8469 27.8949 11.1011 27.7075 11.2887L24 14.9999Z" fill="#1C1C1E"/>
<path d="M12 26.9999H6C5.73478 26.9999 5.48043 26.8946 5.29289 26.707C5.10536 26.5195 5 26.2651 5 25.9999V20.4137C5.00012 20.1488 5.10532 19.8948 5.2925 19.7074L20.7075 4.29242C20.895 4.10502 21.1493 3.99976 21.4144 3.99976C21.6795 3.99976 21.9337 4.10502 22.1213 4.29242L27.7075 9.87492C27.8949 10.0624 28.0002 10.3167 28.0002 10.5818C28.0002 10.8469 27.8949 11.1011 27.7075 11.2887L12 26.9999Z" stroke="#1C1C1E" stroke-width="2" stroke-linecap="round" stroke-linejoin="round"/>
<path d="M27 27H12" stroke="#1C1C1E" stroke-width="2" stroke-linecap="round" stroke-linejoin="round"/>
<path d="M17 8L24 15" stroke="#1C1C1E" stroke-width="2" stroke-linecap="round" stroke-linejoin="round"/>
</svg>
