<svg width="32" height="32" viewBox="0 0 32 32" fill="none" xmlns="http://www.w3.org/2000/svg">
<path opacity="0.2" d="M10 26.395C7.7123 25.0742 5.92435 23.0354 4.91345 20.5949C3.90255 18.1544 3.7252 15.4485 4.40889 12.8969C5.09259 10.3453 6.59914 8.09056 8.69487 6.48245C10.7906 4.87434 13.3584 4.00269 16 4.00269C18.6416 4.00269 21.2094 4.87434 23.3051 6.48245C25.4009 8.09056 26.9074 10.3453 27.5911 12.8969C28.2748 15.4485 28.0975 18.1544 27.0866 20.5949C26.0757 23.0354 24.2877 25.0742 22 26.395V22L16 8.99999L10 22V26.395Z" fill="#1C1C1E"/>
<path d="M16 28C22.6274 28 28 22.6274 28 16C28 9.37258 22.6274 4 16 4C9.37258 4 4 9.37258 4 16C4 22.6274 9.37258 28 16 28Z" stroke="#1C1C1E" stroke-width="2" stroke-linecap="round" stroke-linejoin="round"/>
<path d="M22 26.395V22L16 9L10 22V26.395" stroke="#1C1C1E" stroke-width="2" stroke-linecap="round" stroke-linejoin="round"/>
<path d="M16 24C16 23.2044 16.3161 22.4413 16.8787 21.8787C17.4413 21.3161 18.2044 21 19 21C19.7956 21 20.5587 21.3161 21.1213 21.8787C21.6839 22.4413 22 23.2044 22 24" stroke="#1C1C1E" stroke-width="2" stroke-linecap="round" stroke-linejoin="round"/>
<path d="M16 28V24C16 23.2044 15.6839 22.4413 15.1213 21.8787C14.5587 21.3161 13.7956 21 13 21C12.2044 21 11.4413 21.3161 10.8787 21.8787C10.3161 22.4413 10 23.2044 10 24" stroke="#1C1C1E" stroke-width="2" stroke-linecap="round" stroke-linejoin="round"/>
<path d="M12.7686 16H19.2311" stroke="#1C1C1E" stroke-width="2" stroke-linecap="round" stroke-linejoin="round"/>
</svg>
