<svg width="32" height="32" viewBox="0 0 32 32" fill="none" xmlns="http://www.w3.org/2000/svg">
<path opacity="0.2" d="M27.9996 11.0001H19.6409L16.9509 2.71007C16.8899 2.50515 16.7643 2.3254 16.5929 2.19759C16.4215 2.06978 16.2134 2.00073 15.9996 2.00073C15.7858 2.00073 15.5777 2.06978 15.4063 2.19759C15.2349 2.3254 15.1094 2.50515 15.0484 2.71007L12.3584 11.0001H3.99962C3.78843 10.9999 3.58262 11.0667 3.41169 11.1907C3.24077 11.3148 3.1135 11.4897 3.04813 11.6906C2.98276 11.8914 2.98265 12.1077 3.04782 12.3086C3.11298 12.5095 3.24007 12.6846 3.41087 12.8088L10.1871 17.6838L7.59087 25.6838C7.5254 25.8847 7.52524 26.1011 7.5904 26.3021C7.65557 26.5031 7.78271 26.6783 7.9536 26.8025C8.12448 26.9268 8.33032 26.9937 8.5416 26.9937C8.75287 26.9937 8.95872 26.9268 9.12962 26.8026L15.9996 21.8638L22.8671 26.8051C23.038 26.9293 23.2439 26.9962 23.4551 26.9962C23.6664 26.9962 23.8723 26.9293 24.0431 26.805C24.214 26.6808 24.3412 26.5056 24.4063 26.3046C24.4715 26.1036 24.4713 25.8872 24.4059 25.6863L21.8096 17.6863L28.5859 12.8113C28.7576 12.6876 28.8856 12.5126 28.9515 12.3114C29.0174 12.1103 29.0177 11.8935 28.9526 11.6921C28.8874 11.4908 28.76 11.3153 28.5888 11.1909C28.4175 11.0666 28.2113 10.9997 27.9996 11.0001Z" fill="#1C1C1E"/>
<path d="M7.59337 25.6863C7.5279 25.8872 7.52774 26.1036 7.5929 26.3046C7.65807 26.5056 7.78521 26.6808 7.9561 26.805C8.12698 26.9293 8.33282 26.9962 8.5441 26.9962C8.75537 26.9962 8.96122 26.9293 9.13212 26.8051L28.5859 12.8051C28.7549 12.6805 28.8805 12.5058 28.9447 12.3059C29.0089 12.106 29.0086 11.8909 28.9437 11.6911C28.8788 11.4914 28.7527 11.3172 28.5833 11.1931C28.4138 11.0691 28.2096 11.0015 27.9996 11.0001H3.99962C3.78843 10.9999 3.58262 11.0667 3.41169 11.1907C3.24077 11.3148 3.1135 11.4897 3.04813 11.6906C2.98276 11.8914 2.98265 12.1077 3.04782 12.3086C3.11298 12.5095 3.24007 12.6846 3.41087 12.8088L22.8646 26.8088C23.0355 26.933 23.2414 26.9999 23.4526 26.9999C23.6639 26.9999 23.8698 26.933 24.0406 26.8088C24.2115 26.6845 24.3387 26.5093 24.4038 26.3084C24.469 26.1074 24.4688 25.8909 24.4034 25.6901L16.9509 2.71007C16.8899 2.50515 16.7643 2.3254 16.5929 2.19759C16.4215 2.06978 16.2134 2.00073 15.9996 2.00073C15.7858 2.00073 15.5777 2.06978 15.4063 2.19759C15.2349 2.3254 15.1094 2.50515 15.0484 2.71007L7.59337 25.6863Z" stroke="#1C1C1E" stroke-width="2" stroke-linecap="round" stroke-linejoin="round"/>
</svg>
