<svg width="32" height="32" viewBox="0 0 32 32" fill="none" xmlns="http://www.w3.org/2000/svg">
<path opacity="0.2" d="M4.4091 11.7413C4.23995 11.8655 4.11416 12.0397 4.04955 12.2394C3.98494 12.4391 3.98478 12.654 4.0491 12.8538L8.0491 26.3063C8.11389 26.5076 8.24088 26.6833 8.4118 26.808C8.58273 26.9326 8.78879 26.9999 9.00035 27H23.0003C23.2121 27.0001 23.4185 26.933 23.5896 26.8083C23.7608 26.6837 23.888 26.5079 23.9528 26.3063L27.9528 12.8538C28.0172 12.654 28.017 12.4391 27.9524 12.2394C27.8878 12.0397 27.762 11.8655 27.5928 11.7413L16.5928 3.19376C16.4214 3.06803 16.2142 3.00024 16.0016 3.00024C15.789 3.00024 15.5818 3.06803 15.4103 3.19376L4.4091 11.7413Z" fill="#1C1C1E"/>
<path d="M4.4091 11.7413C4.23995 11.8655 4.11416 12.0397 4.04955 12.2394C3.98494 12.4391 3.98478 12.654 4.0491 12.8538L8.0491 26.3063C8.11389 26.5076 8.24088 26.6833 8.4118 26.808C8.58273 26.9326 8.78879 26.9999 9.00035 27H23.0003C23.2121 27.0001 23.4185 26.933 23.5896 26.8083C23.7608 26.6837 23.888 26.5078 23.9528 26.3063L27.9528 12.8538C28.0172 12.654 28.017 12.4391 27.9524 12.2394C27.8878 12.0397 27.762 11.8655 27.5928 11.7413L16.5928 3.19376C16.4214 3.06803 16.2142 3.00024 16.0016 3.00024C15.789 3.00024 15.5818 3.06803 15.4103 3.19376L4.4091 11.7413Z" stroke="#1C1C1E" stroke-width="2" stroke-linecap="round" stroke-linejoin="round"/>
</svg>
