<svg width="32" height="32" viewBox="0 0 32 32" fill="none" xmlns="http://www.w3.org/2000/svg">
<path opacity="0.2" d="M16 9C17.6569 9 19 7.65685 19 6C19 4.34315 17.6569 3 16 3C14.3431 3 13 4.34315 13 6C13 7.65685 14.3431 9 16 9Z" fill="#1C1C1E"/>
<path d="M16 9C17.6569 9 19 7.65685 19 6C19 4.34315 17.6569 3 16 3C14.3431 3 13 4.34315 13 6C13 7.65685 14.3431 9 16 9Z" stroke="#1C1C1E" stroke-width="2" stroke-linecap="round" stroke-linejoin="round"/>
<path d="M5 13H27" stroke="#1C1C1E" stroke-width="2" stroke-linecap="round" stroke-linejoin="round"/>
<path d="M16 13V18L6 27" stroke="#1C1C1E" stroke-width="2" stroke-linecap="round" stroke-linejoin="round"/>
<path d="M16 18L23 21V27" stroke="#1C1C1E" stroke-width="2" stroke-linecap="round" stroke-linejoin="round"/>
</svg>
