<svg width="32" height="32" viewBox="0 0 32 32" fill="none" xmlns="http://www.w3.org/2000/svg">
<path opacity="0.2" d="M10 16.9998C14.8913 16.806 18.4837 22.3235 23.7025 20.6923L16.52 13.5098C16.0118 13.003 15.4591 12.5429 14.8687 12.1348L10 16.9998Z" fill="#1C1C1E"/>
<path opacity="0.2" d="M22 12C23.6569 12 25 10.6569 25 9C25 7.34315 23.6569 6 22 6C20.3431 6 19 7.34315 19 9C19 10.6569 20.3431 12 22 12Z" fill="#1C1C1E"/>
<path d="M22 12C23.6569 12 25 10.6569 25 9C25 7.34315 23.6569 6 22 6C20.3431 6 19 7.34315 19 9C19 10.6569 20.3431 12 22 12Z" stroke="#1C1C1E" stroke-width="2" stroke-linecap="round" stroke-linejoin="round"/>
<path d="M5 24.2013C14 16.74 18 31.26 27 23.7988" stroke="#1C1C1E" stroke-width="2" stroke-linecap="round" stroke-linejoin="round"/>
<path d="M5 19.2013C14 11.74 18 26.26 27 18.7988" stroke="#1C1C1E" stroke-width="2" stroke-linecap="round" stroke-linejoin="round"/>
<path d="M23.6975 20.6975L16.515 13.515C14.2647 11.2645 11.2125 10.0001 8.03 10H5" stroke="#1C1C1E" stroke-width="2" stroke-linecap="round" stroke-linejoin="round"/>
<path d="M9.99512 17.0055L14.8639 12.1367" stroke="#1C1C1E" stroke-width="2" stroke-linecap="round" stroke-linejoin="round"/>
</svg>
