<svg width="32" height="32" viewBox="0 0 32 32" fill="none" xmlns="http://www.w3.org/2000/svg">
<path opacity="0.2" d="M28.2425 13.9788C30.4038 16.14 30.5713 19.265 28.7425 21.6188C28.6088 21.7883 28.4238 21.91 28.2151 21.9657C28.0065 22.0213 27.7854 22.0079 27.585 21.9275L21.4475 19.75C21.2943 19.6887 21.1586 19.5904 21.0526 19.4639C20.9466 19.3374 20.8736 19.1866 20.84 19.025L20.0638 15.3075C20.0295 15.1396 19.9523 14.9834 19.8397 14.8541C19.7271 14.7249 19.5829 14.627 19.4213 14.57C17.1883 13.8047 14.7631 13.8104 12.5338 14.5863C12.3709 14.6446 12.2262 14.7445 12.1139 14.8761C12.0016 15.0076 11.9257 15.1663 11.8938 15.3363L11.1563 19.025C11.1226 19.1867 11.0493 19.3376 10.9431 19.4641C10.8369 19.5906 10.701 19.6889 10.5475 19.75L4.41127 21.9275C4.21104 22.0095 3.98961 22.0244 3.78023 21.9698C3.57084 21.9153 3.3848 21.7943 3.25002 21.625C1.42502 19.2713 1.59252 16.1463 3.75002 13.985C10.3963 7.34002 21.6038 7.34002 28.2425 13.9788Z" fill="#1C1C1E"/>
<path d="M6 5L26 27" stroke="#1C1C1E" stroke-width="2" stroke-linecap="round" stroke-linejoin="round"/>
<path d="M15.0635 9.02377C19.8322 8.77377 24.6885 10.4275 28.2422 13.9788C30.4035 16.14 30.571 19.265 28.7422 21.6188C28.6085 21.7883 28.4235 21.91 28.2148 21.9657C28.0062 22.0213 27.7851 22.0079 27.5847 21.9275L26.4135 21.5125" stroke="#1C1C1E" stroke-width="2" stroke-linecap="round" stroke-linejoin="round"/>
<path d="M14.3063 14.1363C13.7034 14.2341 13.1103 14.3847 12.5338 14.5863C12.3709 14.6446 12.2262 14.7445 12.1139 14.876C12.0016 15.0076 11.9257 15.1663 11.8938 15.3363L11.1563 19.025C11.1226 19.1867 11.0493 19.3376 10.9431 19.4641C10.8369 19.5906 10.701 19.6888 10.5475 19.75L4.41127 21.9275C4.21104 22.0095 3.98961 22.0243 3.78023 21.9698C3.57084 21.9153 3.3848 21.7943 3.25002 21.625C1.42502 19.2713 1.59252 16.1463 3.75002 13.985C5.62767 12.112 7.91993 10.7075 10.4413 9.88501" stroke="#1C1C1E" stroke-width="2" stroke-linecap="round" stroke-linejoin="round"/>
</svg>
