<svg width="32" height="32" viewBox="0 0 32 32" fill="none" xmlns="http://www.w3.org/2000/svg">
<path opacity="0.2" d="M27 7H5C4.73478 7 4.48043 7.10536 4.29289 7.29289C4.10536 7.48043 4 7.73478 4 8V24C4 24.2652 4.10536 24.5196 4.29289 24.7071C4.48043 24.8946 4.73478 25 5 25H17V16H28V8C28 7.73478 27.8946 7.48043 27.7071 7.29289C27.5196 7.10536 27.2652 7 27 7Z" fill="#1C1C1E"/>
<path d="M27 7H5C4.44772 7 4 7.44772 4 8V24C4 24.5523 4.44772 25 5 25H27C27.5523 25 28 24.5523 28 24V8C28 7.44772 27.5523 7 27 7Z" stroke="#1C1C1E" stroke-width="2" stroke-linecap="round" stroke-linejoin="round"/>
<path d="M17 25V16H28" stroke="#1C1C1E" stroke-width="2" stroke-linecap="round" stroke-linejoin="round"/>
</svg>
