<svg width="32" height="32" viewBox="0 0 32 32" fill="none" xmlns="http://www.w3.org/2000/svg">
<path opacity="0.2" d="M7.59961 9H24.3996L22.1059 28.125C22.0754 28.3669 21.9576 28.5894 21.7745 28.7505C21.5915 28.9117 21.356 29.0004 21.1121 29H10.8871C10.6433 29.0004 10.4077 28.9117 10.2247 28.7505C10.0417 28.5894 9.92384 28.3669 9.89336 28.125L7.59961 9Z" fill="#1C1C1E"/>
<path d="M7 4H25L22.1063 28.125C22.0758 28.3669 21.9579 28.5894 21.7749 28.7505C21.5919 28.9117 21.3563 29.0004 21.1125 29H10.8875C10.6437 29.0004 10.4081 28.9117 10.2251 28.7505C10.0421 28.5894 9.92423 28.3669 9.89375 28.125L7 4Z" stroke="#1C1C1E" stroke-width="2" stroke-linecap="round" stroke-linejoin="round"/>
<path d="M7.59961 9H24.3996" stroke="#1C1C1E" stroke-width="2" stroke-linecap="round" stroke-linejoin="round"/>
</svg>
