<svg width="32" height="32" viewBox="0 0 32 32" fill="none" xmlns="http://www.w3.org/2000/svg">
<path opacity="0.2" d="M16.9998 20.9999C16.9998 20.2571 17.2067 19.5289 17.5972 18.897C17.9877 18.2651 18.5465 17.7544 19.2109 17.4222C19.8754 17.09 20.6192 16.9494 21.359 17.0161C22.0989 17.0828 22.8055 17.3542 23.3998 17.7999L27.2623 11.4699C23.9415 9.20908 20.0172 8 15.9998 8C11.9825 8 8.05809 9.20908 4.7373 11.4699L6.7173 14.7199C7.09741 14.1739 7.60769 13.7314 8.20194 13.4323C8.7962 13.1332 9.45567 12.9871 10.1206 13.0071C10.7856 13.0272 11.4351 13.2128 12.0103 13.5471C12.5854 13.8814 13.0681 14.3539 13.4146 14.9218C13.7612 15.4897 13.9606 16.1351 13.9948 16.7994C14.0291 17.4638 13.8971 18.1263 13.6108 18.7268C13.3245 19.3273 12.8929 19.8469 12.3551 20.2386C11.8174 20.6303 11.1904 20.8816 10.5311 20.9699L15.1436 28.5262C15.2325 28.6737 15.3581 28.7957 15.5082 28.8804C15.6582 28.9651 15.8275 29.0096 15.9998 29.0096C16.1721 29.0096 16.3414 28.9651 16.4915 28.8804C16.6415 28.7957 16.7671 28.6737 16.8561 28.5262L19.2498 24.5974C18.5751 24.2692 18.0063 23.7578 17.6085 23.1216C17.2106 22.4855 16.9997 21.7503 16.9998 20.9999Z" fill="#1C1C1E"/>
<path d="M3.14531 8.86225C3.07703 8.74985 3.0316 8.62508 3.01162 8.4951C2.99163 8.36511 2.99748 8.23246 3.02883 8.10474C3.06018 7.97702 3.11641 7.85674 3.19431 7.75078C3.27221 7.64482 3.37025 7.55527 3.48281 7.48725C7.25869 5.20339 11.5875 3.99609 16.0003 3.99609C20.4132 3.99609 24.7419 5.20339 28.5178 7.48725C28.6304 7.55527 28.7284 7.64482 28.8063 7.75078C28.8842 7.85674 28.9404 7.97702 28.9718 8.10474C29.0031 8.23246 29.009 8.36511 28.989 8.4951C28.969 8.62508 28.9236 8.74985 28.8553 8.86225L16.8553 28.5198C16.7663 28.6673 16.6407 28.7893 16.4907 28.874C16.3407 28.9587 16.1713 29.0032 15.9991 29.0032C15.8268 29.0032 15.6574 28.9587 15.5074 28.874C15.3574 28.7893 15.2318 28.6673 15.1428 28.5198L3.14531 8.86225Z" stroke="#1C1C1E" stroke-width="2" stroke-linecap="round" stroke-linejoin="round"/>
<path d="M4.7373 11.4699C8.05809 9.20908 11.9825 8 15.9998 8C20.0172 8 23.9415 9.20908 27.2623 11.4699" stroke="#1C1C1E" stroke-width="2" stroke-linecap="round" stroke-linejoin="round"/>
<path d="M19.2496 24.5992C18.7495 24.3547 18.306 24.0084 17.9474 23.5826C17.5888 23.1569 17.323 22.6609 17.167 22.1265C17.0111 21.5922 16.9684 21.0311 17.0417 20.4793C17.1149 19.9274 17.3026 19.397 17.5926 18.9218C17.8827 18.4467 18.2687 18.0373 18.726 17.7199C19.1833 17.4024 19.7019 17.184 20.2484 17.0784C20.795 16.9729 21.3576 16.9826 21.9002 17.1069C22.4428 17.2312 22.9535 17.4675 23.3996 17.8005" stroke="#1C1C1E" stroke-width="2" stroke-linecap="round" stroke-linejoin="round"/>
<path d="M6.71777 14.7139C7.09776 14.169 7.60748 13.7273 8.20091 13.4288C8.79434 13.1302 9.45278 12.9841 10.1168 13.0037C10.7808 13.0233 11.4295 13.208 12.0043 13.541C12.5791 13.8741 13.0618 14.3451 13.409 14.9115C13.7562 15.4778 13.9569 16.1218 13.9929 16.7851C14.0289 17.4484 13.8991 18.1103 13.6153 18.7109C13.3315 19.3115 12.9026 19.832 12.3672 20.2254C11.8319 20.6187 11.207 20.8725 10.549 20.9639" stroke="#1C1C1E" stroke-width="2" stroke-linecap="round" stroke-linejoin="round"/>
</svg>
