<svg width="32" height="32" viewBox="0 0 32 32" fill="none" xmlns="http://www.w3.org/2000/svg">
<path opacity="0.2" d="M17.3172 18.6825C13.3272 12.0313 18.6472 5.3813 29.9535 6.0463C30.6247 17.3525 23.9685 22.6725 17.3172 18.6825Z" fill="#1C1C1E"/>
<path opacity="0.2" d="M11.0591 20.0587C13.9091 15.3087 10.1091 10.5587 2.03289 11.0325C1.55789 19.1087 6.30914 22.9087 11.0591 20.0587Z" fill="#1C1C1E"/>
<path d="M17.3172 18.6825C13.3272 12.0313 18.6472 5.3813 29.9535 6.0463C30.6247 17.3525 23.9685 22.6725 17.3172 18.6825Z" stroke="#1C1C1E" stroke-width="2" stroke-linecap="round" stroke-linejoin="round"/>
<path d="M11.0591 20.0587C13.9091 15.3087 10.1091 10.5587 2.03289 11.0325C1.55789 19.1087 6.30914 22.9087 11.0591 20.0587Z" stroke="#1C1C1E" stroke-width="2" stroke-linecap="round" stroke-linejoin="round"/>
<path d="M7 16L15 24" stroke="#1C1C1E" stroke-width="2" stroke-linecap="round" stroke-linejoin="round"/>
<path d="M25 11L17.3438 18.6562C16.6007 19.3991 16.0113 20.2811 15.6091 21.2519C15.207 22.2226 15 23.263 15 24.3137V28" stroke="#1C1C1E" stroke-width="2" stroke-linecap="round" stroke-linejoin="round"/>
</svg>
