<svg width="32" height="32" viewBox="0 0 32 32" fill="none" xmlns="http://www.w3.org/2000/svg">
<path opacity="0.2" d="M7 22L9.85375 5.82625C9.8946 5.59471 10.0157 5.38496 10.1959 5.23385C10.376 5.08275 10.6036 4.99995 10.8387 5H22L24.7925 20.8263C24.8179 20.9701 24.8114 21.1177 24.7736 21.2588C24.7358 21.3999 24.6676 21.531 24.5737 21.6428C24.4798 21.7547 24.3626 21.8447 24.2302 21.9064C24.0978 21.9681 23.9536 22 23.8075 22H7Z" fill="#1C1C1E"/>
<path d="M11.4062 5H24" stroke="#1C1C1E" stroke-width="2" stroke-linecap="round" stroke-linejoin="round"/>
<path d="M16 22V30" stroke="#1C1C1E" stroke-width="2" stroke-linecap="round" stroke-linejoin="round"/>
<path d="M6 5L26 27" stroke="#1C1C1E" stroke-width="2" stroke-linecap="round" stroke-linejoin="round"/>
<path d="M22 5L24.5525 19.4613" stroke="#1C1C1E" stroke-width="2" stroke-linecap="round" stroke-linejoin="round"/>
<path d="M21.455 22H5" stroke="#1C1C1E" stroke-width="2" stroke-linecap="round" stroke-linejoin="round"/>
<path d="M7 21.9996L9.35 8.68457" stroke="#1C1C1E" stroke-width="2" stroke-linecap="round" stroke-linejoin="round"/>
</svg>
