<svg width="32" height="32" viewBox="0 0 32 32" fill="none" xmlns="http://www.w3.org/2000/svg">
<path opacity="0.2" d="M28.7076 12.2927C28.895 12.1051 29.0003 11.8509 29.0003 11.5858C29.0003 11.3207 28.895 11.0664 28.7076 10.8789L21.1251 3.29266C20.9376 3.10527 20.6833 3 20.4182 3C20.1531 3 19.8989 3.10527 19.7113 3.29266L12.5488 10.4752C12.5488 10.4752 9.08009 8.74141 5.37509 11.7314C5.26522 11.8194 5.17516 11.9295 5.11078 12.0546C5.0464 12.1798 5.00916 12.3171 5.00149 12.4576C4.99382 12.5981 5.01589 12.7387 5.06627 12.8701C5.11665 13.0015 5.1942 13.1208 5.29384 13.2202L18.7813 26.7064C18.8824 26.8067 19.0036 26.8842 19.137 26.9339C19.2704 26.9835 19.4128 27.0041 19.5548 26.9943C19.6968 26.9845 19.8351 26.9445 19.9604 26.8769C20.0857 26.8094 20.1951 26.7159 20.2813 26.6027C21.3301 25.2077 22.9776 22.3414 21.5451 19.4777L28.7076 12.2927Z" fill="#1C1C1E"/>
<path d="M12.0363 19.9639L6 26.0001" stroke="#1C1C1E" stroke-width="2" stroke-linecap="round" stroke-linejoin="round"/>
<path d="M6 5L26 27" stroke="#1C1C1E" stroke-width="2" stroke-linecap="round" stroke-linejoin="round"/>
<path d="M23.125 17.8927L28.7062 12.2927C28.8936 12.1051 28.9989 11.8509 28.9989 11.5858C28.9989 11.3207 28.8936 11.0664 28.7062 10.8789L21.125 3.29266C20.9374 3.10527 20.6832 3 20.4181 3C20.153 3 19.8987 3.10527 19.7112 3.29266L14.5537 8.46266" stroke="#1C1C1E" stroke-width="2" stroke-linecap="round" stroke-linejoin="round"/>
<path d="M10.5401 10.0005C9.19259 9.89548 7.31634 10.1655 5.37509 11.7317C5.26522 11.8197 5.17516 11.9298 5.11078 12.055C5.0464 12.1801 5.00916 12.3174 5.00149 12.4579C4.99382 12.5985 5.01589 12.739 5.06627 12.8704C5.11665 13.0018 5.1942 13.1211 5.29384 13.2205L18.7813 26.7067C18.8824 26.807 19.0036 26.8846 19.137 26.9342C19.2704 26.9839 19.4128 27.0045 19.5548 26.9946C19.6968 26.9848 19.8351 26.9448 19.9604 26.8773C20.0857 26.8097 20.1951 26.7162 20.2813 26.603C20.9326 25.7367 21.8151 24.3042 22.0463 22.6555" stroke="#1C1C1E" stroke-width="2" stroke-linecap="round" stroke-linejoin="round"/>
</svg>
