<svg width="32" height="32" viewBox="0 0 32 32" fill="none" xmlns="http://www.w3.org/2000/svg">
<path opacity="0.2" d="M25 3H7C5.89543 3 5 3.89543 5 5V27C5 28.1046 5.89543 29 7 29H25C26.1046 29 27 28.1046 27 27V5C27 3.89543 26.1046 3 25 3Z" fill="#1C1C1E"/>
<path d="M16 20V18C19.8663 18 23 15.3138 23 12C23 8.68625 19.8663 6 16 6C12.1337 6 9 8.68625 9 12" stroke="#1C1C1E" stroke-width="2" stroke-linecap="round" stroke-linejoin="round"/>
<path d="M16 28C17.1046 28 18 27.1046 18 26C18 24.8954 17.1046 24 16 24C14.8954 24 14 24.8954 14 26C14 27.1046 14.8954 28 16 28Z" fill="#1C1C1E"/>
</svg>
