<svg width="32" height="32" viewBox="0 0 32 32" fill="none" xmlns="http://www.w3.org/2000/svg">
<path opacity="0.2" d="M27 9H4V24C4 24.2652 4.10536 24.5196 4.29289 24.7071C4.48043 24.8946 4.73478 25 5 25H27C27.2652 25 27.5196 24.8946 27.7071 24.7071C27.8946 24.5196 28 24.2652 28 24V10C28 9.73478 27.8946 9.48043 27.7071 9.29289C27.5196 9.10536 27.2652 9 27 9ZM20 21C19.2089 21 18.4355 20.7654 17.7777 20.3259C17.1199 19.8864 16.6072 19.2616 16.3045 18.5307C16.0017 17.7998 15.9225 16.9956 16.0769 16.2196C16.2312 15.4437 16.6122 14.731 17.1716 14.1716C17.731 13.6122 18.4437 13.2312 19.2196 13.0769C19.9956 12.9225 20.7998 13.0017 21.5307 13.3045C22.2616 13.6072 22.8864 14.1199 23.3259 14.7777C23.7654 15.4355 24 16.2089 24 17C24 18.0609 23.5786 19.0783 22.8284 19.8284C22.0783 20.5786 21.0609 21 20 21Z" fill="#1C1C1E"/>
<path d="M4 9H27C27.2652 9 27.5196 9.10536 27.7071 9.29289C27.8946 9.48043 28 9.73478 28 10V24C28 24.2652 27.8946 24.5196 27.7071 24.7071C27.5196 24.8946 27.2652 25 27 25H5C4.73478 25 4.48043 24.8946 4.29289 24.7071C4.10536 24.5196 4 24.2652 4 24V9Z" stroke="#1C1C1E" stroke-width="2" stroke-linecap="round" stroke-linejoin="round"/>
<path d="M4 9L24 3" stroke="#1C1C1E" stroke-width="2" stroke-linecap="round" stroke-linejoin="round"/>
<path d="M20 21C22.2091 21 24 19.2091 24 17C24 14.7909 22.2091 13 20 13C17.7909 13 16 14.7909 16 17C16 19.2091 17.7909 21 20 21Z" stroke="#1C1C1E" stroke-width="2" stroke-linecap="round" stroke-linejoin="round"/>
<path d="M8 13H12" stroke="#1C1C1E" stroke-width="2" stroke-linecap="round" stroke-linejoin="round"/>
<path d="M8 17H12" stroke="#1C1C1E" stroke-width="2" stroke-linecap="round" stroke-linejoin="round"/>
<path d="M8 21H12" stroke="#1C1C1E" stroke-width="2" stroke-linecap="round" stroke-linejoin="round"/>
</svg>
