<svg width="32" height="32" viewBox="0 0 32 32" fill="none" xmlns="http://www.w3.org/2000/svg">
<path opacity="0.2" d="M3.27284 22.9996C3.09749 23.3033 3.00508 23.6478 3.00488 23.9985C3.00468 24.3491 3.0967 24.6937 3.27169 24.9976C3.44669 25.3015 3.69852 25.5541 4.00193 25.7299C4.30533 25.9058 4.64965 25.9988 5.00034 25.9996H27.0003C27.3512 25.9992 27.6959 25.9066 27.9996 25.7309C28.3034 25.5552 28.5556 25.3027 28.7308 24.9987C28.9061 24.6947 28.9984 24.35 28.9983 23.9991C28.9982 23.6482 28.9058 23.3035 28.7303 22.9996L17.7303 3.99959C17.5547 3.69593 17.3023 3.44381 16.9984 3.26853C16.6945 3.09325 16.3499 3.00098 15.9991 3.00098C15.6483 3.00098 15.3037 3.09325 14.9998 3.26853C14.6959 3.44381 14.4435 3.69593 14.2678 3.99959L3.27284 22.9996Z" fill="#1C1C1E"/>
<path d="M19 29L16 26L19 23" stroke="#1C1C1E" stroke-width="2" stroke-linecap="round" stroke-linejoin="round"/>
<path d="M24.3291 9.39844L23.2303 13.4972L19.1328 12.3984" stroke="#1C1C1E" stroke-width="2" stroke-linecap="round" stroke-linejoin="round"/>
<path d="M9.87008 17.5963L8.77008 13.5L4.67383 14.5962" stroke="#1C1C1E" stroke-width="2" stroke-linecap="round" stroke-linejoin="round"/>
<path d="M8.7699 13.5L3.2699 23C3.09445 23.3039 3.00204 23.6486 3.00195 23.9995C3.00186 24.3504 3.0941 24.6951 3.26939 24.9991C3.44468 25.3031 3.69687 25.5556 4.00062 25.7313C4.30437 25.907 4.649 25.9996 4.9999 26H10.9999" stroke="#1C1C1E" stroke-width="2" stroke-linecap="round" stroke-linejoin="round"/>
<path d="M16 26H27C27.3509 25.9996 27.6955 25.907 27.9993 25.7313C28.303 25.5556 28.5552 25.3031 28.7305 24.9991C28.9058 24.6951 28.998 24.3504 28.9979 23.9995C28.9979 23.6486 28.9054 23.3039 28.73 23L25.8375 18" stroke="#1C1C1E" stroke-width="2" stroke-linecap="round" stroke-linejoin="round"/>
<path d="M23.23 13.4996L17.73 3.99959C17.5544 3.69593 17.3019 3.44381 16.9981 3.26853C16.6942 3.09325 16.3496 3.00098 15.9987 3.00098C15.6479 3.00098 15.3033 3.09325 14.9994 3.26853C14.6956 3.44381 14.4431 3.69593 14.2675 3.99959L11.375 8.99959" stroke="#1C1C1E" stroke-width="2" stroke-linecap="round" stroke-linejoin="round"/>
</svg>
