<svg width="32" height="32" viewBox="0 0 32 32" fill="none" xmlns="http://www.w3.org/2000/svg">
<path opacity="0.2" d="M7.42622 11.235C9.71497 9.84375 12.715 9 16 9C19.285 9 22.285 9.84375 24.5737 11.235C24.836 10.8751 25.1752 10.5782 25.5666 10.3657C25.9579 10.1532 26.3917 10.0305 26.8364 10.0065C27.281 9.98254 27.7255 10.0579 28.1374 10.227C28.5494 10.3961 28.9185 10.6549 29.218 10.9844C29.5176 11.314 29.74 11.7061 29.8691 12.1323C29.9982 12.5584 30.0309 13.008 29.9646 13.4484C29.8984 13.8888 29.7349 14.3089 29.4861 14.6782C29.2373 15.0476 28.9094 15.3569 28.5262 15.5837C28.8378 16.3513 28.9987 17.1716 29 18C29 22.97 23.18 27 16 27C8.81997 27 2.99997 22.97 2.99997 18C3.00127 17.1716 3.16211 16.3513 3.47372 15.5837C3.09051 15.3569 2.76261 15.0476 2.51381 14.6782C2.26501 14.3089 2.10157 13.8888 2.03533 13.4484C1.96909 13.008 2.00172 12.5584 2.13085 12.1323C2.25998 11.7061 2.48238 11.314 2.7819 10.9844C3.08142 10.6549 3.45055 10.3961 3.86251 10.227C4.27446 10.0579 4.71891 9.98254 5.16358 10.0065C5.60826 10.0305 6.04202 10.1532 6.43339 10.3657C6.82475 10.5782 7.1639 10.8751 7.42622 11.235Z" fill="#1C1C1E"/>
<path d="M23 6C24.1046 6 25 5.10457 25 4C25 2.89543 24.1046 2 23 2C21.8954 2 21 2.89543 21 4C21 5.10457 21.8954 6 23 6Z" stroke="#1C1C1E" stroke-width="2" stroke-linecap="round" stroke-linejoin="round"/>
<path d="M16 9L17 3L21.0362 3.62125" stroke="#1C1C1E" stroke-width="2" stroke-linecap="round" stroke-linejoin="round"/>
<path d="M7.42622 11.235C9.71497 9.84375 12.715 9 16 9C19.285 9 22.285 9.84375 24.5737 11.235C24.836 10.8751 25.1752 10.5782 25.5666 10.3657C25.9579 10.1532 26.3917 10.0305 26.8364 10.0065C27.281 9.98254 27.7255 10.0579 28.1374 10.227C28.5494 10.3961 28.9185 10.6549 29.218 10.9844C29.5176 11.314 29.74 11.7061 29.8691 12.1323C29.9982 12.5584 30.0309 13.008 29.9646 13.4484C29.8984 13.8888 29.7349 14.3089 29.4861 14.6782C29.2373 15.0476 28.9094 15.3569 28.5262 15.5837C28.8378 16.3513 28.9987 17.1716 29 18C29 22.97 23.18 27 16 27C8.81997 27 2.99997 22.97 2.99997 18C3.00127 17.1716 3.16211 16.3513 3.47372 15.5837C3.09051 15.3569 2.76261 15.0476 2.51381 14.6782C2.26501 14.3089 2.10157 13.8888 2.03533 13.4484C1.96909 13.008 2.00172 12.5584 2.13085 12.1323C2.25998 11.7061 2.48238 11.314 2.7819 10.9844C3.08142 10.6549 3.45055 10.3961 3.86251 10.227C4.27446 10.0579 4.71891 9.98254 5.16358 10.0065C5.60826 10.0305 6.04202 10.1532 6.43339 10.3657C6.82475 10.5782 7.1639 10.8751 7.42622 11.235Z" stroke="#1C1C1E" stroke-width="2" stroke-linecap="round" stroke-linejoin="round"/>
<path d="M11 18C12.1046 18 13 17.1046 13 16C13 14.8954 12.1046 14 11 14C9.89543 14 9 14.8954 9 16C9 17.1046 9.89543 18 11 18Z" fill="#1C1C1E"/>
<path d="M21 18C22.1046 18 23 17.1046 23 16C23 14.8954 22.1046 14 21 14C19.8954 14 19 14.8954 19 16C19 17.1046 19.8954 18 21 18Z" fill="#1C1C1E"/>
<path d="M20 22C18.7689 22.6566 17.3952 23 16 23C14.6048 23 13.2311 22.6566 12 22" stroke="#1C1C1E" stroke-width="2" stroke-linecap="round" stroke-linejoin="round"/>
</svg>
