<svg width="32" height="32" viewBox="0 0 32 32" fill="none" xmlns="http://www.w3.org/2000/svg">
<path d="M8 21V27C8 27.2652 8.10536 27.5196 8.29289 27.7071C8.48043 27.8946 8.73478 28 9 28H17C17.2652 28 17.5196 27.8946 17.7071 27.7071C17.8946 27.5196 18 27.2652 18 27V20H9C8.73478 20 8.48043 20.1054 8.29289 20.2929C8.10536 20.4804 8 20.7348 8 21Z" fill="#1C1C1E"/>
<path d="M27 12H18V20H27C27.2652 20 27.5196 19.8946 27.7071 19.7071C27.8946 19.5196 28 19.2652 28 19V13C28 12.7348 27.8946 12.4804 27.7071 12.2929C27.5196 12.1054 27.2652 12 27 12Z" fill="#1C1C1E"/>
<path d="M17 4H9C8.73478 4 8.48043 4.10536 8.29289 4.29289C8.10536 4.48043 8 4.73478 8 5V11C8 11.2652 8.10536 11.5196 8.29289 11.7071C8.48043 11.8946 8.73478 12 9 12H18V5C18 4.73478 17.8946 4.48043 17.7071 4.29289C17.5196 4.10536 17.2652 4 17 4Z" fill="#1C1C1E"/>
<path d="M18 5V27C18 27.2652 17.8946 27.5196 17.7071 27.7071C17.5196 27.8946 17.2652 28 17 28H9C8.73478 28 8.48043 27.8946 8.29289 27.7071C8.10536 27.5196 8 27.2652 8 27V21C8 20.7348 8.10536 20.4804 8.29289 20.2929C8.48043 20.1054 8.73478 20 9 20H27C27.2652 20 27.5196 19.8946 27.7071 19.7071C27.8946 19.5196 28 19.2652 28 19V13C28 12.7348 27.8946 12.4804 27.7071 12.2929C27.5196 12.1054 27.2652 12 27 12H9C8.73478 12 8.48043 11.8946 8.29289 11.7071C8.10536 11.5196 8 11.2652 8 11V5C8 4.73478 8.10536 4.48043 8.29289 4.29289C8.48043 4.10536 8.73478 4 9 4H17C17.2652 4 17.5196 4.10536 17.7071 4.29289C17.8946 4.48043 18 4.73478 18 5Z" stroke="#1C1C1E" stroke-width="2" stroke-linecap="round" stroke-linejoin="round"/>
</svg>
