<svg width="32" height="32" viewBox="0 0 32 32" fill="none" xmlns="http://www.w3.org/2000/svg">
<path opacity="0.2" d="M5.23148 18.405C5.13362 18.5226 5.06402 18.661 5.02805 18.8096C4.99208 18.9583 4.99069 19.1132 5.02398 19.2625L6.56898 26.2163C6.60581 26.3821 6.68428 26.5358 6.79697 26.6629C6.90967 26.79 7.05288 26.8863 7.2131 26.9427C7.37332 26.9991 7.54527 27.0138 7.71273 26.9853C7.88019 26.9568 8.03764 26.8862 8.17023 26.78L11.8515 24C9.58773 20.1788 8.87523 16.7813 9.02023 13.8638L5.23148 18.405Z" fill="#1C1C1E"/>
<path opacity="0.2" d="M22.9797 13.8638C23.1309 16.7813 22.4122 20.1788 20.1484 24L23.8297 26.78C23.9623 26.8862 24.1197 26.9568 24.2872 26.9853C24.4546 27.0138 24.6266 26.9991 24.7868 26.9427C24.947 26.8863 25.0903 26.79 25.2029 26.6629C25.3156 26.5358 25.3941 26.3821 25.4309 26.2163L26.9759 19.2625C27.0092 19.1132 27.0078 18.9583 26.9719 18.8096C26.9359 18.661 26.8663 18.5226 26.7684 18.405L22.9797 13.8638Z" fill="#1C1C1E"/>
<path d="M18 28H14" stroke="#1C1C1E" stroke-width="2" stroke-linecap="round" stroke-linejoin="round"/>
<path d="M16 14C16.8284 14 17.5 13.3284 17.5 12.5C17.5 11.6716 16.8284 11 16 11C15.1716 11 14.5 11.6716 14.5 12.5C14.5 13.3284 15.1716 14 16 14Z" fill="#1C1C1E"/>
<path d="M11.8516 24C4.69036 11.915 12.9841 4.06626 15.3866 2.21001C15.5621 2.07358 15.7781 1.99951 16.0004 1.99951C16.2227 1.99951 16.4386 2.07358 16.6141 2.21001C19.0166 4.06626 27.3104 11.915 20.1491 24H11.8516Z" stroke="#1C1C1E" stroke-width="2" stroke-linecap="round" stroke-linejoin="round"/>
<path d="M22.9797 13.86L26.7684 18.405C26.8663 18.5225 26.9359 18.661 26.9719 18.8096C27.0078 18.9583 27.0092 19.1132 26.9759 19.2625L25.4309 26.2162C25.3941 26.3821 25.3156 26.5358 25.2029 26.6629C25.0903 26.7899 24.947 26.8862 24.7868 26.9426C24.6266 26.9991 24.4546 27.0137 24.2872 26.9853C24.1197 26.9568 23.9623 26.8862 23.8297 26.78L20.1484 24" stroke="#1C1C1E" stroke-width="2" stroke-linecap="round" stroke-linejoin="round"/>
<path d="M9.02023 13.86L5.23148 18.405C5.13362 18.5225 5.06402 18.661 5.02805 18.8096C4.99208 18.9583 4.99069 19.1132 5.02398 19.2625L6.56898 26.2162C6.60581 26.3821 6.68428 26.5358 6.79697 26.6629C6.90967 26.7899 7.05288 26.8862 7.2131 26.9426C7.37332 26.9991 7.54527 27.0137 7.71273 26.9853C7.88019 26.9568 8.03764 26.8862 8.17023 26.78L11.8515 24" stroke="#1C1C1E" stroke-width="2" stroke-linecap="round" stroke-linejoin="round"/>
</svg>
