<svg width="32" height="32" viewBox="0 0 32 32" fill="none" xmlns="http://www.w3.org/2000/svg">
<path opacity="0.2" d="M26 15H6C5.44772 15 5 15.4477 5 16V19C5 19.5523 5.44772 20 6 20H26C26.5523 20 27 19.5523 27 19V16C27 15.4477 26.5523 15 26 15Z" fill="#1C1C1E"/>
<path opacity="0.2" d="M26 6H6C5.44772 6 5 6.44772 5 7V10C5 10.5523 5.44772 11 6 11H26C26.5523 11 27 10.5523 27 10V7C27 6.44772 26.5523 6 26 6Z" fill="#1C1C1E"/>
<path d="M26 15H6C5.44772 15 5 15.4477 5 16V19C5 19.5523 5.44772 20 6 20H26C26.5523 20 27 19.5523 27 19V16C27 15.4477 26.5523 15 26 15Z" stroke="#1C1C1E" stroke-width="2" stroke-linecap="round" stroke-linejoin="round"/>
<path d="M26 6H6C5.44772 6 5 6.44772 5 7V10C5 10.5523 5.44772 11 6 11H26C26.5523 11 27 10.5523 27 10V7C27 6.44772 26.5523 6 26 6Z" stroke="#1C1C1E" stroke-width="2" stroke-linecap="round" stroke-linejoin="round"/>
<path d="M13 27H19" stroke="#1C1C1E" stroke-width="2" stroke-linecap="round" stroke-linejoin="round"/>
<path d="M16 24V30" stroke="#1C1C1E" stroke-width="2" stroke-linecap="round" stroke-linejoin="round"/>
</svg>
