<svg width="32" height="32" viewBox="0 0 32 32" fill="none" xmlns="http://www.w3.org/2000/svg">
<path opacity="0.2" d="M16 24C20.4183 24 24 20.4183 24 16C24 11.5817 20.4183 8 16 8C11.5817 8 8 11.5817 8 16C8 20.4183 11.5817 24 16 24Z" fill="#1C1C1E"/>
<path d="M22.5 5H27V9.5" stroke="#1C1C1E" stroke-width="2" stroke-linecap="round" stroke-linejoin="round"/>
<path d="M22.5 27H27V22.5" stroke="#1C1C1E" stroke-width="2" stroke-linecap="round" stroke-linejoin="round"/>
<path d="M9.5 27H5V22.5" stroke="#1C1C1E" stroke-width="2" stroke-linecap="round" stroke-linejoin="round"/>
<path d="M9.5 5H5V9.5" stroke="#1C1C1E" stroke-width="2" stroke-linecap="round" stroke-linejoin="round"/>
<path d="M16 24C20.4183 24 24 20.4183 24 16C24 11.5817 20.4183 8 16 8C11.5817 8 8 11.5817 8 16C8 20.4183 11.5817 24 16 24Z" stroke="#1C1C1E" stroke-width="2" stroke-linecap="round" stroke-linejoin="round"/>
<path d="M13 16C13.8284 16 14.5 15.3284 14.5 14.5C14.5 13.6716 13.8284 13 13 13C12.1716 13 11.5 13.6716 11.5 14.5C11.5 15.3284 12.1716 16 13 16Z" fill="#1C1C1E"/>
<path d="M19 16C19.8284 16 20.5 15.3284 20.5 14.5C20.5 13.6716 19.8284 13 19 13C18.1716 13 17.5 13.6716 17.5 14.5C17.5 15.3284 18.1716 16 19 16Z" fill="#1C1C1E"/>
<path d="M19 19C18.295 19.625 17.015 20 16 20C14.985 20 13.705 19.625 13 19" stroke="#1C1C1E" stroke-width="2" stroke-linecap="round" stroke-linejoin="round"/>
</svg>
