<svg width="32" height="32" viewBox="0 0 32 32" fill="none" xmlns="http://www.w3.org/2000/svg">
<path opacity="0.2" d="M7.5 13C9.433 13 11 11.433 11 9.5C11 7.567 9.433 6 7.5 6C5.567 6 4 7.567 4 9.5C4 11.433 5.567 13 7.5 13Z" fill="#1C1C1E"/>
<path opacity="0.2" d="M7.5 26C9.433 26 11 24.433 11 22.5C11 20.567 9.433 19 7.5 19C5.567 19 4 20.567 4 22.5C4 24.433 5.567 26 7.5 26Z" fill="#1C1C1E"/>
<path d="M7.5 13C9.433 13 11 11.433 11 9.5C11 7.567 9.433 6 7.5 6C5.567 6 4 7.567 4 9.5C4 11.433 5.567 13 7.5 13Z" stroke="#1C1C1E" stroke-width="2" stroke-linecap="round" stroke-linejoin="round"/>
<path d="M7.5 26C9.433 26 11 24.433 11 22.5C11 20.567 9.433 19 7.5 19C5.567 19 4 20.567 4 22.5C4 24.433 5.567 26 7.5 26Z" stroke="#1C1C1E" stroke-width="2" stroke-linecap="round" stroke-linejoin="round"/>
<path d="M16.9999 16L10.3887 20.5238" stroke="#1C1C1E" stroke-width="2" stroke-linecap="round" stroke-linejoin="round"/>
<path d="M28.9998 7.79004L20.541 13.5763" stroke="#1C1C1E" stroke-width="2" stroke-linecap="round" stroke-linejoin="round"/>
<path d="M28.9999 24.2098L10.3887 11.4761" stroke="#1C1C1E" stroke-width="2" stroke-linecap="round" stroke-linejoin="round"/>
</svg>
