<svg width="32" height="32" viewBox="0 0 32 32" fill="none" xmlns="http://www.w3.org/2000/svg">
<path opacity="0.2" d="M26.708 26.7075C26.8008 26.6146 26.8744 26.5042 26.9246 26.3829C26.9748 26.2615 27.0006 26.1314 27.0005 26V6C27.0005 5.73478 26.8951 5.48043 26.7076 5.29289C26.52 5.10536 26.2657 5 26.0005 5H6.00047C5.86911 4.9999 5.73901 5.02568 5.61762 5.07586C5.49622 5.12605 5.38591 5.19967 5.29297 5.2925L26.708 26.7075Z" fill="#1C1C1E"/>
<path d="M14 27H18" stroke="#1C1C1E" stroke-width="2" stroke-linecap="round" stroke-linejoin="round"/>
<path d="M5 14V18" stroke="#1C1C1E" stroke-width="2" stroke-linecap="round" stroke-linejoin="round"/>
<path d="M9 27H6C5.73478 27 5.48043 26.8946 5.29289 26.7071C5.10536 26.5196 5 26.2652 5 26V23" stroke="#1C1C1E" stroke-width="2" stroke-linecap="round" stroke-linejoin="round"/>
<path d="M23 27H26C26.2652 27 26.5196 26.8946 26.7071 26.7071C26.8946 26.5196 27 26.2652 27 26V6C27 5.73478 26.8946 5.48043 26.7071 5.29289C26.5196 5.10536 26.2652 5 26 5H6C5.73478 5 5.48043 5.10536 5.29289 5.29289C5.10536 5.48043 5 5.73478 5 6V9" stroke="#1C1C1E" stroke-width="2" stroke-linecap="round" stroke-linejoin="round"/>
<path d="M5.29297 5.29248L26.708 26.7075" stroke="#1C1C1E" stroke-width="2" stroke-linecap="round" stroke-linejoin="round"/>
</svg>
