<svg width="32" height="32" viewBox="0 0 32 32" fill="none" xmlns="http://www.w3.org/2000/svg">
<path opacity="0.2" d="M16 3C9.375 3 4 8.14875 4 14.5C4 18.7563 6.41375 22.4725 10 24.4613V27C10 27.2652 10.1054 27.5196 10.2929 27.7071C10.4804 27.8946 10.7348 28 11 28H21C21.2652 28 21.5196 27.8946 21.7071 27.7071C21.8946 27.5196 22 27.2652 22 27V24.4613C25.5863 22.4725 28 18.7563 28 14.5C28 8.14875 22.625 3 16 3ZM11.5 19C11.0055 19 10.5222 18.8534 10.1111 18.5787C9.69995 18.304 9.37952 17.9135 9.1903 17.4567C9.00108 16.9999 8.95157 16.4972 9.04804 16.0123C9.1445 15.5273 9.3826 15.0819 9.73223 14.7322C10.0819 14.3826 10.5273 14.1445 11.0123 14.048C11.4972 13.9516 11.9999 14.0011 12.4567 14.1903C12.9135 14.3795 13.304 14.7 13.5787 15.1111C13.8534 15.5222 14 16.0055 14 16.5C14 17.163 13.7366 17.7989 13.2678 18.2678C12.7989 18.7366 12.163 19 11.5 19ZM20.5 19C20.0055 19 19.5222 18.8534 19.1111 18.5787C18.7 18.304 18.3795 17.9135 18.1903 17.4567C18.0011 16.9999 17.9516 16.4972 18.048 16.0123C18.1445 15.5273 18.3826 15.0819 18.7322 14.7322C19.0819 14.3826 19.5273 14.1445 20.0123 14.048C20.4972 13.9516 20.9999 14.0011 21.4567 14.1903C21.9135 14.3795 22.304 14.7 22.5787 15.1111C22.8534 15.5222 23 16.0055 23 16.5C23 17.163 22.7366 17.7989 22.2678 18.2678C21.7989 18.7366 21.163 19 20.5 19Z" fill="#1C1C1E"/>
<path d="M11.5 19C12.8807 19 14 17.8807 14 16.5C14 15.1193 12.8807 14 11.5 14C10.1193 14 9 15.1193 9 16.5C9 17.8807 10.1193 19 11.5 19Z" stroke="#1C1C1E" stroke-width="2" stroke-linecap="round" stroke-linejoin="round"/>
<path d="M20.5 19C21.8807 19 23 17.8807 23 16.5C23 15.1193 21.8807 14 20.5 14C19.1193 14 18 15.1193 18 16.5C18 17.8807 19.1193 19 20.5 19Z" stroke="#1C1C1E" stroke-width="2" stroke-linecap="round" stroke-linejoin="round"/>
<path d="M14 28V24" stroke="#1C1C1E" stroke-width="2" stroke-linecap="round" stroke-linejoin="round"/>
<path d="M18 28V24" stroke="#1C1C1E" stroke-width="2" stroke-linecap="round" stroke-linejoin="round"/>
<path d="M22 27C22 27.2652 21.8946 27.5196 21.7071 27.7071C21.5196 27.8946 21.2652 28 21 28H11C10.7348 28 10.4804 27.8946 10.2929 27.7071C10.1054 27.5196 10 27.2652 10 27V24.4613C6.41375 22.4725 4 18.7562 4 14.5C4 8.14875 9.375 3 16 3C22.625 3 28 8.14875 28 14.5C28 18.7562 25.5863 22.4725 22 24.4613V27Z" stroke="#1C1C1E" stroke-width="2" stroke-linecap="round" stroke-linejoin="round"/>
</svg>
