<svg width="32" height="32" viewBox="0 0 32 32" fill="none" xmlns="http://www.w3.org/2000/svg">
<path opacity="0.2" d="M26.7502 18.3362C27.6381 19.491 28.0755 20.9294 27.981 22.3829C27.8864 23.8365 27.2663 25.206 26.2363 26.236C25.2063 27.266 23.8367 27.8862 22.3832 27.9807C20.9296 28.0753 19.4913 27.6379 18.3365 26.75C16.5368 27.139 14.6683 27.0705 12.902 26.5506C11.1357 26.0307 9.52803 25.0761 8.22609 23.7741C6.92414 22.4722 5.96954 20.8645 5.44966 19.0982C4.92977 17.3319 4.86121 15.4634 5.25024 13.6637C4.36238 12.509 3.92493 11.0706 4.0195 9.61706C4.11407 8.16349 4.7342 6.79396 5.7642 5.76396C6.7942 4.73396 8.16373 4.11383 9.6173 4.01926C11.0709 3.92469 12.5092 4.36213 13.664 5.24999C15.4636 4.86096 17.3321 4.92953 19.0984 5.44941C20.8647 5.9693 22.4724 6.9239 23.7744 8.22584C25.0763 9.52779 26.0309 11.1355 26.5508 12.9018C27.0707 14.6681 27.1393 16.5366 26.7502 18.3362Z" fill="#1C1C1E"/>
<path d="M12 19C12 20.6562 13.7912 22 16 22C18.2088 22 20 20.6562 20 19C20 15 12.2225 16.5 12.2225 13C12.2225 11.3438 13.7912 10 16 10C17.6562 10 18.9538 10.75 19.5 11.8325" stroke="#1C1C1E" stroke-width="2" stroke-linecap="round" stroke-linejoin="round"/>
<path d="M26.7502 18.3362C27.6381 19.491 28.0755 20.9294 27.981 22.3829C27.8864 23.8365 27.2663 25.206 26.2363 26.236C25.2063 27.266 23.8367 27.8862 22.3832 27.9807C20.9296 28.0753 19.4913 27.6379 18.3365 26.75C16.5368 27.139 14.6683 27.0705 12.902 26.5506C11.1357 26.0307 9.52803 25.0761 8.22609 23.7741C6.92414 22.4722 5.96954 20.8645 5.44966 19.0982C4.92977 17.3319 4.86121 15.4634 5.25024 13.6637C4.36238 12.509 3.92493 11.0706 4.0195 9.61706C4.11407 8.16349 4.7342 6.79396 5.7642 5.76396C6.7942 4.73396 8.16373 4.11383 9.6173 4.01926C11.0709 3.92469 12.5092 4.36213 13.664 5.24999C15.4636 4.86096 17.3321 4.92953 19.0984 5.44941C20.8647 5.9693 22.4724 6.9239 23.7744 8.22584C25.0763 9.52779 26.0309 11.1355 26.5508 12.9018C27.0707 14.6681 27.1393 16.5366 26.7502 18.3362Z" stroke="#1C1C1E" stroke-width="2" stroke-linecap="round" stroke-linejoin="round"/>
</svg>
