<svg width="32" height="32" viewBox="0 0 32 32" fill="none" xmlns="http://www.w3.org/2000/svg">
<path opacity="0.2" d="M24 7H8C7.44772 7 7 7.44772 7 8V24C7 24.5523 7.44772 25 8 25H24C24.5523 25 25 24.5523 25 24V8C25 7.44772 24.5523 7 24 7Z" fill="#1C1C1E"/>
<path d="M24 7H8C7.44772 7 7 7.44772 7 8V24C7 24.5523 7.44772 25 8 25H24C24.5523 25 25 24.5523 25 24V8C25 7.44772 24.5523 7 24 7Z" stroke="#1C1C1E" stroke-width="2" stroke-linecap="round" stroke-linejoin="round"/>
<path d="M29 7V25" stroke="#1C1C1E" stroke-width="2" stroke-linecap="round" stroke-linejoin="round"/>
<path d="M3 7V25" stroke="#1C1C1E" stroke-width="2" stroke-linecap="round" stroke-linejoin="round"/>
</svg>
