<svg width="32" height="32" viewBox="0 0 32 32" fill="none" xmlns="http://www.w3.org/2000/svg">
<path opacity="0.2" d="M16 4.5C13.7255 4.5 11.5021 5.17446 9.61095 6.4381C7.71978 7.70174 6.2458 9.49779 5.37539 11.5991C4.50498 13.7005 4.27724 16.0128 4.72097 18.2435C5.1647 20.4743 6.25997 22.5234 7.86828 24.1317C9.47658 25.74 11.5257 26.8353 13.7565 27.279C15.9872 27.7228 18.2995 27.495 20.4009 26.6246C22.5022 25.7542 24.2983 24.2802 25.5619 22.3891C26.8255 20.4979 27.5 18.2745 27.5 16C27.4967 12.951 26.284 10.0279 24.1281 7.87193C21.9721 5.71597 19.049 4.50331 16 4.5Z" fill="#1C1C1E"/>
<path d="M16 8V24" stroke="#1C1C1E" stroke-width="2" stroke-linecap="round" stroke-linejoin="round"/>
<path d="M13 5L16 8L19 5" stroke="#1C1C1E" stroke-width="2" stroke-linecap="round" stroke-linejoin="round"/>
<path d="M13 27L16 24L19 27" stroke="#1C1C1E" stroke-width="2" stroke-linecap="round" stroke-linejoin="round"/>
<path d="M9.07129 12L22.9288 20" stroke="#1C1C1E" stroke-width="2" stroke-linecap="round" stroke-linejoin="round"/>
<path d="M5 13L9.07125 12L8 8" stroke="#1C1C1E" stroke-width="2" stroke-linecap="round" stroke-linejoin="round"/>
<path d="M24 24L22.9287 20L27 19" stroke="#1C1C1E" stroke-width="2" stroke-linecap="round" stroke-linejoin="round"/>
<path d="M9.07129 20L22.9288 12" stroke="#1C1C1E" stroke-width="2" stroke-linecap="round" stroke-linejoin="round"/>
<path d="M8 24L9.07125 20L5 19" stroke="#1C1C1E" stroke-width="2" stroke-linecap="round" stroke-linejoin="round"/>
<path d="M27 13L22.9287 12L24 8" stroke="#1C1C1E" stroke-width="2" stroke-linecap="round" stroke-linejoin="round"/>
</svg>
