<svg width="32" height="32" viewBox="0 0 32 32" fill="none" xmlns="http://www.w3.org/2000/svg">
<path opacity="0.2" d="M10 21H4C3.73478 21 3.48043 20.8946 3.29289 20.7071C3.10536 20.5196 3 20.2652 3 20V12C3 11.7348 3.10536 11.4804 3.29289 11.2929C3.48043 11.1054 3.73478 11 4 11H10V21Z" fill="#1C1C1E"/>
<path d="M6 5L26 27" stroke="#1C1C1E" stroke-width="2" stroke-linecap="round" stroke-linejoin="round"/>
<path d="M10 11V21" stroke="#1C1C1E" stroke-width="2" stroke-linecap="round" stroke-linejoin="round"/>
<path d="M24 13.3586C24.6433 14.0891 24.9982 15.029 24.9982 16.0024C24.9982 16.9757 24.6433 17.9157 24 18.6461" stroke="#1C1C1E" stroke-width="2" stroke-linecap="round" stroke-linejoin="round"/>
<path d="M19 19.2999V27.9999L10 20.9999H4C3.73478 20.9999 3.48043 20.8945 3.29289 20.707C3.10536 20.5195 3 20.2651 3 19.9999V11.9999C3 11.7347 3.10536 11.4803 3.29289 11.2928C3.48043 11.1053 3.73478 10.9999 4 10.9999H10L10.8525 10.3374" stroke="#1C1C1E" stroke-width="2" stroke-linecap="round" stroke-linejoin="round"/>
<path d="M14.0186 7.87375L18.9998 4V13.3538" stroke="#1C1C1E" stroke-width="2" stroke-linecap="round" stroke-linejoin="round"/>
<path d="M27.709 10C29.1848 11.6501 30.0008 13.7862 30.0008 16C30.0008 18.2138 29.1848 20.3499 27.709 22" stroke="#1C1C1E" stroke-width="2" stroke-linecap="round" stroke-linejoin="round"/>
</svg>
