<svg width="32" height="32" viewBox="0 0 32 32" fill="none" xmlns="http://www.w3.org/2000/svg">
<path opacity="0.2" d="M24 4H8C7.73478 4 7.48043 4.10536 7.29289 4.29289C7.10536 4.48043 7 4.73478 7 5V27C7 27.2652 7.10536 27.5196 7.29289 27.7071C7.48043 27.8946 7.73478 28 8 28H24C24.2652 28 24.5196 27.8946 24.7071 27.7071C24.8946 27.5196 25 27.2652 25 27V5C25 4.73478 24.8946 4.48043 24.7071 4.29289C24.5196 4.10536 24.2652 4 24 4ZM16 23C15.2089 23 14.4355 22.7654 13.7777 22.3259C13.1199 21.8864 12.6072 21.2616 12.3045 20.5307C12.0017 19.7998 11.9225 18.9956 12.0769 18.2196C12.2312 17.4437 12.6122 16.731 13.1716 16.1716C13.731 15.6122 14.4437 15.2312 15.2196 15.0769C15.9956 14.9225 16.7998 15.0017 17.5307 15.3045C18.2616 15.6072 18.8864 16.1199 19.3259 16.7777C19.7654 17.4355 20 18.2089 20 19C20 20.0609 19.5786 21.0783 18.8284 21.8284C18.0783 22.5786 17.0609 23 16 23Z" fill="#1C1C1E"/>
<path d="M25 27V5C25 4.44772 24.5523 4 24 4L8 4C7.44772 4 7 4.44772 7 5V27C7 27.5523 7.44772 28 8 28H24C24.5523 28 25 27.5523 25 27Z" stroke="#1C1C1E" stroke-width="2" stroke-linecap="round" stroke-linejoin="round"/>
<path d="M16 11C16.8284 11 17.5 10.3284 17.5 9.5C17.5 8.67157 16.8284 8 16 8C15.1716 8 14.5 8.67157 14.5 9.5C14.5 10.3284 15.1716 11 16 11Z" fill="#1C1C1E"/>
<path d="M16 23C18.2091 23 20 21.2091 20 19C20 16.7909 18.2091 15 16 15C13.7909 15 12 16.7909 12 19C12 21.2091 13.7909 23 16 23Z" stroke="#1C1C1E" stroke-width="2" stroke-linecap="round" stroke-linejoin="round"/>
</svg>
