<svg width="32" height="32" viewBox="0 0 32 32" fill="none" xmlns="http://www.w3.org/2000/svg">
<path opacity="0.2" d="M10 21H4C3.73478 21 3.48043 20.8946 3.29289 20.7071C3.10536 20.5196 3 20.2652 3 20V12C3 11.7348 3.10536 11.4804 3.29289 11.2929C3.48043 11.1054 3.73478 11 4 11H10V21Z" fill="#1C1C1E"/>
<path d="M10 21H4C3.73478 21 3.48043 20.8946 3.29289 20.7071C3.10536 20.5196 3 20.2652 3 20V12C3 11.7348 3.10536 11.4804 3.29289 11.2929C3.48043 11.1054 3.73478 11 4 11H10L19 4V28L10 21Z" stroke="#1C1C1E" stroke-width="2" stroke-linecap="round" stroke-linejoin="round"/>
<path d="M9.99609 11V21" stroke="#1C1C1E" stroke-width="2" stroke-linecap="round" stroke-linejoin="round"/>
</svg>
