<svg width="32" height="32" viewBox="0 0 32 32" fill="none" xmlns="http://www.w3.org/2000/svg">
<path d="M9.825 5.70898C8.04808 6.77538 6.57762 8.28378 5.55682 10.0873C4.53601 11.8908 3.99966 13.9279 4 16.0002C4 16.0677 4 16.1352 4 16.2015C8.90875 12.4702 12.455 14.2352 16 16.0002C15.75 12.0477 15.5112 8.09398 9.825 5.70898Z" fill="#1C1C1E"/>
<path d="M10.1745 26.5C11.9865 27.5056 14.0281 28.0249 16.1004 28.0071C18.1727 27.9894 20.205 27.4353 21.9995 26.3988C22.0583 26.365 22.117 26.3325 22.1745 26.2975C16.4883 23.9063 16.2495 19.9525 15.9995 16C12.6983 18.1875 9.39704 20.375 10.1745 26.5Z" fill="#1C1C1E"/>
<path d="M28 15.7984C27.9651 13.7261 27.3941 11.6983 26.3426 9.91227C25.2911 8.12629 23.795 6.64308 22 5.60711L21.825 5.50586C22.6025 11.6246 19.3012 13.8121 16 15.9996C19.545 17.7646 23.0912 19.5296 28 15.7984Z" fill="#1C1C1E"/>
<path d="M16 28C22.6274 28 28 22.6274 28 16C28 9.37258 22.6274 4 16 4C9.37258 4 4 9.37258 4 16C4 22.6274 9.37258 28 16 28Z" stroke="#1C1C1E" stroke-width="2" stroke-linecap="round" stroke-linejoin="round"/>
<path d="M4 16.2013C13.8188 8.74003 18.1812 23.26 28 15.7988" stroke="#1C1C1E" stroke-width="2" stroke-linecap="round" stroke-linejoin="round"/>
<path d="M22.1752 26.2915C10.8002 21.5202 21.1977 10.4802 9.8252 5.70898" stroke="#1C1C1E" stroke-width="2" stroke-linecap="round" stroke-linejoin="round"/>
<path d="M21.8249 5.50586C23.3749 17.7409 8.62487 14.2584 10.1749 26.4996" stroke="#1C1C1E" stroke-width="2" stroke-linecap="round" stroke-linejoin="round"/>
</svg>
