<svg width="32" height="32" viewBox="0 0 32 32" fill="none" xmlns="http://www.w3.org/2000/svg">
<path opacity="0.2" d="M20 9C23.2675 14.2278 25.0001 20.2688 25 26.4338V28C25 28.2652 24.8946 28.5196 24.7071 28.7071C24.5196 28.8946 24.2652 29 24 29H11C10.7348 29 10.4804 28.8946 10.2929 28.7071C10.1054 28.5196 10 28.2652 10 28V20.9225C9.99963 20.3225 10.1343 19.73 10.3939 19.1891C10.6536 18.6481 11.0316 18.1725 11.5 17.7975L13.5 16.2C13.9684 15.825 14.3464 15.3494 14.6061 14.8084C14.8658 14.2675 15.0004 13.675 15 13.075V9H20Z" fill="#1C1C1E"/>
<path d="M9 9H25C25 7.4087 24.3679 5.88258 23.2426 4.75736C22.1174 3.63214 20.5913 3 19 3H10C9.73478 3 9.48043 3.10536 9.29289 3.29289C9.10536 3.48043 9 3.73478 9 4V10C9 11.0609 8.57857 12.0783 7.82843 12.8284C7.07828 13.5786 6.06087 14 5 14" stroke="#1C1C1E" stroke-width="2" stroke-linecap="round" stroke-linejoin="round"/>
<path d="M20 9C23.2675 14.2278 25.0001 20.2688 25 26.4338V28C25 28.2652 24.8946 28.5196 24.7071 28.7071C24.5196 28.8946 24.2652 29 24 29H11C10.7348 29 10.4804 28.8946 10.2929 28.7071C10.1054 28.5196 10 28.2652 10 28V20.9225C9.99963 20.3225 10.1343 19.73 10.3939 19.1891C10.6536 18.6481 11.0316 18.1725 11.5 17.7975L13.5 16.2C13.9684 15.825 14.3464 15.3494 14.6061 14.8084C14.8658 14.2675 15.0004 13.675 15 13.075V9" stroke="#1C1C1E" stroke-width="2" stroke-linecap="round" stroke-linejoin="round"/>
</svg>
