<svg width="32" height="32" viewBox="0 0 32 32" fill="none" xmlns="http://www.w3.org/2000/svg">
<path opacity="0.2" d="M28 6H4V26H28V6Z" fill="#1C1C1E"/>
<path d="M18 22H20.5C22.0913 22 23.6174 21.3679 24.7426 20.2426C25.8679 19.1174 26.5 17.5913 26.5 16C26.5 14.4087 25.8679 12.8826 24.7426 11.7574C23.6174 10.6321 22.0913 10 20.5 10H18V22Z" stroke="#1C1C1E" stroke-width="2" stroke-linecap="round" stroke-linejoin="round"/>
<path d="M4 6H28" stroke="#1C1C1E" stroke-width="2" stroke-linecap="round" stroke-linejoin="round"/>
<path d="M4 26H28" stroke="#1C1C1E" stroke-width="2" stroke-linecap="round" stroke-linejoin="round"/>
<path d="M6 19C6 20.6562 7.79125 22 10 22C12.2088 22 14 20.6562 14 19C14 15 6.2225 16.5 6.2225 13C6.2225 11.3438 7.79125 10 10 10C11.6562 10 12.9538 10.75 13.5 11.8325" stroke="#1C1C1E" stroke-width="2" stroke-linecap="round" stroke-linejoin="round"/>
</svg>
