<svg width="32" height="32" viewBox="0 0 32 32" fill="none" xmlns="http://www.w3.org/2000/svg">
<path opacity="0.2" d="M16 4C13.6266 4 11.3066 4.70379 9.33316 6.02236C7.35977 7.34094 5.8217 9.21509 4.91345 11.4078C4.0052 13.6005 3.76756 16.0133 4.23058 18.3411C4.6936 20.6689 5.83649 22.8071 7.51472 24.4853C9.19295 26.1635 11.3312 27.3064 13.6589 27.7694C15.9867 28.2324 18.3995 27.9948 20.5922 27.0866C22.7849 26.1783 24.6591 24.6402 25.9776 22.6668C27.2962 20.6935 28 18.3734 28 16C28 12.8174 26.7357 9.76515 24.4853 7.51472C22.2348 5.26428 19.1826 4 16 4ZM21.7263 16.2013L14.09 22.4287C13.6103 22.823 13.0011 23.0246 12.3809 22.9944C11.7607 22.9641 11.174 22.7042 10.7349 22.2651C10.2959 21.826 10.0359 21.2393 10.0056 20.6191C9.97539 19.9989 10.177 19.3897 10.5713 18.91L16.7988 11.2738C17.1093 10.8979 17.495 10.591 17.9311 10.3729C18.3671 10.1548 18.8439 10.0302 19.331 10.0071C19.818 9.98394 20.3045 10.0628 20.7592 10.2387C21.214 10.4145 21.627 10.6835 21.9718 11.0282C22.3165 11.373 22.5855 11.786 22.7613 12.2408C22.9372 12.6955 23.0161 13.182 22.993 13.669C22.9698 14.1561 22.8452 14.6329 22.6271 15.0689C22.409 15.505 22.1021 15.8907 21.7263 16.2013Z" fill="#1C1C1E"/>
<path d="M16 28C22.6274 28 28 22.6274 28 16C28 9.37258 22.6274 4 16 4C9.37258 4 4 9.37258 4 16C4 22.6274 9.37258 28 16 28Z" stroke="#1C1C1E" stroke-width="2" stroke-linecap="round" stroke-linejoin="round"/>
<path d="M19.5 17C21.433 17 23 15.433 23 13.5C23 11.567 21.433 10 19.5 10C17.567 10 16 11.567 16 13.5C16 15.433 17.567 17 19.5 17Z" stroke="#1C1C1E" stroke-width="2" stroke-linecap="round" stroke-linejoin="round"/>
<path d="M12.5 23C13.8807 23 15 21.8807 15 20.5C15 19.1193 13.8807 18 12.5 18C11.1193 18 10 19.1193 10 20.5C10 21.8807 11.1193 23 12.5 23Z" stroke="#1C1C1E" stroke-width="2" stroke-linecap="round" stroke-linejoin="round"/>
<path d="M10.5713 18.9099L16.7988 11.2737" stroke="#1C1C1E" stroke-width="2" stroke-linecap="round" stroke-linejoin="round"/>
<path d="M14.0898 22.4287L21.7261 16.2012" stroke="#1C1C1E" stroke-width="2" stroke-linecap="round" stroke-linejoin="round"/>
<path d="M10.7324 18.7324L4.51367 12.5137" stroke="#1C1C1E" stroke-width="2" stroke-linecap="round" stroke-linejoin="round"/>
</svg>
