<svg width="32" height="32" viewBox="0 0 32 32" fill="none" xmlns="http://www.w3.org/2000/svg">
<path opacity="0.2" d="M27.8002 18.1937C26.3012 16.5568 24.478 15.2496 22.4466 14.3553C20.4151 13.4611 18.2198 12.9993 16.0002 12.9993C13.7806 12.9993 11.5853 13.4611 9.55383 14.3553C7.52237 15.2496 5.69919 16.5568 4.2002 18.1937C4.31411 18.8074 4.47542 19.4113 4.6827 20H11.3077C11.5114 20.0001 11.7102 20.0624 11.8775 20.1785C12.0448 20.2947 12.1727 20.4592 12.2439 20.65L14.9764 27.9562C15.3139 27.985 15.6564 28 16.0014 28C16.3464 28 16.6839 27.985 17.0202 27.9575L19.7577 20.6487C19.8293 20.4579 19.9574 20.2936 20.1249 20.1777C20.2925 20.0617 20.4914 19.9997 20.6952 20H27.3202C27.5266 19.4112 27.6871 18.8073 27.8002 18.1937Z" fill="#1C1C1E"/>
<path d="M16 19C16.8284 19 17.5 18.3284 17.5 17.5C17.5 16.6716 16.8284 16 16 16C15.1716 16 14.5 16.6716 14.5 17.5C14.5 18.3284 15.1716 19 16 19Z" fill="#1C1C1E"/>
<path d="M16 28C22.6274 28 28 22.6274 28 16C28 9.37258 22.6274 4 16 4C9.37258 4 4 9.37258 4 16C4 22.6274 9.37258 28 16 28Z" stroke="#1C1C1E" stroke-width="2" stroke-linecap="round" stroke-linejoin="round"/>
<path d="M4.2002 18.1937C5.69919 16.5568 7.52237 15.2496 9.55383 14.3553C11.5853 13.4611 13.7806 12.9993 16.0002 12.9993C18.2198 12.9993 20.4151 13.4611 22.4466 14.3553C24.478 15.2496 26.3012 16.5568 27.8002 18.1937" stroke="#1C1C1E" stroke-width="2" stroke-linecap="round" stroke-linejoin="round"/>
<path d="M14.9754 27.9562L12.2429 20.65C12.1716 20.4592 12.0437 20.2947 11.8764 20.1786C11.7091 20.0624 11.5103 20.0001 11.3066 20H4.68164" stroke="#1C1C1E" stroke-width="2" stroke-linecap="round" stroke-linejoin="round"/>
<path d="M17.0186 27.9575L19.7561 20.6488C19.8276 20.458 19.9558 20.2936 20.1233 20.1777C20.2908 20.0617 20.4898 19.9998 20.6936 20H27.3186" stroke="#1C1C1E" stroke-width="2" stroke-linecap="round" stroke-linejoin="round"/>
</svg>
