<svg width="32" height="32" viewBox="0 0 32 32" fill="none" xmlns="http://www.w3.org/2000/svg">
<path opacity="0.2" d="M19 4H13C10.8783 4 8.84344 4.84285 7.34315 6.34315C5.84285 7.84344 5 9.87827 5 12V26H27V12C27 9.87827 26.1571 7.84344 24.6569 6.34315C23.1566 4.84285 21.1217 4 19 4ZM22 21C22 21.5304 21.7893 22.0391 21.4142 22.4142C21.0391 22.7893 20.5304 23 20 23H12C11.4696 23 10.9609 22.7893 10.5858 22.4142C10.2107 22.0391 10 21.5304 10 21V12C10 11.4696 10.2107 10.9609 10.5858 10.5858C10.9609 10.2107 11.4696 10 12 10H20C20.5304 10 21.0391 10.2107 21.4142 10.5858C21.7893 10.9609 22 11.4696 22 12V21Z" fill="#1C1C1E"/>
<path d="M5 26V12C5 9.87827 5.84285 7.84344 7.34315 6.34315C8.84344 4.84285 10.8783 4 13 4H19C21.1217 4 23.1566 4.84285 24.6569 6.34315C26.1571 7.84344 27 9.87827 27 12V26" stroke="#1C1C1E" stroke-width="2" stroke-linecap="round" stroke-linejoin="round"/>
<path d="M20 10H12C10.8954 10 10 10.8954 10 12V21C10 22.1046 10.8954 23 12 23H20C21.1046 23 22 22.1046 22 21V12C22 10.8954 21.1046 10 20 10Z" stroke="#1C1C1E" stroke-width="2" stroke-linecap="round" stroke-linejoin="round"/>
<path d="M10 19H22" stroke="#1C1C1E" stroke-width="2" stroke-linecap="round" stroke-linejoin="round"/>
<path d="M12 25L13 23" stroke="#1C1C1E" stroke-width="2" stroke-linecap="round" stroke-linejoin="round"/>
<path d="M19 23L20 25" stroke="#1C1C1E" stroke-width="2" stroke-linecap="round" stroke-linejoin="round"/>
<path d="M18 19V23" stroke="#1C1C1E" stroke-width="2" stroke-linecap="round" stroke-linejoin="round"/>
<path d="M14 19V23" stroke="#1C1C1E" stroke-width="2" stroke-linecap="round" stroke-linejoin="round"/>
</svg>
