<svg width="32" height="32" viewBox="0 0 32 32" fill="none" xmlns="http://www.w3.org/2000/svg">
<path opacity="0.2" d="M11 8V26H5C4.73478 26 4.48043 25.8946 4.29289 25.7071C4.10536 25.5196 4 25.2652 4 25V9C4 8.73478 4.10536 8.48043 4.29289 8.29289C4.48043 8.10536 4.73478 8 5 8H11Z" fill="#1C1C1E"/>
<path opacity="0.2" d="M21 8V26H27C27.2652 26 27.5196 25.8946 27.7071 25.7071C27.8946 25.5196 28 25.2652 28 25V9C28 8.73478 27.8946 8.48043 27.7071 8.29289C27.5196 8.10536 27.2652 8 27 8H21Z" fill="#1C1C1E"/>
<path d="M27 8H5C4.44772 8 4 8.44772 4 9V25C4 25.5523 4.44772 26 5 26H27C27.5523 26 28 25.5523 28 25V9C28 8.44772 27.5523 8 27 8Z" stroke="#1C1C1E" stroke-width="2" stroke-linecap="round" stroke-linejoin="round"/>
<path d="M21 26V6C21 5.46957 20.7893 4.96086 20.4142 4.58579C20.0391 4.21071 19.5304 4 19 4H13C12.4696 4 11.9609 4.21071 11.5858 4.58579C11.2107 4.96086 11 5.46957 11 6V26" stroke="#1C1C1E" stroke-width="2" stroke-linecap="round" stroke-linejoin="round"/>
</svg>
