<svg width="32" height="32" viewBox="0 0 32 32" fill="none" xmlns="http://www.w3.org/2000/svg">
<path opacity="0.2" d="M24 7H8C7.44772 7 7 7.44772 7 8V26C7 26.5523 7.44772 27 8 27H24C24.5523 27 25 26.5523 25 26V8C25 7.44772 24.5523 7 24 7Z" fill="#1C1C1E"/>
<path d="M11 27V30" stroke="#1C1C1E" stroke-width="2" stroke-linecap="round" stroke-linejoin="round"/>
<path d="M21 27V30" stroke="#1C1C1E" stroke-width="2" stroke-linecap="round" stroke-linejoin="round"/>
<path d="M12 11V23" stroke="#1C1C1E" stroke-width="2" stroke-linecap="round" stroke-linejoin="round"/>
<path d="M16 11V23" stroke="#1C1C1E" stroke-width="2" stroke-linecap="round" stroke-linejoin="round"/>
<path d="M20 11V23" stroke="#1C1C1E" stroke-width="2" stroke-linecap="round" stroke-linejoin="round"/>
<path d="M24 7H8C7.44772 7 7 7.44772 7 8V26C7 26.5523 7.44772 27 8 27H24C24.5523 27 25 26.5523 25 26V8C25 7.44772 24.5523 7 24 7Z" stroke="#1C1C1E" stroke-width="2" stroke-linecap="round" stroke-linejoin="round"/>
<path d="M20 7V3C20 2.46957 19.7893 1.96086 19.4142 1.58579C19.0391 1.21071 18.5304 1 18 1H14C13.4696 1 12.9609 1.21071 12.5858 1.58579C12.2107 1.96086 12 2.46957 12 3V7" stroke="#1C1C1E" stroke-width="2" stroke-linecap="round" stroke-linejoin="round"/>
</svg>
