<svg width="32" height="32" viewBox="0 0 32 32" fill="none" xmlns="http://www.w3.org/2000/svg">
<path opacity="0.2" d="M16 23C19.866 23 23 19.866 23 16C23 12.134 19.866 9 16 9C12.134 9 9 12.134 9 16C9 19.866 12.134 23 16 23Z" fill="#1C1C1E"/>
<path d="M16 5V2" stroke="#1C1C1E" stroke-width="2" stroke-linecap="round" stroke-linejoin="round"/>
<path d="M16 23C19.866 23 23 19.866 23 16C23 12.134 19.866 9 16 9C12.134 9 9 12.134 9 16C9 19.866 12.134 23 16 23Z" stroke="#1C1C1E" stroke-width="2" stroke-linecap="round" stroke-linejoin="round"/>
<path d="M8 8L6 6" stroke="#1C1C1E" stroke-width="2" stroke-linecap="round" stroke-linejoin="round"/>
<path d="M8 24L6 26" stroke="#1C1C1E" stroke-width="2" stroke-linecap="round" stroke-linejoin="round"/>
<path d="M24 8L26 6" stroke="#1C1C1E" stroke-width="2" stroke-linecap="round" stroke-linejoin="round"/>
<path d="M24 24L26 26" stroke="#1C1C1E" stroke-width="2" stroke-linecap="round" stroke-linejoin="round"/>
<path d="M5 16H2" stroke="#1C1C1E" stroke-width="2" stroke-linecap="round" stroke-linejoin="round"/>
<path d="M16 27V30" stroke="#1C1C1E" stroke-width="2" stroke-linecap="round" stroke-linejoin="round"/>
<path d="M27 16H30" stroke="#1C1C1E" stroke-width="2" stroke-linecap="round" stroke-linejoin="round"/>
</svg>
