<svg width="32" height="32" viewBox="0 0 32 32" fill="none" xmlns="http://www.w3.org/2000/svg">
<path opacity="0.2" d="M17.7077 23.705L8.29516 14.2925C8.20229 14.1995 8.092 14.1258 7.9706 14.0754C7.8492 14.0251 7.71908 13.9992 7.58766 13.9992C7.45625 13.9992 7.32612 14.0251 7.20472 14.0754C7.08332 14.1258 6.97303 14.1995 6.88016 14.2925L5.29266 15.875C5.19968 15.9679 5.12593 16.0782 5.0756 16.1996C5.02528 16.321 4.99937 16.4511 4.99937 16.5825C4.99937 16.7139 5.02528 16.844 5.0756 16.9654C5.12593 17.0868 5.19968 17.1971 5.29266 17.29L8.50016 20.5L4.29266 24.7075C4.10527 24.895 4 25.1493 4 25.4144C4 25.6795 4.10527 25.9337 4.29266 26.1212L5.87516 27.7075C5.96803 27.8005 6.07832 27.8742 6.19972 27.9246C6.32112 27.9749 6.45125 28.0008 6.58266 28.0008C6.71408 28.0008 6.8442 27.9749 6.9656 27.9246C7.087 27.8742 7.19729 27.8005 7.29016 27.7075L11.5002 23.5L14.7052 26.7062C14.798 26.7992 14.9083 26.873 15.0297 26.9233C15.1511 26.9736 15.2812 26.9995 15.4127 26.9995C15.5441 26.9995 15.6742 26.9736 15.7956 26.9233C15.917 26.873 16.0273 26.7992 16.1202 26.7062L17.7077 25.1187C17.8951 24.9312 18.0003 24.677 18.0003 24.4119C18.0003 24.1468 17.8951 23.8925 17.7077 23.705Z" fill="#1C1C1E"/>
<path d="M8.50016 20.5L4.29266 24.7075C4.10527 24.895 4 25.1493 4 25.4144C4 25.6795 4.10527 25.9337 4.29266 26.1213L5.87516 27.7075C5.96803 27.8005 6.07832 27.8742 6.19972 27.9246C6.32112 27.9749 6.45125 28.0008 6.58266 28.0008C6.71408 28.0008 6.8442 27.9749 6.9656 27.9246C7.087 27.8742 7.19729 27.8005 7.29016 27.7075L11.5002 23.5" stroke="#1C1C1E" stroke-width="2" stroke-linecap="round" stroke-linejoin="round"/>
<path d="M6.87864 14.2936L5.29295 15.8793C4.90194 16.2703 4.90194 16.9042 5.29295 17.2953L14.7037 26.706C15.0947 27.097 15.7286 27.097 16.1196 26.706L17.7053 25.1203C18.0963 24.7293 18.0963 24.0953 17.7053 23.7043L8.29462 14.2936C7.90361 13.9026 7.26965 13.9026 6.87864 14.2936Z" stroke="#1C1C1E" stroke-width="2" stroke-linecap="round" stroke-linejoin="round"/>
<path d="M20 12L13 19" stroke="#1C1C1E" stroke-width="2" stroke-linecap="round" stroke-linejoin="round"/>
<path d="M10.3047 16.3037L18.9997 5H26.9997V13L15.6959 21.695" stroke="#1C1C1E" stroke-width="2" stroke-linecap="round" stroke-linejoin="round"/>
</svg>
