<svg width="32" height="32" viewBox="0 0 32 32" fill="none" xmlns="http://www.w3.org/2000/svg">
<path opacity="0.2" d="M24.2962 24.555L30 16L24.2962 7.445C24.205 7.30819 24.0814 7.196 23.9364 7.11838C23.7914 7.04076 23.6295 7.0001 23.465 7H5C4.73478 7 4.48043 7.10536 4.29289 7.29289C4.10536 7.48043 4 7.73478 4 8V24C4 24.2652 4.10536 24.5196 4.29289 24.7071C4.48043 24.8946 4.73478 25 5 25H23.465C23.6295 24.9999 23.7914 24.9592 23.9364 24.8816C24.0814 24.804 24.205 24.6918 24.2962 24.555Z" fill="#1C1C1E"/>
<path d="M24.2962 24.555L30 16L24.2962 7.445C24.205 7.30819 24.0814 7.196 23.9364 7.11838C23.7914 7.04076 23.6295 7.0001 23.465 7H5C4.73478 7 4.48043 7.10536 4.29289 7.29289C4.10536 7.48043 4 7.73478 4 8V24C4 24.2652 4.10536 24.5196 4.29289 24.7071C4.48043 24.8946 4.73478 25 5 25H23.465C23.6295 24.9999 23.7914 24.9592 23.9364 24.8816C24.0814 24.804 24.205 24.6918 24.2962 24.555Z" stroke="#1C1C1E" stroke-width="2" stroke-linecap="round" stroke-linejoin="round"/>
</svg>
