<svg width="32" height="32" viewBox="0 0 32 32" fill="none" xmlns="http://www.w3.org/2000/svg">
<path opacity="0.2" d="M16 22C19.3137 22 22 19.3137 22 16C22 12.6863 19.3137 10 16 10C12.6863 10 10 12.6863 10 16C10 19.3137 12.6863 22 16 22Z" fill="#1C1C1E"/>
<path d="M16 16L28 4" stroke="#1C1C1E" stroke-width="2" stroke-linecap="round" stroke-linejoin="round"/>
<path d="M24.4849 7.51499C22.3594 5.39451 19.5154 4.14902 16.5156 4.0249C13.5159 3.90079 10.5787 4.90709 8.28535 6.84474C5.99196 8.78239 4.50935 11.5102 4.13082 14.4886C3.7523 17.467 4.50543 20.479 6.24123 22.9287C7.97702 25.3785 10.569 27.0875 13.5045 27.7177C16.44 28.3479 19.5051 27.8533 22.0934 26.332C24.6817 24.8106 26.6048 22.3731 27.4821 19.5018C28.3594 16.6305 28.1271 13.5345 26.8311 10.8262" stroke="#1C1C1E" stroke-width="2" stroke-linecap="round" stroke-linejoin="round"/>
<path d="M20.242 11.7575C19.2495 10.7662 17.941 10.154 16.5439 10.0273C15.1468 9.90054 13.7495 10.2674 12.5948 11.064C11.4401 11.8605 10.6011 13.0365 10.2234 14.3876C9.84581 15.7386 9.95351 17.1792 10.5278 18.4591C11.1021 19.7389 12.1067 20.7771 13.367 21.3932C14.6273 22.0092 16.0636 22.1642 17.4263 21.8312C18.789 21.4982 19.9919 20.6982 20.8261 19.5704C21.6602 18.4425 22.0727 17.058 21.992 15.6575" stroke="#1C1C1E" stroke-width="2" stroke-linecap="round" stroke-linejoin="round"/>
</svg>
