<svg width="32" height="32" viewBox="0 0 32 32" fill="none" xmlns="http://www.w3.org/2000/svg">
<path opacity="0.2" d="M4 16C4 12.8211 5.26136 9.77205 7.5072 7.52222C9.75305 5.2724 12.7998 4.00563 15.9788 4C15.9731 7.17524 14.7093 10.2188 12.4641 12.4641C10.2188 14.7093 7.17524 15.9731 4 15.9788V16Z" fill="#1C1C1E"/>
<path opacity="0.2" d="M16.0215 28.0212C16.0215 24.8423 17.2828 21.7933 19.5287 19.5435C21.7745 17.2936 24.8213 16.0269 28.0002 16.0212C27.9946 19.1965 26.7308 22.2401 24.4855 24.4853C22.2403 26.7305 19.1967 27.9944 16.0215 28V28.0212Z" fill="#1C1C1E"/>
<path d="M16 28C22.6274 28 28 22.6274 28 16C28 9.37258 22.6274 4 16 4C9.37258 4 4 9.37258 4 16C4 22.6274 9.37258 28 16 28Z" stroke="#1C1C1E" stroke-width="2" stroke-linecap="round" stroke-linejoin="round"/>
<path d="M15.9788 4C15.9731 7.17524 14.7093 10.2188 12.4641 12.4641C10.2188 14.7093 7.17524 15.9731 4 15.9788" stroke="#1C1C1E" stroke-width="2" stroke-linecap="round" stroke-linejoin="round"/>
<path d="M28.0002 16.0212C24.825 16.0269 21.7814 17.2907 19.5362 19.5359C17.2909 21.7812 16.0271 24.8248 16.0215 28" stroke="#1C1C1E" stroke-width="2" stroke-linecap="round" stroke-linejoin="round"/>
</svg>
