<svg width="32" height="32" viewBox="0 0 32 32" fill="none" xmlns="http://www.w3.org/2000/svg">
<path opacity="0.2" d="M5 7H28C28.5304 7 29.0391 7.21071 29.4142 7.58579C29.7893 7.96086 30 8.46957 30 9V24C30 24.5304 29.7893 25.0391 29.4142 25.4142C29.0391 25.7893 28.5304 26 28 26H7C6.46957 26 5.96086 25.7893 5.58579 25.4142C5.21071 25.0391 5 24.5304 5 24V7Z" fill="#1C1C1E"/>
<path d="M5 7V22" stroke="#1C1C1E" stroke-width="2" stroke-linecap="round" stroke-linejoin="round"/>
<path d="M18 14.5H5" stroke="#1C1C1E" stroke-width="2" stroke-linecap="round" stroke-linejoin="round"/>
<path d="M18 7V22" stroke="#1C1C1E" stroke-width="2" stroke-linecap="round" stroke-linejoin="round"/>
<path d="M26.5 26C28.433 26 30 24.433 30 22.5C30 20.567 28.433 19 26.5 19C24.567 19 23 20.567 23 22.5C23 24.433 24.567 26 26.5 26Z" stroke="#1C1C1E" stroke-width="2" stroke-linecap="round" stroke-linejoin="round"/>
<path d="M23.4688 20.75L27.5 14" stroke="#1C1C1E" stroke-width="2" stroke-linecap="round" stroke-linejoin="round"/>
</svg>
