<svg width="32" height="32" viewBox="0 0 32 32" fill="none" xmlns="http://www.w3.org/2000/svg">
<path opacity="0.2" d="M9 21C9 23.7612 12.1337 26 16 26C19.8663 26 23 23.7612 23 21C23 14.3337 9.38875 16.8337 9.38875 11C9.38875 8.23875 12.1388 6 16 6C18.9 6 21.0463 7.205 22 9L9 21Z" fill="#1C1C1E"/>
<path d="M5 16H27" stroke="#1C1C1E" stroke-width="2" stroke-linecap="round" stroke-linejoin="round"/>
<path d="M9.54124 12C9.43794 11.6768 9.38647 11.3393 9.38874 11C9.38874 8.23875 12.1387 6 16 6C18.875 6 21.03 7.23375 22 9" stroke="#1C1C1E" stroke-width="2" stroke-linecap="round" stroke-linejoin="round"/>
<path d="M9 21C9 23.7613 12.1337 26 16 26C19.8663 26 23 23.7613 23 21C23 18.0287 20.2975 16.875 17.3 16" stroke="#1C1C1E" stroke-width="2" stroke-linecap="round" stroke-linejoin="round"/>
</svg>
