<svg width="32" height="32" viewBox="0 0 32 32" fill="none" xmlns="http://www.w3.org/2000/svg">
<path opacity="0.2" d="M19 17.25V6C19 4.93913 18.5786 3.92172 17.8284 3.17157C17.0783 2.42143 16.0609 2 15 2C13.9391 2 12.9217 2.42143 12.1716 3.17157C11.4214 3.92172 11 4.93913 11 6V17.25C9.77702 18.1016 8.85772 19.3212 8.37592 20.7315C7.89412 22.1417 7.87496 23.6689 8.32123 25.0908C8.7675 26.5126 9.6559 27.755 10.8571 28.637C12.0584 29.519 13.5097 29.9946 15 29.9946C16.4903 29.9946 17.9416 29.519 19.1429 28.637C20.3441 27.755 21.2325 26.5126 21.6788 25.0908C22.125 23.6689 22.1059 22.1417 21.6241 20.7315C21.1423 19.3212 20.223 18.1016 19 17.25ZM15 26C14.4067 26 13.8266 25.8241 13.3333 25.4944C12.8399 25.1648 12.4554 24.6962 12.2284 24.1481C12.0013 23.5999 11.9419 22.9967 12.0576 22.4147C12.1734 21.8328 12.4591 21.2982 12.8787 20.8787C13.2982 20.4591 13.8328 20.1734 14.4147 20.0576C14.9967 19.9419 15.5999 20.0013 16.1481 20.2284C16.6962 20.4554 17.1648 20.8399 17.4944 21.3333C17.8241 21.8266 18 22.4067 18 23C18 23.7956 17.6839 24.5587 17.1213 25.1213C16.5587 25.6839 15.7956 26 15 26Z" fill="#1C1C1E"/>
<path d="M15 20V15" stroke="#1C1C1E" stroke-width="2" stroke-linecap="round" stroke-linejoin="round"/>
<path d="M27 6V10" stroke="#1C1C1E" stroke-width="2" stroke-linecap="round" stroke-linejoin="round"/>
<path d="M23.1963 8.76379L27 10" stroke="#1C1C1E" stroke-width="2" stroke-linecap="round" stroke-linejoin="round"/>
<path d="M24.6484 13.2362L26.9997 10" stroke="#1C1C1E" stroke-width="2" stroke-linecap="round" stroke-linejoin="round"/>
<path d="M29.3512 13.2362L27 10" stroke="#1C1C1E" stroke-width="2" stroke-linecap="round" stroke-linejoin="round"/>
<path d="M30.8037 8.76379L27 10" stroke="#1C1C1E" stroke-width="2" stroke-linecap="round" stroke-linejoin="round"/>
<path d="M15 26C16.6569 26 18 24.6569 18 23C18 21.3431 16.6569 20 15 20C13.3431 20 12 21.3431 12 23C12 24.6569 13.3431 26 15 26Z" stroke="#1C1C1E" stroke-width="2" stroke-linecap="round" stroke-linejoin="round"/>
<path d="M11 6C11 4.93913 11.4214 3.92172 12.1716 3.17157C12.9217 2.42143 13.9391 2 15 2C16.0609 2 17.0783 2.42143 17.8284 3.17157C18.5786 3.92172 19 4.93913 19 6V17.25C20.223 18.1016 21.1423 19.3212 21.6241 20.7315C22.1059 22.1417 22.125 23.6689 21.6788 25.0908C21.2325 26.5126 20.3441 27.755 19.1429 28.637C17.9416 29.519 16.4903 29.9946 15 29.9946C13.5097 29.9946 12.0584 29.519 10.8571 28.637C9.6559 27.755 8.7675 26.5126 8.32123 25.0908C7.87496 23.6689 7.89412 22.1417 8.37592 20.7315C8.85772 19.3212 9.77702 18.1016 11 17.25V6Z" stroke="#1C1C1E" stroke-width="2" stroke-linecap="round" stroke-linejoin="round"/>
</svg>
