<svg width="32" height="32" viewBox="0 0 32 32" fill="none" xmlns="http://www.w3.org/2000/svg">
<path opacity="0.2" d="M20 17.25V6C20 4.93913 19.5786 3.92172 18.8284 3.17157C18.0783 2.42143 17.0609 2 16 2C14.9391 2 13.9217 2.42143 13.1716 3.17157C12.4214 3.92172 12 4.93913 12 6V17.25C10.777 18.1016 9.85772 19.3212 9.37592 20.7315C8.89412 22.1417 8.87496 23.6689 9.32123 25.0908C9.7675 26.5126 10.6559 27.755 11.8571 28.637C13.0584 29.519 14.5097 29.9946 16 29.9946C17.4903 29.9946 18.9416 29.519 20.1429 28.637C21.3441 27.755 22.2325 26.5126 22.6788 25.0908C23.125 23.6689 23.1059 22.1417 22.6241 20.7315C22.1423 19.3212 21.223 18.1016 20 17.25ZM16 26C15.4067 26 14.8266 25.8241 14.3333 25.4944C13.8399 25.1648 13.4554 24.6962 13.2284 24.1481C13.0013 23.5999 12.9419 22.9967 13.0576 22.4147C13.1734 21.8328 13.4591 21.2982 13.8787 20.8787C14.2982 20.4591 14.8328 20.1734 15.4147 20.0576C15.9967 19.9419 16.5999 20.0013 17.1481 20.2284C17.6962 20.4554 18.1648 20.8399 18.4944 21.3333C18.8241 21.8266 19 22.4067 19 23C19 23.7956 18.6839 24.5587 18.1213 25.1213C17.5587 25.6839 16.7956 26 16 26Z" fill="#1C1C1E"/>
<path d="M16 20V11" stroke="#1C1C1E" stroke-width="2" stroke-linecap="round" stroke-linejoin="round"/>
<path d="M16 26C17.6569 26 19 24.6569 19 23C19 21.3431 17.6569 20 16 20C14.3431 20 13 21.3431 13 23C13 24.6569 14.3431 26 16 26Z" stroke="#1C1C1E" stroke-width="2" stroke-linecap="round" stroke-linejoin="round"/>
<path d="M12 6C12 4.93913 12.4214 3.92172 13.1716 3.17157C13.9217 2.42143 14.9391 2 16 2C17.0609 2 18.0783 2.42143 18.8284 3.17157C19.5786 3.92172 20 4.93913 20 6V17.25C21.223 18.1016 22.1423 19.3212 22.6241 20.7315C23.1059 22.1417 23.125 23.6689 22.6788 25.0908C22.2325 26.5126 21.3441 27.755 20.1429 28.637C18.9416 29.519 17.4903 29.9946 16 29.9946C14.5097 29.9946 13.0584 29.519 11.8571 28.637C10.6559 27.755 9.7675 26.5126 9.32123 25.0908C8.87496 23.6689 8.89412 22.1417 9.37592 20.7315C9.85772 19.3212 10.777 18.1016 12 17.25V6Z" stroke="#1C1C1E" stroke-width="2" stroke-linecap="round" stroke-linejoin="round"/>
</svg>
