<svg width="32" height="32" viewBox="0 0 32 32" fill="none" xmlns="http://www.w3.org/2000/svg">
<path opacity="0.2" d="M6.00092 6.9999L1.00095 11.9999L6.00092 16.9999L11.0009 11.9999L6.00092 6.9999Z" fill="#1C1C1E"/>
<path opacity="0.2" d="M16.0006 6.9999L11.0006 11.9999L16.0006 16.9999L21.0006 11.9999L16.0006 6.9999Z" fill="#1C1C1E"/>
<path opacity="0.2" d="M16.0006 16.9996L11.0006 21.9996L16.0006 26.9995L21.0006 21.9996L16.0006 16.9996Z" fill="#1C1C1E"/>
<path opacity="0.2" d="M26.0003 7.00015L21.0003 12.0001L26.0003 17.0001L31.0003 12.0001L26.0003 7.00015Z" fill="#1C1C1E"/>
<path d="M6.00092 6.9999L1.00095 11.9999L6.00092 16.9999L11.0009 11.9999L6.00092 6.9999Z" stroke="#1C1C1E" stroke-width="2" stroke-linecap="round" stroke-linejoin="round"/>
<path d="M16.0006 6.9999L11.0006 11.9999L16.0006 16.9999L21.0006 11.9999L16.0006 6.9999Z" stroke="#1C1C1E" stroke-width="2" stroke-linecap="round" stroke-linejoin="round"/>
<path d="M16.0006 16.9996L11.0006 21.9996L16.0006 26.9995L21.0006 21.9996L16.0006 16.9996Z" stroke="#1C1C1E" stroke-width="2" stroke-linecap="round" stroke-linejoin="round"/>
<path d="M26.0003 7.00015L21.0003 12.0001L26.0003 17.0001L31.0003 12.0001L26.0003 7.00015Z" stroke="#1C1C1E" stroke-width="2" stroke-linecap="round" stroke-linejoin="round"/>
</svg>
