<svg width="32" height="32" viewBox="0 0 32 32" fill="none" xmlns="http://www.w3.org/2000/svg">
<path opacity="0.2" d="M5.00002 9.97001C4.99127 18.8975 7.93502 26 10.5 27.8175C10.645 27.9175 10.8138 27.9774 10.9894 27.9912C11.165 28.005 11.3411 27.9722 11.4999 27.8961C11.6587 27.8199 11.7946 27.7032 11.8938 27.5578C11.9931 27.4123 12.0521 27.2431 12.065 27.0675C12.25 24.5388 13 20 16 20C19 20 19.75 24.5388 19.9388 27.0663C19.9517 27.2419 20.0107 27.411 20.11 27.5565C20.2092 27.702 20.3451 27.8187 20.5039 27.8948C20.6627 27.9709 20.8388 28.0037 21.0144 27.9899C21.19 27.9762 21.3588 27.9162 21.5038 27.8163C24.065 25.9975 27.0038 18.8963 27.0038 9.96876C26.9975 8.38162 26.3618 6.8618 25.2362 5.74279C24.1107 4.62379 22.5872 3.99702 21 4.00001H11C9.4133 3.99801 7.89056 4.6254 6.76577 5.74456C5.64098 6.86373 5.00598 8.3833 5.00002 9.97001Z" fill="#1C1C1E"/>
<path d="M11 8L21 12" stroke="#1C1C1E" stroke-width="2" stroke-linecap="round" stroke-linejoin="round"/>
<path d="M21 8L11 12" stroke="#1C1C1E" stroke-width="2" stroke-linecap="round" stroke-linejoin="round"/>
<path d="M5.00002 9.97001C4.99127 18.8975 7.93502 26 10.5 27.8175C10.645 27.9175 10.8138 27.9774 10.9894 27.9912C11.165 28.005 11.3411 27.9722 11.4999 27.8961C11.6587 27.8199 11.7946 27.7032 11.8938 27.5578C11.9931 27.4123 12.0521 27.2431 12.065 27.0675C12.25 24.5388 13 20 16 20C19 20 19.75 24.5388 19.9388 27.0663C19.9517 27.2419 20.0107 27.411 20.11 27.5565C20.2092 27.702 20.3451 27.8187 20.5039 27.8948C20.6627 27.9709 20.8388 28.0037 21.0144 27.9899C21.19 27.9762 21.3588 27.9162 21.5038 27.8163C24.065 25.9975 27.0038 18.8963 27.0038 9.96876C26.9975 8.38162 26.3618 6.8618 25.2362 5.74279C24.1107 4.62379 22.5872 3.99702 21 4.00001H11C9.4133 3.99801 7.89056 4.6254 6.76577 5.74456C5.64098 6.86373 5.00598 8.3833 5.00002 9.97001Z" stroke="#1C1C1E" stroke-width="2" stroke-linecap="round" stroke-linejoin="round"/>
</svg>
