<svg width="32" height="32" viewBox="0 0 32 32" fill="none" xmlns="http://www.w3.org/2000/svg">
<path opacity="0.2" d="M26.2085 26H5.79096C5.54517 26.0001 5.30784 25.9102 5.12366 25.7475C4.93948 25.5847 4.82115 25.3602 4.79096 25.1163L3.00971 10.1163C2.99324 9.97553 3.00686 9.83289 3.04968 9.69781C3.09251 9.56273 3.16355 9.43829 3.2581 9.33274C3.35266 9.2272 3.46856 9.14295 3.59814 9.08559C3.72772 9.02823 3.86801 8.99906 4.00971 9.00002H27.9897C28.1314 8.99906 28.2717 9.02823 28.4013 9.08559C28.5309 9.14295 28.6468 9.2272 28.7413 9.33274C28.8359 9.43829 28.9069 9.56273 28.9497 9.69781C28.9926 9.83289 29.0062 9.97553 28.9897 10.1163L27.2085 25.1163C27.1783 25.3602 27.0599 25.5847 26.8758 25.7475C26.6916 25.9102 26.4543 26.0001 26.2085 26Z" fill="#1C1C1E"/>
<path d="M26.2085 26H5.79096C5.54517 26.0001 5.30784 25.9102 5.12366 25.7475C4.93948 25.5847 4.82115 25.3602 4.79096 25.1163L3.00971 10.1163C2.99324 9.97553 3.00686 9.83289 3.04968 9.69781C3.09251 9.56273 3.16355 9.43829 3.2581 9.33274C3.35266 9.2272 3.46856 9.14295 3.59814 9.08559C3.72772 9.02823 3.86801 8.99906 4.00971 9.00002H27.9897C28.1314 8.99906 28.2717 9.02823 28.4013 9.08559C28.5309 9.14295 28.6468 9.2272 28.7413 9.33274C28.8359 9.43829 28.9069 9.56273 28.9497 9.69781C28.9926 9.83289 29.0062 9.97553 28.9897 10.1163L27.2085 25.1163C27.1783 25.3602 27.0599 25.5847 26.8758 25.7475C26.6916 25.9102 26.4543 26.0001 26.2085 26Z" stroke="#1C1C1E" stroke-width="2" stroke-linecap="round" stroke-linejoin="round"/>
<path d="M11 9V8C11 6.67392 11.5268 5.40215 12.4645 4.46447C13.4021 3.52678 14.6739 3 16 3C17.3261 3 18.5979 3.52678 19.5355 4.46447C20.4732 5.40215 21 6.67392 21 8V9" stroke="#1C1C1E" stroke-width="2" stroke-linecap="round" stroke-linejoin="round"/>
</svg>
