<svg width="32" height="32" viewBox="0 0 32 32" fill="none" xmlns="http://www.w3.org/2000/svg">
<path opacity="0.2" d="M23 4H9C8.73478 4 8.48043 4.10536 8.29289 4.29289C8.10536 4.48043 8 4.73478 8 5V27C8 27.2652 8.10536 27.5196 8.29289 27.7071C8.48043 27.8946 8.73478 28 9 28H23C23.2652 28 23.5196 27.8946 23.7071 27.7071C23.8946 27.5196 24 27.2652 24 27V5C24 4.73478 23.8946 4.48043 23.7071 4.29289C23.5196 4.10536 23.2652 4 23 4ZM16 24C15.4067 24 14.8266 23.8241 14.3333 23.4944C13.8399 23.1648 13.4554 22.6962 13.2284 22.1481C13.0013 21.5999 12.9419 20.9967 13.0576 20.4147C13.1734 19.8328 13.4591 19.2982 13.8787 18.8787C14.2982 18.4591 14.8328 18.1734 15.4147 18.0576C15.9967 17.9419 16.5999 18.0013 17.1481 18.2284C17.6962 18.4554 18.1648 18.8399 18.4944 19.3333C18.8241 19.8266 19 20.4067 19 21C19 21.7956 18.6839 22.5587 18.1213 23.1213C17.5587 23.6839 16.7956 24 16 24ZM16 14C15.4067 14 14.8266 13.8241 14.3333 13.4944C13.8399 13.1648 13.4554 12.6962 13.2284 12.1481C13.0013 11.5999 12.9419 10.9967 13.0576 10.4147C13.1734 9.83279 13.4591 9.29824 13.8787 8.87868C14.2982 8.45912 14.8328 8.1734 15.4147 8.05764C15.9967 7.94189 16.5999 8.0013 17.1481 8.22836C17.6962 8.45542 18.1648 8.83994 18.4944 9.33329C18.8241 9.82664 19 10.4067 19 11C19 11.7956 18.6839 12.5587 18.1213 13.1213C17.5587 13.6839 16.7956 14 16 14Z" fill="#1C1C1E"/>
<path d="M23 4H9C8.44772 4 8 4.44772 8 5V27C8 27.5523 8.44772 28 9 28H23C23.5523 28 24 27.5523 24 27V5C24 4.44772 23.5523 4 23 4Z" stroke="#1C1C1E" stroke-width="2" stroke-linecap="round" stroke-linejoin="round"/>
<path d="M16 14C17.6569 14 19 12.6569 19 11C19 9.34315 17.6569 8 16 8C14.3431 8 13 9.34315 13 11C13 12.6569 14.3431 14 16 14Z" stroke="#1C1C1E" stroke-width="2" stroke-linecap="round" stroke-linejoin="round"/>
<path d="M16 24C17.6569 24 19 22.6569 19 21C19 19.3431 17.6569 18 16 18C14.3431 18 13 19.3431 13 21C13 22.6569 14.3431 24 16 24Z" stroke="#1C1C1E" stroke-width="2" stroke-linecap="round" stroke-linejoin="round"/>
<path d="M24 9H27" stroke="#1C1C1E" stroke-width="2" stroke-linecap="round" stroke-linejoin="round"/>
<path d="M24 19H27" stroke="#1C1C1E" stroke-width="2" stroke-linecap="round" stroke-linejoin="round"/>
<path d="M5 9H8" stroke="#1C1C1E" stroke-width="2" stroke-linecap="round" stroke-linejoin="round"/>
<path d="M5 19H8" stroke="#1C1C1E" stroke-width="2" stroke-linecap="round" stroke-linejoin="round"/>
</svg>
