<svg width="32" height="32" viewBox="0 0 32 32" fill="none" xmlns="http://www.w3.org/2000/svg">
<path opacity="0.2" d="M6 7C6 6.20435 6.31607 5.44129 6.87868 4.87868C7.44129 4.31607 8.20435 4 9 4H23C23.7956 4 24.5587 4.31607 25.1213 4.87868C25.6839 5.44129 26 6.20435 26 7V16H6V7Z" fill="#1C1C1E"/>
<path d="M12 26L9 30" stroke="#1C1C1E" stroke-width="2" stroke-linecap="round" stroke-linejoin="round"/>
<path d="M20 26L23 30" stroke="#1C1C1E" stroke-width="2" stroke-linecap="round" stroke-linejoin="round"/>
<path d="M6 16H26" stroke="#1C1C1E" stroke-width="2" stroke-linecap="round" stroke-linejoin="round"/>
<path d="M23 4H9C7.34315 4 6 5.34315 6 7V23C6 24.6569 7.34315 26 9 26H23C24.6569 26 26 24.6569 26 23V7C26 5.34315 24.6569 4 23 4Z" stroke="#1C1C1E" stroke-width="2" stroke-linecap="round" stroke-linejoin="round"/>
<path d="M10.5 23C11.3284 23 12 22.3284 12 21.5C12 20.6716 11.3284 20 10.5 20C9.67157 20 9 20.6716 9 21.5C9 22.3284 9.67157 23 10.5 23Z" fill="#1C1C1E"/>
<path d="M21.5 23C22.3284 23 23 22.3284 23 21.5C23 20.6716 22.3284 20 21.5 20C20.6716 20 20 20.6716 20 21.5C20 22.3284 20.6716 23 21.5 23Z" fill="#1C1C1E"/>
</svg>
