<svg width="32" height="32" viewBox="0 0 32 32" fill="none" xmlns="http://www.w3.org/2000/svg">
<path opacity="0.2" d="M18 23H28L23 13L18 23Z" fill="#1C1C1E"/>
<path opacity="0.2" d="M12 15.945C10.7401 14.8205 9.73239 13.4421 9.043 11.9004C8.35362 10.3588 7.99817 8.68876 8.00001 7H16C16.0018 8.68876 15.6464 10.3588 14.957 11.9004C14.2676 13.4421 13.2599 14.8205 12 15.945Z" fill="#1C1C1E"/>
<path d="M29.9961 27L22.9961 13L15.9961 27" stroke="#1C1C1E" stroke-width="2" stroke-linecap="round" stroke-linejoin="round"/>
<path d="M17.9961 23H27.9961" stroke="#1C1C1E" stroke-width="2" stroke-linecap="round" stroke-linejoin="round"/>
<path d="M11.9961 4V7" stroke="#1C1C1E" stroke-width="2" stroke-linecap="round" stroke-linejoin="round"/>
<path d="M3.99609 7H19.9961" stroke="#1C1C1E" stroke-width="2" stroke-linecap="round" stroke-linejoin="round"/>
<path d="M16 7C16 10.1826 14.7357 13.2348 12.4853 15.4853C10.2348 17.7357 7.1826 19 4 19" stroke="#1C1C1E" stroke-width="2" stroke-linecap="round" stroke-linejoin="round"/>
<path d="M8.67969 11C9.50722 13.3406 11.0403 15.367 13.0678 16.7998C15.0952 18.2326 17.5171 19.0013 19.9997 19" stroke="#1C1C1E" stroke-width="2" stroke-linecap="round" stroke-linejoin="round"/>
</svg>
