<svg width="32" height="32" viewBox="0 0 32 32" fill="none" xmlns="http://www.w3.org/2000/svg">
<path opacity="0.2" d="M9.585 20C9.71636 19.9999 9.84645 20.0257 9.96785 20.0759C10.0892 20.1261 10.1996 20.1997 10.2925 20.2925L12.7063 22.7075C12.7992 22.8003 12.9095 22.8739 13.0309 22.9241C13.1523 22.9743 13.2824 23.0001 13.4137 23H18.585C18.7164 23.0001 18.8465 22.9743 18.9678 22.9241C19.0892 22.8739 19.1996 22.8003 19.2925 22.7075L21.7062 20.2925C21.7992 20.1997 21.9095 20.1261 22.0309 20.0759C22.1523 20.0257 22.2824 19.9999 22.4137 20H27V6C27 5.73478 26.8946 5.48043 26.7071 5.29289C26.5196 5.10536 26.2652 5 26 5H6C5.73478 5 5.48043 5.10536 5.29289 5.29289C5.10536 5.48043 5 5.73478 5 6V20H9.585Z" fill="#1C1C1E"/>
<path d="M26 5H6C5.44772 5 5 5.44772 5 6V26C5 26.5523 5.44772 27 6 27H26C26.5523 27 27 26.5523 27 26V6C27 5.44772 26.5523 5 26 5Z" stroke="#1C1C1E" stroke-width="2" stroke-linecap="round" stroke-linejoin="round"/>
<path d="M16 9V19" stroke="#1C1C1E" stroke-width="2" stroke-linecap="round" stroke-linejoin="round"/>
<path d="M5 20H9.58625C9.85111 20.0001 10.1051 20.1053 10.2925 20.2925L12.7075 22.7075C12.8949 22.8947 13.1489 22.9999 13.4137 23H18.5863C18.8511 22.9999 19.1051 22.8947 19.2925 22.7075L21.7075 20.2925C21.8949 20.1053 22.1489 20.0001 22.4137 20H27" stroke="#1C1C1E" stroke-width="2" stroke-linecap="round" stroke-linejoin="round"/>
<path d="M12 13L16 9L20 13" stroke="#1C1C1E" stroke-width="2" stroke-linecap="round" stroke-linejoin="round"/>
</svg>
