<svg width="32" height="32" viewBox="0 0 32 32" fill="none" xmlns="http://www.w3.org/2000/svg">
<path opacity="0.2" d="M17.8014 5.0275L28.7339 24.0112C29.5001 25.3487 28.5101 27 26.9326 27H5.06763C3.49013 27 2.50013 25.3487 3.26638 24.0112L14.1989 5.0275C14.9864 3.6575 17.0139 3.6575 17.8014 5.0275Z" fill="#1C1C1E"/>
<path d="M19 27H13" stroke="#1C1C1E" stroke-width="2" stroke-linecap="round" stroke-linejoin="round"/>
<path d="M28.1513 23L28.7337 24.0112C29.5 25.3487 28.51 27 26.9325 27H24" stroke="#1C1C1E" stroke-width="2" stroke-linecap="round" stroke-linejoin="round"/>
<path d="M8.00012 27H5.06763C3.49013 27 2.50013 25.3487 3.26638 24.0112L3.84888 23" stroke="#1C1C1E" stroke-width="2" stroke-linecap="round" stroke-linejoin="round"/>
<path d="M22.3926 13L25.2726 18" stroke="#1C1C1E" stroke-width="2" stroke-linecap="round" stroke-linejoin="round"/>
<path d="M12.4863 7.99984L14.1988 5.02734C14.9863 3.65234 17.0138 3.65234 17.8013 5.02734L19.5138 7.99984" stroke="#1C1C1E" stroke-width="2" stroke-linecap="round" stroke-linejoin="round"/>
<path d="M6.72754 18L9.60754 13" stroke="#1C1C1E" stroke-width="2" stroke-linecap="round" stroke-linejoin="round"/>
</svg>
