<svg width="32" height="32" viewBox="0 0 32 32" fill="none" xmlns="http://www.w3.org/2000/svg">
<path opacity="0.2" d="M11 17C11 8.00002 16 4.00002 16 4.00002C12.7346 3.99461 9.58616 5.21588 7.1785 7.4219C4.77084 9.62792 3.27955 12.6578 3.00004 15.9113C2.98769 16.0499 3.0044 16.1895 3.04909 16.3213C3.09379 16.453 3.16549 16.574 3.25961 16.6765C3.35373 16.779 3.46819 16.8607 3.59569 16.9164C3.72319 16.9721 3.86091 17.0006 4.00004 17H11Z" fill="#1C1C1E"/>
<path opacity="0.2" d="M16 4.00002C16 4.00002 21 8.00002 21 17H28C28.1391 17.0006 28.2769 16.9721 28.4044 16.9164C28.5318 16.8607 28.6463 16.779 28.7404 16.6765C28.8346 16.574 28.9063 16.453 28.9509 16.3213C28.9956 16.1895 29.0123 16.0499 29 15.9113C28.7205 12.6578 27.2292 9.62792 24.8215 7.4219C22.4139 5.21588 19.2655 3.99461 16 4.00002Z" fill="#1C1C1E"/>
<path d="M22 25C22 25.7956 21.6839 26.5587 21.1213 27.1213C20.5587 27.6839 19.7956 28 19 28C18.2044 28 17.4413 27.6839 16.8787 27.1213C16.3161 26.5587 16 25.7956 16 25V17" stroke="#1C1C1E" stroke-width="2" stroke-linecap="round" stroke-linejoin="round"/>
<path d="M4.00004 17C3.86091 17.0005 3.72319 16.9721 3.59569 16.9163C3.46819 16.8606 3.35373 16.7789 3.25961 16.6765C3.16549 16.574 3.09379 16.453 3.04909 16.3212C3.0044 16.1895 2.98769 16.0498 3.00004 15.9112C3.2854 12.6612 4.77813 9.63604 7.18387 7.43228C9.58961 5.22851 12.7338 4.0061 15.9963 4.0061C19.2588 4.0061 22.403 5.22851 24.8087 7.43228C27.2145 9.63604 28.7072 12.6612 28.9925 15.9112C29.0049 16.0498 28.9882 16.1895 28.9435 16.3212C28.8988 16.453 28.8271 16.574 28.733 16.6765C28.6389 16.7789 28.5244 16.8606 28.3969 16.9163C28.2694 16.9721 28.1317 17.0005 27.9925 17H4.00004Z" stroke="#1C1C1E" stroke-width="2" stroke-linecap="round" stroke-linejoin="round"/>
<path d="M11 17C11 8 16 4 16 4C16 4 21 8 21 17" stroke="#1C1C1E" stroke-width="2" stroke-linecap="round" stroke-linejoin="round"/>
</svg>
