<svg width="32" height="32" viewBox="0 0 32 32" fill="none" xmlns="http://www.w3.org/2000/svg">
<path opacity="0.2" d="M20.9497 11.0497C20.7703 9.36016 20.1163 7.75593 19.0634 6.4225C18.0105 5.08907 16.6016 4.08092 14.9997 3.51463C13.3979 2.94833 11.6684 2.84704 10.0114 3.22245C8.35435 3.59786 6.83743 4.43465 5.63604 5.63604C4.43465 6.83743 3.59786 8.35435 3.22245 10.0114C2.84704 11.6684 2.94833 13.3979 3.51463 14.9997C4.08092 16.6016 5.08907 18.0105 6.4225 19.0634C7.75593 20.1163 9.36016 20.7703 11.0497 20.9497C11.2291 22.6392 11.8831 24.2435 12.936 25.5769C13.9889 26.9103 15.3978 27.9185 16.9996 28.4848C18.6015 29.051 20.331 29.1523 21.988 28.7769C23.645 28.4015 25.1619 27.5647 26.3633 26.3633C27.5647 25.1619 28.4015 23.645 28.7769 21.988C29.1523 20.331 29.051 18.6015 28.4848 16.9996C27.9185 15.3978 26.9103 13.9889 25.5769 12.936C24.2435 11.8831 22.6392 11.2291 20.9497 11.0497Z" fill="#1C1C1E"/>
<path d="M12 21C16.9706 21 21 16.9706 21 12C21 7.02944 16.9706 3 12 3C7.02944 3 3 7.02944 3 12C3 16.9706 7.02944 21 12 21Z" stroke="#1C1C1E" stroke-width="2" stroke-linecap="round" stroke-linejoin="round"/>
<path d="M20 29C24.9706 29 29 24.9706 29 20C29 15.0294 24.9706 11 20 11C15.0294 11 11 15.0294 11 20C11 24.9706 15.0294 29 20 29Z" stroke="#1C1C1E" stroke-width="2" stroke-linecap="round" stroke-linejoin="round"/>
</svg>
