<svg width="32" height="32" viewBox="0 0 32 32" fill="none" xmlns="http://www.w3.org/2000/svg">
<path opacity="0.2" d="M17 11C18.6569 11 20 9.65685 20 8C20 6.34315 18.6569 5 17 5C15.3431 5 14 6.34315 14 8C14 9.65685 15.3431 11 17 11Z" fill="#1C1C1E"/>
<path opacity="0.2" d="M25 12V20L31 16L25 12Z" fill="#1C1C1E"/>
<path opacity="0.2" d="M19 21H15C14.4477 21 14 21.4477 14 22V26C14 26.5523 14.4477 27 15 27H19C19.5523 27 20 26.5523 20 26V22C20 21.4477 19.5523 21 19 21Z" fill="#1C1C1E"/>
<path d="M17 11C18.6569 11 20 9.65685 20 8C20 6.34315 18.6569 5 17 5C15.3431 5 14 6.34315 14 8C14 9.65685 15.3431 11 17 11Z" stroke="#1C1C1E" stroke-width="2" stroke-linecap="round" stroke-linejoin="round"/>
<path d="M1 16H25" stroke="#1C1C1E" stroke-width="2" stroke-linecap="round" stroke-linejoin="round"/>
<path d="M25 12V20L31 16L25 12Z" stroke="#1C1C1E" stroke-width="2" stroke-linecap="round" stroke-linejoin="round"/>
<path d="M19 21H15C14.4477 21 14 21.4477 14 22V26C14 26.5523 14.4477 27 15 27H19C19.5523 27 20 26.5523 20 26V22C20 21.4477 19.5523 21 19 21Z" stroke="#1C1C1E" stroke-width="2" stroke-linecap="round" stroke-linejoin="round"/>
<path d="M14 8H9C8.73478 8 8.48043 8.10536 8.29289 8.29289C8.10536 8.48043 8 8.73478 8 9V23C8 23.2652 8.10536 23.5196 8.29289 23.7071C8.48043 23.8946 8.73478 24 9 24H14" stroke="#1C1C1E" stroke-width="2" stroke-linecap="round" stroke-linejoin="round"/>
</svg>
