<svg width="33" height="32" viewBox="0 0 33 32" fill="none" xmlns="http://www.w3.org/2000/svg">
<path opacity="0.2" d="M13.5 20C17.6421 20 21 16.6421 21 12.5C21 8.35786 17.6421 5 13.5 5C9.35786 5 6 8.35786 6 12.5C6 16.6421 9.35786 20 13.5 20Z" fill="#1C1C1E"/>
<path d="M13.5 20C17.6421 20 21 16.6421 21 12.5C21 8.35786 17.6421 5 13.5 5C9.35786 5 6 8.35786 6 12.5C6 16.6421 9.35786 20 13.5 20Z" stroke="#1C1C1E" stroke-width="2" stroke-linecap="round" stroke-linejoin="round"/>
<path d="M3 25C5.56875 21.9437 9.195 20 13.5 20C17.805 20 21.4313 21.9437 24 25" stroke="#1C1C1E" stroke-width="2" stroke-linecap="round" stroke-linejoin="round"/>
<path d="M28 19C29.1046 19 30 18.1046 30 17C30 15.8954 29.1046 15 28 15C26.8954 15 26 15.8954 26 17C26 18.1046 26.8954 19 28 19Z" stroke="#1C1C1E" stroke-width="2" stroke-linecap="round" stroke-linejoin="round"/>
<path d="M28 15V13.5" stroke="#1C1C1E" stroke-width="2" stroke-linecap="round" stroke-linejoin="round"/>
<path d="M26.2675 16L24.9688 15.25" stroke="#1C1C1E" stroke-width="2" stroke-linecap="round" stroke-linejoin="round"/>
<path d="M26.2675 18L24.9688 18.75" stroke="#1C1C1E" stroke-width="2" stroke-linecap="round" stroke-linejoin="round"/>
<path d="M28 19V20.5" stroke="#1C1C1E" stroke-width="2" stroke-linecap="round" stroke-linejoin="round"/>
<path d="M29.7324 18L31.0312 18.75" stroke="#1C1C1E" stroke-width="2" stroke-linecap="round" stroke-linejoin="round"/>
<path d="M29.7324 16L31.0312 15.25" stroke="#1C1C1E" stroke-width="2" stroke-linecap="round" stroke-linejoin="round"/>
</svg>
