<svg width="32" height="32" viewBox="0 0 32 32" fill="none" xmlns="http://www.w3.org/2000/svg">
<path opacity="0.2" d="M25.6636 8.88539C25.3082 9.0099 24.9248 9.03152 24.5577 8.94779C24.1905 8.86405 23.8545 8.67836 23.5882 8.41207C23.3219 8.14578 23.1362 7.80972 23.0525 7.44256C22.9687 7.0754 22.9903 6.69205 23.1149 6.33664C20.6339 4.50689 17.5439 3.7021 14.4856 4.08913C11.4273 4.47616 8.63525 6.02532 6.68833 8.41541C4.7414 10.8055 3.78896 13.8532 4.02849 16.9266C4.26802 20 5.68113 22.8633 7.97485 24.9229C8.72769 23.4415 9.87594 22.1975 11.2924 21.3287C12.7088 20.4598 14.3382 20.0001 15.9999 20.0004C15.0109 20.0004 14.0442 19.7071 13.222 19.1577C12.3998 18.6083 11.7589 17.8274 11.3805 16.9138C11.002 16.0002 10.903 14.9948 11.0959 14.0249C11.2888 13.055 11.7651 12.1641 12.4643 11.4649C13.1636 10.7656 14.0545 10.2894 15.0244 10.0965C15.9943 9.90354 16.9996 10.0026 17.9133 10.381C18.8269 10.7594 19.6078 11.4003 20.1572 12.2225C20.7066 13.0448 20.9999 14.0115 20.9999 15.0004C20.9999 16.3265 20.4731 17.5982 19.5354 18.5359C18.5977 19.4736 17.3259 20.0004 15.9999 20.0004C17.6614 20 19.2907 20.4595 20.7071 21.3281C22.1235 22.1967 23.2718 23.4405 24.0249 24.9216C26.2401 22.9291 27.6349 20.1837 27.9378 17.2196C28.2407 14.2556 27.43 11.2848 25.6636 8.88539Z" fill="#1C1C1E"/>
<path d="M25 5V3.5" stroke="#1C1C1E" stroke-width="2" stroke-linecap="round" stroke-linejoin="round"/>
<path d="M25 9C26.1046 9 27 8.10457 27 7C27 5.89543 26.1046 5 25 5C23.8954 5 23 5.89543 23 7C23 8.10457 23.8954 9 25 9Z" stroke="#1C1C1E" stroke-width="2" stroke-linecap="round" stroke-linejoin="round"/>
<path d="M23.2675 6L21.9688 5.25" stroke="#1C1C1E" stroke-width="2" stroke-linecap="round" stroke-linejoin="round"/>
<path d="M23.2675 8L21.9688 8.75" stroke="#1C1C1E" stroke-width="2" stroke-linecap="round" stroke-linejoin="round"/>
<path d="M25 9V10.5" stroke="#1C1C1E" stroke-width="2" stroke-linecap="round" stroke-linejoin="round"/>
<path d="M26.7324 8L28.0312 8.75" stroke="#1C1C1E" stroke-width="2" stroke-linecap="round" stroke-linejoin="round"/>
<path d="M26.7324 6L28.0312 5.25" stroke="#1C1C1E" stroke-width="2" stroke-linecap="round" stroke-linejoin="round"/>
<path d="M16 20C18.7614 20 21 17.7614 21 15C21 12.2386 18.7614 10 16 10C13.2386 10 11 12.2386 11 15C11 17.7614 13.2386 20 16 20Z" stroke="#1C1C1E" stroke-width="2" stroke-linecap="round" stroke-linejoin="round"/>
<path d="M7.97461 24.9209C8.727 23.4389 9.87506 22.1942 11.2915 21.3248C12.708 20.4553 14.3376 19.9951 15.9996 19.9951C17.6616 19.9951 19.2912 20.4553 20.7077 21.3248C22.1242 22.1942 23.2722 23.4389 24.0246 24.9209" stroke="#1C1C1E" stroke-width="2" stroke-linecap="round" stroke-linejoin="round"/>
<path d="M27.8342 14.0001C28.2561 16.5067 27.8704 19.0826 26.7328 21.3558C25.5953 23.629 23.7647 25.4818 21.5054 26.6468C19.2461 27.8117 16.6751 28.2285 14.1635 27.8369C11.6519 27.4453 9.32973 26.2656 7.53231 24.4682C5.73489 22.6708 4.55522 20.3486 4.16364 17.8371C3.77206 15.3255 4.18883 12.7544 5.35377 10.4951C6.51871 8.23585 8.37154 6.40526 10.6447 5.26769C12.9179 4.13011 15.4938 3.74442 18.0005 4.1663" stroke="#1C1C1E" stroke-width="2" stroke-linecap="round" stroke-linejoin="round"/>
</svg>
