<svg width="32" height="32" viewBox="0 0 32 32" fill="none" xmlns="http://www.w3.org/2000/svg">
<path opacity="0.2" d="M27 6H5C4.73478 6 4.48043 6.10536 4.29289 6.29289C4.10536 6.48043 4 6.73478 4 7V25C4 25.2652 4.10536 25.5196 4.29289 25.7071C4.48043 25.8946 4.73478 26 5 26H7.5125C8.13301 24.2449 9.28247 22.7255 10.8025 21.6509C12.3226 20.5763 14.1385 19.9995 16 20C15.0111 20 14.0444 19.7068 13.2221 19.1573C12.3999 18.6079 11.759 17.827 11.3806 16.9134C11.0022 15.9998 10.9031 14.9945 11.0961 14.0245C11.289 13.0546 11.7652 12.1637 12.4645 11.4645C13.1637 10.7652 14.0546 10.289 15.0245 10.0961C15.9945 9.90315 16.9998 10.0022 17.9134 10.3806C18.827 10.759 19.6079 11.3999 20.1573 12.2221C20.7068 13.0444 21 14.0111 21 15C21 16.3261 20.4732 17.5979 19.5355 18.5355C18.5979 19.4732 17.3261 20 16 20C17.8615 19.9995 19.6774 20.5763 21.1975 21.6509C22.7175 22.7255 23.867 24.2449 24.4875 26H27C27.2652 26 27.5196 25.8946 27.7071 25.7071C27.8946 25.5196 28 25.2652 28 25V7C28 6.73478 27.8946 6.48043 27.7071 6.29289C27.5196 6.10536 27.2652 6 27 6Z" fill="#1C1C1E"/>
<path d="M16 20C18.7614 20 21 17.7614 21 15C21 12.2386 18.7614 10 16 10C13.2386 10 11 12.2386 11 15C11 17.7614 13.2386 20 16 20Z" stroke="#1C1C1E" stroke-width="2" stroke-linecap="round" stroke-linejoin="round"/>
<path d="M27 6H5C4.44772 6 4 6.44772 4 7V25C4 25.5523 4.44772 26 5 26H27C27.5523 26 28 25.5523 28 25V7C28 6.44772 27.5523 6 27 6Z" stroke="#1C1C1E" stroke-width="2" stroke-linecap="round" stroke-linejoin="round"/>
<path d="M7.5127 26.0004C8.13216 24.2442 9.28117 22.7234 10.8013 21.6476C12.3215 20.5718 14.1379 19.9941 16.0002 19.9941C17.8625 19.9941 19.6789 20.5718 21.1991 21.6476C22.7192 22.7234 23.8682 24.2442 24.4877 26.0004" stroke="#1C1C1E" stroke-width="2" stroke-linecap="round" stroke-linejoin="round"/>
</svg>
