<svg width="32" height="32" viewBox="0 0 32 32" fill="none" xmlns="http://www.w3.org/2000/svg">
<path opacity="0.2" d="M15.9998 4C13.5722 3.99985 11.2016 4.73598 9.20113 6.11119C7.20064 7.48639 5.66428 9.43599 4.79492 11.7026C3.92555 13.9691 3.76407 16.4461 4.33179 18.8064C4.89952 21.1666 6.16974 23.2992 7.97475 24.9225C8.72759 23.4411 9.87584 22.1971 11.2923 21.3283C12.7087 20.4594 14.3381 19.9997 15.9998 20C15.0108 20 14.0441 19.7068 13.2219 19.1573C12.3997 18.6079 11.7588 17.827 11.3804 16.9134C11.0019 15.9998 10.9029 14.9945 11.0958 14.0245C11.2888 13.0546 11.765 12.1637 12.4642 11.4645C13.1635 10.7652 14.0544 10.289 15.0243 10.0961C15.9942 9.90315 16.9995 10.0022 17.9132 10.3806C18.8268 10.759 19.6077 11.3999 20.1571 12.2221C20.7065 13.0444 20.9998 14.0111 20.9998 15C20.9998 16.3261 20.473 17.5979 19.5353 18.5355C18.5976 19.4732 17.3258 20 15.9998 20C17.6613 19.9996 19.2906 20.4591 20.707 21.3277C22.1234 22.1964 23.2717 23.4401 24.0248 24.9212C25.8293 23.2979 27.0991 21.1654 27.6666 18.8053C28.234 16.4453 28.0724 13.9686 27.2031 11.7023C26.3338 9.43605 24.7977 7.48665 22.7975 6.11151C20.7973 4.73637 18.4271 4.00013 15.9998 4Z" fill="#1C1C1E"/>
<path d="M16 20C18.7614 20 21 17.7614 21 15C21 12.2386 18.7614 10 16 10C13.2386 10 11 12.2386 11 15C11 17.7614 13.2386 20 16 20Z" stroke="#1C1C1E" stroke-width="2" stroke-linecap="round" stroke-linejoin="round"/>
<path d="M13 4.37526C14.9674 3.8645 17.0326 3.8645 19 4.37526" stroke="#1C1C1E" stroke-width="2" stroke-linecap="round" stroke-linejoin="round"/>
<path d="M4.43652 12.7878C4.97822 10.8291 6.0108 9.04098 7.43652 7.59277" stroke="#1C1C1E" stroke-width="2" stroke-linecap="round" stroke-linejoin="round"/>
<path d="M19 27.625C17.0326 28.1358 14.9674 28.1358 13 27.625" stroke="#1C1C1E" stroke-width="2" stroke-linecap="round" stroke-linejoin="round"/>
<path d="M24.5635 7.59082C25.9896 9.03973 27.0222 10.8287 27.5635 12.7883" stroke="#1C1C1E" stroke-width="2" stroke-linecap="round" stroke-linejoin="round"/>
<path d="M27.5646 19.2129C26.9521 21.414 25.724 23.3945 24.0246 24.9216C23.2722 23.4397 22.1241 22.195 20.7076 21.3255C19.2912 20.4561 17.6616 19.9959 15.9996 19.9959C14.3375 19.9959 12.708 20.4561 11.2915 21.3255C9.87502 22.195 8.72696 23.4397 7.97457 24.9216C6.27517 23.3945 5.04705 21.414 4.43457 19.2129" stroke="#1C1C1E" stroke-width="2" stroke-linecap="round" stroke-linejoin="round"/>
</svg>
