<svg width="32" height="32" viewBox="0 0 32 32" fill="none" xmlns="http://www.w3.org/2000/svg">
<path opacity="0.2" d="M15.9998 4C13.5722 3.99985 11.2016 4.73598 9.20113 6.11119C7.20064 7.48639 5.66428 9.43599 4.79492 11.7026C3.92555 13.9691 3.76407 16.4461 4.33179 18.8064C4.89952 21.1666 6.16974 23.2992 7.97475 24.9225C8.72759 23.4411 9.87584 22.1971 11.2923 21.3283C12.7087 20.4594 14.3381 19.9997 15.9998 20C15.0108 20 14.0441 19.7068 13.2219 19.1573C12.3997 18.6079 11.7588 17.827 11.3804 16.9134C11.0019 15.9998 10.9029 14.9945 11.0958 14.0245C11.2888 13.0546 11.765 12.1637 12.4642 11.4645C13.1635 10.7652 14.0544 10.289 15.0243 10.0961C15.9942 9.90315 16.9995 10.0022 17.9132 10.3806C18.8268 10.759 19.6077 11.3999 20.1571 12.2221C20.7065 13.0444 20.9998 14.0111 20.9998 15C20.9998 16.3261 20.473 17.5979 19.5353 18.5355C18.5976 19.4732 17.3258 20 15.9998 20C17.6613 19.9996 19.2906 20.4591 20.707 21.3277C22.1234 22.1964 23.2717 23.4401 24.0248 24.9212C25.8293 23.2979 27.0991 21.1654 27.6666 18.8053C28.234 16.4453 28.0724 13.9686 27.2031 11.7023C26.3338 9.43605 24.7977 7.48665 22.7975 6.11151C20.7973 4.73637 18.4271 4.00013 15.9998 4Z" fill="#1C1C1E"/>
<path d="M16 20C18.7614 20 21 17.7614 21 15C21 12.2386 18.7614 10 16 10C13.2386 10 11 12.2386 11 15C11 17.7614 13.2386 20 16 20Z" stroke="#1C1C1E" stroke-width="2" stroke-linecap="round" stroke-linejoin="round"/>
<path d="M7.97461 24.9209C8.727 23.4389 9.87506 22.1942 11.2915 21.3248C12.708 20.4553 14.3376 19.9951 15.9996 19.9951C17.6616 19.9951 19.2912 20.4553 20.7077 21.3248C22.1242 22.1942 23.2722 23.4389 24.0246 24.9209" stroke="#1C1C1E" stroke-width="2" stroke-linecap="round" stroke-linejoin="round"/>
<path d="M25 16L28 19L31 16" stroke="#1C1C1E" stroke-width="2" stroke-linecap="round" stroke-linejoin="round"/>
<path d="M1 16L4 13L7 16" stroke="#1C1C1E" stroke-width="2" stroke-linecap="round" stroke-linejoin="round"/>
<path d="M4 13V16C3.99906 18.5406 4.8045 21.016 6.30033 23.0696C7.79615 25.1232 9.90517 26.6491 12.3236 27.4274C14.7421 28.2058 17.3452 28.1965 19.758 27.4008C22.1709 26.6052 24.2689 25.0643 25.75 23" stroke="#1C1C1E" stroke-width="2" stroke-linecap="round" stroke-linejoin="round"/>
<path d="M28 18.9996V15.9996C28.0009 13.459 27.1955 10.9836 25.6997 8.92997C24.2038 6.87636 22.0948 5.3505 19.6764 4.57214C17.2579 3.79378 14.6548 3.8031 12.242 4.59875C9.82913 5.3944 7.73109 6.93532 6.25 8.99958" stroke="#1C1C1E" stroke-width="2" stroke-linecap="round" stroke-linejoin="round"/>
</svg>
