<svg width="32" height="32" viewBox="0 0 32 32" fill="none" xmlns="http://www.w3.org/2000/svg">
<path opacity="0.2" d="M27 6H5C4.73478 6 4.48043 6.10536 4.29289 6.29289C4.10536 6.48043 4 6.73478 4 7V24C4 24.2652 4.10536 24.5196 4.29289 24.7071C4.48043 24.8946 4.73478 25 5 25H27C27.2652 25 27.5196 24.8946 27.7071 24.7071C27.8946 24.5196 28 24.2652 28 24V7C28 6.73478 27.8946 6.48043 27.7071 6.29289C27.5196 6.10536 27.2652 6 27 6ZM19 21C18.0111 21 17.0444 20.7068 16.2221 20.1573C15.3999 19.6079 14.759 18.827 14.3806 17.9134C14.0022 16.9998 13.9031 15.9945 14.0961 15.0245C14.289 14.0546 14.7652 13.1637 15.4645 12.4645C16.1637 11.7652 17.0546 11.289 18.0245 11.0961C18.9945 10.9031 19.9998 11.0022 20.9134 11.3806C21.827 11.759 22.6079 12.3999 23.1573 13.2221C23.7068 14.0444 24 15.0111 24 16C24 16.6566 23.8707 17.3068 23.6194 17.9134C23.3681 18.52 22.9998 19.0712 22.5355 19.5355C22.0712 19.9998 21.52 20.3681 20.9134 20.6194C20.3068 20.8707 19.6566 21 19 21Z" fill="#1C1C1E"/>
<path d="M24 25V28" stroke="#1C1C1E" stroke-width="2" stroke-linecap="round" stroke-linejoin="round"/>
<path d="M8 25V28" stroke="#1C1C1E" stroke-width="2" stroke-linecap="round" stroke-linejoin="round"/>
<path d="M27 6H5C4.44772 6 4 6.44772 4 7V24C4 24.5523 4.44772 25 5 25H27C27.5523 25 28 24.5523 28 24V7C28 6.44772 27.5523 6 27 6Z" stroke="#1C1C1E" stroke-width="2" stroke-linecap="round" stroke-linejoin="round"/>
<path d="M19 18C20.1046 18 21 17.1046 21 16C21 14.8954 20.1046 14 19 14C17.8954 14 17 14.8954 17 16C17 17.1046 17.8954 18 19 18Z" fill="#1C1C1E"/>
<path d="M19 16H28" stroke="#1C1C1E" stroke-width="2" stroke-linecap="round" stroke-linejoin="round"/>
<path d="M19 21C21.7614 21 24 18.7614 24 16C24 13.2386 21.7614 11 19 11C16.2386 11 14 13.2386 14 16C14 18.7614 16.2386 21 19 21Z" stroke="#1C1C1E" stroke-width="2" stroke-linecap="round" stroke-linejoin="round"/>
</svg>
