<svg width="32" height="32" viewBox="0 0 32 32" fill="none" xmlns="http://www.w3.org/2000/svg">
<path opacity="0.2" d="M27 6H5C4.73478 6 4.48043 6.10536 4.29289 6.29289C4.10536 6.48043 4 6.73478 4 7V21C4 21.2652 4.10536 21.5196 4.29289 21.7071C4.48043 21.8946 4.73478 22 5 22H27C27.2652 22 27.5196 21.8946 27.7071 21.7071C27.8946 21.5196 28 21.2652 28 21V7C28 6.73478 27.8946 6.48043 27.7071 6.29289C27.5196 6.10536 27.2652 6 27 6ZM14 18V10L20 14L14 18Z" fill="#1C1C1E"/>
<path d="M20 14L14 10V18L20 14Z" stroke="#1C1C1E" stroke-width="2" stroke-linecap="round" stroke-linejoin="round"/>
<path d="M27 6H5C4.44772 6 4 6.44772 4 7V21C4 21.5523 4.44772 22 5 22H27C27.5523 22 28 21.5523 28 21V7C28 6.44772 27.5523 6 27 6Z" stroke="#1C1C1E" stroke-width="2" stroke-linecap="round" stroke-linejoin="round"/>
<path d="M4 26H28" stroke="#1C1C1E" stroke-width="2" stroke-linecap="round" stroke-linejoin="round"/>
</svg>
