<svg width="33" height="32" viewBox="0 0 33 32" fill="none" xmlns="http://www.w3.org/2000/svg">
<path opacity="0.2" d="M14.1124 21.6813C12.6361 22.905 10.7136 24.0888 8.62614 23.9913C6.538 23.8936 4.57105 22.9824 3.14621 21.4528C1.72138 19.9232 0.951858 17.8966 1.00234 15.8068C1.05281 13.717 1.91928 11.73 3.4163 10.2709C4.91332 8.81189 6.92197 7.99677 9.01239 8.00001H22.8936C27.2899 8.00001 30.9549 11.5 31.0111 15.8938C31.0252 16.9531 30.8287 18.0048 30.4331 18.9876C30.0374 19.9704 29.4505 20.8648 28.7063 21.619C27.9622 22.3731 27.0757 22.9719 26.0982 23.3807C25.1208 23.7894 24.0719 23.9999 23.0124 24C21.0774 24 19.3024 22.8313 17.9186 21.6875C17.3838 21.2443 16.7113 21.0013 16.0166 21.0001C15.322 20.999 14.6487 21.2398 14.1124 21.6813Z" fill="#1C1C1E"/>
<path d="M14.1124 21.6813C12.6361 22.905 10.7136 24.0888 8.62614 23.9913C6.53801 23.8936 4.57105 22.9824 3.14621 21.4528C1.72138 19.9232 0.951858 17.8966 1.00234 15.8068C1.05281 13.717 1.91928 11.73 3.4163 10.2709C4.91332 8.81189 6.92197 7.99677 9.01239 8.00001H22.8936C27.2899 8.00001 30.9549 11.5 31.0111 15.8938C31.0252 16.9531 30.8287 18.0048 30.4331 18.9876C30.0374 19.9704 29.4505 20.8648 28.7063 21.619C27.9622 22.3731 27.0757 22.9719 26.0982 23.3807C25.1208 23.7894 24.0719 23.9999 23.0124 24C21.0774 24 19.3024 22.8313 17.9186 21.6875C17.3838 21.2443 16.7113 21.0013 16.0166 21.0001C15.322 20.999 14.6487 21.2398 14.1124 21.6813Z" stroke="#1C1C1E" stroke-width="2" stroke-linecap="round" stroke-linejoin="round"/>
<path d="M10.0127 12H22.0127" stroke="#1C1C1E" stroke-width="2" stroke-linecap="round" stroke-linejoin="round"/>
</svg>
