<svg width="32" height="32" viewBox="0 0 32 32" fill="none" xmlns="http://www.w3.org/2000/svg">
<path opacity="0.2" d="M16 4C14.22 4 12.4799 4.52784 10.9999 5.51677C9.51983 6.50571 8.36628 7.91131 7.68509 9.55585C7.0039 11.2004 6.82567 13.01 7.17294 14.7558C7.5202 16.5016 8.37737 18.1053 9.63604 19.364C10.8947 20.6226 12.4984 21.4798 14.2442 21.8271C15.99 22.1743 17.7996 21.9961 19.4442 21.3149C21.0887 20.6337 22.4943 19.4802 23.4832 18.0001C24.4722 16.5201 25 14.78 25 13C25 10.6131 24.0518 8.32387 22.364 6.63604C20.6761 4.94821 18.387 4 16 4ZM16 17C15.2089 17 14.4355 16.7654 13.7777 16.3259C13.1199 15.8864 12.6072 15.2616 12.3045 14.5307C12.0017 13.7998 11.9225 12.9956 12.0769 12.2196C12.2312 11.4437 12.6122 10.731 13.1716 10.1716C13.731 9.61216 14.4437 9.2312 15.2196 9.07686C15.9956 8.92252 16.7998 9.00173 17.5307 9.30448C18.2616 9.60723 18.8864 10.1199 19.3259 10.7777C19.7654 11.4355 20 12.2089 20 13C20 14.0609 19.5786 15.0783 18.8284 15.8284C18.0783 16.5786 17.0609 17 16 17Z" fill="#1C1C1E"/>
<path d="M16 22V26" stroke="#1C1C1E" stroke-width="2" stroke-linecap="round" stroke-linejoin="round"/>
<path d="M6 5L26 27" stroke="#1C1C1E" stroke-width="2" stroke-linecap="round" stroke-linejoin="round"/>
<path d="M20.4078 20.8489C18.6322 21.8472 16.5705 22.2136 14.5597 21.8883C12.5489 21.563 10.7079 20.5651 9.33765 19.0579C7.96742 17.5507 7.14902 15.6232 7.01623 13.5906C6.88343 11.5579 7.44408 9.54037 8.60655 7.86768" stroke="#1C1C1E" stroke-width="2" stroke-linecap="round" stroke-linejoin="round"/>
<path d="M11.5596 5.1699C13.3372 4.15839 15.4064 3.78253 17.4262 4.10423C19.446 4.42594 21.296 5.42602 22.6715 6.93974C24.0469 8.45346 24.8658 10.3905 24.9931 12.4318C25.1205 14.4732 24.5487 16.497 23.3721 18.1699" stroke="#1C1C1E" stroke-width="2" stroke-linecap="round" stroke-linejoin="round"/>
<path d="M15.125 9.09505C15.8141 8.94087 16.5317 8.97185 17.205 9.18486C17.8782 9.39787 18.4831 9.78531 18.9581 10.3078C19.4331 10.8303 19.7614 11.4692 19.9094 12.1597C20.0575 12.8501 20.0202 13.5675 19.8013 14.2388" stroke="#1C1C1E" stroke-width="2" stroke-linecap="round" stroke-linejoin="round"/>
<path d="M4 26H25.0912" stroke="#1C1C1E" stroke-width="2" stroke-linecap="round" stroke-linejoin="round"/>
<path d="M16.8298 16.9138C16.1461 17.0591 15.4363 17.0228 14.7711 16.8084C14.1058 16.594 13.5084 16.209 13.0382 15.6918C12.5681 15.1746 12.2417 14.5433 12.0915 13.8607C11.9413 13.1781 11.9726 12.468 12.1823 11.8013" stroke="#1C1C1E" stroke-width="2" stroke-linecap="round" stroke-linejoin="round"/>
</svg>
