<svg width="32" height="32" viewBox="0 0 32 32" fill="none" xmlns="http://www.w3.org/2000/svg">
<path opacity="0.2" d="M16 4C14.22 4 12.4799 4.52784 10.9999 5.51677C9.51983 6.50571 8.36628 7.91131 7.68509 9.55585C7.0039 11.2004 6.82567 13.01 7.17294 14.7558C7.5202 16.5016 8.37737 18.1053 9.63604 19.364C10.8947 20.6226 12.4984 21.4798 14.2442 21.8271C15.99 22.1743 17.7996 21.9961 19.4442 21.3149C21.0887 20.6337 22.4943 19.4802 23.4832 18.0001C24.4722 16.5201 25 14.78 25 13C25 10.6131 24.0518 8.32387 22.364 6.63604C20.6761 4.94821 18.387 4 16 4ZM16 17C15.2089 17 14.4355 16.7654 13.7777 16.3259C13.1199 15.8864 12.6072 15.2616 12.3045 14.5307C12.0017 13.7998 11.9225 12.9956 12.0769 12.2196C12.2312 11.4437 12.6122 10.731 13.1716 10.1716C13.731 9.61216 14.4437 9.2312 15.2196 9.07686C15.9956 8.92252 16.7998 9.00173 17.5307 9.30448C18.2616 9.60723 18.8864 10.1199 19.3259 10.7777C19.7654 11.4355 20 12.2089 20 13C20 14.0609 19.5786 15.0783 18.8284 15.8284C18.0783 16.5786 17.0609 17 16 17Z" fill="#1C1C1E"/>
<path d="M16 22C20.9706 22 25 17.9706 25 13C25 8.02944 20.9706 4 16 4C11.0294 4 7 8.02944 7 13C7 17.9706 11.0294 22 16 22Z" stroke="#1C1C1E" stroke-width="2" stroke-linecap="round" stroke-linejoin="round"/>
<path d="M16 17C18.2091 17 20 15.2091 20 13C20 10.7909 18.2091 9 16 9C13.7909 9 12 10.7909 12 13C12 15.2091 13.7909 17 16 17Z" stroke="#1C1C1E" stroke-width="2" stroke-linecap="round" stroke-linejoin="round"/>
<path d="M16 22V26" stroke="#1C1C1E" stroke-width="2" stroke-linecap="round" stroke-linejoin="round"/>
<path d="M4 26H28" stroke="#1C1C1E" stroke-width="2" stroke-linecap="round" stroke-linejoin="round"/>
</svg>
