<svg width="32" height="32" viewBox="0 0 32 32" fill="none" xmlns="http://www.w3.org/2000/svg">
<path opacity="0.2" d="M16 13C18.7614 13 21 10.7614 21 8C21 5.23858 18.7614 3 16 3C13.2386 3 11 5.23858 11 8C11 10.7614 13.2386 13 16 13Z" fill="#1C1C1E"/>
<path opacity="0.2" d="M24 26C26.7614 26 29 23.7614 29 21C29 18.2386 26.7614 16 24 16C21.2386 16 19 18.2386 19 21C19 23.7614 21.2386 26 24 26Z" fill="#1C1C1E"/>
<path opacity="0.2" d="M8 26C10.7614 26 13 23.7614 13 21C13 18.2386 10.7614 16 8 16C5.23858 16 3 18.2386 3 21C3 23.7614 5.23858 26 8 26Z" fill="#1C1C1E"/>
<path d="M24 23C25.1046 23 26 22.1046 26 21C26 19.8954 25.1046 19 24 19C22.8954 19 22 19.8954 22 21C22 22.1046 22.8954 23 24 23Z" fill="#1C1C1E"/>
<path d="M16 10C17.1046 10 18 9.10457 18 8C18 6.89543 17.1046 6 16 6C14.8954 6 14 6.89543 14 8C14 9.10457 14.8954 10 16 10Z" fill="#1C1C1E"/>
<path d="M8 23C9.10457 23 10 22.1046 10 21C10 19.8954 9.10457 19 8 19C6.89543 19 6 19.8954 6 21C6 22.1046 6.89543 23 8 23Z" fill="#1C1C1E"/>
<path d="M4 18C3.52464 18.6338 3.20671 19.3715 3.07239 20.1523C2.93806 20.9331 2.99121 21.7346 3.22743 22.4908C3.46366 23.2471 3.87621 23.9363 4.43108 24.5018C4.98595 25.0673 5.66726 25.4929 6.41886 25.7434C7.17047 25.994 7.97084 26.0623 8.75404 25.9428C9.53724 25.8233 10.2808 25.5195 10.9236 25.0562C11.5663 24.593 12.0897 23.9836 12.4507 23.2784C12.8117 22.5732 13 21.7923 13 21H24" stroke="#1C1C1E" stroke-width="2" stroke-linecap="round" stroke-linejoin="round"/>
<path d="M20.5825 5.99954C20.2681 5.28114 19.7892 4.64675 19.1844 4.14761C18.5796 3.64847 17.8659 3.29858 17.1009 3.12621C16.336 2.95383 15.5412 2.9638 14.7807 3.15531C14.0203 3.34681 13.3156 3.71449 12.7235 4.22864C12.1314 4.74279 11.6686 5.38899 11.3723 6.11504C11.0761 6.8411 10.9548 7.62665 11.0182 8.40825C11.0816 9.18985 11.328 9.94557 11.7374 10.6144C12.1468 11.2832 12.7078 11.8463 13.375 12.2583L8 20.9995" stroke="#1C1C1E" stroke-width="2" stroke-linecap="round" stroke-linejoin="round"/>
<path d="M24 26C24.7726 25.9992 25.5345 25.8193 26.2259 25.4746C26.9173 25.1298 27.5194 24.6295 27.985 24.0129C28.4506 23.3964 28.7669 22.6803 28.9092 21.9209C29.0515 21.1615 29.0159 20.3795 28.8051 19.6362C28.5944 18.8929 28.2143 18.2085 27.6946 17.6368C27.1749 17.0651 26.5298 16.6216 25.8099 16.3411C25.09 16.0606 24.3149 15.9508 23.5455 16.0202C22.776 16.0897 22.0331 16.3364 21.375 16.7412L16 8" stroke="#1C1C1E" stroke-width="2" stroke-linecap="round" stroke-linejoin="round"/>
</svg>
