<svg width="32" height="32" viewBox="0 0 32 32" fill="none" xmlns="http://www.w3.org/2000/svg">
<path opacity="0.2" d="M15.9995 4C13.8921 3.99974 11.8218 4.55447 9.99683 5.6084C8.17188 6.66232 6.65665 8.17827 5.60359 10.0037C4.55053 11.8292 3.99678 13.8998 3.99805 16.0072C3.99931 18.1146 4.55555 20.1846 5.6108 22.0088L4.05205 26.6825C3.99329 26.8587 3.98476 27.0478 4.02742 27.2285C4.07008 27.4093 4.16225 27.5746 4.29358 27.706C4.42492 27.8373 4.59023 27.9295 4.771 27.9721C4.95177 28.0148 5.14085 28.0063 5.31705 27.9475L9.9908 26.3888C11.5845 27.3101 13.3688 27.8525 15.2056 27.9739C17.0424 28.0953 18.8826 27.7925 20.5836 27.0888C22.2847 26.3852 23.8011 25.2997 25.0155 23.9162C26.2298 22.5327 27.1096 20.8884 27.5868 19.1105C28.064 17.3326 28.1257 15.4687 27.7672 13.6631C27.4087 11.8575 26.6396 10.1586 25.5195 8.69782C24.3993 7.23703 22.958 6.05354 21.3073 5.23893C19.6565 4.42431 17.8404 4.0004 15.9995 4ZM18.9995 23C16.3474 23 13.8038 21.9464 11.9285 20.0711C10.0531 18.1957 8.99955 15.6522 8.99955 13C8.99955 11.9391 9.42098 10.9217 10.1711 10.1716C10.9213 9.42143 11.9387 9 12.9995 9L14.9995 13L13.4595 15.3088C14.0704 16.7684 15.2311 17.9291 16.6908 18.54L18.9995 17L22.9995 19C22.9995 20.0609 22.5781 21.0783 21.828 21.8284C21.0778 22.5786 20.0604 23 18.9995 23Z" fill="#1C1C1E"/>
<path d="M9 13C9 11.9391 9.42143 10.9217 10.1716 10.1716C10.9217 9.42143 11.9391 9 13 9L15 13L13.46 15.3088C14.0709 16.7684 15.2316 17.9291 16.6912 18.54L19 17L23 19C23 20.0609 22.5786 21.0783 21.8284 21.8284C21.0783 22.5786 20.0609 23 19 23C16.3478 23 13.8043 21.9464 11.9289 20.0711C10.0536 18.1957 9 15.6522 9 13Z" stroke="#1C1C1E" stroke-width="2" stroke-linecap="round" stroke-linejoin="round"/>
<path d="M9.99109 26.3889C12.5118 27.8478 15.4769 28.3401 18.3338 27.7742C21.1907 27.2083 23.7443 25.6227 25.5184 23.3131C27.2926 21.0035 28.1663 18.1275 27.9766 15.2213C27.7869 12.3151 26.5467 9.57703 24.4873 7.51766C22.428 5.45829 19.6899 4.21814 16.7837 4.02843C13.8775 3.83872 11.0015 4.71239 8.69189 6.48656C6.38228 8.26073 4.7967 10.8143 4.23078 13.6712C3.66486 16.5281 4.15723 19.4932 5.61609 22.0139L4.05234 26.6827C3.99358 26.8589 3.98505 27.0479 4.02771 27.2287C4.07037 27.4095 4.16254 27.5748 4.29387 27.7061C4.42521 27.8375 4.59052 27.9296 4.77129 27.9723C4.95206 28.0149 5.14114 28.0064 5.31734 27.9477L9.99109 26.3889Z" stroke="#1C1C1E" stroke-width="2" stroke-linecap="round" stroke-linejoin="round"/>
</svg>
