<svg width="32" height="32" viewBox="0 0 32 32" fill="none" xmlns="http://www.w3.org/2000/svg">
<path d="M28 7L22 13" stroke="#1C1C1E" stroke-width="2" stroke-linecap="round" stroke-linejoin="round"/>
<path d="M28 13L22 7" stroke="#1C1C1E" stroke-width="2" stroke-linecap="round" stroke-linejoin="round"/>
<path opacity="0.2" d="M28.0001 13.0001L20.6539 5.6538C20.5125 5.5101 20.3307 5.41287 20.1326 5.37505C18.7695 5.1243 17.3862 4.99878 16.0001 5.00005C11.0862 4.98929 6.30457 6.59123 2.38889 9.56005C2.2834 9.6393 2.19512 9.73915 2.1294 9.85356C2.06368 9.96796 2.0219 10.0945 2.00658 10.2256C1.99127 10.3566 2.00274 10.4894 2.04031 10.6159C2.07788 10.7424 2.14076 10.8599 2.22514 10.9613L15.2314 26.6401C15.3252 26.7529 15.4428 26.8436 15.5756 26.9059C15.7085 26.9682 15.8534 27.0005 16.0001 27.0005C16.1469 27.0005 16.2918 26.9682 16.4247 26.9059C16.5575 26.8436 16.675 26.7529 16.7689 26.6401L28.0489 13.0426L28.0001 13.0001Z" fill="#1C1C1E"/>
<path d="M17.0001 5.0213C16.6668 5.00797 16.3335 5.00089 16.0001 5.00005C11.0862 4.98929 6.30457 6.59123 2.38889 9.56005C2.2834 9.6393 2.19512 9.73915 2.1294 9.85356C2.06368 9.96796 2.0219 10.0945 2.00658 10.2256C1.99127 10.3566 2.00274 10.4894 2.04031 10.6159C2.07788 10.7424 2.14076 10.8599 2.22514 10.9613L15.2314 26.6401C15.3252 26.7529 15.4428 26.8436 15.5756 26.9059C15.7085 26.9682 15.8534 27.0005 16.0001 27.0005C16.1469 27.0005 16.2918 26.9682 16.4247 26.9059C16.5575 26.8436 16.675 26.7529 16.7689 26.6401L23.9364 18.0001" stroke="#1C1C1E" stroke-width="2" stroke-linecap="round" stroke-linejoin="round"/>
</svg>
