<svg width="32" height="32" viewBox="0 0 32 32" fill="none" xmlns="http://www.w3.org/2000/svg">
<path opacity="0.2" d="M16.7684 26.6401L29.7684 10.9614C29.8527 10.8599 29.9156 10.7424 29.9532 10.616C29.9908 10.4895 30.0022 10.3567 29.9869 10.2256C29.9716 10.0946 29.9298 9.96804 29.8641 9.85363C29.7984 9.73923 29.7101 9.63938 29.6046 9.56013C25.6839 6.60088 20.9055 5 15.9934 5C11.0812 5 6.30286 6.60088 2.38212 9.56013C2.2771 9.63984 2.18936 9.74005 2.12421 9.85469C2.05907 9.96932 2.01789 10.096 2.00316 10.227C1.98844 10.358 2.00047 10.4907 2.03854 10.6169C2.07661 10.7432 2.13992 10.8603 2.22462 10.9614L15.2309 26.6401C15.3247 26.7529 15.4422 26.8437 15.5751 26.906C15.708 26.9683 15.8529 27.0006 15.9996 27.0006C16.1464 27.0006 16.2913 26.9683 16.4242 26.906C16.557 26.8437 16.6745 26.7529 16.7684 26.6401Z" fill="#1C1C1E"/>
<path d="M16.7684 26.6401L29.7684 10.9614C29.8527 10.8599 29.9156 10.7424 29.9532 10.616C29.9908 10.4895 30.0022 10.3567 29.9869 10.2256C29.9716 10.0946 29.9298 9.96804 29.8641 9.85363C29.7984 9.73923 29.7101 9.63938 29.6046 9.56013C25.6839 6.60088 20.9055 5 15.9934 5C11.0812 5 6.30286 6.60088 2.38212 9.56013C2.2771 9.63984 2.18936 9.74005 2.12421 9.85469C2.05907 9.96932 2.01789 10.096 2.00316 10.227C1.98844 10.358 2.00047 10.4907 2.03854 10.6169C2.07661 10.7432 2.13992 10.8603 2.22462 10.9614L15.2309 26.6401C15.3247 26.7529 15.4422 26.8437 15.5751 26.906C15.708 26.9683 15.8529 27.0006 15.9996 27.0006C16.1464 27.0006 16.2913 26.9683 16.4242 26.906C16.557 26.8437 16.6745 26.7529 16.7684 26.6401Z" stroke="#1C1C1E" stroke-width="2" stroke-linecap="round" stroke-linejoin="round"/>
</svg>
