<svg width="32" height="32" viewBox="0 0 32 32" fill="none" xmlns="http://www.w3.org/2000/svg">
<path opacity="0.2" d="M13.4875 16.2676L11.2837 20.0126L10 29.0001H22L20.795 20.5688L13.4875 16.2676Z" fill="#1C1C1E"/>
<path d="M18.5128 7.73282L9.01277 2.13907C8.8994 2.07149 8.77377 2.02702 8.64313 2.00823C8.51249 1.98944 8.37942 1.9967 8.2516 2.02958C8.12377 2.06247 8.00373 2.12033 7.89837 2.19984C7.79302 2.27934 7.70445 2.37892 7.63777 2.49282L6.13777 5.03532C6.07024 5.14877 6.02585 5.27446 6.00715 5.40515C5.98845 5.53584 5.99582 5.66894 6.02882 5.79678C6.06182 5.92461 6.11981 6.04464 6.19944 6.14994C6.27907 6.25525 6.37876 6.34374 6.49277 6.41032L25.5053 17.6003C25.6193 17.6669 25.719 17.7554 25.7986 17.8607C25.8782 17.966 25.9362 18.086 25.9692 18.2139C26.0022 18.3417 26.0096 18.4748 25.9909 18.6055C25.9722 18.7362 25.9278 18.8619 25.8603 18.9753L24.3603 21.5178C24.2936 21.6317 24.205 21.7313 24.0997 21.8108C23.9943 21.8903 23.8743 21.9482 23.7464 21.9811C23.6186 22.0139 23.4856 22.0212 23.3549 22.0024C23.2243 21.9836 23.0986 21.9391 22.9853 21.8716L13.4853 16.2778" stroke="#1C1C1E" stroke-width="2" stroke-linecap="round" stroke-linejoin="round"/>
<path d="M11.7328 9.48711L6.13907 18.9871C6.07149 19.1005 6.02702 19.2261 6.00823 19.3567C5.98944 19.4874 5.9967 19.6205 6.02958 19.7483C6.06247 19.8761 6.12033 19.9961 6.19984 20.1015C6.27934 20.2069 6.37892 20.2954 6.49282 20.3621L9.03532 21.8621C9.14877 21.9296 9.27446 21.974 9.40515 21.9927C9.53584 22.0114 9.66895 22.0041 9.79678 21.9711C9.92461 21.9381 10.0446 21.8801 10.1499 21.8004C10.2552 21.7208 10.3437 21.6211 10.4103 21.5071L21.5953 2.49961C21.6619 2.3856 21.7504 2.28591 21.8557 2.20628C21.961 2.12665 22.081 2.06866 22.2089 2.03566C22.3367 2.00265 22.4698 1.99529 22.6005 2.01399C22.7312 2.03269 22.8569 2.07708 22.9703 2.14461L25.5128 3.64461C25.6267 3.71129 25.7263 3.79986 25.8058 3.90521C25.8853 4.01056 25.9432 4.13061 25.9761 4.25843C26.0089 4.38626 26.0162 4.51932 25.9974 4.64996C25.9786 4.78061 25.9341 4.90623 25.8666 5.01961L20.2728 14.5196" stroke="#1C1C1E" stroke-width="2" stroke-linecap="round" stroke-linejoin="round"/>
<path d="M4 29H28" stroke="#1C1C1E" stroke-width="2" stroke-linecap="round" stroke-linejoin="round"/>
<path d="M20.7949 20.5684L21.9999 28.9996" stroke="#1C1C1E" stroke-width="2" stroke-linecap="round" stroke-linejoin="round"/>
<path d="M11.2837 20.0137L10 28.9999" stroke="#1C1C1E" stroke-width="2" stroke-linecap="round" stroke-linejoin="round"/>
</svg>
