<svg width="80" height="80" viewBox="0 0 80 80" fill="none" xmlns="http://www.w3.org/2000/svg">
<path d="M51.13 0H28.87C12.99 0 0 12.99 0 28.87V51.13C0 67.0067 12.99 80 28.87 80H51.13C67.0067 80 80 67.01 80 51.13V28.87C80 12.99 67.0067 0 51.13 0ZM74.72 41.4733C70.94 43.1767 67.17 44.9033 63.4167 46.6667C55.9533 50.1767 50.3867 55.61 46.87 63.1C45.01 67.0567 43.18 71.0267 41.2967 74.97C41.27 75.0233 41.2433 75.0733 41.21 75.1233C40.9333 75.56 40.4667 75.7867 39.9967 75.8067C39.5267 75.79 39.0633 75.56 38.7833 75.1233C38.75 75.0733 38.7233 75.0233 38.6967 74.97C36.81 71.0267 34.98 67.0567 33.1233 63.1C29.6067 55.6133 24.04 50.1767 16.5767 46.6667C12.8233 44.9033 9.05333 43.1767 5.27333 41.4733C4.6 41.17 4.12333 40.9367 4.07 40.08C4.12333 39.22 4.6 38.99 5.27333 38.6867C9.05333 36.9833 12.8233 35.2567 16.5767 33.4933C23.7567 30.1167 29.18 24.9567 32.7133 17.9033C32.7367 17.86 32.7567 17.8167 32.78 17.7733C32.8967 17.5367 33.01 17.3 33.1233 17.0633C33.21 16.8767 33.3 16.6933 33.3867 16.51C33.56 16.15 33.7333 15.7933 33.9033 15.4433C34.35 14.37 34.48 13.46 34.3833 12.6667C34.2933 10.05 32.1467 7.95333 29.5067 7.95333C29.48 7.95333 29.4567 7.95333 29.4333 7.95333C30.49 6.01 32.42 4.61 34.6967 4.27667C35 4.23667 35.29 4.21333 35.5767 4.20333C35.5833 4.20333 35.5933 4.20333 35.6 4.20333C35.6867 4.20333 35.7733 4.20333 35.86 4.20333C36.68 4.21667 37.4633 4.36333 38.1933 4.62667C38.22 4.63667 38.2433 4.64667 38.27 4.65667C38.2833 4.66333 38.2967 4.66667 38.31 4.67333C39.1167 5.00667 39.8433 5.50667 40.5133 6.15667C40.95 6.54667 41.35 6.95667 41.72 7.38667C44.1133 10.15 45.2567 13.6367 46.8667 17.0633C50.3833 24.55 55.95 29.9867 63.4133 33.4967C67.1667 35.26 70.9367 36.9867 74.7167 38.69C75.39 38.9933 75.8667 39.2267 75.92 40.0833C75.8667 40.9433 75.39 41.1733 74.7167 41.4767L74.72 41.4733Z" fill="#2463EB"/>
</svg>
