<svg width="32" height="32" viewBox="0 0 32 32" fill="none" xmlns="http://www.w3.org/2000/svg">
<path d="M17.9997 13H25.9997C27.0606 13 28.078 13.4214 28.8281 14.1716C29.5783 14.9217 29.9997 15.9391 29.9997 17V20H7.63222C6.77207 20 5.93482 19.7228 5.24468 19.2094C4.55453 18.696 4.04826 17.9738 3.80097 17.15L2.04222 11.2875C1.9974 11.1382 1.98811 10.9805 2.01509 10.827C2.04206 10.6734 2.10455 10.5283 2.19758 10.4032C2.2906 10.2782 2.41158 10.1766 2.55085 10.1065C2.69012 10.0365 2.84384 10 2.99972 10H3.99972L6.99972 13H11.6135L10.0522 8.31625C10.0021 8.16602 9.98845 8.00605 10.0123 7.8495C10.0361 7.69295 10.0968 7.5443 10.1893 7.41578C10.2818 7.28726 10.4035 7.18255 10.5444 7.11026C10.6853 7.03798 10.8414 7.00019 10.9997 7H11.9997L17.9997 13Z" stroke="#1C1C1E" stroke-width="2" stroke-linecap="round" stroke-linejoin="round"/>
<path d="M26 27C27.1046 27 28 26.1046 28 25C28 23.8954 27.1046 23 26 23C24.8954 23 24 23.8954 24 25C24 26.1046 24.8954 27 26 27Z" fill="#1C1C1E"/>
<path d="M14 27C15.1046 27 16 26.1046 16 25C16 23.8954 15.1046 23 14 23C12.8954 23 12 23.8954 12 25C12 26.1046 12.8954 27 14 27Z" fill="#1C1C1E"/>
</svg>
