<svg width="32" height="32" viewBox="0 0 32 32" fill="none" xmlns="http://www.w3.org/2000/svg">
<path d="M26.9999 9.19002C25.5661 7.83252 23.1249 7.00002 20.9999 7.00002C19.1823 6.99579 17.418 7.6133 15.9999 8.75002C14.6112 7.63662 12.8896 7.02051 11.1099 7.00002C6.49985 6.93752 2.88235 10.7875 2.99985 15.3988C3.05004 17.3756 3.49184 19.3228 4.29967 21.1277C5.1075 22.9326 6.26532 24.5594 7.7061 25.9138C8.44826 26.6132 9.43006 27.0019 10.4499 27H21.4124C21.9568 27.0022 22.4959 26.8924 22.9961 26.6774C23.4963 26.4623 23.9469 26.1467 24.3199 25.75C26.3011 23.625 26.9999 21.6 26.9999 21.6C24.9011 20.1588 23.9999 17.7413 23.9999 15.0025C23.9999 12.715 25.4599 10.6513 26.9999 9.19252V9.19002Z" stroke="#1C1C1E" stroke-width="2" stroke-linecap="round" stroke-linejoin="round"/>
<path d="M21 1H20.875C19.9879 0.999553 19.1258 1.29403 18.4243 1.83711C17.7228 2.38018 17.2218 3.14104 17 4" stroke="#1C1C1E" stroke-width="2" stroke-linecap="round" stroke-linejoin="round"/>
</svg>
