<svg width="32" height="32" viewBox="0 0 32 32" fill="none" xmlns="http://www.w3.org/2000/svg">
<path d="M16 28C22.6274 28 28 22.6274 28 16C28 9.37258 22.6274 4 16 4C9.37258 4 4 9.37258 4 16C4 22.6274 9.37258 28 16 28Z" stroke="#1C1C1E" stroke-width="2" stroke-linecap="round" stroke-linejoin="round"/>
<path d="M18.4916 4.25977C20.0494 8.1625 20.5562 12.4056 19.9613 16.5655C19.3665 20.7253 17.6908 24.6563 15.1016 27.966" stroke="#1C1C1E" stroke-width="2" stroke-linecap="round" stroke-linejoin="round"/>
<path d="M4.03418 16.8986C7.34388 14.3093 11.2749 12.6336 15.4347 12.0388C19.5946 11.4439 23.8377 11.9507 27.7404 13.5086" stroke="#1C1C1E" stroke-width="2" stroke-linecap="round" stroke-linejoin="round"/>
<path d="M9.90625 5.65918C13.8144 6.77956 17.3721 8.8787 20.2425 11.7579C23.1217 14.6283 25.2209 18.186 26.3412 22.0942" stroke="#1C1C1E" stroke-width="2" stroke-linecap="round" stroke-linejoin="round"/>
</svg>
