<svg width="32" height="32" viewBox="0 0 32 32" fill="none" xmlns="http://www.w3.org/2000/svg">
<path d="M13 11H19" stroke="#1C1C1E" stroke-width="2" stroke-linecap="round" stroke-linejoin="round"/>
<path d="M28.6987 19.2897L23.2425 6.8747C22.6799 6.31214 21.9169 5.99609 21.1213 5.99609C20.3256 5.99609 19.5626 6.31214 19 6.8747V20.9997" stroke="#1C1C1E" stroke-width="2" stroke-linecap="round" stroke-linejoin="round"/>
<path d="M12.9995 20.9997V6.8747C12.4369 6.31214 11.6739 5.99609 10.8783 5.99609C10.0827 5.99609 9.31963 6.31214 8.75703 6.8747L3.30078 19.2897" stroke="#1C1C1E" stroke-width="2" stroke-linecap="round" stroke-linejoin="round"/>
<path d="M8 26C10.7614 26 13 23.7614 13 21C13 18.2386 10.7614 16 8 16C5.23858 16 3 18.2386 3 21C3 23.7614 5.23858 26 8 26Z" stroke="#1C1C1E" stroke-width="2" stroke-linecap="round" stroke-linejoin="round"/>
<path d="M24 26C26.7614 26 29 23.7614 29 21C29 18.2386 26.7614 16 24 16C21.2386 16 19 18.2386 19 21C19 23.7614 21.2386 26 24 26Z" stroke="#1C1C1E" stroke-width="2" stroke-linecap="round" stroke-linejoin="round"/>
</svg>
