<svg width="32" height="32" viewBox="0 0 32 32" fill="none" xmlns="http://www.w3.org/2000/svg">
<path d="M11 25.9125C8.91072 24.9549 7.14038 23.4174 5.89947 21.4829C4.65856 19.5484 3.99928 17.2983 4 15H28C28.0007 17.2983 27.3414 19.5484 26.1005 21.4829C24.8596 23.4174 23.0893 24.9549 21 25.9125V27C21 27.2652 20.8946 27.5196 20.7071 27.7071C20.5196 27.8946 20.2652 28 20 28H12C11.7348 28 11.4804 27.8946 11.2929 27.7071C11.1054 27.5196 11 27.2652 11 27V25.9125Z" stroke="#1C1C1E" stroke-width="2" stroke-linecap="round" stroke-linejoin="round"/>
<path d="M21 11C21 11 18.75 10.3 21 7.5C23.25 4.7 21 4 21 4" stroke="#1C1C1E" stroke-width="2" stroke-linecap="round" stroke-linejoin="round"/>
<path d="M16 11C16 11 13.75 10.3 16 7.5C18.25 4.7 16 4 16 4" stroke="#1C1C1E" stroke-width="2" stroke-linecap="round" stroke-linejoin="round"/>
<path d="M11 11C11 11 8.75 10.3 11 7.5C13.25 4.7 11 4 11 4" stroke="#1C1C1E" stroke-width="2" stroke-linecap="round" stroke-linejoin="round"/>
</svg>
