<svg width="32" height="32" viewBox="0 0 32 32" fill="none" xmlns="http://www.w3.org/2000/svg">
<path d="M16 20C18.2091 20 20 18.2091 20 16C20 13.7909 18.2091 12 16 12C13.7909 12 12 13.7909 12 16C12 18.2091 13.7909 20 16 20Z" stroke="#1C1C1E" stroke-width="2" stroke-linecap="round" stroke-linejoin="round"/>
<path d="M22.709 10C24.1864 11.6493 25.0033 13.7857 25.0033 16C25.0033 18.2143 24.1864 20.3507 22.709 22" stroke="#1C1C1E" stroke-width="2" stroke-linecap="round" stroke-linejoin="round"/>
<path d="M9.29143 22C7.81402 20.3507 6.99707 18.2143 6.99707 16C6.99707 13.7857 7.81402 11.6493 9.29143 10" stroke="#1C1C1E" stroke-width="2" stroke-linecap="round" stroke-linejoin="round"/>
<path d="M26 6.20215C28.5672 8.81706 30.0056 12.3352 30.0056 15.9996C30.0056 19.6641 28.5672 23.1822 26 25.7971" stroke="#1C1C1E" stroke-width="2" stroke-linecap="round" stroke-linejoin="round"/>
<path d="M5.9997 25.7971C3.43246 23.1822 1.99414 19.6641 1.99414 15.9996C1.99414 12.3352 3.43246 8.81706 5.9997 6.20215" stroke="#1C1C1E" stroke-width="2" stroke-linecap="round" stroke-linejoin="round"/>
</svg>
