<svg width="32" height="32" viewBox="0 0 32 32" fill="none" xmlns="http://www.w3.org/2000/svg">
<path d="M16 7V22.5" stroke="#1C1C1E" stroke-width="2" stroke-linecap="round" stroke-linejoin="round"/>
<path d="M23.4701 18.9925C24.4764 19.0525 27.1576 18.8312 28.1401 14.9637C29.1514 10.98 30.0276 6 26.1164 6C22.2051 6 16.0001 11.975 16.0001 15.9587C16.0001 11.975 9.79515 6 5.8839 6C1.97265 6 2.8489 10.98 3.86015 14.9637C4.84265 18.8312 7.5239 19.0525 8.53015 18.9925" stroke="#1C1C1E" stroke-width="2" stroke-linecap="round" stroke-linejoin="round"/>
<path d="M11.0001 18C10.1337 18.0939 9.31305 18.4366 8.63715 18.9867C7.96125 19.5368 7.45905 20.2708 7.19118 21.1C6.92331 21.9293 6.90123 22.8184 7.1276 23.66C7.35397 24.5015 7.81911 25.2595 8.46687 25.8425C9.11462 26.4255 9.91729 26.8085 10.778 26.9453C11.6386 27.0821 12.5205 26.9668 13.3171 26.6133C14.1136 26.2599 14.7909 25.6834 15.267 24.9535C15.7431 24.2236 15.9977 23.3715 16.0001 22.5C16.0055 23.3675 16.2615 24.2149 16.7373 24.9403C17.2131 25.6657 17.8885 26.2381 18.682 26.5885C19.4756 26.939 20.3535 27.0526 21.2101 26.9157C22.0668 26.7789 22.8656 26.3973 23.5104 25.8169C24.1552 25.2366 24.6185 24.4823 24.8446 23.6448C25.0706 22.8072 25.0498 21.9222 24.7846 21.0962C24.5193 20.2703 24.021 19.5386 23.3496 18.9893C22.6782 18.44 21.8623 18.0964 21.0001 18" stroke="#1C1C1E" stroke-width="2" stroke-linecap="round" stroke-linejoin="round"/>
</svg>
