<svg width="32" height="32" viewBox="0 0 32 32" fill="none" xmlns="http://www.w3.org/2000/svg">
<path d="M12 30H18" stroke="#1C1C1E" stroke-width="2" stroke-linecap="round" stroke-linejoin="round"/>
<path d="M12.2124 2H17.7874C17.7874 2 24.2874 22 14.9999 22C5.71243 22 12.2124 2 12.2124 2Z" stroke="#1C1C1E" stroke-width="2" stroke-linecap="round" stroke-linejoin="round"/>
<path d="M15 22V30" stroke="#1C1C1E" stroke-width="2" stroke-linecap="round" stroke-linejoin="round"/>
<path d="M27.5 8C28.3284 8 29 7.32843 29 6.5C29 5.67157 28.3284 5 27.5 5C26.6716 5 26 5.67157 26 6.5C26 7.32843 26.6716 8 27.5 8Z" fill="#1C1C1E"/>
<path d="M24.5 4C25.3284 4 26 3.32843 26 2.5C26 1.67157 25.3284 1 24.5 1C23.6716 1 23 1.67157 23 2.5C23 3.32843 23.6716 4 24.5 4Z" fill="#1C1C1E"/>
<path d="M24.5 14C25.3284 14 26 13.3284 26 12.5C26 11.6716 25.3284 11 24.5 11C23.6716 11 23 11.6716 23 12.5C23 13.3284 23.6716 14 24.5 14Z" fill="#1C1C1E"/>
<path d="M10.5254 9H19.4754" stroke="#1C1C1E" stroke-width="2" stroke-linecap="round" stroke-linejoin="round"/>
</svg>
