<svg width="32" height="32" viewBox="0 0 32 32" fill="none" xmlns="http://www.w3.org/2000/svg">
<path d="M16 16.5C16.8284 16.5 17.5 15.8284 17.5 15C17.5 14.1716 16.8284 13.5 16 13.5C15.1716 13.5 14.5 14.1716 14.5 15C14.5 15.8284 15.1716 16.5 16 16.5Z" fill="#1C1C1E"/>
<path d="M10.5 16.5C11.3284 16.5 12 15.8284 12 15C12 14.1716 11.3284 13.5 10.5 13.5C9.67157 13.5 9 14.1716 9 15C9 15.8284 9.67157 16.5 10.5 16.5Z" fill="#1C1C1E"/>
<path d="M21.5 16.5C22.3284 16.5 23 15.8284 23 15C23 14.1716 22.3284 13.5 21.5 13.5C20.6716 13.5 20 14.1716 20 15C20 15.8284 20.6716 16.5 21.5 16.5Z" fill="#1C1C1E"/>
<path d="M13.1337 24L15.1337 27.5C15.2211 27.6533 15.3475 27.7808 15.5001 27.8694C15.6527 27.9581 15.826 28.0047 16.0025 28.0047C16.179 28.0047 16.3523 27.9581 16.5049 27.8694C16.6575 27.7808 16.7839 27.6533 16.8713 27.5L18.8713 24H27C27.2652 24 27.5196 23.8946 27.7071 23.7071C27.8946 23.5196 28 23.2652 28 23V7C28 6.73478 27.8946 6.48043 27.7071 6.29289C27.5196 6.10536 27.2652 6 27 6H5C4.73478 6 4.48043 6.10536 4.29289 6.29289C4.10536 6.48043 4 6.73478 4 7V23C4 23.2652 4.10536 23.5196 4.29289 23.7071C4.48043 23.8946 4.73478 24 5 24H13.1337Z" stroke="#1C1C1E" stroke-width="2" stroke-linecap="round" stroke-linejoin="round"/>
</svg>
