<svg width="32" height="32" viewBox="0 0 32 32" fill="none" xmlns="http://www.w3.org/2000/svg">
<path d="M6 5L26 27" stroke="#1C1C1E" stroke-width="2" stroke-linecap="round" stroke-linejoin="round"/>
<path d="M24.1812 25H10L5.64375 28.7638C5.4981 28.8863 5.3205 28.9647 5.13183 28.9898C4.94315 29.0149 4.75124 28.9856 4.57862 28.9054C4.40601 28.8252 4.25987 28.6974 4.15738 28.537C4.05488 28.3766 4.00028 28.1903 4 28V8C4 7.73478 4.10536 7.48043 4.29289 7.29289C4.48043 7.10536 4.73478 7 5 7H7.81875" stroke="#1C1C1E" stroke-width="2" stroke-linecap="round" stroke-linejoin="round"/>
<path d="M13.2236 7H26.9999C27.2651 7 27.5195 7.10536 27.707 7.29289C27.8945 7.48043 27.9999 7.73478 27.9999 8V23.25" stroke="#1C1C1E" stroke-width="2" stroke-linecap="round" stroke-linejoin="round"/>
</svg>
