<svg width="32" height="32" viewBox="0 0 32 32" fill="none" xmlns="http://www.w3.org/2000/svg">
<path d="M12 22H4C3.73478 22 3.48043 21.8946 3.29289 21.7071C3.10536 21.5196 3 21.2652 3 21V13C3 10.6131 3.94821 8.32387 5.63604 6.63604C7.32387 4.94821 9.61305 4 12 4C14.3869 4 16.6761 4.94821 18.364 6.63604C20.0518 8.32387 21 10.6131 21 13C21 15.3869 20.0518 17.6761 18.364 19.364C16.6761 21.0518 14.3869 22 12 22Z" stroke="#1C1C1E" stroke-width="2" stroke-linecap="round" stroke-linejoin="round"/>
<path d="M11.5127 21.9999C12.1332 23.755 13.2827 25.2745 14.8027 26.349C16.3228 27.4236 18.1387 28.0004 20.0002 27.9999H28.0002C28.2654 27.9999 28.5198 27.8946 28.7073 27.707C28.8948 27.5195 29.0002 27.2651 29.0002 26.9999V18.9999C29.0001 16.6983 28.1182 14.4841 26.5359 12.8127C24.9535 11.1413 22.7909 10.1396 20.4927 10.0137" stroke="#1C1C1E" stroke-width="2" stroke-linecap="round" stroke-linejoin="round"/>
</svg>
