<svg width="32" height="32" viewBox="0 0 32 32" fill="none" xmlns="http://www.w3.org/2000/svg">
<path d="M6 5L26 27" stroke="#1C1C1E" stroke-width="2" stroke-linecap="round" stroke-linejoin="round"/>
<path d="M26.5714 21.6827C27.7492 19.4964 28.2198 16.9986 27.9181 14.5336C27.6165 12.0686 26.5575 9.75791 24.8872 7.92017C23.2169 6.08243 21.0176 4.80815 18.5926 4.27308C16.1675 3.738 13.6362 3.96847 11.3477 4.93271" stroke="#1C1C1E" stroke-width="2" stroke-linecap="round" stroke-linejoin="round"/>
<path d="M7.92747 7.125C5.8991 8.96876 4.5631 11.4514 4.1417 14.1599C3.72029 16.8685 4.23889 19.6396 5.61122 22.0125L4.05247 26.6825C3.99371 26.8587 3.98519 27.0478 4.02785 27.2285C4.07051 27.4093 4.16267 27.5746 4.29401 27.706C4.42534 27.8373 4.59066 27.9295 4.77143 27.9721C4.9522 28.0148 5.14128 28.0063 5.31747 27.9475L9.99122 26.3888C12.1954 27.6628 14.7477 28.2028 17.279 27.9307C19.8103 27.6585 22.1894 26.5884 24.0725 24.875" stroke="#1C1C1E" stroke-width="2" stroke-linecap="round" stroke-linejoin="round"/>
</svg>
