<svg width="32" height="32" viewBox="0 0 32 32" fill="none" xmlns="http://www.w3.org/2000/svg">
<path d="M16 17.5C16.8284 17.5 17.5 16.8284 17.5 16C17.5 15.1716 16.8284 14.5 16 14.5C15.1716 14.5 14.5 15.1716 14.5 16C14.5 16.8284 15.1716 17.5 16 17.5Z" fill="#1C1C1E"/>
<path d="M10.5 17.5C11.3284 17.5 12 16.8284 12 16C12 15.1716 11.3284 14.5 10.5 14.5C9.67157 14.5 9 15.1716 9 16C9 16.8284 9.67157 17.5 10.5 17.5Z" fill="#1C1C1E"/>
<path d="M21.5 17.5C22.3284 17.5 23 16.8284 23 16C23 15.1716 22.3284 14.5 21.5 14.5C20.6716 14.5 20 15.1716 20 16C20 16.8284 20.6716 17.5 21.5 17.5Z" fill="#1C1C1E"/>
<path d="M9.99109 26.3889C12.5118 27.8478 15.4769 28.3401 18.3338 27.7742C21.1907 27.2083 23.7443 25.6227 25.5184 23.3131C27.2926 21.0035 28.1663 18.1275 27.9766 15.2213C27.7869 12.3151 26.5467 9.57703 24.4873 7.51766C22.428 5.45829 19.6899 4.21814 16.7837 4.02843C13.8775 3.83872 11.0015 4.71239 8.69189 6.48656C6.38228 8.26073 4.7967 10.8143 4.23078 13.6712C3.66486 16.5281 4.15723 19.4932 5.61609 22.0139L4.05234 26.6827C3.99358 26.8589 3.98505 27.0479 4.02771 27.2287C4.07037 27.4095 4.16254 27.5748 4.29387 27.7061C4.42521 27.8375 4.59052 27.9296 4.77129 27.9723C4.95206 28.0149 5.14114 28.0064 5.31734 27.9477L9.99109 26.3889Z" stroke="#1C1C1E" stroke-width="2" stroke-linecap="round" stroke-linejoin="round"/>
</svg>
