<svg width="32" height="32" viewBox="0 0 32 32" fill="none" xmlns="http://www.w3.org/2000/svg">
<path d="M28 17H4C3.44772 17 3 17.4477 3 18V22C3 22.5523 3.44772 23 4 23H28C28.5523 23 29 22.5523 29 22V18C29 17.4477 28.5523 17 28 17Z" stroke="#1C1C1E" stroke-width="2" stroke-linecap="round" stroke-linejoin="round"/>
<path d="M11 23V17" stroke="#1C1C1E" stroke-width="2" stroke-linecap="round" stroke-linejoin="round"/>
<path d="M26 13C26 13 23.75 12 26 8C28.25 4 26 3 26 3" stroke="#1C1C1E" stroke-width="2" stroke-linecap="round" stroke-linejoin="round"/>
<path d="M21 13C21 13 18.75 12 21 8C23.25 4 21 3 21 3" stroke="#1C1C1E" stroke-width="2" stroke-linecap="round" stroke-linejoin="round"/>
</svg>
