<svg width="32" height="32" viewBox="0 0 32 32" fill="none" xmlns="http://www.w3.org/2000/svg">
<path d="M28 7H4C3.44772 7 3 7.44772 3 8V24C3 24.5523 3.44772 25 4 25H28C28.5523 25 29 24.5523 29 24V8C29 7.44772 28.5523 7 28 7Z" stroke="#1C1C1E" stroke-width="2" stroke-linecap="round" stroke-linejoin="round"/>
<path d="M14.0004 19.465C13.3923 19.8157 12.7026 20.0002 12.0006 20C11.2986 19.9998 10.609 19.8148 10.0012 19.4637C9.39331 19.1125 8.88856 18.6076 8.53763 17.9996C8.1867 17.3916 8.00195 16.702 8.00195 16C8.00195 15.298 8.1867 14.6084 8.53763 14.0004C8.88856 13.3924 9.39331 12.8875 10.0012 12.5363C10.609 12.1852 11.2986 12.0002 12.0006 12C12.7026 11.9998 13.3923 12.1843 14.0004 12.535" stroke="#1C1C1E" stroke-width="2" stroke-linecap="round" stroke-linejoin="round"/>
<path d="M24.0004 19.465C23.3923 19.8157 22.7026 20.0002 22.0006 20C21.2986 19.9998 20.609 19.8148 20.0012 19.4637C19.3933 19.1125 18.8886 18.6076 18.5376 17.9996C18.1867 17.3916 18.002 16.702 18.002 16C18.002 15.298 18.1867 14.6084 18.5376 14.0004C18.8886 13.3924 19.3933 12.8875 20.0012 12.5363C20.609 12.1852 21.2986 12.0002 22.0006 12C22.7026 11.9998 23.3923 12.1843 24.0004 12.535" stroke="#1C1C1E" stroke-width="2" stroke-linecap="round" stroke-linejoin="round"/>
</svg>
