<svg width="32" height="32" viewBox="0 0 32 32" fill="none" xmlns="http://www.w3.org/2000/svg">
<path d="M6 5L26 27" stroke="#1C1C1E" stroke-width="2" stroke-linecap="round" stroke-linejoin="round"/>
<path d="M24.2364 25.0612C22.9105 25.6818 21.4641 26.0023 20.0002 26H9.00015C8.0076 25.9988 7.02666 25.7865 6.12242 25.3772C5.21817 24.9679 4.4113 24.3711 3.75535 23.6262C3.09939 22.8813 2.60934 22.0054 2.31773 21.0566C2.02611 20.1079 1.9396 19.108 2.06392 18.1232C2.18824 17.1385 2.52055 16.1915 3.03881 15.345C3.55707 14.4985 4.24942 13.7718 5.06993 13.2133C5.89044 12.6548 6.82034 12.2772 7.79793 12.1055C8.77552 11.9338 9.77844 11.972 10.7402 12.2175" stroke="#1C1C1E" stroke-width="2" stroke-linecap="round" stroke-linejoin="round"/>
<path d="M14.0791 7.94005C16.0713 6.47414 18.5361 5.79856 20.9973 6.04381C23.4585 6.28906 25.7416 7.43774 27.4053 9.26796C29.0691 11.0982 29.9955 13.48 30.0057 15.9534C30.0158 18.4268 29.109 20.8162 27.4604 22.66" stroke="#1C1C1E" stroke-width="2" stroke-linecap="round" stroke-linejoin="round"/>
<path d="M10 16C9.99746 14.2136 10.4754 12.4595 11.3838 10.9213" stroke="#1C1C1E" stroke-width="2" stroke-linecap="round" stroke-linejoin="round"/>
</svg>
