<svg width="32" height="32" viewBox="0 0 32 32" fill="none" xmlns="http://www.w3.org/2000/svg">
<path d="M16.48 3.12468L27.48 9.14718C27.6371 9.23312 27.7682 9.35966 27.8597 9.51357C27.9511 9.66749 27.9996 9.84314 28 10.0222V21.9772C27.9996 22.1562 27.9511 22.3319 27.8597 22.4858C27.7682 22.6397 27.6371 22.7662 27.48 22.8522L16.48 28.8747C16.3328 28.9552 16.1678 28.9974 16 28.9974C15.8322 28.9974 15.6672 28.9552 15.52 28.8747L4.52 22.8522C4.36293 22.7662 4.23181 22.6397 4.14035 22.4858C4.04888 22.3319 4.00041 22.1562 4 21.9772V10.0222C4.00041 9.84314 4.04888 9.66749 4.14035 9.51357C4.23181 9.35966 4.36293 9.23312 4.52 9.14718L15.52 3.12468C15.6672 3.04416 15.8322 3.00195 16 3.00195C16.1678 3.00195 16.3328 3.04416 16.48 3.12468Z" stroke="#1C1C1E" stroke-width="2" stroke-linecap="round" stroke-linejoin="round"/>
<path d="M16 16V29" stroke="#1C1C1E" stroke-width="2" stroke-linecap="round" stroke-linejoin="round"/>
<path d="M4.00391 15.7158L10.0002 18.9996V25.8546" stroke="#1C1C1E" stroke-width="2" stroke-linecap="round" stroke-linejoin="round"/>
<path d="M28 15.7151L22 19.0001V25.8551" stroke="#1C1C1E" stroke-width="2" stroke-linecap="round" stroke-linejoin="round"/>
<path d="M10.3926 5.92969L16.0001 8.99969L21.6076 5.92969" stroke="#1C1C1E" stroke-width="2" stroke-linecap="round" stroke-linejoin="round"/>
<path d="M4.14258 9.50781L16.0001 16.0003L27.8576 9.50781" stroke="#1C1C1E" stroke-width="2" stroke-linecap="round" stroke-linejoin="round"/>
</svg>
