<svg width="32" height="32" viewBox="0 0 32 32" fill="none" xmlns="http://www.w3.org/2000/svg">
<path d="M16 17.5C16.8284 17.5 17.5 16.8284 17.5 16C17.5 15.1716 16.8284 14.5 16 14.5C15.1716 14.5 14.5 15.1716 14.5 16C14.5 16.8284 15.1716 17.5 16 17.5Z" fill="#1C1C1E"/>
<path d="M24.5 17.5C25.3284 17.5 26 16.8284 26 16C26 15.1716 25.3284 14.5 24.5 14.5C23.6716 14.5 23 15.1716 23 16C23 16.8284 23.6716 17.5 24.5 17.5Z" fill="#1C1C1E"/>
<path d="M7.5 17.5C8.32843 17.5 9 16.8284 9 16C9 15.1716 8.32843 14.5 7.5 14.5C6.67157 14.5 6 15.1716 6 16C6 16.8284 6.67157 17.5 7.5 17.5Z" fill="#1C1C1E"/>
</svg>
