<svg width="32" height="32" viewBox="0 0 32 32" fill="none" xmlns="http://www.w3.org/2000/svg">
<path d="M20 4.4025V1" stroke="#1C1C1E" stroke-width="2" stroke-linecap="round" stroke-linejoin="round"/>
<path d="M12 1V4.4025" stroke="#1C1C1E" stroke-width="2" stroke-linecap="round" stroke-linejoin="round"/>
<path d="M25.0002 27.9998C25.1657 27.9998 25.3285 27.9587 25.4741 27.8802C25.6198 27.8017 25.7436 27.6883 25.8347 27.5502C25.9257 27.4121 25.9811 27.2535 25.9958 27.0888C26.0105 26.924 25.9841 26.7582 25.919 26.6061L20.0002 13.9998L22.8577 9.51484C22.9512 9.35931 23.0005 9.18129 23.0005 8.99984C23.0005 8.8184 22.9512 8.64037 22.8577 8.48484L20.0002 4.40234L19.1252 5.49984C18.7505 5.96882 18.2751 6.34745 17.7341 6.60765C17.1931 6.86786 16.6005 7.00297 16.0002 7.00297C15.3999 7.00297 14.8073 6.86786 14.2664 6.60765C13.7254 6.34745 13.25 5.96882 12.8752 5.49984L12.0002 4.40359L9.14274 8.48484C9.04929 8.64037 8.99993 8.8184 8.99993 8.99984C8.99993 9.18129 9.04929 9.35931 9.14274 9.51484L12.0002 13.9998L6.08274 26.6061C6.01764 26.7581 5.99124 26.9238 6.00589 27.0885C6.02054 27.2531 6.07579 27.4116 6.16669 27.5497C6.25759 27.6878 6.38131 27.8012 6.52678 27.8797C6.67224 27.9583 6.83491 27.9996 7.00024 27.9998H25.0002Z" stroke="#1C1C1E" stroke-width="2" stroke-linecap="round" stroke-linejoin="round"/>
<path d="M12 14H20" stroke="#1C1C1E" stroke-width="2" stroke-linecap="round" stroke-linejoin="round"/>
</svg>
