<svg width="32" height="32" viewBox="0 0 32 32" fill="none" xmlns="http://www.w3.org/2000/svg">
<path d="M5 21V24C5 24.5523 5.44772 25 6 25H26C26.5523 25 27 24.5523 27 24V21C27 20.4477 26.5523 20 26 20H6C5.44772 20 5 20.4477 5 21Z" stroke="#1C1C1E" stroke-width="2" stroke-linecap="round" stroke-linejoin="round"/>
<path d="M5.2738 14.329L14.4913 4.64149C14.6867 4.43862 14.9211 4.27725 15.1803 4.16703C15.4396 4.05681 15.7184 4 16 4C16.2817 4 16.5605 4.05681 16.8198 4.16703C17.079 4.27725 17.3134 4.43862 17.5088 4.64149L26.7263 14.329C27.3325 14.9665 26.8663 16.0002 25.9763 16.0002H6.0288C5.1338 16.0002 4.66755 14.9665 5.2738 14.329Z" stroke="#1C1C1E" stroke-width="2" stroke-linecap="round" stroke-linejoin="round"/>
</svg>
