<svg width="32" height="32" viewBox="0 0 32 32" fill="none" xmlns="http://www.w3.org/2000/svg">
<path d="M5 9.63628C4.99999 9.43091 5.06322 9.23053 5.18108 9.06235C5.29893 8.89417 5.46571 8.76636 5.65875 8.69628L15.6587 5.06003C15.8792 4.97999 16.1208 4.97999 16.3412 5.06003L26.3412 8.69628C26.5343 8.76636 26.7011 8.89417 26.8189 9.06235C26.9368 9.23053 27 9.43091 27 9.63628V17C27 24 16 26 16 26C16 26 5 24 5 17V9.63628Z" stroke="#1C1C1E" stroke-width="2" stroke-linecap="round" stroke-linejoin="round"/>
<path d="M11 13H21" stroke="#1C1C1E" stroke-width="2" stroke-linecap="round" stroke-linejoin="round"/>
<path d="M11 17H21" stroke="#1C1C1E" stroke-width="2" stroke-linecap="round" stroke-linejoin="round"/>
<path d="M26.6758 19H27.9995C28.7952 19 29.5582 18.6839 30.1209 18.1213C30.6835 17.5587 30.9995 16.7956 30.9995 16V13C30.9995 12.2044 30.6835 11.4413 30.1209 10.8787C29.5582 10.3161 28.7952 10 27.9995 10H26.9995" stroke="#1C1C1E" stroke-width="2" stroke-linecap="round" stroke-linejoin="round"/>
<path d="M5.32375 19H4C3.20435 19 2.44129 18.6839 1.87868 18.1213C1.31607 17.5587 1 16.7956 1 16V13C1 12.2044 1.31607 11.4413 1.87868 10.8787C2.44129 10.3161 3.20435 10 4 10H5" stroke="#1C1C1E" stroke-width="2" stroke-linecap="round" stroke-linejoin="round"/>
</svg>
