<svg width="32" height="32" viewBox="0 0 32 32" fill="none" xmlns="http://www.w3.org/2000/svg">
<path d="M16 19C17.6569 19 19 17.6569 19 16C19 14.3431 17.6569 13 16 13C14.3431 13 13 14.3431 13 16C13 17.6569 14.3431 19 16 19Z" stroke="#1C1C1E" stroke-width="2" stroke-linecap="round" stroke-linejoin="round"/>
<path d="M13.0386 15.5172C12.2074 15.1722 11.4568 14.6583 10.8345 14.0081C10.2122 13.3579 9.73168 12.5855 9.42342 11.74C9.11516 10.8944 8.98586 9.994 9.04372 9.09584C9.10157 8.19768 9.34532 7.32133 9.75952 6.52229C10.1737 5.72324 10.7493 5.01893 11.4499 4.45395C12.1505 3.88897 12.9608 3.47563 13.8295 3.24013C14.6981 3.00463 15.6062 2.9521 16.4963 3.08585C17.3863 3.21961 18.2388 3.53674 18.9999 4.01715L16.7286 13.0847" stroke="#1C1C1E" stroke-width="2" stroke-linecap="round" stroke-linejoin="round"/>
<path d="M17.0623 18.8067C17.1812 19.7001 17.113 20.6084 16.8621 21.474C16.6111 22.3397 16.1829 23.1436 15.6046 23.8349C15.0263 24.5261 14.3105 25.0896 13.5028 25.4894C12.6951 25.8892 11.8131 26.1167 10.9128 26.1574C10.0124 26.1982 9.11346 26.0512 8.27296 25.7259C7.43246 25.4006 6.6688 24.904 6.03047 24.2678C5.39215 23.6315 4.89311 22.8695 4.56505 22.0301C4.23699 21.1907 4.08709 20.2922 4.12485 19.3917L13.1136 16.8242" stroke="#1C1C1E" stroke-width="2" stroke-linecap="round" stroke-linejoin="round"/>
<path d="M17.8984 13.6758C18.6127 13.1262 19.4334 12.7311 20.3084 12.5157C21.1835 12.3002 22.0938 12.269 22.9816 12.4242C23.8693 12.5794 24.7151 12.9174 25.4652 13.4169C26.2154 13.9165 26.8534 14.5665 27.3389 15.3258C27.8243 16.0851 28.1466 16.937 28.2852 17.8275C28.4238 18.718 28.3757 19.6276 28.144 20.4985C27.9122 21.3694 27.502 22.1826 26.9391 22.8865C26.3763 23.5903 25.6733 24.1695 24.8747 24.5871L18.1572 18.0871" stroke="#1C1C1E" stroke-width="2" stroke-linecap="round" stroke-linejoin="round"/>
</svg>
