<svg width="32" height="32" viewBox="0 0 32 32" fill="none" xmlns="http://www.w3.org/2000/svg">
<path d="M18.5 8C19.8807 8 21 6.88071 21 5.5C21 4.11929 19.8807 3 18.5 3C17.1193 3 16 4.11929 16 5.5C16 6.88071 17.1193 8 18.5 8Z" stroke="#1C1C1E" stroke-width="2" stroke-linecap="round" stroke-linejoin="round"/>
<path d="M26.5 18C27.8807 18 29 16.8807 29 15.5C29 14.1193 27.8807 13 26.5 13C25.1193 13 24 14.1193 24 15.5C24 16.8807 25.1193 18 26.5 18Z" stroke="#1C1C1E" stroke-width="2" stroke-linecap="round" stroke-linejoin="round"/>
<path d="M19.5 29C20.8807 29 22 27.8807 22 26.5C22 25.1193 20.8807 24 19.5 24C18.1193 24 17 25.1193 17 26.5C17 27.8807 18.1193 29 19.5 29Z" stroke="#1C1C1E" stroke-width="2" stroke-linecap="round" stroke-linejoin="round"/>
<path d="M7 25.5C8.38071 25.5 9.5 24.3807 9.5 23C9.5 21.6193 8.38071 20.5 7 20.5C5.61929 20.5 4.5 21.6193 4.5 23C4.5 24.3807 5.61929 25.5 7 25.5Z" stroke="#1C1C1E" stroke-width="2" stroke-linecap="round" stroke-linejoin="round"/>
<path d="M6.5 13C7.88071 13 9 11.8807 9 10.5C9 9.11929 7.88071 8 6.5 8C5.11929 8 4 9.11929 4 10.5C4 11.8807 5.11929 13 6.5 13Z" stroke="#1C1C1E" stroke-width="2" stroke-linecap="round" stroke-linejoin="round"/>
<path d="M25.1578 17.6104L20.8428 24.3904" stroke="#1C1C1E" stroke-width="2" stroke-linecap="round" stroke-linejoin="round"/>
<path d="M20.0615 7.45215L24.939 13.5471" stroke="#1C1C1E" stroke-width="2" stroke-linecap="round" stroke-linejoin="round"/>
<path d="M8.80859 9.53844L16.1911 6.46094" stroke="#1C1C1E" stroke-width="2" stroke-linecap="round" stroke-linejoin="round"/>
<path d="M24.0025 15.6191L16 16.0004" stroke="#1C1C1E" stroke-width="2" stroke-linecap="round" stroke-linejoin="round"/>
<path d="M16 16.0001L17.9212 7.93262" stroke="#1C1C1E" stroke-width="2" stroke-linecap="round" stroke-linejoin="round"/>
<path d="M8.66406 11.7529L16.0003 16.0004" stroke="#1C1C1E" stroke-width="2" stroke-linecap="round" stroke-linejoin="round"/>
<path d="M16 16L18.7087 24.1275" stroke="#1C1C1E" stroke-width="2" stroke-linecap="round" stroke-linejoin="round"/>
<path d="M17.0922 25.8263L9.40723 23.6738" stroke="#1C1C1E" stroke-width="2" stroke-linecap="round" stroke-linejoin="round"/>
<path d="M8.97363 21.465L15.9999 16" stroke="#1C1C1E" stroke-width="2" stroke-linecap="round" stroke-linejoin="round"/>
<path d="M6.89961 20.5021L6.59961 12.9971" stroke="#1C1C1E" stroke-width="2" stroke-linecap="round" stroke-linejoin="round"/>
</svg>
