<svg width="32" height="32" viewBox="0 0 32 32" fill="none" xmlns="http://www.w3.org/2000/svg">
<path d="M5.5 24H7.5C8.16304 24 8.79893 23.7366 9.26777 23.2678C9.73661 22.7989 10 22.163 10 21.5C10 20.837 9.73661 20.2011 9.26777 19.7322C8.79893 19.2634 8.16304 19 7.5 19H5.5V26" stroke="#1C1C1E" stroke-width="2" stroke-linecap="round" stroke-linejoin="round"/>
<path d="M6 14V5C6 4.73478 6.10536 4.48043 6.29289 4.29289C6.48043 4.10536 6.73478 4 7 4H19L26 11V14" stroke="#1C1C1E" stroke-width="2" stroke-linecap="round" stroke-linejoin="round"/>
<path d="M19 4V11H26" stroke="#1C1C1E" stroke-width="2" stroke-linecap="round" stroke-linejoin="round"/>
<path d="M26 23H27V25.1087C26.7449 25.3856 26.4359 25.6075 26.092 25.7608C25.7481 25.914 25.3765 25.9954 25 26C23.3438 26 22 24.4325 22 22.5C22 20.5675 23.3438 19 25 19C25.5358 19.0016 26.0586 19.165 26.5 19.4688" stroke="#1C1C1E" stroke-width="2" stroke-linecap="round" stroke-linejoin="round"/>
<path d="M13.5 26V19L18.5 26V19" stroke="#1C1C1E" stroke-width="2" stroke-linecap="round" stroke-linejoin="round"/>
</svg>
