<svg width="32" height="32" viewBox="0 0 32 32" fill="none" xmlns="http://www.w3.org/2000/svg">
<path d="M10 25.1087C9.74488 25.3856 9.43589 25.6075 9.09198 25.7608C8.74807 25.914 8.37648 25.9954 8 26C6.3425 26 5 24.4325 5 22.5C5 20.5675 6.3425 19 8 19C8.37648 19.0046 8.74807 19.086 9.09198 19.2392C9.43589 19.3925 9.74488 19.6144 10 19.8913" stroke="#1C1C1E" stroke-width="2" stroke-linecap="round" stroke-linejoin="round"/>
<path d="M6 14V5C6 4.73478 6.10536 4.48043 6.29289 4.29289C6.48043 4.10536 6.73478 4 7 4H19L26 11V14" stroke="#1C1C1E" stroke-width="2" stroke-linecap="round" stroke-linejoin="round"/>
<path d="M19 4V11H26" stroke="#1C1C1E" stroke-width="2" stroke-linecap="round" stroke-linejoin="round"/>
<path d="M13.5 22.5H18.5" stroke="#1C1C1E" stroke-width="2" stroke-linecap="round" stroke-linejoin="round"/>
<path d="M16 20V25" stroke="#1C1C1E" stroke-width="2" stroke-linecap="round" stroke-linejoin="round"/>
<path d="M22 22.5H27" stroke="#1C1C1E" stroke-width="2" stroke-linecap="round" stroke-linejoin="round"/>
<path d="M24.5 20V25" stroke="#1C1C1E" stroke-width="2" stroke-linecap="round" stroke-linejoin="round"/>
</svg>
