<svg width="32" height="32" viewBox="0 0 32 32" fill="none" xmlns="http://www.w3.org/2000/svg">
<path d="M19 4V11H26" stroke="#1C1C1E" stroke-width="2" stroke-linecap="round" stroke-linejoin="round"/>
<path d="M22 28H25C25.2652 28 25.5196 27.8946 25.7071 27.7071C25.8946 27.5196 26 27.2652 26 27V11L19 4H7C6.73478 4 6.48043 4.10536 6.29289 4.29289C6.10536 4.48043 6 4.73478 6 5V16" stroke="#1C1C1E" stroke-width="2" stroke-linecap="round" stroke-linejoin="round"/>
<path d="M8.2075 21H7.5C6.57174 21 5.6815 21.3687 5.02513 22.0251C4.36875 22.6815 4 23.5717 4 24.5C4 25.4283 4.36875 26.3185 5.02513 26.9749C5.6815 27.6313 6.57174 28 7.5 28H13.5C14.5665 27.9999 15.6099 27.6898 16.5033 27.1074C17.3967 26.525 18.1015 25.6954 18.5319 24.7197C18.9623 23.7439 19.0998 22.664 18.9275 21.6116C18.7552 20.5591 18.2807 19.5794 17.5617 18.7918C16.8426 18.0042 15.9101 17.4426 14.8776 17.1754C13.8452 16.9082 12.7573 16.947 11.7465 17.2869C10.7356 17.6269 9.84544 18.2534 9.18426 19.0902C8.52309 19.927 8.11945 20.9379 8.0225 22" stroke="#1C1C1E" stroke-width="2" stroke-linecap="round" stroke-linejoin="round"/>
</svg>
