<svg width="32" height="32" viewBox="0 0 32 32" fill="none" xmlns="http://www.w3.org/2000/svg">
<path d="M6 14V5C6 4.73478 6.10536 4.48043 6.29289 4.29289C6.48043 4.10536 6.73478 4 7 4H19L26 11V14" stroke="#1C1C1E" stroke-width="2" stroke-linecap="round" stroke-linejoin="round"/>
<path d="M19 4V11H26" stroke="#1C1C1E" stroke-width="2" stroke-linecap="round" stroke-linejoin="round"/>
<path d="M10 25.1087C9.74488 25.3856 9.43589 25.6075 9.09198 25.7608C8.74807 25.914 8.37648 25.9954 8 26C6.3425 26 5 24.4325 5 22.5C5 20.5675 6.3425 19 8 19C8.37648 19.0046 8.74807 19.086 9.09198 19.2392C9.43589 19.3925 9.74488 19.6144 10 19.8913" stroke="#1C1C1E" stroke-width="2" stroke-linecap="round" stroke-linejoin="round"/>
<path d="M17.4874 19.1997C17.4874 19.1997 13.8087 18.2272 13.5124 20.5747C13.2162 22.9222 18.3162 21.8397 17.9849 24.4147C17.6762 26.8097 14.0124 25.7897 14.0124 25.7897" stroke="#1C1C1E" stroke-width="2" stroke-linecap="round" stroke-linejoin="round"/>
<path d="M25.4874 19.1997C25.4874 19.1997 21.8087 18.2272 21.5124 20.5747C21.2162 22.9222 26.3162 21.8397 25.9849 24.4147C25.6762 26.8097 22.0124 25.7897 22.0124 25.7897" stroke="#1C1C1E" stroke-width="2" stroke-linecap="round" stroke-linejoin="round"/>
</svg>
