<svg width="32" height="32" viewBox="0 0 32 32" fill="none" xmlns="http://www.w3.org/2000/svg">
<path d="M22.0003 16C22.005 19.91 21.2431 23.7831 19.7578 27.4" stroke="#1C1C1E" stroke-width="2" stroke-linecap="round" stroke-linejoin="round"/>
<path d="M20.4725 12.0004C19.6624 11.0946 18.5964 10.456 17.4155 10.1694C16.2345 9.88267 14.9944 9.96133 13.8591 10.3949C12.7239 10.8286 11.7471 11.5967 11.058 12.5976C10.3688 13.5986 9.99992 14.7852 10 16.0004C10.0036 19.0499 9.22917 22.0499 7.75 24.7167" stroke="#1C1C1E" stroke-width="2" stroke-linecap="round" stroke-linejoin="round"/>
<path d="M12 4.68268C13.8103 4.04474 15.7471 3.85003 17.6481 4.11486C19.5492 4.37968 21.3591 5.09633 22.9261 6.20474C24.4931 7.31316 25.7716 8.78103 26.6544 10.4854C27.5372 12.1897 27.9986 14.0808 28 16.0002C28.0015 18.6918 27.7022 21.3751 27.1075 24.0002" stroke="#1C1C1E" stroke-width="2" stroke-linecap="round" stroke-linejoin="round"/>
<path d="M2.91211 21.0004C3.63114 19.4317 4.00214 17.726 3.99961 16.0004C3.99795 14.3118 4.35348 12.642 5.04286 11.1006C5.73224 9.55921 6.73988 8.18105 7.99961 7.05664" stroke="#1C1C1E" stroke-width="2" stroke-linecap="round" stroke-linejoin="round"/>
<path d="M13.8229 26C13.5729 26.5525 13.2996 27.0942 13.0029 27.625" stroke="#1C1C1E" stroke-width="2" stroke-linecap="round" stroke-linejoin="round"/>
<path d="M16 16C16.0029 18.0236 15.7509 20.0394 15.25 22" stroke="#1C1C1E" stroke-width="2" stroke-linecap="round" stroke-linejoin="round"/>
</svg>
