<svg width="32" height="32" viewBox="0 0 32 32" fill="none" xmlns="http://www.w3.org/2000/svg">
<path d="M21 14H11C8.79086 14 7 15.7909 7 18V19C7 21.2091 8.79086 23 11 23H21C23.2091 23 25 21.2091 25 19V18C25 15.7909 23.2091 14 21 14Z" stroke="#1C1C1E" stroke-width="2" stroke-linecap="round" stroke-linejoin="round"/>
<path d="M3 9C3 8.20435 3.31607 7.44129 3.87868 6.87868C4.44129 6.31607 5.20435 6 6 6C6.79565 6 7.55871 6.31607 8.12132 6.87868C8.68393 7.44129 9 8.20435 9 9H23C23 8.20435 23.3161 7.44129 23.8787 6.87868C24.4413 6.31607 25.2044 6 26 6C26.7956 6 27.5587 6.31607 28.1213 6.87868C28.6839 7.44129 29 8.20435 29 9V19C29 21.1217 28.1571 23.1566 26.6569 24.6569C25.1566 26.1571 23.1217 27 21 27H11C8.87827 27 6.84344 26.1571 5.34315 24.6569C3.84285 23.1566 3 21.1217 3 19V9Z" stroke="#1C1C1E" stroke-width="2" stroke-linecap="round" stroke-linejoin="round"/>
<path d="M11.5 20C12.3284 20 13 19.3284 13 18.5C13 17.6716 12.3284 17 11.5 17C10.6716 17 10 17.6716 10 18.5C10 19.3284 10.6716 20 11.5 20Z" fill="#1C1C1E"/>
<path d="M20.5 20C21.3284 20 22 19.3284 22 18.5C22 17.6716 21.3284 17 20.5 17C19.6716 17 19 17.6716 19 18.5C19 19.3284 19.6716 20 20.5 20Z" fill="#1C1C1E"/>
</svg>
