<svg width="32" height="32" viewBox="0 0 32 32" fill="none" xmlns="http://www.w3.org/2000/svg">
<path d="M25 14V25.1112C25 25.228 24.977 25.3435 24.9323 25.4514C24.8877 25.5592 24.8222 25.6572 24.7397 25.7397C24.6572 25.8222 24.5592 25.8877 24.4514 25.9323C24.3435 25.977 24.228 26 24.1112 26H5C4.73478 26 4.48043 25.8946 4.29289 25.7071C4.10536 25.5196 4 25.2652 4 25V11C4 10.7348 4.10536 10.4804 4.29289 10.2929C4.48043 10.1054 4.73478 10 5 10H10.6663C10.8826 10 11.0932 10.0702 11.2662 10.2L15 13H24C24.2652 13 24.5196 13.1054 24.7071 13.2929C24.8946 13.4804 25 13.7348 25 14Z" stroke="#1C1C1E" stroke-width="2" stroke-linecap="round" stroke-linejoin="round"/>
<path d="M25 14V25.1112C25 25.228 24.977 25.3435 24.9323 25.4514C24.8877 25.5592 24.8222 25.6572 24.7397 25.7397C24.6572 25.8222 24.5592 25.8877 24.4514 25.9323C24.3435 25.977 24.228 26 24.1112 26H5C4.73478 26 4.48043 25.8946 4.29289 25.7071C4.10536 25.5196 4 25.2652 4 25V11C4 10.7348 4.10536 10.4804 4.29289 10.2929C4.48043 10.1054 4.73478 10 5 10H10.6663C10.8826 10 11.0932 10.0702 11.2662 10.2L15 13H24C24.2652 13 24.5196 13.1054 24.7071 13.2929C24.8946 13.4804 25 13.7348 25 14Z" stroke="#1C1C1E" stroke-width="2" stroke-linecap="round" stroke-linejoin="round"/>
<path d="M8 10V7C8 6.73478 8.10536 6.48043 8.29289 6.29289C8.48043 6.10536 8.73478 6 9 6H14.6663C14.8826 6 15.0932 6.07018 15.2662 6.2L19 9H28C28.2652 9 28.5196 9.10536 28.7071 9.29289C28.8946 9.48043 29 9.73478 29 10V21.1112C29 21.347 28.9064 21.573 28.7397 21.7397C28.573 21.9064 28.347 22 28.1112 22H25" stroke="#1C1C1E" stroke-width="2" stroke-linecap="round" stroke-linejoin="round"/>
</svg>
