<svg width="32" height="32" viewBox="0 0 32 32" fill="none" xmlns="http://www.w3.org/2000/svg">
<path d="M10 28C11.6569 28 13 26.6569 13 25C13 23.3431 11.6569 22 10 22C8.34315 22 7 23.3431 7 25C7 26.6569 8.34315 28 10 28Z" stroke="#1C1C1E" stroke-width="2" stroke-linecap="round" stroke-linejoin="round"/>
<path d="M10 10C11.6569 10 13 8.65685 13 7C13 5.34315 11.6569 4 10 4C8.34315 4 7 5.34315 7 7C7 8.65685 8.34315 10 10 10Z" stroke="#1C1C1E" stroke-width="2" stroke-linecap="round" stroke-linejoin="round"/>
<path d="M26 21C27.6569 21 29 19.6569 29 18C29 16.3431 27.6569 15 26 15C24.3431 15 23 16.3431 23 18C23 19.6569 24.3431 21 26 21Z" stroke="#1C1C1E" stroke-width="2" stroke-linecap="round" stroke-linejoin="round"/>
<path d="M23 18L16.75 17.1063C16.2698 17.0377 15.8309 16.7969 15.515 16.4287L10 10V22" stroke="#1C1C1E" stroke-width="2" stroke-linecap="round" stroke-linejoin="round"/>
</svg>
