<svg width="32" height="32" viewBox="0 0 32 32" fill="none" xmlns="http://www.w3.org/2000/svg">
<path d="M17 22C21.9706 22 26 17.9706 26 13C26 8.02944 21.9706 4 17 4C12.0294 4 8 8.02944 8 13C8 17.9706 12.0294 22 17 22Z" stroke="#1C1C1E" stroke-width="2" stroke-linecap="round" stroke-linejoin="round"/>
<path d="M13 30H21" stroke="#1C1C1E" stroke-width="2" stroke-linecap="round" stroke-linejoin="round"/>
<path d="M17 26V30" stroke="#1C1C1E" stroke-width="2" stroke-linecap="round" stroke-linejoin="round"/>
<path d="M25.9998 22.3813C23.5407 24.7107 20.2695 25.9884 16.8825 25.9422C13.4956 25.8961 10.2604 24.5298 7.86562 22.1343C5.47087 19.7387 4.1057 16.503 4.06072 13.1161C4.01574 9.72909 5.2945 6.45832 7.62479 4" stroke="#1C1C1E" stroke-width="2" stroke-linecap="round" stroke-linejoin="round"/>
</svg>
