<svg width="32" height="32" viewBox="0 0 32 32" fill="none" xmlns="http://www.w3.org/2000/svg">
<path d="M6.00867 12C5.85828 12.0015 5.7095 11.969 5.5734 11.9049C5.43731 11.8409 5.3174 11.747 5.22262 11.6303C5.12783 11.5135 5.0606 11.3769 5.02594 11.2305C4.99128 11.0842 4.99008 10.9319 5.02242 10.785C5.83492 6.94375 10.4399 4 15.9999 4C21.5599 4 26.1649 6.94375 26.9774 10.785C27.0098 10.9319 27.0086 11.0842 26.9739 11.2305C26.9392 11.3769 26.872 11.5135 26.7772 11.6303C26.6824 11.747 26.5625 11.8409 26.4264 11.9049C26.2903 11.969 26.1416 12.0015 25.9912 12H6.00867Z" stroke="#1C1C1E" stroke-width="2" stroke-linecap="round" stroke-linejoin="round"/>
<path d="M3 22L8.5 20L13.5 22L18.5 20L23.5 22L29 20" stroke="#1C1C1E" stroke-width="2" stroke-linecap="round" stroke-linejoin="round"/>
<path d="M3 16H29" stroke="#1C1C1E" stroke-width="2" stroke-linecap="round" stroke-linejoin="round"/>
<path d="M26 21.0917V23.0004C26 24.0613 25.5786 25.0787 24.8284 25.8289C24.0783 26.579 23.0609 27.0004 22 27.0004H10C8.93913 27.0004 7.92172 26.579 7.17157 25.8289C6.42143 25.0787 6 24.0613 6 23.0004V20.9092" stroke="#1C1C1E" stroke-width="2" stroke-linecap="round" stroke-linejoin="round"/>
</svg>
