<svg width="32" height="32" viewBox="0 0 32 32" fill="none" xmlns="http://www.w3.org/2000/svg">
<path d="M9.00022 16.4495C8.35588 16.3116 7.79204 15.9249 7.43132 15.3735C7.0706 14.822 6.94217 14.1505 7.07396 13.5049C7.20575 12.8592 7.58711 12.2918 8.13509 11.9258C8.68308 11.5599 9.35338 11.4251 10.0002 11.5508L12.6015 12.0508C12.9257 12.1138 13.2342 12.2404 13.5093 12.4233C13.7843 12.6062 14.0203 12.8419 14.2038 13.1165C14.3872 13.3912 14.5144 13.6995 14.5779 14.0237C14.6415 14.3478 14.6402 14.6813 14.5742 15.0049C14.5081 15.3285 14.3786 15.6359 14.1931 15.9091C14.0075 16.1824 13.7697 16.4162 13.4933 16.597C13.2169 16.7778 12.9074 16.9021 12.5826 16.9626C12.2579 17.0231 11.9245 17.0187 11.6015 16.9495L9.00022 16.4495Z" stroke="#1C1C1E" stroke-width="2" stroke-linecap="round" stroke-linejoin="round"/>
<path d="M7 19.0895V19.9995C6.99997 21.1872 7.23502 22.3632 7.6916 23.4596C8.14819 24.5561 8.81728 25.5513 9.6603 26.3879C10.5033 27.2245 11.5036 27.886 12.6035 28.3343C13.7034 28.7825 14.8811 29.0086 16.0688 28.9995C21.0313 28.962 25 24.8495 25 19.887V19.4695C25 18.0824 24.5194 16.738 23.64 15.6653C22.7605 14.5926 21.5365 13.8577 20.1763 13.5858L17.5 13.0508C16.8532 12.9251 16.1829 13.0599 15.6349 13.4258C15.0869 13.7918 14.7055 14.3592 14.5737 15.0049C14.442 15.6505 14.5704 16.322 14.9311 16.8735C15.2918 17.4249 15.8557 17.8116 16.5 17.9495L18.4212 18.3333C18.0652 18.9912 17.9292 19.7458 18.0334 20.4866C18.1375 21.2274 18.4763 21.9153 19 22.4495" stroke="#1C1C1E" stroke-width="2" stroke-linecap="round" stroke-linejoin="round"/>
<path d="M9.00022 21.5403C8.35588 21.4024 7.79204 21.0157 7.43132 20.4643C7.0706 19.9129 6.94217 19.2413 7.07396 18.5957C7.20575 17.9501 7.58711 17.3826 8.13509 17.0167C8.68308 16.6507 9.35338 16.5159 10.0002 16.6416L11.2502 16.8916C11.9 17.0242 12.4705 17.4095 12.8362 17.9627C13.2019 18.516 13.3328 19.1918 13.2002 19.8416C13.0676 20.4914 12.6823 21.0619 12.1291 21.4276C11.5758 21.7933 10.9 21.9242 10.2502 21.7916L9.00022 21.5403Z" stroke="#1C1C1E" stroke-width="2" stroke-linecap="round" stroke-linejoin="round"/>
<path d="M12.6714 12.0665L11.0864 6.14776C10.9942 5.82843 10.9666 5.49392 11.0052 5.16379C11.0438 4.83365 11.1478 4.51453 11.3112 4.22509C11.4746 3.93565 11.6941 3.68169 11.9568 3.47808C12.2195 3.27447 12.5202 3.12529 12.8413 3.03927C13.1623 2.95325 13.4973 2.93212 13.8267 2.97711C14.156 3.02209 14.473 3.1323 14.7592 3.30128C15.0455 3.47025 15.2951 3.69461 15.4936 3.96122C15.6921 4.22783 15.8354 4.53135 15.9152 4.85401L18.1464 13.1803" stroke="#1C1C1E" stroke-width="2" stroke-linecap="round" stroke-linejoin="round"/>
<path d="M18.8174 13.3142L21.0849 4.8542C21.2665 4.22525 21.6876 3.69264 22.2577 3.37081C22.8278 3.04898 23.5014 2.96361 24.1337 3.13303C24.7661 3.30245 25.3067 3.71315 25.6395 4.2769C25.9724 4.84064 26.0708 5.51243 25.9136 6.14795L23.4286 15.4217" stroke="#1C1C1E" stroke-width="2" stroke-linecap="round" stroke-linejoin="round"/>
</svg>
