<svg width="32" height="32" viewBox="0 0 32 32" fill="none" xmlns="http://www.w3.org/2000/svg">
<path d="M17.7225 2.00001C18.0928 1.99891 18.4536 2.11727 18.7513 2.3375C19.049 2.55773 19.2677 2.86809 19.375 3.22251L24 18.5L26.5338 21.0338L20.9088 26.4088L17.1663 22.6663C16.4195 21.9167 16.0002 20.9018 16 19.8438V3.71876C16.001 3.26257 16.1829 2.82541 16.5058 2.50319C16.8288 2.18097 17.2663 2.00001 17.7225 2.00001Z" stroke="#1C1C1E" stroke-width="2" stroke-linecap="round" stroke-linejoin="round"/>
<path d="M20.9141 26.4142L23.2078 28.708C23.3953 28.8954 23.6496 29.0006 23.9147 29.0006C24.1798 29.0006 24.434 28.8954 24.6216 28.708L28.7078 24.6255C28.8952 24.438 29.0005 24.1837 29.0005 23.9186C29.0005 23.6535 28.8952 23.3992 28.7078 23.2117L26.4141 20.918" stroke="#1C1C1E" stroke-width="2" stroke-linecap="round" stroke-linejoin="round"/>
<path d="M14.8284 22.6713L11.0859 26.4138L5.58594 20.9138L7.99969 18.5L12.6247 3.22251C12.732 2.86809 12.9507 2.55773 13.2484 2.3375C13.5461 2.11727 13.9069 1.99891 14.2772 2.00001C14.734 2.00001 15.1721 2.18148 15.4952 2.50452C15.8182 2.82755 15.9997 3.26567 15.9997 3.72251V19.8475C15.9985 20.9067 15.5773 21.9222 14.8284 22.6713Z" stroke="#1C1C1E" stroke-width="2" stroke-linecap="round" stroke-linejoin="round"/>
<path d="M5.58641 20.9141L3.29266 23.2078C3.10527 23.3953 3 23.6496 3 23.9147C3 24.1798 3.10527 24.434 3.29266 24.6216L7.37516 28.7078C7.56268 28.8952 7.81693 29.0005 8.08204 29.0005C8.34714 29.0005 8.60139 28.8952 8.78891 28.7078L11.0827 26.4141" stroke="#1C1C1E" stroke-width="2" stroke-linecap="round" stroke-linejoin="round"/>
</svg>
