<svg width="32" height="32" viewBox="0 0 32 32" fill="none" xmlns="http://www.w3.org/2000/svg">
<path d="M16 28C16 28 3 21 3 12.75C3 10.9598 3.71116 9.2429 4.97703 7.97703C6.2429 6.71116 7.95979 6 9.75 6C12.5738 6 14.9925 7.53875 16 10V28Z" stroke="#1C1C1E" stroke-width="2" stroke-linecap="round" stroke-linejoin="round"/>
<path d="M16 9.99999C16.855 7.91124 18.7262 6.54124 21 6.11499" stroke="#1C1C1E" stroke-width="2" stroke-linecap="round" stroke-linejoin="round"/>
<path d="M26 7.13623C26.8177 7.68248 27.5062 8.40079 28.0172 9.24092C28.5283 10.081 28.8496 11.0227 28.9587 12" stroke="#1C1C1E" stroke-width="2" stroke-linecap="round" stroke-linejoin="round"/>
<path d="M27.9125 17C27.1875 18.4562 26.1562 19.8288 25 21.0788" stroke="#1C1C1E" stroke-width="2" stroke-linecap="round" stroke-linejoin="round"/>
<path d="M21 24.6863C19.4165 25.9114 17.7453 27.019 16 28" stroke="#1C1C1E" stroke-width="2" stroke-linecap="round" stroke-linejoin="round"/>
</svg>
