<svg width="32" height="32" viewBox="0 0 32 32" fill="none" xmlns="http://www.w3.org/2000/svg">
<path d="M16 9.45379L14.5225 7.97754C13.5785 7.03372 12.3758 6.391 11.0666 6.13063C9.75735 5.87026 8.4003 6.00393 7.16701 6.51474C5.93373 7.02555 4.87959 7.89057 4.13788 9.00043C3.39617 10.1103 3.00019 11.4152 3 12.75C3 21 16 28 16 28C16 28 29 21 29 12.75C28.9998 11.4152 28.6038 10.1103 27.8621 9.00043C27.1204 7.89057 26.0663 7.02555 24.833 6.51474C23.5997 6.00393 22.2426 5.87026 20.9334 6.13063C19.6242 6.391 18.4215 7.03372 17.4775 7.97754L14 11.4538L17.7725 15.2275L15 18" stroke="#1C1C1E" stroke-width="2" stroke-linecap="round" stroke-linejoin="round"/>
</svg>
