<svg width="32" height="32" viewBox="0 0 32 32" fill="none" xmlns="http://www.w3.org/2000/svg">
<path d="M21.0002 23V26C21.0002 26.2652 21.1056 26.5196 21.2931 26.7071C21.4807 26.8946 21.735 27 22.0002 27H25.3215C25.5408 26.9997 25.7539 26.9274 25.928 26.7942C26.1022 26.6609 26.2277 26.4741 26.2852 26.2625L28.9652 16.4387C29.0028 16.3009 29.0104 16.1567 28.9876 16.0156C28.9647 15.8746 28.9119 15.7401 28.8327 15.6213L22.0477 5.445C21.9565 5.30819 21.8328 5.196 21.6878 5.11838C21.5429 5.04076 21.381 5.0001 21.2165 5H10.784C10.6195 5.0001 10.4576 5.04076 10.3126 5.11838C10.1676 5.196 10.044 5.30819 9.95274 5.445L3.16774 15.625C3.08854 15.7439 3.03574 15.8784 3.01288 16.0194C2.99003 16.1604 2.99765 16.3047 3.03524 16.4425L5.71524 26.2625C5.7728 26.4741 5.89831 26.6609 6.07245 26.7942C6.24659 26.9274 6.45971 26.9997 6.67899 27H10.0002C10.2655 27 10.5198 26.8946 10.7073 26.7071C10.8949 26.5196 11.0002 26.2652 11.0002 26V23" stroke="#1C1C1E" stroke-width="2" stroke-linecap="round" stroke-linejoin="round"/>
<path d="M16 11L23 6.875V22C23 22.2652 22.8946 22.5196 22.7071 22.7071C22.5196 22.8946 22.2652 23 22 23H10C9.73478 23 9.48043 22.8946 9.29289 22.7071C9.10536 22.5196 9 22.2652 9 22V6.875L16 11Z" stroke="#1C1C1E" stroke-width="2" stroke-linecap="round" stroke-linejoin="round"/>
<path d="M18 9.82129V16" stroke="#1C1C1E" stroke-width="2" stroke-linecap="round" stroke-linejoin="round"/>
<path d="M14 9.82129V17" stroke="#1C1C1E" stroke-width="2" stroke-linecap="round" stroke-linejoin="round"/>
</svg>
