<svg width="32" height="32" viewBox="0 0 32 32" fill="none" xmlns="http://www.w3.org/2000/svg">
<path d="M22 15C22 16.5913 21.3679 18.1174 20.2426 19.2426C19.1174 20.3679 17.5913 21 16 21" stroke="#1C1C1E" stroke-width="2" stroke-linecap="round" stroke-linejoin="round"/>
<path d="M15.5 14C16.3284 14 17 13.3284 17 12.5C17 11.6716 16.3284 11 15.5 11C14.6716 11 14 11.6716 14 12.5C14 13.3284 14.6716 14 15.5 14Z" fill="#1C1C1E"/>
<path d="M8 25C10.1788 26.95 13.0738 28.06 16.2425 28C22.6775 27.875 27.9088 22.6087 27.9988 16.1737C28.0218 14.5834 27.7284 13.0044 27.1358 11.5285C26.5431 10.0525 25.663 8.70912 24.5465 7.57637C23.43 6.44362 22.0995 5.54411 20.6323 4.93014C19.1651 4.31617 17.5905 4 16 4H15V8L2 16L3.72375 18.75C4.05205 19.2053 4.50149 19.5593 5.02099 19.7719C5.54049 19.9845 6.10921 20.0471 6.6625 19.9525C8.84625 19.5775 12.67 18.9975 16 20.995L11.5162 27.165" stroke="#1C1C1E" stroke-width="2" stroke-linecap="round" stroke-linejoin="round"/>
</svg>
