<svg width="32" height="32" viewBox="0 0 32 32" fill="none" xmlns="http://www.w3.org/2000/svg">
<path d="M17.672 8.08486L19.047 6.70986C19.5882 6.16855 20.2307 5.73915 20.9378 5.44619C21.645 5.15323 22.4029 5.00244 23.1683 5.00244C23.9337 5.00244 24.6916 5.15323 25.3988 5.44619C26.1059 5.73915 26.7484 6.16855 27.2895 6.70986C27.8309 7.25102 28.2603 7.89351 28.5532 8.60064C28.8462 9.30777 28.997 10.0657 28.997 10.8311C28.997 11.5965 28.8462 12.3544 28.5532 13.0616C28.2603 13.7687 27.8309 14.4112 27.2895 14.9524L24.242 17.9999L22.9495 19.2924C22.4078 19.8342 21.7644 20.264 21.0564 20.557C20.3484 20.85 19.5895 21.0005 18.8233 20.9999C18.057 20.9993 17.2984 20.8476 16.5908 20.5536C15.8832 20.2595 15.2405 19.8288 14.6995 19.2861C14.1396 18.7264 13.7 18.0581 13.4076 17.3223C13.1153 16.5865 12.9764 15.7988 12.9995 15.0074" stroke="#1C1C1E" stroke-width="2" stroke-linecap="round" stroke-linejoin="round"/>
<path d="M14.328 23.9149L12.953 25.2899C12.4112 25.8318 11.7679 26.2615 11.0598 26.5545C10.3518 26.8475 9.59293 26.998 8.82667 26.9975C8.0604 26.9969 7.30177 26.8452 6.59418 26.5511C5.88659 26.2571 5.24393 25.8264 4.70296 25.2837C3.61295 24.1899 3.00153 22.7082 3.00293 21.164C3.00434 19.6198 3.61846 18.1393 4.71046 17.0474L9.05046 12.7074C9.59162 12.1661 10.2341 11.7367 10.9412 11.4438C11.6484 11.1508 12.4063 11 13.1717 11C13.9371 11 14.6951 11.1508 15.4022 11.4438C16.1093 11.7367 16.7518 12.1661 17.293 12.7074C17.8552 13.2671 18.2968 13.9361 18.5905 14.6731C18.8842 15.4101 19.0237 16.1994 19.0005 16.9924" stroke="#1C1C1E" stroke-width="2" stroke-linecap="round" stroke-linejoin="round"/>
</svg>
