<svg width="32" height="32" viewBox="0 0 32 32" fill="none" xmlns="http://www.w3.org/2000/svg">
<path d="M4 26C4 26 8 21 8 11C8 8.87827 8.84285 6.84344 10.3431 5.34315C11.8434 3.84285 13.8783 3 16 3C18.1217 3 20.1566 3.84285 21.6569 5.34315C23.1571 6.84344 24 8.87827 24 11C24 21 28 26 28 26" stroke="#1C1C1E" stroke-width="2" stroke-linecap="round" stroke-linejoin="round"/>
<path d="M12.5 14C13.3284 14 14 13.3284 14 12.5C14 11.6716 13.3284 11 12.5 11C11.6716 11 11 11.6716 11 12.5C11 13.3284 11.6716 14 12.5 14Z" fill="#1C1C1E"/>
<path d="M19.5 14C20.3284 14 21 13.3284 21 12.5C21 11.6716 20.3284 11 19.5 11C18.6716 11 18 11.6716 18 12.5C18 13.3284 18.6716 14 19.5 14Z" fill="#1C1C1E"/>
<path d="M20 17L16 19L12 17" stroke="#1C1C1E" stroke-width="2" stroke-linecap="round" stroke-linejoin="round"/>
<path d="M11 26C12 24.2062 13.8637 23 16 23C18.1363 23 20 24.2062 21 26" stroke="#1C1C1E" stroke-width="2" stroke-linecap="round" stroke-linejoin="round"/>
</svg>
