<svg width="32" height="32" viewBox="0 0 32 32" fill="none" xmlns="http://www.w3.org/2000/svg">
<path d="M25 18.5C25.8284 18.5 26.5 17.8284 26.5 17C26.5 16.1716 25.8284 15.5 25 15.5C24.1716 15.5 23.5 16.1716 23.5 17C23.5 17.8284 24.1716 18.5 25 18.5Z" fill="#1C1C1E"/>
<path d="M25 25C27.7614 25 30 21.4183 30 17C30 12.5817 27.7614 9 25 9C22.2386 9 20 12.5817 20 17C20 21.4183 22.2386 25 25 25Z" stroke="#1C1C1E" stroke-width="2" stroke-linecap="round" stroke-linejoin="round"/>
<path d="M12 9L17 4H21" stroke="#1C1C1E" stroke-width="2" stroke-linecap="round" stroke-linejoin="round"/>
<path d="M25 25H7C4.23875 25 2 21.4187 2 17C2 12.5813 4.23875 9 7 9H25" stroke="#1C1C1E" stroke-width="2" stroke-linecap="round" stroke-linejoin="round"/>
<path d="M2.15723 15H12.9997" stroke="#1C1C1E" stroke-width="2" stroke-linecap="round" stroke-linejoin="round"/>
<path d="M10 20H20.3638" stroke="#1C1C1E" stroke-width="2" stroke-linecap="round" stroke-linejoin="round"/>
</svg>
