<svg width="32" height="32" viewBox="0 0 32 32" fill="none" xmlns="http://www.w3.org/2000/svg">
<path d="M12 19H7" stroke="#1C1C1E" stroke-width="2" stroke-linecap="round" stroke-linejoin="round"/>
<path d="M20 18V3H24" stroke="#1C1C1E" stroke-width="2" stroke-linecap="round" stroke-linejoin="round"/>
<path d="M29 22V14.5C29 12.7761 28.3152 11.1228 27.0962 9.90381C25.8772 8.68482 24.2239 8 22.5 8H9.5C11.2239 8 12.8772 8.68482 14.0962 9.90381C15.3152 11.1228 16 12.7761 16 14.5V23H28C28.2652 23 28.5196 22.8946 28.7071 22.7071C28.8946 22.5196 29 22.2652 29 22Z" stroke="#1C1C1E" stroke-width="2" stroke-linecap="round" stroke-linejoin="round"/>
<path d="M16 28V23H4C3.73478 23 3.48043 22.8946 3.29289 22.7071C3.10536 22.5196 3 22.2652 3 22V14.5C3 12.7761 3.68482 11.1228 4.90381 9.90381C6.12279 8.68482 7.77609 8 9.5 8" stroke="#1C1C1E" stroke-width="2" stroke-linecap="round" stroke-linejoin="round"/>
</svg>
