<svg width="32" height="32" viewBox="0 0 32 32" fill="none" xmlns="http://www.w3.org/2000/svg">
<path d="M19 23C18.05 22.3687 17.2263 22 16 22C14.7737 22 13.95 22.3687 13 23" stroke="#1C1C1E" stroke-width="2" stroke-linecap="round" stroke-linejoin="round"/>
<path d="M27 6.00006C27.0002 5.83745 26.9608 5.67725 26.8851 5.53333C26.8094 5.38941 26.6998 5.26612 26.5657 5.17414C26.4316 5.08216 26.2771 5.02427 26.1156 5.00548C25.954 4.98669 25.7904 5.00757 25.6388 5.06631C23.75 5.80131 20.1112 6.96381 16 6.96381C11.8888 6.96381 8.25 5.80131 6.36125 5.06881C6.20982 5.01015 6.04638 4.98924 5.88507 5.00791C5.72375 5.02657 5.5694 5.08424 5.43537 5.17594C5.30134 5.26763 5.19165 5.39058 5.1158 5.53417C5.03994 5.67776 5.0002 5.83767 5 6.00006V12.9713C5 21.8251 9.925 29.0001 16 29.0001C22.075 29.0001 27 21.8251 27 12.9738V6.00006Z" stroke="#1C1C1E" stroke-width="2" stroke-linecap="round" stroke-linejoin="round"/>
<path d="M18 15C18.5487 15.6137 19.6112 16 20.5 16C21.3888 16 22.4513 15.6137 23 15" stroke="#1C1C1E" stroke-width="2" stroke-linecap="round" stroke-linejoin="round"/>
<path d="M9 15C9.54875 15.6137 10.6112 16 11.5 16C12.3888 16 13.4513 15.6137 14 15" stroke="#1C1C1E" stroke-width="2" stroke-linecap="round" stroke-linejoin="round"/>
</svg>
