<svg width="32" height="32" viewBox="0 0 32 32" fill="none" xmlns="http://www.w3.org/2000/svg">
<path d="M7.00002 27C6.84259 27.0002 6.68735 26.9631 6.54693 26.892C6.40651 26.8208 6.28488 26.7175 6.19193 26.5904C6.09898 26.4634 6.03734 26.3162 6.01203 26.1608C5.98672 26.0054 5.99845 25.8462 6.04627 25.6963L12.41 5.69625C12.4745 5.49399 12.6017 5.31749 12.7732 5.19232C12.9446 5.06714 13.1515 4.99979 13.3638 5H18.6363C18.8484 5.00005 19.0549 5.06753 19.2261 5.19269C19.3974 5.31784 19.5244 5.49419 19.5888 5.69625L25.9525 25.6963C26.0003 25.8461 26.0121 26.0052 25.9868 26.1605C25.9616 26.3158 25.9 26.4629 25.8072 26.5899C25.7144 26.717 25.593 26.8203 25.4527 26.8915C25.3124 26.9628 25.1573 27 25 27H7.00002Z" stroke="#1C1C1E" stroke-width="2" stroke-linecap="round" stroke-linejoin="round"/>
<path d="M16 21L26 10" stroke="#1C1C1E" stroke-width="2" stroke-linecap="round" stroke-linejoin="round"/>
<path d="M7.54297 21H24.458" stroke="#1C1C1E" stroke-width="2" stroke-linecap="round" stroke-linejoin="round"/>
</svg>
