<svg width="32" height="32" viewBox="0 0 32 32" fill="none" xmlns="http://www.w3.org/2000/svg">
<path d="M4 27H28" stroke="#1C1C1E" stroke-width="2" stroke-linecap="round" stroke-linejoin="round"/>
<path d="M9 22H17" stroke="#1C1C1E" stroke-width="2" stroke-linecap="round" stroke-linejoin="round"/>
<path d="M16 3H10C9.44772 3 9 3.44772 9 4V17C9 17.5523 9.44772 18 10 18H16C16.5523 18 17 17.5523 17 17V4C17 3.44772 16.5523 3 16 3Z" stroke="#1C1C1E" stroke-width="2" stroke-linecap="round" stroke-linejoin="round"/>
<path d="M17 9C19.0988 9 21.1444 9.66037 22.8471 10.8876C24.5498 12.1148 25.8231 13.8466 26.4868 15.8377C27.1505 17.8288 27.1709 19.9783 26.5451 21.9817C25.9193 23.985 24.6791 25.7407 23 27" stroke="#1C1C1E" stroke-width="2" stroke-linecap="round" stroke-linejoin="round"/>
</svg>
