<svg width="32" height="32" viewBox="0 0 32 32" fill="none" xmlns="http://www.w3.org/2000/svg">
<path d="M16 25V30" stroke="#1C1C1E" stroke-width="2" stroke-linecap="round" stroke-linejoin="round"/>
<path d="M6 6L26 28" stroke="#1C1C1E" stroke-width="2" stroke-linecap="round" stroke-linejoin="round"/>
<path d="M21.54 23.0938C20.2109 24.1319 18.6169 24.7757 16.9396 24.9517C15.2624 25.1278 13.5694 24.8291 12.0537 24.0896C10.538 23.3501 9.26058 22.1996 8.36705 20.7693C7.47351 19.339 6.99983 17.6865 7 16" stroke="#1C1C1E" stroke-width="2" stroke-linecap="round" stroke-linejoin="round"/>
<path d="M25.0001 16C25.0022 17.3694 24.6905 18.7211 24.0889 19.9513" stroke="#1C1C1E" stroke-width="2" stroke-linecap="round" stroke-linejoin="round"/>
<path d="M18.835 20.125C18.0011 20.6984 17.012 21.0037 16 21C14.6739 21 13.4021 20.4732 12.4645 19.5355C11.5268 18.5979 11 17.3261 11 16V11.5" stroke="#1C1C1E" stroke-width="2" stroke-linecap="round" stroke-linejoin="round"/>
<path d="M11.4121 6.0075C11.8005 5.11366 12.4416 4.35281 13.2566 3.81849C14.0716 3.28417 15.025 2.99968 15.9996 3C17.3257 3 18.5975 3.52678 19.5351 4.46447C20.4728 5.40215 20.9996 6.67392 20.9996 8V16C20.9999 16.175 20.9907 16.3498 20.9721 16.5238" stroke="#1C1C1E" stroke-width="2" stroke-linecap="round" stroke-linejoin="round"/>
</svg>
