<svg width="32" height="32" viewBox="0 0 32 32" fill="none" xmlns="http://www.w3.org/2000/svg">
<path d="M26 15V9" stroke="#1C1C1E" stroke-width="2" stroke-linecap="round" stroke-linejoin="round"/>
<path d="M29 12H23" stroke="#1C1C1E" stroke-width="2" stroke-linecap="round" stroke-linejoin="round"/>
<path d="M20 4V8" stroke="#1C1C1E" stroke-width="2" stroke-linecap="round" stroke-linejoin="round"/>
<path d="M22 6H18" stroke="#1C1C1E" stroke-width="2" stroke-linecap="round" stroke-linejoin="round"/>
<path d="M26.3358 19.7726C25.5663 19.924 24.7838 20.0001 23.9996 20.0001C22.226 19.9986 20.4748 19.6043 18.8717 18.8456C17.2687 18.0869 15.8535 16.9825 14.728 15.6119C13.6025 14.2412 12.7945 12.6383 12.3621 10.9183C11.9296 9.19824 11.8835 7.40378 12.2271 5.66382C10.4913 6.29855 8.94345 7.3604 7.72644 8.75131C6.50943 10.1422 5.66249 11.8174 5.26383 13.622C4.86518 15.4267 4.92765 17.3027 5.4455 19.0769C5.96334 20.851 6.91985 22.4661 8.22671 23.7729C9.53356 25.0798 11.1486 26.0363 12.9228 26.5541C14.6969 27.072 16.5729 27.1345 18.3776 26.7358C20.1823 26.3371 21.8574 25.4902 23.2483 24.2732C24.6392 23.0562 25.7011 21.5083 26.3358 19.7726Z" stroke="#1C1C1E" stroke-width="2" stroke-linecap="round" stroke-linejoin="round"/>
</svg>
