<svg width="32" height="32" viewBox="0 0 32 32" fill="none" xmlns="http://www.w3.org/2000/svg">
<path d="M19 21C19 19.3431 17.6569 18 16 18C14.3431 18 13 19.3431 13 21V27C13 28.6569 14.3431 30 16 30C17.6569 30 19 28.6569 19 27V21Z" stroke="#1C1C1E" stroke-width="2" stroke-linecap="round" stroke-linejoin="round"/>
<path d="M16 10C18.2091 10 20 8.20914 20 6C20 3.79086 18.2091 2 16 2C13.7909 2 12 3.79086 12 6C12 8.20914 13.7909 10 16 10Z" stroke="#1C1C1E" stroke-width="2" stroke-linecap="round" stroke-linejoin="round"/>
<path d="M20 6H26" stroke="#1C1C1E" stroke-width="2" stroke-linecap="round" stroke-linejoin="round"/>
<path d="M6 6H12" stroke="#1C1C1E" stroke-width="2" stroke-linecap="round" stroke-linejoin="round"/>
<path d="M13 26H10C9.73478 26 9.48043 25.8946 9.29289 25.7071C9.10536 25.5196 9 25.2652 9 25V17C9 15.1435 9.7375 13.363 11.0503 12.0503C12.363 10.7375 14.1435 10 16 10C17.8565 10 19.637 10.7375 20.9497 12.0503C22.2625 13.363 23 15.1435 23 17V25C23 25.2652 22.8946 25.5196 22.7071 25.7071C22.5196 25.8946 22.2652 26 22 26H19" stroke="#1C1C1E" stroke-width="2" stroke-linecap="round" stroke-linejoin="round"/>
</svg>
