<svg width="32" height="32" viewBox="0 0 32 32" fill="none" xmlns="http://www.w3.org/2000/svg">
<path d="M26 16H6" stroke="#1C1C1E" stroke-width="2" stroke-linecap="round" stroke-linejoin="round"/>
<path d="M26 19C26 18.4696 26.2107 17.9609 26.5858 17.5858C26.9609 17.2107 27.4696 17 28 17C28.5304 17 29.0391 17.2107 29.4142 17.5858C29.7893 17.9609 30 18.4696 30 19V26H26" stroke="#1C1C1E" stroke-width="2" stroke-linecap="round" stroke-linejoin="round"/>
<path d="M6 26H2V19C2 18.4696 2.21071 17.9609 2.58579 17.5858C2.96086 17.2107 3.46957 17 4 17C4.53043 17 5.03914 17.2107 5.41421 17.5858C5.78929 17.9609 6 18.4696 6 19" stroke="#1C1C1E" stroke-width="2" stroke-linecap="round" stroke-linejoin="round"/>
<path d="M6 26V16C6 8 16 7 16 3C16 7 26 8 26 16V26H22V22C22 21.4696 21.7893 20.9609 21.4142 20.5858C21.0391 20.2107 20.5304 20 20 20C19.4696 20 18.9609 20.2107 18.5858 20.5858C18.2107 20.9609 18 21.4696 18 22V26H14V22C14 21.4696 13.7893 20.9609 13.4142 20.5858C13.0391 20.2107 12.5304 20 12 20C11.4696 20 10.9609 20.2107 10.5858 20.5858C10.2107 20.9609 10 21.4696 10 22V26H6Z" stroke="#1C1C1E" stroke-width="2" stroke-linecap="round" stroke-linejoin="round"/>
</svg>
