<svg width="32" height="32" viewBox="0 0 32 32" fill="none" xmlns="http://www.w3.org/2000/svg">
<path d="M26 5H6C5.44772 5 5 5.44772 5 6V26C5 26.5523 5.44772 27 6 27H26C26.5523 27 27 26.5523 27 26V6C27 5.44772 26.5523 5 26 5Z" stroke="#1C1C1E" stroke-width="2" stroke-linecap="round" stroke-linejoin="round"/>
<path d="M19 10H14L13 16C13.3283 15.6741 13.7188 15.4175 14.1483 15.2457C14.5778 15.0739 15.0375 14.9904 15.5 15C16.4283 15 17.3185 15.3687 17.9749 16.0251C18.6313 16.6815 19 17.5717 19 18.5C19 19.4283 18.6313 20.3185 17.9749 20.9749C17.3185 21.6313 16.4283 22 15.5 22C15.0375 22.0096 14.5778 21.9261 14.1483 21.7543C13.7188 21.5825 13.3283 21.3259 13 21" stroke="#1C1C1E" stroke-width="2" stroke-linecap="round" stroke-linejoin="round"/>
</svg>
