<svg width="32" height="32" viewBox="0 0 32 32" fill="none" xmlns="http://www.w3.org/2000/svg">
<path d="M26 5H6C5.44772 5 5 5.44772 5 6V26C5 26.5523 5.44772 27 6 27H26C26.5523 27 27 26.5523 27 26V6C27 5.44772 26.5523 5 26 5Z" stroke="#1C1C1E" stroke-width="2" stroke-linecap="round" stroke-linejoin="round"/>
<path d="M19 22.0001H13L18.3962 14.8051C18.6564 14.4596 18.8387 14.0619 18.9307 13.6393C19.0227 13.2167 19.0223 12.7791 18.9294 12.3567C18.8365 11.9343 18.6534 11.537 18.3926 11.1919C18.1318 10.8469 17.7994 10.5624 17.4184 10.3578C17.0373 10.1532 16.6165 10.0334 16.1848 10.0067C15.7531 9.97998 15.3208 10.0469 14.9174 10.2029C14.514 10.3589 14.1491 10.6003 13.8477 10.9105C13.5463 11.2207 13.3155 11.5924 13.1713 12.0001" stroke="#1C1C1E" stroke-width="2" stroke-linecap="round" stroke-linejoin="round"/>
</svg>
