<svg width="32" height="32" viewBox="0 0 32 32" fill="none" xmlns="http://www.w3.org/2000/svg">
<path d="M25.9997 17.435L16.0209 27.4137C15.8352 27.5995 15.6147 27.7469 15.372 27.8474C15.1294 27.948 14.8693 27.9997 14.6066 27.9997C14.3439 27.9997 14.0838 27.948 13.8411 27.8474C13.5984 27.7469 13.3779 27.5995 13.1922 27.4137L2.58595 16.8075C2.40018 16.6218 2.25282 16.4013 2.15228 16.1586C2.05175 15.9159 2 15.6558 2 15.3931C2 15.1304 2.05175 14.8703 2.15228 14.6277C2.25282 14.385 2.40018 14.1645 2.58595 13.9788L14.5647 2L28.9997 16.435L25.9997 17.435Z" stroke="#1C1C1E" stroke-width="2" stroke-linecap="round" stroke-linejoin="round"/>
<path d="M15.5 17C16.8807 17 18 15.8807 18 14.5C18 13.1193 16.8807 12 15.5 12C14.1193 12 13 13.1193 13 14.5C13 15.8807 14.1193 17 15.5 17Z" stroke="#1C1C1E" stroke-width="2" stroke-linecap="round" stroke-linejoin="round"/>
<path d="M13.7328 12.7325L4.99902 4" stroke="#1C1C1E" stroke-width="2" stroke-linecap="round" stroke-linejoin="round"/>
<path d="M31 26C31 26.5304 30.7893 27.0391 30.4142 27.4142C30.0391 27.7893 29.5304 28 29 28C28.4696 28 27.9609 27.7893 27.5858 27.4142C27.2107 27.0391 27 26.5304 27 26C27 24 29 21 29 21C29 21 31 24 31 26Z" stroke="#1C1C1E" stroke-width="2" stroke-linecap="round" stroke-linejoin="round"/>
</svg>
