<svg width="32" height="32" viewBox="0 0 32 32" fill="none" xmlns="http://www.w3.org/2000/svg">
<path d="M9 13L19 23" stroke="#1C1C1E" stroke-width="2" stroke-linecap="round" stroke-linejoin="round"/>
<path d="M5.5 23.5L9 20" stroke="#1C1C1E" stroke-width="2" stroke-linecap="round" stroke-linejoin="round"/>
<path d="M8.5 26.5L12 23" stroke="#1C1C1E" stroke-width="2" stroke-linecap="round" stroke-linejoin="round"/>
<path d="M19.5 15.5L21.5863 17.5863C21.961 17.9613 22.1716 18.4698 22.1716 19C22.1716 19.5302 21.961 20.0387 21.5863 20.4138L12 30L2 20L11.5863 10.4138C11.9613 10.039 12.4698 9.82844 13 9.82844C13.5302 9.82844 14.0387 10.039 14.4137 10.4138L16.5 12.5L23.875 3.87502C24.4386 3.31143 25.203 2.99481 26 2.99481C26.797 2.99481 27.5614 3.31143 28.125 3.87502C28.6886 4.4386 29.0052 5.20299 29.0052 6.00002C29.0052 6.79705 28.6886 7.56143 28.125 8.12502L19.5 15.5Z" stroke="#1C1C1E" stroke-width="2" stroke-linecap="round" stroke-linejoin="round"/>
</svg>
