<svg width="32" height="32" viewBox="0 0 32 32" fill="none" xmlns="http://www.w3.org/2000/svg">
<path d="M16 15V23" stroke="#1C1C1E" stroke-width="2" stroke-linecap="round" stroke-linejoin="round"/>
<path d="M15.9996 23L27.6596 26.9388C27.8516 27.0091 28.0606 27.0189 28.2584 26.9667C28.4561 26.9146 28.6331 26.8031 28.7655 26.6473C28.8979 26.4914 28.9794 26.2987 28.9989 26.0952C29.0184 25.8916 28.975 25.687 28.8746 25.5088L16.8634 4.5088C16.7769 4.3525 16.6501 4.22221 16.4962 4.13149C16.3424 4.04077 16.167 3.99292 15.9884 3.99292C15.8097 3.99292 15.6344 4.04077 15.4805 4.13149C15.3266 4.22221 15.1998 4.3525 15.1134 4.5088L3.13211 25.5088C3.03277 25.6864 2.98999 25.8901 3.00948 26.0927C3.02897 26.2953 3.10979 26.4871 3.24117 26.6425C3.37254 26.7979 3.54821 26.9095 3.74471 26.9625C3.94121 27.0154 4.14919 27.0072 4.34086 26.9388L15.9996 23Z" stroke="#1C1C1E" stroke-width="2" stroke-linecap="round" stroke-linejoin="round"/>
</svg>
