<svg width="32" height="32" viewBox="0 0 32 32" fill="none" xmlns="http://www.w3.org/2000/svg">
<path d="M25 5H20C19.4477 5 19 5.44772 19 6V26C19 26.5523 19.4477 27 20 27H25C25.5523 27 26 26.5523 26 26V6C26 5.44772 25.5523 5 25 5Z" stroke="#1C1C1E" stroke-width="2" stroke-linecap="round" stroke-linejoin="round"/>
<path d="M12 5H7C6.44772 5 6 5.44772 6 6V26C6 26.5523 6.44772 27 7 27H12C12.5523 27 13 26.5523 13 26V6C13 5.44772 12.5523 5 12 5Z" stroke="#1C1C1E" stroke-width="2" stroke-linecap="round" stroke-linejoin="round"/>
</svg>
