<svg width="32" height="32" viewBox="0 0 32 32" fill="none" xmlns="http://www.w3.org/2000/svg">
<path d="M28.2425 11.9788C30.4038 14.14 30.5713 17.265 28.7425 19.6188C28.6088 19.7883 28.4238 19.91 28.2151 19.9657C28.0065 20.0213 27.7854 20.0079 27.585 19.9275L21.4475 17.75C21.2943 17.6887 21.1586 17.5904 21.0526 17.4639C20.9466 17.3374 20.8736 17.1866 20.84 17.025L20.0638 13.3075C20.0295 13.1396 19.9523 12.9834 19.8397 12.8541C19.7271 12.7249 19.5829 12.627 19.4213 12.57C17.1883 11.8047 14.7631 11.8104 12.5338 12.5863C12.3709 12.6446 12.2262 12.7445 12.1139 12.8761C12.0016 13.0076 11.9257 13.1663 11.8938 13.3363L11.1563 17.025C11.1226 17.1867 11.0493 17.3376 10.9431 17.4641C10.8369 17.5906 10.701 17.6889 10.5475 17.75L4.41127 19.9275C4.21104 20.0095 3.98961 20.0244 3.78023 19.9698C3.57084 19.9153 3.3848 19.7943 3.25002 19.625C1.42502 17.2713 1.59252 14.1463 3.75002 11.985C10.3963 5.34002 21.6038 5.34002 28.2425 11.9788Z" stroke="#1C1C1E" stroke-width="2" stroke-linecap="round" stroke-linejoin="round"/>
<path d="M5 25H27" stroke="#1C1C1E" stroke-width="2" stroke-linecap="round" stroke-linejoin="round"/>
</svg>
