<svg width="32" height="32" viewBox="0 0 32 32" fill="none" xmlns="http://www.w3.org/2000/svg">
<path d="M15.7072 18.2072C15.8002 18.1143 15.8739 18.004 15.9242 17.8826C15.9746 17.7612 16.0005 17.6311 16.0005 17.4997C16.0005 17.3683 15.9746 17.2381 15.9242 17.1167C15.8739 16.9953 15.8002 16.8851 15.7072 16.7922L9.62468 10.6247C9.22776 10.2264 9.00488 9.68699 9.00488 9.12468C9.00488 8.56237 9.22776 8.02298 9.62468 7.62468C10.023 7.22776 10.5624 7.00488 11.1247 7.00488C11.687 7.00488 12.2264 7.22776 12.6247 7.62468L21.7109 16.7959C21.8039 16.8888 21.8777 16.9991 21.928 17.1205C21.9783 17.2419 22.0042 17.372 22.0042 17.5034C22.0042 17.6348 21.9783 17.765 21.928 17.8864C21.8777 18.0078 21.8039 18.1181 21.7109 18.2109L10.6247 29.3747C10.2264 29.7716 9.68699 29.9945 9.12468 29.9945C8.56237 29.9945 8.02298 29.7716 7.62468 29.3747C7.22776 28.9764 7.00488 28.437 7.00488 27.8747C7.00488 27.3124 7.22776 26.773 7.62468 26.3747L15.7072 18.2072Z" stroke="#1C1C1E" stroke-width="2" stroke-linecap="round" stroke-linejoin="round"/>
<path d="M16.5346 11.5723L18.8621 9.29231C19.0484 9.1062 19.3005 9.00102 19.5637 8.99962C19.827 8.99822 20.0802 9.10069 20.2684 9.28481L24.9496 13.7073C25.1372 13.8947 25.3914 14 25.6565 14C25.9216 14 26.1759 13.8947 26.3634 13.7073L26.8284 13.2423C27.5784 12.4922 27.9997 11.4749 27.9997 10.4142C27.9997 9.35347 27.5784 8.33618 26.8284 7.58606L21.2034 2.29231C21.1105 2.19933 21.0002 2.12557 20.8788 2.07525C20.7574 2.02493 20.6273 1.99902 20.4959 1.99902C20.3645 1.99902 20.2344 2.02493 20.113 2.07525C19.9916 2.12557 19.8813 2.19933 19.7884 2.29231L13.5146 8.52356" stroke="#1C1C1E" stroke-width="2" stroke-linecap="round" stroke-linejoin="round"/>
<path d="M10.5002 11.5146L7.29266 14.7071C7.10527 14.8947 7 15.1489 7 15.414C7 15.6791 7.10527 15.9334 7.29266 16.1209L8.87516 17.7071C9.06268 17.8945 9.31693 17.9998 9.58204 17.9998C9.84714 17.9998 10.1014 17.8945 10.2889 17.7071L13.5002 14.5496" stroke="#1C1C1E" stroke-width="2" stroke-linecap="round" stroke-linejoin="round"/>
</svg>
