<svg width="32" height="32" viewBox="0 0 32 32" fill="none" xmlns="http://www.w3.org/2000/svg">
<path d="M13.7208 12.1249L10.4771 6.49992C10.4076 6.37936 10.3138 6.27462 10.2016 6.19238C10.0894 6.11015 9.96121 6.05224 9.82532 6.02236C9.68944 5.99248 9.54882 5.99128 9.41244 6.01884C9.27607 6.0464 9.14695 6.10212 9.03334 6.18242C7.61358 7.18309 6.42815 8.48022 5.55902 9.98409C4.68989 11.488 4.15781 13.1627 3.99959 14.8924C3.98642 15.0321 4.00242 15.173 4.04659 15.3062C4.09075 15.4393 4.16211 15.5619 4.25613 15.666C4.35015 15.7701 4.46479 15.8536 4.59278 15.9111C4.72076 15.9686 4.85929 15.9988 4.99959 15.9999H11.4996" stroke="#1C1C1E" stroke-width="2" stroke-linecap="round" stroke-linejoin="round"/>
<path d="M18.2783 12.1252L21.5283 6.50774C21.5978 6.38717 21.6916 6.28243 21.8038 6.2002C21.916 6.11796 22.0442 6.06006 22.1801 6.03017C22.316 6.00029 22.4566 5.99909 22.593 6.02665C22.7293 6.05422 22.8585 6.10993 22.9721 6.19024C24.3898 7.19073 25.5734 8.48695 26.4414 9.98942C27.3094 11.4919 27.841 13.1648 27.9996 14.8927C28.0127 15.0324 27.9967 15.1733 27.9526 15.3065C27.9084 15.4396 27.8371 15.5622 27.743 15.6663C27.649 15.7704 27.5344 15.8539 27.4064 15.9114C27.2784 15.9689 27.1399 15.9991 26.9996 16.0002H20.4996" stroke="#1C1C1E" stroke-width="2" stroke-linecap="round" stroke-linejoin="round"/>
<path d="M18.2496 19.8975L21.4784 25.4887C21.5479 25.6089 21.5916 25.7423 21.6067 25.8804C21.6217 26.0184 21.6079 26.1581 21.5661 26.2905C21.5242 26.4229 21.4552 26.5452 21.3635 26.6495C21.2718 26.7537 21.1594 26.8378 21.0334 26.8962C19.4549 27.6234 17.7376 28 15.9996 28C14.2617 28 12.5444 27.6234 10.9659 26.8962C10.8399 26.8378 10.7275 26.7537 10.6358 26.6495C10.5441 26.5452 10.4751 26.4229 10.4332 26.2905C10.3914 26.1581 10.3775 26.0184 10.3926 25.8804C10.4077 25.7423 10.4514 25.6089 10.5209 25.4887L13.7496 19.8975" stroke="#1C1C1E" stroke-width="2" stroke-linecap="round" stroke-linejoin="round"/>
<path d="M16 17.5C16.8284 17.5 17.5 16.8284 17.5 16C17.5 15.1716 16.8284 14.5 16 14.5C15.1716 14.5 14.5 15.1716 14.5 16C14.5 16.8284 15.1716 17.5 16 17.5Z" fill="#1C1C1E"/>
</svg>
