<svg width="32" height="32" viewBox="0 0 32 32" fill="none" xmlns="http://www.w3.org/2000/svg">
<path d="M26 21H6C5.44772 21 5 21.4477 5 22V25C5 25.5523 5.44772 26 6 26H26C26.5523 26 27 25.5523 27 25V22C27 21.4477 26.5523 21 26 21Z" stroke="#1C1C1E" stroke-width="2" stroke-linecap="round" stroke-linejoin="round"/>
<path d="M26 12H6C5.44772 12 5 12.4477 5 13V16C5 16.5523 5.44772 17 6 17H26C26.5523 17 27 16.5523 27 16V13C27 12.4477 26.5523 12 26 12Z" stroke="#1C1C1E" stroke-width="2" stroke-linecap="round" stroke-linejoin="round"/>
<path d="M13 5H19" stroke="#1C1C1E" stroke-width="2" stroke-linecap="round" stroke-linejoin="round"/>
<path d="M16 2V8" stroke="#1C1C1E" stroke-width="2" stroke-linecap="round" stroke-linejoin="round"/>
</svg>
