<svg width="32" height="32" viewBox="0 0 32 32" fill="none" xmlns="http://www.w3.org/2000/svg">
<path d="M5.5 25C7.433 25 9 23.433 9 21.5C9 19.567 7.433 18 5.5 18C3.567 18 2 19.567 2 21.5C2 23.433 3.567 25 5.5 25Z" stroke="#1C1C1E" stroke-width="2" stroke-linecap="round" stroke-linejoin="round"/>
<path d="M26.5 25C28.433 25 30 23.433 30 21.5C30 19.567 28.433 18 26.5 18C24.567 18 23 19.567 23 21.5C23 23.433 24.567 25 26.5 25Z" stroke="#1C1C1E" stroke-width="2" stroke-linecap="round" stroke-linejoin="round"/>
<path d="M17 5H21L25.3925 18.1787" stroke="#1C1C1E" stroke-width="2" stroke-linecap="round" stroke-linejoin="round"/>
<path d="M23.5825 12.7462L16 22H9" stroke="#1C1C1E" stroke-width="2" stroke-linecap="round" stroke-linejoin="round"/>
</svg>
