<svg width="32" height="32" viewBox="0 0 32 32" fill="none" xmlns="http://www.w3.org/2000/svg">
<path d="M16 10L20 4L22 6V13C22.0001 13.1901 21.946 13.3762 21.844 13.5367C21.7421 13.6971 21.5965 13.8252 21.4244 13.9058C21.2523 13.9865 21.0608 14.0165 20.8723 13.9922C20.6837 13.9679 20.5061 13.8904 20.36 13.7688L16 10Z" stroke="#1C1C1E" stroke-width="2" stroke-linecap="round" stroke-linejoin="round"/>
<path d="M11.64 13.7662C11.4941 13.8878 11.3166 13.9652 11.1284 13.9896C10.9401 14.014 10.7487 13.9842 10.5767 13.9039C10.4047 13.8235 10.2591 13.6958 10.157 13.5358C10.0549 13.3757 10.0004 13.1899 10 13V6L12 4L16 10L11.64 13.7662Z" stroke="#1C1C1E" stroke-width="2" stroke-linecap="round" stroke-linejoin="round"/>
<path d="M16 10V27" stroke="#1C1C1E" stroke-width="2" stroke-linecap="round" stroke-linejoin="round"/>
<path d="M22 6H25C25.2652 6 25.5196 6.10536 25.7071 6.29289C25.8946 6.48043 26 6.73478 26 7V26C26 26.2652 25.8946 26.5196 25.7071 26.7071C25.5196 26.8946 25.2652 27 25 27H7C6.73478 27 6.48043 26.8946 6.29289 26.7071C6.10536 26.5196 6 26.2652 6 26V7C6 6.73478 6.10536 6.48043 6.29289 6.29289C6.48043 6.10536 6.73478 6 7 6H10" stroke="#1C1C1E" stroke-width="2" stroke-linecap="round" stroke-linejoin="round"/>
<path d="M12 4H20" stroke="#1C1C1E" stroke-width="2" stroke-linecap="round" stroke-linejoin="round"/>
</svg>
