<svg width="32" height="32" viewBox="0 0 32 32" fill="none" xmlns="http://www.w3.org/2000/svg">
<path d="M20.5002 16.2074L24.9727 18.8986C25.0872 18.9692 25.2199 19.0044 25.3544 18.9999C25.4888 18.9953 25.6188 18.9511 25.7282 18.8728C25.8375 18.7945 25.9214 18.6857 25.9691 18.56C26.0168 18.4343 26.0264 18.2973 25.9965 18.1661L24.7802 13.1424L28.7602 9.78238C28.8625 9.69618 28.9368 9.58144 28.9735 9.45282C29.0102 9.32421 29.0078 9.18756 28.9664 9.06034C28.9251 8.93313 28.8468 8.82113 28.7415 8.73866C28.6362 8.65619 28.5086 8.607 28.3752 8.59738L23.1515 8.18363L21.139 3.41613C21.0857 3.29257 20.9974 3.18731 20.885 3.11336C20.7726 3.03941 20.641 3 20.5065 3C20.3719 3 20.2403 3.03941 20.1279 3.11336C20.0155 3.18731 19.9272 3.29257 19.874 3.41613L17.8615 8.18363L12.6377 8.59738C12.5038 8.60588 12.3755 8.65426 12.2693 8.73629C12.163 8.81832 12.0838 8.93025 12.0417 9.05769C11.9996 9.18513 11.9967 9.32224 12.0331 9.45138C12.0696 9.58053 12.1439 9.69581 12.2465 9.78238L16.2265 13.1424L15.0002 18.1661C14.9704 18.2973 14.9799 18.4343 15.0276 18.56C15.0753 18.6857 15.1592 18.7945 15.2685 18.8728C15.3779 18.9511 15.5079 18.9953 15.6423 18.9999C15.7768 19.0044 15.9095 18.9692 16.024 18.8986L20.5002 16.2074Z" stroke="#1C1C1E" stroke-width="2" stroke-linecap="round" stroke-linejoin="round"/>
<path d="M10.3062 14.6938L3 22.0001" stroke="#1C1C1E" stroke-width="2" stroke-linecap="round" stroke-linejoin="round"/>
<path d="M11.6575 22.3425L5 29" stroke="#1C1C1E" stroke-width="2" stroke-linecap="round" stroke-linejoin="round"/>
<path d="M20.785 22.2151L14 29.0001" stroke="#1C1C1E" stroke-width="2" stroke-linecap="round" stroke-linejoin="round"/>
</svg>
