<svg width="32" height="32" viewBox="0 0 32 32" fill="none" xmlns="http://www.w3.org/2000/svg">
<path d="M11 29C12.1046 29 13 28.1046 13 27C13 25.8954 12.1046 25 11 25C9.89543 25 9 25.8954 9 27C9 28.1046 9.89543 29 11 29Z" fill="#1C1C1E"/>
<path d="M24 29C25.1046 29 26 28.1046 26 27C26 25.8954 25.1046 25 24 25C22.8954 25 22 25.8954 22 27C22 28.1046 22.8954 29 24 29Z" fill="#1C1C1E"/>
<path d="M2 4H5L9.59375 20.535C9.71066 20.9561 9.96229 21.3273 10.3101 21.5919C10.658 21.8565 11.083 21.9998 11.52 22H23.875C24.3123 22.0001 24.7375 21.8569 25.0856 21.5923C25.4337 21.3277 25.6855 20.9563 25.8025 20.535L29 9H6.38875" stroke="#1C1C1E" stroke-width="2" stroke-linecap="round" stroke-linejoin="round"/>
</svg>
