<svg width="32" height="32" viewBox="0 0 32 32" fill="none" xmlns="http://www.w3.org/2000/svg">
<path d="M14 19V10" stroke="#1C1C1E" stroke-width="2" stroke-linecap="round" stroke-linejoin="round"/>
<path d="M18.5 16C19.3284 16 20 15.3284 20 14.5C20 13.6716 19.3284 13 18.5 13C17.6716 13 17 13.6716 17 14.5C17 15.3284 17.6716 16 18.5 16Z" fill="#1C1C1E"/>
<path d="M14 24V28" stroke="#1C1C1E" stroke-width="2" stroke-linecap="round" stroke-linejoin="round"/>
<path d="M14 3C14 3.53043 14.2107 4.03914 14.5858 4.41421C14.9609 4.78929 15.4696 5 16 5H26.5C27.163 5 27.7989 5.26339 28.2678 5.73223C28.7366 6.20107 29 6.83696 29 7.5C29 8.16304 28.7366 8.79893 28.2678 9.26777C27.7989 9.73661 27.163 10 26.5 10" stroke="#1C1C1E" stroke-width="2" stroke-linecap="round" stroke-linejoin="round"/>
<path d="M21 24H14C13.337 24 12.7011 23.7366 12.2322 23.2678C11.7634 22.7989 11.5 22.163 11.5 21.5C11.5 20.837 11.7634 20.2011 12.2322 19.7322C12.7011 19.2634 13.337 19 14 19H18C20.3869 19 22.6761 18.0518 24.364 16.364C26.0518 14.6761 27 12.3869 27 10H12C9.61305 10 7.32387 10.9482 5.63604 12.636C3.94821 14.3239 3 16.6131 3 19C3 21.3869 3.94821 23.6761 5.63604 25.364C7.32387 27.0518 9.61305 28 12 28H19" stroke="#1C1C1E" stroke-width="2" stroke-linecap="round" stroke-linejoin="round"/>
<path d="M11.9496 20.0687L3.44336 16.2012" stroke="#1C1C1E" stroke-width="2" stroke-linecap="round" stroke-linejoin="round"/>
<path d="M11.5864 22.1526L6.27637 25.9451" stroke="#1C1C1E" stroke-width="2" stroke-linecap="round" stroke-linejoin="round"/>
</svg>
