<svg width="32" height="32" viewBox="0 0 32 32" fill="none" xmlns="http://www.w3.org/2000/svg">
<path d="M21 19C19.9625 20.7938 18.2213 22 16 22C13.7787 22 12.0375 20.7938 11 19" stroke="#1C1C1E" stroke-width="2" stroke-linecap="round" stroke-linejoin="round"/>
<path d="M19.5278 27.4735C16.9699 28.258 14.2231 28.1642 11.7246 27.2071C9.22613 26.25 7.11968 24.4846 5.74058 22.1919C4.36149 19.8992 3.78903 17.211 4.11435 14.5553C4.43968 11.8997 5.64407 9.42916 7.5358 7.53713C9.42753 5.64511 11.8978 4.44032 14.5535 4.11458C17.2091 3.78884 19.8973 4.36088 22.1902 5.73961C24.4832 7.11834 26.2489 9.22452 27.2065 11.7228C28.164 14.2211 28.2582 16.968 27.4741 19.526L19.5278 27.4735Z" stroke="#1C1C1E" stroke-width="2" stroke-linecap="round" stroke-linejoin="round"/>
<path d="M11.5 15C12.3284 15 13 14.3284 13 13.5C13 12.6716 12.3284 12 11.5 12C10.6716 12 10 12.6716 10 13.5C10 14.3284 10.6716 15 11.5 15Z" fill="#1C1C1E"/>
<path d="M20.5 15C21.3284 15 22 14.3284 22 13.5C22 12.6716 21.3284 12 20.5 12C19.6716 12 19 12.6716 19 13.5C19 14.3284 19.6716 15 20.5 15Z" fill="#1C1C1E"/>
</svg>
