<svg width="32" height="32" viewBox="0 0 32 32" fill="none" xmlns="http://www.w3.org/2000/svg">
<path d="M20.9998 10C19.1433 10 17.3628 9.2625 16.0501 7.94975C14.7373 6.63699 13.9998 4.85652 13.9998 3L4.37484 10.3013C4.26595 10.3894 4.17678 10.4994 4.11313 10.6242C4.04947 10.749 4.01274 10.8857 4.00531 11.0256C3.99789 11.1655 4.01994 11.3054 4.07003 11.4362C4.12012 11.567 4.19714 11.6858 4.29609 11.785L18.5073 26H27.9998C28.2651 26 28.5194 25.8946 28.7069 25.7071C28.8945 25.5196 28.9998 25.2652 28.9998 25V22.6175C28.9997 22.4319 28.948 22.2501 28.8504 22.0922C28.7529 21.9344 28.6133 21.8068 28.4473 21.7237L24.8748 19.935C23.711 19.3544 22.732 18.461 22.0476 17.3551C21.3631 16.2491 21.0003 14.9744 20.9998 13.6737V10Z" stroke="#1C1C1E" stroke-width="2" stroke-linecap="round" stroke-linejoin="round"/>
<path d="M12.1639 14.0002L6.7002 8.53516" stroke="#1C1C1E" stroke-width="2" stroke-linecap="round" stroke-linejoin="round"/>
<path d="M4 22H8.85" stroke="#1C1C1E" stroke-width="2" stroke-linecap="round" stroke-linejoin="round"/>
<path d="M6 26H12.85" stroke="#1C1C1E" stroke-width="2" stroke-linecap="round" stroke-linejoin="round"/>
</svg>
