<svg width="32" height="32" viewBox="0 0 32 32" fill="none" xmlns="http://www.w3.org/2000/svg">
<path d="M16 3C16 3 4 9 4 17C3.99987 18.1519 4.33134 19.2795 4.95482 20.2482C5.57829 21.2168 6.46742 21.9854 7.51599 22.4623C8.56457 22.9392 9.72826 23.1042 10.8681 22.9376C12.0079 22.7709 13.0756 22.2797 13.9438 21.5225L12 28H20L18.0562 21.5225C18.9244 22.2797 19.9921 22.7709 21.1319 22.9376C22.2717 23.1042 23.4354 22.9392 24.484 22.4623C25.5326 21.9854 26.4217 21.2168 27.0452 20.2482C27.6687 19.2795 28.0001 18.1519 28 17C28 9 16 3 16 3Z" stroke="#1C1C1E" stroke-width="2" stroke-linecap="round" stroke-linejoin="round"/>
</svg>
