<svg width="32" height="32" viewBox="0 0 32 32" fill="none" xmlns="http://www.w3.org/2000/svg">
<path d="M9.5 24C10.3284 24 11 23.3284 11 22.5C11 21.6716 10.3284 21 9.5 21C8.67157 21 8 21.6716 8 22.5C8 23.3284 8.67157 24 9.5 24Z" fill="#1C1C1E"/>
<path d="M13.8547 23.2813C13.7563 23.8608 13.5444 24.4152 13.2311 24.9126C12.9179 25.4101 12.5094 25.8407 12.0293 26.1799C11.5491 26.519 11.0067 26.76 10.4332 26.8889C9.8597 27.0179 9.26635 27.0323 8.68725 26.9313C7.51755 26.7168 6.48032 26.0479 5.80224 25.071C5.12416 24.094 4.86037 22.8884 5.0685 21.7175L8.1935 3.82629C8.23962 3.56708 8.38611 3.3365 8.60118 3.18462C8.81624 3.03274 9.08253 2.97181 9.34225 3.01504L16.176 4.23129C16.4359 4.27879 16.6664 4.42717 16.8172 4.64404C16.968 4.86091 17.0269 5.12865 16.981 5.38879L13.8547 23.2813Z" stroke="#1C1C1E" stroke-width="2" stroke-linecap="round" stroke-linejoin="round"/>
<path d="M29 19.5239V26.0002C29 26.2654 28.8946 26.5197 28.7071 26.7073C28.5196 26.8948 28.2652 27.0002 28 27.0002H9.5" stroke="#1C1C1E" stroke-width="2" stroke-linecap="round" stroke-linejoin="round"/>
<path d="M15.1775 15.7199L25.2763 12.0599C25.5244 11.9703 25.798 11.9824 26.0373 12.0936C26.2766 12.2049 26.4622 12.4062 26.5537 12.6537L28.94 19.1799C28.9845 19.3025 29.0044 19.4327 28.9986 19.563C28.9927 19.6933 28.9612 19.8212 28.9058 19.9393C28.8504 20.0574 28.7722 20.1634 28.6758 20.2512C28.5793 20.3391 28.4665 20.407 28.3438 20.4512L11.02 26.7299C10.5333 26.9091 10.0186 27.0005 9.5 26.9999" stroke="#1C1C1E" stroke-width="2" stroke-linecap="round" stroke-linejoin="round"/>
</svg>
