<svg width="32" height="32" viewBox="0 0 32 32" fill="none" xmlns="http://www.w3.org/2000/svg">
<path d="M20 27V15.2775C20.0001 15.0961 19.9508 14.9181 19.8575 14.7625L17.2913 10.485C17.2023 10.337 17.0766 10.2146 16.9264 10.1296C16.7761 10.0446 16.6064 9.99995 16.4338 10H9.56625C9.39361 9.99995 9.2239 10.0446 9.07363 10.1296C8.92336 10.2146 8.79766 10.337 8.70875 10.485L6.1425 14.7625C6.04917 14.9181 5.99991 15.0961 6 15.2775V27C6 27.2652 6.10536 27.5196 6.29289 27.7071C6.48043 27.8946 6.73478 28 7 28H19C19.2652 28 19.5196 27.8946 19.7071 27.7071C19.8946 27.5196 20 27.2652 20 27Z" stroke="#1C1C1E" stroke-width="2" stroke-linecap="round" stroke-linejoin="round"/>
<path d="M28 21C27.2044 21 26.4413 20.6839 25.8787 20.1213C25.3161 19.5587 25 18.7956 25 18V8C25 6.4087 24.3679 4.88258 23.2426 3.75736C22.1174 2.63214 20.5913 2 19 2C17.4087 2 15.8826 2.63214 14.7574 3.75736C13.6321 4.88258 13 6.4087 13 8V17" stroke="#1C1C1E" stroke-width="2" stroke-linecap="round" stroke-linejoin="round"/>
</svg>
