<svg width="32" height="32" viewBox="0 0 32 32" fill="none" xmlns="http://www.w3.org/2000/svg">
<path d="M24 15H27.5425C27.7342 15.0018 27.9228 14.9513 28.088 14.8539C28.2532 14.7566 28.3887 14.6161 28.48 14.4475L30.8888 9.84625C31.0077 9.61663 31.0306 9.3492 30.9526 9.10266C30.8746 8.85612 30.7019 8.65062 30.4725 8.53125L24 5" stroke="#1C1C1E" stroke-width="2" stroke-linecap="round" stroke-linejoin="round"/>
<path d="M8.00007 15H4.45757C4.26585 15.0018 4.07727 14.9513 3.91209 14.8539C3.74691 14.7566 3.61139 14.6161 3.52007 14.4475L1.11132 9.84625C0.992395 9.61663 0.969431 9.3492 1.04747 9.10266C1.12551 8.85612 1.29818 8.65062 1.52757 8.53125L8.00007 5" stroke="#1C1C1E" stroke-width="2" stroke-linecap="round" stroke-linejoin="round"/>
<path d="M20 5C20 6.06087 19.5786 7.07828 18.8284 7.82843C18.0783 8.57857 17.0609 9 16 9C14.9391 9 13.9217 8.57857 13.1716 7.82843C12.4214 7.07828 12 6.06087 12 5H8V26C8 26.2652 8.10536 26.5196 8.29289 26.7071C8.48043 26.8946 8.73478 27 9 27H23C23.2652 27 23.5196 26.8946 23.7071 26.7071C23.8946 26.5196 24 26.2652 24 26V5H20Z" stroke="#1C1C1E" stroke-width="2" stroke-linecap="round" stroke-linejoin="round"/>
</svg>
