<svg width="32" height="32" viewBox="0 0 32 32" fill="none" xmlns="http://www.w3.org/2000/svg">
<path d="M8.5 12L11.5 20L14.5 12" stroke="#1C1C1E" stroke-width="2" stroke-linecap="round" stroke-linejoin="round"/>
<path d="M22 7H10C5.02944 7 1 11.0294 1 16C1 20.9706 5.02944 25 10 25H22C26.9706 25 31 20.9706 31 16C31 11.0294 26.9706 7 22 7Z" stroke="#1C1C1E" stroke-width="2" stroke-linecap="round" stroke-linejoin="round"/>
<path d="M18 17H20.5C21.163 17 21.7989 16.7366 22.2678 16.2678C22.7366 15.7989 23 15.163 23 14.5C23 13.837 22.7366 13.2011 22.2678 12.7322C21.7989 12.2634 21.163 12 20.5 12H18V20" stroke="#1C1C1E" stroke-width="2" stroke-linecap="round" stroke-linejoin="round"/>
<path d="M22.9996 20L21.2246 16.8937" stroke="#1C1C1E" stroke-width="2" stroke-linecap="round" stroke-linejoin="round"/>
</svg>
