<svg width="32" height="32" viewBox="0 0 32 32" fill="none" xmlns="http://www.w3.org/2000/svg">
<path d="M16 27C22.0751 27 27 22.0751 27 16C27 9.92487 22.0751 5 16 5C9.92487 5 5 9.92487 5 16C5 22.0751 9.92487 27 16 27Z" stroke="#1C1C1E" stroke-width="2" stroke-linecap="round" stroke-linejoin="round"/>
<path d="M13.5 16C14.8807 16 16 14.8807 16 13.5C16 12.1193 14.8807 11 13.5 11C12.1193 11 11 12.1193 11 13.5C11 14.8807 12.1193 16 13.5 16Z" stroke="#1C1C1E" stroke-width="2" stroke-linecap="round" stroke-linejoin="round"/>
<path d="M22 18C23.1046 18 24 17.1046 24 16C24 14.8954 23.1046 14 22 14C20.8954 14 20 14.8954 20 16C20 17.1046 20.8954 18 22 18Z" fill="#1C1C1E"/>
<path d="M16 24C17.1046 24 18 23.1046 18 22C18 20.8954 17.1046 20 16 20C14.8954 20 14 20.8954 14 22C14 23.1046 14.8954 24 16 24Z" fill="#1C1C1E"/>
<path d="M16 2V5" stroke="#1C1C1E" stroke-width="2" stroke-linecap="round" stroke-linejoin="round"/>
<path d="M30 16H27" stroke="#1C1C1E" stroke-width="2" stroke-linecap="round" stroke-linejoin="round"/>
<path d="M2 16H5" stroke="#1C1C1E" stroke-width="2" stroke-linecap="round" stroke-linejoin="round"/>
<path d="M16 27V30" stroke="#1C1C1E" stroke-width="2" stroke-linecap="round" stroke-linejoin="round"/>
<path d="M6 6L8.22125 8.22125" stroke="#1C1C1E" stroke-width="2" stroke-linecap="round" stroke-linejoin="round"/>
<path d="M23.7783 8.22125L25.9996 6" stroke="#1C1C1E" stroke-width="2" stroke-linecap="round" stroke-linejoin="round"/>
<path d="M25.9996 26.0001L23.7783 23.7788" stroke="#1C1C1E" stroke-width="2" stroke-linecap="round" stroke-linejoin="round"/>
<path d="M6 26.0001L8.22125 23.7788" stroke="#1C1C1E" stroke-width="2" stroke-linecap="round" stroke-linejoin="round"/>
</svg>
