<svg width="32" height="32" viewBox="0 0 32 32" fill="none" xmlns="http://www.w3.org/2000/svg">
<path d="M16 22V26" stroke="#1C1C1E" stroke-width="2" stroke-linecap="round" stroke-linejoin="round"/>
<path d="M6 5L26 27" stroke="#1C1C1E" stroke-width="2" stroke-linecap="round" stroke-linejoin="round"/>
<path d="M20.4078 20.8489C18.6322 21.8472 16.5705 22.2136 14.5597 21.8883C12.5489 21.563 10.7079 20.5651 9.33765 19.0579C7.96742 17.5507 7.14902 15.6232 7.01623 13.5906C6.88343 11.5579 7.44408 9.54037 8.60655 7.86768" stroke="#1C1C1E" stroke-width="2" stroke-linecap="round" stroke-linejoin="round"/>
<path d="M11.5596 5.1699C13.3372 4.15839 15.4064 3.78253 17.4262 4.10423C19.446 4.42594 21.296 5.42602 22.6715 6.93974C24.0469 8.45346 24.8658 10.3905 24.9931 12.4318C25.1205 14.4732 24.5487 16.497 23.3721 18.1699" stroke="#1C1C1E" stroke-width="2" stroke-linecap="round" stroke-linejoin="round"/>
<path d="M15.125 9.09505C15.8141 8.94087 16.5317 8.97185 17.205 9.18486C17.8782 9.39787 18.4831 9.78531 18.9581 10.3078C19.4331 10.8303 19.7614 11.4692 19.9094 12.1597C20.0575 12.8501 20.0202 13.5675 19.8013 14.2388" stroke="#1C1C1E" stroke-width="2" stroke-linecap="round" stroke-linejoin="round"/>
<path d="M4 26H25.0912" stroke="#1C1C1E" stroke-width="2" stroke-linecap="round" stroke-linejoin="round"/>
<path d="M16.8298 16.9138C16.1461 17.0591 15.4363 17.0228 14.7711 16.8084C14.1058 16.594 13.5084 16.209 13.0382 15.6918C12.5681 15.1746 12.2417 14.5433 12.0915 13.8607C11.9413 13.1781 11.9726 12.468 12.1823 11.8013" stroke="#1C1C1E" stroke-width="2" stroke-linecap="round" stroke-linejoin="round"/>
</svg>
