<svg width="32" height="32" viewBox="0 0 32 32" fill="none" xmlns="http://www.w3.org/2000/svg">
<path d="M22 9C23.6569 9 25 7.65685 25 6C25 4.34315 23.6569 3 22 3C20.3431 3 19 4.34315 19 6C19 7.65685 20.3431 9 22 9Z" stroke="#1C1C1E" stroke-width="2" stroke-linecap="round" stroke-linejoin="round"/>
<path d="M20 21C20 22.3845 19.5895 23.7378 18.8203 24.889C18.0511 26.0401 16.9579 26.9373 15.6788 27.4672C14.3997 27.997 12.9922 28.1356 11.6344 27.8655C10.2765 27.5954 9.02922 26.9287 8.05026 25.9497C7.07129 24.9708 6.4046 23.7235 6.13451 22.3656C5.86441 21.0078 6.00303 19.6003 6.53285 18.3212C7.06266 17.0421 7.95987 15.9489 9.11101 15.1797C10.2622 14.4105 11.6155 14 13 14" stroke="#1C1C1E" stroke-width="2" stroke-linecap="round" stroke-linejoin="round"/>
<path d="M6 12.5142C7.80643 11.0237 10.0414 10.1488 12.3796 10.0166C14.7177 9.88437 17.0371 10.5019 19 11.7792L16 17.0004H25L23 27.0004" stroke="#1C1C1E" stroke-width="2" stroke-linecap="round" stroke-linejoin="round"/>
</svg>
