<svg width="32" height="32" viewBox="0 0 32 32" fill="none" xmlns="http://www.w3.org/2000/svg">
<path d="M6 5L26 27" stroke="#1C1C1E" stroke-width="2" stroke-linecap="round" stroke-linejoin="round"/>
<path d="M16 27C16.8284 27 17.5 26.3284 17.5 25.5C17.5 24.6716 16.8284 24 16 24C15.1716 24 14.5 24.6716 14.5 25.5C14.5 26.3284 15.1716 27 16 27Z" fill="#1C1C1E"/>
<path d="M8.95 8.25C6.78955 9.04005 4.77796 10.1891 3 11.6488" stroke="#1C1C1E" stroke-width="2" stroke-linecap="round" stroke-linejoin="round"/>
<path d="M29 11.6488C25.3381 8.63639 20.7417 6.99275 16 7.00002C15.1224 6.9997 14.2456 7.05523 13.375 7.16627" stroke="#1C1C1E" stroke-width="2" stroke-linecap="round" stroke-linejoin="round"/>
<path d="M13.4725 13.2197C11.1069 13.6344 8.88219 14.6329 7 16.1247" stroke="#1C1C1E" stroke-width="2" stroke-linecap="round" stroke-linejoin="round"/>
<path d="M24.9996 16.1246C23.2323 14.7225 21.1612 13.7537 18.9521 13.2959" stroke="#1C1C1E" stroke-width="2" stroke-linecap="round" stroke-linejoin="round"/>
<path d="M19.3512 19.6863C17.997 19.1069 16.5155 18.8887 15.0517 19.0533C13.5879 19.2178 12.1918 19.7594 11 20.6251" stroke="#1C1C1E" stroke-width="2" stroke-linecap="round" stroke-linejoin="round"/>
</svg>
