<svg width="32" height="32" viewBox="0 0 32 32" fill="none" xmlns="http://www.w3.org/2000/svg">
<path d="M16 23V30" stroke="#1C1C1E" stroke-width="2" stroke-linecap="round" stroke-linejoin="round"/>
<path d="M11 30H21" stroke="#1C1C1E" stroke-width="2" stroke-linecap="round" stroke-linejoin="round"/>
<path d="M10.0115 4H21.989L24.7127 13.2413C25.0814 14.4803 25.0988 15.7974 24.7628 17.0457C24.4269 18.294 23.7509 19.4246 22.8102 20.3113C20.963 22.04 18.5277 23.0018 15.9977 23.0018C13.4678 23.0018 11.0324 22.04 9.18523 20.3113C8.24562 19.4238 7.57075 18.2931 7.23573 17.0448C6.90072 15.7966 6.91872 14.4799 7.28773 13.2413L10.0115 4Z" stroke="#1C1C1E" stroke-width="2" stroke-linecap="round" stroke-linejoin="round"/>
<path d="M7.48242 12.5774C9.06117 11.9012 11.8999 11.4249 15.9999 13.4999C20.4824 15.7699 23.4587 14.9862 24.9274 14.2299" stroke="#1C1C1E" stroke-width="2" stroke-linecap="round" stroke-linejoin="round"/>
</svg>
