<svg width="32" height="32" viewBox="0 0 32 32" fill="none" xmlns="http://www.w3.org/2000/svg">
<path d="M28.6391 8.8525C28.4546 8.58913 28.2094 8.37413 27.9241 8.22572C27.6388 8.07732 27.322 7.99989 27.0004 8H17.0004V4H19.0004C19.2656 4 19.52 3.89464 19.7075 3.70711C19.895 3.51957 20.0004 3.26522 20.0004 3C20.0004 2.73478 19.895 2.48043 19.7075 2.29289C19.52 2.10536 19.2656 2 19.0004 2H13.0004C12.7352 2 12.4808 2.10536 12.2933 2.29289C12.1058 2.48043 12.0004 2.73478 12.0004 3C12.0004 3.26522 12.1058 3.51957 12.2933 3.70711C12.4808 3.89464 12.7352 4 13.0004 4H15.0004V8H5.00039C4.67928 8.00072 4.36306 8.07875 4.07847 8.2275C3.79388 8.37624 3.54929 8.59132 3.36538 8.85456C3.18147 9.11779 3.06365 9.42144 3.02188 9.73983C2.98011 10.0582 3.01561 10.382 3.12539 10.6838L6.39914 19.6838C6.53922 20.0688 6.79417 20.4015 7.12952 20.6369C7.46486 20.8723 7.86442 20.9991 8.27414 21H23.7279C24.1376 20.9991 24.5372 20.8723 24.8725 20.6369C25.2079 20.4015 25.4628 20.0688 25.6029 19.6838L28.8766 10.6838C28.9871 10.3819 29.0232 10.0578 28.9819 9.73907C28.9405 9.4203 28.823 9.11619 28.6391 8.8525ZM12.8154 18.9837C12.756 18.9947 12.6958 19.0001 12.6354 19C12.4014 18.9997 12.175 18.9173 11.9955 18.7673C11.8159 18.6172 11.6947 18.409 11.6529 18.1787L10.3754 11.1788C10.328 10.9177 10.3862 10.6485 10.5373 10.4303C10.6884 10.2122 10.9199 10.063 11.181 10.0156C11.4421 9.96822 11.7113 10.0265 11.9294 10.1775C12.1476 10.3286 12.2967 10.5602 12.3441 10.8212L13.6166 17.8213C13.6641 18.0816 13.6064 18.3502 13.4562 18.5681C13.306 18.786 13.0756 18.9354 12.8154 18.9837ZM21.6254 11.1788L20.3516 18.1787C20.3098 18.409 20.1886 18.6172 20.0091 18.7673C19.8296 18.9173 19.6031 18.9997 19.3691 19C19.3088 19.0001 19.2485 18.9947 19.1891 18.9837C18.9283 18.9363 18.6969 18.7872 18.5459 18.5692C18.395 18.3512 18.3368 18.0822 18.3841 17.8213L19.6566 10.8212C19.7041 10.5602 19.8532 10.3286 20.0714 10.1775C20.2895 10.0265 20.5587 9.96822 20.8198 10.0156C21.0808 10.063 21.3124 10.2122 21.4635 10.4303C21.6146 10.6485 21.6728 10.9177 21.6254 11.1788ZM20.0004 23.5V29C20.0004 29.2652 19.895 29.5196 19.7075 29.7071C19.52 29.8946 19.2656 30 19.0004 30H13.0004C12.7352 30 12.4808 29.8946 12.2933 29.7071C12.1058 29.5196 12.0004 29.2652 12.0004 29V23.5C12.0004 23.3674 12.0531 23.2402 12.1468 23.1464C12.2406 23.0527 12.3678 23 12.5004 23H19.5004C19.633 23 19.7602 23.0527 19.8539 23.1464C19.9477 23.2402 20.0004 23.3674 20.0004 23.5Z" fill="#1C1C1E"/>
</svg>
