<svg width="32" height="32" viewBox="0 0 32 32" fill="none" xmlns="http://www.w3.org/2000/svg">
<path d="M26.9397 24.658C27.0047 24.8368 27.0174 25.0304 26.9762 25.2162C26.935 25.402 26.8417 25.5721 26.7072 25.7067L23.7072 28.7067C23.6143 28.7998 23.5041 28.8736 23.3827 28.924C23.2613 28.9744 23.1311 29.0004 22.9997 29.0005C22.9668 29.0023 22.9338 29.0023 22.9009 29.0005C22.7537 28.986 22.6115 28.939 22.4846 28.8629C22.3577 28.7868 22.2493 28.6835 22.1672 28.5605L16.6584 20.2955L13.9997 22.9492V26.0005C13.9995 26.2653 13.8944 26.5193 13.7072 26.7067C13.7072 26.7067 11.9572 28.4642 11.7222 28.6917C11.6245 28.794 11.506 28.8741 11.3747 28.9267C11.1299 29.0264 10.8557 29.0252 10.6119 28.9233C10.368 28.8214 10.1745 28.6271 10.0734 28.383L10.0659 28.3642L8.22842 23.7692L3.62467 21.928C3.47109 21.8665 3.33515 21.7679 3.22903 21.6411C3.1229 21.5142 3.04991 21.363 3.01659 21.2009C2.98327 21.0389 2.99066 20.8712 3.0381 20.7127C3.08554 20.5542 3.17155 20.41 3.28842 20.293L5.28842 18.293C5.3818 18.1997 5.49273 18.1258 5.6148 18.0756C5.73687 18.0254 5.86768 17.9999 5.99967 18.0005H9.04967L11.7084 15.3417L3.44467 9.8317C3.32141 9.74965 3.21792 9.64126 3.14166 9.51435C3.06539 9.38743 3.01826 9.24517 3.00367 9.09782C2.98908 8.95048 3.00739 8.80173 3.05728 8.66232C3.10718 8.52292 3.1874 8.39633 3.29217 8.2917L6.29217 5.2917C6.42675 5.15719 6.59691 5.06386 6.78267 5.02268C6.96844 4.98149 7.1621 4.99416 7.34092 5.0592L18.0834 8.96545L22.0247 5.0242C22.6811 4.36779 23.5714 3.99902 24.4997 3.99902C24.9593 3.99902 25.4145 4.08956 25.8391 4.26546C26.2638 4.44136 26.6496 4.69918 26.9747 5.0242C27.2997 5.34922 27.5575 5.73508 27.7334 6.15974C27.9093 6.5844 27.9998 7.03955 27.9998 7.4992C27.9998 7.95885 27.9093 8.414 27.7334 8.83866C27.5575 9.26332 27.2997 9.64918 26.9747 9.9742L23.0334 13.9155L26.9397 24.658Z" fill="#1C1C1E"/>
</svg>
