<svg width="32" height="32" viewBox="0 0 32 32" fill="none" xmlns="http://www.w3.org/2000/svg">
<path d="M21.9997 27.0002C21.9997 27.2655 21.8944 27.5198 21.7068 27.7073C21.5193 27.8949 21.265 28.0002 20.9997 28.0002H2.99974C2.73452 28.0002 2.48017 27.8949 2.29263 27.7073C2.1051 27.5198 1.99974 27.2655 1.99974 27.0002C1.99974 26.735 2.1051 26.4807 2.29263 26.2931C2.48017 26.1056 2.73452 26.0002 2.99974 26.0002H20.9997C21.265 26.0002 21.5193 26.1056 21.7068 26.2931C21.8944 26.4807 21.9997 26.735 21.9997 27.0002ZM30.7885 10.8452L28.4585 7.85899L28.4435 7.84024C27.69 6.91215 26.6277 6.28623 25.4507 6.07691C24.2737 5.86759 23.0608 6.08885 22.0335 6.70024L15.5872 10.5477L8.84474 8.06774C8.6194 7.98372 8.37133 7.98372 8.14599 8.06774L7.24974 8.40899L7.20974 8.42524C6.90312 8.55685 6.63431 8.76309 6.42778 9.02516C6.22126 9.28724 6.08358 9.59682 6.02729 9.92571C5.97101 10.2546 5.9979 10.5923 6.10553 10.9082C6.21315 11.224 6.39809 11.5079 6.64349 11.734L9.37474 14.3827L6.85349 15.9077L3.32099 14.7152C3.07098 14.631 2.79781 14.649 2.56099 14.7652L2.18599 14.949C1.88597 15.0831 1.62361 15.289 1.4221 15.5486C1.2206 15.8081 1.08616 16.1134 1.03067 16.4373C0.975184 16.7612 1.00036 17.0937 1.10398 17.4056C1.20759 17.7174 1.38645 17.999 1.62474 18.2252L6.12474 22.634L6.13974 22.649C7.06151 23.5202 8.28138 24.0063 9.54974 24.0077C10.4401 24.0063 11.3142 23.7682 12.0822 23.3177L30.5085 12.3177C30.6301 12.2451 30.7348 12.1474 30.8158 12.0312C30.8969 11.915 30.9522 11.7829 30.9784 11.6437C31.0045 11.5045 31.0007 11.3613 30.9673 11.2237C30.934 11.086 30.8717 10.957 30.7847 10.8452H30.7885Z" fill="#1C1C1E"/>
</svg>
