<svg width="32" height="32" viewBox="0 0 32 32" fill="none" xmlns="http://www.w3.org/2000/svg">
<path d="M32 26.9997C32 27.2649 31.8946 27.5193 31.7071 27.7068C31.5196 27.8944 31.2652 27.9997 31 27.9997H13C12.7348 27.9997 12.4804 27.8944 12.2929 27.7068C12.1054 27.5193 12 27.2649 12 26.9997C12 26.7345 12.1054 26.4802 12.2929 26.2926C12.4804 26.1051 12.7348 25.9997 13 25.9997H31C31.2652 25.9997 31.5196 26.1051 31.7071 26.2926C31.8946 26.4802 32 26.7345 32 26.9997ZM29 23.9997C29.2652 23.9997 29.5196 23.8944 29.7071 23.7068C29.8946 23.5193 30 23.2649 30 22.9997V18.5397C29.9974 17.4478 29.6386 16.3866 28.978 15.5171C28.3175 14.6476 27.3913 14.0175 26.34 13.7222L18.735 11.5972L15.9225 4.89348C15.8674 4.76191 15.7848 4.64364 15.6802 4.54662C15.5757 4.44961 15.4516 4.37608 15.3162 4.33098L14.6325 4.10348C14.3319 4.00329 14.0119 3.97593 13.6987 4.02366C13.3855 4.07139 13.0881 4.19284 12.831 4.37801C12.574 4.56318 12.3646 4.80678 12.2201 5.08873C12.0756 5.37068 12.0002 5.68292 12 5.99973V9.67348L8.26625 8.60973L6.94 4.93848C6.88859 4.79639 6.80564 4.66779 6.69739 4.56235C6.58914 4.45692 6.4584 4.37738 6.315 4.32973L5.63125 4.10223C5.33067 4.00225 5.01064 3.9751 4.69751 4.02301C4.38438 4.07092 4.08711 4.19252 3.83017 4.37781C3.57324 4.56309 3.36399 4.80676 3.21966 5.08874C3.07533 5.37073 3.00004 5.68296 3 5.99973V12.9647C3.0024 14.0551 3.36012 15.1151 4.01898 15.9839C4.67784 16.8528 5.60193 17.4832 6.65125 17.7797L28.73 23.9622C28.8179 23.987 28.9087 23.9996 29 23.9997Z" fill="#1C1C1E"/>
</svg>
