<svg width="32" height="32" viewBox="0 0 32 32" fill="none" xmlns="http://www.w3.org/2000/svg">
<path d="M7.70708 4.70708L3.70708 8.70708C3.51944 8.89472 3.26494 9.00014 2.99958 9.00014C2.73422 9.00014 2.47972 8.89472 2.29208 8.70708C2.10444 8.51944 1.99902 8.26494 1.99902 7.99958C1.99902 7.73422 2.10444 7.47972 2.29208 7.29208L6.29208 3.29208C6.47972 3.10444 6.73422 2.99902 6.99958 2.99902C7.26494 2.99902 7.51944 3.10444 7.70708 3.29208C7.89472 3.47972 8.00014 3.73422 8.00014 3.99958C8.00014 4.26494 7.89472 4.51944 7.70708 4.70708ZM29.7071 7.29208L25.7071 3.29208C25.5194 3.10444 25.2649 2.99902 24.9996 2.99902C24.7342 2.99902 24.4797 3.10444 24.2921 3.29208C24.1044 3.47972 23.999 3.73422 23.999 3.99958C23.999 4.26494 24.1044 4.51944 24.2921 4.70708L28.2921 8.70708C28.385 8.79999 28.4953 8.87369 28.6167 8.92397C28.7381 8.97426 28.8682 9.00014 28.9996 9.00014C29.131 9.00014 29.2611 8.97426 29.3825 8.92397C29.5039 8.87369 29.6142 8.79999 29.7071 8.70708C29.8 8.61417 29.8737 8.50387 29.924 8.38248C29.9743 8.26108 30.0001 8.13097 30.0001 7.99958C30.0001 7.86818 29.9743 7.73808 29.924 7.61668C29.8737 7.49529 29.8 7.38499 29.7071 7.29208ZM27.9996 16.9996C27.9996 19.373 27.2958 21.693 25.9772 23.6664C24.6586 25.6398 22.7845 27.1779 20.5918 28.0861C18.3991 28.9944 15.9863 29.232 13.6585 28.769C11.3307 28.306 9.19253 27.1631 7.5143 25.4849C5.83607 23.8066 4.69318 21.6684 4.23016 19.3407C3.76713 17.0129 4.00477 14.6001 4.91302 12.4074C5.82128 10.2147 7.35935 8.34052 9.33274 7.02194C11.3061 5.70337 13.6262 4.99958 15.9996 4.99958C19.1811 5.00322 22.2312 6.26867 24.4808 8.51832C26.7305 10.768 27.9959 13.8181 27.9996 16.9996ZM23.9996 16.9996C23.9996 16.7344 23.8942 16.48 23.7067 16.2925C23.5192 16.1049 23.2648 15.9996 22.9996 15.9996H16.9996V9.99958C16.9996 9.73436 16.8942 9.48001 16.7067 9.29247C16.5192 9.10494 16.2648 8.99958 15.9996 8.99958C15.7344 8.99958 15.48 9.10494 15.2925 9.29247C15.1049 9.48001 14.9996 9.73436 14.9996 9.99958V16.9996C14.9996 17.2648 15.1049 17.5192 15.2925 17.7067C15.48 17.8942 15.7344 17.9996 15.9996 17.9996H22.9996C23.2648 17.9996 23.5192 17.8942 23.7067 17.7067C23.8942 17.5192 23.9996 17.2648 23.9996 16.9996Z" fill="#1C1C1E"/>
</svg>
