<svg width="32" height="32" viewBox="0 0 32 32" fill="none" xmlns="http://www.w3.org/2000/svg">
<path d="M29 15.0004C29 18.4482 27.6304 21.7548 25.1924 24.1927C22.7544 26.6307 19.4478 28.0004 16 28.0004C12.5522 28.0004 9.24558 26.6307 6.80761 24.1927C4.36964 21.7548 3 18.4482 3 15.0004C3 14.7351 3.10536 14.4808 3.29289 14.2932C3.48043 14.1057 3.73478 14.0004 4 14.0004H7C7.26522 14.0004 7.51957 14.1057 7.70711 14.2932C7.89464 14.4808 8 14.7351 8 15.0004C8 15.2656 7.89464 15.5199 7.70711 15.7075C7.51957 15.895 7.26522 16.0004 7 16.0004H5.045C5.28252 18.5602 6.40768 20.9565 8.22568 22.7743C10.0437 24.592 12.4401 25.7169 15 25.9541V11.3541C14.1943 11.1139 13.5021 10.5917 13.0497 9.88306C12.5974 9.1744 12.4153 8.32661 12.5367 7.49471C12.658 6.66281 13.0748 5.90239 13.7107 5.3525C14.3467 4.80261 15.1593 4.5 16 4.5C16.8407 4.5 17.6533 4.80261 18.2893 5.3525C18.9252 5.90239 19.342 6.66281 19.4633 7.49471C19.5847 8.32661 19.4026 9.1744 18.9503 9.88306C18.4979 10.5917 17.8057 11.1139 17 11.3541V25.9541C19.5599 25.7169 21.9563 24.592 23.7743 22.7743C25.5923 20.9565 26.7175 18.5602 26.955 16.0004H25C24.7348 16.0004 24.4804 15.895 24.2929 15.7075C24.1054 15.5199 24 15.2656 24 15.0004C24 14.7351 24.1054 14.4808 24.2929 14.2932C24.4804 14.1057 24.7348 14.0004 25 14.0004H28C28.2652 14.0004 28.5196 14.1057 28.7071 14.2932C28.8946 14.4808 29 14.7351 29 15.0004Z" fill="#1C1C1E"/>
</svg>
