<svg width="32" height="32" viewBox="0 0 32 32" fill="none" xmlns="http://www.w3.org/2000/svg">
<path d="M28 18.0004C28 22.7641 24.5413 23.7079 21.7625 24.4654C18.7213 25.2954 17 25.9141 17 29.0004C17 29.2656 16.8946 29.5199 16.7071 29.7075C16.5196 29.895 16.2652 30.0004 16 30.0004C15.7348 30.0004 15.4804 29.895 15.2929 29.7075C15.1054 29.5199 15 29.2656 15 29.0004C15 25.9141 13.2788 25.2954 10.2375 24.4654C7.45875 23.7079 4 22.7641 4 18.0004C4 17.7351 4.10536 17.4808 4.29289 17.2932C4.48043 17.1057 4.73478 17.0004 5 17.0004C5.26522 17.0004 5.51957 17.1057 5.70711 17.2932C5.89464 17.4808 6 17.7351 6 18.0004C6 21.0866 7.72125 21.7054 10.7625 22.5354C12.1825 22.9229 13.7775 23.3603 15 24.3279V16.0004H11C10.7348 16.0004 10.4804 15.895 10.2929 15.7075C10.1054 15.5199 10 15.2656 10 15.0004C10 14.7351 10.1054 14.4808 10.2929 14.2932C10.4804 14.1057 10.7348 14.0004 11 14.0004H15V10.3541C14.1943 10.1139 13.5021 9.59173 13.0497 8.88306C12.5974 8.1744 12.4153 7.32661 12.5367 6.49471C12.658 5.66281 13.0748 4.90239 13.7107 4.3525C14.3467 3.80261 15.1593 3.5 16 3.5C16.8407 3.5 17.6533 3.80261 18.2893 4.3525C18.9252 4.90239 19.342 5.66281 19.4633 6.49471C19.5847 7.32661 19.4026 8.1744 18.9503 8.88306C18.4979 9.59173 17.8057 10.1139 17 10.3541V14.0004H21C21.2652 14.0004 21.5196 14.1057 21.7071 14.2932C21.8946 14.4808 22 14.7351 22 15.0004C22 15.2656 21.8946 15.5199 21.7071 15.7075C21.5196 15.895 21.2652 16.0004 21 16.0004H17V24.3279C18.2225 23.3603 19.8175 22.9229 21.2375 22.5354C24.2787 21.7054 26 21.0866 26 18.0004C26 17.7351 26.1054 17.4808 26.2929 17.2932C26.4804 17.1057 26.7348 17.0004 27 17.0004C27.2652 17.0004 27.5196 17.1057 27.7071 17.2932C27.8946 17.4808 28 17.7351 28 18.0004Z" fill="#1C1C1E"/>
</svg>
