<svg width="32" height="32" viewBox="0 0 32 32" fill="none" xmlns="http://www.w3.org/2000/svg">
<path d="M25.8825 10.0833C25.79 9.99083 25.6963 9.90083 25.6025 9.81208L28.7075 6.70708C28.8004 6.61417 28.8741 6.50387 28.9244 6.38248C28.9747 6.26108 29.0006 6.13097 29.0006 5.99958C29.0006 5.86818 28.9747 5.73808 28.9244 5.61668C28.8741 5.49529 28.8004 5.38499 28.7075 5.29208C28.6146 5.19917 28.5043 5.12547 28.3829 5.07519C28.2615 5.0249 28.1314 4.99902 28 4.99902C27.8686 4.99902 27.7385 5.0249 27.6171 5.07519C27.4957 5.12547 27.3854 5.19917 27.2925 5.29208L24.0425 8.54208C21.6897 6.88587 18.8817 5.99895 16.0044 6.0032C13.1271 6.00745 10.3217 6.90267 7.97376 8.56583L4.70751 5.29208C4.51987 5.10444 4.26537 4.99902 4.00001 4.99902C3.73464 4.99902 3.48015 5.10444 3.29251 5.29208C3.10487 5.47972 2.99945 5.73422 2.99945 5.99958C2.99945 6.26494 3.10487 6.51944 3.29251 6.70708L6.42501 9.83958C5.02562 11.1654 3.91143 12.7628 3.15058 14.534C2.38973 16.3053 1.99822 18.2131 2.00001 20.1408V22.9996C2.00001 23.53 2.21072 24.0387 2.58579 24.4138C2.96087 24.7889 3.46957 24.9996 4.00001 24.9996H28C28.5304 24.9996 29.0391 24.7889 29.4142 24.4138C29.7893 24.0387 30 23.53 30 22.9996V19.9996C30.0051 18.1563 29.6438 16.3304 28.9369 14.628C28.23 12.9257 27.1918 11.3808 25.8825 10.0833ZM11.5 19.9996C11.2033 19.9996 10.9133 19.9116 10.6667 19.7468C10.42 19.582 10.2277 19.3477 10.1142 19.0736C10.0007 18.7995 9.97095 18.4979 10.0288 18.2069C10.0867 17.916 10.2296 17.6487 10.4393 17.4389C10.6491 17.2291 10.9164 17.0863 11.2074 17.0284C11.4983 16.9705 11.7999 17.0002 12.074 17.1138C12.3481 17.2273 12.5824 17.4196 12.7472 17.6662C12.912 17.9129 13 18.2029 13 18.4996C13 18.8974 12.842 19.2789 12.5607 19.5602C12.2794 19.8415 11.8978 19.9996 11.5 19.9996ZM20.5 19.9996C20.2033 19.9996 19.9133 19.9116 19.6667 19.7468C19.42 19.582 19.2277 19.3477 19.1142 19.0736C19.0007 18.7995 18.9709 18.4979 19.0288 18.2069C19.0867 17.916 19.2296 17.6487 19.4393 17.4389C19.6491 17.2291 19.9164 17.0863 20.2074 17.0284C20.4983 16.9705 20.7999 17.0002 21.074 17.1138C21.3481 17.2273 21.5824 17.4196 21.7472 17.6662C21.912 17.9129 22 18.2029 22 18.4996C22 18.8974 21.842 19.2789 21.5607 19.5602C21.2794 19.8415 20.8978 19.9996 20.5 19.9996Z" fill="#1C1C1E"/>
</svg>
