<svg width="32" height="32" viewBox="0 0 32 32" fill="none" xmlns="http://www.w3.org/2000/svg">
<path d="M16 13.0591L17.6338 16.0003H14.3663L16 13.0591ZM28.9913 9.13282L26.9913 24.1328C26.9697 24.2946 26.9089 24.4487 26.8142 24.5817C26.7194 24.7146 26.5935 24.8223 26.4475 24.8953L16.4475 29.8953C16.3086 29.9648 16.1554 30.001 16 30.001C15.8447 30.001 15.6914 29.9648 15.5525 29.8953L5.55251 24.8953C5.40652 24.8223 5.28064 24.7146 5.18586 24.5817C5.09108 24.4487 5.03027 24.2946 5.00876 24.1328L3.00876 9.13282C2.97971 8.91477 3.02336 8.69323 3.13296 8.5025C3.24256 8.31178 3.41199 8.16251 3.61501 8.07782L15.615 3.07782C15.7369 3.02646 15.8678 3 16 3C16.1323 3 16.2632 3.02646 16.385 3.07782L28.385 8.07782C28.588 8.16251 28.7575 8.31178 28.8671 8.5025C28.9767 8.69323 29.0203 8.91477 28.9913 9.13282ZM21.875 19.5153L16.875 10.5153C16.7885 10.359 16.6618 10.2287 16.5079 10.138C16.354 10.0473 16.1786 9.99944 16 9.99944C15.8214 9.99944 15.646 10.0473 15.4921 10.138C15.3383 10.2287 15.2115 10.359 15.125 10.5153L10.125 19.5153C10.0613 19.6302 10.0209 19.7566 10.006 19.8871C9.99115 20.0176 10.0021 20.1498 10.0383 20.2761C10.0746 20.4024 10.1353 20.5203 10.2171 20.6231C10.2989 20.7259 10.4001 20.8116 10.515 20.8753C10.6299 20.939 10.7562 20.9794 10.8868 20.9943C11.0173 21.0092 11.1495 20.9982 11.2758 20.962C11.4021 20.9258 11.52 20.865 11.6228 20.7833C11.7256 20.7015 11.8113 20.6002 11.875 20.4853L13.25 18.0003H18.75L20.125 20.4853C20.1887 20.6002 20.2744 20.7015 20.3772 20.7833C20.48 20.865 20.598 20.9258 20.7242 20.962C20.8505 20.9982 20.9827 21.0092 21.1132 20.9943C21.2438 20.9794 21.3701 20.939 21.485 20.8753C21.5999 20.8116 21.7012 20.7259 21.7829 20.6231C21.8647 20.5203 21.9255 20.4024 21.9617 20.2761C21.9979 20.1498 22.0089 20.0176 21.994 19.8871C21.9791 19.7566 21.9387 19.6302 21.875 19.5153Z" fill="#1C1C1E"/>
</svg>
