<svg width="32" height="32" viewBox="0 0 32 32" fill="none" xmlns="http://www.w3.org/2000/svg">
<path d="M16.029 3.75C16.3064 2.67589 16.933 1.72451 17.8104 1.04562C18.6877 0.366728 19.7659 -0.00111129 20.8753 2.52202e-06H21.0003C21.2655 2.52202e-06 21.5198 0.105359 21.7074 0.292896C21.8949 0.480432 22.0003 0.734786 22.0003 1C22.0003 1.26522 21.8949 1.51957 21.7074 1.70711C21.5198 1.89465 21.2655 2 21.0003 2H20.8753C20.2101 1.99994 19.5639 2.22093 19.038 2.62821C18.5122 3.0355 18.1366 3.60599 17.9703 4.25C17.904 4.50693 17.7383 4.727 17.5098 4.86179C17.2812 4.99658 17.0085 5.03506 16.7515 4.96875C16.4946 4.90245 16.2745 4.7368 16.1397 4.50824C16.005 4.27968 15.9665 4.00693 16.0328 3.75H16.029ZM27.9128 21.1988C27.8378 21.0274 27.7166 20.8802 27.5628 20.7738C25.4415 19.3163 25.0003 16.83 25.0003 15C25.0003 12.7913 26.684 10.8675 27.6878 9.91625C27.7865 9.8228 27.8651 9.7102 27.9189 9.58533C27.9726 9.46046 28.0003 9.32595 28.0003 9.19C28.0003 9.05406 27.9726 8.91954 27.9189 8.79467C27.8651 8.6698 27.7865 8.5572 27.6878 8.46375C26.1028 6.9675 23.4778 6 21.0003 6C19.2206 6.00159 17.4811 6.5291 16.0003 7.51625C14.2729 6.35795 12.1959 5.83776 10.1266 6.04513C8.05716 6.2525 6.1247 7.17448 4.66153 8.6525C3.78683 9.54549 3.10051 10.6052 2.64335 11.7686C2.18618 12.932 1.9675 14.1754 2.00028 15.425C2.04935 17.5342 2.51835 19.6124 3.37985 21.5383C4.24136 23.4641 5.4781 25.1989 7.01778 26.6413C7.94503 27.5173 9.17338 28.0037 10.449 28H21.409C22.091 28.0013 22.766 27.8625 23.3921 27.5922C24.0183 27.3219 24.5822 26.9259 25.049 26.4288C25.9138 25.4981 26.6618 24.4655 27.2765 23.3538C28.154 21.75 28.0415 21.5 27.9128 21.1988Z" fill="#1C1C1E"/>
</svg>
