<svg width="32" height="32" viewBox="0 0 32 32" fill="none" xmlns="http://www.w3.org/2000/svg">
<path d="M19.9748 18.9775C20.208 19.2745 20.3697 19.6213 20.4473 19.9909C20.5249 20.3605 20.5164 20.743 20.4223 21.1087L18.8998 27.1087C18.7595 27.6523 18.4418 28.1335 17.9971 28.4761C17.5524 28.8187 17.0061 29.0031 16.4448 29H15.5548C14.9934 29.0031 14.4471 28.8187 14.0024 28.4761C13.5577 28.1335 13.24 27.6523 13.0998 27.1087L11.5773 21.1087C11.4832 20.743 11.4746 20.3605 11.5522 19.9909C11.6298 19.6213 11.7915 19.2745 12.0248 18.9775C12.2611 18.6724 12.5643 18.4255 12.911 18.2561C13.2578 18.0866 13.6388 17.999 14.0248 18H17.9623C18.3503 17.9971 18.7338 18.0837 19.0829 18.2533C19.4319 18.4228 19.7372 18.6707 19.9748 18.9775ZM19.4998 14.5C19.4998 13.8078 19.2945 13.1311 18.9099 12.5555C18.5253 11.9799 17.9787 11.5313 17.3391 11.2664C16.6996 11.0015 15.9959 10.9322 15.3169 11.0673C14.638 11.2023 14.0144 11.5356 13.5249 12.0251C13.0354 12.5146 12.7021 13.1383 12.567 13.8172C12.432 14.4961 12.5013 15.1999 12.7662 15.8394C13.0311 16.4789 13.4797 17.0256 14.0553 17.4101C14.6308 17.7947 15.3075 18 15.9998 18C16.928 18 17.8183 17.6313 18.4746 16.9749C19.131 16.3185 19.4998 15.4283 19.4998 14.5ZM22.7498 17.875C22.7112 18.0025 22.6985 18.1364 22.7123 18.2689C22.7262 18.4014 22.7664 18.5297 22.8306 18.6465C22.8948 18.7632 22.9816 18.8659 23.0861 18.9486C23.1905 19.0313 23.3104 19.0923 23.4387 19.128C23.567 19.1637 23.7012 19.1735 23.8333 19.1566C23.9655 19.1398 24.0929 19.0967 24.2082 19.0299C24.3234 18.9632 24.4242 18.8741 24.5045 18.7678C24.5849 18.6616 24.6432 18.5403 24.676 18.4112C25.0476 17.0744 25.1051 15.6697 24.8439 14.3069C24.5827 12.9441 24.0099 11.6602 23.1704 10.5554C22.3308 9.45069 21.2472 8.55502 20.0041 7.93842C18.7611 7.32181 17.3923 7.00098 16.0048 7.00098C14.6172 7.00098 13.2484 7.32181 12.0054 7.93842C10.7623 8.55502 9.67869 9.45069 8.83913 10.5554C7.99957 11.6602 7.42682 12.9441 7.16563 14.3069C6.90445 15.6697 6.9619 17.0744 7.33351 18.4112C7.42394 18.642 7.59682 18.8309 7.81863 18.9414C8.04045 19.0519 8.29539 19.0761 8.53403 19.0093C8.77268 18.9425 8.97802 18.7895 9.11026 18.5799C9.2425 18.3704 9.29221 18.1191 9.24976 17.875C8.96439 16.8361 8.92269 15.7453 9.12792 14.6876C9.33315 13.6299 9.77976 12.6339 10.433 11.777C11.0862 10.9202 11.9284 10.2257 12.8939 9.7477C13.8595 9.26966 14.9223 9.02095 15.9998 9.02095C17.0772 9.02095 18.14 9.26966 19.1056 9.7477C20.0712 10.2257 20.9133 10.9202 21.5665 11.777C22.2198 12.6339 22.6664 13.6299 22.8716 14.6876C23.0768 15.7453 23.0351 16.8361 22.7498 17.875ZM15.9998 3C13.2108 2.99942 10.4956 3.89577 8.25518 5.55667C6.01473 7.21757 4.36781 9.55496 3.55766 12.2236C2.7475 14.8923 2.81705 17.7508 3.75604 20.3769C4.69503 23.003 6.45368 25.2575 8.77226 26.8075C8.88142 26.8805 9.0039 26.9314 9.1327 26.9571C9.26151 26.9828 9.39412 26.9829 9.52296 26.9574C9.6518 26.9318 9.77435 26.8812 9.88361 26.8083C9.99288 26.7354 10.0867 26.6417 10.1598 26.5325C10.2328 26.4233 10.2836 26.3009 10.3093 26.1721C10.3351 26.0432 10.3352 25.9106 10.3096 25.7818C10.2841 25.653 10.2334 25.5304 10.1605 25.4211C10.0876 25.3119 9.99392 25.218 9.88476 25.145C7.92344 23.8333 6.43585 21.9258 5.64164 19.7039C4.84743 17.4821 4.78868 15.0638 5.47406 12.806C6.15945 10.5483 7.55265 8.57074 9.44796 7.16538C11.3433 5.76001 13.6403 5.00133 15.9998 5.00133C18.3593 5.00133 20.6562 5.76001 22.5515 7.16538C24.4469 8.57074 25.8401 10.5483 26.5254 12.806C27.2108 15.0638 27.1521 17.4821 26.3579 19.7039C25.5637 21.9258 24.0761 23.8333 22.1148 25.145C21.8943 25.2925 21.7415 25.5216 21.6899 25.7818C21.6383 26.042 21.6922 26.312 21.8398 26.5325C21.9873 26.753 22.2163 26.9058 22.4766 26.9574C22.7368 27.0089 23.0068 26.955 23.2273 26.8075C25.5458 25.2575 27.3045 23.003 28.2435 20.3769C29.1825 17.7508 29.252 14.8923 28.4419 12.2236C27.6317 9.55496 25.9848 7.21757 23.7443 5.55667C21.5039 3.89577 18.7887 2.99942 15.9998 3Z" fill="#1C1C1E"/>
</svg>
