<svg width="32" height="32" viewBox="0 0 32 32" fill="none" xmlns="http://www.w3.org/2000/svg">
<path d="M24.7075 8.70708L15.9137 17.4996L21.7075 23.2921C21.8475 23.4319 21.9429 23.6102 21.9815 23.8043C22.0202 23.9984 22.0004 24.1995 21.9246 24.3824C21.8489 24.5652 21.7206 24.7214 21.556 24.8313C21.3914 24.9412 21.1979 24.9997 21 24.9996H8C7.73478 24.9996 7.48043 24.8942 7.29289 24.7067C7.10536 24.5192 7 24.2648 7 23.9996V10.9996C6.99984 10.8017 7.05841 10.6082 7.16828 10.4436C7.27815 10.279 7.43439 10.1507 7.61721 10.075C7.80003 9.9992 8.00122 9.9794 8.19531 10.0181C8.38939 10.0567 8.56765 10.1521 8.7075 10.2921L14.5 16.0858L23.2925 7.29208C23.3854 7.19917 23.4957 7.12547 23.6171 7.07519C23.7385 7.0249 23.8686 6.99902 24 6.99902C24.1314 6.99902 24.2615 7.0249 24.3829 7.07519C24.5043 7.12547 24.6146 7.19917 24.7075 7.29208C24.8004 7.38499 24.8741 7.49529 24.9244 7.61668C24.9747 7.73808 25.0006 7.86818 25.0006 7.99958C25.0006 8.13097 24.9747 8.26108 24.9244 8.38248C24.8741 8.50387 24.8004 8.61417 24.7075 8.70708Z" fill="#1C1C1E"/>
</svg>
