<svg width="32" height="32" viewBox="0 0 32 32" fill="none" xmlns="http://www.w3.org/2000/svg">
<path d="M26.7073 22.7073L22.7073 26.7073C22.5675 26.8473 22.3892 26.9427 22.1951 26.9813C22.001 27.02 21.7998 27.0002 21.617 26.9244C21.4342 26.8487 21.278 26.7204 21.1681 26.5558C21.0582 26.3912 20.9997 26.1977 20.9998 25.9998V22.9998H5.99981C5.73459 22.9998 5.48024 22.8945 5.2927 22.7069C5.10517 22.5194 4.99981 22.265 4.99981 21.9998C4.99981 21.7346 5.10517 21.4802 5.2927 21.2927C5.48024 21.1052 5.73459 20.9998 5.99981 20.9998H20.9998V17.9998C20.9997 17.8019 21.0582 17.6084 21.1681 17.4438C21.278 17.2792 21.4342 17.1509 21.617 17.0752C21.7998 16.9994 22.001 16.9796 22.1951 17.0183C22.3892 17.0569 22.5675 17.1523 22.7073 17.2923L26.7073 21.2923C26.8003 21.3852 26.874 21.4955 26.9244 21.6169C26.9747 21.7383 27.0006 21.8684 27.0006 21.9998C27.0006 22.1312 26.9747 22.2614 26.9244 22.3828C26.874 22.5042 26.8003 22.6144 26.7073 22.7073ZM9.29231 14.7073C9.43217 14.8473 9.61042 14.9427 9.8045 14.9813C9.99859 15.02 10.1998 15.0002 10.3826 14.9244C10.5654 14.8487 10.7217 14.7204 10.8315 14.5558C10.9414 14.3912 11 14.1977 10.9998 13.9998V10.9998H25.9998C26.265 10.9998 26.5194 10.8945 26.7069 10.7069C26.8945 10.5194 26.9998 10.265 26.9998 9.99981C26.9998 9.73459 26.8945 9.48024 26.7069 9.2927C26.5194 9.10517 26.265 8.99981 25.9998 8.99981H10.9998V5.99981C11 5.80192 10.9414 5.60842 10.8315 5.44383C10.7217 5.27923 10.5654 5.15094 10.3826 5.07519C10.1998 4.99944 9.99859 4.97963 9.8045 5.01828C9.61042 5.05693 9.43217 5.1523 9.29231 5.29231L5.29231 9.29231C5.19933 9.38518 5.12557 9.49547 5.07525 9.61687C5.02493 9.73827 4.99902 9.8684 4.99902 9.99981C4.99902 10.1312 5.02493 10.2614 5.07525 10.3828C5.12557 10.5041 5.19933 10.6144 5.29231 10.7073L9.29231 14.7073Z" fill="#1C1C1E"/>
</svg>
