<svg width="32" height="32" viewBox="0 0 32 32" fill="none" xmlns="http://www.w3.org/2000/svg">
<path d="M11 12.9997H5C4.73478 12.9997 4.48043 12.8944 4.29289 12.7068C4.10536 12.5193 4 12.2649 4 11.9997V5.99973C3.99984 5.80183 4.05841 5.60834 4.16828 5.44375C4.27815 5.27915 4.43439 5.15086 4.61721 5.0751C4.80003 4.99935 5.00122 4.97955 5.19531 5.0182C5.38939 5.05685 5.56764 5.15222 5.7075 5.29223L8 7.58723C10.2152 5.44929 13.1714 4.25072 16.25 4.24223H16.3162C19.4514 4.23415 22.4634 5.46152 24.7 7.65848C24.8826 7.8453 24.9849 8.09618 24.9849 8.35743C24.9849 8.61869 24.8827 8.86957 24.7001 9.05642C24.5175 9.24327 24.269 9.35123 24.0078 9.35722C23.7466 9.36321 23.4935 9.26675 23.3025 9.08848C21.4382 7.25857 18.9285 6.2361 16.3162 6.24223H16.26C13.7102 6.24944 11.2608 7.23672 9.41875 8.99973L11.7075 11.2922C11.8475 11.4321 11.9429 11.6103 11.9815 11.8044C12.0202 11.9985 12.0004 12.1997 11.9246 12.3825C11.8489 12.5653 11.7206 12.7216 11.556 12.8314C11.3914 12.9413 11.1979 12.9999 11 12.9997ZM27 18.9997H21C20.8021 18.9996 20.6086 19.0581 20.444 19.168C20.2794 19.2779 20.1511 19.4341 20.0754 19.6169C19.9996 19.7998 19.9798 20.0009 20.0185 20.195C20.0571 20.3891 20.1525 20.5674 20.2925 20.7072L22.5812 22.9997C20.7401 24.7638 18.2911 25.7524 15.7413 25.761H15.685C13.0727 25.7671 10.563 24.7446 8.69875 22.9147C8.60561 22.8194 8.49436 22.7437 8.37155 22.692C8.24874 22.6404 8.11683 22.6137 7.98358 22.6137C7.85034 22.6137 7.71843 22.6404 7.59563 22.6921C7.47282 22.7438 7.36158 22.8195 7.26845 22.9148C7.17532 23.0101 7.10217 23.123 7.05331 23.247C7.00444 23.371 6.98085 23.5035 6.9839 23.6367C6.98696 23.7699 7.0166 23.9011 7.0711 24.0227C7.1256 24.1443 7.20385 24.2538 7.30125 24.3447C9.53783 26.5417 12.5499 27.7691 15.685 27.761H15.75C18.8286 27.7525 21.7848 26.5539 24 24.416L26.295 26.711C26.4352 26.8504 26.6136 26.945 26.8076 26.9831C27.0016 27.0211 27.2025 27.0008 27.385 26.9247C27.5675 26.8486 27.7233 26.7201 27.8327 26.5554C27.9422 26.3908 28.0004 26.1974 28 25.9997V19.9997C28 19.7345 27.8946 19.4802 27.7071 19.2926C27.5196 19.1051 27.2652 18.9997 27 18.9997Z" fill="#1C1C1E"/>
</svg>
