<svg width="32" height="32" viewBox="0 0 32 32" fill="none" xmlns="http://www.w3.org/2000/svg">
<path d="M28 13C28.0002 13.1979 27.9416 13.3914 27.8317 13.556C27.7218 13.7206 27.5656 13.8489 27.3828 13.9246C27.2 14.0004 26.9988 14.0202 26.8047 13.9815C26.6106 13.9429 26.4324 13.8475 26.2925 13.7075L23 10.4138L17.7075 15.7075C17.5199 15.8951 17.2654 16.0006 17 16.0006C16.7346 16.0006 16.4801 15.8951 16.2925 15.7075C16.1049 15.5199 15.9994 15.2654 15.9994 15C15.9994 14.7346 16.1049 14.4801 16.2925 14.2925L21.5863 9L18.2925 5.7075C18.1525 5.56764 18.0571 5.38939 18.0185 5.19531C17.9798 5.00122 17.9996 4.80003 18.0754 4.61721C18.1511 4.43439 18.2794 4.27815 18.444 4.16828C18.6086 4.05841 18.8021 3.99984 19 4H27C27.2652 4 27.5196 4.10536 27.7071 4.29289C27.8946 4.48043 28 4.73478 28 5V13ZM23 16C22.7348 16 22.4804 16.1054 22.2929 16.2929C22.1054 16.4804 22 16.7348 22 17V26H6V10H15C15.2652 10 15.5196 9.89464 15.7071 9.70711C15.8946 9.51957 16 9.26522 16 9C16 8.73478 15.8946 8.48043 15.7071 8.29289C15.5196 8.10536 15.2652 8 15 8H6C5.46957 8 4.96086 8.21071 4.58579 8.58579C4.21071 8.96086 4 9.46957 4 10V26C4 26.5304 4.21071 27.0391 4.58579 27.4142C4.96086 27.7893 5.46957 28 6 28H22C22.5304 28 23.0391 27.7893 23.4142 27.4142C23.7893 27.0391 24 26.5304 24 26V17C24 16.7348 23.8946 16.4804 23.7071 16.2929C23.5196 16.1054 23.2652 16 23 16Z" fill="#1C1C1E"/>
</svg>
