<svg width="32" height="32" viewBox="0 0 32 32" fill="none" xmlns="http://www.w3.org/2000/svg">
<path d="M27.7075 10.7073L21.7075 16.7073C21.5676 16.8473 21.3894 16.9427 21.1953 16.9813C21.0012 17.02 20.8 17.0002 20.6172 16.9244C20.4344 16.8487 20.2782 16.7204 20.1683 16.5558C20.0584 16.3912 19.9998 16.1977 20 15.9998V10.9998H10V27.9998C10 28.265 9.89464 28.5194 9.70711 28.7069C9.51957 28.8945 9.26522 28.9998 9 28.9998C8.73478 28.9998 8.48043 28.8945 8.29289 28.7069C8.10536 28.5194 8 28.265 8 27.9998V9.99981C8 9.73459 8.10536 9.48024 8.29289 9.2927C8.48043 9.10517 8.73478 8.99981 9 8.99981H20V3.99981C19.9998 3.80192 20.0584 3.60842 20.1683 3.44383C20.2782 3.27923 20.4344 3.15094 20.6172 3.07519C20.8 2.99944 21.0012 2.97963 21.1953 3.01828C21.3894 3.05693 21.5676 3.1523 21.7075 3.29231L27.7075 9.29231C27.8005 9.38518 27.8742 9.49547 27.9246 9.61687C27.9749 9.73827 28.0008 9.8684 28.0008 9.99981C28.0008 10.1312 27.9749 10.2614 27.9246 10.3828C27.8742 10.5041 27.8005 10.6144 27.7075 10.7073Z" fill="#1C1C1E"/>
</svg>
