<svg width="32" height="32" viewBox="0 0 32 32" fill="none" xmlns="http://www.w3.org/2000/svg">
<path d="M15.9996 17V25C15.9997 25.1979 15.9412 25.3914 15.8313 25.556C15.7214 25.7206 15.5652 25.8489 15.3824 25.9246C15.1995 26.0004 14.9984 26.0202 14.8043 25.9815C14.6102 25.9429 14.4319 25.8475 14.2921 25.7075L10.9996 22.4137L5.70708 27.7075C5.61417 27.8004 5.50387 27.8741 5.38248 27.9244C5.26108 27.9747 5.13097 28.0006 4.99958 28.0006C4.86818 28.0006 4.73808 27.9747 4.61668 27.9244C4.49529 27.8741 4.38499 27.8004 4.29208 27.7075C4.19917 27.6146 4.12547 27.5043 4.07519 27.3829C4.0249 27.2615 3.99902 27.1314 3.99902 27C3.99902 26.8686 4.0249 26.7385 4.07519 26.6171C4.12547 26.4957 4.19917 26.3854 4.29208 26.2925L9.58583 21L6.29208 17.7075C6.15207 17.5676 6.0567 17.3894 6.01805 17.1953C5.9794 17.0012 5.9992 16.8 6.07496 16.6172C6.15071 16.4344 6.279 16.2782 6.4436 16.1683C6.60819 16.0584 6.80168 15.9998 6.99958 16H14.9996C15.2648 16 15.5191 16.1054 15.7067 16.2929C15.8942 16.4804 15.9996 16.7348 15.9996 17ZM25.9996 4H9.99958C9.46915 4 8.96044 4.21071 8.58537 4.58579C8.21029 4.96086 7.99958 5.46957 7.99958 6V12C7.99958 12.2652 8.10494 12.5196 8.29247 12.7071C8.48001 12.8946 8.73436 13 8.99958 13C9.2648 13 9.51915 12.8946 9.70669 12.7071C9.89422 12.5196 9.99958 12.2652 9.99958 12V6H25.9996V22H19.9996C19.7344 22 19.48 22.1054 19.2925 22.2929C19.1049 22.4804 18.9996 22.7348 18.9996 23C18.9996 23.2652 19.1049 23.5196 19.2925 23.7071C19.48 23.8946 19.7344 24 19.9996 24H25.9996C26.53 24 27.0387 23.7893 27.4138 23.4142C27.7889 23.0391 27.9996 22.5304 27.9996 22V6C27.9996 5.46957 27.7889 4.96086 27.4138 4.58579C27.0387 4.21071 26.53 4 25.9996 4Z" fill="#1C1C1E"/>
</svg>
