<svg width="32" height="32" viewBox="0 0 32 32" fill="none" xmlns="http://www.w3.org/2000/svg">
<path d="M29.9998 9C29.9998 9.26522 29.8945 9.51957 29.7069 9.70711C29.5194 9.89464 29.265 10 28.9998 10H11.9998V20H16.9998C17.1977 19.9998 17.3912 20.0584 17.5558 20.1683C17.7204 20.2782 17.8487 20.4344 17.9244 20.6172C18.0002 20.8 18.02 21.0012 17.9813 21.1953C17.9427 21.3894 17.8473 21.5676 17.7073 21.7075L11.7073 27.7075C11.6144 27.8005 11.5041 27.8742 11.3828 27.9246C11.2614 27.9749 11.1312 28.0008 10.9998 28.0008C10.8684 28.0008 10.7383 27.9749 10.6169 27.9246C10.4955 27.8742 10.3852 27.8005 10.2923 27.7075L4.29231 21.7075C4.1523 21.5676 4.05693 21.3894 4.01828 21.1953C3.97963 21.0012 3.99944 20.8 4.07519 20.6172C4.15094 20.4344 4.27923 20.2782 4.44383 20.1683C4.60842 20.0584 4.80192 19.9998 4.99981 20H9.99981V9C9.99981 8.73478 10.1052 8.48043 10.2927 8.29289C10.4802 8.10536 10.7346 8 10.9998 8H28.9998C29.265 8 29.5194 8.10536 29.7069 8.29289C29.8945 8.48043 29.9998 8.73478 29.9998 9Z" fill="#1C1C1E"/>
</svg>
