<svg width="32" height="32" viewBox="0 0 32 32" fill="none" xmlns="http://www.w3.org/2000/svg">
<path d="M17 5V27C17 27.2652 16.8946 27.5196 16.7071 27.7071C16.5196 27.8946 16.2652 28 16 28C15.7348 28 15.4804 27.8946 15.2929 27.7071C15.1054 27.5196 15 27.2652 15 27V5C15 4.73478 15.1054 4.48043 15.2929 4.29289C15.4804 4.10536 15.7348 4 16 4C16.2652 4 16.5196 4.10536 16.7071 4.29289C16.8946 4.48043 17 4.73478 17 5ZM8.7075 11.2925C8.56765 11.1525 8.38939 11.0571 8.19531 11.0185C8.00122 10.9798 7.80003 10.9996 7.61721 11.0754C7.43439 11.1511 7.27815 11.2794 7.16828 11.444C7.05841 11.6086 6.99984 11.8021 7 12V15H2C1.73478 15 1.48043 15.1054 1.29289 15.2929C1.10536 15.4804 1 15.7348 1 16C1 16.2652 1.10536 16.5196 1.29289 16.7071C1.48043 16.8946 1.73478 17 2 17H7V20C6.99984 20.1979 7.05841 20.3914 7.16828 20.556C7.27815 20.7206 7.43439 20.8489 7.61721 20.9246C7.80003 21.0004 8.00122 21.0202 8.19531 20.9815C8.38939 20.9429 8.56765 20.8475 8.7075 20.7075L12.7075 16.7075C12.8005 16.6146 12.8742 16.5043 12.9246 16.3829C12.9749 16.2615 13.0008 16.1314 13.0008 16C13.0008 15.8686 12.9749 15.7385 12.9246 15.6171C12.8742 15.4957 12.8005 15.3854 12.7075 15.2925L8.7075 11.2925ZM30 15H25V12C25.0002 11.8021 24.9416 11.6086 24.8317 11.444C24.7218 11.2794 24.5656 11.1511 24.3828 11.0754C24.2 10.9996 23.9988 10.9798 23.8047 11.0185C23.6106 11.0571 23.4324 11.1525 23.2925 11.2925L19.2925 15.2925C19.1995 15.3854 19.1258 15.4957 19.0754 15.6171C19.0251 15.7385 18.9992 15.8686 18.9992 16C18.9992 16.1314 19.0251 16.2615 19.0754 16.3829C19.1258 16.5043 19.1995 16.6146 19.2925 16.7075L23.2925 20.7075C23.4324 20.8475 23.6106 20.9429 23.8047 20.9815C23.9988 21.0202 24.2 21.0004 24.3828 20.9246C24.5656 20.8489 24.7218 20.7206 24.8317 20.556C24.9416 20.3914 25.0002 20.1979 25 20V17H30C30.2652 17 30.5196 16.8946 30.7071 16.7071C30.8946 16.5196 31 16.2652 31 16C31 15.7348 30.8946 15.4804 30.7071 15.2929C30.5196 15.1054 30.2652 15 30 15Z" fill="#1C1C1E"/>
</svg>
