<svg width="32" height="32" viewBox="0 0 32 32" fill="none" xmlns="http://www.w3.org/2000/svg">
<path d="M29.9997 6.99985V12.9999C29.9997 13.2651 29.8943 13.5194 29.7068 13.707C29.5193 13.8945 29.2649 13.9999 28.9997 13.9999H22.9997C22.8018 14 22.6083 13.9414 22.4437 13.8316C22.2791 13.7217 22.1508 13.5655 22.0751 13.3826C21.9993 13.1998 21.9795 12.9986 22.0182 12.8045C22.0568 12.6105 22.1522 12.4322 22.2922 12.2924L24.4172 10.1674L23.0984 8.9611L23.0672 8.9311C21.6773 7.54171 19.9088 6.59267 17.9826 6.20253C16.0565 5.8124 14.0581 5.99846 12.2371 6.73748C10.416 7.4765 8.85314 8.73571 7.74361 10.3578C6.63408 11.9799 6.0271 13.893 5.99851 15.858C5.96992 17.8231 6.52098 19.753 7.58285 21.4067C8.64472 23.0604 10.1703 24.3645 11.9691 25.1562C13.7678 25.9479 15.76 26.192 17.6966 25.8581C19.6333 25.5242 21.4287 24.627 22.8584 23.2786C23.0512 23.0963 23.3085 22.998 23.5738 23.0054C23.839 23.0127 24.0905 23.1252 24.2728 23.318C24.4551 23.5108 24.5534 23.7681 24.546 24.0333C24.5387 24.2986 24.4262 24.55 24.2334 24.7324C22.0099 26.8379 19.0619 28.0078 15.9997 27.9999H15.8347C13.8694 27.9729 11.9407 27.4637 10.2183 26.5168C8.49589 25.57 7.03241 24.2146 5.95651 22.5697C4.8806 20.9248 4.22521 19.0408 4.04793 17.0833C3.87066 15.1258 4.17693 13.1547 4.93982 11.3433C5.70271 9.53188 6.89888 7.93559 8.42317 6.69472C9.94747 5.45385 11.7532 4.6064 13.6817 4.22684C15.6103 3.84729 17.6025 3.94726 19.4833 4.51796C21.3642 5.08866 23.076 6.11263 24.4684 7.49985L25.8347 8.74985L28.2922 6.28735C28.4323 6.14703 28.6111 6.05156 28.8056 6.01307C29.0002 5.97457 29.2018 5.9948 29.3848 6.07117C29.5678 6.14755 29.724 6.27662 29.8335 6.44198C29.943 6.60734 30.0008 6.80153 29.9997 6.99985Z" fill="#1C1C1E"/>
</svg>
