<svg width="32" height="32" viewBox="0 0 32 32" fill="none" xmlns="http://www.w3.org/2000/svg">
<path d="M29 26C29 26.2652 28.8946 26.5196 28.7071 26.7071C28.5196 26.8946 28.2652 27 28 27H6C5.73478 27 5.48043 26.8946 5.29289 26.7071C5.10536 26.5196 5 26.2652 5 26C5 25.7348 5.10536 25.4804 5.29289 25.2929C5.48043 25.1054 5.73478 25 6 25H28C28.2652 25 28.5196 25.1054 28.7071 25.2929C28.8946 25.4804 29 25.7348 29 26ZM8.6175 18.9237C8.8002 18.9995 9.00128 19.0195 9.1953 18.981C9.38932 18.9425 9.56757 18.8473 9.7075 18.7075L15 13.4137L22.2925 20.7075C22.3854 20.8004 22.4957 20.8741 22.6171 20.9244C22.7385 20.9747 22.8686 21.0006 23 21.0006C23.1314 21.0006 23.2615 20.9747 23.3829 20.9244C23.5043 20.8741 23.6146 20.8004 23.7075 20.7075C23.8004 20.6146 23.8741 20.5043 23.9244 20.3829C23.9747 20.2615 24.0006 20.1314 24.0006 20C24.0006 19.8686 23.9747 19.7385 23.9244 19.6171C23.8741 19.4957 23.8004 19.3854 23.7075 19.2925L16.4137 12L21.7075 6.7075C21.8475 6.56764 21.9429 6.38939 21.9815 6.19531C22.0202 6.00122 22.0004 5.80003 21.9246 5.61721C21.8489 5.43439 21.7206 5.27815 21.556 5.16828C21.3914 5.05841 21.1979 4.99984 21 5H9C8.73478 5 8.48043 5.10536 8.29289 5.29289C8.10536 5.48043 8 5.73478 8 6V18C8.00004 18.1978 8.05873 18.3911 8.16864 18.5555C8.27856 18.72 8.43476 18.8481 8.6175 18.9237Z" fill="#1C1C1E"/>
</svg>
