<svg width="32" height="32" viewBox="0 0 32 32" fill="none" xmlns="http://www.w3.org/2000/svg">
<path d="M28.9236 15.3823C28.8479 15.5651 28.7198 15.7213 28.5553 15.8312C28.3909 15.9411 28.1976 15.9998 27.9998 15.9998H22.9998V18.9998C22.9998 19.265 22.8945 19.5194 22.7069 19.7069C22.5194 19.8945 22.265 19.9998 21.9998 19.9998H9.99981C9.73459 19.9998 9.48024 19.8945 9.2927 19.7069C9.10517 19.5194 8.99981 19.265 8.99981 18.9998V15.9998H3.99981C3.80192 16 3.60842 15.9414 3.44383 15.8315C3.27923 15.7217 3.15094 15.5654 3.07519 15.3826C2.99944 15.1998 2.97963 14.9986 3.01828 14.8045C3.05693 14.6104 3.1523 14.4322 3.29231 14.2923L15.2923 2.29231C15.3852 2.19933 15.4955 2.12557 15.6169 2.07525C15.7383 2.02493 15.8684 1.99902 15.9998 1.99902C16.1312 1.99902 16.2614 2.02493 16.3828 2.07525C16.5041 2.12557 16.6144 2.19933 16.7073 2.29231L28.7073 14.2923C28.8471 14.4322 28.9423 14.6105 28.9808 14.8045C29.0193 14.9985 28.9994 15.1996 28.9236 15.3823ZM21.9998 25.9998H9.99981C9.73459 25.9998 9.48024 26.1052 9.2927 26.2927C9.10517 26.4802 8.99981 26.7346 8.99981 26.9998C8.99981 27.265 9.10517 27.5194 9.2927 27.7069C9.48024 27.8945 9.73459 27.9998 9.99981 27.9998H21.9998C22.265 27.9998 22.5194 27.8945 22.7069 27.7069C22.8945 27.5194 22.9998 27.265 22.9998 26.9998C22.9998 26.7346 22.8945 26.4802 22.7069 26.2927C22.5194 26.1052 22.265 25.9998 21.9998 25.9998ZM21.9998 21.9998H9.99981C9.73459 21.9998 9.48024 22.1052 9.2927 22.2927C9.10517 22.4802 8.99981 22.7346 8.99981 22.9998C8.99981 23.265 9.10517 23.5194 9.2927 23.7069C9.48024 23.8945 9.73459 23.9998 9.99981 23.9998H21.9998C22.265 23.9998 22.5194 23.8945 22.7069 23.7069C22.8945 23.5194 22.9998 23.265 22.9998 22.9998C22.9998 22.7346 22.8945 22.4802 22.7069 22.2927C22.5194 22.1052 22.265 21.9998 21.9998 21.9998Z" fill="#1C1C1E"/>
</svg>
