<svg width="32" height="32" viewBox="0 0 32 32" fill="none" xmlns="http://www.w3.org/2000/svg">
<path d="M17.9996 12.9996V7.99958C17.9994 7.80168 18.058 7.60819 18.1679 7.4436C18.2777 7.279 18.434 7.15071 18.6168 7.07496C18.7996 6.9992 19.0008 6.9794 19.1949 7.01805C19.389 7.0567 19.5672 7.15207 19.7071 7.29208L21.4996 9.08583L25.2921 5.29208C25.4797 5.10444 25.7342 4.99902 25.9996 4.99902C26.2649 4.99902 26.5194 5.10444 26.7071 5.29208C26.8947 5.47972 27.0001 5.73422 27.0001 5.99958C27.0001 6.26494 26.8947 6.51944 26.7071 6.70708L22.9133 10.4996L24.7071 12.2921C24.8471 12.4319 24.9425 12.6102 24.9811 12.8043C25.0198 12.9984 25 13.1995 24.9242 13.3824C24.8484 13.5652 24.7202 13.7214 24.5556 13.8313C24.391 13.9412 24.1975 13.9997 23.9996 13.9996H18.9996C18.7344 13.9996 18.48 13.8942 18.2925 13.7067C18.1049 13.5191 17.9996 13.2648 17.9996 12.9996ZM12.9996 17.9996H7.99958C7.80168 17.9994 7.60819 18.058 7.4436 18.1679C7.279 18.2777 7.15071 18.434 7.07496 18.6168C6.9992 18.7996 6.9794 19.0008 7.01805 19.1949C7.0567 19.389 7.15207 19.5672 7.29208 19.7071L9.08583 21.4996L5.29208 25.2921C5.10444 25.4797 4.99902 25.7342 4.99902 25.9996C4.99902 26.2649 5.10444 26.5194 5.29208 26.7071C5.47972 26.8947 5.73422 27.0001 5.99958 27.0001C6.26494 27.0001 6.51944 26.8947 6.70708 26.7071L10.4996 22.9133L12.2921 24.7071C12.4319 24.8471 12.6102 24.9425 12.8043 24.9811C12.9984 25.0198 13.1995 25 13.3824 24.9242C13.5652 24.8484 13.7214 24.7202 13.8313 24.5556C13.9412 24.391 13.9997 24.1975 13.9996 23.9996V18.9996C13.9996 18.7344 13.8942 18.48 13.7067 18.2925C13.5191 18.1049 13.2648 17.9996 12.9996 17.9996ZM22.9133 21.4996L24.7071 19.7071C24.8471 19.5672 24.9425 19.389 24.9811 19.1949C25.0198 19.0008 25 18.7996 24.9242 18.6168C24.8484 18.434 24.7202 18.2777 24.5556 18.1679C24.391 18.058 24.1975 17.9994 23.9996 17.9996H18.9996C18.7344 17.9996 18.48 18.1049 18.2925 18.2925C18.1049 18.48 17.9996 18.7344 17.9996 18.9996V23.9996C17.9994 24.1975 18.058 24.391 18.1679 24.5556C18.2777 24.7202 18.434 24.8484 18.6168 24.9242C18.7996 25 19.0008 25.0198 19.1949 24.9811C19.389 24.9425 19.5672 24.8471 19.7071 24.7071L21.4996 22.9133L25.2921 26.7071C25.385 26.8 25.4953 26.8737 25.6167 26.924C25.7381 26.9743 25.8682 27.0001 25.9996 27.0001C26.131 27.0001 26.2611 26.9743 26.3825 26.924C26.5039 26.8737 26.6142 26.8 26.7071 26.7071C26.8 26.6142 26.8737 26.5039 26.924 26.3825C26.9743 26.2611 27.0001 26.131 27.0001 25.9996C27.0001 25.8682 26.9743 25.7381 26.924 25.6167C26.8737 25.4953 26.8 25.385 26.7071 25.2921L22.9133 21.4996ZM13.3821 7.07583C13.1994 7.00003 12.9983 6.98012 12.8043 7.01861C12.6103 7.0571 12.432 7.15227 12.2921 7.29208L10.4996 9.08583L6.70708 5.29208C6.51944 5.10444 6.26494 4.99902 5.99958 4.99902C5.73422 4.99902 5.47972 5.10444 5.29208 5.29208C5.10444 5.47972 4.99902 5.73422 4.99902 5.99958C4.99902 6.26494 5.10444 6.51944 5.29208 6.70708L9.08583 10.4996L7.29208 12.2921C7.15207 12.4319 7.0567 12.6102 7.01805 12.8043C6.9794 12.9984 6.9992 13.1995 7.07496 13.3824C7.15071 13.5652 7.279 13.7214 7.4436 13.8313C7.60819 13.9412 7.80168 13.9997 7.99958 13.9996H12.9996C13.2648 13.9996 13.5191 13.8942 13.7067 13.7067C13.8942 13.5191 13.9996 13.2648 13.9996 12.9996V7.99958C13.9995 7.8018 13.9409 7.60847 13.8309 7.44405C13.721 7.27962 13.5648 7.15148 13.3821 7.07583Z" fill="#1C1C1E"/>
</svg>
