<svg width="32" height="32" viewBox="0 0 32 32" fill="none" xmlns="http://www.w3.org/2000/svg">
<path d="M29 16C29 13.4288 28.2376 10.9154 26.8091 8.77759C25.3807 6.63975 23.3503 4.97351 20.9749 3.98957C18.5995 3.00563 15.9856 2.74819 13.4638 3.2498C10.9421 3.75141 8.6257 4.98953 6.80762 6.80762C4.98953 8.6257 3.75141 10.9421 3.2498 13.4638C2.74819 15.9856 3.00563 18.5995 3.98957 20.9749C4.97351 23.3503 6.63975 25.3807 8.77759 26.8091C10.9154 28.2376 13.4288 29 16 29C19.4467 28.9964 22.7512 27.6256 25.1884 25.1884C27.6256 22.7512 28.9964 19.4467 29 16ZM20.7075 15.7075C20.6146 15.8005 20.5043 15.8742 20.3829 15.9246C20.2615 15.9749 20.1314 16.0008 20 16.0008C19.8686 16.0008 19.7385 15.9749 19.6171 15.9246C19.4957 15.8742 19.3854 15.8005 19.2925 15.7075L17 13.4138V21C17 21.2652 16.8946 21.5196 16.7071 21.7071C16.5196 21.8946 16.2652 22 16 22C15.7348 22 15.4804 21.8946 15.2929 21.7071C15.1054 21.5196 15 21.2652 15 21V13.4138L12.7075 15.7075C12.5199 15.8951 12.2654 16.0006 12 16.0006C11.7346 16.0006 11.4801 15.8951 11.2925 15.7075C11.1049 15.5199 10.9994 15.2654 10.9994 15C10.9994 14.7346 11.1049 14.4801 11.2925 14.2925L15.2925 10.2925C15.3854 10.1995 15.4957 10.1258 15.6171 10.0754C15.7385 10.0251 15.8686 9.99922 16 9.99922C16.1314 9.99922 16.2615 10.0251 16.3829 10.0754C16.5043 10.1258 16.6146 10.1995 16.7075 10.2925L20.7075 14.2925C20.8005 14.3854 20.8742 14.4957 20.9246 14.6171C20.9749 14.7385 21.0008 14.8686 21.0008 15C21.0008 15.1314 20.9749 15.2615 20.9246 15.3829C20.8742 15.5043 20.8005 15.6146 20.7075 15.7075Z" fill="#1C1C1E"/>
</svg>
