<svg width="32" height="32" viewBox="0 0 32 32" fill="none" xmlns="http://www.w3.org/2000/svg">
<path d="M28 27C28 27.2652 27.8946 27.5196 27.7071 27.7071C27.5196 27.8946 27.2652 28 27 28H5C4.73478 28 4.48043 27.8946 4.29289 27.7071C4.10536 27.5196 4 27.2652 4 27C4 26.7348 4.10536 26.4804 4.29289 26.2929C4.48043 26.1054 4.73478 26 5 26H27C27.2652 26 27.5196 26.1054 27.7071 26.2929C27.8946 26.4804 28 26.7348 28 27ZM10 22C10.1314 22.0001 10.2615 21.9743 10.3828 21.9241C10.5042 21.8739 10.6146 21.8003 10.7075 21.7075L18 14.4137L23.2925 19.7075C23.4324 19.8475 23.6106 19.9429 23.8047 19.9815C23.9988 20.0202 24.2 20.0004 24.3828 19.9246C24.5656 19.8489 24.7218 19.7206 24.8317 19.556C24.9416 19.3914 25.0002 19.1979 25 19V7C25 6.73478 24.8946 6.48043 24.7071 6.29289C24.5196 6.10536 24.2652 6 24 6H12C11.8021 5.99984 11.6086 6.05841 11.444 6.16828C11.2794 6.27815 11.1511 6.43439 11.0754 6.61721C10.9996 6.80003 10.9798 7.00122 11.0185 7.19531C11.0571 7.38939 11.1525 7.56764 11.2925 7.7075L16.5863 13L9.2925 20.2925C9.15249 20.4324 9.05712 20.6106 9.01847 20.8047C8.97982 20.9988 8.99963 21.2 9.07538 21.3828C9.15113 21.5656 9.27942 21.7218 9.44402 21.8317C9.60861 21.9416 9.8021 22.0002 10 22Z" fill="#1C1C1E"/>
</svg>
