<svg width="32" height="32" viewBox="0 0 32 32" fill="none" xmlns="http://www.w3.org/2000/svg">
<path d="M24.9996 8V21C24.9997 21.1979 24.9412 21.3914 24.8313 21.556C24.7214 21.7206 24.5652 21.8489 24.3824 21.9246C24.1995 22.0004 23.9984 22.0202 23.8043 21.9815C23.6102 21.9429 23.4319 21.8475 23.2921 21.7075L17.4996 15.9137L8.70708 24.7075C8.51944 24.8951 8.26494 25.0006 7.99958 25.0006C7.73422 25.0006 7.47972 24.8951 7.29208 24.7075C7.10444 24.5199 6.99902 24.2654 6.99902 24C6.99902 23.7346 7.10444 23.4801 7.29208 23.2925L16.0858 14.5L10.2921 8.7075C10.1521 8.56765 10.0567 8.38939 10.0181 8.19531C9.9794 8.00122 9.9992 7.80003 10.075 7.61721C10.1507 7.43439 10.279 7.27815 10.4436 7.16828C10.6082 7.05841 10.8017 6.99984 10.9996 7H23.9996C24.2648 7 24.5192 7.10536 24.7067 7.29289C24.8942 7.48043 24.9996 7.73478 24.9996 8Z" fill="#1C1C1E"/>
</svg>
