<svg width="32" height="32" viewBox="0 0 32 32" fill="none" xmlns="http://www.w3.org/2000/svg">
<path d="M29.9998 23.9998C29.9998 24.265 29.8945 24.5194 29.7069 24.7069C29.5194 24.8945 29.265 24.9998 28.9998 24.9998H10.9998C10.7346 24.9998 10.4802 24.8945 10.2927 24.7069C10.1052 24.5194 9.99981 24.265 9.99981 23.9998V12.9998H4.99981C4.80192 13 4.60842 12.9414 4.44383 12.8315C4.27923 12.7217 4.15094 12.5654 4.07519 12.3826C3.99944 12.1998 3.97963 11.9986 4.01828 11.8045C4.05693 11.6104 4.1523 11.4322 4.29231 11.2923L10.2923 5.29231C10.3852 5.19933 10.4955 5.12557 10.6169 5.07525C10.7383 5.02493 10.8684 4.99902 10.9998 4.99902C11.1312 4.99902 11.2614 5.02493 11.3828 5.07525C11.5041 5.12557 11.6144 5.19933 11.7073 5.29231L17.7073 11.2923C17.8473 11.4322 17.9427 11.6104 17.9813 11.8045C18.02 11.9986 18.0002 12.1998 17.9244 12.3826C17.8487 12.5654 17.7204 12.7217 17.5558 12.8315C17.3912 12.9414 17.1977 13 16.9998 12.9998H11.9998V22.9998H28.9998C29.265 22.9998 29.5194 23.1052 29.7069 23.2927C29.8945 23.4802 29.9998 23.7346 29.9998 23.9998Z" fill="#1C1C1E"/>
</svg>
