<svg width="32" height="32" viewBox="0 0 32 32" fill="none" xmlns="http://www.w3.org/2000/svg">
<path d="M28 6.00017V12.0002C28 12.2654 27.8946 12.5197 27.7071 12.7073C27.5196 12.8948 27.2652 13.0002 27 13.0002H21C20.8021 13.0003 20.6086 12.9418 20.444 12.8319C20.2794 12.722 20.1511 12.5658 20.0754 12.383C19.9996 12.2001 19.9798 11.9989 20.0185 11.8049C20.0571 11.6108 20.1525 11.4325 20.2925 11.2927L22.5812 9.00017C20.7401 7.23609 18.2911 6.24747 15.7413 6.23892H15.685C13.0722 6.2338 10.5624 7.25764 8.69875 9.08892C8.50778 9.2672 8.25462 9.36366 7.99343 9.35767C7.73225 9.35168 7.48378 9.24371 7.30118 9.05686C7.11858 8.87002 7.01635 8.61913 7.01636 8.35788C7.01638 8.09662 7.11863 7.84575 7.30125 7.65892C9.53047 5.48089 12.5196 4.25559 15.6362 4.2423C18.7528 4.229 21.7523 5.42874 24 7.58767L26.295 5.29267C26.435 5.15351 26.613 5.0589 26.8067 5.02074C27.0003 4.98258 27.201 5.00259 27.3833 5.07824C27.5656 5.15389 27.7214 5.2818 27.8312 5.44586C27.9409 5.60992 27.9997 5.80279 28 6.00017ZM23.3013 22.9114C21.4489 24.7206 18.9671 25.7408 16.3779 25.7573C13.7887 25.7739 11.294 24.7855 9.41875 23.0002L11.7075 20.7114C11.8488 20.5718 11.9453 20.3932 11.9847 20.1985C12.0241 20.0037 12.0046 19.8017 11.9287 19.6181C11.8528 19.4345 11.7239 19.2777 11.5585 19.1676C11.3931 19.0576 11.1987 18.9993 11 19.0002H5C4.73478 19.0002 4.48043 19.1055 4.29289 19.2931C4.10536 19.4806 4 19.735 4 20.0002V26.0002C3.99984 26.1981 4.05841 26.3916 4.16828 26.5562C4.27815 26.7207 4.43439 26.849 4.61721 26.9248C4.80003 27.0005 5.00122 27.0203 5.19531 26.9817C5.38939 26.943 5.56764 26.8477 5.7075 26.7077L8 24.4127C10.2152 26.5506 13.1714 27.7492 16.25 27.7577H16.3162C19.4514 27.7657 22.4634 26.5384 24.7 24.3414C24.8826 24.1546 24.9849 23.9037 24.9849 23.6425C24.9849 23.3812 24.8827 23.1303 24.7001 22.9435C24.5175 22.7566 24.269 22.6487 24.0078 22.6427C23.7466 22.6367 23.4935 22.7331 23.3025 22.9114H23.3013Z" fill="#1C1C1E"/>
</svg>
