<svg width="32" height="32" viewBox="0 0 32 32" fill="none" xmlns="http://www.w3.org/2000/svg">
<path d="M26.7071 6.70708L22.4133 10.9996L24.7071 13.2921C24.8471 13.4319 24.9425 13.6102 24.9811 13.8043C25.0198 13.9984 25 14.1995 24.9242 14.3824C24.8484 14.5652 24.7202 14.7214 24.5556 14.8313C24.391 14.9412 24.1975 14.9997 23.9996 14.9996H17.9996C17.7344 14.9996 17.48 14.8942 17.2925 14.7067C17.1049 14.5191 16.9996 14.2648 16.9996 13.9996V7.99958C16.9994 7.80168 17.058 7.60819 17.1679 7.4436C17.2777 7.279 17.434 7.15071 17.6168 7.07496C17.7996 6.9992 18.0008 6.9794 18.1949 7.01805C18.389 7.0567 18.5672 7.15207 18.7071 7.29208L20.9996 9.58583L25.2921 5.29208C25.4797 5.10444 25.7342 4.99902 25.9996 4.99902C26.2649 4.99902 26.5194 5.10444 26.7071 5.29208C26.8947 5.47972 27.0001 5.73422 27.0001 5.99958C27.0001 6.26494 26.8947 6.51944 26.7071 6.70708ZM13.9996 16.9996H7.99958C7.80168 16.9994 7.60819 17.058 7.4436 17.1679C7.279 17.2777 7.15071 17.434 7.07496 17.6168C6.9992 17.7996 6.9794 18.0008 7.01805 18.1949C7.0567 18.389 7.15207 18.5672 7.29208 18.7071L9.58583 20.9996L5.29208 25.2921C5.10444 25.4797 4.99902 25.7342 4.99902 25.9996C4.99902 26.2649 5.10444 26.5194 5.29208 26.7071C5.47972 26.8947 5.73422 27.0001 5.99958 27.0001C6.26494 27.0001 6.51944 26.8947 6.70708 26.7071L10.9996 22.4133L13.2921 24.7071C13.4319 24.8471 13.6102 24.9425 13.8043 24.9811C13.9984 25.0198 14.1995 25 14.3824 24.9242C14.5652 24.8484 14.7214 24.7202 14.8313 24.5556C14.9412 24.391 14.9997 24.1975 14.9996 23.9996V17.9996C14.9996 17.7344 14.8942 17.48 14.7067 17.2925C14.5191 17.1049 14.2648 16.9996 13.9996 16.9996Z" fill="#1C1C1E"/>
</svg>
