<svg width="32" height="32" viewBox="0 0 32 32" fill="none" xmlns="http://www.w3.org/2000/svg">
<path d="M29 6C29 6.26522 28.8946 6.51957 28.7071 6.70711C28.5196 6.89464 28.2652 7 28 7H6C5.73478 7 5.48043 6.89464 5.29289 6.70711C5.10536 6.51957 5 6.26522 5 6C5 5.73478 5.10536 5.48043 5.29289 5.29289C5.48043 5.10536 5.73478 5 6 5H28C28.2652 5 28.5196 5.10536 28.7071 5.29289C28.8946 5.48043 29 5.73478 29 6ZM22.2925 11.2925L15 18.5863L9.7075 13.2925C9.56765 13.1525 9.38939 13.0571 9.19531 13.0185C9.00122 12.9798 8.80003 12.9996 8.61721 13.0754C8.43439 13.1511 8.27815 13.2794 8.16828 13.444C8.05841 13.6086 7.99984 13.8021 8 14V26C8 26.2652 8.10536 26.5196 8.29289 26.7071C8.48043 26.8946 8.73478 27 9 27H21C21.1979 27.0002 21.3914 26.9416 21.556 26.8317C21.7206 26.7218 21.8489 26.5656 21.9246 26.3828C22.0004 26.2 22.0202 25.9988 21.9815 25.8047C21.9429 25.6106 21.8475 25.4324 21.7075 25.2925L16.4137 20L23.7075 12.7075C23.8004 12.6146 23.8741 12.5043 23.9244 12.3829C23.9747 12.2615 24.0006 12.1314 24.0006 12C24.0006 11.8686 23.9747 11.7385 23.9244 11.6171C23.8741 11.4957 23.8004 11.3854 23.7075 11.2925C23.6146 11.1996 23.5043 11.1259 23.3829 11.0756C23.2615 11.0253 23.1314 10.9994 23 10.9994C22.8686 10.9994 22.7385 11.0253 22.6171 11.0756C22.4957 11.1259 22.3854 11.1996 22.2925 11.2925Z" fill="#1C1C1E"/>
</svg>
