<svg width="32" height="32" viewBox="0 0 32 32" fill="none" xmlns="http://www.w3.org/2000/svg">
<path d="M28.7073 17.7075L16.7073 29.7075C16.6144 29.8005 16.5041 29.8742 16.3828 29.9246C16.2614 29.9749 16.1312 30.0008 15.9998 30.0008C15.8684 30.0008 15.7383 29.9749 15.6169 29.9246C15.4955 29.8742 15.3852 29.8005 15.2923 29.7075L3.29231 17.7075C3.1523 17.5676 3.05693 17.3894 3.01828 17.1953C2.97963 17.0012 2.99944 16.8 3.07519 16.6172C3.15094 16.4344 3.27923 16.2782 3.44383 16.1683C3.60842 16.0584 3.80192 15.9998 3.99981 16H8.99981V13C8.99981 12.7348 9.10517 12.4804 9.2927 12.2929C9.48024 12.1054 9.73459 12 9.99981 12H21.9998C22.265 12 22.5194 12.1054 22.7069 12.2929C22.8945 12.4804 22.9998 12.7348 22.9998 13V16H27.9998C28.1977 15.9998 28.3912 16.0584 28.5558 16.1683C28.7204 16.2782 28.8487 16.4344 28.9244 16.6172C29.0002 16.8 29.02 17.0012 28.9813 17.1953C28.9427 17.3894 28.8473 17.5676 28.7073 17.7075ZM22.9998 5C22.9998 4.73478 22.8945 4.48043 22.7069 4.29289C22.5194 4.10536 22.265 4 21.9998 4H9.99981C9.73459 4 9.48024 4.10536 9.2927 4.29289C9.10517 4.48043 8.99981 4.73478 8.99981 5C8.99981 5.26522 9.10517 5.51957 9.2927 5.70711C9.48024 5.89464 9.73459 6 9.99981 6H21.9998C22.265 6 22.5194 5.89464 22.7069 5.70711C22.8945 5.51957 22.9998 5.26522 22.9998 5ZM22.9998 9C22.9998 8.73478 22.8945 8.48043 22.7069 8.29289C22.5194 8.10536 22.265 8 21.9998 8H9.99981C9.73459 8 9.48024 8.10536 9.2927 8.29289C9.10517 8.48043 8.99981 8.73478 8.99981 9C8.99981 9.26522 9.10517 9.51957 9.2927 9.70711C9.48024 9.89464 9.73459 10 9.99981 10H21.9998C22.265 10 22.5194 9.89464 22.7069 9.70711C22.8945 9.51957 22.9998 9.26522 22.9998 9Z" fill="#1C1C1E"/>
</svg>
