<svg width="32" height="32" viewBox="0 0 32 32" fill="none" xmlns="http://www.w3.org/2000/svg">
<path d="M29.9996 10V19C29.9997 19.1979 29.9412 19.3914 29.8313 19.556C29.7214 19.7206 29.5652 19.8489 29.3824 19.9246C29.1995 20.0004 28.9984 20.0202 28.8043 19.9815C28.6102 19.9429 28.4319 19.8475 28.2921 19.7075L24.4996 15.9138L15.7071 24.7075C15.6142 24.8005 15.5039 24.8742 15.3825 24.9246C15.2611 24.9749 15.131 25.0008 14.9996 25.0008C14.8682 25.0008 14.738 24.9749 14.6166 24.9246C14.4952 24.8742 14.385 24.8005 14.2921 24.7075L2.29208 12.7075C2.10444 12.5199 1.99902 12.2654 1.99902 12C1.99902 11.7346 2.10444 11.4801 2.29208 11.2925C2.47972 11.1049 2.73422 10.9994 2.99958 10.9994C3.26494 10.9994 3.51944 11.1049 3.70708 11.2925L14.9996 22.5863L23.0858 14.5L19.2921 10.7075C19.1521 10.5676 19.0567 10.3894 19.0181 10.1953C18.9794 10.0012 18.9992 9.80003 19.075 9.61721C19.1507 9.43439 19.279 9.27815 19.4436 9.16828C19.6082 9.05841 19.8017 8.99984 19.9996 9H28.9996C29.2648 9 29.5192 9.10536 29.7067 9.29289C29.8942 9.48043 29.9996 9.73478 29.9996 10Z" fill="#1C1C1E"/>
</svg>
