<svg width="32" height="32" viewBox="0 0 32 32" fill="none" xmlns="http://www.w3.org/2000/svg">
<path d="M27.9237 12.3823C27.8481 12.5651 27.72 12.7213 27.5555 12.8312C27.3911 12.9411 27.1978 12.9998 27 12.9998H22V23.9998C22 24.265 21.8946 24.5194 21.7071 24.7069C21.5196 24.8945 21.2652 24.9998 21 24.9998H3C2.73478 24.9998 2.48043 24.8945 2.29289 24.7069C2.10536 24.5194 2 24.265 2 23.9998C2 23.7346 2.10536 23.4802 2.29289 23.2927C2.48043 23.1052 2.73478 22.9998 3 22.9998H20V12.9998H15C14.8021 13 14.6086 12.9414 14.444 12.8315C14.2794 12.7217 14.1511 12.5654 14.0754 12.3826C13.9996 12.1998 13.9798 11.9986 14.0185 11.8045C14.0571 11.6104 14.1525 11.4322 14.2925 11.2923L20.2925 5.29231C20.3854 5.19933 20.4957 5.12557 20.6171 5.07525C20.7385 5.02493 20.8686 4.99902 21 4.99902C21.1314 4.99902 21.2615 5.02493 21.3829 5.07525C21.5043 5.12557 21.6146 5.19933 21.7075 5.29231L27.7075 11.2923C27.8473 11.4322 27.9425 11.6105 27.981 11.8045C28.0195 11.9985 27.9995 12.1996 27.9237 12.3823Z" fill="#1C1C1E"/>
</svg>
