<svg width="32" height="32" viewBox="0 0 32 32" fill="none" xmlns="http://www.w3.org/2000/svg">
<path d="M24.9996 11.0001V24.0001C24.9996 24.2653 24.8942 24.5196 24.7067 24.7072C24.5192 24.8947 24.2648 25.0001 23.9996 25.0001H10.9996C10.8017 25.0002 10.6082 24.9417 10.4436 24.8318C10.279 24.7219 10.1507 24.5657 10.075 24.3829C9.9992 24.2 9.9794 23.9988 10.0181 23.8048C10.0567 23.6107 10.1521 23.4324 10.2921 23.2926L16.0858 17.5001L7.29208 8.70757C7.10444 8.51993 6.99902 8.26543 6.99902 8.00007C6.99902 7.7347 7.10444 7.48021 7.29208 7.29257C7.47972 7.10493 7.73422 6.99951 7.99958 6.99951C8.26494 6.99951 8.51944 7.10493 8.70708 7.29257L17.4996 16.0863L23.2921 10.2926C23.4319 10.1526 23.6102 10.0572 23.8043 10.0185C23.9984 9.97989 24.1995 9.99969 24.3824 10.0754C24.5652 10.1512 24.7214 10.2795 24.8313 10.4441C24.9412 10.6087 24.9997 10.8022 24.9996 11.0001Z" fill="#1C1C1E"/>
</svg>
