<svg width="32" height="32" viewBox="0 0 32 32" fill="none" xmlns="http://www.w3.org/2000/svg">
<path d="M24.5148 15.9998C27.5961 11.6736 29.1673 7.20231 26.9823 5.01732C24.7973 2.83232 20.3261 4.40357 15.9998 7.48482C11.6736 4.40357 7.20231 2.83232 5.01732 5.01732C2.83232 7.20231 4.40357 11.6736 7.48482 15.9998C4.40357 20.3261 2.83232 24.7973 5.01732 26.9823C5.72107 27.6861 6.66106 27.9998 7.75606 27.9998C10.0648 27.9998 13.0661 26.6036 16.0061 24.5148C18.9336 26.6036 21.9336 27.9998 24.2498 27.9998C25.3448 27.9998 26.2861 27.6848 26.9886 26.9823C29.1673 24.7973 27.5961 20.3261 24.5148 15.9998ZM25.5686 6.43107C26.5236 7.38607 25.8786 10.4811 23.2536 14.3411C22.4231 13.313 21.539 12.3296 20.6048 11.3948C19.6696 10.4623 18.6862 9.57942 17.6586 8.74981C21.5186 6.12481 24.6136 5.47607 25.5686 6.43107ZM6.43107 6.43107C6.70607 6.15482 7.15981 6.01231 7.75856 6.01231C9.23606 6.01231 11.5948 6.87481 14.3398 8.74981C13.3129 9.57972 12.3299 10.4626 11.3948 11.3948C10.4619 12.3297 9.57904 13.3131 8.74981 14.3411C6.12481 10.4811 5.47607 7.38607 6.43107 6.43107ZM6.43107 25.5686C5.47607 24.6136 6.12481 21.5186 8.74981 17.6586C9.58026 18.6866 10.4644 19.67 11.3986 20.6048C12.3328 21.537 13.315 22.4198 14.3411 23.2498C10.4811 25.8748 7.38607 26.5236 6.43107 25.5686ZM15.9998 17.4998C15.7031 17.4998 15.4131 17.4118 15.1665 17.247C14.9198 17.0822 14.7275 16.8479 14.614 16.5738C14.5005 16.2998 14.4708 15.9982 14.5286 15.7072C14.5865 15.4162 14.7294 15.1489 14.9392 14.9392C15.1489 14.7294 15.4162 14.5865 15.7072 14.5286C15.9982 14.4708 16.2998 14.5005 16.5738 14.614C16.8479 14.7275 17.0822 14.9198 17.247 15.1665C17.4118 15.4131 17.4998 15.7031 17.4998 15.9998C17.4998 16.3976 17.3418 16.7792 17.0605 17.0605C16.7792 17.3418 16.3976 17.4998 15.9998 17.4998ZM25.5686 25.5698C24.6136 26.5261 21.5186 25.8798 17.6586 23.2548C18.686 22.4237 19.6694 21.5396 20.6048 20.6061C21.5377 19.6708 22.4206 18.6869 23.2498 17.6586C25.8748 21.5186 26.5236 24.6136 25.5686 25.5686V25.5698Z" fill="#1C1C1E"/>
</svg>
