<svg width="32" height="32" viewBox="0 0 32 32" fill="none" xmlns="http://www.w3.org/2000/svg">
<path d="M26.3746 16.3329L22.6496 5.80918C22.193 4.42143 21.3136 3.21132 20.1347 2.34845C18.9558 1.48558 17.5365 1.01319 16.0756 0.997475C14.6147 0.981764 13.1856 1.42352 11.9884 2.26084C10.7912 3.09816 9.88599 4.28907 9.39962 5.66668L5.71087 16.1042C5.08554 17.7594 4.86871 19.541 5.07879 21.2979C5.28887 23.0547 5.91966 24.735 6.91763 26.1961C7.91561 27.6572 9.25131 28.8559 10.8114 29.6907C12.3715 30.5255 14.1099 30.9716 15.8792 30.9911C17.6485 31.0107 19.3964 30.6032 20.9746 29.8032C22.5528 29.0032 23.9147 27.8343 24.9448 26.3956C25.9748 24.957 26.6427 23.2911 26.8916 21.5393C27.1405 19.7875 26.9632 18.0016 26.3746 16.3329ZM15.9996 25.0004C15.0107 25.0004 14.044 24.7072 13.2218 24.1578C12.3995 23.6084 11.7587 22.8275 11.3802 21.9138C11.0018 21.0002 10.9028 19.9949 11.0957 19.025C11.2886 18.0551 11.7648 17.1642 12.4641 16.4649C13.1634 15.7656 14.0543 15.2894 15.0242 15.0965C15.9941 14.9036 16.9994 15.0026 17.913 15.381C18.8267 15.7595 19.6076 16.4003 20.157 17.2226C20.7064 18.0448 20.9996 19.0115 20.9996 20.0004C20.9996 21.3265 20.4728 22.5983 19.5352 23.536C18.5975 24.4736 17.3257 25.0004 15.9996 25.0004Z" fill="#1C1C1E"/>
</svg>
