<svg width="32" height="32" viewBox="0 0 32 32" fill="none" xmlns="http://www.w3.org/2000/svg">
<path d="M31.8935 12.2154C31.7738 11.859 31.5561 11.5436 31.2654 11.3052C30.9747 11.0669 30.6226 10.9153 30.2497 10.8679C27.9678 10.5613 25.7716 9.79595 23.7935 8.61791L25.0822 7.33041C25.6252 6.73659 25.9181 5.95624 25.9002 5.15182C25.8822 4.3474 25.5546 3.58092 24.9856 3.01197C24.4167 2.44302 23.6502 2.11545 22.8458 2.09746C22.0414 2.07947 21.261 2.37246 20.6672 2.91541L19.0172 4.56666C18.726 4.21666 18.541 3.96166 18.466 3.85541C18.2986 3.61627 18.0809 3.41667 17.8281 3.27063C17.5754 3.12459 17.2937 3.03563 17.003 3.01002C16.7122 2.98441 16.4193 3.02276 16.1449 3.12238C15.8706 3.22199 15.6213 3.38046 15.4147 3.58666L10.5847 8.42041C10.3787 8.62693 10.2203 8.87602 10.1207 9.15022C10.0211 9.42442 9.98274 9.71709 10.0082 10.0077C10.0337 10.2983 10.1225 10.5798 10.2683 10.8325C10.4141 11.0852 10.6134 11.3029 10.8522 11.4704C10.9597 11.5454 11.2147 11.7304 11.5647 12.0217L0.913454 22.6717C0.370504 23.2655 0.0775207 24.0458 0.0955084 24.8502C0.113496 25.6547 0.441068 26.4211 1.01002 26.9901C1.57897 27.559 2.34545 27.8866 3.14987 27.9046C3.95428 27.9226 4.73464 27.6296 5.32845 27.0867L15.616 16.7979C16.7935 18.7763 17.5588 20.9724 17.866 23.2542C17.9139 23.6263 18.0656 23.9774 18.3037 24.2674C18.5417 24.5574 18.8566 24.7746 19.2122 24.8942C19.4196 24.9641 19.637 25 19.856 25.0004C20.1176 25.0003 20.3767 24.9484 20.6182 24.8478C20.8598 24.7472 21.0791 24.5998 21.2635 24.4142L31.411 14.2654C31.6758 14.0035 31.8616 13.6723 31.9469 13.3098C32.0323 12.9472 32.0137 12.5679 31.8935 12.2154ZM22.086 4.32916C22.1863 4.20973 22.3103 4.11247 22.4502 4.04354C22.5901 3.97461 22.7428 3.93552 22.8986 3.92875C23.0544 3.92198 23.2099 3.94769 23.3553 4.00423C23.5006 4.06077 23.6326 4.14692 23.7429 4.2572C23.8532 4.36748 23.9393 4.49948 23.9959 4.64483C24.0524 4.79018 24.0781 4.94569 24.0714 5.1015C24.0646 5.25731 24.0255 5.41002 23.9566 5.54992C23.8876 5.68982 23.7904 5.81385 23.671 5.91416L22.1022 7.48291C21.5024 7.03168 20.9297 6.54541 20.3872 6.02666L22.086 4.32916ZM3.91345 25.6717C3.81315 25.7911 3.68911 25.8883 3.54921 25.9573C3.40931 26.0262 3.25661 26.0653 3.1008 26.0721C2.94499 26.0788 2.78947 26.0531 2.64412 25.9966C2.49878 25.94 2.36677 25.8539 2.25649 25.7436C2.14621 25.6333 2.06007 25.5013 2.00353 25.356C1.94698 25.2106 1.92128 25.0551 1.92805 24.8993C1.93481 24.7435 1.9739 24.5908 2.04283 24.4509C2.11176 24.311 2.20903 24.187 2.32845 24.0867L13.026 13.3892C13.5453 13.9311 14.0316 14.5038 14.4822 15.1042L3.91345 25.6717Z" fill="#1C1C1E"/>
</svg>
