<svg width="32" height="32" viewBox="0 0 32 32" fill="none" xmlns="http://www.w3.org/2000/svg">
<path d="M27.0003 5H8.56656C8.22145 5.00148 7.8825 5.09156 7.58221 5.26163C7.28191 5.4317 7.03032 5.67604 6.85156 5.97125L1.14281 15.485C1.04937 15.6405 1 15.8186 1 16C1 16.1814 1.04937 16.3595 1.14281 16.515L6.85156 26.0287C7.03023 26.324 7.2818 26.5685 7.58212 26.7385C7.88244 26.9086 8.22143 26.9986 8.56656 27H27.0003C27.5307 27 28.0394 26.7893 28.4145 26.4142C28.7896 26.0391 29.0003 25.5304 29.0003 25V7C29.0003 6.46957 28.7896 5.96086 28.4145 5.58579C28.0394 5.21071 27.5307 5 27.0003 5ZM20.7078 18.2925C20.8007 18.3854 20.8744 18.4957 20.9247 18.6171C20.975 18.7385 21.0009 18.8686 21.0009 19C21.0009 19.1314 20.975 19.2615 20.9247 19.3829C20.8744 19.5043 20.8007 19.6146 20.7078 19.7075C20.6149 19.8004 20.5046 19.8741 20.3832 19.9244C20.2618 19.9747 20.1317 20.0006 20.0003 20.0006C19.8689 20.0006 19.7388 19.9747 19.6174 19.9244C19.496 19.8741 19.3857 19.8004 19.2928 19.7075L17.0003 17.4137L14.7066 19.7075C14.5189 19.895 14.2645 20.0002 13.9992 20.0001C13.734 20 13.4797 19.8945 13.2922 19.7069C13.1047 19.5192 12.9995 19.2648 12.9996 18.9996C12.9997 18.7343 13.1052 18.48 13.2928 18.2925L15.5866 16L13.2928 13.7075C13.1052 13.52 12.9997 13.2657 12.9996 13.0004C12.9995 12.8691 13.0253 12.739 13.0755 12.6177C13.1257 12.4963 13.1994 12.386 13.2922 12.2931C13.385 12.2002 13.4952 12.1265 13.6165 12.0762C13.7379 12.0259 13.8679 11.9999 13.9992 11.9999C14.2645 11.9998 14.5189 12.105 14.7066 12.2925L17.0003 14.5863L19.2928 12.2925C19.3857 12.1996 19.496 12.1259 19.6174 12.0756C19.7388 12.0253 19.8689 11.9994 20.0003 11.9994C20.1317 11.9994 20.2618 12.0253 20.3832 12.0756C20.5046 12.1259 20.6149 12.1996 20.7078 12.2925C20.8007 12.3854 20.8744 12.4957 20.9247 12.6171C20.975 12.7385 21.0009 12.8686 21.0009 13C21.0009 13.1314 20.975 13.2615 20.9247 13.3829C20.8744 13.5043 20.8007 13.6146 20.7078 13.7075L18.4141 16L20.7078 18.2925Z" fill="#1C1C1E"/>
</svg>
