<svg width="32" height="32" viewBox="0 0 32 32" fill="none" xmlns="http://www.w3.org/2000/svg">
<path d="M31 25.9997C31 26.2649 30.8946 26.5192 30.7071 26.7068C30.5196 26.8943 30.2652 26.9997 30 26.9997H2C1.73478 26.9997 1.48043 26.8943 1.29289 26.7068C1.10536 26.5192 1 26.2649 1 25.9997C1 25.7344 1.10536 25.4801 1.29289 25.2925C1.48043 25.105 1.73478 24.9997 2 24.9997H30C30.2652 24.9997 30.5196 25.105 30.7071 25.2925C30.8946 25.4801 31 25.7344 31 25.9997ZM2.0375 12.2722C1.97802 12.0624 1.9887 11.839 2.0679 11.636C2.1471 11.4329 2.2905 11.2612 2.47625 11.1472L15.4762 3.14715C15.6338 3.0503 15.8151 2.99902 16 2.99902C16.1849 2.99902 16.3662 3.0503 16.5238 3.14715L29.5238 11.1472C29.7096 11.2611 29.8531 11.4326 29.9324 11.6356C30.0118 11.8386 30.0226 12.062 29.9633 12.2717C29.904 12.4815 29.7778 12.6661 29.6039 12.7975C29.43 12.9289 29.218 12.9999 29 12.9997H26V20.9997H28C28.2652 20.9997 28.5196 21.105 28.7071 21.2925C28.8946 21.4801 29 21.7344 29 21.9997C29 22.2649 28.8946 22.5192 28.7071 22.7068C28.5196 22.8943 28.2652 22.9997 28 22.9997H4C3.73478 22.9997 3.48043 22.8943 3.29289 22.7068C3.10536 22.5192 3 22.2649 3 21.9997C3 21.7344 3.10536 21.4801 3.29289 21.2925C3.48043 21.105 3.73478 20.9997 4 20.9997H6V12.9997H3C2.78224 12.9997 2.5704 12.9287 2.39668 12.7974C2.22295 12.6661 2.09684 12.4817 2.0375 12.2722ZM18 19.9997C18 20.2649 18.1054 20.5192 18.2929 20.7068C18.4804 20.8943 18.7348 20.9997 19 20.9997C19.2652 20.9997 19.5196 20.8943 19.7071 20.7068C19.8946 20.5192 20 20.2649 20 19.9997V13.9997C20 13.7344 19.8946 13.4801 19.7071 13.2925C19.5196 13.105 19.2652 12.9997 19 12.9997C18.7348 12.9997 18.4804 13.105 18.2929 13.2925C18.1054 13.4801 18 13.7344 18 13.9997V19.9997ZM12 19.9997C12 20.2649 12.1054 20.5192 12.2929 20.7068C12.4804 20.8943 12.7348 20.9997 13 20.9997C13.2652 20.9997 13.5196 20.8943 13.7071 20.7068C13.8946 20.5192 14 20.2649 14 19.9997V13.9997C14 13.7344 13.8946 13.4801 13.7071 13.2925C13.5196 13.105 13.2652 12.9997 13 12.9997C12.7348 12.9997 12.4804 13.105 12.2929 13.2925C12.1054 13.4801 12 13.7344 12 13.9997V19.9997Z" fill="#1C1C1E"/>
</svg>
