<svg width="32" height="32" viewBox="0 0 32 32" fill="none" xmlns="http://www.w3.org/2000/svg">
<path d="M30 23.9998H29V16.321L29.1862 16.581C29.2599 16.6943 29.3556 16.7915 29.4678 16.8667C29.58 16.9419 29.7063 16.9936 29.8391 17.0187C29.9718 17.0438 30.1082 17.0417 30.2401 17.0126C30.372 16.9835 30.4967 16.928 30.6065 16.8494C30.7164 16.7708 30.8092 16.6708 30.8793 16.5553C30.9495 16.4399 30.9955 16.3114 31.0146 16.1777C31.0338 16.044 31.0256 15.9078 30.9906 15.7773C30.9557 15.6468 30.8947 15.5248 30.8112 15.4185L25.8112 8.41853C25.7427 8.32369 25.6581 8.24161 25.5612 8.17603L17.125 2.34603L17.1125 2.33728C16.7838 2.118 16.3976 2.00098 16.0025 2.00098C15.6074 2.00098 15.2212 2.118 14.8925 2.33728L14.88 2.34603L6.43124 8.17728C6.33437 8.24286 6.24975 8.32494 6.18124 8.41978L1.18124 15.4198C1.09782 15.526 1.0368 15.6481 1.00184 15.7785C0.966882 15.909 0.958722 16.0452 0.977852 16.1789C0.996982 16.3127 1.04301 16.4411 1.11314 16.5566C1.18328 16.672 1.27608 16.772 1.38594 16.8506C1.49581 16.9292 1.62045 16.9848 1.75236 17.0139C1.88427 17.0429 2.0207 17.045 2.15344 17.0199C2.28617 16.9949 2.41244 16.9432 2.52464 16.8679C2.63684 16.7927 2.73263 16.6955 2.80624 16.5823L2.99999 16.321V23.9998H1.99999C1.73478 23.9998 1.48042 24.1051 1.29289 24.2927C1.10535 24.4802 0.999993 24.7346 0.999993 24.9998C0.999993 25.265 1.10535 25.5193 1.29289 25.7069C1.48042 25.8944 1.73478 25.9998 1.99999 25.9998H30C30.2652 25.9998 30.5196 25.8944 30.7071 25.7069C30.8946 25.5193 31 25.265 31 24.9998C31 24.7346 30.8946 24.4802 30.7071 24.2927C30.5196 24.1051 30.2652 23.9998 30 23.9998ZM14 9.99978H18C18.2652 9.99978 18.5196 10.1051 18.7071 10.2927C18.8946 10.4802 19 10.7346 19 10.9998C19 11.265 18.8946 11.5193 18.7071 11.7069C18.5196 11.8944 18.2652 11.9998 18 11.9998H14C13.7348 11.9998 13.4804 11.8944 13.2929 11.7069C13.1053 11.5193 13 11.265 13 10.9998C13 10.7346 13.1053 10.4802 13.2929 10.2927C13.4804 10.1051 13.7348 9.99978 14 9.99978ZM20.58 14.9998L16 18.271L11.42 14.9998H20.58ZM8.99999 15.7285L14.28 19.4998L8.99999 23.271V15.7285ZM11.42 23.9998L16 20.7285L20.58 23.9998H11.42ZM23 23.271L17.72 19.4998L23 15.7285V23.271Z" fill="#1C1C1E"/>
</svg>
