<svg width="32" height="32" viewBox="0 0 32 32" fill="none" xmlns="http://www.w3.org/2000/svg">
<path d="M31 14.9997H27.9625C27.7072 11.6459 26.162 8.5216 23.6515 6.28318C21.141 4.04477 17.8607 2.86651 14.4996 2.99597C11.1386 3.12543 7.95863 4.55252 5.62774 6.97741C3.29686 9.4023 1.99654 12.6362 2.00001 15.9997V18.9997C2.00265 21.3859 2.95172 23.6735 4.63897 25.3608C6.32622 27.048 8.61387 27.9971 11 27.9997H16C18.3861 27.9971 20.6738 27.048 22.361 25.3608C24.0483 23.6735 24.9974 21.3859 25 18.9997V16.9997H31C31.2652 16.9997 31.5196 16.8944 31.7071 16.7068C31.8947 16.5193 32 16.2649 32 15.9997C32 15.7345 31.8947 15.4801 31.7071 15.2926C31.5196 15.1051 31.2652 14.9997 31 14.9997ZM11 22.4997C10.4067 22.4997 9.82664 22.3238 9.3333 21.9941C8.83995 21.6645 8.45543 21.1959 8.22837 20.6478C8.00131 20.0996 7.9419 19.4964 8.05765 18.9144C8.17341 18.3325 8.45913 17.798 8.87869 17.3784C9.29824 16.9588 9.83279 16.6731 10.4147 16.5574C10.9967 16.4416 11.5999 16.501 12.1481 16.7281C12.6962 16.9551 13.1648 17.3397 13.4944 17.833C13.8241 18.3264 14 18.9064 14 19.4997C14 20.2954 13.6839 21.0584 13.1213 21.621C12.5587 22.1836 11.7957 22.4997 11 22.4997ZM23 18.9997C22.9982 20.7357 22.352 22.4093 21.1867 23.6961C20.0213 24.9829 18.4199 25.7913 16.6925 25.9647C17.7262 25.1221 18.5594 24.0598 19.1315 22.8551C19.7036 21.6504 20.0003 20.3334 20 18.9997V16.9997H23V18.9997Z" fill="#1C1C1E"/>
</svg>
