<svg width="32" height="32" viewBox="0 0 32 32" fill="none" xmlns="http://www.w3.org/2000/svg">
<path d="M29.7501 10.3415C29.6565 10.2346 29.5412 10.1489 29.4118 10.09C29.2825 10.0312 29.1421 10.0006 29.0001 10.0002H23.4538L16.7501 2.34149C16.6562 2.23509 16.5408 2.14986 16.4115 2.09149C16.2822 2.03312 16.1419 2.00293 16.0001 2.00293C15.8582 2.00293 15.7179 2.03312 15.5886 2.09149C15.4593 2.14986 15.3439 2.23509 15.2501 2.34149L8.54632 10.0002H3.00007C2.85755 10.0002 2.71667 10.0307 2.58689 10.0896C2.4571 10.1484 2.34139 10.2344 2.24753 10.3416C2.15366 10.4489 2.0838 10.5749 2.04263 10.7114C2.00146 10.8478 1.98993 10.9915 2.00882 11.1327L3.89257 25.2652C3.95828 25.7449 4.1951 26.1846 4.5594 26.5034C4.92371 26.8223 5.39096 26.9987 5.87507 27.0002H26.1251C26.6092 26.9987 27.0764 26.8223 27.4407 26.5034C27.805 26.1846 28.0419 25.7449 28.1076 25.2652L29.9913 11.1327C30.0099 10.9913 29.998 10.8475 29.9563 10.711C29.9147 10.5745 29.8444 10.4485 29.7501 10.3415ZM10.2001 23.0002C10.1663 23.0021 10.1325 23.0021 10.0988 23.0002C9.85005 23.0015 9.60975 22.91 9.42484 22.7435C9.23993 22.5771 9.12369 22.3478 9.09882 22.1002L8.39882 15.1002C8.3723 14.8364 8.45169 14.5727 8.61953 14.3674C8.78738 14.162 9.02993 14.0318 9.29382 14.0052C9.55771 13.9787 9.82132 14.0581 10.0267 14.226C10.232 14.3938 10.3623 14.6364 10.3888 14.9002L11.0888 21.9002C11.1168 22.164 11.0389 22.428 10.8722 22.6343C10.7056 22.8406 10.4638 22.9722 10.2001 23.0002ZM17.0001 22.0002C17.0001 22.2655 16.8947 22.5198 16.7072 22.7073C16.5196 22.8949 16.2653 23.0002 16.0001 23.0002C15.7348 23.0002 15.4805 22.8949 15.293 22.7073C15.1054 22.5198 15.0001 22.2655 15.0001 22.0002V15.0002C15.0001 14.735 15.1054 14.4807 15.293 14.2931C15.4805 14.1056 15.7348 14.0002 16.0001 14.0002C16.2653 14.0002 16.5196 14.1056 16.7072 14.2931C16.8947 14.4807 17.0001 14.735 17.0001 15.0002V22.0002ZM11.2038 10.0002L16.0001 4.51899L20.7963 10.0002H11.2038ZM23.5951 15.1002L22.8951 22.1002C22.8703 22.3467 22.7549 22.5752 22.5714 22.7414C22.3878 22.9077 22.149 22.9999 21.9013 23.0002C21.8676 23.0021 21.8338 23.0021 21.8001 23.0002C21.6694 22.9871 21.5426 22.9484 21.4269 22.8862C21.3112 22.8241 21.2089 22.7398 21.1258 22.6381C21.0427 22.5364 20.9804 22.4194 20.9425 22.2936C20.9047 22.1679 20.8919 22.0359 20.9051 21.9052L21.6051 14.9052C21.6316 14.6414 21.7619 14.3988 21.9672 14.231C22.1726 14.0631 22.4362 13.9837 22.7001 14.0102C22.964 14.0368 23.2065 14.167 23.3743 14.3724C23.5422 14.5777 23.6216 14.8414 23.5951 15.1052V15.1002Z" fill="#1C1C1E"/>
</svg>
