<svg width="32" height="32" viewBox="0 0 32 32" fill="none" xmlns="http://www.w3.org/2000/svg">
<path d="M7.94968 5.79829C9.82442 4.31253 12.0745 3.37574 14.4497 3.09204C14.5199 3.08409 14.591 3.09112 14.6583 3.11266C14.7256 3.1342 14.7876 3.16977 14.8402 3.21701C14.8927 3.26426 14.9347 3.32211 14.9633 3.38676C14.9918 3.4514 15.0064 3.52137 15.0059 3.59204V14.9995H11.9622C11.7137 11.7798 10.2731 8.7685 7.92218 6.55454C7.86958 6.50566 7.82813 6.44602 7.80065 6.37969C7.77316 6.31336 7.76028 6.24188 7.76289 6.17013C7.7655 6.09837 7.78354 6.02802 7.81577 5.96386C7.848 5.89969 7.89367 5.84322 7.94968 5.79829ZM5.74968 8.00829C4.29162 9.86908 3.37122 12.0938 3.08843 14.4408C3.08009 14.5112 3.08683 14.5826 3.1082 14.6502C3.12957 14.7178 3.16507 14.7801 3.21236 14.833C3.25965 14.8858 3.31764 14.928 3.38247 14.9567C3.44731 14.9854 3.51752 15 3.58843 14.9995H9.95343C9.70675 12.3019 8.47181 9.79064 6.48593 7.94829C6.43506 7.90092 6.37487 7.86468 6.30921 7.84187C6.24354 7.81907 6.17384 7.81021 6.10456 7.81585C6.03528 7.8215 5.96794 7.84153 5.90683 7.87466C5.84573 7.9078 5.7922 7.95331 5.74968 8.00829ZM24.0497 5.79829C22.1749 4.31253 19.9249 3.37574 17.5497 3.09204C17.4794 3.08409 17.4083 3.09112 17.341 3.11266C17.2737 3.1342 17.2117 3.16977 17.1592 3.21701C17.1066 3.26426 17.0647 3.32211 17.0361 3.38676C17.0075 3.4514 16.993 3.52137 16.9934 3.59204V14.9995H20.0309C20.2794 11.7798 21.72 8.7685 24.0709 6.55454C24.1239 6.5061 24.1658 6.44682 24.1938 6.38073C24.2218 6.31465 24.2353 6.24331 24.2333 6.17156C24.2312 6.09981 24.2138 6.02934 24.1821 5.96493C24.1504 5.90052 24.1053 5.84369 24.0497 5.79829ZM28.9072 14.4408C28.6255 12.0942 27.7064 9.8695 26.2497 8.00829C26.2072 7.95389 26.1538 7.90889 26.0931 7.87612C26.0323 7.84335 25.9654 7.82353 25.8966 7.81789C25.8277 7.81225 25.7585 7.82093 25.6932 7.84337C25.6279 7.86582 25.568 7.90154 25.5172 7.94829C23.5299 9.79004 22.2936 12.3014 22.0459 14.9995H28.4097C28.4804 14.9997 28.5503 14.9848 28.6148 14.9559C28.6794 14.9271 28.7371 14.8848 28.7841 14.832C28.8311 14.7792 28.8664 14.7171 28.8876 14.6496C28.9088 14.5822 28.9155 14.511 28.9072 14.4408ZM3.09218 17.5583C3.37388 19.9049 4.29296 22.1296 5.74968 23.9908C5.7922 24.0452 5.84553 24.0902 5.9063 24.123C5.96707 24.1557 6.03397 24.1756 6.10279 24.1812C6.1716 24.1868 6.24084 24.1782 6.30613 24.1557C6.37143 24.1333 6.43137 24.0975 6.48218 24.0508C8.46945 22.209 9.70576 19.6977 9.95343 16.9995H3.58968C3.51898 16.9994 3.44905 17.0143 3.38451 17.0431C3.31998 17.072 3.2623 17.1142 3.21528 17.167C3.16827 17.2199 3.13299 17.282 3.11177 17.3495C3.09055 17.4169 3.08387 17.4881 3.09218 17.5583ZM26.2497 23.9908C27.7077 22.13 28.6281 19.9053 28.9109 17.5583C28.9193 17.4879 28.9125 17.4165 28.8912 17.3489C28.8698 17.2813 28.8343 17.219 28.787 17.1661C28.7397 17.1133 28.6817 17.0711 28.6169 17.0424C28.552 17.0136 28.4818 16.9991 28.4109 16.9995H22.0459C22.2926 19.6972 23.5275 22.2084 25.5134 24.0508C25.5643 24.0982 25.6245 24.1344 25.6901 24.1572C25.7558 24.18 25.8255 24.1889 25.8948 24.1832C25.9641 24.1776 26.0314 24.1576 26.0925 24.1244C26.1536 24.0913 26.2071 24.0458 26.2497 23.9908ZM7.94968 26.2008C9.82442 27.6866 12.0745 28.6233 14.4497 28.907C14.5199 28.915 14.591 28.908 14.6583 28.8864C14.7256 28.8649 14.7876 28.8293 14.8402 28.7821C14.8927 28.7348 14.9347 28.677 14.9633 28.6123C14.9918 28.5477 15.0064 28.4777 15.0059 28.407V16.9995H11.9622C11.7137 20.2193 10.2731 23.2306 7.92218 25.4445C7.86958 25.4934 7.82813 25.5531 7.80065 25.6194C7.77316 25.6857 7.76028 25.7572 7.76289 25.829C7.7655 25.9007 7.78354 25.9711 7.81577 26.0352C7.848 26.0994 7.89367 26.1559 7.94968 26.2008ZM20.0372 16.9995H16.9997V28.4095C16.9992 28.4802 17.0138 28.5502 17.0423 28.6148C17.0709 28.6795 17.1129 28.7373 17.1654 28.7846C17.218 28.8318 17.28 28.8674 17.3473 28.8889C17.4146 28.9105 17.4857 28.9175 17.5559 28.9095C19.9311 28.6258 22.1812 27.6891 24.0559 26.2033C24.1119 26.1584 24.1576 26.1019 24.1898 26.0377C24.2221 25.9736 24.2401 25.9032 24.2427 25.8315C24.2453 25.7597 24.2324 25.6882 24.205 25.6219C24.1775 25.5556 24.136 25.4959 24.0834 25.447C21.7296 23.2335 20.2867 20.2211 20.0372 16.9995Z" fill="#1C1C1E"/>
</svg>
