<svg width="32" height="32" viewBox="0 0 32 32" fill="none" xmlns="http://www.w3.org/2000/svg">
<path d="M28 20.2696V17.9996C27.995 15.3336 27.1041 12.7448 25.4672 10.6404C23.8303 8.53604 21.5404 7.03544 18.9575 6.37461C19.2925 5.84527 19.4793 5.23572 19.4984 4.60957C19.5175 3.98343 19.3681 3.36363 19.066 2.81487C18.7639 2.2661 18.32 1.80849 17.7807 1.48977C17.2414 1.17106 16.6264 1.00293 16 1.00293C15.3736 1.00293 14.7586 1.17106 14.2193 1.48977C13.68 1.80849 13.2361 2.2661 12.934 2.81487C12.6319 3.36363 12.4825 3.98343 12.5016 4.60957C12.5207 5.23572 12.7075 5.84527 13.0425 6.37461C10.4596 7.03544 8.16971 8.53604 6.53282 10.6404C4.89593 12.7448 4.00495 15.3336 4 17.9996V20.2696C3.69626 20.445 3.44398 20.6971 3.26846 21.0008C3.09294 21.3044 3.00036 21.6489 3 21.9996V25.9996C3 26.53 3.21071 27.0388 3.58579 27.4138C3.96086 27.7889 4.46957 27.9996 5 27.9996H27C27.5304 27.9996 28.0391 27.7889 28.4142 27.4138C28.7893 27.0388 29 26.53 29 25.9996V21.9996C28.9996 21.6489 28.9071 21.3044 28.7315 21.0008C28.556 20.6971 28.3037 20.445 28 20.2696ZM15 21.9996V25.9996H10V21.9996H15ZM17 21.9996H22V25.9996H17V21.9996ZM14.5 4.49961C14.5 4.20294 14.588 3.91293 14.7528 3.66626C14.9176 3.41958 15.1519 3.22732 15.426 3.11379C15.7001 3.00026 16.0017 2.97056 16.2926 3.02843C16.5836 3.08631 16.8509 3.22917 17.0607 3.43895C17.2704 3.64873 17.4133 3.916 17.4712 4.20698C17.5291 4.49795 17.4993 4.79955 17.3858 5.07364C17.2723 5.34773 17.08 5.58199 16.8334 5.74682C16.5867 5.91164 16.2967 5.99961 16 5.99961C15.6022 5.99961 15.2206 5.84158 14.9393 5.56027C14.658 5.27897 14.5 4.89744 14.5 4.49961ZM5 21.9996H8V25.9996H5V21.9996ZM27 25.9996H24V21.9996H27V25.9996Z" fill="#1C1C1E"/>
</svg>
