<svg width="32" height="32" viewBox="0 0 32 32" fill="none" xmlns="http://www.w3.org/2000/svg">
<path d="M30.7072 5.29208L26.7072 1.29208C26.5196 1.10444 26.2651 0.999023 25.9997 0.999023C25.7343 0.999023 25.4798 1.10444 25.2922 1.29208C25.1046 1.47972 24.9991 1.73422 24.9991 1.99958C24.9991 2.26494 25.1046 2.51944 25.2922 2.70708L25.4772 2.89083L18.581 8.06333L13.8035 9.01958C13.61 9.05833 13.4322 9.15309 13.2922 9.29208L2.8747 19.7071C2.31214 20.2697 1.99609 21.0327 1.99609 21.8283C1.99609 22.6239 2.31214 23.387 2.8747 23.9496L8.0497 29.1246C8.61231 29.6871 9.37534 30.0032 10.171 30.0032C10.9666 30.0032 11.7296 29.6871 12.2922 29.1246L22.7072 18.7108C22.8465 18.571 22.9413 18.3932 22.9797 18.1996L23.936 13.4221L29.1085 6.52583L29.2922 6.71083C29.3851 6.80374 29.4954 6.87744 29.6168 6.92772C29.7382 6.97801 29.8683 7.00389 29.9997 7.00389C30.1311 7.00389 30.2612 6.97801 30.3826 6.92772C30.504 6.87744 30.6143 6.80374 30.7072 6.71083C30.8001 6.61792 30.8738 6.50762 30.9241 6.38623C30.9744 6.26483 31.0003 6.13472 31.0003 6.00333C31.0003 5.87193 30.9744 5.74183 30.9241 5.62043C30.8738 5.49904 30.8001 5.38874 30.7072 5.29583V5.29208ZM10.171 27.9996C10.0397 27.9999 9.90976 27.9743 9.78854 27.9241C9.66731 27.8738 9.55724 27.8001 9.4647 27.7071L4.2922 22.5346C4.10481 22.3471 3.99954 22.0928 3.99954 21.8277C3.99954 21.5626 4.10481 21.3083 4.2922 21.1208L4.9997 20.4133L11.586 26.9996L10.8747 27.7071C10.6879 27.8937 10.4349 27.9988 10.171 27.9996ZM22.1997 12.3996C22.11 12.5189 22.0485 12.6569 22.0197 12.8033L21.0785 17.5071L19.9997 18.5858L13.4135 11.9996L14.4922 10.9208L19.196 9.97958C19.3424 9.95078 19.4804 9.88924 19.5997 9.79958L26.906 4.31958L27.6797 5.09333L22.1997 12.3996Z" fill="#1C1C1E"/>
</svg>
