<svg width="32" height="32" viewBox="0 0 32 32" fill="none" xmlns="http://www.w3.org/2000/svg">
<path d="M27.7245 21.9925C27.0308 20.7975 25.9995 17.4163 25.9995 13C25.9995 10.3478 24.946 7.8043 23.0706 5.92893C21.1952 4.05357 18.6517 3 15.9995 3C13.3474 3 10.8038 4.05357 8.92846 5.92893C7.0531 7.8043 5.99953 10.3478 5.99953 13C5.99953 17.4175 4.96703 20.7975 4.27328 21.9925C4.09612 22.2963 4.0022 22.6415 4.00099 22.9931C3.99978 23.3448 4.09133 23.6906 4.2664 23.9956C4.44147 24.3006 4.69388 24.5541 4.99816 24.7304C5.30244 24.9068 5.64784 24.9997 5.99953 25H11.1008C11.3315 26.1289 11.9451 27.1436 12.8377 27.8722C13.7303 28.6009 14.8472 28.9989 15.9995 28.9989C17.1518 28.9989 18.2687 28.6009 19.1614 27.8722C20.054 27.1436 20.6676 26.1289 20.8983 25H25.9995C26.3511 24.9995 26.6964 24.9064 27.0005 24.73C27.3046 24.5535 27.5568 24.3 27.7317 23.9951C27.9066 23.6901 27.9981 23.3444 27.9968 22.9928C27.9956 22.6412 27.9016 22.2962 27.7245 21.9925ZM15.9995 27C15.3793 26.9998 14.7744 26.8074 14.268 26.4492C13.7617 26.0911 13.3788 25.5848 13.172 25H18.827C18.6203 25.5848 18.2374 26.0911 17.731 26.4492C17.2247 26.8074 16.6198 26.9998 15.9995 27ZM17.9995 19H13.9995C13.8185 18.9999 13.641 18.9507 13.4858 18.8576C13.3306 18.7645 13.2035 18.631 13.1182 18.4714C13.0329 18.3118 12.9925 18.1321 13.0013 17.9513C13.0101 17.7705 13.0678 17.5955 13.1683 17.445L16.1308 13H13.9995C13.7343 13 13.48 12.8946 13.2924 12.7071C13.1049 12.5196 12.9995 12.2652 12.9995 12C12.9995 11.7348 13.1049 11.4804 13.2924 11.2929C13.48 11.1054 13.7343 11 13.9995 11H17.9995C18.1805 11.0001 18.3581 11.0493 18.5133 11.1424C18.6685 11.2355 18.7955 11.369 18.8808 11.5286C18.9661 11.6882 19.0066 11.8679 18.9977 12.0487C18.9889 12.2295 18.9312 12.4045 18.8308 12.555L15.8745 17H17.9995C18.2647 17 18.5191 17.1054 18.7066 17.2929C18.8942 17.4804 18.9995 17.7348 18.9995 18C18.9995 18.2652 18.8942 18.5196 18.7066 18.7071C18.5191 18.8946 18.2647 19 17.9995 19Z" fill="#1C1C1E"/>
</svg>
