<svg width="32" height="32" viewBox="0 0 32 32" fill="none" xmlns="http://www.w3.org/2000/svg">
<path d="M20.9997 28.0003C20.9997 28.2655 20.8943 28.5199 20.7068 28.7074C20.5193 28.895 20.2649 29.0003 19.9997 29.0003H11.9997C11.7345 29.0003 11.4801 28.895 11.2926 28.7074C11.1051 28.5199 10.9997 28.2655 10.9997 28.0003C10.9997 27.7351 11.1051 27.4807 11.2926 27.2932C11.4801 27.1057 11.7345 27.0003 11.9997 27.0003H19.9997C20.2649 27.0003 20.5193 27.1057 20.7068 27.2932C20.8943 27.4807 20.9997 27.7351 20.9997 28.0003ZM28.4234 7.54031C27.2995 5.34363 25.6119 3.48518 23.5334 2.15531C23.4224 2.08437 23.2984 2.03608 23.1686 2.01322C23.0389 1.99035 22.9058 1.99336 22.7772 2.02207C22.6486 2.05079 22.527 2.10464 22.4192 2.18053C22.3115 2.25642 22.2198 2.35285 22.1495 2.46429C22.0791 2.57572 22.0315 2.69996 22.0094 2.82986C21.9872 2.95976 21.9909 3.09276 22.0203 3.22122C22.0498 3.34967 22.1043 3.47105 22.1807 3.57836C22.2572 3.68568 22.3541 3.77683 22.4659 3.84656C24.2492 4.98094 25.6939 6.57467 26.6484 8.46031C26.7746 8.68823 26.9847 8.85793 27.234 8.93331C27.4834 9.00869 27.7523 8.9838 27.9836 8.86393C28.2148 8.74406 28.3902 8.53867 28.4724 8.29147C28.5545 8.04427 28.537 7.77477 28.4234 7.54031ZM4.46345 9.00031C4.64665 9.00023 4.82631 8.94983 4.98282 8.8546C5.13933 8.75937 5.26667 8.62298 5.35095 8.46031C6.30545 6.57467 7.75022 4.98094 9.53345 3.84656C9.64526 3.77683 9.74219 3.68568 9.81867 3.57836C9.89514 3.47105 9.94965 3.34967 9.97906 3.22122C10.0085 3.09276 10.0122 2.95976 9.99003 2.82986C9.96787 2.69996 9.92025 2.57572 9.84991 2.46429C9.77958 2.35285 9.68791 2.25642 9.58018 2.18053C9.47245 2.10464 9.35078 2.05079 9.22217 2.02207C9.09356 1.99336 8.96054 1.99035 8.83076 2.01322C8.70098 2.03608 8.577 2.08437 8.46595 2.15531C6.38748 3.48518 4.69986 5.34363 3.57595 7.54031C3.497 7.69271 3.4586 7.86286 3.46445 8.0344C3.4703 8.20594 3.5202 8.37308 3.60936 8.51975C3.69851 8.66641 3.82392 8.78766 3.9735 8.87183C4.12308 8.95599 4.29181 9.00024 4.46345 9.00031ZM25.9997 14.0003C25.9997 11.3481 24.9461 8.80461 23.0708 6.92924C21.1954 5.05388 18.6519 4.00031 15.9997 4.00031C13.3475 4.00031 10.804 5.05388 8.92863 6.92924C7.05327 8.80461 5.9997 11.3481 5.9997 14.0003C5.9997 17.2853 5.4022 20.0491 4.27345 21.9928C4.09629 22.2966 4.00237 22.6418 4.00116 22.9934C3.99995 23.3451 4.0915 23.6909 4.26657 23.9959C4.44164 24.3009 4.69405 24.5544 4.99833 24.7307C5.30261 24.9071 5.64801 25.0001 5.9997 25.0003H25.9997C26.3512 24.9996 26.6963 24.9063 27.0002 24.7298C27.3041 24.5533 27.5562 24.2998 27.7309 23.9948C27.9057 23.6899 27.9971 23.3443 27.9957 22.9928C27.9944 22.6413 27.9005 22.2964 27.7234 21.9928C26.5972 20.0478 25.9997 17.2841 25.9997 14.0003Z" fill="#1C1C1E"/>
</svg>
