<svg width="32" height="32" viewBox="0 0 32 32" fill="none" xmlns="http://www.w3.org/2000/svg">
<path d="M27.7301 24.0002C27.7116 24.0321 27.6858 24.059 27.6547 24.0789C27.6237 24.0987 27.5883 24.1109 27.5516 24.1143C27.515 24.1177 27.478 24.1123 27.4438 24.0986C27.4096 24.0848 27.3792 24.0631 27.3551 24.0352L10.4089 5.39894C10.3612 5.34523 10.3257 5.2819 10.3047 5.21324C10.2838 5.14459 10.2778 5.07222 10.2873 5.00106C10.2968 4.9299 10.3215 4.86162 10.3597 4.80086C10.398 4.7401 10.4488 4.68828 10.5089 4.64894C12.1792 3.54423 14.1441 2.96957 16.1464 3.00019C21.6251 3.08269 25.9751 7.63769 26.0001 13.1152C26.0176 17.4752 27.0389 20.8077 27.7276 21.9902C27.9068 22.2947 28.0015 22.6415 28.0019 22.9948C28.0023 23.3482 27.9085 23.6952 27.7301 24.0002ZM26.7401 26.3277C26.9185 26.5241 27.0115 26.7833 26.9987 27.0484C26.986 27.3134 26.8684 27.5625 26.672 27.7408C26.4756 27.9192 26.2163 28.0122 25.9513 27.9994C25.6863 27.9866 25.4372 27.8691 25.2589 27.6727L22.8276 25.0002H20.8951C20.6662 26.1311 20.0532 27.1481 19.16 27.8787C18.2668 28.6092 17.1484 29.0083 15.9945 29.0083C14.8406 29.0083 13.7222 28.6092 12.829 27.8787C11.9358 27.1481 11.3228 26.1311 11.0939 25.0002H5.98887C5.64786 25.0024 5.31211 24.9161 5.01438 24.7498C4.71664 24.5836 4.46711 24.3429 4.29012 24.0514C4.10218 23.7366 4.00201 23.3771 4.00003 23.0105C3.99805 22.6438 4.09434 22.2833 4.27887 21.9664C4.97262 20.7502 5.99137 17.3864 5.99137 13.0002C5.99 11.2364 6.45857 9.50406 7.34887 7.98144L5.25012 5.67269C5.15996 5.57583 5.08991 5.46204 5.04405 5.33791C4.99818 5.21378 4.97741 5.08178 4.98293 4.94957C4.98846 4.81735 5.02017 4.68755 5.07623 4.56768C5.13229 4.44781 5.21158 4.34026 5.30951 4.25126C5.40744 4.16226 5.52207 4.09358 5.64674 4.04921C5.7714 4.00484 5.90364 3.98565 6.03578 3.99276C6.16792 3.99987 6.29733 4.03313 6.41652 4.09062C6.53571 4.14812 6.64231 4.22869 6.73012 4.32769L26.7401 26.3277ZM18.8239 25.0002H13.1651C13.3715 25.5857 13.7545 26.0928 14.2613 26.4515C14.7681 26.8102 15.3736 27.0029 15.9945 27.0029C16.6154 27.0029 17.2209 26.8102 17.7277 26.4515C18.2345 26.0928 18.6175 25.5857 18.8239 25.0002Z" fill="#1C1C1E"/>
</svg>
