<svg width="32" height="32" viewBox="0 0 32 32" fill="none" xmlns="http://www.w3.org/2000/svg">
<path d="M27.7301 24.0002C27.7116 24.0321 27.6858 24.059 27.6547 24.0789C27.6237 24.0987 27.5883 24.1109 27.5516 24.1143C27.515 24.1177 27.478 24.1123 27.4438 24.0986C27.4096 24.0848 27.3792 24.0631 27.3551 24.0352L10.4089 5.39894C10.3612 5.34523 10.3257 5.2819 10.3047 5.21324C10.2838 5.14459 10.2778 5.07222 10.2873 5.00106C10.2968 4.9299 10.3215 4.86162 10.3597 4.80086C10.398 4.7401 10.4488 4.68828 10.5089 4.64894C12.1792 3.54423 14.1441 2.96957 16.1464 3.00019C21.6251 3.08269 25.9751 7.63769 26.0001 13.1152C26.0176 17.4752 27.0389 20.8077 27.7276 21.9902C27.9068 22.2947 28.0015 22.6415 28.0019 22.9948C28.0023 23.3482 27.9085 23.6952 27.7301 24.0002ZM20.0001 27.0002H12.0276C11.7704 26.9982 11.5218 27.0932 11.3314 27.2663C11.141 27.4393 11.0227 27.6777 11.0001 27.9339C10.991 28.0707 11.0102 28.2079 11.0564 28.337C11.1025 28.4661 11.1747 28.5843 11.2685 28.6843C11.3623 28.7843 11.4756 28.8639 11.6015 28.9183C11.7274 28.9726 11.863 29.0005 12.0001 29.0002H19.9676C20.2257 29.0034 20.4755 28.909 20.667 28.7358C20.8585 28.5627 20.9774 28.3236 21.0001 28.0664C21.0092 27.9296 20.9901 27.7925 20.9439 27.6634C20.8977 27.5343 20.8255 27.4161 20.7317 27.3161C20.6379 27.2161 20.5246 27.1365 20.3988 27.0821C20.2729 27.0278 20.1372 26.9999 20.0001 27.0002ZM6.73012 4.32769C6.64231 4.22869 6.53571 4.14812 6.41652 4.09062C6.29733 4.03313 6.16792 3.99987 6.03578 3.99276C5.90364 3.98565 5.7714 4.00484 5.64674 4.04921C5.52207 4.09358 5.40744 4.16226 5.30951 4.25126C5.21158 4.34026 5.13229 4.44781 5.07623 4.56768C5.02017 4.68755 4.98846 4.81735 4.98293 4.94957C4.97741 5.08178 4.99818 5.21378 5.04405 5.33791C5.08991 5.46204 5.15996 5.57583 5.25012 5.67269L7.34887 7.98144C6.45857 9.50406 5.99 11.2364 5.99137 13.0002C5.99137 17.3864 4.97262 20.7502 4.27887 21.9664C4.09434 22.2833 3.99805 22.6438 4.00003 23.0105C4.00201 23.3771 4.10218 23.7366 4.29012 24.0514C4.46711 24.3429 4.71664 24.5836 5.01438 24.7498C5.31211 24.9161 5.64786 25.0024 5.98887 25.0002H22.8276L25.2589 27.6727C25.4372 27.8691 25.6863 27.9866 25.9513 27.9994C26.2163 28.0122 26.4756 27.9192 26.672 27.7408C26.8684 27.5625 26.986 27.3134 26.9987 27.0484C27.0115 26.7833 26.9185 26.5241 26.7401 26.3277L6.73012 4.32769Z" fill="#1C1C1E"/>
</svg>
