<svg width="32" height="32" viewBox="0 0 32 32" fill="none" xmlns="http://www.w3.org/2000/svg">
<path d="M29.6524 18.987V18.9745C29.6503 18.9651 29.6473 18.9559 29.6437 18.947C29.5607 18.7206 29.4643 18.4994 29.3549 18.2845L24.1587 6.47451C24.1087 6.36076 24.0379 6.25733 23.9499 6.16951C23.5785 5.79798 23.1375 5.50326 22.6521 5.30219C22.1668 5.10111 21.6466 4.99762 21.1212 4.99762C20.5958 4.99762 20.0756 5.10111 19.5902 5.30219C19.1049 5.50326 18.6639 5.79798 18.2924 6.16951C18.1056 6.3566 18.0004 6.61008 17.9999 6.87451V9.99951H13.9999V6.87451C14 6.74315 13.9743 6.61306 13.9241 6.49166C13.8739 6.37027 13.8003 6.25995 13.7074 6.16701C13.336 5.79548 12.895 5.50076 12.4096 5.29969C11.9243 5.09861 11.4041 4.99512 10.8787 4.99512C10.3533 4.99512 9.83311 5.09861 9.34775 5.29969C8.86238 5.50076 8.42139 5.79548 8.04994 6.16701C7.96201 6.25483 7.89122 6.35826 7.84119 6.47201L2.64994 18.2845C2.54059 18.4994 2.44417 18.7206 2.36119 18.947C2.35771 18.9556 2.35479 18.9643 2.35244 18.9733C2.35244 18.9733 2.35244 18.9833 2.35244 18.987C1.83618 20.4787 1.92854 22.1137 2.60952 23.5378C3.29049 24.9619 4.50522 26.0602 5.99044 26.5948C7.47565 27.1294 9.11171 27.0572 10.544 26.3938C11.9764 25.7304 13.0896 24.5293 13.6424 23.0508C13.8859 22.3866 14.0086 21.6843 14.0049 20.977V11.9995H18.0049V20.9783C18.0013 21.6856 18.124 22.3879 18.3674 23.052C18.9203 24.5305 20.0335 25.7316 21.4658 26.395C22.8982 27.0584 24.5342 27.1306 26.0194 26.596C27.5047 26.0615 28.7194 24.9631 29.4004 23.5391C30.0813 22.115 30.1737 20.48 29.6574 18.9883L29.6524 18.987ZM11.7587 22.362C11.3894 23.3473 10.6468 24.1474 9.69168 24.589C8.73658 25.0306 7.64595 25.078 6.65612 24.721C5.66629 24.3641 4.85697 23.6315 4.40354 22.6819C3.95011 21.7324 3.88909 20.6425 4.23369 19.6483L4.45994 19.132C4.87578 18.3416 5.54421 17.713 6.35872 17.3466C7.17324 16.9801 8.08697 16.8968 8.95433 17.1099C9.82169 17.323 10.5928 17.8202 11.1447 18.5224C11.6967 19.2246 11.9977 20.0914 11.9999 20.9845V20.9995C11.9999 21.4659 11.9182 21.9287 11.7587 22.367V22.362ZM25.3749 24.7583C24.7703 24.9796 24.1212 25.0517 23.4827 24.9684C22.8442 24.8852 22.2353 24.649 21.7076 24.28C21.18 23.911 20.7492 23.4201 20.4519 22.849C20.1546 22.2779 19.9995 21.6434 19.9999 20.9995V20.9858C20.0032 20.093 20.3051 19.2271 20.8574 18.5257C21.4098 17.8244 22.1809 17.328 23.048 17.1155C23.9151 16.903 24.8283 16.9868 25.6423 17.3533C26.4563 17.7199 27.1243 18.3482 27.5399 19.1383L27.7662 19.6545C28.1219 20.6486 28.0701 21.743 27.6221 22.6991C27.1742 23.6551 26.3664 24.3953 25.3749 24.7583Z" fill="#1C1C1E"/>
</svg>
