<svg width="32" height="32" viewBox="0 0 32 32" fill="none" xmlns="http://www.w3.org/2000/svg">
<path d="M29.9785 19.9471C29.8457 18.1815 29.0935 16.5195 27.8546 15.2545C26.6157 13.9895 24.9697 13.2028 23.2072 13.0334C23.0943 12.7942 22.9691 12.5609 22.8322 12.3346C23.625 10.5902 23.7193 8.60826 23.0958 6.7964C22.4722 4.98454 21.1782 3.48044 19.4797 2.59337L19.4622 2.58337C19.4163 2.55977 19.3687 2.53971 19.3197 2.52337C19.0811 2.44434 18.8215 2.45807 18.5925 2.56183C18.3636 2.66558 18.1821 2.85176 18.0842 3.08328C17.9863 3.31481 17.9792 3.5747 18.0643 3.81122C18.1495 4.04773 18.3205 4.24353 18.5435 4.35962H18.5522C18.6997 4.44587 20.9997 5.71587 20.9997 8.49962C21.0002 9.03168 20.9158 9.56041 20.7497 10.0659C19.3754 9.04757 17.7102 8.49789 15.9997 8.49789C14.2892 8.49789 12.624 9.04757 11.2497 10.0659C11.0836 9.56041 10.9992 9.03168 10.9997 8.49962C10.9997 5.70587 13.316 4.43587 13.456 4.36212C13.6874 4.23821 13.8608 4.02827 13.9388 3.77761C14.0168 3.52696 13.9931 3.25569 13.8728 3.02236C13.7525 2.78903 13.5453 2.61235 13.2959 2.53045C13.0465 2.44855 12.7749 2.46801 12.5397 2.58462L12.521 2.59462C10.821 3.4825 9.52573 4.9879 8.90148 6.80135C8.27724 8.61479 8.37143 10.5985 9.1647 12.3446C9.0272 12.5696 8.8997 12.8021 8.7897 13.0409C7.02763 13.2114 5.38236 13.9986 4.14402 15.2637C2.90567 16.5288 2.15379 18.1906 2.02095 19.9559C2.00132 20.1582 1.99548 20.3615 2.00345 20.5646C2.02506 20.8199 2.14386 21.0572 2.33533 21.2275C2.5268 21.3978 2.77633 21.4881 3.03243 21.4797C3.28853 21.4714 3.53166 21.3651 3.71165 21.1827C3.89164 21.0003 3.99475 20.7558 3.9997 20.4996C3.9997 20.3296 4.00845 20.1609 4.02345 19.9996C4.1147 19.2184 4.53095 17.6146 6.35345 16.5634C6.86808 16.2651 7.43199 16.0615 8.01845 15.9621C8.00595 16.1409 7.99845 16.3221 7.99845 16.5046C8.00004 18.0747 8.46295 19.6097 9.32966 20.9189C10.1964 22.2281 11.4287 23.2537 12.8735 23.8684C12.466 24.4198 11.9489 24.8812 11.3547 25.2234C8.97095 26.5984 6.7447 25.2684 6.55595 25.1509L6.54095 25.1409C6.31853 25.0004 6.04971 24.9532 5.79275 25.0096C5.5358 25.066 5.3114 25.2213 5.16818 25.442C5.02496 25.6626 4.97447 25.9308 5.02763 26.1885C5.08079 26.4461 5.23333 26.6724 5.4522 26.8184L5.4822 26.8371C6.3153 27.366 7.24466 27.7251 8.21691 27.8939C9.18917 28.0626 10.1852 28.0377 11.1478 27.8205C12.1104 27.6033 13.0206 27.1981 13.8262 26.6283C14.6318 26.0584 15.3169 25.335 15.8422 24.4996C15.8947 24.4996 15.946 24.4996 15.9985 24.4996C16.051 24.4996 16.1035 24.4996 16.1572 24.4996C16.6832 25.3344 17.3687 26.0572 18.1745 26.6266C18.9803 27.196 19.8905 27.6008 20.853 27.8179C21.8155 28.0349 22.8114 28.0599 23.7836 27.8914C24.7558 27.7228 25.6851 27.3642 26.5184 26.8359L26.5472 26.8171C26.7661 26.6712 26.9186 26.4449 26.9718 26.1872C27.0249 25.9296 26.9744 25.6614 26.8312 25.4407C26.688 25.2201 26.4636 25.0647 26.2066 25.0084C25.9497 24.952 25.6809 24.9992 25.4585 25.1396L25.4435 25.1496C25.2547 25.2671 23.0285 26.5984 20.6447 25.2221C20.0496 24.8785 19.5321 24.4155 19.1247 23.8621C20.5693 23.2475 21.8014 22.2221 22.6681 20.9132C23.5348 19.6042 23.9979 18.0695 23.9997 16.4996C23.9997 16.3171 23.9909 16.1371 23.9797 15.9584C24.5665 16.0572 25.1308 16.2604 25.646 16.5584C27.4547 17.6021 27.8785 19.1909 27.9747 19.9734C27.991 20.1471 27.9997 20.3221 27.9997 20.4996C27.9959 20.6309 28.0181 20.7617 28.0648 20.8845C28.1116 21.0073 28.1821 21.1196 28.2723 21.2151C28.3625 21.3107 28.4706 21.3875 28.5905 21.4412C28.7103 21.495 28.8396 21.5246 28.971 21.5284C29.1023 21.5321 29.2331 21.51 29.3558 21.4633C29.4786 21.4165 29.591 21.346 29.6865 21.2558C29.782 21.1656 29.8588 21.0575 29.9126 20.9376C29.9663 20.8177 29.9959 20.6884 29.9997 20.5571C30.0064 20.3535 29.9993 20.1497 29.9785 19.9471ZM13.716 22.0471C12.6174 21.5935 11.678 20.8244 11.0165 19.837C10.3551 18.8495 10.0012 17.6881 9.9997 16.4996C9.9997 16.3409 10.0085 16.1834 10.021 16.0271L10.146 16.0584C11.4032 16.3958 12.4792 17.2102 13.1454 18.3286C13.8116 19.4469 14.0154 20.7809 13.7135 22.0471H13.716ZM15.9997 16.7634L15.986 16.7396H16.0135L15.9997 16.7634ZM15.9997 13.4996C15.2922 13.4999 14.5927 13.3497 13.9477 13.059C13.3026 12.7683 12.7268 12.3437 12.2585 11.8134C13.3195 10.9629 14.6387 10.4995 15.9985 10.4995C17.3582 10.4995 18.6774 10.9629 19.7385 11.8134C19.2705 12.3435 18.6951 12.7681 18.0505 13.0588C17.4059 13.3495 16.7068 13.4998 15.9997 13.4996ZM18.2859 22.0459C18.1328 21.4083 18.107 20.7468 18.2098 20.0991C18.3126 19.4515 18.5422 18.8306 18.8852 18.2718C19.2283 17.713 19.6782 17.2273 20.2092 16.8426C20.7402 16.4578 21.3418 16.1816 21.9797 16.0296C21.9922 16.1846 21.9997 16.3409 21.9997 16.4996C21.9982 17.6878 21.6445 18.8489 20.9833 19.8361C20.322 20.8233 19.3829 21.5923 18.2847 22.0459H18.2859Z" fill="#1C1C1E"/>
</svg>
