<svg width="32" height="32" viewBox="0 0 32 32" fill="none" xmlns="http://www.w3.org/2000/svg">
<path d="M29.5554 9.1675L26.6517 7.2325C26.17 5.71384 25.2172 4.38802 23.9314 3.44722C22.6456 2.50642 21.0937 1.99953 19.5004 2H19.4642C15.3492 2.02 12.0004 5.43375 12.0004 9.61125V12.0787L1.45418 24.735L1.44168 24.75C1.20632 25.044 1.05873 25.3984 1.0159 25.7726C0.97308 26.1467 1.03676 26.5253 1.19961 26.8649C1.36247 27.2045 1.61788 27.4911 1.93646 27.6919C2.25504 27.8927 2.62385 27.9995 3.00043 28H14.0004C17.4471 27.9964 20.7516 26.6256 23.1888 24.1884C25.626 21.7512 26.9968 18.4467 27.0004 15V12.535L29.5554 10.8325C29.6926 10.7412 29.8051 10.6175 29.8829 10.4722C29.9607 10.327 30.0014 10.1648 30.0014 10C30.0014 9.83523 29.9607 9.67302 29.8829 9.52778C29.8051 9.38255 29.6926 9.25878 29.5554 9.1675ZM15.7692 16.64L8.26918 25.64C8.18608 25.7438 8.08312 25.83 7.9663 25.8935C7.84949 25.9571 7.72118 25.9967 7.58888 26.01C7.45658 26.0233 7.32295 26.0102 7.1958 25.9713C7.06866 25.9323 6.95055 25.8684 6.84839 25.7833C6.74623 25.6982 6.66208 25.5936 6.60085 25.4755C6.53961 25.3575 6.50254 25.2284 6.49179 25.0959C6.48104 24.9634 6.49683 24.83 6.53823 24.7037C6.57964 24.5773 6.64583 24.4605 6.73293 24.36L14.2329 15.36C14.316 15.2562 14.419 15.17 14.5358 15.1065C14.6526 15.0429 14.7809 15.0033 14.9132 14.99C15.0455 14.9766 15.1792 14.9898 15.3063 15.0287C15.4335 15.0677 15.5516 15.1316 15.6537 15.2167C15.7559 15.3018 15.84 15.4064 15.9013 15.5245C15.9625 15.6425 15.9996 15.7716 16.0103 15.9041C16.0211 16.0366 16.0053 16.17 15.9639 16.2963C15.9225 16.4227 15.8563 16.5395 15.7692 16.64ZM20.5004 10C20.2038 10 19.9138 9.91203 19.6671 9.74721C19.4204 9.58238 19.2281 9.34811 19.1146 9.07403C19.0011 8.79994 18.9714 8.49834 19.0293 8.20736C19.0871 7.91639 19.23 7.64912 19.4398 7.43934C19.6496 7.22956 19.9168 7.0867 20.2078 7.02882C20.4988 6.97094 20.8004 7.00065 21.0745 7.11418C21.3485 7.22771 21.5828 7.41997 21.7476 7.66665C21.9125 7.91332 22.0004 8.20333 22.0004 8.5C22.0004 8.89783 21.8424 9.27936 21.5611 9.56066C21.2798 9.84197 20.8983 10 20.5004 10Z" fill="#1C1C1E"/>
</svg>
