<svg width="32" height="32" viewBox="0 0 32 32" fill="none" xmlns="http://www.w3.org/2000/svg">
<path d="M23.0004 22.0002C23.0004 22.1555 22.9642 22.3086 22.8948 22.4474C22.8254 22.5863 22.7246 22.7071 22.6004 22.8002L14.6004 28.8002C14.4273 28.93 14.2168 29.0002 14.0004 29.0002C13.8193 29.0007 13.6416 28.9514 13.4866 28.8577C13.3349 28.7629 13.2102 28.6304 13.1248 28.4731C13.0394 28.3159 12.9961 28.1392 12.9991 27.9602V18.0002L6.59538 22.8002C6.38431 22.9585 6.11927 23.0269 5.85799 22.9906C5.5967 22.9543 5.36034 22.8162 5.20038 22.6065C5.04328 22.3863 4.97884 22.1133 5.02091 21.8461C5.06299 21.5789 5.20822 21.3389 5.42538 21.1777L12.3329 16.0002L5.42288 10.8215C5.21445 10.6692 5.07121 10.4439 5.02184 10.1906C4.97247 9.93722 5.02061 9.67458 5.15663 9.45522C5.23168 9.34073 5.32944 9.24286 5.44386 9.16768C5.55827 9.0925 5.68691 9.04162 5.82179 9.01818C5.95667 8.99475 6.09493 8.99925 6.22799 9.03143C6.36106 9.0636 6.48611 9.12276 6.59538 9.20522L13.0004 14.0002V4.03023C12.9979 3.88031 13.0282 3.73166 13.0894 3.59474C13.1505 3.45782 13.2409 3.33596 13.3541 3.23773C13.5272 3.09032 13.7453 3.00629 13.9725 2.99947C14.1998 2.99266 14.4225 3.06346 14.6041 3.20023L18.8066 6.35022C18.8676 6.39745 18.9168 6.45812 18.9504 6.52751C18.984 6.5969 19.0011 6.67313 19.0004 6.75023V13.2502C19.0004 13.3278 18.9823 13.4044 18.9476 13.4738C18.9129 13.5433 18.8625 13.6037 18.8004 13.6502L15.6679 16.0002L22.6054 21.2002C22.7287 21.2939 22.8285 21.4149 22.897 21.5537C22.9656 21.6926 23.001 21.8454 23.0004 22.0002ZM29.6841 12.2665L27.4216 10.0002L29.6854 7.73647C29.8758 7.55207 29.9876 7.3011 29.9971 7.03617C30.0067 6.77123 29.9133 6.51287 29.7366 6.31523C29.6449 6.21755 29.5345 6.13929 29.412 6.08511C29.2894 6.03093 29.1572 6.00193 29.0233 5.99984C28.8893 5.99774 28.7563 6.02258 28.6321 6.0729C28.5079 6.12321 28.3951 6.19797 28.3004 6.29273L26.0066 8.58648L23.7416 6.32273C23.5679 6.14306 23.3346 6.03281 23.0855 6.01257C22.8364 5.99232 22.5884 6.06347 22.3879 6.21273C22.2755 6.29991 22.183 6.41007 22.1166 6.53584C22.0502 6.66161 22.0114 6.8001 22.0027 6.94207C21.9941 7.08404 22.0159 7.22621 22.0665 7.35911C22.1172 7.492 22.1957 7.61256 22.2966 7.71273L24.5916 10.0002L22.3229 12.2665C22.1384 12.4461 22.0283 12.6885 22.0144 12.9456C22.0005 13.2027 22.0838 13.4555 22.2479 13.654C22.3377 13.758 22.448 13.8424 22.5719 13.9019C22.6959 13.9614 22.8307 13.9947 22.968 13.9997C23.1054 14.0048 23.2423 13.9814 23.3703 13.9312C23.4982 13.881 23.6144 13.8049 23.7116 13.7077L26.0066 11.414L28.3004 13.7077C28.3976 13.8051 28.5139 13.8813 28.642 13.9317C28.77 13.9821 28.9071 14.0054 29.0446 14.0004C29.1821 13.9954 29.3171 13.962 29.4411 13.9024C29.5652 13.8428 29.6755 13.7582 29.7654 13.654C29.929 13.4553 30.0119 13.2024 29.9978 12.9454C29.9837 12.6884 29.8735 12.4461 29.6891 12.2665H29.6841Z" fill="#1C1C1E"/>
</svg>
