<svg width="32" height="32" viewBox="0 0 32 32" fill="none" xmlns="http://www.w3.org/2000/svg">
<path d="M27.6723 27.7398C27.476 27.9182 27.2169 28.0113 26.952 27.9986C26.6871 27.9859 26.4381 27.8686 26.2598 27.6723L22.9535 24.0348L16.5998 28.7998C16.4412 28.9186 16.2509 28.9876 16.0531 28.9981C15.8552 29.0085 15.6587 28.96 15.4885 28.8586C15.3364 28.764 15.2115 28.6316 15.1258 28.4743C15.0401 28.317 14.9967 28.1402 14.9998 27.9611V17.9998L8.59975 22.7998C8.38868 22.9581 8.12364 23.0265 7.86236 22.9902C7.60107 22.9539 7.36471 22.8158 7.20475 22.6061C7.04778 22.3858 6.98354 22.1127 7.02585 21.8455C7.06816 21.5783 7.21364 21.3384 7.431 21.1773L15.1147 15.4136L6.25975 5.67234C6.08512 5.47549 5.99512 5.21775 6.00926 4.95499C6.02339 4.69223 6.14053 4.44563 6.33527 4.26866C6.53 4.09168 6.78665 3.9986 7.04956 4.00958C7.31247 4.02057 7.56045 4.13473 7.73975 4.32734L27.7397 26.3273C27.9181 26.5236 28.0112 26.7827 27.9985 27.0476C27.9858 27.3125 27.8685 27.5615 27.6723 27.7398ZM19.3748 14.1523C19.4585 14.2444 19.5735 14.302 19.6974 14.3138C19.8213 14.3256 19.9452 14.2908 20.0448 14.2161L24.5998 10.7998C24.7239 10.7067 24.8247 10.5859 24.8942 10.447C24.9636 10.3082 24.9998 10.1551 24.9998 9.99984C24.9998 9.84459 24.9636 9.69148 24.8942 9.55262C24.8247 9.41377 24.7239 9.29298 24.5998 9.19984L16.5998 3.19984C16.4183 3.0629 16.1956 2.99188 15.9684 2.99847C15.7412 3.00506 15.523 3.08887 15.3498 3.23609C15.2373 3.33503 15.1477 3.45729 15.0872 3.59437C15.0268 3.73145 14.9969 3.88005 14.9998 4.02984V9.14734C14.9984 9.27102 15.0429 9.39082 15.1248 9.48359L19.3748 14.1523Z" fill="#1C1C1E"/>
</svg>
