<svg width="32" height="32" viewBox="0 0 32 32" fill="none" xmlns="http://www.w3.org/2000/svg">
<path d="M30.9996 4C30.7344 4 30.4801 4.10536 30.2925 4.29289C30.105 4.48043 29.9996 4.73478 29.9996 5C29.975 5.74462 29.8241 6.47964 29.5534 7.17375C29.0471 8.4025 28.2121 9 26.9996 9C25.6171 9 24.6434 7.78 23.3134 5.91875C21.9996 4.0825 20.5146 2 17.9996 2C15.9509 2 14.3746 3.11125 13.5709 5.125C13.3354 5.72871 13.1718 6.35804 13.0834 7H10.9996C10.4692 7 9.96049 7.21071 9.58542 7.58579C9.21034 7.96086 8.99963 8.46957 8.99963 9V10.1987C6.79756 11.3207 5.03745 13.1514 4.00305 15.3959C2.96864 17.6404 2.72021 20.1679 3.29781 22.5708C3.87541 24.9738 5.24538 27.1122 7.18687 28.6414C9.12835 30.1706 11.5282 31.0015 13.9996 31H14.1984C16.653 30.9578 19.0229 30.0957 20.9309 28.551C22.8389 27.0062 24.1753 24.8676 24.7275 22.4755C25.2796 20.0835 25.0157 17.5755 23.9777 15.3508C22.9397 13.1261 21.1874 11.3125 18.9996 10.1987V9C18.9996 8.46957 18.7889 7.96086 18.4138 7.58579C18.0388 7.21071 17.5301 7 16.9996 7H15.1096C15.1806 6.59893 15.2933 6.20639 15.4459 5.82875C15.9521 4.5975 16.7871 4 17.9996 4C19.3821 4 20.3559 5.22 21.6859 7.08125C22.9996 8.9175 24.4846 11 26.9996 11C29.0484 11 30.6246 9.88875 31.4284 7.875C31.7822 6.95649 31.9754 5.98399 31.9996 5C31.9996 4.73478 31.8943 4.48043 31.7067 4.29289C31.5192 4.10536 31.2648 4 30.9996 4ZM13.9859 26.165C13.9468 26.3984 13.8263 26.6103 13.6457 26.7632C13.4652 26.9161 13.2362 27 12.9996 27C12.9439 26.9998 12.8884 26.9952 12.8334 26.9862C11.3836 26.729 10.0479 26.0327 9.00676 24.9916C7.96563 23.9505 7.26937 22.6147 7.01213 21.165C6.98913 21.0349 6.99212 20.9016 7.02095 20.7726C7.04978 20.6437 7.10386 20.5218 7.18008 20.4139C7.25629 20.306 7.35313 20.2143 7.465 20.144C7.57687 20.0738 7.70155 20.0264 7.83184 20.0046C7.96214 19.9828 8.09545 19.987 8.2241 20.017C8.35275 20.047 8.47417 20.1023 8.58136 20.1795C8.68854 20.2567 8.77937 20.3544 8.84859 20.4669C8.9178 20.5794 8.96404 20.7045 8.98463 20.835C9.16952 21.8756 9.66941 22.8343 10.4167 23.5816C11.1641 24.329 12.1228 24.8289 13.1634 25.0138C13.293 25.0353 13.4171 25.0821 13.5286 25.1517C13.6401 25.2212 13.7368 25.312 13.8132 25.4189C13.8896 25.5258 13.9442 25.6468 13.9738 25.7748C14.0034 25.9028 14.0075 26.0354 13.9859 26.165Z" fill="#1C1C1E"/>
</svg>
