<svg width="32" height="32" viewBox="0 0 32 32" fill="none" xmlns="http://www.w3.org/2000/svg">
<path d="M28.8906 13.4655C28.1875 14.2721 27.2193 14.801 26.1607 14.9568C25.1021 15.1127 24.0226 14.8852 23.1168 14.3155C23.1128 14.3139 23.1083 14.3139 23.1043 14.3155L14.3106 23.1105C14.3106 23.1105 14.3106 23.1105 14.3106 23.1205C14.6669 23.6944 14.8894 24.3412 14.9616 25.0128C15.0338 25.6845 14.9539 26.3638 14.7278 27.0003C14.5016 27.6369 14.1351 28.2144 13.6553 28.6899C13.1755 29.1655 12.5948 29.5269 11.9563 29.7474C11.3178 29.9679 10.6378 30.0419 9.96679 29.9637C9.29579 29.8855 8.651 29.6573 8.08024 29.296C7.50949 28.9346 7.02741 28.4494 6.66977 27.8763C6.31213 27.3032 6.08811 26.6569 6.01432 25.9855C5.34283 25.9117 4.69657 25.6876 4.12348 25.33C3.55038 24.9724 3.06516 24.4903 2.70381 23.9195C2.34245 23.3488 2.11423 22.704 2.03608 22.033C1.95792 21.362 2.03184 20.682 2.25235 20.0435C2.47286 19.405 2.83429 18.8243 3.30985 18.3445C3.78541 17.8647 4.36288 17.4982 4.99944 17.272C5.63599 17.0459 6.31529 16.966 6.98695 17.0382C7.65861 17.1104 8.3054 17.3329 8.87932 17.6892C8.88335 17.6907 8.8878 17.6907 8.89182 17.6892L17.6856 8.89421C17.6856 8.89421 17.6856 8.89421 17.6856 8.88421C17.3293 8.31028 17.1068 7.6635 17.0345 6.99184C16.9623 6.32018 17.0422 5.64088 17.2684 5.00432C17.4945 4.36777 17.8611 3.79029 18.3409 3.31473C18.8206 2.83918 19.4013 2.47774 20.0399 2.25723C20.6784 2.03673 21.3584 1.96281 22.0294 2.04096C22.7004 2.11911 23.3451 2.34733 23.9159 2.70869C24.4867 3.07005 24.9687 3.55527 25.3264 4.12836C25.684 4.70146 25.908 5.34772 25.9818 6.01921C26.8026 6.1056 27.5837 6.41604 28.2399 6.91656C28.8961 7.41708 29.402 8.08841 29.7023 8.85712C30.0026 9.62583 30.0857 10.4623 29.9425 11.2751C29.7994 12.0879 29.4354 12.8456 28.8906 13.4655Z" fill="#1C1C1E"/>
</svg>
