<svg width="32" height="32" viewBox="0 0 32 32" fill="none" xmlns="http://www.w3.org/2000/svg">
<path d="M30 9.99961V24.9996C30 25.2648 29.8946 25.5192 29.7071 25.7067C29.5196 25.8943 29.2652 25.9996 29 25.9996H20C19.2056 25.9996 18.4437 26.3146 17.8813 26.8756C17.3189 27.4366 17.002 28.1978 17 28.9921C17.004 29.1963 16.9446 29.3967 16.83 29.5657C16.7154 29.7347 16.5512 29.864 16.36 29.9359C16.2082 29.9944 16.0445 30.0151 15.8829 29.996C15.7214 29.977 15.5669 29.9188 15.433 29.8266C15.299 29.7344 15.1895 29.6108 15.1141 29.4667C15.0386 29.3226 14.9995 29.1623 15 28.9996C15 28.204 14.6839 27.4409 14.1213 26.8783C13.5587 26.3157 12.7956 25.9996 12 25.9996H3C2.73478 25.9996 2.48043 25.8943 2.29289 25.7067C2.10536 25.5192 2 25.2648 2 24.9996V9.99961C2 9.73439 2.10536 9.48004 2.29289 9.2925C2.48043 9.10497 2.73478 8.99961 3 8.99961H11C12.0609 8.99961 13.0783 9.42104 13.8284 10.1712C14.5786 10.9213 15 11.9387 15 12.9996V20.9659C14.9965 21.2239 15.0909 21.4737 15.2641 21.6651C15.4374 21.8564 15.6766 21.975 15.9338 21.9971C16.0705 22.0062 16.2077 21.987 16.3368 21.9409C16.4659 21.8947 16.5841 21.8225 16.6841 21.7287C16.7841 21.6349 16.8637 21.5216 16.9181 21.3957C16.9724 21.2699 17.0003 21.1342 17 20.9971V12.9996C17 11.9387 17.4214 10.9213 18.1716 10.1712C18.9217 9.42104 19.9391 8.99961 21 8.99961H29C29.2652 8.99961 29.5196 9.10497 29.7071 9.2925C29.8946 9.48004 30 9.73439 30 9.99961ZM11.1012 6.99961H11.125C11.9875 7.01674 12.836 7.21995 13.6127 7.59534C14.3894 7.97072 15.0758 8.50943 15.625 9.17461C15.6719 9.2295 15.7302 9.27357 15.7958 9.30378C15.8614 9.334 15.9328 9.34965 16.005 9.34965C16.0772 9.34965 16.1486 9.334 16.2142 9.30378C16.2798 9.27357 16.3381 9.2295 16.385 9.17461C16.9331 8.51069 17.6179 7.97274 18.3928 7.5974C19.1676 7.22206 20.0142 7.01817 20.875 6.99961H20.8988C20.9845 6.99936 21.0687 6.97708 21.1433 6.93491C21.2179 6.89274 21.2804 6.83209 21.3249 6.75879C21.3693 6.6855 21.3941 6.60201 21.397 6.51634C21.3999 6.43068 21.3807 6.34571 21.3412 6.26961C20.838 5.28615 20.073 4.46074 19.1305 3.88434C18.188 3.30794 17.1047 3.00293 16 3.00293C14.8953 3.00293 13.812 3.30794 12.8695 3.88434C11.927 4.46074 11.162 5.28615 10.6587 6.26961C10.6193 6.34571 10.6001 6.43068 10.603 6.51634C10.6059 6.60201 10.6307 6.6855 10.6751 6.75879C10.7196 6.83209 10.7821 6.89274 10.8567 6.93491C10.9313 6.97708 11.0155 6.99936 11.1012 6.99961Z" fill="#1C1C1E"/>
</svg>
