<svg width="32" height="32" viewBox="0 0 32 32" fill="none" xmlns="http://www.w3.org/2000/svg">
<path d="M26.4996 9.5V9C26.4983 7.91656 26.177 6.85764 25.5761 5.95612C24.9752 5.0546 24.1214 4.35065 23.1218 3.9326C22.1223 3.51454 21.0215 3.40101 19.9577 3.60625C18.8939 3.81149 17.9144 4.32636 17.1421 5.08625C17.0964 5.13229 17.0603 5.18693 17.0359 5.247C17.0114 5.30707 16.9991 5.37139 16.9996 5.43625V16.5263C16.9999 16.6164 17.0245 16.7048 17.0708 16.7821C17.1172 16.8594 17.1836 16.9227 17.263 16.9654C17.3424 17.0081 17.4319 17.0285 17.522 17.0244C17.612 17.0204 17.6993 16.9921 17.7746 16.9425C18.7255 16.3328 19.8301 16.0059 20.9596 16C21.2211 15.9951 21.4745 16.0907 21.6677 16.2669C21.8609 16.4431 21.9792 16.6867 21.9984 16.9475C22.0055 17.0832 21.9849 17.2189 21.9379 17.3463C21.8908 17.4738 21.8183 17.5903 21.7247 17.6888C21.6311 17.7873 21.5185 17.8657 21.3936 17.9192C21.2687 17.9727 21.1342 18.0002 20.9984 18C19.9375 18 18.9201 18.4214 18.1699 19.1716C17.4198 19.9217 16.9984 20.9391 16.9984 22V26.235C16.9983 26.3098 17.0149 26.3837 17.0472 26.4512C17.0794 26.5187 17.1264 26.5781 17.1846 26.625C17.8942 27.2123 18.7297 27.628 19.6261 27.8398C20.5225 28.0516 21.4557 28.0539 22.3532 27.8464C23.2506 27.6388 24.0881 27.2272 24.8005 26.6433C25.5129 26.0595 26.0811 25.3192 26.4609 24.48C26.4991 24.3956 26.5131 24.3023 26.5014 24.2104C26.4897 24.1185 26.4526 24.0316 26.3944 23.9595C26.3362 23.8875 26.2591 23.833 26.1717 23.8022C26.0844 23.7713 25.9902 23.7654 25.8996 23.785C25.2764 23.9278 24.639 24 23.9996 24H23.0334C22.7754 24.0032 22.5257 23.9087 22.3345 23.7355C22.1432 23.5624 22.0245 23.3233 22.0021 23.0662C21.993 22.9295 22.0122 22.7923 22.0583 22.6632C22.1045 22.5341 22.1767 22.4159 22.2705 22.3159C22.3643 22.2159 22.4776 22.1363 22.6035 22.0819C22.7293 22.0276 22.865 21.9997 23.0021 22H24.0021C25.0469 22.0016 26.0764 21.7494 27.0021 21.265C28.0984 20.694 29.0091 19.8223 29.6276 18.7521C30.246 17.6819 30.5465 16.4576 30.4937 15.2226C30.441 13.9877 30.0372 12.7934 29.3298 11.7798C28.6223 10.7663 27.6406 9.9754 26.4996 9.5ZM24.9996 14H24.4996C23.3061 14 22.1615 13.5259 21.3176 12.682C20.4737 11.8381 19.9996 10.6935 19.9996 9.5V9C19.9996 8.73478 20.105 8.48043 20.2925 8.29289C20.48 8.10536 20.7344 8 20.9996 8C21.2648 8 21.5192 8.10536 21.7067 8.29289C21.8943 8.48043 21.9996 8.73478 21.9996 9V9.5C21.9996 9.82831 22.0643 10.1534 22.1899 10.4567C22.3155 10.76 22.4997 11.0356 22.7318 11.2678C23.2007 11.7366 23.8366 12 24.4996 12H24.9996C25.2648 12 25.5192 12.1054 25.7067 12.2929C25.8943 12.4804 25.9996 12.7348 25.9996 13C25.9996 13.2652 25.8943 13.5196 25.7067 13.7071C25.5192 13.8946 25.2648 14 24.9996 14ZM10.9996 3.5C9.54143 3.50165 8.14344 4.08165 7.11235 5.11274C6.08126 6.14383 5.50127 7.54182 5.49961 9V9.5C4.35877 9.97565 3.3772 10.7667 2.67001 11.7805C1.96282 12.7942 1.55932 13.9885 1.50684 15.2234C1.45436 16.4583 1.75506 17.6826 2.3737 18.7527C2.99233 19.8228 3.90324 20.6943 4.99961 21.265C5.92532 21.7494 6.95484 22.0016 7.99961 22H8.96586C9.22428 21.9962 9.47455 22.0904 9.66634 22.2636C9.85813 22.4368 9.97721 22.6763 9.99961 22.9338C10.0087 23.0705 9.98955 23.2077 9.94338 23.3368C9.89721 23.4659 9.82499 23.5841 9.73121 23.6841C9.63743 23.7841 9.52409 23.8637 9.39824 23.9181C9.27238 23.9724 9.1367 24.0003 8.99961 24H7.99961C7.35971 24.0003 6.72186 23.9277 6.09836 23.7838C6.00788 23.764 5.91369 23.7698 5.8263 23.8004C5.73891 23.8311 5.66175 23.8854 5.60342 23.9574C5.54509 24.0293 5.50789 24.116 5.49596 24.2079C5.48403 24.2997 5.49785 24.3931 5.53586 24.4775C5.91553 25.3169 6.48366 26.0574 7.19609 26.6415C7.90852 27.2256 8.74605 27.6376 9.64359 27.8453C10.5411 28.0531 11.4745 28.0511 12.3711 27.8394C13.2677 27.6278 14.1035 27.2122 14.8134 26.625C14.8716 26.5781 14.9186 26.5187 14.9508 26.4512C14.983 26.3837 14.9997 26.3098 14.9996 26.235V22C14.9996 20.9391 14.5782 19.9217 13.828 19.1716C13.0779 18.4214 12.0605 18 10.9996 18C10.8638 18.0002 10.7293 17.9727 10.6044 17.9192C10.4795 17.8657 10.3669 17.7873 10.2733 17.6888C10.1797 17.5903 10.1072 17.4738 10.0601 17.3463C10.0131 17.2189 9.99248 17.0832 9.99961 16.9475C10.0188 16.6865 10.1373 16.4427 10.3307 16.2665C10.5242 16.0902 10.7779 15.9948 11.0396 16C12.1691 16.0059 13.2737 16.3328 14.2246 16.9425C14.2999 16.9921 14.3872 17.0204 14.4772 17.0244C14.5673 17.0285 14.6568 17.0081 14.7362 16.9654C14.8156 16.9227 14.882 16.8594 14.9284 16.7821C14.9748 16.7048 14.9994 16.6164 14.9996 16.5263V5.43625C15.0001 5.305 14.9489 5.17884 14.8571 5.085C13.8303 4.06903 12.4441 3.49942 10.9996 3.5ZM11.9996 9.5C11.9996 10.6935 11.5255 11.8381 10.6816 12.682C9.83768 13.5259 8.69309 14 7.49961 14H6.99961C6.73439 14 6.48004 13.8946 6.2925 13.7071C6.10497 13.5196 5.99961 13.2652 5.99961 13C5.99961 12.7348 6.10497 12.4804 6.2925 12.2929C6.48004 12.1054 6.73439 12 6.99961 12H7.49961C7.82792 12 8.15301 11.9353 8.45632 11.8097C8.75963 11.6841 9.03523 11.4999 9.26738 11.2678C9.49952 11.0356 9.68367 10.76 9.80931 10.4567C9.93495 10.1534 9.99961 9.82831 9.99961 9.5V9C9.99961 8.73478 10.105 8.48043 10.2925 8.29289C10.48 8.10536 10.7344 8 10.9996 8C11.2648 8 11.5192 8.10536 11.7067 8.29289C11.8943 8.48043 11.9996 8.73478 11.9996 9V9.5Z" fill="#1C1C1E"/>
</svg>
