<svg width="32" height="32" viewBox="0 0 32 32" fill="none" xmlns="http://www.w3.org/2000/svg">
<path d="M21.0003 15.9995C21.0003 16.9884 20.7071 17.9551 20.1577 18.7774C19.6083 19.5996 18.8274 20.2405 17.9137 20.6189C17.0001 20.9974 15.9948 21.0964 15.0249 20.9035C14.055 20.7105 13.164 20.2343 12.4648 19.5351C11.7655 18.8358 11.2893 17.9449 11.0964 16.975C10.9035 16.0051 11.0025 14.9997 11.3809 14.0861C11.7594 13.1725 12.4002 12.3916 13.2225 11.8422C14.0447 11.2928 15.0114 10.9995 16.0003 10.9995C17.3264 10.9995 18.5982 11.5263 19.5358 12.464C20.4735 13.4017 21.0003 14.6734 21.0003 15.9995ZM26.0003 15.9995C26.0033 13.5394 25.0964 11.165 23.4541 9.33328C23.3672 9.23304 23.2612 9.15109 23.1423 9.09221C23.0234 9.03333 22.894 8.99869 22.7616 8.9903C22.6292 8.98192 22.4965 8.99997 22.3712 9.04339C22.2458 9.08681 22.1303 9.15473 22.0315 9.24321C21.9327 9.33169 21.8524 9.43895 21.7954 9.55875C21.7384 9.67855 21.7059 9.80848 21.6996 9.941C21.6933 10.0735 21.7135 10.2059 21.7589 10.3306C21.8043 10.4552 21.874 10.5696 21.9641 10.667C23.2758 12.1337 24.001 14.0324 24.001 16.0002C24.001 17.9679 23.2758 19.8666 21.9641 21.3333C21.7921 21.5316 21.7051 21.7896 21.7217 22.0515C21.7382 22.3134 21.8571 22.5583 22.0527 22.7334C22.2483 22.9085 22.5048 22.9996 22.767 22.9872C23.0291 22.9748 23.2759 22.8598 23.4541 22.667C25.0962 20.8347 26.003 18.46 26.0003 15.9995ZM10.0366 10.667C10.1266 10.5696 10.1964 10.4552 10.2418 10.3306C10.2872 10.2059 10.3073 10.0735 10.301 9.941C10.2948 9.80848 10.2622 9.67855 10.2052 9.55875C10.1482 9.43895 10.068 9.33169 9.96912 9.24321C9.87028 9.15473 9.75482 9.08681 9.62947 9.04339C9.50411 8.99997 9.37137 8.98192 9.23898 8.9903C9.10658 8.99869 8.97718 9.03333 8.85831 9.09221C8.73943 9.15109 8.63346 9.23304 8.54656 9.33328C6.90505 11.166 5.99737 13.5398 5.99737 16.0002C5.99737 18.4605 6.90505 20.8343 8.54656 22.667C8.7247 22.8598 8.97148 22.9748 9.23365 22.9872C9.49582 22.9996 9.75236 22.9085 9.94792 22.7334C10.1435 22.5583 10.2624 22.3134 10.279 22.0515C10.2955 21.7896 10.2085 21.5316 10.0366 21.3333C8.72351 19.8672 7.99746 17.9683 7.99746 16.0002C7.99746 14.032 8.72351 12.1331 10.0366 10.667ZM29.8216 10.167C29.0897 8.42895 28.0353 6.84521 26.7141 5.49953C26.623 5.40216 26.5134 5.32399 26.3917 5.26961C26.2699 5.21522 26.1386 5.18573 26.0053 5.18285C25.872 5.17997 25.7395 5.20378 25.6155 5.25286C25.4916 5.30195 25.3787 5.37532 25.2835 5.46867C25.1884 5.56201 25.1128 5.67345 25.0613 5.79642C25.0098 5.91939 24.9834 6.05142 24.9837 6.18473C24.984 6.31805 25.0109 6.44996 25.063 6.57272C25.115 6.69547 25.191 6.80658 25.2866 6.89953C27.67 9.32782 29.0053 12.5945 29.0053 15.997C29.0053 19.3996 27.67 22.6662 25.2866 25.0945C25.1943 25.1883 25.1214 25.2992 25.0721 25.4211C25.0227 25.543 24.9978 25.6735 24.9989 25.805C24.9999 25.9365 25.0269 26.0665 25.0781 26.1876C25.1294 26.3087 25.2041 26.4185 25.2978 26.5108C25.3915 26.603 25.5025 26.6759 25.6244 26.7253C25.7463 26.7746 25.8768 26.7995 26.0083 26.7985C26.1398 26.7974 26.2698 26.7705 26.3909 26.7192C26.512 26.6679 26.6218 26.5933 26.7141 26.4995C28.7843 24.3854 30.1838 21.7066 30.7367 18.7997C31.2895 15.8928 30.9712 12.8873 29.8216 10.1608V10.167ZM4.02156 21.0595C3.02236 18.6975 2.74485 16.0926 3.22402 13.5731C3.70318 11.0536 4.91756 8.73234 6.71406 6.90203C6.90004 6.71273 7.00321 6.4573 7.00087 6.19194C6.99852 5.92657 6.89086 5.67301 6.70156 5.48703C6.51226 5.30104 6.25684 5.19788 5.99147 5.20022C5.72611 5.20256 5.47254 5.31023 5.28656 5.49953C2.53429 8.30144 0.992188 12.072 0.992188 15.9995C0.992188 19.9271 2.53429 23.6976 5.28656 26.4995C5.37763 26.5969 5.48724 26.6751 5.60896 26.7294C5.73068 26.7838 5.86204 26.8133 5.99533 26.8162C6.12861 26.8191 6.26113 26.7953 6.38508 26.7462C6.50903 26.6971 6.62191 26.6237 6.71709 26.5304C6.81227 26.437 6.88783 26.3256 6.93931 26.2026C6.9908 26.0797 7.01717 25.9476 7.01689 25.8143C7.01661 25.681 6.98967 25.5491 6.93767 25.4263C6.88566 25.3036 6.80964 25.1925 6.71406 25.0995C5.56992 23.9346 4.65637 22.5639 4.02156 21.0595Z" fill="#1C1C1E"/>
</svg>
