<svg width="32" height="32" viewBox="0 0 32 32" fill="none" xmlns="http://www.w3.org/2000/svg">
<path d="M29.4113 27.0874C26.6075 25.7111 25 22.7649 25 18.9999V16.8361C25.0011 16.4354 24.8813 16.0437 24.6563 15.7121C24.4313 15.3805 24.1115 15.1245 23.7388 14.9774L20.1575 13.5449C19.9122 13.4467 19.7157 13.2553 19.611 13.0127C19.5063 12.77 19.5019 12.4958 19.5988 12.2499L22.3888 5.16614C23 3.59864 22.25 1.77614 20.6675 1.18864C19.9309 0.914687 19.1162 0.940753 18.3985 1.26123C17.6809 1.58171 17.1177 2.171 16.83 2.90239L14.0313 10.0099C13.983 10.1325 13.911 10.2443 13.8195 10.339C13.7279 10.4336 13.6185 10.5093 13.4975 10.5616C13.3766 10.6138 13.2466 10.6417 13.1149 10.6435C12.9832 10.6454 12.8524 10.6212 12.73 10.5724L9.13878 9.13489C8.77221 8.9865 8.36972 8.95077 7.98274 9.03226C7.59577 9.11376 7.24187 9.30877 6.96628 9.59239C4.33503 12.2999 3.00003 15.4636 3.00003 18.9999C2.99315 22.6128 4.38913 26.0873 6.89378 28.6911C6.9884 28.7894 7.10201 28.8675 7.22771 28.9206C7.35341 28.9736 7.48858 29.0006 7.62503 28.9999H29C29.255 29.0004 29.5005 28.9035 29.6863 28.729C29.8722 28.5545 29.9844 28.3156 30 28.0611C30.0089 27.8589 29.9577 27.6585 29.853 27.4852C29.7482 27.3119 29.5945 27.1735 29.4113 27.0874ZM14.3888 26.9999C12.9094 25.5805 11.8586 23.7739 11.3563 21.7861C11.2957 21.5357 11.1431 21.3173 10.9289 21.1742C10.7147 21.0311 10.4545 20.9738 10.2 21.0136C10.0645 21.0381 9.93544 21.0903 9.82101 21.167C9.70659 21.2437 9.60924 21.3432 9.53507 21.4592C9.4609 21.5753 9.4115 21.7055 9.38999 21.8415C9.36847 21.9776 9.37529 22.1166 9.41003 22.2499C9.84674 23.9718 10.6274 25.5876 11.705 26.9999H8.05503C6.08358 24.8021 4.99534 21.9523 5.00003 18.9999C4.98769 17.4351 5.31747 15.8864 5.96628 14.4624L23.1913 21.3536C23.5663 23.6111 24.51 25.5411 25.9275 27.0024L14.3888 26.9999Z" fill="#1C1C1E"/>
</svg>
