<svg width="32" height="32" viewBox="0 0 32 32" fill="none" xmlns="http://www.w3.org/2000/svg">
<path d="M28 14.9996H26V12.9996H28C28.2652 12.9996 28.5196 13.1049 28.7071 13.2925C28.8946 13.48 29 13.7344 29 13.9996C29 14.2648 28.8946 14.5191 28.7071 14.7067C28.5196 14.8942 28.2652 14.9996 28 14.9996ZM4 12.9996C3.73478 12.9996 3.48043 13.1049 3.29289 13.2925C3.10536 13.48 3 13.7344 3 13.9996C3 14.2648 3.10536 14.5191 3.29289 14.7067C3.48043 14.8942 3.73478 14.9996 4 14.9996H6V12.9996H4ZM26 19.9996C26 20.3371 25.9825 20.6708 25.95 20.9996H28C28.2652 20.9996 28.5196 21.1049 28.7071 21.2925C28.8946 21.48 29 21.7344 29 21.9996C29 22.2648 28.8946 22.5192 28.7071 22.7067C28.5196 22.8942 28.2652 22.9996 28 22.9996H25.54C24.9019 25.03 23.6327 26.8039 21.9169 28.0632C20.2011 29.3225 18.1283 30.0015 16 30.0015C13.8717 30.0015 11.7989 29.3225 10.0831 28.0632C8.36733 26.8039 7.09808 25.03 6.46 22.9996H4C3.73478 22.9996 3.48043 22.8942 3.29289 22.7067C3.10536 22.5192 3 22.2648 3 21.9996C3 21.7344 3.10536 21.48 3.29289 21.2925C3.48043 21.1049 3.73478 20.9996 4 20.9996H6.05C6.0175 20.6708 6 20.3371 6 19.9996V18.9996H4C3.73478 18.9996 3.48043 18.8942 3.29289 18.7067C3.10536 18.5192 3 18.2648 3 17.9996C3 17.7344 3.10536 17.48 3.29289 17.2925C3.48043 17.1049 3.73478 16.9996 4 16.9996H6V14.9996H26V16.9996H28C28.2652 16.9996 28.5196 17.1049 28.7071 17.2925C28.8946 17.48 29 17.7344 29 17.9996C29 18.2648 28.8946 18.5192 28.7071 18.7067C28.5196 18.8942 28.2652 18.9996 28 18.9996H26V19.9996ZM17 17.9996C17 17.7344 16.8946 17.48 16.7071 17.2925C16.5196 17.1049 16.2652 16.9996 16 16.9996C15.7348 16.9996 15.4804 17.1049 15.2929 17.2925C15.1054 17.48 15 17.7344 15 17.9996V25.9996C15 26.2648 15.1054 26.5192 15.2929 26.7067C15.4804 26.8942 15.7348 26.9996 16 26.9996C16.2652 26.9996 16.5196 26.8942 16.7071 26.7067C16.8946 26.5192 17 26.2648 17 25.9996V17.9996ZM8.73 7.14333C7.21341 8.74518 6.27088 10.8048 6.05 12.9996H25.95C25.7291 10.8048 24.7866 8.74518 23.27 7.14333L25.7075 4.70708C25.8951 4.51944 26.0006 4.26494 26.0006 3.99958C26.0006 3.73422 25.8951 3.47972 25.7075 3.29208C25.5199 3.10444 25.2654 2.99902 25 2.99902C24.7346 2.99902 24.4801 3.10444 24.2925 3.29208L21.7563 5.82958C20.073 4.63885 18.0619 3.99944 16 3.99944C13.9381 3.99944 11.927 4.63885 10.2437 5.82958L7.7075 3.29208C7.51986 3.10444 7.26536 2.99902 7 2.99902C6.73464 2.99902 6.48014 3.10444 6.2925 3.29208C6.10486 3.47972 5.99944 3.73422 5.99944 3.99958C5.99944 4.26494 6.10486 4.51944 6.2925 4.70708L8.73 7.14333Z" fill="#1C1C1E"/>
</svg>
