<svg width="32" height="32" viewBox="0 0 32 32" fill="none" xmlns="http://www.w3.org/2000/svg">
<path d="M23.9788 6.43458L25.7075 4.70708C25.8951 4.51944 26.0006 4.26494 26.0006 3.99958C26.0006 3.73422 25.8951 3.47972 25.7075 3.29208C25.5199 3.10444 25.2654 2.99902 25 2.99902C24.7346 2.99902 24.4801 3.10444 24.2925 3.29208L22.4738 5.11208C20.5943 3.73945 18.3273 2.99972 16 2.99972C13.6727 2.99972 11.4057 3.73945 9.52625 5.11208L7.7075 3.29208C7.51986 3.10444 7.26537 2.99902 7 2.99902C6.73464 2.99902 6.48014 3.10444 6.2925 3.29208C6.10486 3.47972 5.99945 3.73422 5.99945 3.99958C5.99945 4.26494 6.10486 4.51944 6.2925 4.70708L8.02125 6.43458C6.0801 8.47472 4.99828 11.1835 5 13.9996V18.9996C5 21.917 6.15893 24.7149 8.22183 26.7778C10.2847 28.8407 13.0826 29.9996 16 29.9996C18.9174 29.9996 21.7153 28.8407 23.7782 26.7778C25.8411 24.7149 27 21.917 27 18.9996V13.9996C27.0017 11.1835 25.9199 8.47472 23.9788 6.43458ZM16 4.99958C18.3861 5.00223 20.6738 5.95129 22.361 7.63854C24.0483 9.3258 24.9974 11.6134 25 13.9996V14.9996H7V13.9996C7.00265 11.6134 7.95171 9.3258 9.63896 7.63854C11.3262 5.95129 13.6139 5.00223 16 4.99958ZM18 11.4996C18 11.2029 18.088 10.9129 18.2528 10.6662C18.4176 10.4196 18.6519 10.2273 18.926 10.1138C19.2001 10.0002 19.5017 9.97052 19.7926 10.0284C20.0836 10.0863 20.3509 10.2291 20.5607 10.4389C20.7704 10.6487 20.9133 10.916 20.9712 11.2069C21.0291 11.4979 20.9994 11.7995 20.8858 12.0736C20.7723 12.3477 20.58 12.582 20.3334 12.7468C20.0867 12.9116 19.7967 12.9996 19.5 12.9996C19.1022 12.9996 18.7206 12.8415 18.4393 12.5602C18.158 12.2789 18 11.8974 18 11.4996ZM11 11.4996C11 11.2029 11.088 10.9129 11.2528 10.6662C11.4176 10.4196 11.6519 10.2273 11.926 10.1138C12.2001 10.0002 12.5017 9.97052 12.7926 10.0284C13.0836 10.0863 13.3509 10.2291 13.5607 10.4389C13.7704 10.6487 13.9133 10.916 13.9712 11.2069C14.0291 11.4979 13.9994 11.7995 13.8858 12.0736C13.7723 12.3477 13.58 12.582 13.3334 12.7468C13.0867 12.9116 12.7967 12.9996 12.5 12.9996C12.1022 12.9996 11.7206 12.8415 11.4393 12.5602C11.158 12.2789 11 11.8974 11 11.4996Z" fill="#1C1C1E"/>
</svg>
