<svg width="32" height="32" viewBox="0 0 32 32" fill="none" xmlns="http://www.w3.org/2000/svg">
<path d="M30.9834 3.82405C30.9365 3.56322 30.788 3.33166 30.5705 3.18026C30.353 3.02885 30.0843 2.96997 29.8234 3.01655L1.82342 8.01655C1.57813 8.06131 1.35842 8.19609 1.20736 8.39445C1.0563 8.59281 0.98479 8.84045 1.00686 9.0888C1.02892 9.33716 1.14297 9.56831 1.32664 9.73694C1.5103 9.90556 1.75034 9.99949 1.99967 10.0003C2.05915 10.0002 2.11852 9.9952 2.17717 9.9853L14.9997 7.6953V12.0003H7.99967C6.9388 12.0003 5.92139 12.4217 5.17124 13.1719C4.42109 13.922 3.99967 14.9394 3.99967 16.0003V24.0003C3.99967 25.0612 4.42109 26.0786 5.17124 26.8287C5.92139 27.5789 6.9388 28.0003 7.99967 28.0003H23.9997C25.0605 28.0003 26.0779 27.5789 26.8281 26.8287C27.5782 26.0786 27.9997 25.0612 27.9997 24.0003V16.0003C27.9997 14.9394 27.5782 13.922 26.8281 13.1719C26.0779 12.4217 25.0605 12.0003 23.9997 12.0003H16.9997V7.3378L30.1747 4.9853C30.3041 4.96223 30.4276 4.91389 30.5383 4.84303C30.649 4.77216 30.7447 4.68018 30.8198 4.57233C30.8949 4.46447 30.948 4.34287 30.9761 4.21448C31.0042 4.08608 31.0067 3.95341 30.9834 3.82405ZM12.9997 20.0003V14.0003H18.9997V20.0003H12.9997ZM7.99967 14.0003H10.9997V20.0003H5.99967V16.0003C5.99967 15.4699 6.21038 14.9612 6.58545 14.5861C6.96053 14.211 7.46923 14.0003 7.99967 14.0003ZM25.9997 16.0003V20.0003H20.9997V14.0003H23.9997C24.5301 14.0003 25.0388 14.211 25.4139 14.5861C25.789 14.9612 25.9997 15.4699 25.9997 16.0003Z" fill="#1C1C1E"/>
</svg>
