<svg width="32" height="32" viewBox="0 0 32 32" fill="none" xmlns="http://www.w3.org/2000/svg">
<path d="M25.9996 11.0005H16.9997V9.8755C17.858 9.65256 18.6182 9.15122 19.161 8.45002C19.7039 7.74881 19.9989 6.88735 19.9997 6.00056C19.9997 2.50061 16.6947 0.261896 16.5547 0.168147C16.3904 0.0585098 16.1973 0 15.9998 0C15.8022 0 15.6091 0.0585098 15.4448 0.168147C15.3048 0.261896 11.9998 2.50061 11.9998 6.00056C12.0007 6.88735 12.2956 7.74881 12.8385 8.45002C13.3813 9.15122 14.1415 9.65256 14.9998 9.8755V11.0005H5.99991C5.20427 11.0005 4.44122 11.3165 3.87862 11.8791C3.31602 12.4417 2.99995 13.2048 2.99995 14.0004V16.9166C3.00098 18.0075 3.35143 19.0694 3.99994 19.9466V25.0003C3.99994 25.7959 4.316 26.559 4.87861 27.1216C5.44121 27.6842 6.20426 28.0002 6.99989 28.0002H24.9996C25.7953 28.0002 26.5583 27.6842 27.1209 27.1216C27.6835 26.559 27.9996 25.7959 27.9996 25.0003V19.9466C28.6481 19.0694 28.9985 18.0075 28.9996 16.9166V14.0004C28.9996 13.2048 28.6835 12.4417 28.1209 11.8791C27.5583 11.3165 26.7952 11.0005 25.9996 11.0005ZM13.9998 6.00056C13.9998 4.30433 15.2498 2.9431 15.9998 2.27686C16.7497 2.9431 17.9997 4.30433 17.9997 6.00056C17.9997 6.53098 17.789 7.03968 17.4139 7.41475C17.0389 7.78982 16.5302 8.00053 15.9998 8.00053C15.4693 8.00053 14.9606 7.78982 14.5856 7.41475C14.2105 7.03968 13.9998 6.53098 13.9998 6.00056ZM26.9996 16.9166C26.9996 18.5729 25.6921 19.9553 24.0846 19.9991C23.6837 20.0105 23.2845 19.9413 22.9108 19.7957C22.537 19.6501 22.1962 19.4311 21.9086 19.1515C21.621 18.8719 21.3924 18.5375 21.2363 18.168C21.0801 17.7985 20.9997 17.4015 20.9997 17.0004C20.9997 16.7352 20.8943 16.4808 20.7068 16.2933C20.5193 16.1058 20.2649 16.0004 19.9997 16.0004C19.7345 16.0004 19.4801 16.1058 19.2926 16.2933C19.1051 16.4808 18.9997 16.7352 18.9997 17.0004C18.9997 17.796 18.6836 18.5591 18.121 19.1217C17.5584 19.6843 16.7954 20.0003 15.9998 20.0003C15.2041 20.0003 14.4411 19.6843 13.8785 19.1217C13.3159 18.5591 12.9998 17.796 12.9998 17.0004C12.9998 16.7352 12.8944 16.4808 12.7069 16.2933C12.5194 16.1058 12.265 16.0004 11.9998 16.0004C11.7346 16.0004 11.4803 16.1058 11.2927 16.2933C11.1052 16.4808 10.9998 16.7352 10.9998 17.0004C11 17.4016 10.9197 17.7988 10.7636 18.1684C10.6076 18.538 10.379 18.8726 10.0913 19.1523C9.80369 19.432 9.46287 19.6512 9.08903 19.7969C8.71519 19.9425 8.31593 20.0117 7.91488 20.0003C6.3074 19.9553 4.99992 18.5729 4.99992 16.9166V14.0004C4.99992 13.7352 5.10528 13.4809 5.29281 13.2933C5.48035 13.1058 5.7347 13.0005 5.99991 13.0005H25.9996C26.2648 13.0005 26.5192 13.1058 26.7067 13.2933C26.8942 13.4809 26.9996 13.7352 26.9996 14.0004V16.9166Z" fill="#1C1C1E"/>
</svg>
