<svg width="32" height="32" viewBox="0 0 32 32" fill="none" xmlns="http://www.w3.org/2000/svg">
<path d="M28 6.00016V23.4464C28.0014 23.5486 27.9715 23.6487 27.9143 23.7333C27.857 23.8179 27.7753 23.883 27.68 23.9197C27.5847 23.9565 27.4804 23.9632 27.3812 23.9389C27.282 23.9146 27.1926 23.8605 27.125 23.7839L14.6 10.0002H26V6.00016H23V7.00016C23.0003 7.13714 22.9724 7.27271 22.9182 7.39848C22.8639 7.52424 22.7844 7.63752 22.6845 7.73128C22.5847 7.82504 22.4666 7.89729 22.3377 7.94354C22.2087 7.98979 22.0717 8.00907 21.935 8.00016C21.6773 7.97806 21.4376 7.85911 21.2641 7.66729C21.0906 7.47547 20.9962 7.22503 21 6.96641V6.00016H10.9637L9.90625 4.83641C9.84082 4.76442 9.79782 4.6749 9.78251 4.57883C9.7672 4.48276 9.78024 4.38432 9.82005 4.29555C9.85985 4.20679 9.92469 4.13156 10.0066 4.07909C10.0885 4.02662 10.184 3.99919 10.2812 4.00016H21V3.00016C20.9997 2.86319 21.0276 2.72761 21.0818 2.60185C21.1361 2.47608 21.2156 2.3628 21.3155 2.26904C21.4153 2.17528 21.5334 2.10304 21.6623 2.05678C21.7913 2.01053 21.9283 1.99126 22.065 2.00016C22.3227 2.02227 22.5624 2.14121 22.7359 2.33303C22.9094 2.52485 23.0038 2.7753 23 3.03391V4.00016H26C26.5304 4.00016 27.0391 4.21088 27.4142 4.58595C27.7893 4.96102 28 5.46973 28 6.00016ZM26.74 26.3277C26.8703 26.471 26.9561 26.6491 26.987 26.8403C27.018 27.0316 26.9928 27.2276 26.9144 27.4048C26.836 27.5819 26.7079 27.7325 26.5456 27.8382C26.3832 27.9439 26.1937 28.0001 26 28.0002H6C5.46957 28.0002 4.96086 27.7894 4.58579 27.4144C4.21071 27.0393 4 26.5306 4 26.0002V6.00016C4 5.46973 4.21071 4.96102 4.58579 4.58595C4.96086 4.21088 5.46957 4.00016 6 4.00016C6.13957 4 6.27762 4.02906 6.40529 4.08546C6.53295 4.14187 6.64739 4.22437 6.74125 4.32766L26.74 26.3277ZM9.19375 10.0002L6 6.48641V10.0002H9.19375Z" fill="#1C1C1E"/>
</svg>
