<svg width="32" height="32" viewBox="0 0 32 32" fill="none" xmlns="http://www.w3.org/2000/svg">
<path d="M16.5237 3.1491C16.3662 3.05225 16.1849 3.00098 16 3.00098C15.815 3.00098 15.6337 3.05225 15.4762 3.1491C14.2219 3.96419 13.0655 4.9209 12.03 6.00035C9.72121 8.3916 8.49996 10.9879 8.49996 13.5004C8.49996 15.4895 9.29014 17.3971 10.6967 18.8037C12.1032 20.2102 14.0108 21.0004 16 21.0004C17.9891 21.0004 19.8967 20.2102 21.3033 18.8037C22.7098 17.3971 23.5 15.4895 23.5 13.5004C23.5 7.51035 16.8087 3.3241 16.5237 3.1491ZM16 19.0004C15.2043 19.0004 14.4412 18.6843 13.8786 18.1217C13.316 17.5591 13 16.796 13 16.0004C13 13.0004 16 11.0004 16 11.0004C16 11.0004 19 13.0004 19 16.0004C19 16.796 18.6839 17.5591 18.1213 18.1217C17.5587 18.6843 16.7956 19.0004 16 19.0004ZM27.9525 28.3029C27.9127 28.428 27.8486 28.5441 27.7639 28.6446C27.6793 28.745 27.5756 28.8277 27.459 28.8881C27.3423 28.9485 27.2149 28.9852 27.084 28.9964C26.9532 29.0075 26.8214 28.9927 26.6962 28.9529L16 25.5491L5.30371 28.9529C5.17854 28.9927 5.04676 29.0074 4.91589 28.9963C4.78502 28.9852 4.65762 28.9484 4.54097 28.888C4.42431 28.8277 4.32069 28.7449 4.23601 28.6445C4.15134 28.5441 4.08727 28.428 4.04746 28.3029C4.00765 28.1777 3.99289 28.0459 4.00401 27.915C4.01513 27.7842 4.05192 27.6568 4.11228 27.5401C4.17264 27.4235 4.25538 27.3198 4.35579 27.2352C4.45619 27.1505 4.57229 27.0864 4.69746 27.0466L12.6975 24.5004L4.69746 21.9529C4.56884 21.916 4.44891 21.8538 4.34478 21.7698C4.24065 21.6858 4.15444 21.5817 4.09124 21.4638C4.02805 21.3459 3.98916 21.2165 3.97688 21.0833C3.9646 20.95 3.97917 20.8157 4.01975 20.6882C4.06032 20.5607 4.12606 20.4427 4.21308 20.341C4.3001 20.2394 4.40662 20.1563 4.52635 20.0966C4.64607 20.0369 4.77656 20.0018 4.91009 19.9934C5.04362 19.9851 5.17746 20.0036 5.30371 20.0479L16 23.4504L26.6962 20.0479C26.8225 20.0036 26.9563 19.9851 27.0898 19.9934C27.2234 20.0018 27.3538 20.0369 27.4736 20.0966C27.5933 20.1563 27.6998 20.2394 27.7868 20.341C27.8739 20.4427 27.9396 20.5607 27.9802 20.6882C28.0207 20.8157 28.0353 20.95 28.023 21.0833C28.0108 21.2165 27.9719 21.3459 27.9087 21.4638C27.8455 21.5817 27.7593 21.6858 27.6551 21.7698C27.551 21.8538 27.4311 21.916 27.3025 21.9529L19.3025 24.5004L27.3025 27.0466C27.4276 27.0864 27.5438 27.1505 27.6442 27.2351C27.7446 27.3198 27.8273 27.4234 27.8877 27.5401C27.9481 27.6567 27.9848 27.7841 27.996 27.915C28.0071 28.0459 27.9923 28.1777 27.9525 28.3029Z" fill="#1C1C1E"/>
</svg>
