<svg width="32" height="32" viewBox="0 0 32 32" fill="none" xmlns="http://www.w3.org/2000/svg">
<path d="M25.1979 25.1967C27.0147 23.3781 28.2515 21.0617 28.7521 18.5403C29.2527 16.0189 28.9945 13.4057 28.0102 11.031C27.0259 8.65627 25.3596 6.6267 23.2221 5.1988C21.0845 3.77091 18.5716 3.00879 16.001 3.00879C13.4304 3.00879 10.9175 3.77091 8.77989 5.1988C6.64232 6.6267 4.97608 8.65627 3.99176 11.031C3.00745 13.4057 2.74927 16.0189 3.24985 18.5403C3.75043 21.0617 4.98729 23.3781 6.80411 25.1967C9.2452 27.6322 12.5527 29 16.001 29C19.4493 29 22.7568 27.6322 25.1979 25.1967ZM12.7066 14.7067C12.6137 14.7996 12.5034 14.8733 12.382 14.9236C12.2606 14.9739 12.1305 14.9997 11.9991 14.9997C11.8677 14.9997 11.7376 14.9739 11.6162 14.9236C11.4948 14.8733 11.3845 14.7996 11.2916 14.7067C11.1987 14.6138 11.125 14.5035 11.0747 14.3821C11.0244 14.2607 10.9986 14.1306 10.9986 13.9992C10.9986 13.8678 11.0244 13.7377 11.0747 13.6163C11.125 13.4949 11.1987 13.3846 11.2916 13.2917L15.2916 9.29169C15.3845 9.19871 15.4948 9.12495 15.6162 9.07463C15.7376 9.0243 15.8677 8.9984 15.9991 8.9984C16.1305 8.9984 16.2607 9.0243 16.382 9.07463C16.5034 9.12495 16.6137 9.19871 16.7066 9.29169L20.7066 13.2917C20.8942 13.4793 20.9997 13.7338 20.9997 13.9992C20.9997 14.2646 20.8942 14.519 20.7066 14.7067C20.519 14.8943 20.2645 14.9997 19.9991 14.9997C19.7337 14.9997 19.4792 14.8943 19.2916 14.7067L16.0004 11.4117L12.7066 14.7067ZM12.7066 21.7067C12.6137 21.7996 12.5034 21.8733 12.382 21.9236C12.2606 21.9739 12.1305 21.9997 11.9991 21.9997C11.8677 21.9997 11.7376 21.9739 11.6162 21.9236C11.4948 21.8733 11.3845 21.7996 11.2916 21.7067C11.1987 21.6138 11.125 21.5035 11.0747 21.3821C11.0244 21.2607 10.9986 21.1306 10.9986 20.9992C10.9986 20.8678 11.0244 20.7377 11.0747 20.6163C11.125 20.4949 11.1987 20.3846 11.2916 20.2917L15.2916 16.2917C15.3845 16.1987 15.4948 16.125 15.6162 16.0746C15.7376 16.0243 15.8677 15.9984 15.9991 15.9984C16.1305 15.9984 16.2607 16.0243 16.382 16.0746C16.5034 16.125 16.6137 16.1987 16.7066 16.2917L20.7066 20.2917C20.8942 20.4793 20.9997 20.7338 20.9997 20.9992C20.9997 21.2646 20.8942 21.519 20.7066 21.7067C20.519 21.8943 20.2645 21.9997 19.9991 21.9997C19.7337 21.9997 19.4792 21.8943 19.2916 21.7067L16.0004 18.4154L12.7066 21.7067Z" fill="#1C1C1E"/>
</svg>
