<svg width="32" height="32" viewBox="0 0 32 32" fill="none" xmlns="http://www.w3.org/2000/svg">
<path d="M25.1967 6.80215C23.3781 4.98534 21.0617 3.74847 18.5403 3.24789C16.0189 2.74731 13.4057 3.0055 11.031 3.98981C8.65627 4.97412 6.6267 6.64037 5.1988 8.77794C3.77091 10.9155 3.00879 13.4284 3.00879 15.999C3.00879 18.5696 3.77091 21.0826 5.1988 23.2201C6.6267 25.3577 8.65627 27.0239 11.031 28.0082C13.4057 28.9926 16.0189 29.2507 18.5403 28.7502C21.0617 28.2496 23.3781 27.0127 25.1967 25.1959C27.6322 22.7548 29 19.4473 29 15.999C29 12.5507 27.6322 9.24325 25.1967 6.80215ZM15.7079 16.7072L11.7079 20.7072C11.615 20.8001 11.5047 20.8738 11.3833 20.924C11.2619 20.9743 11.1318 21.0002 11.0004 21.0002C10.869 21.0002 10.7389 20.9743 10.6175 20.924C10.4961 20.8738 10.3858 20.8001 10.2929 20.7072C10.2 20.6142 10.1263 20.5039 10.076 20.3826C10.0258 20.2612 9.99988 20.1311 9.99988 19.9997C9.99988 19.8683 10.0258 19.7382 10.076 19.6168C10.1263 19.4954 10.2 19.3851 10.2929 19.2922L13.5854 15.9997L10.2904 12.7047C10.1975 12.6117 10.1238 12.5014 10.0735 12.38C10.0233 12.2587 9.99738 12.1285 9.99738 11.9972C9.99738 11.8658 10.0233 11.7357 10.0735 11.6143C10.1238 11.4929 10.1975 11.3826 10.2904 11.2897C10.3833 11.1967 10.4936 11.123 10.615 11.0728C10.7364 11.0225 10.8665 10.9966 10.9979 10.9966C11.1293 10.9966 11.2594 11.0225 11.3808 11.0728C11.5022 11.123 11.6125 11.1967 11.7054 11.2897L15.7054 15.2897C15.799 15.3824 15.8732 15.4927 15.924 15.6143C15.9747 15.7358 16.001 15.8662 16.0012 15.9979C16.0015 16.1296 15.9757 16.2601 15.9253 16.3818C15.875 16.5035 15.8011 16.6141 15.7079 16.7072ZM22.7079 16.7072L18.7079 20.7072C18.5203 20.8948 18.2658 21.0002 18.0004 21.0002C17.7351 21.0002 17.4806 20.8948 17.2929 20.7072C17.1053 20.5195 16.9999 20.265 16.9999 19.9997C16.9999 19.7343 17.1053 19.4798 17.2929 19.2922L20.5892 15.9997L17.2942 12.7047C17.2013 12.6117 17.1276 12.5014 17.0773 12.38C17.027 12.2587 17.0011 12.1285 17.0011 11.9972C17.0011 11.8658 17.027 11.7357 17.0773 11.6143C17.1276 11.4929 17.2013 11.3826 17.2942 11.2897C17.3871 11.1967 17.4974 11.123 17.6188 11.0728C17.7402 11.0225 17.8703 10.9966 18.0017 10.9966C18.1331 10.9966 18.2632 11.0225 18.3846 11.0728C18.506 11.123 18.6163 11.1967 18.7092 11.2897L22.7092 15.2897C22.8026 15.3825 22.8768 15.4929 22.9275 15.6145C22.9781 15.736 23.0042 15.8664 23.0044 15.9981C23.0045 16.1299 22.9786 16.2603 22.9281 16.382C22.8777 16.5036 22.8037 16.6142 22.7104 16.7072H22.7079Z" fill="#1C1C1E"/>
</svg>
