<svg width="32" height="32" viewBox="0 0 32 32" fill="none" xmlns="http://www.w3.org/2000/svg">
<path d="M25.9998 16H18.4136L26.7073 7.7075C26.8473 7.56764 26.9427 7.38939 26.9813 7.19531C27.02 7.00122 27.0002 6.80003 26.9244 6.61721C26.8487 6.43439 26.7204 6.27815 26.5558 6.16828C26.3912 6.05841 26.1977 5.99984 25.9998 6H5.99981C5.80192 5.99984 5.60842 6.05841 5.44383 6.16828C5.27923 6.27815 5.15094 6.43439 5.07519 6.61721C4.99944 6.80003 4.97963 7.00122 5.01828 7.19531C5.05693 7.38939 5.1523 7.56764 5.29231 7.7075L13.5861 16H5.99981C5.80192 15.9998 5.60842 16.0584 5.44383 16.1683C5.27923 16.2782 5.15094 16.4344 5.07519 16.6172C4.99944 16.8 4.97963 17.0012 5.01828 17.1953C5.05693 17.3894 5.1523 17.5676 5.29231 17.7075L15.2923 27.7075C15.3852 27.8005 15.4955 27.8742 15.6169 27.9246C15.7383 27.9749 15.8684 28.0008 15.9998 28.0008C16.1312 28.0008 16.2614 27.9749 16.3828 27.9246C16.5041 27.8742 16.6144 27.8005 16.7073 27.7075L26.7073 17.7075C26.8473 17.5676 26.9427 17.3894 26.9813 17.1953C27.02 17.0012 27.0002 16.8 26.9244 16.6172C26.8487 16.4344 26.7204 16.2782 26.5558 16.1683C26.3912 16.0584 26.1977 15.9998 25.9998 16Z" fill="#1C1C1E"/>
</svg>
