<svg width="32" height="32" viewBox="0 0 32 32" fill="none" xmlns="http://www.w3.org/2000/svg">
<path d="M6.80215 6.80331C4.98534 8.6219 3.74847 10.9383 3.24789 13.4597C2.74731 15.9811 3.0055 18.5943 3.98981 20.969C4.97412 23.3437 6.64037 25.3733 8.77794 26.8012C10.9155 28.2291 13.4284 28.9912 15.999 28.9912C18.5696 28.9912 21.0826 28.2291 23.2201 26.8012C25.3577 25.3733 27.0239 23.3437 28.0082 20.969C28.9926 18.5943 29.2507 15.9811 28.7502 13.4597C28.2496 10.9383 27.0127 8.6219 25.1959 6.80331C22.7548 4.36779 19.4473 3 15.999 3C12.5507 3 9.24325 4.36779 6.80215 6.80331ZM19.2934 17.2933C19.3863 17.2004 19.4966 17.1267 19.618 17.0764C19.7394 17.0261 19.8695 17.0003 20.0009 17.0003C20.1323 17.0003 20.2624 17.0261 20.3838 17.0764C20.5052 17.1267 20.6155 17.2004 20.7084 17.2933C20.8013 17.3862 20.875 17.4965 20.9253 17.6179C20.9756 17.7393 21.0015 17.8694 21.0015 18.0008C21.0015 18.1322 20.9756 18.2623 20.9253 18.3837C20.875 18.5051 20.8013 18.6154 20.7084 18.7083L16.7084 22.7083C16.6155 22.8013 16.5052 22.875 16.3838 22.9254C16.2624 22.9757 16.1323 23.0016 16.0009 23.0016C15.8695 23.0016 15.7394 22.9757 15.618 22.9254C15.4966 22.875 15.3863 22.8013 15.2934 22.7083L11.2934 18.7083C11.2005 18.6154 11.1268 18.5051 11.0765 18.3837C11.0262 18.2623 11.0003 18.1322 11.0003 18.0008C11.0003 17.8694 11.0262 17.7393 11.0765 17.6179C11.1268 17.4965 11.2005 17.3862 11.2934 17.2933C11.3863 17.2004 11.4966 17.1267 11.618 17.0764C11.7394 17.0261 11.8695 17.0003 12.0009 17.0003C12.1323 17.0003 12.2624 17.0261 12.3838 17.0764C12.5052 17.1267 12.6155 17.2004 12.7084 17.2933L15.9997 20.5883L19.2934 17.2933ZM19.2934 10.2933C19.3863 10.2004 19.4966 10.1267 19.618 10.0764C19.7394 10.0261 19.8695 10.0003 20.0009 10.0003C20.1323 10.0003 20.2624 10.0261 20.3838 10.0764C20.5052 10.1267 20.6155 10.2004 20.7084 10.2933C20.8013 10.3862 20.875 10.4965 20.9253 10.6179C20.9756 10.7393 21.0015 10.8694 21.0015 11.0008C21.0015 11.1322 20.9756 11.2623 20.9253 11.3837C20.875 11.5051 20.8013 11.6154 20.7084 11.7083L16.7084 15.7083C16.6155 15.8013 16.5052 15.875 16.3838 15.9254C16.2624 15.9757 16.1323 16.0016 16.0009 16.0016C15.8695 16.0016 15.7394 15.9757 15.618 15.9254C15.4966 15.875 15.3863 15.8013 15.2934 15.7083L11.2934 11.7083C11.2005 11.6154 11.1268 11.5051 11.0765 11.3837C11.0262 11.2623 11.0003 11.1322 11.0003 11.0008C11.0003 10.8694 11.0262 10.7393 11.0765 10.6179C11.1268 10.4965 11.2005 10.3862 11.2934 10.2933C11.3863 10.2004 11.4966 10.1267 11.618 10.0764C11.7394 10.0261 11.8695 10.0003 12.0009 10.0003C12.1323 10.0003 12.2624 10.0261 12.3838 10.0764C12.5052 10.1267 12.6155 10.2004 12.7084 10.2933L15.9997 13.5846L19.2934 10.2933Z" fill="#1C1C1E"/>
</svg>
