<svg width="32" height="32" viewBox="0 0 32 32" fill="none" xmlns="http://www.w3.org/2000/svg">
<path d="M22.9236 21.6173C22.9994 21.8 23.0193 22.0011 22.9808 22.1951C22.9423 22.3891 22.8471 22.5674 22.7073 22.7073L16.7073 28.7073C16.6144 28.8003 16.5041 28.874 16.3828 28.9244C16.2614 28.9747 16.1312 29.0006 15.9998 29.0006C15.8684 29.0006 15.7383 28.9747 15.6169 28.9244C15.4955 28.874 15.3852 28.8003 15.2923 28.7073L9.29231 22.7073C9.1523 22.5675 9.05693 22.3892 9.01828 22.1951C8.97963 22.001 8.99944 21.7998 9.07519 21.617C9.15094 21.4342 9.27924 21.278 9.44383 21.1681C9.60842 21.0582 9.80192 20.9997 9.99981 20.9998H21.9998C22.1976 20.9998 22.3909 21.0585 22.5553 21.1685C22.7198 21.2784 22.8479 21.4346 22.9236 21.6173ZM9.99981 10.9998H21.9998C22.1977 11 22.3912 10.9414 22.5558 10.8315C22.7204 10.7217 22.8487 10.5654 22.9244 10.3826C23.0002 10.1998 23.02 9.99859 22.9813 9.8045C22.9427 9.61042 22.8473 9.43217 22.7073 9.29231L16.7073 3.29231C16.6144 3.19933 16.5041 3.12557 16.3828 3.07525C16.2614 3.02493 16.1312 2.99902 15.9998 2.99902C15.8684 2.99902 15.7383 3.02493 15.6169 3.07525C15.4955 3.12557 15.3852 3.19933 15.2923 3.29231L9.29231 9.29231C9.1523 9.43217 9.05693 9.61042 9.01828 9.8045C8.97963 9.99859 8.99944 10.1998 9.07519 10.3826C9.15094 10.5654 9.27924 10.7217 9.44383 10.8315C9.60842 10.9414 9.80192 11 9.99981 10.9998Z" fill="#1C1C1E"/>
</svg>
