<svg width="32" height="32" viewBox="0 0 32 32" fill="none" xmlns="http://www.w3.org/2000/svg">
<path d="M18.4136 15.9998H25.9998C26.1977 16 26.3912 15.9414 26.5558 15.8315C26.7204 15.7217 26.8487 15.5654 26.9244 15.3826C27.0002 15.1998 27.02 14.9986 26.9813 14.8045C26.9427 14.6104 26.8473 14.4322 26.7073 14.2923L16.7073 4.29231C16.6144 4.19933 16.5041 4.12557 16.3828 4.07525C16.2614 4.02493 16.1312 3.99902 15.9998 3.99902C15.8684 3.99902 15.7383 4.02493 15.6169 4.07525C15.4955 4.12557 15.3852 4.19933 15.2923 4.29231L5.29231 14.2923C5.1523 14.4322 5.05693 14.6104 5.01828 14.8045C4.97963 14.9986 4.99944 15.1998 5.07519 15.3826C5.15094 15.5654 5.27923 15.7217 5.44383 15.8315C5.60842 15.9414 5.80192 16 5.99981 15.9998H13.5861L5.29231 24.2923C5.1523 24.4322 5.05693 24.6104 5.01828 24.8045C4.97963 24.9986 4.99944 25.1998 5.07519 25.3826C5.15094 25.5654 5.27923 25.7217 5.44383 25.8315C5.60842 25.9414 5.80192 26 5.99981 25.9998H25.9998C26.1977 26 26.3912 25.9414 26.5558 25.8315C26.7204 25.7217 26.8487 25.5654 26.9244 25.3826C27.0002 25.1998 27.02 24.9986 26.9813 24.8045C26.9427 24.6104 26.8473 24.4322 26.7073 24.2923L18.4136 15.9998Z" fill="#1C1C1E"/>
</svg>
