<svg width="32" height="32" viewBox="0 0 32 32" fill="none" xmlns="http://www.w3.org/2000/svg">
<path d="M25.1967 6.80215C23.3781 4.98534 21.0617 3.74847 18.5403 3.24789C16.0189 2.74731 13.4057 3.0055 11.031 3.98981C8.65627 4.97412 6.6267 6.64037 5.1988 8.77794C3.77091 10.9155 3.00879 13.4284 3.00879 15.999C3.00879 18.5696 3.77091 21.0826 5.1988 23.2201C6.6267 25.3577 8.65627 27.0239 11.031 28.0082C13.4057 28.9926 16.0189 29.2507 18.5403 28.7502C21.0617 28.2496 23.3781 27.0127 25.1967 25.1959C27.6322 22.7548 29 19.4473 29 15.999C29 12.5507 27.6322 9.24325 25.1967 6.80215ZM14.7067 19.2934C14.7996 19.3863 14.8733 19.4966 14.9236 19.618C14.9739 19.7394 14.9997 19.8695 14.9997 20.0009C14.9997 20.1323 14.9739 20.2624 14.9236 20.3838C14.8733 20.5052 14.7996 20.6155 14.7067 20.7084C14.6138 20.8013 14.5035 20.875 14.3821 20.9253C14.2607 20.9756 14.1306 21.0015 13.9992 21.0015C13.8678 21.0015 13.7377 20.9756 13.6163 20.9253C13.4949 20.875 13.3846 20.8013 13.2917 20.7084L9.29169 16.7084C9.19871 16.6155 9.12495 16.5052 9.07463 16.3838C9.0243 16.2624 8.9984 16.1323 8.9984 16.0009C8.9984 15.8695 9.0243 15.7394 9.07463 15.618C9.12495 15.4966 9.19871 15.3863 9.29169 15.2934L13.2917 11.2934C13.3846 11.2005 13.4949 11.1268 13.6163 11.0765C13.7377 11.0262 13.8678 11.0003 13.9992 11.0003C14.1306 11.0003 14.2607 11.0262 14.3821 11.0765C14.5035 11.1268 14.6138 11.2005 14.7067 11.2934C14.7996 11.3863 14.8733 11.4966 14.9236 11.618C14.9739 11.7394 14.9997 11.8695 14.9997 12.0009C14.9997 12.1323 14.9739 12.2624 14.9236 12.3838C14.8733 12.5052 14.7996 12.6155 14.7067 12.7084L11.4117 15.9997L14.7067 19.2934ZM21.7067 19.2934C21.7996 19.3863 21.8733 19.4966 21.9236 19.618C21.9739 19.7394 21.9997 19.8695 21.9997 20.0009C21.9997 20.1323 21.9739 20.2624 21.9236 20.3838C21.8733 20.5052 21.7996 20.6155 21.7067 20.7084C21.6138 20.8013 21.5035 20.875 21.3821 20.9253C21.2607 20.9756 21.1306 21.0015 20.9992 21.0015C20.8678 21.0015 20.7377 20.9756 20.6163 20.9253C20.4949 20.875 20.3846 20.8013 20.2917 20.7084L16.2917 16.7084C16.1987 16.6155 16.125 16.5052 16.0746 16.3838C16.0243 16.2624 15.9984 16.1323 15.9984 16.0009C15.9984 15.8695 16.0243 15.7394 16.0746 15.618C16.125 15.4966 16.1987 15.3863 16.2917 15.2934L20.2917 11.2934C20.3846 11.2005 20.4949 11.1268 20.6163 11.0765C20.7377 11.0262 20.8678 11.0003 20.9992 11.0003C21.1306 11.0003 21.2607 11.0262 21.3821 11.0765C21.5035 11.1268 21.6138 11.2005 21.7067 11.2934C21.7996 11.3863 21.8733 11.4966 21.9236 11.618C21.9739 11.7394 21.9997 11.8695 21.9997 12.0009C21.9997 12.1323 21.9739 12.2624 21.9236 12.3838C21.8733 12.5052 21.7996 12.6155 21.7067 12.7084L18.4154 15.9997L21.7067 19.2934Z" fill="#1C1C1E"/>
</svg>
