<svg width="32" height="32" viewBox="0 0 32 32" fill="none" xmlns="http://www.w3.org/2000/svg">
<path d="M25.3823 5.07606C25.1996 5.00026 24.9985 4.98035 24.8045 5.01884C24.6105 5.05734 24.4322 5.1525 24.2923 5.29231L15.9998 13.5861V5.99981C16 5.80192 15.9414 5.60842 15.8315 5.44383C15.7217 5.27923 15.5654 5.15094 15.3826 5.07519C15.1998 4.99944 14.9986 4.97963 14.8045 5.01828C14.6104 5.05693 14.4322 5.1523 14.2923 5.29231L4.29231 15.2923C4.19933 15.3852 4.12557 15.4955 4.07525 15.6169C4.02493 15.7383 3.99902 15.8684 3.99902 15.9998C3.99902 16.1312 4.02493 16.2614 4.07525 16.3828C4.12557 16.5041 4.19933 16.6144 4.29231 16.7073L14.2923 26.7073C14.4322 26.8473 14.6104 26.9427 14.8045 26.9813C14.9986 27.02 15.1998 27.0002 15.3826 26.9244C15.5654 26.8487 15.7217 26.7204 15.8315 26.5558C15.9414 26.3912 16 26.1977 15.9998 25.9998V18.4136L24.2923 26.7073C24.4322 26.8473 24.6104 26.9427 24.8045 26.9813C24.9986 27.02 25.1998 27.0002 25.3826 26.9244C25.5654 26.8487 25.7217 26.7204 25.8315 26.5558C25.9414 26.3912 26 26.1977 25.9998 25.9998V5.99981C25.9998 5.80203 25.9411 5.6087 25.8312 5.44428C25.7213 5.27985 25.565 5.15171 25.3823 5.07606Z" fill="#1C1C1E"/>
</svg>
