<svg width="32" height="32" viewBox="0 0 32 32" fill="none" xmlns="http://www.w3.org/2000/svg">
<path d="M25 5.99981V25.9998C25.0002 26.1977 24.9416 26.3912 24.8317 26.5558C24.7218 26.7204 24.5656 26.8487 24.3828 26.9244C24.2 27.0002 23.9988 27.02 23.8047 26.9813C23.6106 26.9427 23.4324 26.8473 23.2925 26.7073L13.2925 16.7073C13.1995 16.6144 13.1258 16.5041 13.0754 16.3828C13.0251 16.2614 12.9992 16.1312 12.9992 15.9998C12.9992 15.8684 13.0251 15.7383 13.0754 15.6169C13.1258 15.4955 13.1995 15.3852 13.2925 15.2923L23.2925 5.29231C23.4324 5.1523 23.6106 5.05693 23.8047 5.01828C23.9988 4.97963 24.2 4.99944 24.3828 5.07519C24.5656 5.15094 24.7218 5.27923 24.8317 5.44383C24.9416 5.60842 25.0002 5.80192 25 5.99981ZM9 4.99981C8.73478 4.99981 8.48043 5.10517 8.29289 5.2927C8.10536 5.48024 8 5.73459 8 5.99981V25.9998C8 26.265 8.10536 26.5194 8.29289 26.7069C8.48043 26.8945 8.73478 26.9998 9 26.9998C9.26522 26.9998 9.51957 26.8945 9.70711 26.7069C9.89464 26.5194 10 26.265 10 25.9998V5.99981C10 5.73459 9.89464 5.48024 9.70711 5.2927C9.51957 5.10517 9.26522 4.99981 9 4.99981Z" fill="#1C1C1E"/>
</svg>
