<svg width="32" height="32" viewBox="0 0 32 32" fill="none" xmlns="http://www.w3.org/2000/svg">
<path d="M5.29231 9.7075C5.1523 9.56765 5.05693 9.38939 5.01828 9.19531C4.97963 9.00122 4.99944 8.80003 5.07519 8.61721C5.15094 8.43439 5.27923 8.27815 5.44383 8.16828C5.60842 8.05841 5.80192 7.99984 5.99981 8H25.9998C26.1977 7.99984 26.3912 8.05841 26.5558 8.16828C26.7204 8.27815 26.8487 8.43439 26.9244 8.61721C27.0002 8.80003 27.02 9.00122 26.9813 9.19531C26.9427 9.38939 26.8473 9.56765 26.7073 9.7075L16.7073 19.7075C16.6144 19.8005 16.5041 19.8742 16.3828 19.9246C16.2614 19.9749 16.1312 20.0008 15.9998 20.0008C15.8684 20.0008 15.7383 19.9749 15.6169 19.9246C15.4955 19.8742 15.3852 19.8005 15.2923 19.7075L5.29231 9.7075ZM25.9998 23H5.99981C5.73459 23 5.48024 23.1054 5.2927 23.2929C5.10517 23.4804 4.99981 23.7348 4.99981 24C4.99981 24.2652 5.10517 24.5196 5.2927 24.7071C5.48024 24.8946 5.73459 25 5.99981 25H25.9998C26.265 25 26.5194 24.8946 26.7069 24.7071C26.8945 24.5196 26.9998 24.2652 26.9998 24C26.9998 23.7348 26.8945 23.4804 26.7069 23.2929C26.5194 23.1054 26.265 23 25.9998 23Z" fill="#1C1C1E"/>
</svg>
