<svg width="32" height="32" viewBox="0 0 32 32" fill="none" xmlns="http://www.w3.org/2000/svg">
<path d="M18.7075 15.2923C18.8005 15.3852 18.8742 15.4955 18.9246 15.6169C18.9749 15.7383 19.0008 15.8684 19.0008 15.9998C19.0008 16.1312 18.9749 16.2614 18.9246 16.3828C18.8742 16.5041 18.8005 16.6144 18.7075 16.7073L8.7075 26.7073C8.56765 26.8473 8.38939 26.9427 8.19531 26.9813C8.00122 27.02 7.80003 27.0002 7.61721 26.9244C7.43439 26.8487 7.27815 26.7204 7.16828 26.5558C7.05841 26.3912 6.99984 26.1977 7 25.9998V5.99981C6.99984 5.80192 7.05841 5.60842 7.16828 5.44383C7.27815 5.27923 7.43439 5.15094 7.61721 5.07519C7.80003 4.99944 8.00122 4.97963 8.19531 5.01828C8.38939 5.05693 8.56765 5.1523 8.7075 5.29231L18.7075 15.2923ZM23 4.99981C22.7348 4.99981 22.4804 5.10517 22.2929 5.2927C22.1054 5.48024 22 5.73459 22 5.99981V25.9998C22 26.265 22.1054 26.5194 22.2929 26.7069C22.4804 26.8945 22.7348 26.9998 23 26.9998C23.2652 26.9998 23.5196 26.8945 23.7071 26.7069C23.8946 26.5194 24 26.265 24 25.9998V5.99981C24 5.73459 23.8946 5.48024 23.7071 5.2927C23.5196 5.10517 23.2652 4.99981 23 4.99981Z" fill="#1C1C1E"/>
</svg>
