<svg width="32" height="32" viewBox="0 0 32 32" fill="none" xmlns="http://www.w3.org/2000/svg">
<path d="M26.7073 23.2925C26.8473 23.4324 26.9427 23.6106 26.9813 23.8047C27.02 23.9988 27.0002 24.2 26.9244 24.3828C26.8487 24.5656 26.7204 24.7218 26.5558 24.8317C26.3912 24.9416 26.1977 25.0002 25.9998 25H5.99981C5.80192 25.0002 5.60842 24.9416 5.44383 24.8317C5.27923 24.7218 5.15094 24.5656 5.07519 24.3828C4.99944 24.2 4.97963 23.9988 5.01828 23.8047C5.05693 23.6106 5.1523 23.4324 5.29231 23.2925L15.2923 13.2925C15.3852 13.1995 15.4955 13.1258 15.6169 13.0754C15.7383 13.0251 15.8684 12.9992 15.9998 12.9992C16.1312 12.9992 16.2614 13.0251 16.3828 13.0754C16.5041 13.1258 16.6144 13.1995 16.7073 13.2925L26.7073 23.2925ZM5.99981 10H25.9998C26.265 10 26.5194 9.89464 26.7069 9.70711C26.8945 9.51957 26.9998 9.26522 26.9998 9C26.9998 8.73478 26.8945 8.48043 26.7069 8.29289C26.5194 8.10536 26.265 8 25.9998 8H5.99981C5.73459 8 5.48024 8.10536 5.2927 8.29289C5.10517 8.48043 4.99981 8.73478 4.99981 9C4.99981 9.26522 5.10517 9.51957 5.2927 9.70711C5.48024 9.89464 5.73459 10 5.99981 10Z" fill="#1C1C1E"/>
</svg>
