<svg width="32" height="32" viewBox="0 0 32 32" fill="none" xmlns="http://www.w3.org/2000/svg">
<path d="M16.8947 10.5521C16.8118 10.3857 16.6841 10.2457 16.526 10.1479C16.3679 10.05 16.1857 9.99821 15.9997 9.99821C15.8138 9.99821 15.6316 10.05 15.4735 10.1479C15.3154 10.2457 15.1877 10.3857 15.1047 10.5521L6.10473 28.5521C5.98605 28.7893 5.96645 29.064 6.05026 29.3156C6.13406 29.5673 6.3144 29.7753 6.55161 29.894C6.78881 30.0127 7.06344 30.0323 7.31509 29.9485C7.56674 29.8647 7.7748 29.6843 7.89348 29.4471L9.62473 25.9996H22.3872L24.111 29.4471C24.1936 29.6123 24.3204 29.7514 24.4773 29.8489C24.6342 29.9465 24.815 29.9986 24.9997 29.9996C25.1702 29.9996 25.3378 29.9559 25.4866 29.8728C25.6354 29.7898 25.7605 29.67 25.8501 29.525C25.9396 29.38 25.9906 29.2145 25.9982 29.0442C26.0058 28.874 25.9698 28.7046 25.8935 28.5521L16.8947 10.5521ZM15.9997 13.2359L19.3822 19.9996H12.6172L15.9997 13.2359ZM19.936 11.7171C20.039 11.1414 20.0144 10.55 19.8641 9.9847C19.7138 9.41942 19.4413 8.894 19.0658 8.44545C18.6904 7.9969 18.2212 7.63615 17.6912 7.38862C17.1612 7.14109 16.5834 7.01281 15.9985 7.01281C15.4136 7.01281 14.8357 7.14109 14.3058 7.38862C13.7758 7.63615 13.3066 7.9969 12.9311 8.44545C12.5557 8.894 12.2832 9.41942 12.1329 9.9847C11.9825 10.55 11.958 11.1414 12.061 11.7171C12.0877 11.8477 12.088 11.9822 12.062 12.1128C12.0359 12.2435 11.9841 12.3676 11.9094 12.478C11.8347 12.5883 11.7388 12.6826 11.6271 12.7553C11.5155 12.828 11.3905 12.8777 11.2594 12.9014C11.1283 12.9252 10.9938 12.9225 10.8638 12.8935C10.7338 12.8645 10.6108 12.8099 10.5022 12.7327C10.3936 12.6556 10.3015 12.5575 10.2313 12.4443C10.1611 12.3311 10.1143 12.205 10.0935 12.0734C9.93674 11.2089 9.97177 10.3205 10.1961 9.47108C10.4204 8.62161 10.8286 7.83178 11.3917 7.15738C11.9548 6.48299 12.6591 5.94049 13.455 5.56822C14.2508 5.19595 15.1186 5.00301 15.9972 5.00301C16.8758 5.00301 17.7437 5.19595 18.5395 5.56822C19.3353 5.94049 20.0397 6.48299 20.6028 7.15738C21.1659 7.83178 21.574 8.62161 21.7984 9.47108C22.0227 10.3205 22.0577 11.2089 21.901 12.0734C21.8594 12.3038 21.7383 12.5124 21.5588 12.6627C21.3792 12.813 21.1526 12.8955 20.9185 12.8959C20.8586 12.8954 20.7988 12.89 20.7397 12.8796C20.4791 12.8319 20.248 12.6827 20.0973 12.4647C19.9466 12.2467 19.8886 11.9779 19.936 11.7171ZM8.01848 17.0259C6.89799 15.5416 6.21361 13.7742 6.04227 11.9223C5.87092 10.0705 6.21938 8.20751 7.0485 6.54279C7.87762 4.87807 9.15454 3.47754 10.7358 2.49857C12.317 1.5196 14.14 1.00098 15.9997 1.00098C17.8595 1.00098 19.6824 1.5196 21.2637 2.49857C22.8449 3.47754 24.1218 4.87807 24.951 6.54279C25.7801 8.20751 26.1285 10.0705 25.9572 11.9223C25.7858 13.7742 25.1015 15.5416 23.981 17.0259C23.8194 17.2329 23.5829 17.368 23.3226 17.4021C23.0622 17.4362 22.7989 17.3665 22.5895 17.2082C22.3801 17.0498 22.2414 16.8154 22.2033 16.5556C22.1652 16.2958 22.2308 16.0315 22.386 15.8196C23.282 14.6321 23.8291 13.2182 23.9658 11.7369C24.1026 10.2556 23.8236 8.76542 23.1603 7.43389C22.4969 6.10236 21.4753 4.98217 20.2104 4.19917C18.9455 3.41617 17.4874 3.00137 15.9997 3.00137C14.5121 3.00137 13.0539 3.41617 11.789 4.19917C10.5241 4.98217 9.5026 6.10236 8.83921 7.43389C8.17582 8.76542 7.89684 10.2556 8.03361 11.7369C8.17039 13.2182 8.7175 14.6321 9.61348 15.8196C9.76864 16.0315 9.83426 16.2958 9.79618 16.5556C9.7581 16.8154 9.61937 17.0498 9.40995 17.2082C9.20053 17.3665 8.93722 17.4362 8.67687 17.4021C8.41653 17.368 8.18005 17.2329 8.01848 17.0259Z" fill="#1C1C1E"/>
</svg>
