<svg width="32" height="32" viewBox="0 0 32 32" fill="none" xmlns="http://www.w3.org/2000/svg">
<path d="M26.6725 27.7401C26.4762 27.9185 26.2171 28.0115 25.9522 27.9989C25.6874 27.9862 25.4383 27.8689 25.26 27.6726L24.5712 26.9151C24.3859 26.9707 24.1935 26.9994 24 27.0001H3.99997C3.58807 27.0002 3.18619 26.8731 2.84925 26.6361C2.51231 26.3992 2.25675 26.064 2.11747 25.6764C1.99326 25.3102 1.97511 24.9164 2.06513 24.5404C2.15515 24.1644 2.34966 23.8215 2.62622 23.5514L12.5175 13.6614L5.28247 5.70261C5.10131 5.50904 5.00197 5.25294 5.00523 4.98784C5.00849 4.72274 5.1141 4.46916 5.29997 4.28011C5.39624 4.18704 5.51022 4.11425 5.63515 4.06605C5.76009 4.01786 5.89342 3.99525 6.02726 3.99957C6.16109 4.00388 6.2927 4.03503 6.41427 4.09116C6.53584 4.1473 6.6449 4.22728 6.73497 4.32636L26.735 26.3264C26.8238 26.4233 26.8926 26.5367 26.9375 26.6602C26.9825 26.7837 27.0026 26.9149 26.9968 27.0462C26.991 27.1775 26.9594 27.3064 26.9037 27.4254C26.8481 27.5445 26.7695 27.6514 26.6725 27.7401ZM25.125 21.5826C25.1925 21.6591 25.2817 21.7132 25.3808 21.7375C25.4799 21.7618 25.5841 21.7553 25.6794 21.7187C25.7746 21.682 25.8564 21.6172 25.9137 21.5328C25.971 21.4483 26.0011 21.3484 26 21.2464V5.00011C26.0003 4.60432 25.8832 4.21733 25.6634 3.88815C25.4437 3.55896 25.1312 3.30237 24.7656 3.15087C24.3999 2.99936 23.9975 2.95975 23.6094 3.03705C23.2212 3.11435 22.8647 3.30509 22.585 3.58511L15.6837 10.4851C15.5929 10.576 15.5405 10.6984 15.5374 10.8269C15.5344 10.9553 15.581 11.08 15.6675 11.1751L25.125 21.5826Z" fill="#1C1C1E"/>
</svg>
