<svg width="32" height="32" viewBox="0 0 32 32" fill="none" xmlns="http://www.w3.org/2000/svg">
<path d="M24.7653 3.15365C24.3999 3.00205 23.9978 2.96223 23.6097 3.03921C23.2217 3.1162 22.8652 3.30653 22.5853 3.58615L2.58532 23.5861C2.30573 23.8659 2.11537 24.2223 2.03832 24.6103C1.96126 24.9982 2.00098 25.4003 2.15243 25.7657C2.30388 26.1311 2.56028 26.4434 2.8892 26.6631C3.21812 26.8827 3.60479 27 4.00032 26.9999H24.0003C24.5308 26.9999 25.0395 26.7892 25.4145 26.4141C25.7896 26.039 26.0003 25.5303 26.0003 24.9999V4.9999C26.001 4.60433 25.8839 4.21751 25.664 3.88871C25.444 3.55992 25.1312 3.30403 24.7653 3.15365ZM24.0003 24.9999H4.00032L24.0003 4.9999V24.9999Z" fill="#1C1C1E"/>
</svg>
