<svg width="32" height="32" viewBox="0 0 32 32" fill="none" xmlns="http://www.w3.org/2000/svg">
<path d="M26.707 24.2925C26.7999 24.3854 26.8736 24.4957 26.9239 24.6171C26.9742 24.7385 27.0001 24.8686 27.0001 25C27.0001 25.1314 26.9742 25.2615 26.9239 25.3829C26.8736 25.5043 26.7999 25.6146 26.707 25.7075C26.6141 25.8004 26.5038 25.8741 26.3824 25.9244C26.261 25.9747 26.1309 26.0006 25.9995 26.0006C25.8681 26.0006 25.738 25.9747 25.6166 25.9244C25.4952 25.8741 25.3849 25.8004 25.292 25.7075L22.9995 23.4138L20.707 25.7075C20.5194 25.8952 20.2649 26.0006 19.9995 26.0006C19.7342 26.0006 19.4797 25.8952 19.292 25.7075C19.1044 25.5199 18.999 25.2654 18.999 25C18.999 24.7347 19.1044 24.4802 19.292 24.2925L21.5858 22L19.292 19.7075C19.1044 19.5199 18.999 19.2654 18.999 19C18.999 18.7347 19.1044 18.4802 19.292 18.2925C19.4797 18.1049 19.7342 17.9995 19.9995 17.9995C20.2649 17.9995 20.5194 18.1049 20.707 18.2925L22.9995 20.5863L25.292 18.2925C25.4797 18.1049 25.7342 17.9995 25.9995 17.9995C26.2649 17.9995 26.5194 18.1049 26.707 18.2925C26.8947 18.4802 27.0001 18.7347 27.0001 19C27.0001 19.2654 26.8947 19.5199 26.707 19.7075L24.4133 22L26.707 24.2925ZM19.6758 15.0125C20.2164 14.9688 20.7602 15.0355 21.2742 15.2084C21.7882 15.3814 22.2617 15.6571 22.6658 16.0188C22.7575 16.101 22.8764 16.1465 22.9995 16.1465C23.1227 16.1465 23.2416 16.101 23.3333 16.0188C23.9512 15.4618 24.7279 15.1121 25.5545 15.0188C25.6774 15.0052 25.7909 14.9466 25.873 14.8542C25.9552 14.7619 26.0003 14.6424 25.9995 14.5188V5.05754C26.0042 4.66981 25.8989 4.2887 25.6958 3.95839C25.4927 3.62808 25.2001 3.3621 24.852 3.19129C24.4794 3.01557 24.0616 2.95922 23.6558 3.02992C23.2499 3.10062 22.8758 3.29493 22.5845 3.58629L2.58454 23.5863C2.29324 23.8773 2.09886 24.2511 2.02794 24.6567C1.95702 25.0623 2.01302 25.4799 2.18829 25.8525C2.35916 26.2011 2.6255 26.494 2.95633 26.6972C3.28715 26.9003 3.66886 27.0053 4.05704 27H15.757C15.8366 27 15.915 26.9809 15.9858 26.9445C16.0565 26.908 16.1175 26.8552 16.1638 26.7904C16.21 26.7256 16.24 26.6507 16.2515 26.5719C16.2629 26.4932 16.2554 26.4128 16.2295 26.3375C15.9903 25.6613 15.9373 24.9332 16.076 24.2295C16.2148 23.5258 16.5403 22.8723 17.0183 22.3375C17.1005 22.2458 17.146 22.127 17.146 22.0038C17.146 21.8806 17.1005 21.7618 17.0183 21.67C16.5218 21.115 16.1901 20.4325 16.0606 19.6992C15.931 18.9659 16.0087 18.211 16.2849 17.5195C16.561 16.828 17.0248 16.2273 17.6239 15.7851C18.223 15.3428 18.9336 15.0766 19.6758 15.0163V15.0125Z" fill="#1C1C1E"/>
</svg>
