<svg width="32" height="32" viewBox="0 0 32 32" fill="none" xmlns="http://www.w3.org/2000/svg">
<path d="M14.9997 24.9422V28.4097C15.0002 28.4805 14.9856 28.5506 14.9569 28.6153C14.9283 28.68 14.8862 28.738 14.8335 28.7852C14.7808 28.8325 14.7187 28.868 14.6512 28.8895C14.5838 28.9109 14.5125 28.9178 14.4422 28.9097C11.5547 28.5566 8.86849 27.2473 6.81154 25.1903C4.75458 23.1334 3.44526 20.4472 3.09219 17.5597C3.08404 17.4894 3.09093 17.4181 3.11238 17.3506C3.13384 17.2832 3.16937 17.221 3.21664 17.1683C3.26391 17.1156 3.32183 17.0736 3.38657 17.0449C3.45131 17.0163 3.52139 17.0017 3.59219 17.0022H7.05719C7.28725 19.0291 8.19806 20.9181 9.64075 22.3603C11.0834 23.8025 12.9727 24.7128 14.9997 24.9422ZM22.9272 16.9997H16.9997V22.9272C18.4942 22.7091 19.8784 22.0144 20.9464 20.9464C22.0144 19.8784 22.7091 18.4942 22.9272 16.9997ZM16.9997 9.07219V14.9997H22.9272C22.7091 13.5052 22.0144 12.1209 20.9464 11.053C19.8784 9.98498 18.4942 9.29027 16.9997 9.07219ZM28.4097 16.9997H24.9422C24.7127 19.0271 23.8021 20.9166 22.3593 22.3593C20.9166 23.8021 19.0271 24.7127 16.9997 24.9422V28.4097C16.9992 28.4805 17.0138 28.5506 17.0424 28.6153C17.0711 28.68 17.1131 28.738 17.1658 28.7852C17.2185 28.8325 17.2807 28.868 17.3481 28.8895C17.4156 28.9109 17.4869 28.9178 17.5572 28.9097C20.4447 28.5566 23.1309 27.2473 25.1878 25.1903C27.2448 23.1334 28.5541 20.4472 28.9072 17.5597C28.9157 17.4894 28.9091 17.4181 28.888 17.3505C28.8669 17.2829 28.8316 17.2206 28.7846 17.1676C28.7376 17.1147 28.6798 17.0723 28.6152 17.0434C28.5505 17.0144 28.4805 16.9995 28.4097 16.9997ZM24.9422 14.9997H28.4097C28.4805 15.0002 28.5506 14.9856 28.6153 14.9569C28.68 14.9283 28.738 14.8862 28.7852 14.8335C28.8325 14.7808 28.868 14.7187 28.8895 14.6512C28.9109 14.5838 28.9178 14.5125 28.9097 14.4422C28.5566 11.5547 27.2473 8.86849 25.1903 6.81154C23.1334 4.75458 20.4472 3.44526 17.5597 3.09219C17.4894 3.08404 17.4181 3.09093 17.3506 3.11238C17.2832 3.13384 17.221 3.16937 17.1683 3.21664C17.1156 3.26391 17.0736 3.32183 17.0449 3.38657C17.0163 3.45131 17.0017 3.52139 17.0022 3.59219V7.05719C19.0291 7.28725 20.9181 8.19806 22.3603 9.64075C23.8025 11.0834 24.7128 12.9727 24.9422 14.9997ZM14.4422 3.09219C11.5547 3.44526 8.86849 4.75458 6.81154 6.81154C4.75458 8.86849 3.44526 11.5547 3.09219 14.4422C3.08404 14.5125 3.09093 14.5838 3.11238 14.6512C3.13384 14.7187 3.16937 14.7808 3.21664 14.8335C3.26391 14.8862 3.32183 14.9283 3.38657 14.9569C3.45131 14.9856 3.52139 15.0002 3.59219 14.9997H7.05719C7.28672 12.9723 8.1973 11.0828 9.64003 9.64003C11.0828 8.1973 12.9723 7.28672 14.9997 7.05719V3.58969C14.9998 3.5191 14.985 3.4493 14.9562 3.38486C14.9274 3.32042 14.8853 3.26281 14.8326 3.21581C14.7799 3.16882 14.7179 3.1335 14.6506 3.1122C14.5833 3.09089 14.5123 3.08407 14.4422 3.09219ZM9.07219 14.9997H14.9997V9.07219C13.5052 9.29027 12.1209 9.98498 11.053 11.053C9.98498 12.1209 9.29027 13.5052 9.07219 14.9997ZM14.9997 22.9272V16.9997H9.07219C9.29027 18.4942 9.98498 19.8784 11.053 20.9464C12.1209 22.0144 13.5052 22.7091 14.9997 22.9272Z" fill="#1C1C1E"/>
</svg>
