<svg width="32" height="32" viewBox="0 0 32 32" fill="none" xmlns="http://www.w3.org/2000/svg">
<path d="M26.74 26.3277C26.8302 26.4245 26.9002 26.5383 26.9461 26.6625C26.9919 26.7866 27.0127 26.9186 27.0072 27.0508C27.0017 27.183 26.97 27.3128 26.9139 27.4327C26.8578 27.5526 26.7785 27.6601 26.6806 27.7491C26.5827 27.8381 26.4681 27.9068 26.3434 27.9512C26.2187 27.9955 26.0865 28.0147 25.9543 28.0076C25.8222 28.0005 25.6928 27.9672 25.5736 27.9097C25.4544 27.8523 25.3478 27.7717 25.26 27.6727L23.5638 25.8077C21.4863 27.2386 19.0226 28.0033 16.5 28.0002H6.00001C5.46957 28.0002 4.96086 27.7895 4.58579 27.4144C4.21072 27.0393 4.00001 26.5306 4.00001 26.0002V15.5002C3.99723 12.5707 5.02816 9.73422 6.91126 7.49018L5.26001 5.67268C5.16998 5.57363 5.10075 5.45751 5.05643 5.3312C5.01211 5.2049 4.9936 5.07098 5.00199 4.93739C5.01039 4.8038 5.04551 4.67326 5.10529 4.55349C5.16507 4.43373 5.24829 4.32719 5.35001 4.24018C5.55597 4.0733 5.81846 3.99248 6.08263 4.01461C6.34679 4.03674 6.59218 4.16011 6.76751 4.35893L26.74 26.3277ZM26.0438 22.5889C26.0942 22.6445 26.1566 22.688 26.2262 22.7162C26.2958 22.7443 26.3709 22.7565 26.4458 22.7517C26.5207 22.7469 26.5936 22.7252 26.659 22.6884C26.7245 22.6516 26.7808 22.6005 26.8238 22.5389C28.4021 20.2175 29.1531 17.4323 28.9558 14.632C28.7584 11.8318 27.6243 9.17947 25.7359 7.10232C23.8476 5.02517 21.315 3.6441 18.5462 3.18159C15.7774 2.71908 12.9334 3.20204 10.4725 4.55268C10.4069 4.5895 10.3505 4.64065 10.3074 4.70231C10.2643 4.76396 10.2357 4.83454 10.2237 4.90879C10.2117 4.98303 10.2166 5.05903 10.238 5.13113C10.2595 5.20322 10.2969 5.26955 10.3475 5.32518L26.0438 22.5889Z" fill="#1C1C1E"/>
</svg>
