<svg width="32" height="32" viewBox="0 0 32 32" fill="none" xmlns="http://www.w3.org/2000/svg">
<path d="M29 15.9996C29.0005 18.244 28.4199 20.4503 27.3147 22.4037C26.2095 24.3572 24.6174 25.9912 22.6934 27.1468C20.7693 28.3024 18.5788 28.9402 16.3352 28.9981C14.0915 29.0559 11.8711 28.5319 9.89 27.4771L5.63375 28.8958C5.28136 29.0133 4.9032 29.0304 4.54166 28.9451C4.18012 28.8597 3.84948 28.6754 3.58681 28.4127C3.32414 28.1501 3.13982 27.8194 3.0545 27.4579C2.96918 27.0964 2.98623 26.7182 3.10375 26.3658L4.5225 22.1096C3.59519 20.3661 3.07725 18.4343 3.008 16.4608C2.93875 14.4872 3.32001 12.5239 4.12284 10.7197C4.92567 8.91555 6.12897 7.31798 7.6414 6.04829C9.15383 4.7786 10.9356 3.87015 12.8516 3.39189C14.7675 2.91364 16.7672 2.87816 18.699 3.28814C20.6307 3.69811 22.4436 4.54278 24.0001 5.75801C25.5566 6.97325 26.8158 8.52712 27.6822 10.3017C28.5485 12.0762 28.9992 14.0248 29 15.9996Z" fill="#1C1C1E"/>
</svg>
