<svg width="32" height="32" viewBox="0 0 32 32" fill="none" xmlns="http://www.w3.org/2000/svg">
<path d="M26.7412 26.7424L24.535 27.3336L23.2325 22.4724C24.2627 21.9565 25.0835 21.1011 25.5565 20.0504C26.0294 18.9998 26.1256 17.8182 25.8288 16.7049C24.2537 10.8299 20.9813 5.67738 20.8425 5.46113C20.7296 5.28466 20.5641 5.1481 20.3695 5.07072C20.1748 4.99334 19.9607 4.97906 19.7575 5.02988L17.025 5.71363C17.025 4.68238 17.0025 4.03488 16.9988 3.95363C16.9888 3.73881 16.9098 3.53293 16.7736 3.36652C16.6374 3.20012 16.4511 3.08207 16.2425 3.02988L12.2425 2.02988C12.0393 1.97906 11.8252 1.99334 11.6305 2.07072C11.4359 2.1481 11.2704 2.28466 11.1575 2.46113C11.0188 2.67738 7.74625 7.82738 6.17125 13.7111C5.87442 14.8244 5.97059 16.006 6.44353 17.0567C6.91648 18.1073 7.73728 18.9627 8.7675 19.4786L7.465 24.3336L5.25875 23.7424C5.00248 23.6738 4.72945 23.7097 4.49972 23.8424C4.26999 23.9751 4.10237 24.1936 4.03375 24.4499C3.96513 24.7062 4.00111 24.9792 4.13379 25.2089C4.26648 25.4386 4.48498 25.6063 4.74125 25.6749L10.7413 27.2824C10.8257 27.3046 10.9127 27.3159 11 27.3161C11.2428 27.3164 11.4774 27.2283 11.6601 27.0683C11.8427 26.9083 11.9609 26.6873 11.9926 26.4466C12.0243 26.2059 11.9673 25.9618 11.8323 25.76C11.6972 25.5582 11.4934 25.4124 11.2587 25.3499L9.39625 24.8499L10.6987 19.9886C10.8 19.9949 10.9 19.9986 11 19.9986C11.9921 19.9958 12.961 19.6989 13.7843 19.1453C14.6076 18.5917 15.2482 17.8064 15.625 16.8886C15.7725 17.6849 15.95 18.4911 16.1637 19.2911C16.4499 20.3551 17.0788 21.295 17.9531 21.9655C18.8273 22.6359 19.8982 22.9995 21 22.9999C21.1 22.9999 21.2 22.9999 21.3013 22.9899L22.6038 27.8511L20.7412 28.3511C20.5077 28.4146 20.3051 28.5606 20.171 28.762C20.0369 28.9635 19.9804 29.2068 20.012 29.4467C20.0436 29.6866 20.1612 29.907 20.3428 30.0668C20.5245 30.2267 20.758 30.3153 21 30.3161C21.0873 30.3159 21.1743 30.3046 21.2588 30.2824L27.2588 28.6749C27.515 28.6063 27.7335 28.4386 27.8662 28.2089C27.9989 27.9792 28.0349 27.7062 27.9662 27.4499C27.8976 27.1936 27.73 26.9751 27.5003 26.8424C27.2705 26.7097 26.9975 26.6738 26.7412 26.7424ZM19.5275 7.14863C19.875 7.73613 20.4312 8.71613 21.0525 9.95613L17 10.9711C16.9475 9.72113 16.9525 8.68988 16.9688 7.99738C16.9688 7.92738 16.975 7.85738 16.9788 7.78738L19.5275 7.14863ZM12.4725 4.14863L15.0188 4.78488C15.0262 5.31988 15.0188 6.11863 14.9925 7.09363C14.985 7.24488 14.9725 7.49238 14.9637 7.82363C14.9637 7.94863 14.9513 8.07363 14.9438 8.19863L10.8363 7.17863C11.5 5.83363 12.105 4.76988 12.4725 4.14863ZM23.105 5.44738C23.0461 5.32987 23.011 5.2019 23.0017 5.07081C22.9923 4.93971 23.0089 4.80805 23.0505 4.68337C23.092 4.55868 23.1578 4.44341 23.2439 4.34415C23.33 4.24489 23.4349 4.16358 23.5525 4.10488L25.5525 3.10488C25.67 3.04612 25.798 3.01108 25.9291 3.00176C26.0601 2.99244 26.1918 3.00904 26.3164 3.05059C26.4411 3.09215 26.5563 3.15785 26.6556 3.24395C26.7549 3.33004 26.8362 3.43485 26.895 3.55238C26.9538 3.66992 26.9888 3.79787 26.9981 3.92895C27.0074 4.06002 26.9908 4.19165 26.9493 4.31631C26.9077 4.44098 26.842 4.55623 26.7559 4.6555C26.6698 4.75478 26.565 4.83612 26.4475 4.89488L24.4475 5.89488C24.33 5.95374 24.202 5.98885 24.0709 5.9982C23.9398 6.00756 23.8082 5.99099 23.6835 5.94943C23.5588 5.90786 23.4435 5.84213 23.3443 5.75599C23.245 5.66984 23.1637 5.56498 23.105 5.44738ZM29 8.99988C29 9.2651 28.8946 9.51945 28.7071 9.70699C28.5196 9.89453 28.2652 9.99988 28 9.99988H26C25.7348 9.99988 25.4804 9.89453 25.2929 9.70699C25.1054 9.51945 25 9.2651 25 8.99988C25 8.73467 25.1054 8.48031 25.2929 8.29278C25.4804 8.10524 25.7348 7.99988 26 7.99988H28C28.2652 7.99988 28.5196 8.10524 28.7071 8.29278C28.8946 8.48031 29 8.73467 29 8.99988ZM4.105 2.55238C4.1637 2.43479 4.24501 2.32992 4.34427 2.24378C4.44353 2.15763 4.5588 2.0919 4.68349 2.05034C4.80817 2.00878 4.93983 1.9922 5.07092 2.00156C5.20202 2.01092 5.32998 2.04603 5.4475 2.10488L7.4475 3.10488C7.56503 3.16365 7.66984 3.24499 7.75594 3.34426C7.84203 3.44353 7.90774 3.55879 7.94929 3.68345C7.99085 3.80812 8.00744 3.93974 7.99812 4.07082C7.98881 4.20189 7.95377 4.32985 7.895 4.44738C7.83623 4.56492 7.75489 4.66972 7.65562 4.75582C7.55635 4.84192 7.44109 4.90762 7.31643 4.94917C7.06466 5.0331 6.78987 5.01357 6.5525 4.89488L4.5525 3.89488C4.43491 3.83618 4.33004 3.75487 4.2439 3.65561C4.15775 3.55635 4.09202 3.44108 4.05046 3.3164C4.0089 3.19171 3.99232 3.06006 4.00168 2.92896C4.01104 2.79786 4.04615 2.6699 4.105 2.55238ZM5 8.99988H3C2.73478 8.99988 2.48043 8.89453 2.29289 8.70699C2.10536 8.51945 2 8.2651 2 7.99988C2 7.73467 2.10536 7.48031 2.29289 7.29278C2.48043 7.10524 2.73478 6.99988 3 6.99988H5C5.26522 6.99988 5.51957 7.10524 5.70711 7.29278C5.89464 7.48031 6 7.73467 6 7.99988C6 8.2651 5.89464 8.51945 5.70711 8.70699C5.51957 8.89453 5.26522 8.99988 5 8.99988Z" fill="#1C1C1E"/>
</svg>
