<svg width="32" height="32" viewBox="0 0 32 32" fill="none" xmlns="http://www.w3.org/2000/svg">
<path d="M30.0003 13.9996C29.9983 12.1437 29.2601 10.3643 27.9478 9.05201C26.6355 7.73968 24.8562 7.00155 23.0003 6.99956C22.779 6.99956 22.5578 7.01206 22.339 7.03206C21.7746 5.82741 20.8786 4.80854 19.756 4.09479C18.6334 3.38103 17.3306 3.00195 16.0003 3.00195C14.6699 3.00195 13.3672 3.38103 12.2446 4.09479C11.1219 4.80854 10.2259 5.82741 9.66151 7.03206C9.44276 7.01206 9.22151 6.99956 9.00026 6.99956C7.41124 6.99995 5.86963 7.54096 4.62885 8.53367C3.38808 9.52638 2.52198 10.9117 2.17293 12.4619C1.82388 14.0121 2.01265 15.635 2.70822 17.0637C3.40379 18.4924 4.56475 19.6419 6.00026 20.3233V25.9996C6.00026 26.53 6.21098 27.0387 6.58605 27.4138C6.96112 27.7888 7.46983 27.9996 8.00026 27.9996H24.0003C24.5307 27.9996 25.0394 27.7888 25.4145 27.4138C25.7895 27.0387 26.0003 26.53 26.0003 25.9996V20.3233C27.1961 19.7546 28.2065 18.8588 28.9144 17.7397C29.6223 16.6205 29.9988 15.3238 30.0003 13.9996ZM19.0303 17.7571L20.0303 13.7571C20.0982 13.5038 20.263 13.2873 20.489 13.1543C20.715 13.0213 20.9842 12.9824 21.2386 13.046C21.4931 13.1097 21.7123 13.2707 21.8492 13.4944C21.986 13.7181 22.0295 13.9866 21.9703 14.2421L20.9703 18.2421C20.9162 18.4584 20.7914 18.6505 20.6156 18.7877C20.4398 18.925 20.2233 18.9995 20.0003 18.9996C19.9181 18.9995 19.8363 18.9894 19.7565 18.9696C19.4995 18.9049 19.2787 18.7409 19.1425 18.5136C19.0063 18.2863 18.966 18.0141 19.0303 17.7571ZM15.0003 13.9996C15.0003 13.7343 15.1056 13.48 15.2932 13.2925C15.4807 13.1049 15.735 12.9996 16.0003 12.9996C16.2655 12.9996 16.5198 13.1049 16.7074 13.2925C16.8949 13.48 17.0003 13.7343 17.0003 13.9996V17.9996C17.0003 18.2648 16.8949 18.5191 16.7074 18.7067C16.5198 18.8942 16.2655 18.9996 16.0003 18.9996C15.735 18.9996 15.4807 18.8942 15.2932 18.7067C15.1056 18.5191 15.0003 18.2648 15.0003 17.9996V13.9996ZM10.7578 13.0296C11.015 12.9653 11.2873 13.0058 11.5147 13.1422C11.742 13.2787 11.9059 13.4998 11.9703 13.7571L12.9703 17.7571C13.0345 18.0143 12.994 18.2866 12.8576 18.514C12.7212 18.7413 12.5 18.9052 12.2428 18.9696C12.161 18.9899 12.077 19 11.9928 18.9996C11.77 18.9993 11.5537 18.9246 11.3782 18.7873C11.2027 18.6501 11.078 18.4582 11.024 18.2421L10.024 14.2421C9.99229 14.1143 9.98611 13.9815 10.0058 13.8513C10.0256 13.7211 10.0708 13.596 10.139 13.4834C10.2072 13.3707 10.2969 13.2726 10.4031 13.1948C10.5093 13.1169 10.6298 13.0607 10.7578 13.0296ZM24.0003 25.9996H8.00026V20.9271C8.33141 20.9753 8.66562 20.9996 9.00026 20.9996H23.0003C23.3349 20.9996 23.6691 20.9753 24.0003 20.9271V25.9996Z" fill="#1C1C1E"/>
</svg>
