<svg width="32" height="32" viewBox="0 0 32 32" fill="none" xmlns="http://www.w3.org/2000/svg">
<path d="M25 4.00006H20.4675C19.9056 3.37097 19.2172 2.86763 18.4473 2.52301C17.6775 2.17839 16.8435 2.00024 16 2.00024C15.1565 2.00024 14.3225 2.17839 13.5527 2.52301C12.7828 2.86763 12.0944 3.37097 11.5325 4.00006H7C6.46957 4.00006 5.96086 4.21078 5.58579 4.58585C5.21071 4.96092 5 5.46963 5 6.00006V27.0001C5 27.5305 5.21071 28.0392 5.58579 28.4143C5.96086 28.7893 6.46957 29.0001 7 29.0001H25C25.5304 29.0001 26.0391 28.7893 26.4142 28.4143C26.7893 28.0392 27 27.5305 27 27.0001V6.00006C27 5.46963 26.7893 4.96092 26.4142 4.58585C26.0391 4.21078 25.5304 4.00006 25 4.00006ZM16 4.00006C17.0609 4.00006 18.0783 4.42149 18.8284 5.17164C19.5786 5.92178 20 6.9392 20 8.00006H12C12 6.9392 12.4214 5.92178 13.1716 5.17164C13.9217 4.42149 14.9391 4.00006 16 4.00006ZM20 20.0001H12C11.7348 20.0001 11.4804 19.8947 11.2929 19.7072C11.1054 19.5196 11 19.2653 11 19.0001C11 18.7348 11.1054 18.4805 11.2929 18.293C11.4804 18.1054 11.7348 18.0001 12 18.0001H20C20.2652 18.0001 20.5196 18.1054 20.7071 18.293C20.8946 18.4805 21 18.7348 21 19.0001C21 19.2653 20.8946 19.5196 20.7071 19.7072C20.5196 19.8947 20.2652 20.0001 20 20.0001ZM20 16.0001H12C11.7348 16.0001 11.4804 15.8947 11.2929 15.7072C11.1054 15.5196 11 15.2653 11 15.0001C11 14.7348 11.1054 14.4805 11.2929 14.293C11.4804 14.1054 11.7348 14.0001 12 14.0001H20C20.2652 14.0001 20.5196 14.1054 20.7071 14.293C20.8946 14.4805 21 14.7348 21 15.0001C21 15.2653 20.8946 15.5196 20.7071 15.7072C20.5196 15.8947 20.2652 16.0001 20 16.0001Z" fill="#1C1C1E"/>
</svg>
