<svg width="32" height="32" viewBox="0 0 32 32" fill="none" xmlns="http://www.w3.org/2000/svg">
<path d="M25 4.00006H20.4675C19.9056 3.37097 19.2172 2.86763 18.4473 2.52301C17.6775 2.17839 16.8435 2.00024 16 2.00024C15.1565 2.00024 14.3225 2.17839 13.5527 2.52301C12.7828 2.86763 12.0944 3.37097 11.5325 4.00006H7C6.46957 4.00006 5.96086 4.21078 5.58579 4.58585C5.21071 4.96092 5 5.46963 5 6.00006V27.0001C5 27.5305 5.21071 28.0392 5.58579 28.4143C5.96086 28.7893 6.46957 29.0001 7 29.0001H25C25.5304 29.0001 26.0391 28.7893 26.4142 28.4143C26.7893 28.0392 27 27.5305 27 27.0001V6.00006C27 5.46963 26.7893 4.96092 26.4142 4.58585C26.0391 4.21078 25.5304 4.00006 25 4.00006ZM16 4.00006C17.0609 4.00006 18.0783 4.42149 18.8284 5.17164C19.5786 5.92178 20 6.9392 20 8.00006H12C12 6.9392 12.4214 5.92178 13.1716 5.17164C13.9217 4.42149 14.9391 4.00006 16 4.00006Z" fill="#1C1C1E"/>
</svg>
