<svg width="32" height="32" viewBox="0 0 32 32" fill="none" xmlns="http://www.w3.org/2000/svg">
<path d="M28.9997 17.083C28.7872 19.5529 27.8738 21.9108 26.3668 23.8793C24.8597 25.8477 22.8219 27.3448 20.4929 28.1944C18.1639 29.044 15.6408 29.2108 13.2203 28.6751C10.7997 28.1394 8.58257 26.9236 6.82959 25.1706C5.07661 23.4176 3.86075 21.2004 3.32506 18.7799C2.78937 16.3594 2.95614 13.8362 3.80574 11.5073C4.65534 9.1783 6.15243 7.14043 8.12087 5.63341C10.0893 4.1264 12.4472 3.21292 14.9172 3.00047C15.0485 2.98963 15.1807 3.00477 15.3062 3.04502C15.4316 3.08526 15.5479 3.14983 15.6485 3.23502C15.749 3.32022 15.8317 3.42438 15.892 3.54156C15.9523 3.65874 15.9889 3.78665 15.9997 3.91797C16.0105 4.04929 15.9954 4.18146 15.9551 4.30693C15.9149 4.4324 15.8503 4.54872 15.7651 4.64924C15.6799 4.74976 15.5758 4.83251 15.4586 4.89278C15.3414 4.95304 15.2135 4.98963 15.0822 5.00047C12.9917 5.18008 10.996 5.95305 9.32983 7.22842C7.66372 8.50379 6.39652 10.2285 5.67735 12.1996C4.95819 14.1707 4.81696 16.3063 5.2703 18.3549C5.72364 20.4036 6.75269 22.2801 8.23635 23.7638C9.72002 25.2475 11.5966 26.2765 13.6452 26.7299C15.6939 27.1832 17.8294 27.042 19.8005 26.3228C21.7717 25.6036 23.4964 24.3365 24.7717 22.6703C26.0471 21.0042 26.8201 19.0085 26.9997 16.918C27.0216 16.6528 27.1479 16.4071 27.3509 16.235C27.5539 16.063 27.817 15.9786 28.0822 16.0005C28.3474 16.0223 28.5931 16.1487 28.7651 16.3517C28.9372 16.5547 29.0216 16.8178 28.9997 17.083ZM19.9997 6.00047C20.2964 6.00047 20.5864 5.91249 20.8331 5.74767C21.0797 5.58285 21.272 5.34858 21.3855 5.07449C21.499 4.8004 21.5288 4.4988 21.4709 4.20783C21.413 3.91686 21.2701 3.64959 21.0604 3.43981C20.8506 3.23003 20.5833 3.08717 20.2923 3.02929C20.0014 2.97141 19.6998 3.00112 19.4257 3.11465C19.1516 3.22818 18.9173 3.42044 18.7525 3.66711C18.5877 3.91379 18.4997 4.2038 18.4997 4.50047C18.4997 4.89829 18.6577 5.27982 18.939 5.56113C19.2203 5.84243 19.6019 6.00047 19.9997 6.00047ZM24.4997 9.00047C24.7964 9.00047 25.0864 8.91249 25.3331 8.74767C25.5797 8.58285 25.772 8.34858 25.8855 8.07449C25.999 7.8004 26.0288 7.4988 25.9709 7.20783C25.913 6.91686 25.7701 6.64959 25.5604 6.43981C25.3506 6.23003 25.0833 6.08717 24.7923 6.02929C24.5014 5.97141 24.1998 6.00112 23.9257 6.11465C23.6516 6.22818 23.4173 6.42044 23.2525 6.66711C23.0877 6.91379 22.9997 7.2038 22.9997 7.50047C22.9997 7.89829 23.1577 8.27982 23.439 8.56113C23.7203 8.84243 24.1019 9.00047 24.4997 9.00047ZM27.4997 13.5005C27.7964 13.5005 28.0864 13.4125 28.3331 13.2477C28.5797 13.0828 28.772 12.8486 28.8855 12.5745C28.999 12.3004 29.0288 11.9988 28.9709 11.7078C28.913 11.4169 28.7701 11.1496 28.5604 10.9398C28.3506 10.73 28.0833 10.5872 27.7923 10.5293C27.5014 10.4714 27.1998 10.5011 26.9257 10.6146C26.6516 10.7282 26.4173 10.9204 26.2525 11.1671C26.0877 11.4138 25.9997 11.7038 25.9997 12.0005C25.9997 12.3983 26.1577 12.7798 26.439 13.0611C26.7203 13.3424 27.1019 13.5005 27.4997 13.5005ZM15.9997 7.00047C17.7797 7.00047 19.5198 7.52831 20.9998 8.51724C22.4799 9.50617 23.6334 10.9118 24.3146 12.5563C24.9958 14.2009 25.174 16.0105 24.8268 17.7563C24.4795 19.5021 23.6223 21.1058 22.3637 22.3644C21.105 23.6231 19.5013 24.4803 17.7555 24.8275C16.0097 25.1748 14.2001 24.9966 12.5555 24.3154C10.911 23.6342 9.5054 22.4806 8.51647 21.0006C7.52754 19.5206 6.9997 17.7805 6.9997 16.0005C7.00235 13.6143 7.95141 11.3267 9.63866 9.63943C11.3259 7.95218 13.6136 7.00311 15.9997 7.00047ZM14.9997 16.0005C14.9997 16.2657 15.1051 16.52 15.2926 16.7076C15.4801 16.8951 15.7345 17.0005 15.9997 17.0005H21.9997C22.2649 17.0005 22.5193 16.8951 22.7068 16.7076C22.8943 16.52 22.9997 16.2657 22.9997 16.0005C22.9997 15.7353 22.8943 15.4809 22.7068 15.2934C22.5193 15.1058 22.2649 15.0005 21.9997 15.0005H16.9997V10.0005C16.9997 9.73525 16.8943 9.4809 16.7068 9.29336C16.5193 9.10582 16.2649 9.00047 15.9997 9.00047C15.7345 9.00047 15.4801 9.10582 15.2926 9.29336C15.1051 9.4809 14.9997 9.73525 14.9997 10.0005V16.0005Z" fill="#1C1C1E"/>
</svg>
