<svg width="32" height="32" viewBox="0 0 32 32" fill="none" xmlns="http://www.w3.org/2000/svg">
<path d="M28 16.0003C28.0001 18.3441 27.3137 20.6367 26.0257 22.5949C24.7377 24.5531 22.9044 26.0913 20.7522 27.0195C18.6 27.9477 16.2231 28.2253 13.9149 27.818C11.6067 27.4108 9.46835 26.3365 7.76375 24.7278C7.66821 24.6375 7.5914 24.5293 7.53768 24.4093C7.48397 24.2893 7.45441 24.1599 7.45069 24.0286C7.44698 23.8972 7.46918 23.7663 7.51603 23.6435C7.56288 23.5207 7.63347 23.4083 7.72375 23.3128C7.90609 23.1198 8.1576 23.0072 8.42297 22.9997C8.55436 22.996 8.6852 23.0182 8.80802 23.0651C8.93083 23.1119 9.04321 23.1825 9.13875 23.2728C10.5684 24.6215 12.3639 25.5191 14.3007 25.8533C16.2376 26.1875 18.23 25.9435 20.029 25.1518C21.828 24.3601 23.3538 23.0558 24.4158 21.4019C25.4777 19.748 26.0287 17.8178 25.9999 15.8525C25.9712 13.8872 25.3639 11.974 24.254 10.3519C23.1441 8.72977 21.5807 7.47071 19.7593 6.73201C17.9379 5.99332 15.9392 5.80775 14.013 6.1985C12.0867 6.58924 10.3183 7.53897 8.92875 8.92902C8.4875 9.37527 8.0725 9.81402 7.66875 10.2503L9.7075 12.2928C9.84751 12.4326 9.94288 12.6109 9.98153 12.805C10.0202 12.999 10.0004 13.2002 9.92462 13.3831C9.84887 13.5659 9.72058 13.7221 9.55598 13.832C9.39139 13.9419 9.1979 14.0004 9 14.0003H4C3.73478 14.0003 3.48043 13.8949 3.29289 13.7074C3.10536 13.5198 3 13.2655 3 13.0003V8.00027C2.99984 7.80237 3.05841 7.60888 3.16828 7.44429C3.27815 7.27969 3.43439 7.1514 3.61721 7.07565C3.80003 6.99989 4.00122 6.98009 4.19531 7.01874C4.38939 7.05739 4.56764 7.15276 4.7075 7.29277L6.25 8.83777C6.6525 8.40152 7.0675 7.96277 7.5075 7.51902C9.18511 5.83855 11.3236 4.69357 13.6522 4.22899C15.9808 3.76442 18.3949 4.00113 20.589 4.90918C22.783 5.81723 24.6583 7.35578 25.9775 9.3301C27.2968 11.3044 28.0006 13.6258 28 16.0003ZM16 9.00027C15.7348 9.00027 15.4804 9.10563 15.2929 9.29316C15.1054 9.4807 15 9.73505 15 10.0003V16.0003C14.9999 16.1729 15.0446 16.3426 15.1296 16.4929C15.2146 16.6432 15.337 16.7689 15.485 16.8578L20.485 19.8578C20.5976 19.9254 20.7224 19.9702 20.8524 19.9896C20.9823 20.009 21.1147 20.0026 21.2422 19.9708C21.3696 19.939 21.4896 19.8824 21.5951 19.8042C21.7007 19.7261 21.7899 19.6279 21.8575 19.5153C21.9251 19.4027 21.9699 19.2778 21.9893 19.1479C22.0087 19.018 22.0023 18.8855 21.9705 18.7581C21.9387 18.6306 21.8821 18.5107 21.8039 18.4051C21.7258 18.2995 21.6276 18.2104 21.515 18.1428L17 15.434V10.0003C17 9.73505 16.8946 9.4807 16.7071 9.29316C16.5196 9.10563 16.2652 9.00027 16 9.00027Z" fill="#1C1C1E"/>
</svg>
