<svg width="32" height="32" viewBox="0 0 32 32" fill="none" xmlns="http://www.w3.org/2000/svg">
<path d="M17.0002 10.0002V15.4339L21.5152 18.1427C21.7426 18.2793 21.9065 18.5006 21.9707 18.758C22.0349 19.0154 21.9943 19.2878 21.8577 19.5152C21.7211 19.7426 21.4998 19.9065 21.2424 19.9707C20.985 20.0349 20.7126 19.9943 20.4852 19.8577L15.4852 16.8577C15.3372 16.7688 15.2148 16.6431 15.1298 16.4928C15.0448 16.3425 15.0001 16.1728 15.0002 16.0002V10.0002C15.0002 9.73497 15.1056 9.48062 15.2931 9.29308C15.4806 9.10555 15.735 9.00019 16.0002 9.00019C16.2654 9.00019 16.5198 9.10555 16.7073 9.29308C16.8948 9.48062 17.0002 9.73497 17.0002 10.0002ZM28.3827 7.07644C28.2 7.00064 27.9989 6.98073 27.8049 7.01922C27.6109 7.05771 27.4326 7.15288 27.2927 7.29269L25.7502 8.83894C25.3465 8.40019 24.9302 7.96394 24.4877 7.51519C22.82 5.84732 20.6978 4.70789 18.3862 4.23926C16.0747 3.77063 13.6763 3.99359 11.4907 4.88027C9.30511 5.76696 7.42929 7.27805 6.09762 9.22474C4.76595 11.1714 4.03747 13.4674 4.00322 15.8257C3.96897 18.1841 4.63045 20.5002 5.90503 22.4848C7.1796 24.4693 9.01074 26.0342 11.1696 26.984C13.3285 27.9338 15.7195 28.2263 18.0437 27.825C20.3679 27.4237 22.5223 26.3464 24.2377 24.7277C24.3332 24.6374 24.4101 24.5292 24.4638 24.4092C24.5175 24.2892 24.547 24.1599 24.5508 24.0285C24.5545 23.8971 24.5323 23.7662 24.4854 23.6434C24.4386 23.5206 24.368 23.4082 24.2777 23.3127C24.1874 23.2172 24.0792 23.1403 23.9592 23.0866C23.8393 23.0329 23.7099 23.0033 23.5785 22.9996C23.4471 22.9959 23.3162 23.0181 23.1934 23.065C23.0706 23.1118 22.9582 23.1824 22.8627 23.2727C21.4333 24.6214 19.6382 25.5191 17.7016 25.8535C15.765 26.188 13.7728 25.9444 11.9738 25.1532C10.1749 24.362 8.64891 23.0582 7.58661 21.4048C6.5243 19.7514 5.97274 17.8216 6.00081 15.8565C6.02889 13.8915 6.63537 11.9783 7.74447 10.3559C8.85358 8.73347 10.4162 7.47385 12.237 6.73436C14.0578 5.99487 16.0562 5.80829 17.9824 6.19793C19.9087 6.58757 21.6774 7.53616 23.0677 8.92519C23.5102 9.37269 23.9264 9.81269 24.3314 10.2539L22.2927 12.2927C22.1527 12.4325 22.0573 12.6108 22.0187 12.8049C21.98 12.999 21.9998 13.2002 22.0756 13.383C22.1513 13.5658 22.2796 13.722 22.4442 13.8319C22.6088 13.9418 22.8023 14.0003 23.0002 14.0002H28.0002C28.2654 14.0002 28.5198 13.8948 28.7073 13.7073C28.8948 13.5198 29.0002 13.2654 29.0002 13.0002V8.00019C29.0002 7.80241 28.9415 7.60908 28.8316 7.44466C28.7216 7.28023 28.5654 7.15209 28.3827 7.07644Z" fill="#1C1C1E"/>
</svg>
