<svg width="32" height="32" viewBox="0 0 32 32" fill="none" xmlns="http://www.w3.org/2000/svg">
<path d="M6.80763 6.80761C4.98954 8.62569 3.75141 10.9421 3.24981 13.4638C2.7482 15.9856 3.00564 18.5994 3.98958 20.9749C4.97352 23.3503 6.63976 25.3806 8.7776 26.8091C10.9154 28.2376 13.4289 29 16 29C18.5712 29 21.0846 28.2376 23.2224 26.8091C25.3603 25.3806 27.0265 23.3503 28.0104 20.9749C28.9944 18.5994 29.2518 15.9856 28.7502 13.4638C28.2486 10.9421 27.0105 8.62569 25.1924 6.80761C22.7523 4.37361 19.4465 3.00671 16 3.00671C12.5535 3.00671 9.24771 4.37361 6.80763 6.80761ZM20.2427 13.1716L17.4142 16L20.2427 18.8284C20.4302 19.016 20.5355 19.2703 20.5355 19.5355C20.5355 19.8007 20.4302 20.0551 20.2427 20.2426C20.0551 20.4302 19.8008 20.5355 19.5355 20.5355C19.2703 20.5355 19.016 20.4302 18.8284 20.2426L16 17.4142L13.1716 20.2426C12.9841 20.4302 12.7297 20.5355 12.4645 20.5355C12.1993 20.5355 11.9449 20.4302 11.7574 20.2426C11.5698 20.0551 11.4645 19.8007 11.4645 19.5355C11.4645 19.2703 11.5698 19.016 11.7574 18.8284L14.5858 16L11.7574 13.1716C11.5698 12.984 11.4645 12.7297 11.4645 12.4645C11.4645 12.1992 11.5698 11.9449 11.7574 11.7574C11.9449 11.5698 12.1993 11.4645 12.4645 11.4645C12.7297 11.4645 12.9841 11.5698 13.1716 11.7574L16 14.5858L18.8284 11.7574C19.016 11.5698 19.2703 11.4645 19.5355 11.4645C19.8008 11.4645 20.0551 11.5698 20.2427 11.7574C20.4302 11.9449 20.5355 12.1992 20.5355 12.4645C20.5355 12.7297 20.4302 12.984 20.2427 13.1716Z" fill="#1C1C1E"/>
</svg>
