<svg width="32" height="32" viewBox="0 0 32 32" fill="none" xmlns="http://www.w3.org/2000/svg">
<path d="M21.0001 28.9998C21.0001 29.265 20.8948 29.5194 20.7072 29.7069C20.5197 29.8944 20.2653 29.9998 20.0001 29.9998H13.0001C12.7349 29.9998 12.4805 29.8944 12.293 29.7069C12.1055 29.5194 12.0001 29.265 12.0001 28.9998C12.0001 28.7346 12.1055 28.4802 12.293 28.2927C12.4805 28.1051 12.7349 27.9998 13.0001 27.9998H20.0001C20.2653 27.9998 20.5197 28.1051 20.7072 28.2927C20.8948 28.4802 21.0001 28.7346 21.0001 28.9998ZM16.0001 24.9998C16.0001 24.7346 15.8948 24.4802 15.7072 24.2927C15.5197 24.1051 15.2653 23.9998 15.0001 23.9998H9.00011C8.7349 23.9998 8.48054 24.1051 8.293 24.2927C8.10547 24.4802 8.00011 24.7346 8.00011 24.9998C8.00011 25.265 8.10547 25.5194 8.293 25.7069C8.48054 25.8944 8.7349 25.9998 9.00011 25.9998H15.0001C15.2653 25.9998 15.5197 25.8944 15.7072 25.7069C15.8948 25.5194 16.0001 25.265 16.0001 24.9998ZM23.0001 23.9998H20.0001C19.7349 23.9998 19.4805 24.1051 19.293 24.2927C19.1055 24.4802 19.0001 24.7346 19.0001 24.9998C19.0001 25.265 19.1055 25.5194 19.293 25.7069C19.4805 25.8944 19.7349 25.9998 20.0001 25.9998H23.0001C23.2653 25.9998 23.5197 25.8944 23.7072 25.7069C23.8948 25.5194 24.0001 25.265 24.0001 24.9998C24.0001 24.7346 23.8948 24.4802 23.7072 24.2927C23.5197 24.1051 23.2653 23.9998 23.0001 23.9998ZM28.9839 11.9435C28.8419 9.51622 27.7747 7.23571 26.0019 5.57161C24.2292 3.9075 21.8858 2.98646 19.4544 2.99816C17.0229 3.00985 14.6885 3.95338 12.9319 5.63447C11.1752 7.31555 10.1299 9.60621 10.0114 12.0348C9.99678 12.2939 9.88417 12.5379 9.69638 12.7171C9.50859 12.8963 9.25967 12.9973 9.00011 12.9998H8.92511C8.66113 12.9762 8.41677 12.8505 8.24402 12.6495C8.07126 12.4485 7.98376 12.1881 8.00011 11.9235C8.03486 11.2282 8.13234 10.5375 8.29136 9.85978C8.31188 9.77468 8.30969 9.68569 8.28503 9.6017C8.26036 9.51771 8.21408 9.44166 8.1508 9.38117C8.08753 9.32068 8.00948 9.27787 7.92447 9.257C7.83945 9.23614 7.75045 9.23796 7.66636 9.26228C6.31273 9.6622 5.1257 10.4912 4.28409 11.6243C3.44247 12.7574 2.99186 14.1333 3.00011 15.5448C3.02511 19.1335 6.01511 21.9998 9.60511 21.9998H19.5001C20.7941 21.9983 22.0742 21.7328 23.262 21.2195C24.4498 20.7062 25.5204 19.9559 26.4082 19.0145C27.296 18.0732 27.9823 16.9605 28.4252 15.7446C28.8681 14.5288 29.0582 13.2354 28.9839 11.9435Z" fill="#1C1C1E"/>
</svg>
