<svg width="32" height="32" viewBox="0 0 32 32" fill="none" xmlns="http://www.w3.org/2000/svg">
<path d="M21.5001 8.99976C20.9826 8.99947 20.4659 9.04128 19.9551 9.12476C19.7734 7.24771 19.0062 5.4753 17.7619 4.05825C16.5176 2.64121 14.8592 1.65128 13.0214 1.22851C12.8563 1.1906 12.6843 1.19521 12.5215 1.24194C12.3588 1.28866 12.2105 1.37596 12.0907 1.49565C11.9709 1.61534 11.8834 1.76349 11.8366 1.92622C11.7897 2.08895 11.7849 2.26092 11.8226 2.42601C12.0581 3.4521 12.0594 4.51806 11.8263 5.5447C11.5932 6.57134 11.1318 7.53226 10.4763 8.35604C9.82077 9.17982 8.98803 9.84529 8.03997 10.303C7.0919 10.7607 6.05287 10.9988 5.00011 10.9998C4.47053 10.9998 3.94262 10.9403 3.42636 10.8223C3.26118 10.7843 3.08905 10.7889 2.92615 10.8356C2.76324 10.8824 2.61489 10.9698 2.49504 11.0897C2.37519 11.2095 2.28777 11.3579 2.24099 11.5208C2.19421 11.6837 2.18961 11.8558 2.22761 12.021C2.49625 13.1794 2.99112 14.2734 3.68379 15.24C4.37645 16.2066 5.25326 17.0268 6.26386 17.6535C5.55311 18.6218 5.12456 19.7681 5.02576 20.9651C4.92697 22.1622 5.1618 23.3632 5.70418 24.4349C6.24657 25.5066 7.07531 26.4071 8.09841 27.0363C9.12152 27.6656 10.299 27.9991 11.5001 27.9998H21.5001C24.0197 27.9998 26.436 26.9989 28.2176 25.2173C29.9992 23.4357 31.0001 21.0193 31.0001 18.4998C31.0001 15.9802 29.9992 13.5638 28.2176 11.7823C26.436 10.0007 24.0197 8.99976 21.5001 8.99976ZM4.67136 12.9998C4.78011 12.9998 4.89011 12.9998 5.00011 12.9998C7.38624 12.9971 9.67389 12.0481 11.3611 10.3608C13.0484 8.67355 13.9975 6.3859 14.0001 3.99976C14.0001 3.88851 14.0001 3.77726 14.0001 3.66601C15.1525 4.20549 16.1347 5.05075 16.84 6.10977C17.5453 7.1688 17.9466 8.40101 18.0001 9.67226C16.7792 10.1581 15.6716 10.8906 14.7467 11.8241C13.8219 12.7576 13.0996 13.8719 12.6251 15.0973C12.2536 15.0324 11.8772 14.9998 11.5001 14.9998C10.1558 14.9995 8.84497 15.4186 7.75011 16.1985C6.40517 15.493 5.32499 14.3707 4.67136 12.9998Z" fill="#1C1C1E"/>
</svg>
