<svg width="32" height="32" viewBox="0 0 32 32" fill="none" xmlns="http://www.w3.org/2000/svg">
<path d="M20.5004 9.00026C19.6448 8.99974 18.7929 9.11452 17.9679 9.34151C17.6422 8.81014 17.2466 8.32496 16.7917 7.89901L17.9804 6.20276C18.0558 6.09516 18.1092 5.97377 18.1376 5.84552C18.166 5.71728 18.1689 5.58469 18.1461 5.45532C18.1233 5.32596 18.0753 5.20236 18.0047 5.09157C17.9341 4.98078 17.8424 4.88498 17.7348 4.80963C17.6272 4.73429 17.5058 4.68087 17.3776 4.65244C17.2493 4.62401 17.1167 4.62111 16.9874 4.64392C16.858 4.66673 16.7344 4.71479 16.6236 4.78537C16.5128 4.85595 16.417 4.94766 16.3417 5.05526L15.1529 6.75026C14.1754 6.25668 13.0955 5.99977 12.0004 6.00026C11.9267 6.00026 11.8554 6.00026 11.7829 6.00026L11.4217 3.96401C11.4027 3.83133 11.3573 3.70381 11.2881 3.58904C11.2188 3.47427 11.1273 3.37458 11.0188 3.2959C10.9102 3.21722 10.787 3.16116 10.6564 3.13104C10.5258 3.10093 10.3905 3.09737 10.2585 3.12058C10.1265 3.1438 10.0005 3.19331 9.88803 3.26618C9.77554 3.33905 9.67885 3.43379 9.6037 3.54477C9.52855 3.65575 9.47648 3.7807 9.45058 3.9122C9.42467 4.0437 9.42547 4.17907 9.45292 4.31026L9.81292 6.35276C8.70386 6.71958 7.70401 7.35764 6.90417 8.20901L5.20167 7.01776C5.09415 6.94056 4.97238 6.88547 4.84341 6.8557C4.71444 6.82592 4.58085 6.82204 4.45037 6.84428C4.31989 6.86652 4.19513 6.91445 4.08331 6.98528C3.9715 7.05611 3.87485 7.14843 3.79899 7.25689C3.72313 7.36535 3.66955 7.48779 3.64136 7.61712C3.61318 7.74644 3.61095 7.88008 3.6348 8.01027C3.65865 8.14046 3.70811 8.26463 3.78032 8.37556C3.85252 8.48649 3.94603 8.58199 4.05542 8.65651L5.75042 9.84651C5.25509 10.8239 4.99809 11.9046 5.00042 13.0003C5.00042 13.0715 5.00042 13.144 5.00042 13.2153L2.96417 13.5753C2.7177 13.6184 2.49638 13.7524 2.34388 13.9508C2.19139 14.1492 2.11881 14.3976 2.14048 14.6468C2.16214 14.8961 2.27647 15.1282 2.4609 15.2973C2.64532 15.4664 2.88645 15.5602 3.13667 15.5603C3.1949 15.5602 3.25303 15.5552 3.31042 15.5453L5.35042 15.1853C5.52966 15.731 5.77569 16.2524 6.08292 16.7378C5.1264 17.6262 4.45958 18.7821 4.16929 20.0549C3.879 21.3277 3.97869 22.6584 4.45538 23.8737C4.93207 25.0891 5.76367 26.1327 6.84188 26.8687C7.92009 27.6047 9.19494 27.999 10.5004 28.0003H20.5004C23.02 28.0003 25.4363 26.9994 27.2179 25.2178C28.9995 23.4362 30.0004 21.0198 30.0004 18.5003C30.0004 15.9807 28.9995 13.5643 27.2179 11.7827C25.4363 10.0011 23.02 9.00026 20.5004 9.00026ZM11.6154 15.0953C10.3008 14.8683 8.9483 15.0503 7.74042 15.6165C7.07203 14.5125 6.8564 13.1929 7.13861 11.9336C7.42083 10.6743 8.17904 9.57284 9.25464 8.8597C10.3302 8.14656 11.6399 7.87693 12.9098 8.10721C14.1796 8.33748 15.3112 9.04984 16.0679 10.0953C14.028 11.1688 12.4462 12.9451 11.6154 15.0953Z" fill="#1C1C1E"/>
</svg>
