<svg width="32" height="32" viewBox="0 0 32 32" fill="none" xmlns="http://www.w3.org/2000/svg">
<path d="M30.0004 18.0001C29.9999 19.2386 29.6709 20.4548 29.0469 21.5246C28.4228 22.5944 27.5261 23.4795 26.4483 24.0895C25.3704 24.6995 24.15 25.0127 22.9116 24.997C21.6732 24.9813 20.4612 24.6373 19.3991 24.0001H18.8441L19.9579 27.7126C20.0027 27.8619 20.012 28.0196 19.985 28.1732C19.9581 28.3267 19.8956 28.4718 19.8025 28.5969C19.7095 28.722 19.5885 28.8236 19.4493 28.8936C19.31 28.9636 19.1563 29.0001 19.0004 29.0001H13.0004C12.8445 29.0001 12.6908 28.9636 12.5515 28.8936C12.4123 28.8236 12.2913 28.722 12.1982 28.5969C12.1052 28.4718 12.0427 28.3267 12.0158 28.1732C11.9888 28.0196 11.9981 27.8619 12.0429 27.7126L13.1566 24.0001H12.6016C11.6767 24.5559 10.6358 24.8904 9.56028 24.9773C8.48473 25.0643 7.40362 24.9015 6.40142 24.5015C5.39922 24.1015 4.50306 23.4752 3.78294 22.6716C3.06281 21.868 2.53822 20.9088 2.25015 19.8689C1.96208 18.829 1.91832 17.7365 2.12229 16.6769C2.32626 15.6173 2.77244 14.6192 3.42598 13.7606C4.07952 12.9019 4.92272 12.206 5.88972 11.7271C6.85671 11.2483 7.92133 10.9995 9.00039 11.0001C9.09789 11.0001 9.19414 11.0001 9.29164 11.0001C8.98048 9.9554 8.9176 8.85244 9.10803 7.77913C9.29845 6.70581 9.73691 5.6918 10.3885 4.81789C11.04 3.94397 11.8867 3.2343 12.861 2.74542C13.8353 2.25654 14.9103 2.00195 16.0004 2.00195C17.0905 2.00195 18.1655 2.25654 19.1398 2.74542C20.1141 3.2343 20.9607 3.94397 21.6123 4.81789C22.2639 5.6918 22.7023 6.70581 22.8928 7.77913C23.0832 8.85244 23.0203 9.9554 22.7091 11.0001C22.8054 11.0001 22.9029 11.0001 23.0004 11.0001C24.8563 11.0021 26.6356 11.7402 27.9479 13.0526C29.2603 14.3649 29.9984 16.1442 30.0004 18.0001Z" fill="#1C1C1E"/>
</svg>
