<svg width="32" height="32" viewBox="0 0 32 32" fill="none" xmlns="http://www.w3.org/2000/svg">
<path d="M28.7362 9.03167C28.5536 8.71272 28.2862 8.45054 27.9638 8.27417L16.96 2.25042C16.6659 2.0887 16.3357 2.00391 16 2.00391C15.6643 2.00391 15.3341 2.0887 15.04 2.25042L4.04 8.27292C3.71752 8.44929 3.45015 8.71147 3.2675 9.03042C3.09339 9.3323 3.00117 9.67443 3 10.0229V21.9779C3.00081 22.336 3.09775 22.6873 3.28069 22.9951C3.46363 23.303 3.72586 23.556 4.04 23.7279L15.04 29.7492C15.3339 29.9116 15.6642 29.9968 16 29.9968C16.3358 29.9968 16.6661 29.9116 16.96 29.7492L27.96 23.7279C28.2741 23.556 28.5364 23.303 28.7193 22.9951C28.9023 22.6873 28.9992 22.336 29 21.9779V10.0229C28.9998 9.6752 28.9088 9.33354 28.7362 9.03167ZM15 27.4517L11 25.2617V19.0004C10.9996 18.8214 10.9511 18.6457 10.8597 18.4918C10.7682 18.3379 10.6371 18.2114 10.48 18.1254L5 15.1254V11.1254L15 16.6004V27.4517ZM16 14.8604L6.0825 9.43042L10.3925 7.07167L15.5175 9.87792C15.6647 9.95845 15.8297 10.0007 15.9975 10.0007C16.1653 10.0007 16.3303 9.95845 16.4775 9.87792L21.6025 7.07167L25.9125 9.43042L16 14.8604ZM27 15.1229L21.52 18.1229C21.3629 18.2089 21.2318 18.3354 21.1403 18.4893C21.0489 18.6432 21.0004 18.8189 21 18.9979V25.2592L17 27.4492V16.5929L27 11.1179V15.1229Z" fill="#1C1C1E"/>
</svg>
