<svg width="32" height="32" viewBox="0 0 32 32" fill="none" xmlns="http://www.w3.org/2000/svg">
<path d="M8.90203 23.8084C7.56314 24.416 6.13463 24.8027 4.67203 24.9534C4.57546 24.9634 4.47806 24.9451 4.39171 24.9007C4.30536 24.8563 4.23381 24.7878 4.18578 24.7034C3.10203 22.7934 2.74578 20.4171 3.18578 17.8096C3.74703 14.4446 5.57203 11.0759 8.32578 8.32212C11.0795 5.56837 14.4508 3.74337 17.8133 3.18212C20.662 2.70837 23.2345 3.18212 25.2245 4.50712C25.306 4.5606 25.37 4.63671 25.4088 4.72609C25.4475 4.81547 25.4593 4.91423 25.4428 5.01023C25.4262 5.10623 25.3819 5.19529 25.3153 5.26647C25.2488 5.33764 25.1629 5.38783 25.0683 5.41087C24.1315 5.63416 23.2182 5.94641 22.3408 6.34337C19.6195 7.58087 16.1408 10.2259 15.0258 15.8059C14.262 19.5909 12.2033 22.2834 8.90203 23.8084ZM27.8133 7.29712C27.7653 7.21295 27.694 7.14451 27.6079 7.10013C27.5218 7.05575 27.4247 7.03733 27.3283 7.04712C25.8651 7.19683 24.436 7.58354 23.097 8.19212C19.7958 9.71712 17.737 12.4096 16.9795 16.1921C15.8633 21.7721 12.3858 24.4171 9.66453 25.6546C8.78713 26.0516 7.87381 26.3638 6.93703 26.5871C6.84024 26.609 6.75214 26.6591 6.68393 26.7312C6.61573 26.8032 6.5705 26.8939 6.55402 26.9918C6.53753 27.0896 6.55053 27.1902 6.59136 27.2806C6.63218 27.371 6.69899 27.4473 6.78328 27.4996C8.26703 28.4896 10.0733 28.9996 12.077 28.9996C12.7858 28.9976 13.4931 28.9374 14.192 28.8196C17.5558 28.2584 20.9258 26.4334 23.6795 23.6796C26.4333 20.9259 28.2583 17.5546 28.8195 14.1921C29.2495 11.5846 28.897 9.20712 27.8133 7.29712Z" fill="#1C1C1E"/>
</svg>
