<svg width="33" height="33" viewBox="0 0 33 33" fill="none" xmlns="http://www.w3.org/2000/svg">
<path d="M32.2129 15.4968L28.7266 14.6256C28.3307 12.02 27.1119 9.60926 25.2483 7.74566C23.3847 5.88206 20.9739 4.66325 18.3683 4.26728L17.4971 0.787453C17.4412 0.56451 17.3125 0.366628 17.1312 0.225235C16.95 0.083843 16.7268 0.00704827 16.497 0.00704827C16.2671 0.00704827 16.0439 0.083843 15.8627 0.225235C15.6815 0.366628 15.5527 0.56451 15.4968 0.787453L14.6256 4.27373C12.02 4.66969 9.60926 5.88851 7.74566 7.7521C5.88206 9.6157 4.66325 12.0264 4.26728 14.632L0.787453 15.5033C0.56451 15.5591 0.366628 15.6879 0.225235 15.8691C0.083843 16.0503 0.00704827 16.2736 0.00704827 16.5034C0.00704827 16.7332 0.083843 16.9565 0.225235 17.1377C0.366628 17.3189 0.56451 17.4477 0.787453 17.5035L4.27373 18.3748C4.66969 20.9804 5.88851 23.3911 7.7521 25.2547C9.6157 27.1183 12.0264 28.3371 14.632 28.7331L15.5033 32.2194C15.5591 32.4423 15.6879 32.6402 15.8691 32.7816C16.0503 32.923 16.2736 32.9998 16.5034 32.9998C16.7332 32.9998 16.9565 32.923 17.1377 32.7816C17.3189 32.6402 17.4477 32.4423 17.5035 32.2194L18.3748 28.7331C20.9804 28.3371 23.3911 27.1183 25.2547 25.2547C27.1183 23.3911 28.3371 20.9804 28.7331 18.3748L32.2194 17.5035C32.4423 17.4477 32.6402 17.3189 32.7816 17.1377C32.923 16.9565 32.9998 16.7332 32.9998 16.5034C32.9998 16.2736 32.923 16.0503 32.7816 15.8691C32.6402 15.6879 32.4423 15.5591 32.2194 15.5033L32.2129 15.4968ZM26.5202 14.0791L20.4408 12.5532L18.92 6.47376C20.7639 6.91758 22.4495 7.86216 23.7906 9.2033C25.1318 10.5444 26.0763 12.23 26.5202 14.074V14.0791ZM14.074 6.47504L12.5532 12.5532L6.47376 14.074C6.91758 12.23 7.86216 10.5444 9.2033 9.2033C10.5444 7.86216 12.23 6.91758 14.074 6.47376V6.47504ZM6.46989 18.9212L12.5532 20.4408L14.074 26.5202C12.23 26.0763 10.5444 25.1318 9.2033 23.7906C7.86216 22.4495 6.91758 20.7639 6.47376 18.92L6.46989 18.9212ZM18.9161 26.5253L20.4369 20.4459L26.5163 18.9251C26.0719 20.7677 25.1276 22.4518 23.7872 23.7919C22.4469 25.132 20.7626 26.0761 18.92 26.5202L18.9161 26.5253Z" fill="#1C1C1E"/>
</svg>
