<svg width="32" height="32" viewBox="0 0 32 32" fill="none" xmlns="http://www.w3.org/2000/svg">
<path d="M12.9997 24C12.9997 24.2652 12.8943 24.5196 12.7068 24.7071C12.5192 24.8946 12.2649 25 11.9997 25H9.99965C9.73443 25 9.48008 24.8946 9.29254 24.7071C9.10501 24.5196 8.99965 24.2652 8.99965 24C8.99965 23.7348 9.10501 23.4804 9.29254 23.2929C9.48008 23.1054 9.73443 23 9.99965 23H11.9997C12.2649 23 12.5192 23.1054 12.7068 23.2929C12.8943 23.4804 12.9997 23.7348 12.9997 24ZM21.9997 23H19.9997C19.7344 23 19.4801 23.1054 19.2925 23.2929C19.105 23.4804 18.9997 23.7348 18.9997 24C18.9997 24.2652 19.105 24.5196 19.2925 24.7071C19.4801 24.8946 19.7344 25 19.9997 25H21.9997C22.2649 25 22.5192 24.8946 22.7068 24.7071C22.8943 24.5196 22.9997 24.2652 22.9997 24C22.9997 23.7348 22.8943 23.4804 22.7068 23.2929C22.5192 23.1054 22.2649 23 21.9997 23ZM30.5484 15.265C30.3609 15.4947 30.1246 15.6797 29.8568 15.8069C29.5889 15.934 29.2961 15.9999 28.9997 16H24.9997V20C25.8392 20.6296 26.4593 21.5075 26.7722 22.5092C27.0851 23.5108 27.0749 24.5856 26.7431 25.5811C26.4112 26.5767 25.7745 27.4426 24.9232 28.0562C24.0719 28.6698 23.0491 29 21.9997 29H9.99965C8.95024 29 7.92743 28.6698 7.0761 28.0562C6.22477 27.4426 5.58809 26.5767 5.25623 25.5811C4.92438 24.5856 4.91418 23.5108 5.22708 22.5092C5.53998 21.5075 6.16012 20.6296 6.99965 20V16H2.99965C2.7055 15.9995 2.41509 15.9342 2.14909 15.8086C1.8831 15.683 1.64808 15.5003 1.46078 15.2735C1.27348 15.0467 1.13852 14.7814 1.06551 14.4964C0.992506 14.2115 0.983248 13.9139 1.0384 13.625C1.35904 12.0401 2.21731 10.6145 3.46802 9.58953C4.71873 8.56454 6.2851 8.00304 7.90215 8H8.10715C7.43982 7.34951 6.90953 6.57196 6.54757 5.71321C6.1856 4.85446 5.9993 3.93191 5.99965 3C5.99965 2.73478 6.10501 2.48043 6.29254 2.29289C6.48008 2.10536 6.73443 2 6.99965 2C7.26487 2 7.51922 2.10536 7.70676 2.29289C7.89429 2.48043 7.99965 2.73478 7.99965 3C7.99965 4.32608 8.52643 5.59785 9.46412 6.53553C10.4018 7.47322 11.6736 8 12.9997 8H18.9997C19.6563 8 20.3064 7.87067 20.9131 7.6194C21.5197 7.36812 22.0709 6.99983 22.5352 6.53553C22.9995 6.07124 23.3678 5.52005 23.619 4.91342C23.8703 4.30679 23.9997 3.65661 23.9997 3C23.9997 2.73478 24.105 2.48043 24.2925 2.29289C24.4801 2.10536 24.7344 2 24.9997 2C25.2649 2 25.5192 2.10536 25.7068 2.29289C25.8943 2.48043 25.9997 2.73478 25.9997 3C26 3.93191 25.8137 4.85446 25.4517 5.71321C25.0898 6.57196 24.5595 7.34951 23.8922 8H24.0972C25.7142 8.00304 27.2806 8.56454 28.5313 9.58953C29.782 10.6145 30.6403 12.0401 30.9609 13.625C31.0177 13.9119 31.0101 14.2077 30.9388 14.4913C30.8675 14.7749 30.7341 15.0391 30.5484 15.265ZM17.9997 15.5C17.9997 15.7967 18.0876 16.0867 18.2524 16.3334C18.4173 16.58 18.6515 16.7723 18.9256 16.8858C19.1997 16.9993 19.5013 17.0291 19.7923 16.9712C20.0833 16.9133 20.3505 16.7704 20.5603 16.5607C20.7701 16.3509 20.913 16.0836 20.9708 15.7926C21.0287 15.5017 20.999 15.2001 20.8855 14.926C20.7719 14.6519 20.5797 14.4176 20.333 14.2528C20.0863 14.088 19.7963 14 19.4997 14C19.1018 14 18.7203 14.158 18.439 14.4393C18.1577 14.7206 17.9997 15.1022 17.9997 15.5ZM10.9997 15.5C10.9997 15.7967 11.0876 16.0867 11.2524 16.3334C11.4173 16.58 11.6515 16.7723 11.9256 16.8858C12.1997 16.9993 12.5013 17.0291 12.7923 16.9712C13.0833 16.9133 13.3505 16.7704 13.5603 16.5607C13.7701 16.3509 13.913 16.0836 13.9708 15.7926C14.0287 15.5017 13.999 15.2001 13.8855 14.926C13.7719 14.6519 13.5797 14.4176 13.333 14.2528C13.0863 14.088 12.7963 14 12.4997 14C12.1018 14 11.7203 14.158 11.439 14.4393C11.1577 14.7206 10.9997 15.1022 10.9997 15.5ZM6.99965 14V13C6.99793 11.9179 7.349 10.8647 7.99965 10H7.89965C6.74756 10.0019 5.6313 10.4007 4.73881 11.1292C3.84633 11.8578 3.23214 12.8716 2.99965 14H6.99965ZM24.9997 24C24.9997 23.2044 24.6836 22.4413 24.121 21.8787C23.5584 21.3161 22.7953 21 21.9997 21H9.99965C9.204 21 8.44094 21.3161 7.87833 21.8787C7.31572 22.4413 6.99965 23.2044 6.99965 24C6.99965 24.7956 7.31572 25.5587 7.87833 26.1213C8.44094 26.6839 9.204 27 9.99965 27H21.9997C22.7953 27 23.5584 26.6839 24.121 26.1213C24.6836 25.5587 24.9997 24.7956 24.9997 24ZM28.9997 14C28.7674 12.8715 28.1532 11.8575 27.2607 11.1289C26.3682 10.4003 25.2518 10.0016 24.0997 10H23.9997C24.6503 10.8647 25.0014 11.9179 24.9997 13V14H28.9997Z" fill="#1C1C1E"/>
</svg>
