<svg width="32" height="32" viewBox="0 0 32 32" fill="none" xmlns="http://www.w3.org/2000/svg">
<path d="M27 15.0004C26.8305 15.0005 26.6638 15.0436 26.5155 15.1258C26.3673 15.2081 26.2423 15.3266 26.1525 15.4704C25.6305 16.3091 25.0539 17.1125 24.4263 17.8754L24.2225 16.8041L22.29 6.63412C22.2264 6.29473 22.0761 5.97758 21.8536 5.71354C21.6311 5.44949 21.344 5.24754 21.0203 5.12735C20.6967 5.00716 20.3474 4.97283 20.0065 5.02768C19.6655 5.08253 19.3447 5.22471 19.075 5.44037L19.0588 5.45287L16 8.00037L12.9412 5.45287L12.925 5.44037C12.6555 5.22473 12.3348 5.08249 11.9941 5.0275C11.6533 4.97251 11.3042 5.00663 10.9805 5.12655C10.6569 5.24647 10.3698 5.4481 10.1471 5.71184C9.92451 5.97558 9.77391 6.29245 9.71 6.63162L7.77875 16.7979L7.57375 17.8754C6.94591 17.1122 6.36923 16.3084 5.8475 15.4691C5.7575 15.3256 5.63252 15.2073 5.48428 15.1253C5.33604 15.0433 5.1694 15.0003 5 15.0004C3.67392 15.0004 2.40215 15.5272 1.46447 16.4648C0.526784 17.4025 0 18.6743 0 20.0004C0 21.3265 0.526784 22.5982 1.46447 23.5359C2.40215 24.4736 3.67392 25.0004 5 25.0004H27C28.3261 25.0004 29.5979 24.4736 30.5355 23.5359C31.4732 22.5982 32 21.3265 32 20.0004C32 18.6743 31.4732 17.4025 30.5355 16.4648C29.5979 15.5272 28.3261 15.0004 27 15.0004ZM9.585 18.0004H22.4137L22.7313 19.6691C21.7149 20.6249 20.5629 21.4252 19.3125 22.0441C17.3875 22.9716 16.0075 23.0004 16 23.0004C15.9587 23.0004 12.8138 22.9504 9.2675 19.6754L9.585 18.0004Z" fill="#1C1C1E"/>
</svg>
