<svg width="32" height="32" viewBox="0 0 32 32" fill="none" xmlns="http://www.w3.org/2000/svg">
<path d="M30.4137 10.1709L23.8288 3.58595C23.643 3.40018 23.4225 3.25282 23.1798 3.15228C22.9372 3.05175 22.6771 3 22.4144 3C22.1517 3 21.8916 3.05175 21.6489 3.15228C21.4062 3.25282 21.1857 3.40018 21 3.58595L7.58625 16.9997C7.40048 17.1854 7.25312 17.4059 7.15259 17.6486C7.05205 17.8913 7.0003 18.1514 7.0003 18.4141C7.0003 18.6768 7.05205 18.9369 7.15259 19.1795C7.25312 19.4222 7.40048 19.6427 7.58625 19.8284L10.1713 22.4134L4.29625 28.2884C4.10861 28.4761 4.00319 28.7306 4.00319 28.9959C4.00319 29.2613 4.10861 29.5158 4.29625 29.7034C4.48389 29.8911 4.73839 29.9965 5.00375 29.9965C5.26911 29.9965 5.52361 29.8911 5.71125 29.7034L11.5863 23.8284L14.1713 26.4134C14.357 26.5992 14.5775 26.7466 14.8202 26.8471C15.0628 26.9477 15.3229 26.9994 15.5856 26.9994C15.8483 26.9994 16.1084 26.9477 16.3511 26.8471C16.5938 26.7466 16.8143 26.5992 17 26.4134L30.4137 12.9997C30.5995 12.814 30.7469 12.5935 30.8474 12.3508C30.948 12.1081 30.9997 11.848 30.9997 11.5853C30.9997 11.3226 30.948 11.0625 30.8474 10.8198C30.7469 10.5772 30.5995 10.3567 30.4137 10.1709ZM15.5863 24.9997L13 22.4134L16.7075 18.7072C16.8951 18.5196 17.0006 18.2651 17.0006 17.9997C17.0006 17.7343 16.8951 17.4798 16.7075 17.2922C16.5199 17.1046 16.2654 16.9991 16 16.9991C15.7346 16.9991 15.4801 17.1046 15.2925 17.2922L11.5863 20.9997L9 18.4134L13.4137 13.9997H20V20.5859L15.5863 24.9997ZM4 7.4997C4 6.80746 4.20527 6.13077 4.58986 5.5552C4.97444 4.97963 5.52107 4.53103 6.16061 4.26612C6.80015 4.00121 7.50388 3.9319 8.18282 4.06695C8.86175 4.202 9.48539 4.53534 9.97487 5.02482C10.4644 5.51431 10.7977 6.13795 10.9327 6.81688C11.0678 7.49582 10.9985 8.19955 10.7336 8.83909C10.4687 9.47863 10.0201 10.0253 9.4445 10.4098C8.86892 10.7944 8.19223 10.9997 7.5 10.9997C6.57174 10.9997 5.6815 10.6309 5.02513 9.97457C4.36875 9.31819 4 8.42796 4 7.4997Z" fill="#1C1C1E"/>
</svg>
