<svg width="32" height="32" viewBox="0 0 32 32" fill="none" xmlns="http://www.w3.org/2000/svg">
<path d="M30.9999 9.99987C31.0004 9.45169 30.8721 8.91106 30.6254 8.42155C30.3787 7.93203 30.0204 7.50731 29.5795 7.1816C29.1386 6.85589 28.6273 6.63831 28.0869 6.54638C27.5465 6.45445 26.992 6.49074 26.4682 6.65234C25.9444 6.81393 25.4658 7.0963 25.0711 7.47671C24.6764 7.85711 24.3766 8.32491 24.1958 8.84242C24.015 9.35992 23.9583 9.91266 24.0302 10.4561C24.1021 10.9995 24.3007 11.5185 24.6099 11.9711L21.2612 16.0961L18.2499 9.17487C18.7991 8.71264 19.1929 8.09273 19.3779 7.39916C19.563 6.70559 19.5302 5.9719 19.2842 5.29755C19.0382 4.6232 18.5908 4.0408 18.0026 3.62929C17.4145 3.21778 16.714 2.99707 15.9962 2.99707C15.2784 2.99707 14.5779 3.21778 13.9897 3.62929C13.4016 4.0408 12.9542 4.6232 12.7082 5.29755C12.4621 5.9719 12.4294 6.70559 12.6144 7.39916C12.7994 8.09273 13.1932 8.71264 13.7424 9.17487L10.7387 16.0924L7.38994 11.9674C7.82011 11.3371 8.0325 10.5834 7.99474 9.82123C7.95699 9.05904 7.67116 8.33008 7.18079 7.74537C6.69043 7.16065 6.0224 6.75222 5.27844 6.58228C4.53448 6.41234 3.75537 6.49021 3.05976 6.80402C2.36415 7.11783 1.79016 7.65038 1.42521 8.32058C1.06026 8.99078 0.924354 9.76189 1.03818 10.5165C1.15201 11.2711 1.50935 11.9678 2.05576 12.5005C2.60217 13.0332 3.30771 13.3727 4.06494 13.4674L5.87494 24.3286C5.95275 24.7956 6.19367 25.2198 6.55485 25.5258C6.91603 25.8318 7.37405 25.9998 7.84744 25.9999H24.1524C24.6258 25.9998 25.0838 25.8318 25.445 25.5258C25.8062 25.2198 26.0471 24.7956 26.1249 24.3286L27.9337 13.4724C28.7802 13.3667 29.5589 12.9554 30.1235 12.316C30.6881 11.6766 30.9998 10.8529 30.9999 9.99987ZM15.9999 4.99987C16.2966 4.99987 16.5866 5.08784 16.8333 5.25267C17.08 5.41749 17.2722 5.65176 17.3858 5.92584C17.4993 6.19993 17.529 6.50153 17.4711 6.79251C17.4132 7.08348 17.2704 7.35075 17.0606 7.56053C16.8508 7.77031 16.5835 7.91317 16.2926 7.97105C16.0016 8.02893 15.7 7.99922 15.4259 7.88569C15.1518 7.77216 14.9176 7.5799 14.7527 7.33323C14.5879 7.08655 14.4999 6.79654 14.4999 6.49987C14.4999 6.10205 14.658 5.72051 14.9393 5.43921C15.2206 5.15791 15.6021 4.99987 15.9999 4.99987ZM2.99994 9.99987C2.99994 9.7032 3.08791 9.41319 3.25273 9.16652C3.41756 8.91984 3.65182 8.72758 3.92591 8.61405C4.2 8.50052 4.5016 8.47081 4.79257 8.52869C5.08355 8.58657 5.35082 8.72943 5.5606 8.93921C5.77038 9.14899 5.91324 9.41626 5.97112 9.70723C6.02899 9.99821 5.99929 10.2998 5.88576 10.5739C5.77223 10.848 5.57997 11.0823 5.33329 11.2471C5.08662 11.4119 4.79661 11.4999 4.49994 11.4999C4.10211 11.4999 3.72058 11.3418 3.43928 11.0605C3.15797 10.7792 2.99994 10.3977 2.99994 9.99987ZM27.4999 11.4999C27.2033 11.4999 26.9133 11.4119 26.6666 11.2471C26.4199 11.0823 26.2277 10.848 26.1141 10.5739C26.0006 10.2998 25.9709 9.99821 26.0288 9.70723C26.0866 9.41626 26.2295 9.14899 26.4393 8.93921C26.6491 8.72943 26.9163 8.58657 27.2073 8.52869C27.4983 8.47081 27.7999 8.50052 28.074 8.61405C28.3481 8.72758 28.5823 8.91984 28.7471 9.16652C28.912 9.41319 28.9999 9.7032 28.9999 9.99987C28.9999 10.3977 28.8419 10.7792 28.5606 11.0605C28.2793 11.3418 27.8978 11.4999 27.4999 11.4999Z" fill="#1C1C1E"/>
</svg>
