<svg width="32" height="32" viewBox="0 0 32 32" fill="none" xmlns="http://www.w3.org/2000/svg">
<path d="M29.9683 11.3516C29.9683 11.3654 29.9683 11.3779 29.9596 11.3916L27.1246 24.3754C27.0373 24.8326 26.7933 25.245 26.4346 25.5416C26.0759 25.8383 25.625 26.0005 25.1596 26.0004H6.83833C6.3731 26.0002 5.92248 25.8378 5.56405 25.5412C5.20563 25.2446 4.96181 24.8324 4.87458 24.3754L2.03958 11.3916C2.03958 11.3779 2.03333 11.3654 2.03083 11.3516C1.95324 10.9218 2.01852 10.4783 2.21669 10.089C2.41487 9.69974 2.73504 9.38604 3.12829 9.19586C3.52154 9.00569 3.96624 8.94949 4.39444 9.03585C4.82264 9.12221 5.21079 9.34639 5.49958 9.67412L9.70833 14.2104L14.1833 4.17412C14.1835 4.16996 14.1835 4.16579 14.1833 4.16163C14.3433 3.81456 14.5995 3.52061 14.9213 3.31457C15.2432 3.10852 15.6174 2.99902 15.9996 2.99902C16.3818 2.99902 16.7559 3.10852 17.0778 3.31457C17.3997 3.52061 17.6558 3.81456 17.8158 4.16163C17.8156 4.16579 17.8156 4.16996 17.8158 4.17412L22.2908 14.2104L26.4996 9.67412C26.789 9.34882 27.1766 9.12684 27.6036 9.04189C28.0307 8.95693 28.4738 9.01365 28.8656 9.20343C29.2575 9.39321 29.5767 9.70568 29.7748 10.0934C29.9729 10.4811 30.0391 10.9229 29.9633 11.3516H29.9683Z" fill="#1C1C1E"/>
</svg>
