<svg width="32" height="32" viewBox="0 0 32 32" fill="none" xmlns="http://www.w3.org/2000/svg">
<path d="M27.7859 15.3821L16.7859 1.38209C16.6924 1.26303 16.573 1.16677 16.4368 1.10058C16.3006 1.03439 16.1511 1 15.9997 1C15.8482 1 15.6988 1.03439 15.5626 1.10058C15.4264 1.16677 15.307 1.26303 15.2134 1.38209L4.21343 15.3821C4.07516 15.5582 4 15.7757 4 15.9996C4 16.2235 4.07516 16.441 4.21343 16.6171L15.2134 30.6171C15.307 30.7362 15.4264 30.8324 15.5626 30.8986C15.6988 30.9648 15.8482 30.9992 15.9997 30.9992C16.1511 30.9992 16.3006 30.9648 16.4368 30.8986C16.573 30.8324 16.6924 30.7362 16.7859 30.6171L27.7859 16.6171C27.9242 16.441 27.9994 16.2235 27.9994 15.9996C27.9994 15.7757 27.9242 15.5582 27.7859 15.3821ZM16.9997 19.4471V4.89084L25.4272 15.6158L16.9997 19.4471ZM14.9997 19.4471L6.57218 15.6158L14.9997 4.89084V19.4471ZM14.9997 21.6433V27.1083L8.32093 18.6083L14.9997 21.6433Z" fill="#1C1C1E"/>
</svg>
