<svg width="32" height="32" viewBox="0 0 32 32" fill="none" xmlns="http://www.w3.org/2000/svg">
<path d="M32 14.9998C32 15.265 31.8946 15.5193 31.7071 15.7069C31.5196 15.8944 31.2652 15.9998 31 15.9998H1C0.734784 15.9998 0.48043 15.8944 0.292893 15.7069C0.105357 15.5193 0 15.265 0 14.9998C0 14.7345 0.105357 14.4802 0.292893 14.2926C0.48043 14.1051 0.734784 13.9998 1 13.9998H4.49L10.4275 5.82351C10.6074 5.57647 10.8416 5.37395 11.112 5.23151C11.3824 5.08906 11.6818 5.01048 11.9873 5.00179C12.2928 4.9931 12.5962 5.05453 12.8742 5.18137C13.1523 5.30822 13.3976 5.4971 13.5913 5.7335L15.1975 7.59601L15.2225 7.62476C15.3156 7.74168 15.4338 7.8361 15.5684 7.901C15.703 7.9659 15.8506 7.99961 16 7.99961C16.1494 7.99961 16.297 7.9659 16.4316 7.901C16.5662 7.8361 16.6844 7.74168 16.7775 7.62476L16.8025 7.59601L18.4088 5.7335C18.6024 5.4971 18.8477 5.30822 19.1258 5.18137C19.4038 5.05453 19.7072 4.9931 20.0127 5.00179C20.3182 5.01048 20.6176 5.08906 20.888 5.23151C21.1584 5.37395 21.3926 5.57647 21.5725 5.82351L27.51 13.9998H31C31.2652 13.9998 31.5196 14.1051 31.7071 14.2926C31.8946 14.4802 32 14.7345 32 14.9998ZM22.5 17.9998C21.3933 18 20.3254 18.408 19.5006 19.1459C18.6757 19.8839 18.1517 20.8999 18.0287 21.9998H13.9712C13.848 20.9009 13.3244 19.8858 12.5005 19.1484C11.6766 18.4109 10.61 18.0026 9.5042 18.0014C8.39843 18.0002 7.33092 18.4061 6.50539 19.1418C5.67985 19.8775 5.1541 20.8914 5.02844 21.99C4.90279 23.0886 5.18604 24.195 5.82413 25.0981C6.46223 26.0012 7.4105 26.6377 8.48799 26.8862C9.56548 27.1348 10.6967 26.9778 11.6659 26.4454C12.6351 25.913 13.3743 25.0424 13.7425 23.9998H18.2575C18.5325 24.7776 19.016 25.4648 19.6553 25.9864C20.2945 26.5079 21.0648 26.8438 21.8819 26.9571C22.6991 27.0704 23.5317 26.9569 24.2888 26.629C25.0458 26.3011 25.6981 25.7714 26.1744 25.0978C26.6507 24.4242 26.9327 23.6326 26.9895 22.8095C27.0463 21.9865 26.8757 21.1637 26.4964 20.431C26.1172 19.6984 25.5438 19.0841 24.839 18.6553C24.1341 18.2265 23.325 17.9997 22.5 17.9998Z" fill="#1C1C1E"/>
</svg>
