<svg width="32" height="32" viewBox="0 0 32 32" fill="none" xmlns="http://www.w3.org/2000/svg">
<path d="M26.6728 27.74C26.4765 27.9183 26.2174 28.0114 25.9525 27.9988C25.6876 27.9861 25.4386 27.8687 25.2603 27.6725L24.9778 27.3625C24.8892 28.0899 24.5375 28.7598 23.989 29.2457C23.4404 29.7315 22.733 29.9999 22.0003 30H10.0003C9.2046 30 8.44154 29.6839 7.87893 29.1213C7.31632 28.5587 7.00025 27.7956 7.00025 27V7.58625L5.26025 5.6725C5.17008 5.57564 5.10004 5.46185 5.05417 5.33772C5.00831 5.2136 4.98754 5.0816 4.99306 4.94938C4.99858 4.81717 5.03029 4.68736 5.08635 4.56749C5.14241 4.44762 5.22171 4.34007 5.31964 4.25107C5.41757 4.16208 5.53219 4.0934 5.65686 4.04902C5.78153 4.00465 5.91377 3.98546 6.04591 3.99257C6.17805 3.99968 6.30746 4.03294 6.42665 4.09044C6.54584 4.14793 6.65243 4.22851 6.74025 4.3275L26.7403 26.3275C26.9186 26.5238 27.0117 26.7828 26.999 27.0477C26.9864 27.3126 26.869 27.5616 26.6728 27.74ZM23.2603 19.5263C23.396 19.6756 23.5738 19.7804 23.7702 19.8268C23.9666 19.8733 24.1725 19.8592 24.3608 19.7864C24.549 19.7136 24.7109 19.5856 24.825 19.4191C24.9391 19.2527 25.0002 19.0556 25.0003 18.8538V5C25.0003 4.20435 24.6842 3.44129 24.1216 2.87868C23.559 2.31607 22.7959 2 22.0003 2H9.58775C9.39405 2.00002 9.20452 2.05629 9.0422 2.16199C8.87987 2.26768 8.75174 2.41825 8.67336 2.59538C8.59499 2.77252 8.56974 2.96861 8.6007 3.15982C8.63166 3.35104 8.71749 3.52914 8.84775 3.6725L23.2603 19.5263Z" fill="#1C1C1E"/>
</svg>
