<svg width="32" height="32" viewBox="0 0 32 32" fill="none" xmlns="http://www.w3.org/2000/svg">
<path d="M25.7073 27.7075L22.7073 30.7075C22.5675 30.8475 22.3892 30.9429 22.1951 30.9815C22.001 31.0202 21.7998 31.0004 21.617 30.9246C21.4342 30.8489 21.278 30.7206 21.1681 30.556C21.0582 30.3914 20.9997 30.1979 20.9998 30V28H9.99981C9.20416 28 8.4411 27.6839 7.87849 27.1213C7.31588 26.5587 6.99981 25.7957 6.99981 25V13C6.99981 12.7348 7.10517 12.4804 7.2927 12.2929C7.48024 12.1054 7.73459 12 7.99981 12C8.26503 12 8.51938 12.1054 8.70692 12.2929C8.89445 12.4804 8.99981 12.7348 8.99981 13V25C8.99981 25.2652 9.10517 25.5196 9.2927 25.7071C9.48024 25.8946 9.73459 26 9.99981 26H20.9998V24C20.9997 23.8021 21.0582 23.6086 21.1681 23.444C21.278 23.2794 21.4342 23.1511 21.617 23.0754C21.7998 22.9996 22.001 22.9798 22.1951 23.0185C22.3892 23.0571 22.5675 23.1525 22.7073 23.2925L25.7073 26.2925C25.8003 26.3854 25.874 26.4957 25.9244 26.6171C25.9747 26.7385 26.0006 26.8686 26.0006 27C26.0006 27.1314 25.9747 27.2615 25.9244 27.3829C25.874 27.5043 25.8003 27.6146 25.7073 27.7075ZM9.99981 9C10.265 9 10.5194 8.89464 10.7069 8.70711C10.8945 8.51957 10.9998 8.26522 10.9998 8V6H21.9998C22.265 6 22.5194 6.10536 22.7069 6.29289C22.8945 6.48043 22.9998 6.73479 22.9998 7V19C22.9998 19.2652 23.1052 19.5196 23.2927 19.7071C23.4802 19.8946 23.7346 20 23.9998 20C24.265 20 24.5194 19.8946 24.7069 19.7071C24.8945 19.5196 24.9998 19.2652 24.9998 19V7C24.9998 6.20435 24.6837 5.44129 24.1211 4.87868C23.5585 4.31607 22.7955 4 21.9998 4H10.9998V2C11 1.80211 10.9414 1.60861 10.8315 1.44402C10.7217 1.27943 10.5654 1.15113 10.3826 1.07538C10.1998 0.999627 9.99859 0.979822 9.8045 1.01847C9.61042 1.05712 9.43217 1.15249 9.29231 1.2925L6.29231 4.2925C6.19933 4.38537 6.12557 4.49566 6.07525 4.61706C6.02493 4.73846 5.99902 4.86859 5.99902 5C5.99902 5.13142 6.02493 5.26154 6.07525 5.38294C6.12557 5.50434 6.19933 5.61463 6.29231 5.7075L9.29231 8.7075C9.38525 8.80034 9.49557 8.87395 9.61696 8.92414C9.73836 8.97433 9.86845 9.0001 9.99981 9Z" fill="#1C1C1E"/>
</svg>
