<svg width="32" height="32" viewBox="0 0 32 32" fill="none" xmlns="http://www.w3.org/2000/svg">
<path d="M30.0004 16.0001C30.0011 16.262 29.9499 16.5215 29.8497 16.7635C29.7495 17.0055 29.6023 17.2253 29.4166 17.4101L17.4104 29.4176C17.0356 29.7901 16.5287 29.9991 16.0004 29.9991C15.472 29.9991 14.9651 29.7901 14.5904 29.4176L2.59037 17.4101C2.21787 17.0353 2.00879 16.5284 2.00879 16.0001C2.00879 15.4717 2.21787 14.9648 2.59037 14.5901L14.5966 2.58256C14.9713 2.21006 15.4783 2.00098 16.0066 2.00098C16.535 2.00098 17.0419 2.21006 17.4166 2.58256L29.4229 14.5901C29.6074 14.7753 29.7535 14.9953 29.8526 15.2373C29.9517 15.4793 30.0019 15.7386 30.0004 16.0001Z" fill="#1C1C1E"/>
</svg>
