<svg width="32" height="32" viewBox="0 0 32 32" fill="none" xmlns="http://www.w3.org/2000/svg">
<path d="M30.9383 21.7985L27.2496 7.24976C27.1525 6.871 26.9471 6.52879 26.6584 6.26502C26.3698 6.00126 26.0105 5.82741 25.6246 5.76476L21.1171 5.02476C20.6202 4.94483 20.1113 5.05258 19.6894 5.32705C19.2676 5.60152 18.9629 6.02308 18.8346 6.50976L18.8083 6.61601C18.7913 6.68351 18.7886 6.75382 18.8004 6.82243C18.8121 6.89104 18.838 6.95645 18.8765 7.01446C18.915 7.07247 18.9652 7.1218 19.0238 7.15931C19.0824 7.19681 19.1483 7.22166 19.2171 7.23226C20.2514 7.38405 21.2718 7.61898 22.2683 7.93476C22.5175 8.00993 22.7287 8.17704 22.8591 8.40221C22.9896 8.62738 23.0295 8.89373 22.9708 9.14726C22.9371 9.27937 22.8767 9.40319 22.7933 9.5111C22.71 9.61902 22.6055 9.70875 22.4862 9.77478C22.3669 9.84081 22.2353 9.88174 22.0996 9.89507C21.9639 9.90839 21.8269 9.89382 21.6971 9.85226C17.9994 8.71824 14.0473 8.71388 10.3471 9.83976C10.0967 9.92395 9.82344 9.90846 9.58415 9.7965C9.34486 9.68454 9.1579 9.4847 9.06207 9.23851C9.01653 9.11217 8.9969 8.97796 9.00435 8.84388C9.01181 8.70979 9.04619 8.57858 9.10545 8.45807C9.16471 8.33757 9.24764 8.23023 9.34929 8.14247C9.45093 8.0547 9.56921 7.98831 9.69707 7.94726C10.7061 7.62587 11.7395 7.38675 12.7871 7.23226C12.8559 7.22166 12.9217 7.19681 12.9803 7.15931C13.039 7.1218 13.0892 7.07247 13.1276 7.01446C13.1661 6.95645 13.192 6.89104 13.2038 6.82243C13.2155 6.75382 13.2128 6.68351 13.1958 6.61601L13.1696 6.50976C13.0413 6.02267 12.7361 5.60084 12.3137 5.32652C11.8912 5.0522 11.3817 4.94507 10.8846 5.02601L6.37457 5.76601C5.98879 5.82856 5.62961 6.00223 5.341 6.26576C5.05238 6.52928 4.84686 6.87123 4.74957 7.24976L1.06082 21.7985C0.945165 22.2558 0.995502 22.7393 1.20288 23.163C1.41026 23.5867 1.76122 23.9231 2.19332 24.1123L10.5683 27.826C10.8202 27.938 11.0922 27.9972 11.3678 28.0002C11.6434 28.0031 11.9166 27.9497 12.1708 27.8432C12.425 27.7366 12.6546 27.5792 12.8458 27.3807C13.0369 27.1821 13.1853 26.9466 13.2821 26.6885L13.7183 25.5073C13.7443 25.4365 13.754 25.3608 13.7466 25.2858C13.7392 25.2108 13.7149 25.1384 13.6756 25.0741C13.6363 25.0098 13.583 24.9552 13.5196 24.9144C13.4562 24.8736 13.3844 24.8476 13.3096 24.8385C12.0952 24.6915 10.8972 24.432 9.73082 24.0635C9.48272 23.9881 9.27241 23.8215 9.14228 23.5972C9.01216 23.3729 8.97188 23.1076 9.02957 22.8548C9.06301 22.7223 9.12325 22.5981 9.20656 22.4898C9.28987 22.3815 9.39449 22.2914 9.51396 22.2251C9.63344 22.1588 9.76523 22.1177 9.90121 22.1043C10.0372 22.0909 10.1745 22.1055 10.3046 22.1473C14.0162 23.2839 17.983 23.2839 21.6946 22.1473C21.8245 22.1057 21.9616 22.0912 22.0974 22.1046C22.2331 22.118 22.3647 22.159 22.484 22.2252C22.6033 22.2913 22.7079 22.3812 22.7911 22.4893C22.8744 22.5973 22.9347 22.7213 22.9683 22.8535C23.0267 23.1065 22.9867 23.3723 22.8565 23.5969C22.7263 23.8216 22.5156 23.9883 22.2671 24.0635C21.1012 24.4321 19.9035 24.6916 18.6896 24.8385C18.6148 24.8476 18.543 24.8736 18.4796 24.9144C18.4162 24.9552 18.3628 25.0098 18.3235 25.0741C18.2842 25.1384 18.26 25.2108 18.2526 25.2858C18.2452 25.3608 18.2548 25.4365 18.2808 25.5073L18.7171 26.6885C18.814 26.9464 18.9625 27.1819 19.1537 27.3803C19.3448 27.5788 19.5745 27.7361 19.8286 27.8426C20.0827 27.9492 20.3559 28.0026 20.6314 27.9998C20.9069 27.9969 21.179 27.9378 21.4308 27.826L29.8058 24.1123C30.2379 23.9231 30.5889 23.5867 30.7963 23.163C31.0036 22.7393 31.054 22.2558 30.9383 21.7985ZM11.4996 18.9998C11.2029 18.9998 10.9129 18.9118 10.6662 18.747C10.4195 18.5821 10.2273 18.3479 10.1138 18.0738C10.0002 17.7997 9.97052 17.4981 10.0284 17.2071C10.0863 16.9161 10.2291 16.6489 10.4389 16.4391C10.6487 16.2293 10.916 16.0865 11.2069 16.0286C11.4979 15.9707 11.7995 16.0004 12.0736 16.1139C12.3477 16.2275 12.582 16.4197 12.7468 16.6664C12.9116 16.9131 12.9996 17.2031 12.9996 17.4998C12.9996 17.8976 12.8415 18.2791 12.5602 18.5604C12.2789 18.8417 11.8974 18.9998 11.4996 18.9998ZM20.4996 18.9998C20.2029 18.9998 19.9129 18.9118 19.6662 18.747C19.4195 18.5821 19.2273 18.3479 19.1138 18.0738C19.0002 17.7997 18.9705 17.4981 19.0284 17.2071C19.0863 16.9161 19.2291 16.6489 19.4389 16.4391C19.6487 16.2293 19.916 16.0865 20.2069 16.0286C20.4979 15.9707 20.7995 16.0004 21.0736 16.1139C21.3477 16.2275 21.582 16.4197 21.7468 16.6664C21.9116 16.9131 21.9996 17.2031 21.9996 17.4998C21.9996 17.8976 21.8415 18.2791 21.5602 18.5604C21.2789 18.8417 20.8974 18.9998 20.4996 18.9998Z" fill="#1C1C1E"/>
</svg>
