<svg width="32" height="32" viewBox="0 0 32 32" fill="none" xmlns="http://www.w3.org/2000/svg">
<path d="M29.9636 15.6254L27.9111 4.62545C27.8609 4.35732 27.7565 4.10228 27.6041 3.87602C27.4517 3.64976 27.2547 3.45706 27.0251 3.30978C26.7955 3.16249 26.5382 3.06372 26.269 3.01955C25.9998 2.97539 25.7245 2.98675 25.4598 3.05295L25.4211 3.0642L18.8561 5.00045H13.1436L6.57859 3.07045L6.53984 3.0592C6.27521 2.993 5.99984 2.98164 5.73066 3.0258C5.46148 3.06997 5.20418 3.16874 4.97458 3.31603C4.74499 3.46331 4.54795 3.65601 4.39558 3.88227C4.24321 4.10853 4.13874 4.36357 4.08859 4.6317L2.03609 15.6254C1.94832 16.0657 2.01347 16.5228 2.22077 16.921C2.42806 17.3193 2.76509 17.6348 3.17609 17.8154C3.4393 17.9362 3.72527 17.9992 4.01484 18.0004C4.36143 18.0003 4.70161 17.907 4.99984 17.7304V23.0004C4.99984 24.3265 5.52662 25.5983 6.4643 26.536C7.40199 27.4737 8.67376 28.0004 9.99984 28.0004H21.9998C23.3259 28.0004 24.5977 27.4737 25.5354 26.536C26.4731 25.5983 26.9998 24.3265 26.9998 23.0004V17.7317C27.2977 17.908 27.6374 18.0012 27.9836 18.0017C28.2735 18.0009 28.5598 17.9382 28.8236 17.8179C29.2351 17.6372 29.5725 17.3213 29.7798 16.9225C29.9871 16.5237 30.052 16.0661 29.9636 15.6254ZM21.9998 26.0004H16.9998V24.4142L18.7073 22.7079C18.895 22.5203 19.0004 22.2658 19.0004 22.0004C19.0004 21.7351 18.895 21.4806 18.7073 21.2929C18.5197 21.1053 18.2652 20.9999 17.9998 20.9999C17.7345 20.9999 17.48 21.1053 17.2923 21.2929L15.9998 22.5867L14.7073 21.2929C14.5197 21.1053 14.2652 20.9999 13.9998 20.9999C13.7345 20.9999 13.48 21.1053 13.2923 21.2929C13.1047 21.4806 12.9993 21.7351 12.9993 22.0004C12.9993 22.2658 13.1047 22.5203 13.2923 22.7079L14.9998 24.4142V26.0004H9.99984C9.20419 26.0004 8.44113 25.6844 7.87852 25.1218C7.31591 24.5592 6.99984 23.7961 6.99984 23.0004V15.3892L13.4911 7.00045H18.5086L24.9998 15.3892V23.0004C24.9998 23.7961 24.6838 24.5592 24.1212 25.1218C23.5585 25.6844 22.7955 26.0004 21.9998 26.0004ZM12.9998 17.5004C12.9998 17.7971 12.9119 18.0871 12.747 18.3338C12.5822 18.5805 12.348 18.7727 12.0739 18.8863C11.7998 18.9998 11.4982 19.0295 11.2072 18.9716C10.9162 18.9137 10.649 18.7709 10.4392 18.5611C10.2294 18.3513 10.0865 18.0841 10.0287 17.7931C9.97078 17.5021 10.0005 17.2005 10.114 16.9264C10.2275 16.6523 10.4198 16.4181 10.6665 16.2532C10.9132 16.0884 11.2032 16.0004 11.4998 16.0004C11.8977 16.0004 12.2792 16.1585 12.5605 16.4398C12.8418 16.7211 12.9998 17.1026 12.9998 17.5004ZM21.9998 17.5004C21.9998 17.7971 21.9119 18.0871 21.747 18.3338C21.5822 18.5805 21.348 18.7727 21.0739 18.8863C20.7998 18.9998 20.4982 19.0295 20.2072 18.9716C19.9162 18.9137 19.649 18.7709 19.4392 18.5611C19.2294 18.3513 19.0865 18.0841 19.0287 17.7931C18.9708 17.5021 19.0005 17.2005 19.114 16.9264C19.2276 16.6523 19.4198 16.4181 19.6665 16.2532C19.9132 16.0884 20.2032 16.0004 20.4998 16.0004C20.8977 16.0004 21.2792 16.1585 21.5605 16.4398C21.8418 16.7211 21.9998 17.1026 21.9998 17.5004Z" fill="#1C1C1E"/>
</svg>
