<svg width="32" height="33" viewBox="0 0 32 33" fill="none" xmlns="http://www.w3.org/2000/svg">
<path d="M8.28287 10.0309C8.14499 9.8055 8.05546 9.55386 8.01995 9.29199C7.98445 9.03011 8.00375 8.76372 8.07662 8.5097C8.1262 8.29881 8.21069 8.0977 8.32662 7.9147L11.0004 4.0897V1.0022C11.0001 0.86511 11.028 0.729424 11.0823 0.603569C11.1367 0.477713 11.2163 0.364376 11.3163 0.270596C11.4163 0.176817 11.5345 0.104598 11.6636 0.058426C11.7926 0.012254 11.9298 -0.00688522 12.0666 0.00219718C12.3242 0.0243153 12.5638 0.143304 12.7371 0.335157C12.9104 0.52701 13.0045 0.777448 13.0004 1.03595V4.0547L13.6566 4.8772C13.9423 5.23548 14.3065 5.52328 14.7212 5.71835C15.1358 5.91342 15.5897 6.01054 16.0479 6.0022C16.5003 5.9894 16.9444 5.87716 17.3486 5.67344C17.7528 5.46972 18.1072 5.17952 18.3866 4.82345L19.0004 4.0547V1.0022C19.0001 0.86511 19.028 0.729424 19.0823 0.603569C19.1367 0.477713 19.2163 0.364376 19.3163 0.270596C19.4163 0.176817 19.5345 0.104598 19.6636 0.058426C19.7926 0.012254 19.9298 -0.00688522 20.0666 0.00219718C20.3242 0.0243153 20.5638 0.143304 20.7371 0.335157C20.9104 0.52701 21.0045 0.777448 21.0004 1.03595V4.0897L23.6779 7.9147C23.7938 8.0977 23.8783 8.29881 23.9279 8.5097C24.0007 8.76372 24.02 9.03011 23.9845 9.29199C23.949 9.55386 23.8595 9.8055 23.7216 10.0309C23.7166 10.0382 23.712 10.0457 23.7079 10.0534L21.9766 12.7709C21.931 12.8425 21.868 12.9013 21.7934 12.9417C21.7188 12.9822 21.6352 13.003 21.5504 13.0022H10.4504C10.3662 13.0023 10.2833 12.9812 10.2094 12.9408C10.1356 12.9004 10.0731 12.8419 10.0279 12.7709L8.29662 10.0534C8.2925 10.0457 8.28791 10.0382 8.28287 10.0309ZM26.8454 26.2259C26.8402 26.2113 26.8339 26.1971 26.8266 26.1834L21.7116 15.2897C21.6712 15.2036 21.607 15.1308 21.5266 15.0798C21.4463 15.0289 21.353 15.002 21.2579 15.0022H10.7429C10.6477 15.002 10.5545 15.0289 10.4741 15.0798C10.3937 15.1308 10.3296 15.2036 10.2891 15.2897L5.17412 26.1834C5.16684 26.1971 5.16057 26.2113 5.15537 26.2259C5.04633 26.4889 4.99397 26.7718 5.00173 27.0564C5.00948 27.3409 5.07717 27.6206 5.20037 27.8772C5.3646 28.2147 5.6205 28.4992 5.93881 28.6982C6.25713 28.8971 6.625 29.0025 7.00037 29.0022H25.0004C25.3755 29.0023 25.7431 28.8968 26.0612 28.6979C26.3793 28.4989 26.635 28.2145 26.7991 27.8772C26.9225 27.6207 26.9904 27.341 26.9984 27.0565C27.0064 26.772 26.9542 26.489 26.8454 26.2259Z" fill="#1C1C1E"/>
</svg>
