<svg width="32" height="32" viewBox="0 0 32 32" fill="none" xmlns="http://www.w3.org/2000/svg">
<path d="M23.708 9.7076L20.0005 13.4138V18.5863L23.708 22.2926C23.8009 22.3855 23.8746 22.4958 23.9249 22.6172C23.9752 22.7386 24.001 22.8687 24.001 23.0001C24.001 23.1315 23.9752 23.2616 23.9249 23.383C23.8746 23.5044 23.8009 23.6147 23.708 23.7076C23.6151 23.8005 23.5048 23.8742 23.3834 23.9245C23.262 23.9748 23.1319 24.0007 23.0005 24.0007C22.8691 24.0007 22.739 23.9748 22.6176 23.9245C22.4962 23.8742 22.3859 23.8005 22.293 23.7076L18.5867 20.0001H13.4142L9.70799 23.7076C9.52035 23.8952 9.26585 24.0007 9.00049 24.0007C8.73512 24.0007 8.48063 23.8952 8.29299 23.7076C8.10535 23.52 7.99993 23.2655 7.99993 23.0001C7.99993 22.7347 8.10535 22.4802 8.29299 22.2926L12.0005 18.5863V13.4138L8.29299 9.7076C8.10535 9.51996 7.99993 9.26546 7.99993 9.0001C7.99993 8.73473 8.10535 8.48024 8.29299 8.2926C8.48063 8.10496 8.73512 7.99954 9.00049 7.99954C9.26585 7.99954 9.52035 8.10496 9.70799 8.2926L13.4142 12.0001H18.5867L22.293 8.2926C22.4806 8.10496 22.7351 7.99954 23.0005 7.99954C23.2659 7.99954 23.5203 8.10496 23.708 8.2926C23.8956 8.48024 24.001 8.73473 24.001 9.0001C24.001 9.26546 23.8956 9.51996 23.708 9.7076ZM17.923 8.9426C18.173 9.03107 18.4478 9.01664 18.6872 8.90248C18.9265 8.78833 19.1107 8.58379 19.1992 8.33385C19.3965 7.77665 19.7317 7.27849 20.1736 6.88584C20.6154 6.49319 21.1495 6.21884 21.726 6.08838C22.3025 5.95791 22.9027 5.97559 23.4706 6.13975C24.0384 6.30392 24.5554 6.60922 24.9734 7.02719C25.3914 7.44516 25.6967 7.96218 25.8608 8.53002C26.025 9.09787 26.0427 9.69804 25.9122 10.2746C25.7817 10.8511 25.5074 11.3852 25.1147 11.827C24.7221 12.2689 24.2239 12.6041 23.6667 12.8013C23.4399 12.8768 23.2475 13.031 23.1246 13.2361C23.0017 13.4411 22.9563 13.6834 22.9966 13.9191C23.037 14.1547 23.1604 14.3681 23.3446 14.5206C23.5288 14.673 23.7614 14.7545 24.0005 14.7501C24.1142 14.7504 24.2272 14.7309 24.3342 14.6926C25.2099 14.3826 25.9928 13.8559 26.6099 13.1616C27.227 12.4673 27.6582 11.628 27.8633 10.722C28.0684 9.81602 28.0407 8.87284 27.7827 7.98046C27.5247 7.08808 27.045 6.27557 26.3881 5.61873C25.7313 4.96188 24.9188 4.4821 24.0264 4.22414C23.134 3.96618 22.1908 3.93844 21.2848 4.14351C20.3788 4.34859 19.5395 4.77979 18.8452 5.3969C18.1509 6.01401 17.6242 6.79692 17.3142 7.6726C17.2277 7.92178 17.2431 8.19507 17.3571 8.43294C17.4711 8.67081 17.6745 8.85399 17.923 8.9426ZM24.3342 17.3176C24.0856 17.2344 23.8142 17.2522 23.5786 17.3671C23.3429 17.4821 23.1618 17.685 23.0743 17.9321C22.9868 18.1793 22.9998 18.4509 23.1106 18.6885C23.2214 18.9262 23.4211 19.1108 23.6667 19.2026C24.2239 19.3999 24.7221 19.7351 25.1147 20.1769C25.5074 20.6188 25.7817 21.1529 25.9122 21.7294C26.0427 22.3059 26.025 22.9061 25.8608 23.4739C25.6967 24.0418 25.3914 24.5588 24.9734 24.9768C24.5554 25.3947 24.0384 25.7 23.4706 25.8642C22.9027 26.0284 22.3025 26.046 21.726 25.9156C21.1495 25.7851 20.6154 25.5107 20.1736 25.1181C19.7317 24.7255 19.3965 24.2273 19.1992 23.6701C19.1074 23.4245 18.9228 23.2248 18.6852 23.114C18.4476 23.0032 18.1759 22.9901 17.9288 23.0777C17.6816 23.1652 17.4787 23.3463 17.3638 23.5819C17.2488 23.8176 17.231 24.0889 17.3142 24.3376C17.6242 25.2133 18.1509 25.9962 18.8452 26.6133C19.5395 27.2304 20.3788 27.6616 21.2848 27.8667C22.1908 28.0717 23.134 28.044 24.0264 27.7861C24.9188 27.5281 25.7313 27.0483 26.3881 26.3915C27.045 25.7346 27.5247 24.9221 27.7827 24.0297C28.0407 23.1374 28.0684 22.1942 27.8633 21.2882C27.6582 20.3822 27.227 19.5429 26.6099 18.8486C25.9928 18.1543 25.2099 17.6276 24.3342 17.3176ZM14.0842 23.0676C13.8343 22.9791 13.5594 22.9936 13.3201 23.1077C13.0807 23.2219 12.8965 23.4264 12.808 23.6763C12.6107 24.2335 12.2755 24.7317 11.8337 25.1244C11.3918 25.517 10.8577 25.7914 10.2812 25.9218C9.70468 26.0523 9.10451 26.0346 8.53666 25.8704C7.96882 25.7063 7.4518 25.401 7.03383 24.983C6.61586 24.565 6.31056 24.048 6.14639 23.4802C5.98223 22.9123 5.96455 22.3122 6.09502 21.7356C6.22548 21.1591 6.49983 20.625 6.89248 20.1832C7.28513 19.7413 7.78329 19.4061 8.34049 19.2088C8.58608 19.117 8.78578 18.9324 8.89659 18.6948C9.0074 18.4572 9.02045 18.1855 8.93293 17.9384C8.84541 17.6912 8.66432 17.4883 8.42866 17.3734C8.193 17.2584 7.92163 17.2407 7.67299 17.3238C6.79731 17.6338 6.0144 18.1605 5.39729 18.8548C4.78018 19.5491 4.34898 20.3884 4.14391 21.2944C3.93883 22.2004 3.96657 23.1436 4.22453 24.036C4.48249 24.9284 4.96227 25.7409 5.61912 26.3977C6.27596 27.0546 7.08847 27.5343 7.98085 27.7923C8.87323 28.0503 9.81641 28.078 10.7224 27.8729C11.6284 27.6679 12.4677 27.2367 13.162 26.6195C13.8563 26.0024 14.383 25.2195 14.693 24.3438C14.7382 24.2191 14.7581 24.0866 14.7516 23.954C14.745 23.8215 14.7122 23.6916 14.655 23.5719C14.5977 23.4522 14.5172 23.345 14.4182 23.2567C14.3191 23.1684 14.2035 23.1007 14.078 23.0576L14.0842 23.0676ZM7.67299 14.6926C7.77809 14.7302 7.88885 14.7497 8.00049 14.7501C8.23626 14.75 8.46442 14.6666 8.64467 14.5146C8.82492 14.3626 8.94566 14.1518 8.98559 13.9194C9.02551 13.6871 8.98205 13.4481 8.86287 13.2446C8.74369 13.0412 8.55646 12.8864 8.33424 12.8076C7.77704 12.6103 7.27888 12.2751 6.88623 11.8333C6.49358 11.3914 6.21923 10.8573 6.08877 10.2808C5.9583 9.70429 5.97598 9.10412 6.14014 8.53627C6.30431 7.96843 6.60961 7.45141 7.02758 7.03344C7.44555 6.61547 7.96257 6.31016 8.53041 6.146C9.09826 5.98184 9.69843 5.96416 10.275 6.09463C10.8515 6.22509 11.3856 6.49944 11.8274 6.89209C12.2692 7.28474 12.6044 7.7829 12.8017 8.3401C12.8439 8.46603 12.9107 8.5823 12.9982 8.68214C13.0858 8.78198 13.1923 8.86338 13.3117 8.92159C13.431 8.9798 13.5608 9.01366 13.6934 9.02119C13.8259 9.02872 13.9587 9.00977 14.0839 8.96544C14.209 8.92112 14.3241 8.85231 14.4224 8.76302C14.5207 8.67374 14.6002 8.56577 14.6564 8.44542C14.7125 8.32507 14.7441 8.19475 14.7493 8.06206C14.7545 7.92938 14.7332 7.79698 14.6867 7.6726C14.3768 6.79692 13.8501 6.01401 13.1558 5.3969C12.4615 4.77979 11.6222 4.34859 10.7162 4.14351C9.81016 3.93844 8.86698 3.96618 7.9746 4.22414C7.08222 4.4821 6.26971 4.96188 5.61287 5.61873C4.95602 6.27557 4.47624 7.08808 4.21828 7.98046C3.96032 8.87284 3.93258 9.81602 4.13765 10.722C4.34273 11.628 4.77393 12.4673 5.39104 13.1616C6.00815 13.8559 6.79106 14.3826 7.66674 14.6926H7.67299Z" fill="#1C1C1E"/>
</svg>
