<svg width="32" height="32" viewBox="0 0 32 32" fill="none" xmlns="http://www.w3.org/2000/svg">
<path d="M21.75 5.96847C20.206 4.18526 18.4682 2.57954 16.5688 1.18097C16.4006 1.06318 16.2003 1 15.995 1C15.7897 1 15.5894 1.06318 15.4213 1.18097C13.5253 2.58012 11.7909 4.18583 10.25 5.96847C6.81375 9.91472 5 14.0747 5 17.9997C5 20.9171 6.15893 23.715 8.22183 25.7779C10.2847 27.8408 13.0826 28.9997 16 28.9997C18.9174 28.9997 21.7153 27.8408 23.7782 25.7779C25.8411 23.715 27 20.9171 27 17.9997C27 14.0747 25.1863 9.91472 21.75 5.96847Z" fill="#1C1C1E"/>
</svg>
