<svg width="32" height="32" viewBox="0 0 32 32" fill="none" xmlns="http://www.w3.org/2000/svg">
<path d="M21.75 5.96847C20.206 4.18526 18.4682 2.57954 16.5688 1.18097C16.4006 1.06318 16.2003 1 15.995 1C15.7897 1 15.5894 1.06318 15.4213 1.18097C13.5253 2.58012 11.7909 4.18583 10.25 5.96847C6.81375 9.91472 5 14.0747 5 17.9997C5 20.9171 6.15893 23.715 8.22183 25.7779C10.2847 27.8408 13.0826 28.9997 16 28.9997C18.9174 28.9997 21.7153 27.8408 23.7782 25.7779C25.8411 23.715 27 20.9171 27 17.9997C27 14.0747 25.1863 9.91472 21.75 5.96847ZM22.9813 19.1672C22.7219 20.6156 22.0251 21.9498 20.9846 22.9901C19.944 24.0304 18.6097 24.727 17.1612 24.986C17.1079 24.9945 17.054 24.9991 17 24.9997C16.7492 24.9997 16.5075 24.9053 16.323 24.7354C16.1384 24.5655 16.0245 24.3325 16.0037 24.0825C15.9829 23.8325 16.0569 23.5839 16.2108 23.3859C16.3648 23.1878 16.5876 23.0549 16.835 23.0135C18.9062 22.6647 20.6637 20.9072 21.015 18.8322C21.0594 18.5707 21.2059 18.3374 21.4223 18.1839C21.6387 18.0303 21.9072 17.969 22.1688 18.0135C22.4303 18.0579 22.6635 18.2044 22.8171 18.4208C22.9706 18.6371 23.0319 18.9056 22.9875 19.1672H22.9813Z" fill="#1C1C1E"/>
</svg>
