<svg width="32" height="32" viewBox="0 0 32 32" fill="none" xmlns="http://www.w3.org/2000/svg">
<path d="M23.4997 14.9999L15.9997 9.99994L22.9447 5.37494C23.109 5.2653 23.3021 5.20679 23.4997 5.20679C23.6972 5.20679 23.8904 5.2653 24.0547 5.37494L29.7497 9.16744C29.8869 9.25872 29.9993 9.38248 30.0771 9.52772C30.1549 9.67296 30.1957 9.83517 30.1957 9.99994C30.1957 10.1647 30.1549 10.3269 30.0771 10.4722C29.9993 10.6174 29.8869 10.7412 29.7497 10.8324L23.4997 14.9999ZM9.05469 5.37494C8.89036 5.2653 8.69723 5.20679 8.49969 5.20679C8.30214 5.20679 8.10902 5.2653 7.94469 5.37494L2.24969 9.16744C2.11252 9.25872 2.00003 9.38248 1.92223 9.52772C1.84442 9.67296 1.80371 9.83517 1.80371 9.99994C1.80371 10.1647 1.84442 10.3269 1.92223 10.4722C2.00003 10.6174 2.11252 10.7412 2.24969 10.8324L8.49969 14.9999L15.9997 9.99994L9.05469 5.37494ZM29.7497 19.1674L23.4997 14.9999L15.9997 19.9999L22.9447 24.6249C23.109 24.7346 23.3021 24.7931 23.4997 24.7931C23.6972 24.7931 23.8904 24.7346 24.0547 24.6249L29.7497 20.8324C29.8869 20.7412 29.9993 20.6174 30.0771 20.4722C30.1549 20.3269 30.1957 20.1647 30.1957 19.9999C30.1957 19.8352 30.1549 19.673 30.0771 19.5277C29.9993 19.3825 29.8869 19.2587 29.7497 19.1674ZM2.24969 19.1674C2.11252 19.2587 2.00003 19.3825 1.92223 19.5277C1.84442 19.673 1.80371 19.8352 1.80371 19.9999C1.80371 20.1647 1.84442 20.3269 1.92223 20.4722C2.00003 20.6174 2.11252 20.7412 2.24969 20.8324L7.94469 24.6249C8.10902 24.7346 8.30214 24.7931 8.49969 24.7931C8.69723 24.7931 8.89036 24.7346 9.05469 24.6249L15.9997 19.9999L8.49969 14.9999L2.24969 19.1674ZM21.0759 25.7862L16.2797 22.5887C16.1975 22.5339 16.101 22.5046 16.0022 22.5046C15.9034 22.5046 15.8069 22.5339 15.7247 22.5887L10.9259 25.7862C10.8576 25.8319 10.8016 25.8937 10.7629 25.9662C10.7241 26.0387 10.7039 26.1196 10.7039 26.2018C10.7039 26.284 10.7241 26.3649 10.7629 26.4374C10.8016 26.5099 10.8576 26.5717 10.9259 26.6174L15.4447 29.6249C15.609 29.7346 15.8021 29.7931 15.9997 29.7931C16.1972 29.7931 16.3904 29.7346 16.5547 29.6249L21.0734 26.6124C21.1407 26.5666 21.1958 26.5049 21.2338 26.433C21.2719 26.361 21.2918 26.2807 21.2918 26.1993C21.2918 26.1179 21.2719 26.0377 21.2338 25.9657C21.1958 25.8937 21.1407 25.8321 21.0734 25.7862H21.0759Z" fill="#1C1C1E"/>
</svg>
