<svg width="32" height="32" viewBox="0 0 32 32" fill="none" xmlns="http://www.w3.org/2000/svg">
<path d="M26.7402 26.3271C26.8303 26.4239 26.9004 26.5377 26.9462 26.6618C26.9921 26.786 27.0129 26.918 27.0074 27.0502C27.0018 27.1824 26.9701 27.3122 26.9141 27.4321C26.858 27.5519 26.7787 27.6595 26.6808 27.7485C26.5828 27.8375 26.4682 27.9062 26.3436 27.9505C26.2189 27.9949 26.0866 28.0141 25.9545 28.007C25.8224 27.9999 25.693 27.9666 25.5738 27.9091C25.4546 27.8516 25.348 27.771 25.2602 27.6721L23.9752 26.2583C24.5022 25.8485 24.9966 25.3984 25.4539 24.9121L26.7402 26.3271ZM8.02516 5.74081L6.74016 4.32706C6.65234 4.22806 6.54575 4.14749 6.42656 4.08999C6.30737 4.0325 6.17796 3.99924 6.04582 3.99213C5.91368 3.98502 5.78144 4.00421 5.65677 4.04858C5.5321 4.09296 5.41748 4.16163 5.31955 4.25063C5.22162 4.33963 5.14232 4.44718 5.08626 4.56705C5.0302 4.68692 4.99849 4.81672 4.99297 4.94894C4.98745 5.08115 5.00822 5.21315 5.05408 5.33728C5.09995 5.46141 5.17 5.5752 5.26016 5.67206L6.54641 7.08706C7.00374 6.60071 7.49815 6.15061 8.02516 5.74081ZM25.4539 24.9121L8.02516 5.74081C10.6088 3.72924 13.8568 2.7674 17.1192 3.04773C20.3816 3.32806 23.4178 4.82988 25.6204 7.25273C27.8231 9.67558 29.0296 12.8408 28.9988 16.115C28.9679 19.3893 27.7018 22.5312 25.4539 24.9121ZM19.8752 12.9996C19.7127 12.37 19.3992 11.7894 18.9619 11.3083C18.5245 10.8272 17.9765 10.4599 17.3652 10.2383C17.1219 10.1691 16.8615 10.1946 16.6363 10.3097C16.4111 10.4248 16.2379 10.6209 16.1516 10.8586C16.0652 11.0963 16.0721 11.3579 16.1709 11.5907C16.2697 11.8235 16.453 12.0102 16.6839 12.1133C16.988 12.2242 17.2606 12.4073 17.4783 12.6468C17.696 12.8863 17.8524 13.1751 17.9339 13.4883C17.9893 13.7028 18.1144 13.8929 18.2895 14.0286C18.4646 14.1644 18.6798 14.2381 18.9014 14.2383C18.9858 14.2385 19.0699 14.2276 19.1514 14.2058C19.4066 14.1406 19.6257 13.9773 19.7612 13.7515C19.8968 13.5256 19.9377 13.2554 19.8752 12.9996ZM24.0002 13.9996C24.0006 12.7133 23.6908 11.4458 23.0971 10.3047C22.5034 9.16361 21.6433 8.18249 20.5898 7.44454C19.5362 6.70658 18.3202 6.23356 17.0449 6.06558C15.7696 5.89759 14.4726 6.0396 13.2639 6.47956C13.0315 6.58188 12.8466 6.76881 12.747 7.00242C12.6473 7.23603 12.6403 7.4988 12.7273 7.73741C12.8143 7.97602 12.9889 8.17258 13.2155 8.28719C13.4421 8.40181 13.7039 8.42589 13.9477 8.35456C14.8546 8.02438 15.8278 7.91788 16.7848 8.04409C17.7417 8.1703 18.654 8.5255 19.4443 9.07955C20.2346 9.63359 20.8797 10.3701 21.3246 11.2266C21.7695 12.0832 22.0013 13.0344 22.0002 13.9996C22.0002 14.2648 22.1055 14.5191 22.2931 14.7067C22.4806 14.8942 22.7349 14.9996 23.0002 14.9996C23.2654 14.9996 23.5197 14.8942 23.7073 14.7067C23.8948 14.5191 24.0002 14.2648 24.0002 13.9996ZM18.5002 20.9996C17.8371 20.9996 17.2012 20.7362 16.7324 20.2673C16.2636 19.7985 16.0002 19.1626 16.0002 18.4996C15.9986 18.2033 16.0407 17.9085 16.1252 17.6246L13.5689 14.8121C13.4033 14.9318 13.2046 14.9974 13.0002 14.9996C12.7349 14.9996 12.4806 14.8942 12.2931 14.7067C12.1055 14.5191 12.0002 14.2648 12.0002 13.9996C12.0002 13.724 12.0287 13.4492 12.0852 13.1796L10.5489 11.4896C10.1853 12.2763 9.99806 13.1329 10.0002 13.9996C10.0002 15.4871 10.8389 16.5621 11.7277 17.6996C12.6027 18.8146 13.5002 19.9683 13.5002 21.4996C13.5 21.992 13.6452 22.4734 13.9177 22.8836C14.1901 23.2938 14.5776 23.6144 15.0315 23.8052C15.4854 23.996 15.9856 24.0484 16.4693 23.956C16.9529 23.8637 17.3985 23.6305 17.7502 23.2858C17.8426 23.1881 17.9538 23.11 18.0771 23.0563C18.2004 23.0026 18.3333 22.9743 18.4678 22.9731C18.6023 22.9719 18.7357 22.9979 18.8599 23.0494C18.9842 23.101 19.0967 23.1771 19.1909 23.2732C19.285 23.3692 19.3588 23.4833 19.4078 23.6086C19.4568 23.7338 19.4801 23.8677 19.4762 24.0022C19.4723 24.1366 19.4413 24.2689 19.385 24.3911C19.3288 24.5133 19.2485 24.6229 19.1489 24.7133C18.516 25.3332 17.7142 25.7525 16.8439 25.9186C15.9737 26.0847 15.0738 25.9903 14.257 25.6471C13.4403 25.3039 12.743 24.7273 12.2525 23.9895C11.7621 23.2517 11.5004 22.3855 11.5002 21.4996C11.5002 20.6571 10.8752 19.8571 10.1514 18.9308C9.19266 17.7033 8.00016 16.1758 8.00016 13.9996C7.99854 12.562 8.38738 11.1509 9.12516 9.91706L6.54641 7.08706C4.29848 9.46794 3.03243 12.6098 3.00155 15.8841C2.97068 19.1583 4.17726 22.3235 6.37989 24.7464C8.58252 27.1692 11.6188 28.6711 14.8812 28.9514C18.1435 29.2317 21.3915 28.2699 23.9752 26.2583L19.1252 20.9208C18.921 20.9735 18.711 21 18.5002 20.9996Z" fill="#1C1C1E"/>
</svg>
