<svg width="32" height="32" viewBox="0 0 32 32" fill="none" xmlns="http://www.w3.org/2000/svg">
<path d="M4.16375 15.7802C4.00833 15.4253 3.96219 15.0322 4.03121 14.6511C4.10023 14.2699 4.28128 13.918 4.55125 13.6402L13.7675 3.95141C14.0563 3.6506 14.403 3.41126 14.7866 3.24777C15.1703 3.08428 15.583 3 16 3C16.417 3 16.8297 3.08428 17.2134 3.24777C17.597 3.41126 17.9437 3.6506 18.2325 3.95141L27.4487 13.6402C27.7187 13.918 27.8998 14.2699 27.9688 14.6511C28.0378 15.0322 27.9917 15.4253 27.8363 15.7802C27.679 16.144 27.4182 16.4537 27.0864 16.6706C26.7546 16.8875 26.3664 17.0021 25.97 17.0002H6.03C5.6336 17.0021 5.24537 16.8875 4.91358 16.6706C4.58178 16.4537 4.32103 16.144 4.16375 15.7802ZM26 19.0002H6C5.46957 19.0002 4.96086 19.2109 4.58579 19.5859C4.21071 19.961 4 20.4697 4 21.0002V23.0002C4 23.5306 4.21071 24.0393 4.58579 24.4144C4.96086 24.7894 5.46957 25.0002 6 25.0002H26C26.5304 25.0002 27.0391 24.7894 27.4142 24.4144C27.7893 24.0393 28 23.5306 28 23.0002V21.0002C28 20.4697 27.7893 19.961 27.4142 19.5859C27.0391 19.2109 26.5304 19.0002 26 19.0002Z" fill="#1C1C1E"/>
</svg>
