<svg width="32" height="32" viewBox="0 0 32 32" fill="none" xmlns="http://www.w3.org/2000/svg">
<path d="M28.1247 10.0499L22.9497 4.87495C22.3871 4.31238 21.6241 3.99634 20.8285 3.99634C20.0328 3.99634 19.2698 4.31238 18.7072 4.87495L3.8747 19.7074C3.31214 20.2701 2.99609 21.0331 2.99609 21.8287C2.99609 22.6243 3.31214 23.3873 3.8747 23.9499L7.6322 27.7074C7.72544 27.8006 7.83616 27.8744 7.95801 27.9246C8.07986 27.9748 8.21042 28.0004 8.3422 27.9999H26.9997C27.2649 27.9999 27.5193 27.8946 27.7068 27.7071C27.8943 27.5195 27.9997 27.2652 27.9997 26.9999C27.9997 26.7347 27.8943 26.4804 27.7068 26.2928C27.5193 26.1053 27.2649 25.9999 26.9997 25.9999H16.4122L28.1247 14.2924C28.6873 13.7298 29.0033 12.9668 29.0033 12.1712C29.0033 11.3756 28.6873 10.6126 28.1247 10.0499ZM26.7085 12.8749L19.9997 19.5862L13.4135 12.9999L20.1247 6.29245C20.2176 6.19947 20.3279 6.12571 20.4493 6.07539C20.5707 6.02506 20.7008 5.99916 20.8322 5.99916C20.9636 5.99916 21.0937 6.02506 21.2151 6.07539C21.3365 6.12571 21.4468 6.19947 21.5397 6.29245L26.7122 11.4649C26.8996 11.6525 27.0049 11.9067 27.0049 12.1718C27.0049 12.4369 26.8996 12.6912 26.7122 12.8787L26.7085 12.8749Z" fill="#1C1C1E"/>
</svg>
