<svg width="32" height="32" viewBox="0 0 32 32" fill="none" xmlns="http://www.w3.org/2000/svg">
<path d="M30.0004 19.9999C29.9989 22.492 29.067 24.8936 27.3872 26.7345C25.7074 28.5753 23.4008 29.7226 20.9194 29.9516C18.4379 30.1806 15.9603 29.4748 13.972 27.9725C11.9837 26.4702 10.628 24.2796 10.1704 21.8299C11.7665 22.1268 13.4108 22.0306 14.9614 21.5497C16.512 21.0688 17.9221 20.2176 19.0701 19.0696C20.218 17.9217 21.0692 16.5115 21.5502 14.9609C22.0311 13.4103 22.1273 11.766 21.8304 10.1699C24.1255 10.5971 26.1988 11.8139 27.691 13.6092C29.1831 15.4046 30.0001 17.6654 30.0004 19.9999ZM20.0004 9.99992C20.6143 10.0005 21.2269 10.0574 21.8304 10.1699C21.4973 8.37918 20.6815 6.71342 19.4709 5.35244C18.2604 3.99147 16.7011 2.98698 14.9614 2.44739C13.2217 1.90781 11.3677 1.85363 9.59943 2.29071C7.8312 2.72778 6.21592 3.63951 4.92796 4.92747C3.63999 6.21543 2.72827 7.83071 2.29119 9.59895C1.85412 11.3672 1.9083 13.2212 2.44788 14.9609C2.98746 16.7006 3.99196 18.2599 5.35293 19.4704C6.71391 20.681 8.37967 21.4968 10.1704 21.8299C9.90174 20.3866 9.95418 18.9017 10.324 17.4809C10.6938 16.0601 11.372 14.7382 12.3103 13.609C13.2486 12.4798 14.424 11.571 15.7531 10.9473C17.0821 10.3235 18.5323 10.0001 20.0004 9.99992Z" fill="#1C1C1E"/>
</svg>
