<svg width="32" height="32" viewBox="0 0 32 32" fill="none" xmlns="http://www.w3.org/2000/svg">
<path d="M27 13.9998V25.9998C27 26.5302 26.7893 27.0389 26.4142 27.414C26.0391 27.7891 25.5304 27.9998 25 27.9998H7C6.46957 27.9998 5.96086 27.7891 5.58579 27.414C5.21071 27.0389 5 26.5302 5 25.9998V13.9998C5 13.4694 5.21071 12.9607 5.58579 12.5856C5.96086 12.2105 6.46957 11.9998 7 11.9998H15V17.9998C15 18.265 15.1054 18.5194 15.2929 18.7069C15.4804 18.8945 15.7348 18.9998 16 18.9998C16.2652 18.9998 16.5196 18.8945 16.7071 18.7069C16.8946 18.5194 17 18.265 17 17.9998V11.9998H25C25.5304 11.9998 26.0391 12.2105 26.4142 12.5856C26.7893 12.9607 27 13.4694 27 13.9998ZM17 5.41356L20.2925 8.70731C20.4801 8.89495 20.7346 9.00037 21 9.00037C21.2654 9.00037 21.5199 8.89495 21.7075 8.70731C21.8951 8.51967 22.0006 8.26517 22.0006 7.99981C22.0006 7.73445 21.8951 7.47995 21.7075 7.29231L16.7075 2.29231C16.6146 2.19933 16.5043 2.12557 16.3829 2.07525C16.2615 2.02493 16.1314 1.99902 16 1.99902C15.8686 1.99902 15.7385 2.02493 15.6171 2.07525C15.4957 2.12557 15.3854 2.19933 15.2925 2.29231L10.2925 7.29231C10.1049 7.47995 9.99944 7.73445 9.99944 7.99981C9.99944 8.26517 10.1049 8.51967 10.2925 8.70731C10.4801 8.89495 10.7346 9.00037 11 9.00037C11.2654 9.00037 11.5199 8.89495 11.7075 8.70731L15 5.41356V11.9998H17V5.41356Z" fill="#1C1C1E"/>
</svg>
