<svg width="32" height="32" viewBox="0 0 32 32" fill="none" xmlns="http://www.w3.org/2000/svg">
<path d="M28.8679 20.5C29.0005 20.7302 29.0363 21.0037 28.9672 21.2603C28.8982 21.5169 28.7301 21.7355 28.4998 21.8681C28.3858 21.9338 28.26 21.9763 28.1295 21.9934C27.9991 22.0104 27.8666 22.0016 27.7395 21.9674C27.4829 21.8984 27.2643 21.7302 27.1317 21.5L24.7567 17.35C23.3771 18.2832 21.8552 18.9865 20.2504 19.4325L20.9842 23.835C21.0058 23.9646 21.0017 24.0972 20.9721 24.2252C20.9425 24.3532 20.8879 24.4742 20.8115 24.5811C20.7351 24.688 20.6384 24.7788 20.5269 24.8483C20.4154 24.9179 20.2913 24.9647 20.1617 24.9862C20.1084 24.995 20.0545 24.9996 20.0004 25C19.7639 24.9996 19.5351 24.9154 19.3547 24.7623C19.1744 24.6092 19.0542 24.3971 19.0154 24.1637L18.2942 19.8412C16.7732 20.0529 15.2302 20.0529 13.7092 19.8412L12.9879 24.1637C12.9491 24.3976 12.8285 24.61 12.6477 24.7631C12.4668 24.9163 12.2374 25.0002 12.0004 25C11.9452 24.9998 11.89 24.9952 11.8354 24.9862C11.7058 24.9647 11.5817 24.9179 11.4702 24.8483C11.3587 24.7788 11.262 24.688 11.1856 24.5811C11.1092 24.4742 11.0546 24.3532 11.025 24.2252C10.9954 24.0972 10.9913 23.9646 11.0129 23.835L11.7504 19.4325C10.145 18.9855 8.62269 18.2809 7.24294 17.3463L4.87544 21.5C4.74283 21.7311 4.52386 21.9 4.2667 21.9696C4.00954 22.0392 3.73526 22.0039 3.50419 21.8713C3.27312 21.7386 3.10419 21.5197 3.03457 21.2625C2.96495 21.0054 3.00033 20.7311 3.13294 20.5L5.63294 16.125C4.7545 15.3667 3.94699 14.5299 3.22044 13.625C3.07655 13.447 2.99805 13.2251 2.99805 12.9963C2.99805 12.7674 3.07655 12.5455 3.22044 12.3675C5.57044 9.465 9.69419 6 16.0004 6C22.3067 6 26.4304 9.465 28.7779 12.375C28.9218 12.553 29.0003 12.7749 29.0003 13.0037C29.0003 13.2326 28.9218 13.4545 28.7779 13.6325C28.0514 14.5374 27.2439 15.3742 26.3654 16.1325L28.8679 20.5Z" fill="#1C1C1E"/>
</svg>
