<svg width="32" height="32" viewBox="0 0 32 32" fill="none" xmlns="http://www.w3.org/2000/svg">
<path d="M12.085 7.23383C12.0259 7.16914 11.9849 7.09007 11.966 7.00453C11.9471 6.919 11.9511 6.83 11.9774 6.74646C12.0037 6.66291 12.0515 6.58775 12.1161 6.5285C12.1806 6.46924 12.2595 6.42798 12.345 6.40883C13.544 6.13485 14.7701 5.99772 16 6.00008C20.36 6.00008 24.3212 7.65758 27.4575 10.7938C29.8112 13.1476 30.87 15.4963 30.9137 15.5951C30.9706 15.723 31 15.8614 31 16.0013C31 16.1413 30.9706 16.2797 30.9137 16.4076C30.87 16.5063 29.8112 18.8538 27.4575 21.2076C27.1008 21.5626 26.7346 21.8988 26.3587 22.2163C26.2599 22.3003 26.1322 22.3425 26.0028 22.3341C25.8733 22.3257 25.7522 22.2674 25.665 22.1713L12.085 7.23383ZM26.74 26.3276C26.8302 26.4244 26.9002 26.5382 26.9461 26.6624C26.9919 26.7865 27.0127 26.9185 27.0072 27.0507C27.0017 27.1829 26.9699 27.3127 26.9139 27.4326C26.8578 27.5525 26.7785 27.66 26.6806 27.749C26.5827 27.838 26.468 27.9067 26.3434 27.9511C26.2187 27.9954 26.0865 28.0146 25.9543 28.0075C25.8222 28.0004 25.6928 27.9671 25.5736 27.9096C25.4544 27.8522 25.3478 27.7716 25.26 27.6726L22.5 24.6413C20.4531 25.5467 18.2381 26.0097 16 26.0001C11.64 26.0001 7.67874 24.3426 4.54249 21.2076C2.18874 18.8538 1.12499 16.5063 1.08624 16.4076C1.02938 16.2797 1 16.1413 1 16.0013C1 15.8614 1.02938 15.723 1.08624 15.5951C1.12499 15.5001 2.18874 13.1476 4.54249 10.7938C5.48285 9.84914 6.53183 9.01919 7.66749 8.32133L5.25999 5.67258C5.16982 5.57573 5.09978 5.46194 5.05391 5.33781C5.00804 5.21368 4.98727 5.08168 4.9928 4.94947C4.99832 4.81725 5.03003 4.68745 5.08609 4.56758C5.14215 4.44771 5.22144 4.34016 5.31938 4.25116C5.41731 4.16216 5.53193 4.09348 5.6566 4.04911C5.78127 4.00473 5.91351 3.98555 6.04564 3.99265C6.17778 3.99976 6.3072 4.03303 6.42639 4.09052C6.54558 4.14801 6.65217 4.22859 6.73999 4.32758L26.74 26.3276ZM18.5537 20.2963L11.9675 13.0463C11.2888 13.9762 10.9518 15.1118 11.0134 16.2613C11.0749 17.4109 11.5312 18.504 12.3053 19.3561C13.0794 20.2081 14.1238 20.767 15.2622 20.9383C16.4006 21.1096 17.5632 20.8829 18.5537 20.2963Z" fill="#1C1C1E"/>
</svg>
