<svg width="32" height="32" viewBox="0 0 32 32" fill="none" xmlns="http://www.w3.org/2000/svg">
<path d="M27.9996 8.41255C27.9928 7.81073 27.8647 7.21646 27.6228 6.66533C27.381 6.11419 27.0304 5.61752 26.5921 5.20505C24.8421 3.54505 22.0021 3.60755 20.2646 5.3463L17.3496 8.27505C16.7793 7.75523 16.0306 7.47518 15.2591 7.4931C14.4876 7.51103 13.7527 7.82555 13.2071 8.3713L12.5821 8.9963C12.3962 9.18205 12.2486 9.40262 12.148 9.64542C12.0473 9.88822 11.9955 10.1485 11.9955 10.4113C11.9955 10.6741 12.0473 10.9344 12.148 11.1772C12.2486 11.42 12.3962 11.6406 12.5821 11.8263L12.8321 12.0838L6.45712 18.4588C5.84349 19.0676 5.39932 19.826 5.16848 20.6591C4.93764 21.4921 4.92812 22.371 5.14087 23.2088L4.14087 25.5101C4.00115 25.826 3.96065 26.177 4.02471 26.5164C4.08876 26.8559 4.25437 27.168 4.49962 27.4113C4.78274 27.6971 5.14595 27.8903 5.54122 27.9653C5.9365 28.0403 6.34522 27.9936 6.71337 27.8313L8.90462 26.8751C9.72722 27.0609 10.5835 27.0351 11.3934 26.8001C12.2034 26.5651 12.9405 26.1286 13.5359 25.5313L19.9109 19.1563L20.1684 19.4138C20.5434 19.7886 21.0519 19.9991 21.5821 19.9991C22.1123 19.9991 22.6208 19.7886 22.9959 19.4138L23.6209 18.7888C24.1676 18.2425 24.4823 17.5063 24.4996 16.7336C24.5168 15.9609 24.2352 15.2114 23.7134 14.6413L26.6821 11.6576C27.1089 11.2332 27.4456 10.7271 27.672 10.1695C27.8984 9.61188 28.0098 9.01429 27.9996 8.41255ZM17.2496 19.0001H8.75837L14.2584 13.5001L18.5009 17.7501L17.2496 19.0001Z" fill="#1C1C1E"/>
</svg>
