<svg width="32" height="32" viewBox="0 0 32 32" fill="none" xmlns="http://www.w3.org/2000/svg">
<path d="M28.9927 15.569C28.7715 8.75773 23.2427 3.22898 16.4315 3.00773C14.6532 2.9504 12.882 3.25841 11.2274 3.91273C9.5728 4.56704 8.07001 5.55376 6.81188 6.81188C5.55376 8.07001 4.56704 9.5728 3.91273 11.2274C3.25841 12.882 2.9504 14.6532 3.00773 16.4315C3.22898 23.2427 8.75773 28.7715 15.569 28.9927C17.3473 29.0501 19.1185 28.7421 20.7731 28.0877C22.4277 27.4334 23.9305 26.4467 25.1886 25.1886C26.4467 23.9305 27.4334 22.4277 28.0877 20.7731C28.7421 19.1185 29.0501 17.3473 28.9927 15.569ZM24.7977 17.684L21.8665 21.7877C21.7679 21.9255 21.6379 22.0378 21.4873 22.1153C21.3366 22.1928 21.1696 22.2332 21.0002 22.2332C20.8308 22.2332 20.6639 22.1928 20.5132 22.1153C20.3625 22.0378 20.2325 21.9255 20.134 21.7877L16.0002 16.0002L11.8665 21.7877C11.7679 21.9255 11.6379 22.0378 11.4873 22.1153C11.3366 22.1928 11.1696 22.2332 11.0002 22.2332C10.8308 22.2332 10.6639 22.1928 10.5132 22.1153C10.3625 22.0378 10.2325 21.9255 10.134 21.7877L7.20273 17.684C7.08909 17.5248 7.02149 17.3374 7.00734 17.1423C6.99319 16.9472 7.03305 16.752 7.12253 16.578C7.21202 16.4041 7.34768 16.2582 7.51463 16.1562C7.68158 16.0543 7.87338 16.0003 8.06898 16.0002H16.0002L12.2027 10.684C12.0891 10.5248 12.0215 10.3374 12.0073 10.1423C11.9932 9.94717 12.033 9.75195 12.1225 9.57802C12.212 9.40408 12.3477 9.25815 12.5146 9.15623C12.6816 9.05431 12.8734 9.00034 13.069 9.00023H18.9315C19.1271 9.00034 19.3189 9.05431 19.4858 9.15623C19.6528 9.25815 19.7884 9.40408 19.8779 9.57802C19.9674 9.75195 20.0073 9.94717 19.9931 10.1423C19.979 10.3374 19.9114 10.5248 19.7977 10.684L16.0002 16.0002H23.9315C24.1271 16.0003 24.3189 16.0543 24.4858 16.1562C24.6528 16.2582 24.7884 16.4041 24.8779 16.578C24.9674 16.752 25.0073 16.9472 24.9931 17.1423C24.979 17.3374 24.9114 17.5248 24.7977 17.684Z" fill="#1C1C1E"/>
</svg>
