<svg width="32" height="32" viewBox="0 0 32 32" fill="none" xmlns="http://www.w3.org/2000/svg">
<path d="M32 15.9997C32.0005 16.3324 31.9167 16.6598 31.7565 16.9514C31.5963 17.243 31.3649 17.4892 31.0837 17.6672L20.06 24.6872C19.76 24.879 19.4141 24.9867 19.0582 24.9992C18.7024 25.0116 18.3498 24.9283 18.0371 24.7579C17.7245 24.5876 17.4633 24.3364 17.2809 24.0306C17.0984 23.7249 17.0014 23.3758 17 23.0197V18.3572L7.06 24.6872C6.76002 24.879 6.41406 24.9867 6.05823 24.9992C5.7024 25.0116 5.34976 24.9283 5.03712 24.7579C4.72448 24.5876 4.46331 24.3364 4.28088 24.0306C4.09844 23.7249 4.00144 23.3758 4 23.0197V8.97971C4.00144 8.62367 4.09844 8.27454 4.28088 7.96878C4.46331 7.66302 4.72448 7.41185 5.03712 7.24148C5.34976 7.07111 5.7024 6.9878 6.05823 7.00024C6.41406 7.01268 6.76002 7.12042 7.06 7.31221L17 13.6422V8.97971C17.0014 8.62367 17.0984 8.27454 17.2809 7.96878C17.4633 7.66302 17.7245 7.41185 18.0371 7.24148C18.3498 7.07111 18.7024 6.9878 19.0582 7.00024C19.4141 7.01268 19.76 7.12042 20.06 7.31221L31.0837 14.3322C31.3649 14.5102 31.5963 14.7564 31.7565 15.048C31.9167 15.3396 32.0005 15.667 32 15.9997Z" fill="#1C1C1E"/>
</svg>
