<svg width="32" height="32" viewBox="0 0 32 32" fill="none" xmlns="http://www.w3.org/2000/svg">
<path d="M26.4806 16.8508L19.0068 24.4096C18.8237 24.5949 18.6057 24.742 18.3654 24.8424C18.1251 24.9428 17.8673 24.9945 17.6068 24.9946H9.41556L5.70806 28.7071C5.61515 28.8 5.50485 28.8737 5.38345 28.924C5.26206 28.9743 5.13195 29.0001 5.00056 29.0001C4.86916 29.0001 4.73905 28.9743 4.61766 28.924C4.49627 28.8737 4.38597 28.8 4.29306 28.7071C4.20015 28.6142 4.12645 28.5039 4.07616 28.3825C4.02588 28.2611 4 28.131 4 27.9996C4 27.8682 4.02588 27.7381 4.07616 27.6167C4.12645 27.4953 4.20015 27.385 4.29306 27.2921L7.11681 24.4696L15.5881 15.9996H26.1256C26.2241 15.9998 26.3204 16.029 26.4024 16.0838C26.4843 16.1385 26.5483 16.2162 26.5862 16.3071C26.6241 16.3981 26.6343 16.4982 26.6155 16.595C26.5967 16.6917 26.5498 16.7807 26.4806 16.8508ZM27.0881 3.82084C25.5537 2.55813 23.6043 1.91167 21.6194 2.00733C19.6346 2.10299 17.7564 2.93393 16.3506 4.33834L15.1506 5.52334C15.056 5.61596 15.0021 5.74227 15.0006 5.87459V13.7496L21.8756 6.87459C22.0646 6.69497 22.3164 6.59631 22.5771 6.59965C22.8379 6.60299 23.087 6.70806 23.2714 6.89246C23.4558 7.07686 23.5609 7.326 23.5642 7.58677C23.5676 7.84753 23.4689 8.09928 23.2893 8.28834L17.5893 13.9996H28.6368C28.7286 13.9998 28.8187 13.9747 28.8972 13.9271C28.9757 13.8794 29.0396 13.8111 29.0818 13.7296C29.9387 12.1004 30.2082 10.2257 29.8451 8.42105C29.482 6.61639 28.5084 4.99188 27.0881 3.82084ZM7.85431 20.9033L13.0006 15.7571V8.84459C13.0004 8.74605 12.9711 8.64975 12.9164 8.5678C12.8617 8.48584 12.784 8.42188 12.693 8.38395C12.6021 8.34602 12.5019 8.33582 12.4052 8.35461C12.3085 8.3734 12.2194 8.42036 12.1493 8.48959L7.58681 12.9996C7.4005 13.1848 7.25277 13.4051 7.15214 13.6478C7.05152 13.8904 6.99999 14.1506 7.00056 14.4133V20.5496C7.00048 20.6485 7.02976 20.7453 7.0847 20.8276C7.13963 20.9099 7.21775 20.974 7.30916 21.0119C7.40057 21.0498 7.50117 21.0597 7.59821 21.0404C7.69525 21.021 7.78438 20.9733 7.85431 20.9033Z" fill="#1C1C1E"/>
</svg>
