<svg width="32" height="32" viewBox="0 0 32 32" fill="none" xmlns="http://www.w3.org/2000/svg">
<path d="M26.4998 11.9997C26.0498 11.9973 25.6036 12.0822 25.186 12.2497L21.3748 7.49218C21.688 7.04096 21.8907 6.52232 21.9664 5.97824C22.0421 5.43416 21.9886 4.87991 21.8103 4.36032C21.6321 3.84073 21.334 3.37039 20.9403 2.98735C20.5465 2.60431 20.0682 2.31933 19.5439 2.15546C19.0196 1.99159 18.464 1.95343 17.9223 2.04407C17.3805 2.1347 16.8676 2.35159 16.4252 2.67719C15.9828 3.00279 15.6232 3.42795 15.3756 3.91829C15.1279 4.40862 14.9992 4.95036 14.9998 5.49968C14.9997 5.62242 15.006 5.74508 15.0185 5.86718L9.20975 8.28718C8.85984 7.858 8.41309 7.51797 7.90621 7.29502C7.39932 7.07208 6.84677 6.97258 6.29396 7.00472C5.74114 7.03686 5.20384 7.1997 4.72621 7.47988C4.24857 7.76005 3.84422 8.14956 3.5464 8.61639C3.24857 9.08323 3.06577 9.61407 3.013 10.1653C2.96023 10.7165 3.03901 11.2724 3.24286 11.7873C3.44671 12.3021 3.76981 12.7613 4.18562 13.127C4.60143 13.4927 5.09808 13.7545 5.63475 13.8909L5.866 19.6884C5.3361 19.8694 4.85735 20.1748 4.46993 20.5791C4.08252 20.9833 3.79776 21.4747 3.63955 22.0118C3.48135 22.5489 3.45432 23.1162 3.56074 23.6659C3.66716 24.2156 3.90392 24.7318 4.25115 25.1711C4.59837 25.6103 5.04592 25.9599 5.55622 26.1904C6.06651 26.4209 6.62466 26.5256 7.1838 26.4957C7.74294 26.4658 8.28674 26.3022 8.76956 26.0186C9.25237 25.735 9.6601 25.3397 9.9585 24.8659L15.9998 26.5584C16.0082 27.1214 16.1524 27.674 16.42 28.1693C16.6876 28.6646 17.0708 29.0881 17.5369 29.4038C18.0031 29.7195 18.5386 29.918 19.0979 29.9826C19.6572 30.0472 20.2238 29.9759 20.7496 29.7748C21.2755 29.5737 21.7451 29.2486 22.1185 28.8273C22.492 28.406 22.7583 27.9008 22.8948 27.3546C23.0314 26.8084 23.0342 26.2374 22.9029 25.6899C22.7717 25.1424 22.5103 24.6346 22.141 24.2097L25.5423 18.8659C26.0237 19.003 26.5289 19.0352 27.0238 18.9604C27.5187 18.8855 27.9918 18.7054 28.4112 18.4322C28.8305 18.159 29.1864 17.7989 29.4548 17.3765C29.7232 16.954 29.8979 16.4788 29.967 15.9831C30.0362 15.4873 29.9981 14.9825 29.8556 14.5027C29.713 14.0229 29.4692 13.5793 29.1406 13.2018C28.8119 12.8242 28.4061 12.5215 27.9506 12.3142C27.495 12.1068 27.0003 11.9996 26.4998 11.9997ZM8.8985 13.0447L14.2148 16.1247L9.03225 20.1522C8.68007 19.9003 8.2842 19.7159 7.86475 19.6084L7.6335 13.8109C8.10494 13.6485 8.53623 13.3873 8.8985 13.0447ZM18.696 8.99968C19.0798 8.97872 19.4574 8.89424 19.8135 8.74968L23.6248 13.5072C23.3817 13.8562 23.2046 14.2468 23.1023 14.6597L17.281 14.9372L18.696 8.99968ZM10.261 21.7309L15.4998 17.6572L17.4923 23.6359C17.1128 23.9035 16.79 24.2433 16.5423 24.6359L10.4998 22.9409C10.4924 22.5266 10.4116 22.117 10.261 21.7309ZM19.4998 22.9997H19.3885L17.366 16.9334L23.1973 16.6559C23.3447 17.069 23.5686 17.4507 23.8573 17.7809L20.456 23.1247C20.1445 23.0391 19.8227 22.997 19.4998 22.9997ZM15.7898 7.71218C16.0585 8.03971 16.3836 8.31656 16.7498 8.52968L15.3373 14.4609L9.9035 11.3147C9.96744 11.0477 9.99974 10.7742 9.99975 10.4997C9.99981 10.3769 9.99355 10.2543 9.981 10.1322L15.7898 7.71218Z" fill="#1C1C1E"/>
</svg>
