<svg width="32" height="32" viewBox="0 0 32 32" fill="none" xmlns="http://www.w3.org/2000/svg">
<path d="M5.50031 15H26.5003C26.6329 15 26.7601 14.9473 26.8539 14.8536C26.9476 14.7598 27.0003 14.6326 27.0003 14.5V11C27.0004 10.8686 26.9746 10.7385 26.9244 10.6172C26.8743 10.4958 26.8006 10.3854 26.7078 10.2925L19.7078 3.2925C19.6149 3.19967 19.5046 3.12605 19.3832 3.07586C19.2618 3.02568 19.1317 2.9999 19.0003 3H7.00031C6.46987 3 5.96116 3.21071 5.58609 3.58579C5.21102 3.96086 5.00031 4.46957 5.00031 5V14.5C5.00031 14.6326 5.05298 14.7598 5.14675 14.8536C5.24052 14.9473 5.3677 15 5.50031 15ZM19.0003 5.5L24.5003 11H19.0003V5.5ZM19.5003 26.0662C19.4779 26.3233 19.3592 26.5624 19.168 26.7355C18.9767 26.9087 18.727 27.0032 18.4691 27H15.0003C14.7351 27 14.4807 26.8946 14.2932 26.7071C14.1057 26.5196 14.0003 26.2652 14.0003 26V19.0338C13.9971 18.7758 14.0916 18.5261 14.2648 18.3349C14.4379 18.1436 14.677 18.0249 14.9341 18.0025C15.0708 17.9934 15.208 18.0126 15.3371 18.0587C15.4662 18.1049 15.5844 18.1771 15.6844 18.2709C15.7844 18.3647 15.864 18.478 15.9184 18.6039C15.9727 18.7297 16.0006 18.8654 16.0003 19.0025V25.0025H18.5003C18.6372 25.0022 18.7726 25.03 18.8983 25.0842C19.024 25.1384 19.1372 25.2178 19.2309 25.3176C19.3247 25.4173 19.397 25.5352 19.4433 25.664C19.4896 25.7927 19.509 25.9297 19.5003 26.0662ZM11.8141 19.5812L9.72906 22.5L11.8141 25.4188C11.9544 25.6346 12.006 25.8963 11.9582 26.1494C11.9104 26.4024 11.7668 26.6272 11.5574 26.777C11.348 26.9268 11.0889 26.9901 10.834 26.9536C10.5791 26.9172 10.3481 26.7838 10.1891 26.5812L8.50031 24.22L6.81405 26.5812C6.74044 26.6945 6.64465 26.7917 6.53245 26.8669C6.42025 26.9421 6.29398 26.9938 6.16125 27.0189C6.02852 27.044 5.89208 27.0419 5.76017 27.0128C5.62826 26.9837 5.50362 26.9282 5.39376 26.8496C5.28389 26.771 5.19109 26.671 5.12096 26.5555C5.05082 26.4401 5.00479 26.3116 4.98566 26.1779C4.96653 26.0442 4.97469 25.908 5.00965 25.7775C5.04461 25.647 5.10564 25.525 5.18906 25.4188L7.27155 22.5L5.18656 19.5812C5.10684 19.4698 5.05087 19.3432 5.02211 19.2093C4.99335 19.0753 4.99243 18.9369 5.01938 18.8026C5.04634 18.6683 5.10061 18.5409 5.17882 18.4285C5.25703 18.316 5.35752 18.2208 5.47406 18.1488C5.69649 18.0177 5.96022 17.9756 6.21241 18.0307C6.4646 18.0859 6.68664 18.2343 6.83405 18.4463L8.50031 20.78L10.1866 18.4188C10.3456 18.2162 10.5766 18.0828 10.8315 18.0464C11.0864 18.0099 11.3455 18.0732 11.5549 18.223C11.7643 18.3728 11.9079 18.5976 11.9557 18.8506C12.0035 19.1037 11.9519 19.3654 11.8116 19.5812H11.8141ZM26.9741 24.5387C26.9353 24.9211 26.8123 25.2902 26.6139 25.6194C26.4155 25.9485 26.1466 26.2297 25.8266 26.4425C25.1778 26.875 24.3678 27 23.6403 27C22.9994 26.9973 22.3614 26.9133 21.7416 26.75C21.4861 26.6786 21.2695 26.5086 21.1394 26.2774C21.0093 26.0463 20.9764 25.7729 21.0478 25.5175C21.1192 25.2621 21.2892 25.0455 21.5204 24.9154C21.7515 24.7853 22.0249 24.7523 22.2803 24.8237C22.8278 24.975 24.1478 25.1625 24.7228 24.78C24.8341 24.705 24.9528 24.59 24.9916 24.2887C25.0341 23.955 24.9016 23.7763 23.3941 23.34C22.2253 23.0025 20.2691 22.4363 20.5191 20.45C20.5577 20.0759 20.6779 19.7147 20.8712 19.3921C21.0644 19.0694 21.3261 18.7931 21.6378 18.5825C23.1178 17.5825 25.4778 18.1687 25.7416 18.2375C25.9982 18.305 26.2174 18.4716 26.3512 18.7007C26.4849 18.9299 26.5221 19.2028 26.4547 19.4594C26.3872 19.716 26.2206 19.9353 25.9914 20.069C25.7623 20.2027 25.4894 20.24 25.2328 20.1725C24.6728 20.0263 23.3303 19.8525 22.7553 20.2425C22.6799 20.2933 22.6179 20.3616 22.5744 20.4414C22.5309 20.5212 22.5072 20.6103 22.5053 20.7013C22.4916 20.8137 22.4891 20.8362 22.6453 20.9387C22.9341 21.125 23.4516 21.2738 23.9516 21.4188C25.1853 21.7713 27.2503 22.375 26.9741 24.5387Z" fill="#1C1C1E"/>
</svg>
