<svg width="32" height="32" viewBox="0 0 32 32" fill="none" xmlns="http://www.w3.org/2000/svg">
<path d="M19.8329 27.445C19.9334 27.5956 19.9911 27.7707 19.9999 27.9516C20.0086 28.1325 19.9681 28.3123 19.8826 28.472C19.7972 28.6316 19.67 28.7651 19.5146 28.8581C19.3592 28.9511 19.1815 29.0001 19.0004 29H3.00039C2.82072 29.0001 2.64435 28.9517 2.48982 28.8601C2.3353 28.7684 2.20832 28.6368 2.12224 28.4791C2.03616 28.3214 1.99416 28.1434 2.00065 27.9639C2.00715 27.7843 2.06189 27.6098 2.15914 27.4587L6.65914 20.4587C6.74968 20.3179 6.87416 20.202 7.02114 20.1217C7.16813 20.0415 7.33292 19.9994 7.50039 19.9994C7.66786 19.9994 7.83265 20.0415 7.97963 20.1217C8.12662 20.202 8.2511 20.3179 8.34164 20.4587L9.56164 22.3563L12.1679 18.445C12.2592 18.3078 12.3829 18.1953 12.5282 18.1175C12.6734 18.0397 12.8356 17.999 13.0004 17.999C13.1652 17.999 13.3274 18.0397 13.4726 18.1175C13.6178 18.1953 13.7416 18.3078 13.8329 18.445L19.8329 27.445ZM27.0004 11V27C27.0004 27.5304 26.7897 28.0391 26.4146 28.4142C26.0395 28.7893 25.5308 29 25.0004 29H24.0004C23.7352 29 23.4808 28.8946 23.2933 28.7071C23.1057 28.5196 23.0004 28.2652 23.0004 28C23.0004 27.7348 23.1057 27.4804 23.2933 27.2929C23.4808 27.1054 23.7352 27 24.0004 27H25.0004V12H19.0004C18.7352 12 18.4808 11.8946 18.2933 11.7071C18.1057 11.5196 18.0004 11.2652 18.0004 11V5H7.00039V16C7.00039 16.2652 6.89503 16.5196 6.7075 16.7071C6.51996 16.8946 6.2656 17 6.00039 17C5.73517 17 5.48082 16.8946 5.29328 16.7071C5.10575 16.5196 5.00039 16.2652 5.00039 16V5C5.00039 4.46957 5.2111 3.96086 5.58617 3.58579C5.96125 3.21071 6.46996 3 7.00039 3H19.0004C19.1318 2.9999 19.2618 3.02568 19.3832 3.07586C19.5046 3.12605 19.615 3.19967 19.7079 3.2925L26.7079 10.2925C26.8007 10.3854 26.8743 10.4958 26.9245 10.6172C26.9747 10.7385 27.0005 10.8686 27.0004 11ZM20.0004 10H23.5866L20.0004 6.41375V10Z" fill="#1C1C1E"/>
</svg>
