<svg width="32" height="32" viewBox="0 0 32 32" fill="none" xmlns="http://www.w3.org/2000/svg">
<path d="M5.50046 15H26.5005C26.6331 15 26.7602 14.9473 26.854 14.8536C26.9478 14.7598 27.0005 14.6326 27.0005 14.5V11C27.0006 10.8686 26.9748 10.7385 26.9246 10.6172C26.8744 10.4958 26.8008 10.3854 26.708 10.2925L19.708 3.2925C19.615 3.19967 19.5047 3.12605 19.3833 3.07586C19.2619 3.02568 19.1318 2.9999 19.0005 3H7.00046C6.47003 3 5.96132 3.21071 5.58625 3.58579C5.21117 3.96086 5.00046 4.46957 5.00046 5V14.5C5.00046 14.6326 5.05314 14.7598 5.14691 14.8536C5.24067 14.9473 5.36785 15 5.50046 15ZM19.0005 5.5L24.5005 11H19.0005V5.5ZM15.0005 18H13.0005C12.7352 18 12.4809 18.1054 12.2934 18.2929C12.1058 18.4804 12.0005 18.7348 12.0005 19V25.9662C11.997 26.2243 12.0914 26.4741 12.2646 26.6655C12.4378 26.8568 12.6771 26.9754 12.9342 26.9975C13.071 27.0066 13.2082 26.9874 13.3373 26.9413C13.4663 26.8951 13.5846 26.8229 13.6845 26.7291C13.7845 26.6353 13.8642 26.522 13.9185 26.3961C13.9729 26.2703 14.0008 26.1346 14.0005 25.9975V24.9975H14.9255C16.8305 24.9975 18.4417 23.5075 18.4992 21.6038C18.5131 21.1356 18.4329 20.6694 18.2633 20.2328C18.0937 19.7962 17.8382 19.398 17.5119 19.062C17.1857 18.7259 16.7953 18.4588 16.3639 18.2764C15.9325 18.0939 15.4688 18 15.0005 18ZM14.9567 23H14.0005V20H15.0005C15.2096 20.0001 15.4165 20.0439 15.6077 20.1286C15.7989 20.2134 15.9703 20.3372 16.1109 20.4921C16.2514 20.647 16.358 20.8296 16.4238 21.0281C16.4896 21.2267 16.5132 21.4368 16.493 21.645C16.45 22.0209 16.2691 22.3676 15.9853 22.6179C15.7016 22.8681 15.3351 23.0043 14.9567 23ZM27.0005 25.1087C27.0004 25.3687 26.8991 25.6185 26.718 25.805C26.3702 26.1787 25.9498 26.4774 25.4825 26.6829C25.0152 26.8883 24.5109 26.9963 24.0005 27C21.7955 27 20.0005 24.9813 20.0005 22.5C20.0005 20.0187 21.7955 18 24.0005 18C24.7158 18.0022 25.4148 18.2133 26.0117 18.6075C26.2286 18.7427 26.3872 18.9539 26.4566 19.1999C26.526 19.4459 26.501 19.7089 26.3867 19.9375C26.321 20.0615 26.2299 20.1703 26.1193 20.2568C26.0088 20.3432 25.8813 20.4055 25.7451 20.4394C25.6089 20.4734 25.4671 20.4783 25.3289 20.4539C25.1907 20.4294 25.0592 20.3761 24.943 20.2975C24.6665 20.1044 24.3376 20.0006 24.0005 20C22.898 20 22.0005 21.125 22.0005 22.5C22.0005 23.875 22.898 25 24.0005 25C24.3613 24.9958 24.7114 24.8772 25.0005 24.6612V24C24.8634 24.0003 24.7277 23.9724 24.6018 23.9181C24.476 23.8637 24.3626 23.7841 24.2689 23.6841C24.1751 23.5841 24.1029 23.4659 24.0567 23.3368C24.0105 23.2077 23.9914 23.0705 24.0005 22.9338C24.0225 22.6766 24.1412 22.4374 24.3325 22.2641C24.5238 22.0909 24.7736 21.9965 25.0317 22H26.0005C26.2657 22 26.52 22.1054 26.7076 22.2929C26.8951 22.4804 27.0005 22.7348 27.0005 23V25.1087ZM10.0005 19V23.6763C10.0005 25.4538 8.60296 26.9587 6.82421 26.9988C6.39522 27.0085 5.96853 26.9333 5.56878 26.7773C5.16903 26.6213 4.80412 26.3877 4.49511 26.09C4.18611 25.7922 3.93912 25.4363 3.7684 25.0426C3.59769 24.6489 3.50662 24.2253 3.50046 23.7962C3.49273 23.5388 3.5826 23.2879 3.75206 23.0938C3.92151 22.8998 4.15803 22.777 4.41421 22.75C4.55495 22.7377 4.69668 22.7555 4.83008 22.8019C4.96348 22.8484 5.08551 22.9227 5.18814 23.0198C5.29077 23.1168 5.37166 23.2345 5.42549 23.3652C5.47933 23.4958 5.50488 23.6363 5.50046 23.7775C5.488 23.9735 5.52771 24.1693 5.61554 24.345C5.70337 24.5206 5.83618 24.6699 6.00046 24.7775C6.98171 25.38 8.00046 24.6838 8.00046 23.7525V19.0338C7.99635 18.7753 8.09043 18.5248 8.26372 18.333C8.43702 18.1411 8.67663 18.0221 8.93421 18C9.071 17.9909 9.20819 18.0101 9.33727 18.0562C9.46635 18.1024 9.58455 18.1746 9.68455 18.2684C9.78454 18.3622 9.86418 18.4755 9.91853 18.6014C9.97287 18.7272 10.0008 18.8629 10.0005 19Z" fill="#1C1C1E"/>
</svg>
