<svg width="32" height="32" viewBox="0 0 32 32" fill="none" xmlns="http://www.w3.org/2000/svg">
<path d="M26.708 10.2925L19.708 3.2925C19.615 3.19967 19.5047 3.12605 19.3833 3.07586C19.2619 3.02568 19.1318 2.9999 19.0005 3H7.00046C6.47003 3 5.96132 3.21071 5.58625 3.58579C5.21117 3.96086 5.00046 4.46957 5.00046 5V14.5C5.00046 14.6326 5.05314 14.7598 5.14691 14.8536C5.24067 14.9473 5.36785 15 5.50046 15H26.5005C26.6331 15 26.7602 14.9473 26.854 14.8536C26.9478 14.7598 27.0005 14.6326 27.0005 14.5V11C27.0006 10.8686 26.9748 10.7385 26.9246 10.6172C26.8744 10.4958 26.8008 10.3854 26.708 10.2925ZM19.0005 11V5.5L24.5005 11H19.0005ZM18.4767 24.5387C18.4377 24.9212 18.3145 25.2903 18.1159 25.6195C17.9173 25.9487 17.6482 26.2297 17.328 26.4425C16.6792 26.875 15.8755 27 15.1417 27C14.5008 26.9973 13.8628 26.9133 13.243 26.75C12.9875 26.6786 12.7709 26.5086 12.6408 26.2774C12.5107 26.0463 12.4778 25.7729 12.5492 25.5175C12.6207 25.2621 12.7906 25.0455 13.0218 24.9154C13.2529 24.7853 13.5263 24.7523 13.7817 24.8237C14.3292 24.975 15.6567 25.1625 16.2255 24.78C16.3355 24.705 16.4542 24.59 16.493 24.2887C16.5355 23.955 16.403 23.7763 14.8955 23.34C13.7267 23.0025 11.7705 22.4363 12.0205 20.45C12.0598 20.0753 12.1809 19.7139 12.3753 19.3912C12.5697 19.0685 12.8326 18.7924 13.1455 18.5825C14.6267 17.5825 16.9855 18.1687 17.2505 18.2375C17.5071 18.305 17.7263 18.4716 17.8601 18.7007C17.9938 18.9299 18.031 19.2028 17.9636 19.4594C17.8961 19.716 17.7295 19.9353 17.5003 20.069C17.2712 20.2027 16.9983 20.24 16.7417 20.1725C16.1805 20.0263 14.838 19.8525 14.263 20.2425C14.1878 20.2936 14.1259 20.3618 14.0824 20.4416C14.039 20.5214 14.0151 20.6104 14.013 20.7013C13.9992 20.8137 13.9967 20.8362 14.153 20.9387C14.4417 21.125 14.9592 21.2738 15.4592 21.4188C16.6867 21.7713 18.7505 22.375 18.4767 24.5387ZM10.0005 19V23.675C10.0005 25.4537 8.60296 26.9587 6.82421 26.9988C6.39522 27.0085 5.96853 26.9333 5.56878 26.7773C5.16903 26.6213 4.80412 26.3877 4.49511 26.09C4.18611 25.7922 3.93912 25.4363 3.7684 25.0426C3.59769 24.6489 3.50662 24.2253 3.50046 23.7962C3.49273 23.5388 3.5826 23.2879 3.75206 23.0938C3.92151 22.8998 4.15803 22.777 4.41421 22.75C4.55495 22.7377 4.69668 22.7555 4.83008 22.8019C4.96348 22.8484 5.08551 22.9227 5.18814 23.0198C5.29077 23.1168 5.37166 23.2345 5.42549 23.3652C5.47933 23.4958 5.50488 23.6363 5.50046 23.7775C5.488 23.9735 5.52771 24.1693 5.61554 24.345C5.70337 24.5206 5.83618 24.6699 6.00046 24.7775C6.98171 25.38 8.00046 24.6825 8.00046 23.7525V19.0338C7.99635 18.7753 8.09043 18.5248 8.26372 18.333C8.43702 18.1411 8.67663 18.0221 8.93421 18C9.071 17.9909 9.20819 18.0101 9.33727 18.0562C9.46635 18.1024 9.58455 18.1746 9.68455 18.2684C9.78454 18.3622 9.86418 18.4755 9.91853 18.6014C9.97287 18.7272 10.0008 18.8629 10.0005 19ZM26.8142 19.5812L24.7292 22.5L26.8142 25.4188C26.9545 25.6346 27.0062 25.8963 26.9584 26.1494C26.9105 26.4024 26.767 26.6272 26.5576 26.777C26.3482 26.9268 26.089 26.9901 25.8341 26.9536C25.5792 26.9172 25.3482 26.7838 25.1892 26.5812L23.5005 24.22L21.8142 26.5812C21.7406 26.6945 21.6448 26.7917 21.5326 26.8669C21.4204 26.9421 21.2941 26.9938 21.1614 27.0189C21.0287 27.044 20.8922 27.0419 20.7603 27.0128C20.6284 26.9837 20.5038 26.9282 20.3939 26.8496C20.284 26.771 20.1912 26.671 20.1211 26.5555C20.051 26.4401 20.0049 26.3116 19.9858 26.1779C19.9667 26.0442 19.9748 25.908 20.0098 25.7775C20.0448 25.647 20.1058 25.525 20.1892 25.4188L22.2717 22.5L20.1867 19.5812C20.0464 19.3654 19.9948 19.1037 20.0426 18.8506C20.0904 18.5976 20.2339 18.3728 20.4433 18.223C20.6528 18.0732 20.9119 18.0099 21.1668 18.0464C21.4217 18.0828 21.6527 18.2162 21.8117 18.4188L23.5005 20.78L25.1867 18.4188C25.3457 18.2162 25.5767 18.0828 25.8316 18.0464C26.0865 18.0099 26.3457 18.0732 26.5551 18.223C26.7645 18.3728 26.908 18.5976 26.9559 18.8506C27.0037 19.1037 26.952 19.3654 26.8117 19.5812H26.8142Z" fill="#1C1C1E"/>
</svg>
