<svg width="32" height="32" viewBox="0 0 32 32" fill="none" xmlns="http://www.w3.org/2000/svg">
<path d="M26.708 10.2925L19.708 3.2925C19.615 3.19967 19.5047 3.12605 19.3833 3.07586C19.2619 3.02568 19.1318 2.9999 19.0005 3H7.00046C6.47003 3 5.96132 3.21071 5.58624 3.58579C5.21117 3.96086 5.00046 4.46957 5.00046 5V14.5C5.00046 14.6326 5.05314 14.7598 5.1469 14.8536C5.24067 14.9473 5.36785 15 5.50046 15H26.5005C26.6331 15 26.7602 14.9473 26.854 14.8536C26.9478 14.7598 27.0005 14.6326 27.0005 14.5V11C27.0006 10.8686 26.9748 10.7385 26.9246 10.6172C26.8744 10.4958 26.8008 10.3854 26.708 10.2925ZM19.0005 11V5.5L24.5005 11H19.0005ZM10.978 24.5387C10.939 24.9212 10.8158 25.2903 10.6171 25.6195C10.4185 25.9487 10.1494 26.2297 9.82921 26.4425C9.18046 26.875 8.37546 27 7.64296 27C7.00416 26.996 6.36839 26.912 5.75046 26.75C5.49806 26.6761 5.28494 26.5057 5.15727 26.2758C5.02959 26.0458 4.99764 25.7749 5.06833 25.5215C5.13901 25.2682 5.30665 25.0529 5.53493 24.9223C5.76321 24.7917 6.03375 24.7563 6.28796 24.8237C6.83546 24.9737 8.15671 25.1612 8.73171 24.7787C8.84171 24.705 8.96046 24.5888 8.99921 24.2875C9.04296 23.9538 8.91046 23.775 7.40171 23.3388C6.23296 23.0013 4.27671 22.435 4.52671 20.45C4.56562 20.075 4.68658 19.7132 4.881 19.3903C5.07543 19.0673 5.33855 18.7911 5.65171 18.5812C7.13171 17.5812 9.49171 18.1675 9.75546 18.2362C10.0121 18.3037 10.2313 18.4703 10.3651 18.6995C10.4988 18.9286 10.536 19.2015 10.4686 19.4581C10.4011 19.7147 10.2345 19.934 10.0053 20.0677C9.77619 20.2015 9.5033 20.2387 9.24671 20.1712C8.68671 20.025 7.34296 19.8512 6.76796 20.2412C6.69259 20.2921 6.63053 20.3603 6.58703 20.4401C6.54352 20.52 6.51983 20.6091 6.51796 20.7C6.50421 20.8125 6.50046 20.8363 6.65796 20.9375C6.94671 21.1238 7.46296 21.2725 7.96421 21.4175C9.18796 21.7712 11.258 22.375 10.978 24.5387ZM18.943 19.3363L16.4555 26.3013C16.3955 26.4791 16.2882 26.6373 16.145 26.7586C16.0018 26.88 15.8282 26.96 15.643 26.99C15.4146 27.0227 15.182 26.9755 14.9845 26.8564C14.787 26.7373 14.6367 26.5535 14.5592 26.3363L12.0742 19.375C11.9811 19.1268 11.9876 18.8521 12.0925 18.6086C12.1974 18.3651 12.3924 18.1717 12.6367 18.0688C12.7614 18.02 12.8945 17.9967 13.0284 18.0003C13.1622 18.004 13.2939 18.0344 13.4157 18.0899C13.5375 18.1454 13.647 18.2248 13.7375 18.3234C13.8281 18.4219 13.898 18.5377 13.943 18.6637L15.5005 23.0263L17.058 18.6637C17.1471 18.4139 17.3319 18.2098 17.5716 18.0962C17.8113 17.9827 18.0863 17.9689 18.3361 18.0581C18.5859 18.1473 18.79 18.3321 18.9036 18.5718C19.0172 18.8115 19.0309 19.0864 18.9417 19.3363H18.943ZM27.0005 23V25.1087C27.0004 25.3687 26.8991 25.6185 26.718 25.805C26.3702 26.1787 25.9498 26.4774 25.4825 26.6829C25.0152 26.8883 24.5109 26.9963 24.0005 27C21.7955 27 20.0005 24.9813 20.0005 22.5C20.0005 20.0187 21.7955 18 24.0005 18C24.7158 18.0022 25.4148 18.2133 26.0117 18.6075C26.2284 18.7429 26.3868 18.9541 26.4562 19.2C26.5255 19.446 26.5007 19.7089 26.3867 19.9375C26.321 20.0613 26.2299 20.1699 26.1195 20.2563C26.009 20.3427 25.8817 20.4048 25.7456 20.4388C25.6096 20.4727 25.468 20.4777 25.3299 20.4533C25.1918 20.429 25.0604 20.3759 24.9442 20.2975C24.6672 20.1046 24.338 20.0008 24.0005 20C22.898 20 22.0005 21.125 22.0005 22.5C22.0005 23.875 22.898 25 24.0005 25C24.3616 24.998 24.7124 24.8792 25.0005 24.6612V24C24.8634 24.0003 24.7277 23.9724 24.6018 23.9181C24.476 23.8637 24.3626 23.7841 24.2689 23.6841C24.1751 23.5841 24.1029 23.4659 24.0567 23.3368C24.0105 23.2077 23.9914 23.0705 24.0005 22.9338C24.0228 22.6765 24.1417 22.4372 24.3333 22.264C24.5248 22.0908 24.7748 21.9965 25.033 22H26.0005C26.2657 22 26.52 22.1054 26.7076 22.2929C26.8951 22.4804 27.0005 22.7348 27.0005 23Z" fill="#1C1C1E"/>
</svg>
