<svg width="32" height="32" viewBox="0 0 32 32" fill="none" xmlns="http://www.w3.org/2000/svg">
<path d="M27.0004 13.0002H12.7617L26.2504 9.43891C26.3781 9.40527 26.4979 9.34667 26.6028 9.26651C26.7077 9.18634 26.7957 9.08619 26.8617 8.97184C26.9277 8.85749 26.9704 8.73119 26.9874 8.60025C27.0043 8.4693 26.9952 8.3363 26.9604 8.20891L25.9404 4.45891C25.8 3.95439 25.4666 3.52549 25.0122 3.26509C24.5578 3.00469 24.0192 2.93376 23.5129 3.06766L4.47668 8.09266C4.22321 8.15845 3.98542 8.27416 3.77722 8.43299C3.56903 8.59182 3.39461 8.79059 3.26418 9.01766C3.13302 9.24195 3.04828 9.49031 3.015 9.74799C2.98171 10.0057 3.00056 10.2674 3.07043 10.5177L4.00043 13.9452C4.00043 13.9627 4.00043 13.9814 4.00043 14.0002V25.0002C4.00043 25.5306 4.21114 26.0393 4.58621 26.4144C4.96129 26.7894 5.46999 27.0002 6.00043 27.0002H26.0004C26.5309 27.0002 27.0396 26.7894 27.4146 26.4144C27.7897 26.0393 28.0004 25.5306 28.0004 25.0002V14.0002C28.0004 13.7349 27.8951 13.4806 27.7075 13.2931C27.52 13.1055 27.2656 13.0002 27.0004 13.0002ZM24.0204 5.00016L24.7704 7.75891L20.5717 8.87516L17.0554 6.84016L24.0204 5.00016ZM9.69418 8.78391L13.2092 10.8139L5.75918 12.7802L5.00918 10.0202L9.69418 8.78391Z" fill="#1C1C1E"/>
</svg>
