<svg width="32" height="32" viewBox="0 0 32 32" fill="none" xmlns="http://www.w3.org/2000/svg">
<path d="M15.8019 2.99952C8.84065 3.10577 3.15065 8.76077 2.9994 15.7258C2.94643 18.0685 3.53055 20.3816 4.6894 22.4183C4.73492 22.4979 4.80146 22.5634 4.88174 22.6078C4.96202 22.6521 5.05294 22.6735 5.14456 22.6696C5.23619 22.6658 5.32498 22.6368 5.40124 22.5858C5.47749 22.5349 5.53826 22.4639 5.5769 22.3808C6.51571 20.3868 7.00109 18.2097 6.99815 16.0058C6.99594 14.6559 7.29839 13.3229 7.88297 12.1061C8.46755 10.8893 9.31918 9.82016 10.3744 8.97827C10.4779 8.89735 10.5963 8.8376 10.7229 8.80244C10.8495 8.76728 10.9818 8.75739 11.1122 8.77336C11.2426 8.78932 11.3686 8.8308 11.483 8.89545C11.5973 8.9601 11.6978 9.04665 11.7788 9.15015C11.8597 9.25365 11.9195 9.37207 11.9546 9.49866C11.9898 9.62525 11.9997 9.75752 11.9837 9.88793C11.9677 10.0183 11.9262 10.1443 11.8616 10.2587C11.7969 10.3731 11.7104 10.4736 11.6069 10.5545C10.7911 11.2099 10.1332 12.0403 9.68188 12.9844C9.23052 13.9284 8.99727 14.9619 8.9994 16.0083C9.0027 19.0104 8.20669 21.9593 6.69315 24.552C6.63705 24.6473 6.6141 24.7585 6.6279 24.8682C6.64169 24.9778 6.69145 25.0799 6.7694 25.1583C7.0194 25.4083 7.28065 25.6583 7.55065 25.8858C7.60599 25.9323 7.67074 25.9662 7.74045 25.9852C7.81016 26.0043 7.88318 26.008 7.95446 25.9961C8.02575 25.9842 8.09361 25.9571 8.15337 25.9164C8.21314 25.8758 8.26338 25.8227 8.30065 25.7608C9.40725 23.9237 10.1931 21.9116 10.6244 19.8108C10.6773 19.5509 10.8312 19.3226 11.0524 19.1762C11.2736 19.0298 11.5439 18.9773 11.8038 19.0301C12.0637 19.083 12.2919 19.237 12.4383 19.4582C12.5847 19.6793 12.6373 19.9496 12.5844 20.2095C12.1009 22.58 11.2097 24.8487 9.95065 26.9145C9.91514 26.9733 9.8921 27.0387 9.88297 27.1067C9.87384 27.1747 9.87881 27.2439 9.89757 27.3099C9.91633 27.3759 9.94848 27.4374 9.99202 27.4904C10.0356 27.5435 10.0896 27.587 10.1507 27.6183C10.4594 27.7745 10.7757 27.9195 11.0969 28.052C11.2078 28.0995 11.3322 28.1054 11.4471 28.0684C11.5619 28.0314 11.6595 27.9541 11.7219 27.8508C13.8694 24.2837 15.0026 20.1982 14.9994 16.0345C14.9968 15.7778 15.0911 15.5296 15.2635 15.3394C15.4359 15.1491 15.6737 15.0309 15.9294 15.0083C16.0665 14.9987 16.2041 15.0174 16.3336 15.0633C16.4631 15.1093 16.5818 15.1814 16.6822 15.2752C16.7826 15.3691 16.8626 15.4826 16.9172 15.6087C16.9717 15.7348 16.9997 15.8708 16.9994 16.0083C17.0044 20.2594 15.9194 24.4408 13.8482 28.1533C13.8083 28.2244 13.7864 28.3041 13.7844 28.3856C13.7824 28.4671 13.8004 28.5479 13.8367 28.6208C13.8731 28.6938 13.9267 28.7568 13.993 28.8042C14.0593 28.8517 14.1361 28.8823 14.2169 28.8933C14.5961 28.9458 14.9798 28.9816 15.3682 29.0008C15.4615 29.0042 15.554 28.9815 15.635 28.9351C15.7161 28.8887 15.7826 28.8205 15.8269 28.7383C17.9058 24.8496 18.9953 20.509 18.9994 16.0995C19.0057 14.4433 17.7119 13.0383 16.0569 13.007C15.6588 12.9994 15.2631 13.0711 14.8929 13.218C14.5228 13.3648 14.1856 13.5839 13.901 13.8625C13.6164 14.141 13.3901 14.4734 13.2353 14.8403C13.0805 15.2073 13.0003 15.6013 12.9994 15.9995C12.9976 16.2492 12.9035 16.4895 12.7353 16.6741C12.5671 16.8586 12.3366 16.9746 12.0882 16.9995C11.9496 17.0119 11.8099 16.9952 11.6782 16.9505C11.5464 16.9058 11.4254 16.8341 11.3229 16.74C11.2205 16.6458 11.1388 16.5314 11.0831 16.4039C11.0273 16.2764 10.9989 16.1387 10.9994 15.9995C10.9994 15.3385 11.1304 14.684 11.385 14.0739C11.6395 13.4638 12.0125 12.9103 12.4824 12.4453C12.9522 11.9803 13.5097 11.6131 14.1224 11.365C14.7351 11.1168 15.3909 10.9926 16.0519 10.9995C18.8019 11.0283 21.0119 13.3958 20.9982 16.1445C20.986 20.2217 20.1118 24.2502 18.4332 27.9658C18.395 28.0514 18.3817 28.1459 18.3947 28.2387C18.4077 28.3315 18.4465 28.4188 18.5067 28.4906C18.5669 28.5624 18.6461 28.6158 18.7352 28.6448C18.8243 28.6738 18.9197 28.6772 19.0107 28.6545C19.4443 28.5517 19.8724 28.4265 20.2932 28.2795C20.3587 28.2563 20.4187 28.2196 20.4693 28.1718C20.5199 28.124 20.5599 28.0662 20.5869 28.002C21.169 26.6225 21.6486 25.202 22.0219 23.752C22.0547 23.6248 22.1123 23.5053 22.1913 23.4003C22.2703 23.2954 22.3692 23.207 22.4824 23.1402C22.5956 23.0735 22.7208 23.0297 22.8509 23.0113C22.981 22.993 23.1134 23.0004 23.2407 23.0333C23.3679 23.0661 23.4874 23.1237 23.5923 23.2027C23.6973 23.2817 23.7857 23.3806 23.8524 23.4938C23.9192 23.607 23.963 23.7322 23.9813 23.8623C23.9997 23.9924 23.9922 24.1248 23.9594 24.252C23.8661 24.6162 23.7661 24.9787 23.6594 25.3395C23.628 25.4434 23.6313 25.5547 23.6687 25.6566C23.7061 25.7584 23.7757 25.8454 23.8669 25.9042C23.958 25.9631 24.0659 25.9907 24.1741 25.9828C24.2824 25.975 24.3852 25.9322 24.4669 25.8608C26.494 24.1201 27.9355 21.797 28.5952 19.2078C29.255 16.6186 29.1008 13.889 28.1539 11.3906C27.2069 8.89209 25.513 6.74609 23.3028 5.24465C21.0927 3.74321 18.4735 2.95927 15.8019 2.99952ZM24.7494 20.1345C24.719 20.3758 24.6017 20.5978 24.4195 20.7588C24.2373 20.9199 24.0026 21.009 23.7594 21.0095C23.7176 21.0095 23.6759 21.007 23.6344 21.002C23.5041 20.9858 23.3782 20.944 23.264 20.8792C23.1498 20.8143 23.0495 20.7275 22.9688 20.6239C22.8881 20.5202 22.8286 20.4017 22.7938 20.275C22.7589 20.1484 22.7494 20.0161 22.7657 19.8858C22.9251 18.6003 23.0052 17.3061 23.0057 16.0108C23.003 14.1551 22.2647 12.3761 20.9525 11.0639C19.6403 9.75177 17.8614 9.01342 16.0057 9.01077C15.7132 9.01064 15.4209 9.02859 15.1307 9.06452C14.8673 9.09767 14.6015 9.02484 14.3918 8.86203C14.1821 8.69923 14.0457 8.45979 14.0125 8.1964C13.9794 7.933 14.0522 7.66723 14.215 7.45754C14.3778 7.24785 14.6173 7.11142 14.8807 7.07827C16.1477 6.92066 17.4338 7.03408 18.6538 7.41102C19.8737 7.78796 20.9996 8.41982 21.9569 9.26473C22.9142 10.1097 23.6811 11.1483 24.2067 12.312C24.7323 13.4756 25.0046 14.7377 25.0057 16.0145C25.0054 17.3918 24.9198 18.7678 24.7494 20.1345Z" fill="#1C1C1E"/>
</svg>
