<svg width="32" height="32" viewBox="0 0 32 32" fill="none" xmlns="http://www.w3.org/2000/svg">
<path d="M15.8016 3.00041C8.84035 3.10666 3.1516 8.75916 3.00035 15.7192C2.9476 18.0601 3.53127 20.3714 4.6891 22.4067C4.73452 22.4863 4.80096 22.552 4.88117 22.5964C4.96138 22.6408 5.05227 22.6624 5.14389 22.6586C5.23551 22.6549 5.32433 22.626 5.40065 22.5752C5.47697 22.5243 5.53784 22.4535 5.5766 22.3704C6.51579 20.3783 7.00203 18.2028 7.00035 16.0004C6.99947 13.825 7.78732 11.723 9.21785 10.0842C9.37957 9.89156 9.6063 9.76496 9.8551 9.72833C10.1039 9.6917 10.3575 9.74759 10.5679 9.88541C10.6851 9.9656 10.7839 10.0698 10.8576 10.1912C10.9314 10.3125 10.9785 10.4482 10.9958 10.5892C11.0131 10.7301 11.0001 10.8732 10.9578 11.0087C10.9155 11.1443 10.8447 11.2693 10.7504 11.3754C9.62297 12.6523 9.00067 14.297 9.00035 16.0004C9.0041 19.0009 8.20849 21.9482 6.69535 24.5392C6.63925 24.6344 6.6163 24.7456 6.6301 24.8553C6.6439 24.965 6.69366 25.067 6.7716 25.1454C7.26788 25.6485 7.80423 26.1105 8.37535 26.5267C8.43185 26.5681 8.49643 26.5972 8.56489 26.612C8.63335 26.6269 8.70418 26.6272 8.77277 26.613C8.84136 26.5987 8.90619 26.5702 8.96305 26.5293C9.01992 26.4883 9.06755 26.4359 9.10285 26.3754C9.63897 25.4962 10.1062 24.5768 10.5004 23.6254C10.5504 23.5039 10.6239 23.3935 10.7167 23.3004C10.8094 23.2074 10.9196 23.1335 11.0409 23.083C11.1622 23.0325 11.2922 23.0064 11.4236 23.0062C11.555 23.0059 11.6851 23.0316 11.8066 23.0817C11.9281 23.1317 12.0385 23.2052 12.1316 23.298C12.2246 23.3907 12.2985 23.5009 12.349 23.6222C12.3995 23.7435 12.4256 23.8735 12.4258 24.0049C12.4261 24.1363 12.4004 24.2664 12.3504 24.3879C11.9305 25.4042 11.4353 26.3878 10.8691 27.3304C10.8324 27.3919 10.8093 27.4606 10.8015 27.5318C10.7936 27.603 10.8011 27.675 10.8235 27.7431C10.8459 27.8111 10.8827 27.8735 10.9313 27.9261C10.9799 27.9787 11.0393 28.0203 11.1054 28.0479C12.1079 28.4568 13.1577 28.7382 14.2304 28.8854C14.3305 28.9001 14.4327 28.8841 14.5236 28.8395C14.6144 28.7948 14.6896 28.7237 14.7391 28.6354C16.5713 25.3438 17.6622 21.6915 17.9354 17.9342C17.9409 17.8003 17.9732 17.6689 18.0305 17.5478C18.0878 17.4267 18.1688 17.3184 18.2688 17.2292C18.3687 17.14 18.4856 17.0718 18.6124 17.0287C18.7392 16.9855 18.8734 16.9683 19.007 16.978C19.1406 16.9877 19.2709 17.0242 19.3902 17.0852C19.5094 17.1463 19.6152 17.2307 19.7012 17.3334C19.7872 17.4361 19.8517 17.555 19.8909 17.6831C19.93 17.8112 19.943 17.9459 19.9291 18.0792C19.6747 21.5838 18.7594 25.0086 17.2316 28.1729C17.1917 28.2538 17.1744 28.3441 17.1815 28.434C17.1887 28.524 17.2201 28.6103 17.2724 28.6839C17.3247 28.7575 17.3959 28.8155 17.4785 28.8519C17.5611 28.8882 17.652 28.9015 17.7416 28.8904C18.6188 28.7726 19.4816 28.5653 20.3166 28.2717C20.3823 28.2483 20.4424 28.2114 20.493 28.1634C20.5436 28.1153 20.5835 28.0573 20.6104 27.9929C22.1692 24.2628 22.9812 20.2631 23.0004 16.2204C23.0279 12.3904 20.0754 9.13666 16.2504 9.00416C15.5768 8.98082 14.9034 9.05363 14.2504 9.22041C14.1184 9.25427 13.981 9.26084 13.8465 9.2397C13.7119 9.21857 13.5831 9.17018 13.468 9.09749C13.3528 9.02481 13.2537 8.92937 13.1767 8.81703C13.0998 8.70468 13.0465 8.5778 13.0204 8.44416C12.9768 8.18512 13.034 7.91922 13.1801 7.70098C13.3263 7.48274 13.5505 7.32869 13.8066 7.27041C15.134 6.93805 16.5197 6.91253 17.8584 7.19579C19.1972 7.47905 20.4538 8.06364 21.5328 8.90517C22.6118 9.7467 23.4849 10.823 24.0857 12.0525C24.6866 13.2819 24.9994 14.632 25.0004 16.0004C25.0033 19.1576 24.5546 22.299 23.6679 25.3292C23.6369 25.4331 23.6406 25.5443 23.6783 25.6459C23.7161 25.7476 23.7858 25.8342 23.8771 25.8927C23.9684 25.9513 24.0762 25.9786 24.1843 25.9705C24.2925 25.9624 24.3951 25.9194 24.4766 25.8479C26.4991 24.1054 27.9361 21.7825 28.5924 19.1949C29.2487 16.6072 29.0924 13.8802 28.1448 11.3845C27.1972 8.88872 25.5042 6.74521 23.2958 5.24521C21.0875 3.74521 18.4709 2.96144 15.8016 3.00041ZM16.0004 12.0004C16.5631 12.0009 17.1194 12.1199 17.6331 12.3497C18.1467 12.5795 18.6062 12.9149 18.9816 13.3342C19.0747 13.4382 19.1449 13.5606 19.1878 13.6934C19.2307 13.8262 19.2453 13.9666 19.2307 14.1054C19.2161 14.2442 19.1726 14.3784 19.103 14.4994C19.0334 14.6204 18.9393 14.7255 18.8266 14.8079C18.6186 14.9511 18.3654 15.0131 18.1148 14.9823C17.8642 14.9514 17.6336 14.8298 17.4666 14.6404C17.2055 14.3589 16.8688 14.1586 16.4969 14.0633C16.1249 13.9679 15.7334 13.9817 15.3691 14.1029C14.9635 14.2441 14.6126 14.5092 14.3659 14.8606C14.1191 15.2121 13.9891 15.6323 13.9941 16.0617C13.9906 17.4461 13.8571 18.8272 13.5954 20.1867C13.5524 20.4134 13.4323 20.6183 13.2555 20.7666C13.0787 20.9149 12.8561 20.9975 12.6254 21.0004C12.5624 21.0007 12.4996 20.9949 12.4379 20.9829C12.1755 20.9232 11.9465 20.7639 11.7993 20.5386C11.6522 20.3133 11.5983 20.0397 11.6491 19.7754C11.8846 18.5309 12.0022 17.267 12.0004 16.0004C12.0004 14.9395 12.4218 13.9221 13.1719 13.172C13.9221 12.4218 14.9395 12.0004 16.0004 12.0004Z" fill="#1C1C1E"/>
</svg>
