<svg width="32" height="32" viewBox="0 0 32 32" fill="none" xmlns="http://www.w3.org/2000/svg">
<path d="M22 18.5001C22 18.7967 21.912 19.0868 21.7472 19.3334C21.5824 19.5801 21.3481 19.7724 21.074 19.8859C20.7999 19.9994 20.4983 20.0291 20.2074 19.9712C19.9164 19.9134 19.6491 19.7705 19.4393 19.5607C19.2296 19.351 19.0867 19.0837 19.0288 18.7927C18.971 18.5017 19.0007 18.2001 19.1142 17.926C19.2277 17.652 19.42 17.4177 19.6667 17.2529C19.9133 17.088 20.2033 17.0001 20.5 17.0001C20.8978 17.0001 21.2794 17.1581 21.5607 17.4394C21.842 17.7207 22 18.1022 22 18.5001ZM11.5 17.0001C11.2033 17.0001 10.9133 17.088 10.6667 17.2529C10.42 17.4177 10.2277 17.652 10.1142 17.926C10.0007 18.2001 9.97095 18.5017 10.0288 18.7927C10.0867 19.0837 10.2296 19.351 10.4393 19.5607C10.6491 19.7705 10.9164 19.9134 11.2074 19.9712C11.4983 20.0291 11.7999 19.9994 12.074 19.8859C12.3481 19.7724 12.5824 19.5801 12.7472 19.3334C12.912 19.0868 13 18.7967 13 18.5001C13 18.1022 12.842 17.7207 12.5607 17.4394C12.2794 17.1581 11.8978 17.0001 11.5 17.0001ZM30 9.00007V19.0001C29.9974 21.3862 29.0483 23.6739 27.361 25.3611C25.6738 27.0484 23.3861 27.9974 21 28.0001H11C8.61387 27.9974 6.32622 27.0484 4.63897 25.3611C2.95172 23.6739 2.00265 21.3862 2.00001 19.0001V9.00007C1.99809 8.02512 2.35231 7.08304 2.9961 6.35087C3.63989 5.61871 4.52893 5.14688 5.49611 5.02406C6.46329 4.90125 7.44204 5.1359 8.24839 5.68391C9.05475 6.23193 9.63319 7.05558 9.87501 8.00007H22.125C22.3668 7.05558 22.9453 6.23193 23.7516 5.68391C24.558 5.1359 25.5367 4.90125 26.5039 5.02406C27.4711 5.14688 28.3601 5.61871 29.0039 6.35087C29.6477 7.08304 30.0019 8.02512 30 9.00007ZM25 18.0001C25 16.9392 24.5786 15.9218 23.8284 15.1716C23.0783 14.4215 22.0609 14.0001 21 14.0001H11C9.93914 14.0001 8.92173 14.4215 8.17158 15.1716C7.42143 15.9218 7.00001 16.9392 7.00001 18.0001V19.0001C7.00001 20.0609 7.42143 21.0784 8.17158 21.8285C8.92173 22.5786 9.93914 23.0001 11 23.0001H21C22.0609 23.0001 23.0783 22.5786 23.8284 21.8285C24.5786 21.0784 25 20.0609 25 19.0001V18.0001Z" fill="#1C1C1E"/>
</svg>
