<svg width="32" height="32" viewBox="0 0 32 32" fill="none" xmlns="http://www.w3.org/2000/svg">
<path d="M27.2867 6.04303L19.7019 3.7681L23.4518 1.89315C23.6886 1.77381 23.8684 1.56526 23.9515 1.31338C24.0346 1.06151 24.0142 0.786935 23.8949 0.55007C23.7756 0.313206 23.567 0.133452 23.3151 0.0503528C23.0632 -0.0327468 22.7887 -0.012385 22.5518 0.106959L16.7495 3.00687C14.1418 3.07462 11.6636 4.15768 9.84254 6.02542C8.02149 7.89315 7.00151 10.398 6.99979 13.0066V25.9999C6.99979 26.2651 7.10514 26.5195 7.29267 26.707C7.4802 26.8945 7.73455 26.9999 7.99976 26.9999C8.26496 26.9999 8.51931 26.8945 8.70684 26.707C8.89437 26.5195 8.99973 26.2651 8.99973 25.9999V22H10.9997V28.9998C10.9997 29.5302 11.2104 30.0389 11.5854 30.414C11.9605 30.7891 12.4692 30.9998 12.9996 30.9998H20.9994C21.5298 30.9998 22.0385 30.7891 22.4135 30.414C22.7886 30.0389 22.9993 29.5302 22.9993 28.9998V13.0003C22.9973 11.5831 22.4944 10.2122 21.5795 9.12986C20.6646 8.04752 19.3966 7.32342 17.9995 7.0855V5.3443L26.7117 7.95797C26.8384 7.99924 26.9721 8.01477 27.1049 8.00364C27.2377 7.99251 27.3669 7.95495 27.485 7.89316C27.6031 7.83137 27.7076 7.7466 27.7925 7.64383C27.8773 7.54106 27.9408 7.42237 27.9791 7.29473C28.0174 7.16709 28.0299 7.03308 28.0157 6.90057C28.0014 6.76806 27.9609 6.63973 27.8964 6.52311C27.8319 6.4065 27.7447 6.30396 27.64 6.22151C27.5353 6.13907 27.4152 6.07838 27.2867 6.04303ZM8.99973 20.0001V13.0003C9.00215 11.0527 9.71419 9.1728 11.0026 7.71231C12.291 6.25181 14.0675 5.31086 15.9995 5.06556V7.0855C14.6024 7.32342 13.3344 8.04752 12.4195 9.12986C11.5045 10.2122 11.0017 11.5831 10.9997 13.0003V20.0001H8.99973ZM20.9994 13.0003V20.0001H12.9996V13.0003C12.9996 11.9395 13.421 10.9221 14.1711 10.172C14.9213 9.42185 15.9386 9.00044 16.9995 9.00044C18.0603 9.00044 19.0777 9.42185 19.8278 10.172C20.5779 10.9221 20.9994 11.9395 20.9994 13.0003Z" fill="#1C1C1E"/>
</svg>
