<svg width="33" height="32" viewBox="0 0 33 32" fill="none" xmlns="http://www.w3.org/2000/svg">
<path d="M21.0046 9.49955C21.0046 9.79622 20.9166 10.0862 20.7518 10.3329C20.587 10.5796 20.3527 10.7718 20.0786 10.8854C19.8045 10.9989 19.5029 11.0286 19.212 10.9707C18.921 10.9128 18.6537 10.77 18.4439 10.5602C18.2342 10.3504 18.0913 10.0832 18.0334 9.79219C17.9755 9.50121 18.0052 9.19961 18.1188 8.92552C18.2323 8.65143 18.4246 8.41717 18.6712 8.25234C18.9179 8.08752 19.2079 7.99955 19.5046 7.99955C19.9024 7.99955 20.2839 8.15758 20.5653 8.43889C20.8466 8.72019 21.0046 9.10172 21.0046 9.49955ZM27.0946 17.9545C24.6733 22.317 20.1646 24.6746 13.6896 24.9671L10.9396 31.3933C10.8623 31.5737 10.7336 31.7274 10.5696 31.8352C10.4055 31.9431 10.2134 32.0002 10.0171 31.9995H9.95334C9.74727 31.9866 9.55026 31.9103 9.38934 31.7809C9.22842 31.6515 9.11148 31.4755 9.05459 31.2771L7.20459 24.7983L0.729591 22.9445C0.530554 22.8886 0.353737 22.7724 0.223474 22.6119C0.0932117 22.4514 0.0159073 22.2544 0.0022008 22.0481C-0.0115057 21.8418 0.0390594 21.6364 0.146937 21.46C0.254814 21.2836 0.414701 21.145 0.604591 21.0633L7.03084 18.3133C7.32459 11.8408 9.68209 7.3333 14.0421 4.9108C17.1358 3.1933 20.6346 2.9308 23.0271 3.0133C25.3571 3.0933 27.5271 3.54705 27.8846 3.7633C28.0306 3.84934 28.1523 3.97107 28.2383 4.11705C28.4496 4.4733 28.9046 6.6433 28.9883 8.9733C29.0733 11.3608 28.8121 14.8608 27.0946 17.9545ZM26.5571 5.4458C24.7883 5.0708 18.5446 4.0708 14.0196 7.28955C13.2706 7.82393 12.5978 8.45765 12.0196 9.1733C11.9722 9.82631 12.0679 10.4818 12.3 11.094C12.532 11.7062 12.8949 12.2604 13.3633 12.7179C13.8316 13.1754 14.3941 13.5252 15.0116 13.7429C15.6291 13.9606 16.2866 14.0409 16.9383 13.9783C17.0852 13.9642 17.2333 13.9827 17.3721 14.0325C17.5109 14.0824 17.637 14.1623 17.7413 14.2666C17.8456 14.3709 17.9255 14.497 17.9754 14.6358C18.0252 14.7746 18.0437 14.9227 18.0296 15.0695C17.9671 15.7215 18.0476 16.3793 18.2656 16.9969C18.4836 17.6145 18.8338 18.1771 19.2917 18.6453C19.7496 19.1136 20.3042 19.4763 20.9168 19.708C21.5294 19.9397 22.1851 20.035 22.8383 19.987C23.5513 19.4087 24.1821 18.7358 24.7133 17.987C27.9321 13.4658 26.9321 7.21705 26.5571 5.4458Z" fill="#1C1C1E"/>
</svg>
