<svg width="32" height="32" viewBox="0 0 32 32" fill="none" xmlns="http://www.w3.org/2000/svg">
<path d="M15.0002 5.00008V25.0001C15.0002 25.5305 14.7895 26.0392 14.4144 26.4143C14.0393 26.7894 13.5306 27.0001 13.0002 27.0001H5.00017C4.67086 27.0003 4.3466 26.9191 4.05618 26.7639C3.76576 26.6087 3.51817 26.3841 3.33539 26.1102C3.1526 25.8362 3.04029 25.5214 3.00841 25.1937C2.97654 24.8659 3.02609 24.5353 3.15267 24.2313L11.1527 4.24008L11.1602 4.22258C11.3406 3.79896 11.6617 3.45058 12.0692 3.23626C12.4768 3.02194 12.9458 2.95479 13.3971 3.04617C13.8484 3.13754 14.2543 3.38184 14.5464 3.73781C14.8384 4.09378 14.9987 4.53963 15.0002 5.00008ZM28.6664 26.1051C28.4841 26.3802 28.2365 26.6058 27.9458 26.762C27.655 26.9182 27.3302 27 27.0002 27.0001H19.0002C18.4697 27.0001 17.961 26.7894 17.586 26.4143C17.2109 26.0392 17.0002 25.5305 17.0002 25.0001V5.00008C17 4.53847 17.1595 4.09101 17.4516 3.73359C17.7437 3.37617 18.1505 3.13081 18.6029 3.03912C19.0553 2.94743 19.5255 3.01506 19.9338 3.23054C20.342 3.44601 20.6631 3.79607 20.8427 4.22133L20.8502 4.23883L28.8502 24.2301C28.9759 24.5337 29.0249 24.8635 28.9929 25.1906C28.9608 25.5176 28.8487 25.8317 28.6664 26.1051ZM27.0002 25.0001L26.9927 24.9813L19.0002 5.00008V25.0001H27.0002Z" fill="#1C1C1E"/>
</svg>
