<svg width="32" height="32" viewBox="0 0 32 32" fill="none" xmlns="http://www.w3.org/2000/svg">
<path d="M30.7283 15.2037C30.6008 14.9796 30.4298 14.7832 30.2255 14.6259C30.0212 14.4686 29.7876 14.3535 29.5383 14.2875C28.634 14.0548 27.6996 13.9612 26.7671 14.01C27.2671 11.5288 26.8921 9.56625 26.5171 8.4025C26.3641 7.92452 26.0388 7.52054 25.6044 7.26917C25.1701 7.01779 24.6577 6.93699 24.1671 7.0425C22.8951 7.32579 21.6856 7.83923 20.5983 8.5575C19.802 6.9308 18.6426 5.50881 17.2096 4.40125C16.8623 4.14079 16.4399 4 16.0058 4C15.5717 4 15.1494 4.14079 14.8021 4.40125C13.3668 5.5081 12.2052 6.93015 11.4071 8.5575C10.3198 7.83923 9.1103 7.32579 7.83833 7.0425C7.34781 6.93646 6.83538 7.01704 6.40108 7.26851C5.96678 7.51999 5.6418 7.92429 5.48958 8.4025C5.11458 9.56625 4.73958 11.5275 5.23208 14.01C4.29959 13.9612 3.36512 14.0548 2.46083 14.2875C2.21156 14.3535 1.97795 14.4686 1.77363 14.6259C1.56931 14.7832 1.39838 14.9796 1.27083 15.2037C1.1375 15.4332 1.05115 15.6868 1.01682 15.9499C0.982481 16.213 1.00084 16.4803 1.07083 16.7362C1.49458 18.3088 2.79583 21.2975 6.73708 23.6525C10.6783 26.0075 14.1408 26 16.0058 26C17.8708 26 21.3396 26 25.2558 23.6525C29.1971 21.2975 30.4983 18.3088 30.9221 16.7362C30.993 16.4807 31.0124 16.2136 30.9791 15.9505C30.9459 15.6874 30.8606 15.4336 30.7283 15.2037ZM7.76208 21.9363C4.43333 19.9463 3.35208 17.5062 2.99958 16.2125C3.91926 15.9854 4.8738 15.9358 5.81208 16.0662C6.12532 16.9053 6.5079 17.7169 6.95583 18.4925C8.05565 20.3887 9.49652 22.0652 11.2058 23.4375C9.99714 23.09 8.83933 22.5853 7.76208 21.9363ZM15.9996 23.8C14.8333 22.9325 11.9996 20.2712 11.9996 14.8962C11.9996 9.5875 14.7971 6.905 15.9996 6C17.2021 6.9075 19.9996 9.59 19.9996 14.8988C19.9996 20.2712 17.1658 22.9325 15.9996 23.8ZM28.9996 16.215C28.6533 17.495 27.5746 19.9413 24.2383 21.9363C23.161 22.5848 22.0032 23.0891 20.7946 23.4363C22.5039 22.0639 23.9448 20.3874 25.0446 18.4912C25.4925 17.7156 25.8751 16.9041 26.1883 16.065C27.1264 15.9357 28.0804 15.9862 28.9996 16.2138V16.215Z" fill="#1C1C1E"/>
</svg>
