<svg width="32" height="32" viewBox="0 0 32 32" fill="none" xmlns="http://www.w3.org/2000/svg">
<path d="M27 19.9998H20.725L19.8388 16.9998H27C27.2652 16.9998 27.5196 16.8944 27.7071 16.7069C27.8946 16.5194 28 16.265 28 15.9998V15.4998C28.0002 13.8432 27.6711 12.2032 27.0318 10.6749C26.3926 9.14664 25.4559 7.76069 24.2763 6.59761C23.0967 5.43453 21.6977 4.51751 20.1606 3.89987C18.6235 3.28222 16.9789 2.97627 15.3225 2.9998C8.53 3.09605 3 8.70105 3 15.4998C2.99982 17.5346 3.4964 19.5387 4.4466 21.3381C5.39681 23.1374 6.77192 24.6776 8.4525 25.8248C8.61888 25.9388 8.81583 25.9998 9.0175 25.9998H15C15.2995 25.9998 15.5952 25.9326 15.8652 25.803C16.1352 25.6735 16.3727 25.4849 16.5601 25.2513C16.7475 25.0177 16.8801 24.745 16.948 24.4533C17.0159 24.1616 17.0175 23.8584 16.9525 23.566C16.9474 23.5432 16.9412 23.5207 16.9338 23.4985L16.4888 21.9985H19.23L20.5788 26.5648C20.7027 26.9785 20.9563 27.3413 21.3023 27.5997C21.6483 27.8581 22.0682 27.9984 22.5 27.9998H27C27.5304 27.9998 28.0391 27.7891 28.4142 27.414C28.7893 27.0389 29 26.5302 29 25.9998V21.9998C29 21.4694 28.7893 20.9607 28.4142 20.5856C28.0391 20.2105 27.5304 19.9998 27 19.9998ZM10.5 21.9998C10.2033 21.9998 9.91332 21.9118 9.66665 21.747C9.41997 21.5822 9.22771 21.3479 9.11418 21.0738C9.00065 20.7997 8.97094 20.4981 9.02882 20.2072C9.0867 19.9162 9.22956 19.6489 9.43934 19.4391C9.64912 19.2294 9.91639 19.0865 10.2074 19.0286C10.4983 18.9707 10.7999 19.0004 11.074 19.114C11.3481 19.2275 11.5824 19.4198 11.7472 19.6664C11.912 19.9131 12 20.2031 12 20.4998C12 20.8976 11.842 21.2792 11.5607 21.5605C11.2794 21.8418 10.8978 21.9998 10.5 21.9998ZM15.895 19.9998L15 16.9998H17.75L18.6362 19.9998H15.895ZM27 25.9998H22.5L21.3175 21.9998H27V25.9998Z" fill="#1C1C1E"/>
</svg>
