<svg width="32" height="32" viewBox="0 0 32 32" fill="none" xmlns="http://www.w3.org/2000/svg">
<path d="M28.6322 6.73636C28.4894 5.8948 28.0884 5.11847 27.4849 4.51489C26.8813 3.91132 26.105 3.51038 25.2634 3.36761C21.2159 2.68136 13.5897 2.36761 7.97966 7.98011C2.36966 13.5926 2.68091 21.2176 3.36716 25.2639C3.51031 26.1063 3.91217 26.8833 4.51696 27.4869C5.12175 28.0906 5.89946 28.491 6.74216 28.6326C8.15985 28.8744 9.59525 28.9973 11.0334 29.0001C15.0447 29.0001 20.0397 28.0001 24.0197 24.0201C29.6309 18.4101 29.3184 10.7826 28.6322 6.73636ZM7.06966 26.6626C6.63693 26.589 6.23777 26.3828 5.92739 26.0724C5.61701 25.762 5.41075 25.3628 5.33716 24.9301C4.99407 22.9958 4.9054 21.0249 5.07341 19.0676L12.9322 26.9264C10.9749 27.0944 9.00397 27.0057 7.06966 26.6626ZM20.7047 12.7089L18.9122 14.5001L19.7047 15.2926C19.8035 15.384 19.8828 15.4945 19.9379 15.6173C19.993 15.7401 20.0227 15.8728 20.0253 16.0074C20.0279 16.142 20.0033 16.2758 19.9529 16.4006C19.9026 16.5255 19.8275 16.6389 19.7323 16.734C19.6371 16.8292 19.5236 16.9041 19.3987 16.9544C19.2738 17.0046 19.14 17.0291 19.0054 17.0264C18.8709 17.0237 18.7382 16.9939 18.6154 16.9386C18.4926 16.8834 18.3823 16.804 18.2909 16.7051L17.4997 15.9139L15.9134 17.5001L16.7059 18.2926C16.8048 18.384 16.8842 18.4943 16.9394 18.6171C16.9947 18.7399 17.0245 18.8726 17.0272 19.0071C17.0299 19.1417 17.0054 19.2755 16.9552 19.4004C16.9049 19.5253 16.83 19.6388 16.7348 19.734C16.6397 19.8292 16.5263 19.9043 16.4014 19.9546C16.2766 20.005 16.1428 20.0296 16.0082 20.027C15.8736 20.0244 15.7409 19.9947 15.6181 19.9396C15.4953 19.8845 15.3848 19.8052 15.2934 19.7064L14.4997 18.9126L12.7072 20.7051C12.6152 20.8019 12.5048 20.8793 12.3825 20.9327C12.2602 20.9861 12.1284 21.0145 11.995 21.0163C11.8615 21.018 11.7291 20.9929 11.6054 20.9426C11.4818 20.8924 11.3695 20.8178 11.2751 20.7234C11.1807 20.6291 11.1062 20.5167 11.0559 20.3931C11.0056 20.2695 10.9806 20.137 10.9823 20.0035C10.984 19.8701 11.0124 19.7383 11.0658 19.616C11.1193 19.4937 11.1966 19.3833 11.2934 19.2914L13.0872 17.5001L12.2947 16.7076C12.1193 16.5178 12.0243 16.2674 12.0295 16.009C12.0346 15.7507 12.1397 15.5043 12.3225 15.3217C12.5053 15.139 12.7517 15.0342 13.0101 15.0293C13.2685 15.0243 13.5187 15.1196 13.7084 15.2951L14.5009 16.0876L16.0859 14.5001L15.2934 13.7076C15.1179 13.5179 15.0226 13.2677 15.0276 13.0093C15.0325 12.7509 15.1373 12.5045 15.32 12.3217C15.5026 12.1389 15.749 12.0338 16.0073 12.0287C16.2657 12.0235 16.5161 12.1185 16.7059 12.2939L17.4997 13.0876L19.2922 11.2951C19.3841 11.1983 19.4945 11.121 19.6168 11.0675C19.7391 11.0141 19.8709 10.9857 20.0043 10.984C20.1378 10.9823 20.2703 11.0073 20.3939 11.0576C20.5175 11.1079 20.6299 11.1824 20.7242 11.2768C20.8186 11.3712 20.8932 11.4835 20.9434 11.6071C20.9937 11.7308 21.0188 11.8632 21.0171 11.9967C21.0153 12.1301 20.9869 12.2619 20.9335 12.3842C20.8801 12.5065 20.8027 12.6169 20.7059 12.7089H20.7047ZM26.9259 12.9326L19.0672 5.07386C19.6622 5.01886 20.2822 4.98761 20.9309 4.98761C22.2717 4.99234 23.6097 5.10942 24.9309 5.33761C25.3634 5.41144 25.7623 5.6178 26.0724 5.92816C26.3826 6.23852 26.5886 6.63755 26.6622 7.07011C27.0052 9.00442 27.0939 10.9753 26.9259 12.9326Z" fill="#1C1C1E"/>
</svg>
