<svg width="32" height="32" viewBox="0 0 32 32" fill="none" xmlns="http://www.w3.org/2000/svg">
<path d="M27 4.99962V27.9996C27 28.2648 26.8946 28.5192 26.7071 28.7067C26.5196 28.8943 26.2652 28.9996 26 28.9996C25.7348 28.9996 25.4804 28.8943 25.2929 28.7067C25.1054 28.5192 25 28.2648 25 27.9996V21.9996H19C18.7348 21.9996 18.4804 21.8943 18.2929 21.7067C18.1054 21.5192 18 21.2648 18 20.9996C18.0464 18.6042 18.349 16.2207 18.9025 13.8896C20.125 8.82837 22.4425 5.43587 25.6063 4.08087C25.7583 4.01574 25.9242 3.98934 26.0889 4.00405C26.2537 4.01877 26.4123 4.07412 26.5504 4.16517C26.6885 4.25622 26.8019 4.38011 26.8803 4.52574C26.9588 4.67137 26.9999 4.8342 27 4.99962ZM14.9862 4.83587C14.9667 4.70457 14.9211 4.57847 14.8523 4.46495C14.7835 4.35143 14.6927 4.25274 14.5854 4.17466C14.478 4.09657 14.3561 4.04065 14.2269 4.01015C14.0977 3.97965 13.9637 3.97518 13.8328 3.997C13.7018 4.01883 13.5765 4.06651 13.4642 4.13727C13.3519 4.20803 13.2548 4.30045 13.1785 4.40913C13.1023 4.51782 13.0484 4.6406 13.0202 4.77031C12.9919 4.90002 12.9897 5.03406 13.0138 5.16462L13.9862 10.9996H11V4.99962C11 4.73441 10.8946 4.48005 10.7071 4.29252C10.5196 4.10498 10.2652 3.99962 10 3.99962C9.73478 3.99962 9.48043 4.10498 9.29289 4.29252C9.10536 4.48005 9 4.73441 9 4.99962V10.9996H6.01375L6.98625 5.16462C7.01031 5.03406 7.00813 4.90002 6.97984 4.77031C6.95155 4.6406 6.89772 4.51782 6.82148 4.40913C6.74524 4.30045 6.64812 4.20803 6.53579 4.13727C6.42346 4.06651 6.29816 4.01883 6.16721 3.997C6.03625 3.97518 5.90227 3.97965 5.77306 4.01015C5.64385 4.04065 5.52201 4.09657 5.41464 4.17466C5.30727 4.25274 5.21653 4.35143 5.1477 4.46495C5.07887 4.57847 5.03334 4.70457 5.01375 4.83587L4.01375 10.8359C4.00478 10.89 4.00018 10.9448 4 10.9996C4.002 12.4169 4.5049 13.7878 5.41983 14.8702C6.33477 15.9526 7.60285 16.6767 9 16.9146V27.9996C9 28.2648 9.10536 28.5192 9.29289 28.7067C9.48043 28.8943 9.73478 28.9996 10 28.9996C10.2652 28.9996 10.5196 28.8943 10.7071 28.7067C10.8946 28.5192 11 28.2648 11 27.9996V16.9146C12.3971 16.6767 13.6652 15.9526 14.5802 14.8702C15.4951 13.7878 15.998 12.4169 16 10.9996C15.9998 10.9448 15.9952 10.89 15.9862 10.8359L14.9862 4.83587Z" fill="#1C1C1E"/>
</svg>
