<svg width="32" height="32" viewBox="0 0 32 32" fill="none" xmlns="http://www.w3.org/2000/svg">
<path d="M25.0004 14H18.6254L25.6591 20.25C25.8113 20.3842 25.919 20.5615 25.9681 20.7584C26.0171 20.9553 26.005 21.1624 25.9336 21.3523C25.8621 21.5422 25.7345 21.7058 25.5679 21.8215C25.4012 21.9372 25.2033 21.9995 25.0004 22H17.0004V30C17.0005 30.1979 16.942 30.3914 16.8321 30.556C16.7222 30.7206 16.566 30.8489 16.3832 30.9246C16.2003 31.0004 15.9991 31.0202 15.8051 30.9815C15.611 30.9429 15.4327 30.8475 15.2929 30.7075L6.29286 21.7075C6.20003 21.6146 6.12641 21.5042 6.07623 21.3829C6.02604 21.2615 6.00026 21.1314 6.00036 21V13C6.00036 12.7348 6.10572 12.4804 6.29326 12.2929C6.48079 12.1054 6.73515 12 7.00036 12H13.3754L6.33661 5.75C6.18412 5.61552 6.07625 5.43775 6.02737 5.24039C5.97849 5.04304 5.99094 4.83547 6.06304 4.64537C6.13515 4.45526 6.26348 4.29165 6.43095 4.17635C6.59841 4.06105 6.79704 3.99953 7.00036 4H25.0004C25.2656 4 25.5199 4.10536 25.7075 4.2929C25.895 4.48043 26.0004 4.73479 26.0004 5V13C26.0004 13.2652 25.895 13.5196 25.7075 13.7071C25.5199 13.8946 25.2656 14 25.0004 14Z" fill="#1C1C1E"/>
</svg>
