<svg width="32" height="32" viewBox="0 0 32 32" fill="none" xmlns="http://www.w3.org/2000/svg">
<path d="M30.9296 21.7188C30.9302 21.7129 30.9302 21.7071 30.9296 21.7013L28.8809 11.18C28.8809 11.1725 28.8809 11.165 28.8809 11.1575C28.5646 9.43007 27.6529 7.86809 26.3044 6.74314C24.9559 5.61818 23.2558 5.00139 21.4996 5H10.4859C8.7248 4.99932 7.01988 5.61962 5.67097 6.75179C4.32206 7.88395 3.41555 9.45549 3.11086 11.19L1.07211 21.7013C1.07151 21.7071 1.07151 21.7129 1.07211 21.7188C0.906166 22.661 1.04487 23.6317 1.4681 24.4898C1.89132 25.3479 2.57702 26.0487 3.42566 26.4906C4.27429 26.9325 5.24168 27.0924 6.18736 26.947C7.13304 26.8017 8.00779 26.3588 8.68461 25.6825L8.72836 25.6362L13.6896 20H18.3146L23.2784 25.6362C23.2921 25.6525 23.3071 25.6675 23.3221 25.6825C24.1656 26.5242 25.308 26.9979 26.4996 27C27.1565 26.9996 27.8053 26.8554 28.4004 26.5775C28.9956 26.2996 29.5227 25.8948 29.9448 25.3915C30.3668 24.8882 30.6736 24.2986 30.8435 23.6641C31.0134 23.0296 31.0424 22.3656 30.9284 21.7188H30.9296ZM12.9996 14H11.9996V15C11.9996 15.2652 11.8943 15.5196 11.7067 15.7071C11.5192 15.8946 11.2648 16 10.9996 16C10.7344 16 10.48 15.8946 10.2925 15.7071C10.105 15.5196 9.99961 15.2652 9.99961 15V14H8.99961C8.7344 14 8.48004 13.8946 8.29251 13.7071C8.10497 13.5196 7.99961 13.2652 7.99961 13C7.99961 12.7348 8.10497 12.4804 8.29251 12.2929C8.48004 12.1054 8.7344 12 8.99961 12H9.99961V11C9.99961 10.7348 10.105 10.4804 10.2925 10.2929C10.48 10.1054 10.7344 10 10.9996 10C11.2648 10 11.5192 10.1054 11.7067 10.2929C11.8943 10.4804 11.9996 10.7348 11.9996 11V12H12.9996C13.2648 12 13.5192 12.1054 13.7067 12.2929C13.8943 12.4804 13.9996 12.7348 13.9996 13C13.9996 13.2652 13.8943 13.5196 13.7067 13.7071C13.5192 13.8946 13.2648 14 12.9996 14ZM17.9996 13C17.9996 12.7348 18.105 12.4804 18.2925 12.2929C18.48 12.1054 18.7344 12 18.9996 12H21.9996C22.2648 12 22.5192 12.1054 22.7067 12.2929C22.8943 12.4804 22.9996 12.7348 22.9996 13C22.9996 13.2652 22.8943 13.5196 22.7067 13.7071C22.5192 13.8946 22.2648 14 21.9996 14H18.9996C18.7344 14 18.48 13.8946 18.2925 13.7071C18.105 13.5196 17.9996 13.2652 17.9996 13ZM28.5459 23.9338C28.3586 24.2034 28.1196 24.4332 27.8428 24.6098C27.566 24.7864 27.2569 24.9063 26.9334 24.9625C26.542 25.0309 26.14 25.0056 25.7604 24.8884C25.3808 24.7713 25.0344 24.5658 24.7496 24.2887L20.9746 20H21.4996C22.7763 20.0002 24.0319 19.6744 25.1475 19.0536C26.2631 18.4328 27.2018 17.5375 27.8746 16.4525L28.9671 22.0775C29.0227 22.3994 29.0142 22.7291 28.9419 23.0477C28.8696 23.3663 28.735 23.6674 28.5459 23.9338Z" fill="#1C1C1E"/>
</svg>
