<svg width="32" height="32" viewBox="0 0 32 32" fill="none" xmlns="http://www.w3.org/2000/svg">
<path d="M6.58618 12.4136C6.40041 12.2279 6.25305 12.0074 6.15251 11.7647C6.05198 11.522 6.00023 11.2619 6.00023 10.9993C6.00023 10.7366 6.05198 10.4765 6.15251 10.2338C6.25305 9.9911 6.40041 9.7706 6.58618 9.58488L14.5862 1.58488C14.9613 1.20976 15.4701 0.999023 16.0006 0.999023C16.531 0.999023 17.0398 1.20976 17.4149 1.58488C17.79 1.95999 18.0008 2.46876 18.0008 2.99925C18.0008 3.52975 17.79 4.03851 17.4149 4.41363L9.41493 12.4136C9.2292 12.5994 9.0087 12.7468 8.76602 12.8473C8.52334 12.9478 8.26323 12.9996 8.00055 12.9996C7.73787 12.9996 7.47776 12.9478 7.23508 12.8473C6.9924 12.7468 6.7719 12.5994 6.58618 12.4136ZM30.4149 14.5849C30.2292 14.3991 30.0087 14.2518 29.766 14.1512C29.5233 14.0507 29.2632 13.9989 29.0006 13.9989C28.7379 13.9989 28.4778 14.0507 28.2351 14.1512C27.9924 14.2518 27.7719 14.3991 27.5862 14.5849L19.5862 22.5849C19.4004 22.7706 19.253 22.9911 19.1525 23.2338C19.052 23.4765 19.0002 23.7366 19.0002 23.9993C19.0002 24.2619 19.052 24.522 19.1525 24.7647C19.253 25.0074 19.4004 25.2279 19.5862 25.4136C19.7719 25.5994 19.9924 25.7468 20.2351 25.8473C20.4778 25.9478 20.7379 25.9996 21.0006 25.9996C21.2632 25.9996 21.5233 25.9478 21.766 25.8473C22.0087 25.7468 22.2292 25.5994 22.4149 25.4136L30.4149 17.4136C30.6007 17.2279 30.7481 17.0074 30.8486 16.7647C30.9491 16.522 31.0009 16.2619 31.0009 15.9993C31.0009 15.7366 30.9491 15.4765 30.8486 15.2338C30.7481 14.9911 30.6007 14.7706 30.4149 14.5849ZM26.0262 12.6099L19.3899 5.97363C19.3435 5.92714 19.2883 5.89026 19.2276 5.8651C19.1669 5.83993 19.1019 5.82698 19.0362 5.82698C18.9705 5.82698 18.9054 5.83993 18.8447 5.8651C18.784 5.89026 18.7289 5.92714 18.6824 5.97363L10.9749 13.6811C10.9284 13.7276 10.8916 13.7827 10.8664 13.8434C10.8412 13.9041 10.8283 13.9692 10.8283 14.0349C10.8283 14.1006 10.8412 14.1656 10.8664 14.2263C10.8916 14.287 10.9284 14.3422 10.9749 14.3886L12.8749 16.2924L3.58618 25.5861C3.22694 25.9643 3.02962 26.4678 3.0363 26.9893C3.04297 27.5108 3.25312 28.0091 3.62192 28.3779C3.99072 28.7467 4.48901 28.9568 5.01053 28.9635C5.53205 28.9702 6.03555 28.7729 6.41368 28.4136L15.7074 19.1249L17.6112 21.0286C17.6576 21.0751 17.7128 21.112 17.7735 21.1372C17.8342 21.1623 17.8992 21.1753 17.9649 21.1753C18.0306 21.1753 18.0957 21.1623 18.1564 21.1372C18.2171 21.112 18.2722 21.0751 18.3187 21.0286L26.0262 13.3211C26.0732 13.2746 26.1106 13.2192 26.1361 13.1582C26.1616 13.0972 26.1747 13.0317 26.1747 12.9655C26.1747 12.8993 26.1616 12.8338 26.1361 12.7728C26.1106 12.7118 26.0732 12.6564 26.0262 12.6099Z" fill="#1C1C1E"/>
</svg>
