<svg width="32" height="32" viewBox="0 0 32 32" fill="none" xmlns="http://www.w3.org/2000/svg">
<path d="M29.7427 13.4011C29.7149 13.2603 29.657 13.1272 29.5731 13.0107C29.4892 12.8942 29.3812 12.7972 29.2565 12.7261L25.5277 10.6011L25.5127 6.39864C25.5123 6.25391 25.4804 6.111 25.4193 5.97979C25.3583 5.84857 25.2694 5.73218 25.159 5.63864C23.8064 4.49452 22.2488 3.61773 20.569 3.05489C20.4367 3.01012 20.2965 2.99355 20.1574 3.00625C20.0184 3.01895 19.8835 3.06065 19.7615 3.12864L16.0002 5.23114L12.2352 3.12489C12.1132 3.05651 11.9781 3.01451 11.8388 3.00159C11.6995 2.98867 11.559 3.00513 11.4265 3.04989C9.7477 3.61634 8.19179 4.49653 6.84149 5.64364C6.7312 5.73704 6.64246 5.85323 6.58139 5.98422C6.52032 6.11521 6.48837 6.25787 6.48774 6.40239L6.46899 10.6086L2.74024 12.7336C2.61549 12.8047 2.50749 12.9017 2.42359 13.0182C2.33969 13.1347 2.28184 13.2678 2.25399 13.4086C1.91273 15.1235 1.91273 16.8888 2.25399 18.6036C2.28184 18.7445 2.33969 18.8776 2.42359 18.9941C2.50749 19.1106 2.61549 19.2076 2.74024 19.2786L6.46899 21.4036L6.48399 25.6074C6.48444 25.7521 6.51631 25.895 6.57738 26.0263C6.63846 26.1575 6.72729 26.2739 6.83774 26.3674C8.19033 27.5115 9.74793 28.3883 11.4277 28.9511C11.56 28.9959 11.7002 29.0125 11.8393 28.9998C11.9784 28.9871 12.1133 28.9454 12.2352 28.8774L16.0002 26.7686L19.7652 28.8749C19.9142 28.9579 20.0822 29.001 20.2527 28.9999C20.362 28.9999 20.4704 28.9821 20.574 28.9474C22.2524 28.3812 23.8082 27.5019 25.159 26.3561C25.2693 26.2627 25.358 26.1466 25.4191 26.0156C25.4802 25.8846 25.5121 25.7419 25.5127 25.5974L25.5315 21.3911L29.2602 19.2661C29.385 19.1951 29.493 19.0981 29.5769 18.9816C29.6608 18.8651 29.7186 18.732 29.7465 18.5911C30.0858 16.8777 30.0846 15.1141 29.7427 13.4011ZM16.0002 20.9999C15.0113 20.9999 14.0446 20.7067 13.2224 20.1572C12.4001 19.6078 11.7593 18.8269 11.3808 17.9133C11.0024 16.9997 10.9034 15.9943 11.0963 15.0244C11.2892 14.0545 11.7654 13.1636 12.4647 12.4644C13.164 11.7651 14.0549 11.2889 15.0248 11.096C15.9947 10.903 17 11.0021 17.9137 11.3805C18.8273 11.7589 19.6082 12.3998 20.1576 13.222C20.707 14.0443 21.0002 15.011 21.0002 15.9999C21.0002 17.326 20.4735 18.5977 19.5358 19.5354C18.5981 20.4731 17.3263 20.9999 16.0002 20.9999Z" fill="#1C1C1E"/>
</svg>
