<svg width="32" height="32" viewBox="0 0 32 32" fill="none" xmlns="http://www.w3.org/2000/svg">
<path d="M25.9997 14.0001C25.1357 14.0016 24.2954 14.2824 23.6041 14.8005C22.9127 15.3186 22.4074 16.0464 22.1634 16.8751L16.8872 16.1251C16.6466 16.0911 16.4267 15.9707 16.2684 15.7864L11.8034 10.5689C12.6388 10.1455 13.2992 9.4424 13.6694 8.58212C14.0396 7.72184 14.0962 6.75894 13.8293 5.86121C13.5624 4.96349 12.989 4.18786 12.209 3.66951C11.429 3.15116 10.4918 2.92294 9.56079 3.02463C8.62978 3.12633 7.76396 3.55148 7.11424 4.22601C6.46451 4.90053 6.07207 5.78165 6.0053 6.71582C5.93853 7.64999 6.20167 8.57797 6.74886 9.33804C7.29606 10.0981 8.0926 10.6421 8.99969 10.8751V21.1251C8.05703 21.3685 7.2355 21.9474 6.68909 22.7532C6.14268 23.5589 5.9089 24.5363 6.03157 25.5021C6.15425 26.468 6.62495 27.3559 7.35546 27.9995C8.08596 28.6431 9.02612 28.9981 9.99969 28.9981C10.9733 28.9981 11.9134 28.6431 12.6439 27.9995C13.3744 27.3559 13.8451 26.468 13.9678 25.5021C14.0905 24.5363 13.8567 23.5589 13.3103 22.7532C12.7639 21.9474 11.9423 21.3685 10.9997 21.1251V12.7039L14.7497 17.0789C15.2236 17.6318 15.8825 17.9935 16.6034 18.0964L22.1034 18.8814C22.2695 19.6164 22.6397 20.2896 23.1716 20.8234C23.7035 21.3573 24.3753 21.73 25.1098 21.8986C25.8442 22.0673 26.6114 22.0251 27.3229 21.7769C28.0344 21.5286 28.6613 21.0844 29.1314 20.4955C29.6015 19.9066 29.8956 19.1968 29.98 18.448C30.0644 17.6992 29.9355 16.9417 29.6082 16.263C29.281 15.5842 28.7686 15.0116 28.1302 14.6113C27.4918 14.211 26.7532 13.9991 25.9997 14.0001ZM11.9997 25.0001C11.9997 25.3957 11.8824 25.7824 11.6626 26.1113C11.4429 26.4402 11.1305 26.6965 10.7651 26.8479C10.3996 26.9993 9.99747 27.0389 9.60951 26.9617C9.22155 26.8845 8.86518 26.6941 8.58548 26.4144C8.30577 26.1347 8.11529 25.7783 8.03812 25.3903C7.96095 25.0024 8.00056 24.6002 8.15193 24.2348C8.30331 23.8693 8.55965 23.557 8.88855 23.3372C9.21745 23.1174 9.60413 23.0001 9.99969 23.0001C10.5301 23.0001 11.0388 23.2109 11.4139 23.5859C11.789 23.961 11.9997 24.4697 11.9997 25.0001ZM25.9997 20.0001C25.6041 20.0001 25.2174 19.8828 24.8885 19.6631C24.5597 19.4433 24.3033 19.131 24.1519 18.7655C24.0006 18.4001 23.9609 17.9979 24.0381 17.61C24.1153 17.222 24.3058 16.8656 24.5855 16.5859C24.8652 16.3062 25.2215 16.1157 25.6095 16.0386C25.9975 15.9614 26.3996 16.001 26.7651 16.1524C27.1305 16.3038 27.4429 16.5601 27.6626 16.889C27.8824 17.2179 27.9997 17.6046 27.9997 18.0001C27.9997 18.5306 27.789 19.0393 27.4139 19.4144C27.0388 19.7894 26.5301 20.0001 25.9997 20.0001Z" fill="#1C1C1E"/>
</svg>
