<svg width="32" height="32" viewBox="0 0 32 32" fill="none" xmlns="http://www.w3.org/2000/svg">
<path d="M28.7687 14.638L26.2812 5.12548C26.2021 4.81653 26.026 4.54107 25.7789 4.33946C25.5318 4.13785 25.2266 4.0207 24.908 4.00519C24.5895 3.98967 24.2743 4.07661 24.0088 4.25324C23.7432 4.42988 23.5413 4.68694 23.4325 4.98673L21.2225 11.0005H10.7775L8.56746 4.98423C8.45842 4.68448 8.25622 4.42755 7.99051 4.25111C7.72479 4.07467 7.40954 3.98799 7.09097 4.00379C6.7724 4.01958 6.46727 4.13702 6.22031 4.33888C5.97336 4.54075 5.79757 4.81642 5.71871 5.12548L3.23121 14.638C2.86382 16.0379 2.93002 17.5164 3.42106 18.8779C3.91209 20.2394 4.80483 21.4198 5.98121 22.263L15.14 28.733C15.3912 28.9104 15.6912 29.0056 15.9987 29.0056C16.3063 29.0056 16.6062 28.9104 16.8575 28.733L26.0162 22.263C27.193 21.4201 28.0863 20.2399 28.5778 18.8784C29.0693 17.5168 29.1358 16.0382 28.7687 14.638ZM5.08496 15.513L14.2662 22.0005L11.6762 23.8317L7.13621 20.6255C6.34396 20.0565 5.73024 19.2735 5.36695 18.3683C5.00366 17.4631 4.90585 16.473 5.08496 15.5142V15.513ZM16 26.888L13.4087 25.0567L16 23.2255L18.5912 25.0555L16 26.888ZM24.8637 20.6255L20.3237 23.833L17.7337 22.0005L26.915 15.513C27.0943 16.472 26.9966 17.4623 26.6333 18.3677C26.27 19.2732 25.6562 20.0564 24.8637 20.6255Z" fill="#1C1C1E"/>
</svg>
