<svg width="32" height="32" viewBox="0 0 32 32" fill="none" xmlns="http://www.w3.org/2000/svg">
<path d="M26.0172 22.258L16.8584 28.728C16.6072 28.9054 16.3072 29.0006 15.9997 29.0006C15.6921 29.0006 15.3922 28.9054 15.1409 28.728L5.98219 22.258C4.80581 21.4148 3.91307 20.2344 3.42204 18.8729C2.931 17.5114 2.8648 16.0329 3.23219 14.633L5.71844 5.12548C5.7976 4.81653 5.97364 4.54107 6.22076 4.33946C6.46788 4.13785 6.77308 4.0207 7.09163 4.00519C7.41018 3.98967 7.72532 4.07661 7.99086 4.25324C8.2564 4.42988 8.45838 4.68694 8.56719 4.98673L10.7772 11.0005H21.2222L23.4322 4.98423C23.5412 4.68448 23.7434 4.42755 24.0091 4.25111C24.2749 4.07467 24.5901 3.98799 24.9087 4.00379C25.2273 4.01958 25.5324 4.13702 25.7793 4.33888C26.0263 4.54075 26.2021 4.81642 26.2809 5.12548L28.7684 14.6405C29.134 16.0395 29.0668 17.5164 28.5756 18.8764C28.0844 20.2364 27.1924 21.4155 26.0172 22.258Z" fill="#1C1C1E"/>
</svg>
