<svg width="32" height="32" viewBox="0 0 32 32" fill="none" xmlns="http://www.w3.org/2000/svg">
<path d="M28 6H4C3.46957 6 2.96086 6.21071 2.58579 6.58579C2.21071 6.96086 2 7.46957 2 8V24C2 24.5304 2.21071 25.0391 2.58579 25.4142C2.96086 25.7893 3.46957 26 4 26H12C12.1314 26.0001 12.2615 25.9743 12.3828 25.9241C12.5042 25.8739 12.6146 25.8003 12.7075 25.7075L16 22.4137L19.2925 25.7075C19.3854 25.8003 19.4958 25.8739 19.6171 25.9241C19.7385 25.9743 19.8686 26.0001 20 26H28C28.5304 26 29.0391 25.7893 29.4142 25.4142C29.7893 25.0391 30 24.5304 30 24V8C30 7.46957 29.7893 6.96086 29.4142 6.58579C29.0391 6.21071 28.5304 6 28 6ZM25 16C25 16.5933 24.8241 17.1734 24.4944 17.6667C24.1648 18.1601 23.6962 18.5446 23.1481 18.7716C22.5999 18.9987 21.9967 19.0581 21.4147 18.9424C20.8328 18.8266 20.2982 18.5409 19.8787 18.1213C19.4591 17.7018 19.1734 17.1672 19.0576 16.5853C18.9419 16.0033 19.0013 15.4001 19.2284 14.8519C19.4554 14.3038 19.8399 13.8352 20.3333 13.5056C20.8266 13.1759 21.4067 13 22 13C22.7956 13 23.5587 13.3161 24.1213 13.8787C24.6839 14.4413 25 15.2044 25 16ZM7 16C7 15.4067 7.17595 14.8266 7.50559 14.3333C7.83524 13.8399 8.30377 13.4554 8.85195 13.2284C9.40013 13.0013 10.0033 12.9419 10.5853 13.0576C11.1672 13.1734 11.7018 13.4591 12.1213 13.8787C12.5409 14.2982 12.8266 14.8328 12.9424 15.4147C13.0581 15.9967 12.9987 16.5999 12.7716 17.1481C12.5446 17.6962 12.1601 18.1648 11.6667 18.4944C11.1734 18.8241 10.5933 19 10 19C9.20435 19 8.44129 18.6839 7.87868 18.1213C7.31607 17.5587 7 16.7956 7 16Z" fill="#1C1C1E"/>
</svg>
