<svg width="32" height="32" viewBox="0 0 32 32" fill="none" xmlns="http://www.w3.org/2000/svg">
<path d="M30.4146 14.585L17.4146 1.58499C17.2289 1.39903 17.0083 1.25152 16.7655 1.15087C16.5227 1.05022 16.2625 0.998413 15.9996 0.998413C15.7368 0.998413 15.4765 1.05022 15.2337 1.15087C14.9909 1.25152 14.7704 1.39903 14.5846 1.58499L1.58462 14.585C1.39867 14.7707 1.25115 14.9913 1.1505 15.2341C1.04985 15.4769 0.998047 15.7372 0.998047 16C0.998047 16.2628 1.04985 16.5231 1.1505 16.7659C1.25115 17.0087 1.39867 17.2292 1.58462 17.415L14.5846 30.415C14.7704 30.6009 14.9909 30.7485 15.2337 30.8491C15.4765 30.9498 15.7368 31.0016 15.9996 31.0016C16.2625 31.0016 16.5227 30.9498 16.7655 30.8491C17.0083 30.7485 17.2289 30.6009 17.4146 30.415L30.4146 17.415C30.6006 17.2292 30.7481 17.0087 30.8487 16.7659C30.9494 16.5231 31.0012 16.2628 31.0012 16C31.0012 15.7372 30.9494 15.4769 30.8487 15.2341C30.7481 14.9913 30.6006 14.7707 30.4146 14.585ZM6.99962 17C6.99962 17.2652 6.89426 17.5196 6.70673 17.7071C6.51919 17.8946 6.26484 18 5.99962 18C5.7344 18 5.48005 17.8946 5.29251 17.7071C5.10498 17.5196 4.99962 17.2652 4.99962 17V15C4.99962 14.7348 5.10498 14.4804 5.29251 14.2929C5.48005 14.1053 5.7344 14 5.99962 14C6.26484 14 6.51919 14.1053 6.70673 14.2929C6.89426 14.4804 6.99962 14.7348 6.99962 15V17ZM11.9996 22C11.9996 22.2652 11.8943 22.5196 11.7067 22.7071C11.5192 22.8946 11.2648 23 10.9996 23C10.7344 23 10.4801 22.8946 10.2925 22.7071C10.105 22.5196 9.99962 22.2652 9.99962 22V20C9.99962 19.7348 10.105 19.4804 10.2925 19.2929C10.4801 19.1053 10.7344 19 10.9996 19C11.2648 19 11.5192 19.1053 11.7067 19.2929C11.8943 19.4804 11.9996 19.7348 11.9996 20V22ZM11.9996 16C11.9996 16.2652 11.8943 16.5196 11.7067 16.7071C11.5192 16.8946 11.2648 17 10.9996 17C10.7344 17 10.4801 16.8946 10.2925 16.7071C10.105 16.5196 9.99962 16.2652 9.99962 16V9.99999C9.99962 9.73477 10.105 9.48042 10.2925 9.29288C10.4801 9.10534 10.7344 8.99999 10.9996 8.99999C11.2648 8.99999 11.5192 9.10534 11.7067 9.29288C11.8943 9.48042 11.9996 9.73477 11.9996 9.99999V16ZM16.9996 27C16.9996 27.2652 16.8943 27.5196 16.7067 27.7071C16.5192 27.8946 16.2648 28 15.9996 28C15.7344 28 15.4801 27.8946 15.2925 27.7071C15.105 27.5196 14.9996 27.2652 14.9996 27V25C14.9996 24.7348 15.105 24.4804 15.2925 24.2929C15.4801 24.1053 15.7344 24 15.9996 24C16.2648 24 16.5192 24.1053 16.7067 24.2929C16.8943 24.4804 16.9996 24.7348 16.9996 25V27ZM16.9996 21C16.9996 21.2652 16.8943 21.5196 16.7067 21.7071C16.5192 21.8946 16.2648 22 15.9996 22C15.7344 22 15.4801 21.8946 15.2925 21.7071C15.105 21.5196 14.9996 21.2652 14.9996 21V11C14.9996 10.7348 15.105 10.4804 15.2925 10.2929C15.4801 10.1053 15.7344 9.99999 15.9996 9.99999C16.2648 9.99999 16.5192 10.1053 16.7067 10.2929C16.8943 10.4804 16.9996 10.7348 16.9996 11V21ZM16.9996 6.99999C16.9996 7.2652 16.8943 7.51956 16.7067 7.70709C16.5192 7.89463 16.2648 7.99999 15.9996 7.99999C15.7344 7.99999 15.4801 7.89463 15.2925 7.70709C15.105 7.51956 14.9996 7.2652 14.9996 6.99999V4.99999C14.9996 4.73477 15.105 4.48042 15.2925 4.29288C15.4801 4.10534 15.7344 3.99999 15.9996 3.99999C16.2648 3.99999 16.5192 4.10534 16.7067 4.29288C16.8943 4.48042 16.9996 4.73477 16.9996 4.99999V6.99999ZM21.9996 22C21.9996 22.2652 21.8943 22.5196 21.7067 22.7071C21.5192 22.8946 21.2648 23 20.9996 23C20.7344 23 20.48 22.8946 20.2925 22.7071C20.105 22.5196 19.9996 22.2652 19.9996 22V16C19.9996 15.7348 20.105 15.4804 20.2925 15.2929C20.48 15.1053 20.7344 15 20.9996 15C21.2648 15 21.5192 15.1053 21.7067 15.2929C21.8943 15.4804 21.9996 15.7348 21.9996 16V22ZM21.9996 12C21.9996 12.2652 21.8943 12.5196 21.7067 12.7071C21.5192 12.8946 21.2648 13 20.9996 13C20.7344 13 20.48 12.8946 20.2925 12.7071C20.105 12.5196 19.9996 12.2652 19.9996 12V9.99999C19.9996 9.73477 20.105 9.48042 20.2925 9.29288C20.48 9.10534 20.7344 8.99999 20.9996 8.99999C21.2648 8.99999 21.5192 9.10534 21.7067 9.29288C21.8943 9.48042 21.9996 9.73477 21.9996 9.99999V12ZM26.9996 17C26.9996 17.2652 26.8943 17.5196 26.7067 17.7071C26.5192 17.8946 26.2648 18 25.9996 18C25.7344 18 25.48 17.8946 25.2925 17.7071C25.105 17.5196 24.9996 17.2652 24.9996 17V15C24.9996 14.7348 25.105 14.4804 25.2925 14.2929C25.48 14.1053 25.7344 14 25.9996 14C26.2648 14 26.5192 14.1053 26.7067 14.2929C26.8943 14.4804 26.9996 14.7348 26.9996 15V17Z" fill="#1C1C1E"/>
</svg>
