<svg width="32" height="32" viewBox="0 0 32 32" fill="none" xmlns="http://www.w3.org/2000/svg">
<path d="M29.9775 14.2725L9.00005 2.26998C8.69423 2.09165 8.34656 1.99768 7.99255 1.99768C7.63853 1.99768 7.29086 2.09165 6.98505 2.26998C6.68375 2.44275 6.43376 2.69247 6.26069 2.99359C6.08762 3.29472 5.99767 3.63642 6.00005 3.98373V28.0162C5.99905 28.3632 6.09018 28.7042 6.26411 29.0044C6.43805 29.3046 6.68856 29.5533 6.99005 29.725C7.29586 29.9033 7.64353 29.9973 7.99755 29.9973C8.35156 29.9973 8.69923 29.9033 9.00505 29.725L29.9775 17.725C30.2873 17.5552 30.5457 17.3053 30.7257 17.0013C30.9057 16.6974 31.0006 16.3507 31.0006 15.9975C31.0006 15.6443 30.9057 15.2975 30.7257 14.9936C30.5457 14.6897 30.2873 14.4398 29.9775 14.27V14.2725ZM20 17.4137L22.365 19.7787L11.3025 26.1112L20 17.4137ZM11.3 5.88748L22.3663 12.2212L20 14.5862L11.3 5.88748ZM24.1638 18.75L21.4138 16L24.1638 13.25L28.9675 16L24.1638 18.75Z" fill="#1C1C1E"/>
</svg>
