<svg width="32" height="32" viewBox="0 0 32 32" fill="none" xmlns="http://www.w3.org/2000/svg">
<path d="M29.7004 17.9725L21.1417 3.94001C20.9627 3.65159 20.7128 3.41378 20.4159 3.24924C20.119 3.0847 19.7849 2.9989 19.4454 3.00001H12.5542C12.2149 2.99888 11.881 3.08468 11.5843 3.24923C11.2875 3.41378 11.0379 3.6516 10.8592 3.94001L10.8529 3.94876L2.30544 17.9625C2.11372 18.269 2.00864 18.6217 2.00138 18.9831C1.99412 19.3445 2.08494 19.7011 2.26419 20.015L5.67919 25.9925C5.85413 26.2986 6.10686 26.5529 6.41176 26.7299C6.71667 26.9068 7.06292 27 7.41544 27H24.5842C24.9367 27 25.283 26.9068 25.5879 26.7299C25.8928 26.5529 26.1455 26.2986 26.3204 25.9925L29.7354 20.015C29.9149 19.7032 30.0064 19.3486 30.0002 18.9889C29.9941 18.6292 29.8905 18.278 29.7004 17.9725ZM27.3754 18H21.5654L17.1667 10.6663L20.0104 5.92626L27.3754 18ZM11.5667 20H20.4342L23.4342 25H8.56669L11.5667 20ZM12.7667 18L16.0004 12.61L19.2342 18H12.7667ZM11.9892 5.92626L14.8342 10.6663L10.4342 18H4.62544L11.9892 5.92626Z" fill="#1C1C1E"/>
</svg>
