<svg width="32" height="32" viewBox="0 0 32 32" fill="none" xmlns="http://www.w3.org/2000/svg">
<path d="M21.9997 25.9048C22.6895 25.633 23.358 25.3101 23.9997 24.9386V29.9998C23.9997 30.2651 23.8943 30.5194 23.7068 30.7069C23.5193 30.8945 23.2649 30.9998 22.9997 30.9998C22.7345 30.9998 22.4801 30.8945 22.2926 30.7069C22.105 30.5194 21.9997 30.2651 21.9997 29.9998V25.9048ZM23.4697 14.8511L16.4697 11.1173C16.2361 10.998 15.9651 10.9753 15.7149 11.0539C15.4647 11.1326 15.2555 11.3064 15.1322 11.5378C15.0089 11.7693 14.9815 12.0399 15.0558 12.2914C15.1302 12.5429 15.3004 12.7551 15.5297 12.8823L21.3747 15.9998L23.4997 14.8673L23.4697 14.8511ZM31.4697 11.1173L16.4697 3.11733C16.325 3.04029 16.1636 3 15.9997 3C15.8358 3 15.6744 3.04029 15.5297 3.11733L0.529688 11.1173C0.369693 11.2026 0.235888 11.3298 0.142587 11.4852C0.0492867 11.6407 0 11.8185 0 11.9998C0 12.1811 0.0492867 12.359 0.142587 12.5145C0.235888 12.6699 0.369693 12.7971 0.529688 12.8823L3.99969 14.7336V20.7861C3.99865 21.2773 4.17942 21.7515 4.50719 22.1173C6.14469 23.9411 9.81344 26.9998 15.9997 26.9998C18.0509 27.0168 20.0867 26.6453 21.9997 25.9048V16.3336L21.3747 15.9998L15.9997 18.8661L5.47844 13.2498L3.12469 11.9998L15.9997 5.13358L28.8747 11.9998L26.5272 13.2498H26.5197L23.4997 14.8673C23.6517 14.9551 23.778 15.0814 23.8658 15.2335C23.9535 15.3855 23.9997 15.558 23.9997 15.7336V24.9386C25.3037 24.1858 26.4821 23.2339 27.4922 22.1173C27.82 21.7515 28.0007 21.2773 27.9997 20.7861V14.7336L31.4697 12.8823C31.6297 12.7971 31.7635 12.6699 31.8568 12.5145C31.9501 12.359 31.9994 12.1811 31.9994 11.9998C31.9994 11.8185 31.9501 11.6407 31.8568 11.4852C31.7635 11.3298 31.6297 11.2026 31.4697 11.1173Z" fill="#1C1C1E"/>
</svg>
