<svg width="32" height="32" viewBox="0 0 32 32" fill="none" xmlns="http://www.w3.org/2000/svg">
<path d="M27.0003 8.00044V18.0004C27.0012 19.3012 26.7705 20.5918 26.319 21.8117C26.2886 21.8916 26.2383 21.9625 26.1728 22.0174C26.1072 22.0723 26.0287 22.1095 25.9447 22.1255C25.8607 22.1414 25.774 22.1355 25.6929 22.1084C25.6118 22.0812 25.539 22.0337 25.4815 21.9704L20.3153 16.2879C20.2651 16.2323 20.2281 16.1662 20.2069 16.0944C20.1858 16.0225 20.181 15.9469 20.193 15.873C20.205 15.799 20.2335 15.7288 20.2762 15.6673C20.319 15.6059 20.3751 15.5548 20.4403 15.5179C21.8326 14.696 23.3901 14.1935 25.0003 14.0467V9.05669C23.754 9.1984 22.5509 9.59786 21.4673 10.2297C20.3838 10.8615 19.4436 11.7119 18.7065 12.7267C18.6237 12.8417 18.5173 12.9377 18.3946 13.0085C18.2718 13.0793 18.1354 13.1231 17.9944 13.1372C17.8534 13.1513 17.711 13.1352 17.5767 13.0901C17.4424 13.0449 17.3192 12.9718 17.2153 12.8754C17.0366 12.7032 16.9268 12.4718 16.9063 12.2245C16.8859 11.9772 16.9561 11.731 17.104 11.5317C17.9478 10.3747 19.0093 9.39341 20.229 8.64294C19.0778 6.22544 16.9315 4.71794 16.0003 4.15044C14.9024 4.8252 13.9156 5.66601 13.0753 6.64294C12.9838 6.7515 12.8703 6.83935 12.7423 6.90065C12.6143 6.96196 12.4748 6.99532 12.3329 6.99851C12.191 7.0017 12.05 6.97466 11.9194 6.91917C11.7888 6.86368 11.6715 6.78102 11.5753 6.67669C11.4102 6.49099 11.3184 6.25155 11.317 6.00311C11.3157 5.75466 11.4048 5.51422 11.5678 5.32669C12.6867 4.01833 14.0366 2.92685 15.5503 2.10669C15.6892 2.03717 15.8424 2.00098 15.9978 2.00098C16.1531 2.00098 16.3063 2.03717 16.4453 2.10669C16.6103 2.18919 20.229 4.03544 22.019 7.75044C23.2838 7.25739 24.629 7.00309 25.9865 7.00044C26.119 6.99862 26.2505 7.02314 26.3734 7.07258C26.4963 7.12202 26.6082 7.19539 26.7025 7.28843C26.7968 7.38147 26.8717 7.49233 26.9228 7.61456C26.974 7.73679 27.0003 7.86796 27.0003 8.00044ZM26.7403 26.3279C26.8304 26.4248 26.9005 26.5386 26.9463 26.6627C26.9922 26.7868 27.013 26.9188 27.0074 27.0511C27.0019 27.1833 26.9702 27.3131 26.9141 27.4329C26.8581 27.5528 26.7788 27.6604 26.6809 27.7494C26.5829 27.8384 26.4683 27.907 26.3436 27.9514C26.219 27.9958 26.0867 28.015 25.9546 28.0079C25.8225 28.0008 25.693 27.9675 25.5739 27.91C25.4547 27.8525 25.3481 27.7719 25.2603 27.6729L23.6478 25.8992C21.6155 27.8732 18.8984 28.9845 16.0653 29.0004C9.979 29.0354 5.00025 23.9392 5.00025 17.8542V8.00044C5.00024 7.86817 5.02648 7.73721 5.07743 7.61514C5.12839 7.49308 5.20306 7.38234 5.29711 7.28933C5.39116 7.19632 5.50273 7.1229 5.62536 7.07331C5.74799 7.02372 5.87924 6.99895 6.0115 7.00044C6.16775 7.00044 6.3215 7.00044 6.4765 7.01169L5.26025 5.67294C5.17008 5.57609 5.10004 5.46229 5.05417 5.33817C5.00831 5.21404 4.98754 5.08204 4.99306 4.94983C4.99858 4.81761 5.03029 4.68781 5.08635 4.56794C5.14241 4.44807 5.22171 4.34052 5.31964 4.25152C5.41757 4.16252 5.53219 4.09384 5.65686 4.04947C5.78153 4.00509 5.91377 3.98591 6.04591 3.99301C6.17805 4.00012 6.30746 4.03339 6.42665 4.09088C6.54584 4.14837 6.65243 4.22895 6.74025 4.32794L26.7403 26.3279ZM17.0403 18.6317L8.64775 9.39919C8.11065 9.23291 7.55903 9.11781 7.00025 9.05544V14.0479C8.92818 14.2264 10.7751 14.9095 12.355 16.0287C13.935 17.1478 15.1923 18.6634 16.0003 20.4229C16.29 19.7946 16.6382 19.1948 17.0403 18.6317Z" fill="#1C1C1E"/>
</svg>
