<svg width="32" height="32" viewBox="0 0 32 32" fill="none" xmlns="http://www.w3.org/2000/svg">
<path d="M28.7913 17.6323C28.4191 17.346 27.986 17.1494 27.5255 17.0577C27.0651 16.966 26.5897 16.9817 26.1362 17.1036L20.9062 18.3061C21.0279 17.792 21.0317 17.2572 20.9172 16.7415C20.8028 16.2258 20.5731 15.7428 20.2454 15.3285C19.9177 14.9142 19.5005 14.5795 19.0251 14.3494C18.5496 14.1193 18.0282 13.9998 17.5 13.9998H11.2425C10.717 13.9985 10.1964 14.1013 9.71092 14.3024C9.22539 14.5034 8.78451 14.7986 8.41375 15.1711L5.58625 17.9998H2C1.46957 17.9998 0.960859 18.2105 0.585786 18.5856C0.210714 18.9607 0 19.4694 0 19.9998L0 24.9998C0 25.5302 0.210714 26.0389 0.585786 26.414C0.960859 26.7891 1.46957 26.9998 2 26.9998H15C15.0818 26.9998 15.1632 26.9898 15.2425 26.9698L23.2425 24.9698C23.2938 24.9575 23.344 24.9408 23.3925 24.9198L28.25 22.8523L28.305 22.8273C28.772 22.594 29.1718 22.2456 29.4669 21.815C29.7621 21.3844 29.9427 20.8858 29.9918 20.3661C30.041 19.8464 29.957 19.3227 29.7478 18.8445C29.5387 18.3662 29.2112 17.949 28.7962 17.6323H28.7913ZM27.4287 21.0261L22.6787 23.0486L14.875 24.9998H7V19.4136L9.82875 16.5861C10.0138 16.3995 10.2341 16.2517 10.4768 16.151C10.7195 16.0504 10.9798 15.999 11.2425 15.9998H17.5C17.8978 15.9998 18.2794 16.1578 18.5607 16.4392C18.842 16.7205 19 17.102 19 17.4998C19 17.8976 18.842 18.2792 18.5607 18.5605C18.2794 18.8418 17.8978 18.9998 17.5 18.9998H14C13.7348 18.9998 13.4804 19.1052 13.2929 19.2927C13.1054 19.4802 13 19.7346 13 19.9998C13 20.265 13.1054 20.5194 13.2929 20.7069C13.4804 20.8945 13.7348 20.9998 14 20.9998H18C18.0753 20.9996 18.1503 20.9912 18.2237 20.9748L26.5987 19.0486L26.6375 19.0386C26.8932 18.9676 27.166 18.9937 27.4036 19.1118C27.6412 19.2299 27.8267 19.4317 27.9245 19.6784C28.0222 19.9251 28.0253 20.1992 27.9331 20.448C27.8409 20.6968 27.6599 20.9027 27.425 21.0261H27.4287ZM19.2925 7.70731C19.1995 7.61444 19.1258 7.50415 19.0754 7.38275C19.0251 7.26135 18.9992 7.13123 18.9992 6.99981C18.9992 6.86839 19.0251 6.73827 19.0754 6.61687C19.1258 6.49547 19.1995 6.38518 19.2925 6.29231L23.2925 2.29231C23.3854 2.19933 23.4957 2.12557 23.6171 2.07525C23.7385 2.02493 23.8686 1.99902 24 1.99902C24.1314 1.99902 24.2615 2.02493 24.3829 2.07525C24.5043 2.12557 24.6146 2.19933 24.7075 2.29231L28.7075 6.29231C28.8004 6.38522 28.8741 6.49552 28.9244 6.61691C28.9747 6.73831 29.0006 6.86842 29.0006 6.99981C29.0006 7.13121 28.9747 7.26131 28.9244 7.38271C28.8741 7.5041 28.8004 7.6144 28.7075 7.70731C28.6146 7.80022 28.5043 7.87392 28.3829 7.9242C28.2615 7.97449 28.1314 8.00037 28 8.00037C27.8686 8.00037 27.7385 7.97449 27.6171 7.9242C27.4957 7.87392 27.3854 7.80022 27.2925 7.70731L25 5.41356V12.9998C25 13.265 24.8946 13.5194 24.7071 13.7069C24.5196 13.8945 24.2652 13.9998 24 13.9998C23.7348 13.9998 23.4804 13.8945 23.2929 13.7069C23.1054 13.5194 23 13.265 23 12.9998V5.41356L20.7075 7.70731C20.6146 7.80029 20.5043 7.87405 20.3829 7.92437C20.2615 7.97469 20.1314 8.0006 20 8.0006C19.8686 8.0006 19.7385 7.97469 19.6171 7.92437C19.4957 7.87405 19.3854 7.80029 19.2925 7.70731Z" fill="#1C1C1E"/>
</svg>
