<svg width="32" height="32" viewBox="0 0 32 32" fill="none" xmlns="http://www.w3.org/2000/svg">
<path d="M27.4134 12.3076C28.1562 13.5578 28.6437 14.9429 28.8478 16.3827C29.0518 17.8225 28.9684 19.2885 28.6022 20.6958C28.2361 22.1032 27.5946 23.4239 26.7147 24.5818C25.8348 25.7396 24.7342 26.7114 23.4763 27.4411C22.2184 28.1708 20.8284 28.6439 19.3865 28.8329C17.9446 29.022 16.4796 28.9232 15.0762 28.5424C13.6727 28.1616 12.3587 27.5063 11.2101 26.6144C10.0615 25.7226 9.10119 24.6118 8.38465 23.3464L3.2684 14.4851C3.02504 14.0275 2.96879 13.4934 3.11153 12.9951C3.25426 12.4969 3.58483 12.0736 4.03357 11.8143C4.48231 11.555 5.01418 11.48 5.51711 11.6051C6.02004 11.7303 6.45476 12.0458 6.72965 12.4851L9.04965 16.5001C9.11531 16.6139 9.20274 16.7136 9.30694 16.7936C9.41113 16.8735 9.53006 16.9322 9.65693 16.9662C9.78379 17.0002 9.91612 17.0089 10.0463 16.9918C10.1766 16.9746 10.3021 16.932 10.4159 16.8664C10.5297 16.8007 10.6294 16.7133 10.7093 16.6091C10.7893 16.5049 10.848 16.386 10.882 16.2591C10.916 16.1322 10.9247 15.9999 10.9076 15.8697C10.8904 15.7395 10.8478 15.6139 10.7822 15.5001L5.87465 7.00012C5.63129 6.54255 5.57504 6.00837 5.71778 5.51014C5.86051 5.01192 6.19108 4.58856 6.63982 4.32926C7.08855 4.06997 7.62043 3.99499 8.12336 4.12014C8.62629 4.24528 9.06101 4.56077 9.3359 5.00012L14.2497 13.5001C14.3134 13.6175 14.4 13.7209 14.5043 13.8042C14.6086 13.8876 14.7286 13.9492 14.8571 13.9854C14.9857 14.0216 15.1201 14.0318 15.2526 14.0152C15.3851 13.9986 15.513 13.9556 15.6286 13.8888C15.7443 13.8221 15.8453 13.7328 15.9259 13.6263C16.0065 13.5198 16.0649 13.3982 16.0977 13.2688C16.1306 13.1394 16.1372 13.0047 16.1171 12.8726C16.097 12.7406 16.0507 12.614 15.9809 12.5001L12.2309 6.00012C11.9734 5.54125 11.9072 4.99941 12.0465 4.49203C12.1858 3.98464 12.5194 3.55258 12.975 3.28948C13.4307 3.02638 13.9717 2.95344 14.4807 3.08646C14.9898 3.21948 15.426 3.54774 15.6947 4.00012L20.7497 12.7651C19.6319 13.8916 19.0031 15.4132 18.9997 17.0001C18.9959 18.2989 19.4174 19.5633 20.1997 20.6001C20.2777 20.7074 20.3762 20.7981 20.4896 20.867C20.603 20.9358 20.729 20.9814 20.8601 21.001C20.9913 21.0207 21.1251 21.0141 21.2537 20.9816C21.3823 20.9491 21.5032 20.8913 21.6092 20.8116C21.7153 20.7319 21.8044 20.6319 21.8714 20.5175C21.9385 20.403 21.9821 20.2763 21.9997 20.1448C22.0173 20.0134 22.0085 19.8797 21.974 19.7516C21.9394 19.6236 21.8798 19.5036 21.7984 19.3989C21.4821 18.9765 21.2525 18.4958 21.1227 17.9843C20.993 17.4729 20.9658 16.9408 21.0426 16.4188C21.1194 15.8967 21.2987 15.3951 21.5702 14.9426C21.8418 14.4902 22.2001 14.096 22.6247 13.7826C22.8221 13.6365 22.9588 13.4229 23.0089 13.1825C23.0589 12.942 23.0187 12.6916 22.8959 12.4789L21.4634 10.0001C21.2059 9.54125 21.1397 8.99941 21.279 8.49203C21.4183 7.98464 21.7519 7.55258 22.2075 7.28948C22.6632 7.02638 23.2042 6.95344 23.7132 7.08646C24.2223 7.21948 24.6585 7.54774 24.9272 8.00012L27.4134 12.3076ZM23.7422 5.18262C24.4428 5.36725 25.0998 5.68931 25.6749 6.13008C26.25 6.57084 26.7318 7.12153 27.0922 7.75012L27.1334 7.82137C27.266 8.05111 27.4845 8.21877 27.7407 8.28745C27.8675 8.32146 27.9999 8.33015 28.1301 8.31302C28.2603 8.29589 28.3859 8.25328 28.4997 8.18762C28.6134 8.12196 28.7131 8.03453 28.7931 7.93034C28.8731 7.82614 28.9317 7.70721 28.9657 7.58035C28.9998 7.45348 29.0084 7.32115 28.9913 7.19093C28.9742 7.0607 28.9316 6.93513 28.8659 6.82137L28.8247 6.75012C28.3332 5.89321 27.6763 5.14252 26.8922 4.54167C26.1081 3.94082 25.2124 3.5018 24.2572 3.25012C24.0016 3.18404 23.7303 3.22166 23.5024 3.35479C23.2745 3.48791 23.1085 3.70573 23.0405 3.96077C22.9726 4.2158 23.0082 4.48736 23.1396 4.71625C23.271 4.94513 23.4876 5.11277 23.7422 5.18262ZM9.94715 28.2151C8.65136 27.1925 7.56306 25.9315 6.7409 24.5001C6.67524 24.3864 6.58782 24.2866 6.48362 24.2067C6.37943 24.1267 6.2605 24.068 6.13363 24.034C6.00676 24 5.87444 23.9913 5.74421 24.0085C5.61399 24.0256 5.48841 24.0682 5.37465 24.1339C5.2609 24.1995 5.16119 24.287 5.08121 24.3911C5.00124 24.4953 4.94258 24.6143 4.90857 24.7411C4.87456 24.868 4.86587 25.0003 4.883 25.1306C4.90013 25.2608 4.94274 25.3864 5.0084 25.5001C5.95747 27.1511 7.21333 28.6056 8.7084 29.7851C8.91693 29.9455 9.18028 30.0173 9.44137 29.9849C9.70246 29.9525 9.94027 29.8185 10.1032 29.612C10.2662 29.4054 10.3412 29.143 10.312 28.8815C10.2828 28.62 10.1517 28.3806 9.94715 28.2151Z" fill="#1C1C1E"/>
</svg>
