<svg width="32" height="32" viewBox="0 0 32 32" fill="none" xmlns="http://www.w3.org/2000/svg">
<path d="M27.9995 13.0004V19.3666C27.9995 25.1416 23.3933 29.9354 17.6245 29.9991C16.2244 30.018 14.8348 29.7557 13.5379 29.2277C12.241 28.6997 11.0633 27.9168 10.0745 26.9254C7.34828 24.0416 4.26828 17.0004 4.26828 17.0004C4.1328 16.7659 4.04635 16.5063 4.01417 16.2374C3.98199 15.9686 4.00475 15.6959 4.08108 15.4361C4.1574 15.1763 4.2857 14.9347 4.45818 14.7259C4.63067 14.5171 4.84376 14.3456 5.08453 14.2216C6.04203 13.7216 7.22203 14.1166 7.75953 15.0491L10.3845 19.6041C10.4575 19.7353 10.5677 19.8419 10.7011 19.9106C10.8346 19.9794 10.9854 20.0071 11.1345 19.9904H11.1495C11.3897 19.949 11.6073 19.8233 11.7631 19.6359C11.9189 19.4485 12.0028 19.2116 11.9995 18.9679V4.00036C11.9992 3.72942 12.054 3.46124 12.1604 3.21209C12.2669 2.96295 12.4229 2.73804 12.6189 2.551C12.815 2.36397 13.047 2.21872 13.3008 2.12406C13.5547 2.02941 13.8252 1.98733 14.0958 2.00036C15.172 2.05036 15.9995 2.97786 15.9995 4.05411V13.0004C15.9992 13.1375 16.0271 13.2731 16.0815 13.399C16.1358 13.5248 16.2155 13.6382 16.3154 13.732C16.4154 13.8257 16.5336 13.898 16.6627 13.9441C16.7918 13.9903 16.929 14.0094 17.0658 14.0004C17.3229 13.9783 17.5622 13.8596 17.7354 13.6683C17.9086 13.477 18.003 13.2272 17.9995 12.9691V11.0004C17.9992 10.7294 18.054 10.4612 18.1604 10.2121C18.2669 9.96295 18.4229 9.73803 18.6189 9.551C18.815 9.36397 19.047 9.21872 19.3008 9.12406C19.5547 9.02941 19.8252 8.98733 20.0958 9.00036C21.172 9.05036 21.9995 9.97786 21.9995 11.0541V14.0004C21.9992 14.1375 22.0271 14.2731 22.0815 14.399C22.1358 14.5248 22.2155 14.6382 22.3154 14.732C22.4154 14.8257 22.5336 14.898 22.6627 14.9441C22.7918 14.9903 22.929 15.0094 23.0658 15.0004C23.3229 14.9783 23.5622 14.8596 23.7354 14.6683C23.9086 14.477 24.003 14.2272 23.9995 13.9691V13.0591C23.9995 11.9829 24.827 11.0591 25.9033 11.0054C26.1735 10.9923 26.4435 11.0343 26.6971 11.1286C26.9506 11.223 27.1824 11.3678 27.3783 11.5543C27.5743 11.7408 27.7304 11.9651 27.8372 12.2136C27.9439 12.4622 27.9992 12.7298 27.9995 13.0004Z" fill="#1C1C1E"/>
</svg>
