<svg width="32" height="32" viewBox="0 0 32 32" fill="none" xmlns="http://www.w3.org/2000/svg">
<path d="M16.0112 7.17204C16.0673 6.39598 16.3236 5.64772 16.7551 5.00029C17.1866 4.35285 17.7787 3.82837 18.4734 3.47804C19.1682 3.12771 19.9419 2.9635 20.719 3.00145C21.4962 3.03939 22.2502 3.27819 22.9075 3.69453C22.9827 3.74371 23.0432 3.81221 23.0827 3.89285C23.1222 3.97349 23.1393 4.06329 23.1322 4.15281C23.125 4.24233 23.0938 4.32827 23.042 4.4016C22.9902 4.47493 22.9195 4.53294 22.8375 4.56954C21.6949 5.08362 20.7249 5.91665 20.0442 6.96857C19.3634 8.02049 19.0009 9.24657 19 10.4995C19 10.6458 19 10.792 19.015 10.9358C19.0219 11.0266 19.0038 11.1177 18.9627 11.199C18.9217 11.2803 18.8591 11.3489 18.7819 11.3973C18.7047 11.4457 18.6158 11.472 18.5247 11.4735C18.4335 11.475 18.3438 11.4516 18.265 11.4058C17.5283 10.9844 16.9258 10.3633 16.5271 9.6142C16.1283 8.86507 15.9495 8.01844 16.0112 7.17204ZM30 20.0758C30.0018 20.6472 29.8435 21.2077 29.543 21.6937C29.2426 22.1798 28.8119 22.572 28.3 22.8258L28.245 22.8508L23.3913 24.9183C23.3433 24.9394 23.2935 24.9561 23.2425 24.9683L15.2425 26.9683C15.1633 26.9887 15.0818 26.9992 15 26.9995H2C1.46957 26.9995 0.960859 26.7888 0.585786 26.4137C0.210714 26.0387 0 25.53 0 24.9995V19.9995C0 19.4691 0.210714 18.9604 0.585786 18.5853C0.960859 18.2102 1.46957 17.9995 2 17.9995H5.58625L8.41375 15.1708C8.78451 14.7984 9.22539 14.5031 9.71092 14.3021C10.1964 14.101 10.717 13.9982 11.2425 13.9995H17.5C18.0282 13.9995 18.5496 14.119 19.0251 14.3491C19.5005 14.5792 19.9177 14.9139 20.2454 15.3282C20.5731 15.7425 20.8028 16.2256 20.9172 16.7412C21.0317 17.2569 21.0279 17.7918 20.9062 18.3058L26.1362 17.1033C26.5915 16.9827 27.0685 16.9683 27.5302 17.0612C27.992 17.154 28.4262 17.3516 28.7995 17.6388C29.1728 17.926 29.4752 18.2951 29.6833 18.7176C29.8915 19.1401 29.9998 19.6048 30 20.0758ZM28 20.0758C27.9998 19.9104 27.9616 19.7474 27.8882 19.5992C27.8148 19.451 27.7083 19.3217 27.5769 19.2214C27.4455 19.1211 27.2927 19.0523 27.1305 19.0206C26.9682 18.9888 26.8008 18.9949 26.6413 19.0383L26.6025 19.0483L18.2275 20.9745C18.154 20.9909 18.079 20.9993 18.0037 20.9995H14C13.7348 20.9995 13.4804 20.8942 13.2929 20.7066C13.1054 20.5191 13 20.2648 13 19.9995C13 19.7343 13.1054 19.48 13.2929 19.2924C13.4804 19.1049 13.7348 18.9995 14 18.9995H17.5C17.8978 18.9995 18.2794 18.8415 18.5607 18.5602C18.842 18.2789 19 17.8974 19 17.4995C19 17.1017 18.842 16.7202 18.5607 16.4389C18.2794 16.1576 17.8978 15.9995 17.5 15.9995H11.2425C10.9798 15.9987 10.7195 16.0501 10.4768 16.1507C10.2341 16.2514 10.0138 16.3993 9.82875 16.5858L7 19.4133V24.9995H14.875L22.6787 23.0483L27.4287 21.0258C27.6016 20.9347 27.7463 20.798 27.847 20.6305C27.9477 20.4631 28.0006 20.2712 28 20.0758ZM21 10.4995C21 11.3896 21.2639 12.2596 21.7584 12.9996C22.2529 13.7396 22.9557 14.3164 23.7779 14.657C24.6002 14.9976 25.505 15.0867 26.3779 14.9131C27.2508 14.7394 28.0526 14.3109 28.682 13.6815C29.3113 13.0522 29.7399 12.2504 29.9135 11.3774C30.0872 10.5045 29.9981 9.59973 29.6575 8.77746C29.3169 7.95519 28.7401 7.25239 28.0001 6.75792C27.26 6.26346 26.39 5.99953 25.5 5.99953C24.3065 5.99953 23.1619 6.47364 22.318 7.31755C21.4741 8.16147 21 9.30606 21 10.4995Z" fill="#1C1C1E"/>
</svg>
