<svg width="32" height="32" viewBox="0 0 32 32" fill="none" xmlns="http://www.w3.org/2000/svg">
<path d="M12.069 4.51792C11.9331 4.01217 12.001 3.4733 12.2581 3.01707C12.5152 2.56083 12.941 2.22364 13.444 2.07792C14.5203 1.77042 15.6503 2.45292 15.944 3.53417L17.944 11.0067C17.9625 11.074 17.9666 11.1443 17.9562 11.2133C17.9459 11.2823 17.9211 11.3484 17.8837 11.4072C17.8463 11.4661 17.7969 11.5165 17.7389 11.5551C17.6808 11.5938 17.6153 11.6199 17.5465 11.6317C16.9932 11.7264 16.4662 11.9373 16.0003 12.2504C15.9303 12.2967 15.8628 12.3454 15.7953 12.3967C15.754 12.3242 15.7115 12.2517 15.6703 12.1817C15.243 11.5325 14.6345 11.0231 13.9203 10.7167C13.8516 10.687 13.7906 10.6421 13.7418 10.5854C13.6931 10.5286 13.6579 10.4615 13.639 10.3892L12.069 4.51792ZM10.0503 22.0817C10.1831 22.1089 10.3184 22.1228 10.454 22.1229C10.9497 22.1225 11.4275 21.938 11.7949 21.6053C12.1622 21.2726 12.393 20.8153 12.4423 20.3221C12.4917 19.8289 12.3561 19.3349 12.062 18.936C11.7678 18.5371 11.336 18.2616 10.8503 18.1629L8.40151 17.6629C7.88403 17.5621 7.3477 17.6698 6.90915 17.9624C6.47061 18.255 6.16534 18.7089 6.05973 19.2254C5.95412 19.7419 6.05672 20.2792 6.34521 20.7205C6.63371 21.1617 7.08476 21.4712 7.60026 21.5817L10.0503 22.0817ZM7.60026 15.4567L11.9303 16.3404C12.1892 16.3972 12.4568 16.402 12.7176 16.3544C12.9784 16.3069 13.2272 16.2079 13.4494 16.0634C13.6716 15.9188 13.8629 15.7315 14.0121 15.5124C14.1612 15.2933 14.2654 15.0467 14.3184 14.7869C14.3714 14.5272 14.3723 14.2595 14.3209 13.9994C14.2696 13.7393 14.167 13.4921 14.0192 13.272C13.8715 13.0519 13.6814 12.8634 13.4601 12.7174C13.2388 12.5714 12.9907 12.4709 12.7303 12.4217L8.40151 11.5417C7.88185 11.4354 7.34128 11.54 6.8987 11.8323C6.45612 12.1246 6.14778 12.5808 6.04151 13.1004C5.93528 13.6201 6.03982 14.1607 6.33214 14.6032C6.62446 15.0458 7.08061 15.3542 7.60026 15.4604V15.4567ZM20.3503 11.9367L23.294 12.5379C23.4182 12.563 23.5472 12.5401 23.6551 12.4737C23.763 12.4074 23.8417 12.3026 23.8753 12.1804L25.9278 4.51792C26.0628 4.00628 25.9896 3.46195 25.7242 3.00418C25.4587 2.5464 25.0227 2.21248 24.5115 2.07555C24.0004 1.93863 23.4558 2.00986 22.997 2.27364C22.5383 2.53743 22.2028 2.97227 22.064 3.48292L19.964 11.3204C19.9463 11.3867 19.9424 11.4558 19.9525 11.5237C19.9627 11.5915 19.9867 11.6565 20.023 11.7146C20.0594 11.7728 20.1073 11.8228 20.1638 11.8617C20.2203 11.9005 20.2842 11.9273 20.3515 11.9404L20.3503 11.9367ZM25.0178 15.9042C24.8037 15.5523 24.5192 15.2485 24.1821 15.0119C23.8451 14.7752 23.4627 14.6109 23.059 14.5292L18.609 13.6254C18.2668 13.5555 17.9123 13.5764 17.5807 13.6861C17.2491 13.7957 16.952 13.9903 16.719 14.2504C16.5953 14.3826 16.4928 14.5331 16.4153 14.6967C16.2466 15.035 16.1773 15.4142 16.2153 15.7903C16.2534 16.1664 16.3973 16.524 16.6303 16.8217C16.937 17.2071 17.3715 17.4701 17.8553 17.5629L19.7603 17.9517C20.019 18.0043 20.2467 18.1564 20.3944 18.3752C20.5422 18.594 20.5981 18.862 20.5503 19.1217C20.3821 19.9294 20.5048 20.7706 20.8965 21.4967C21.0168 21.707 21.0586 21.9533 21.0144 22.1915C20.9702 22.4298 20.843 22.6447 20.6553 22.7979C20.5413 22.8873 20.4092 22.9508 20.2683 22.9842C20.1273 23.0175 19.9808 23.0198 19.8388 22.9909C19.6969 22.962 19.5629 22.9026 19.4462 22.8168C19.3295 22.7311 19.2327 22.621 19.1628 22.4942C18.6962 21.6498 18.46 20.6975 18.4778 19.7329L17.409 19.5004C16.8947 19.3968 16.406 19.1924 15.9711 18.8989C15.5362 18.6054 15.1637 18.2287 14.8753 17.7904C14.8278 17.7192 14.784 17.6467 14.7428 17.5729C14.4783 17.7745 14.1899 17.9425 13.884 18.0729C14.2468 18.6798 14.4423 19.372 14.4505 20.0789C14.4587 20.7859 14.2794 21.4825 13.9308 22.0976C13.5822 22.7127 13.0768 23.2244 12.466 23.5807C11.8553 23.9369 11.161 24.1248 10.454 24.1254C10.184 24.1253 9.91479 24.098 9.65026 24.0442L7.20151 23.5442H7.19401C7.13518 23.5302 7.07364 23.5329 7.01625 23.5519C6.95886 23.5709 6.90788 23.6055 6.86899 23.6517C6.8301 23.698 6.80483 23.7542 6.796 23.814C6.78718 23.8738 6.79514 23.9349 6.81901 23.9904C7.59941 25.7763 8.88352 27.296 10.5142 28.3634C12.1448 29.4308 14.0513 29.9997 16.0003 30.0004H16.0765C21.5478 29.9592 26.0003 25.4229 26.0003 19.8879V19.4704C25.9999 18.2162 25.6609 16.9854 25.019 15.9079L25.0178 15.9042Z" fill="#1C1C1E"/>
</svg>
