<svg width="32" height="33" viewBox="0 0 32 33" fill="none" xmlns="http://www.w3.org/2000/svg">
<path d="M23.6091 8.125C23.3107 7.607 22.8188 7.22874 22.2416 7.07344C21.6643 6.91813 21.049 6.99851 20.531 7.29688C20.013 7.59524 19.6347 8.08717 19.4794 8.66443C19.3241 9.24169 19.4045 9.857 19.7029 10.375L16.6704 5.125C16.372 4.6075 15.8803 4.22971 15.3034 4.07476C14.7264 3.91981 14.1116 4.00038 13.5941 4.29875C13.0766 4.59712 12.6988 5.08884 12.5439 5.66575C12.3889 6.24266 12.4695 6.8575 12.7679 7.375L12.0504 6.125C11.752 5.6075 11.2603 5.22971 10.6834 5.07476C10.1064 4.91981 9.49162 5.00038 8.97411 5.29875C8.45661 5.59712 8.07883 6.08884 7.92387 6.66575C7.76892 7.24266 7.84949 7.8575 8.14786 8.375L8.56536 9.09625C7.94655 8.94273 7.29624 8.97462 6.69542 9.18794C6.09459 9.40126 5.56978 9.78659 5.18632 10.296C4.80286 10.8053 4.57769 11.4162 4.53884 12.0526C4.5 12.689 4.6492 13.3228 4.96786 13.875L5.34286 14.525C4.81129 14.5924 4.30463 14.7903 3.86801 15.1009C3.43138 15.4115 3.07833 15.8253 2.84028 16.3053C2.60223 16.7854 2.48657 17.3168 2.50359 17.8524C2.52062 18.388 2.6698 18.911 2.93786 19.375L7.34661 27C8.44713 28.9038 10.1435 30.3926 12.174 31.2367C14.2045 32.0808 16.4564 32.2333 18.5822 31.6707C20.708 31.1081 22.5896 29.8617 23.9368 28.1237C25.284 26.3857 26.0219 24.2527 26.0366 22.0537C26.9278 20.6642 27.4193 19.056 27.457 17.4056C27.4947 15.7552 27.0772 14.1263 26.2504 12.6975L23.6091 8.125ZM23.7591 24.07C23.3475 25.5995 22.4919 26.9727 21.3004 28.0162C20.1088 29.0598 18.6349 29.727 17.0645 29.9335C15.4941 30.14 13.8977 29.8765 12.477 29.1765C11.0562 28.4764 9.87467 27.3711 9.08161 26L4.67286 18.375C4.59079 18.2327 4.53755 18.0756 4.51618 17.9127C4.49482 17.7498 4.50574 17.5843 4.54834 17.4256C4.59094 17.2669 4.66438 17.1182 4.76445 16.9879C4.86453 16.8576 4.98929 16.7483 5.13161 16.6663C5.41904 16.5005 5.76054 16.4557 6.081 16.5417C6.23967 16.5843 6.3884 16.6578 6.51869 16.7578C6.64898 16.8579 6.75829 16.9827 6.84036 17.125L9.37536 21.5C9.50797 21.7299 9.72648 21.8977 9.98282 21.9665C10.2392 22.0353 10.5123 21.9995 10.7422 21.8669C10.9721 21.7343 11.14 21.5158 11.2088 21.2594C11.2776 21.0031 11.2417 20.7299 11.1091 20.5L6.70286 12.875C6.5371 12.5869 6.49257 12.2448 6.57907 11.9238C6.66558 11.6029 6.87602 11.3295 7.16411 11.1637C7.4522 10.998 7.79434 10.9535 8.11526 11.04C8.43619 11.1265 8.7096 11.3369 8.87536 11.625L12.8516 18.5C12.9842 18.7299 13.2027 18.8977 13.4591 18.9665C13.7154 19.0353 13.9886 18.9995 14.2185 18.8669C14.4484 18.7343 14.6162 18.5158 14.685 18.2594C14.7538 18.0031 14.718 17.7299 14.5854 17.5L11.3354 11.875C11.1696 11.5874 11.1249 11.2457 11.211 10.9252C11.2972 10.6046 11.5071 10.3314 11.7947 10.1656C12.0823 9.99986 12.424 9.95514 12.7446 10.0413C13.0651 10.1274 13.3384 10.3374 13.5041 10.625L18.0666 18.5C18.1992 18.7299 18.4177 18.8977 18.6741 18.9665C18.9304 19.0353 19.2036 18.9995 19.4335 18.8669C19.6634 18.7343 19.8312 18.5158 19.9 18.2594C19.9688 18.0031 19.933 17.7299 19.8004 17.5L18.2254 14.7812C18.1061 14.493 18.0988 14.1706 18.2051 13.8773C18.3114 13.584 18.5236 13.341 18.7998 13.1962C19.0761 13.0513 19.3966 13.0149 19.6983 13.0943C20 13.1736 20.2611 13.3629 20.4304 13.625L22.9579 18C23.4867 18.9085 23.8298 19.9131 23.9674 20.9553C24.1049 21.9975 24.0341 23.0566 23.7591 24.0713V24.07ZM20.0279 3V1C20.0279 0.734784 20.1332 0.48043 20.3208 0.292893C20.5083 0.105357 20.7626 0 21.0279 0C21.2931 0 21.5474 0.105357 21.735 0.292893C21.9225 0.48043 22.0279 0.734784 22.0279 1V3C22.0279 3.26522 21.9225 3.51957 21.735 3.70711C21.5474 3.89464 21.2931 4 21.0279 4C20.7626 4 20.5083 3.89464 20.3208 3.70711C20.1332 3.51957 20.0279 3.26522 20.0279 3ZM24.1804 3.75L25.1804 2.1125C25.2487 2.00022 25.3385 1.90251 25.4447 1.82494C25.5508 1.74737 25.6712 1.69146 25.7989 1.66041C25.9267 1.62936 26.0593 1.62378 26.1892 1.64397C26.3191 1.66417 26.4437 1.70976 26.556 1.77813C26.6683 1.84649 26.766 1.93631 26.8436 2.04244C26.9211 2.14858 26.977 2.26895 27.0081 2.39669C27.0391 2.52442 27.0447 2.65703 27.0245 2.78693C27.0043 2.91682 26.9587 3.04147 26.8904 3.15375L25.8904 4.7925C25.8009 4.93896 25.6753 5.05993 25.5255 5.14378C25.3758 5.22763 25.207 5.27152 25.0354 5.27125C24.8576 5.27153 24.683 5.22442 24.5295 5.13478C24.3759 5.04513 24.2491 4.91618 24.162 4.76121C24.0749 4.60624 24.0307 4.43085 24.0339 4.25311C24.0372 4.07537 24.0877 3.90171 24.1804 3.75ZM29.8054 7.9575L27.9241 8.56375C27.8247 8.59566 27.721 8.6121 27.6166 8.6125C27.3778 8.61321 27.1467 8.52847 26.965 8.37359C26.7833 8.21872 26.663 8.00393 26.6258 7.76808C26.5887 7.53222 26.6371 7.29085 26.7625 7.08762C26.8878 6.88439 27.0817 6.73271 27.3091 6.66L29.1916 6.05375C29.4441 5.97236 29.7185 5.99459 29.9546 6.11555C30.1906 6.23652 30.369 6.4463 30.4504 6.69875C30.5318 6.9512 30.5095 7.22565 30.3886 7.46171C30.2676 7.69777 30.0578 7.87611 29.8054 7.9575Z" fill="#1C1C1E"/>
</svg>
