<svg width="32" height="32" viewBox="0 0 32 32" fill="none" xmlns="http://www.w3.org/2000/svg">
<path d="M8.00032 8C8.00032 6.4087 8.63246 4.88258 9.75768 3.75736C10.8829 2.63214 12.409 2 14.0003 2C15.5916 2 17.1177 2.63214 18.243 3.75736C19.3682 4.88258 20.0003 6.4087 20.0003 8C20.0003 8.26522 19.895 8.51957 19.7074 8.70711C19.5199 8.89464 19.2655 9 19.0003 9C18.7351 9 18.4807 8.89464 18.2932 8.70711C18.1057 8.51957 18.0003 8.26522 18.0003 8C18.0003 6.93913 17.5789 5.92172 16.8287 5.17157C16.0786 4.42143 15.0612 4 14.0003 4C12.9395 4 11.922 4.42143 11.1719 5.17157C10.4217 5.92172 10.0003 6.93913 10.0003 8C10.0003 8.26522 9.89496 8.51957 9.70742 8.70711C9.51989 8.89464 9.26553 9 9.00032 9C8.7351 9 8.48075 8.89464 8.29321 8.70711C8.10567 8.51957 8.00032 8.26522 8.00032 8ZM25.9041 15C24.8278 15.05 24.0003 15.9775 24.0003 17.0537V17.9638C24.0038 18.2218 23.9094 18.4716 23.7362 18.663C23.563 18.8543 23.3237 18.9729 23.0666 18.995C22.9298 19.0041 22.7926 18.9849 22.6635 18.9388C22.5344 18.8926 22.4162 18.8204 22.3162 18.7266C22.2162 18.6328 22.1366 18.5195 22.0823 18.3936C22.0279 18.2678 22 18.1321 22.0003 17.995V15.0562C22.0003 13.98 21.1728 13.0562 20.0966 13.0025C19.8261 12.9895 19.5559 13.0315 19.3022 13.126C19.0485 13.2205 18.8166 13.3655 18.6206 13.5523C18.4246 13.739 18.2686 13.9637 18.162 14.2125C18.0553 14.4614 18.0003 14.7293 18.0003 15V16.9662C18.0038 17.2243 17.9094 17.4741 17.7362 17.6655C17.563 17.8568 17.3237 17.9754 17.0666 17.9975C16.9298 18.0066 16.7926 17.9874 16.6635 17.9413C16.5344 17.8951 16.4162 17.8229 16.3162 17.7291C16.2162 17.6353 16.1366 17.522 16.0823 17.3961C16.0279 17.2703 16 17.1346 16.0003 16.9975V8.05625C16.0003 6.98 15.1728 6.05625 14.0966 6.0025C13.8261 5.98947 13.5559 6.03148 13.3022 6.12598C13.0485 6.22048 12.8166 6.36551 12.6206 6.55228C12.4246 6.73904 12.2686 6.96365 12.162 7.21251C12.0553 7.46136 12.0003 7.72927 12.0003 8V22.9675C12.0034 23.2093 11.9207 23.4445 11.7669 23.6312C11.6132 23.8179 11.3983 23.9441 11.1603 23.9875H11.1453C10.9962 24.0042 10.8454 23.9765 10.7119 23.9078C10.5785 23.839 10.4683 23.7324 10.3953 23.6012L7.77032 19.0462C7.23282 18.1137 6.05282 17.725 5.09532 18.2188C4.85337 18.3418 4.63899 18.5128 4.46526 18.7214C4.29153 18.9299 4.16207 19.1717 4.08477 19.4319C4.00746 19.6921 3.98394 19.9653 4.01563 20.2349C4.04731 20.5045 4.13354 20.7648 4.26907 21L8.13782 28.5063C8.22607 28.6566 8.3521 28.7812 8.50339 28.8679C8.65468 28.9545 8.82599 29 9.00032 29H26.0003C26.1861 29.0001 26.3682 28.9485 26.5263 28.8509C26.6844 28.7533 26.8122 28.6136 26.8953 28.4475C26.9403 28.3575 28.0003 26.565 28.0003 23.3662V17C28.0006 16.7291 27.9459 16.4609 27.8394 16.2117C27.7329 15.9626 27.577 15.7377 27.3809 15.5506C27.1849 15.3636 26.9529 15.2184 26.699 15.1237C26.4452 15.029 26.1747 14.987 25.9041 15Z" fill="#1C1C1E"/>
</svg>
