<svg width="32" height="32" viewBox="0 0 32 32" fill="none" xmlns="http://www.w3.org/2000/svg">
<path d="M29 24.8311V29.9998C29 30.265 28.8946 30.5194 28.7071 30.7069C28.5196 30.8945 28.2652 30.9998 28 30.9998C27.7348 30.9998 27.4804 30.8945 27.2929 30.7069C27.1054 30.5194 27 30.265 27 29.9998V24.8311C26.9953 23.5475 26.7266 22.2786 26.2105 21.1034C25.6944 19.9282 24.9419 18.8717 24 17.9998V25.2936C23.9998 25.5088 23.9302 25.7182 23.8015 25.8907C23.6729 26.0632 23.492 26.1895 23.2857 26.251C23.0795 26.3125 22.8589 26.3058 22.6568 26.232C22.4547 26.1581 22.2818 26.021 22.1637 25.8411L20.8288 23.8023C20.8188 23.7873 20.8087 23.7711 20.8 23.7548C20.6039 23.4085 20.2783 23.1543 19.8948 23.0482C19.5113 22.942 19.1013 22.9925 18.755 23.1886C18.4087 23.3847 18.1545 23.7103 18.0483 24.0938C17.9421 24.4773 17.9927 24.8873 18.1887 25.2336L20.955 29.4573C21.1002 29.6793 21.1513 29.9498 21.097 30.2094C21.0428 30.469 20.8876 30.6965 20.6656 30.8417C20.4437 30.9869 20.1731 31.038 19.9135 30.9837C19.6539 30.9294 19.4265 30.7743 19.2812 30.5523L16.4988 26.3023L16.4688 26.2548C16.4213 26.1723 16.3775 26.0886 16.3375 26.0048H7C6.73478 26.0048 6.48043 25.8995 6.29289 25.7119C6.10536 25.5244 6 25.27 6 25.0048V11.9998C6 11.4694 6.21071 10.9607 6.58579 10.5856C6.96086 10.2105 7.46957 9.99981 8 9.99981H14V15.9998C14 16.265 14.1054 16.5194 14.2929 16.7069C14.4804 16.8945 14.7348 16.9998 15 16.9998C15.2652 16.9998 15.5196 16.8945 15.7071 16.7069C15.8946 16.5194 16 16.265 16 15.9998V9.99981H22C22.5304 9.99981 23.0391 10.2105 23.4142 10.5856C23.7893 10.9607 24 11.4694 24 11.9998V15.4523C25.5349 16.4895 26.7928 17.8863 27.6643 19.521C28.5358 21.1556 28.9943 22.9786 29 24.8311ZM16 4.41356L18.2925 6.70731C18.4801 6.89495 18.7346 7.00037 19 7.00037C19.2654 7.00037 19.5199 6.89495 19.7075 6.70731C19.8951 6.51967 20.0006 6.26517 20.0006 5.99981C20.0006 5.73445 19.8951 5.47995 19.7075 5.29231L15.7075 1.29231C15.6146 1.19933 15.5043 1.12557 15.3829 1.07525C15.2615 1.02493 15.1314 0.999023 15 0.999023C14.8686 0.999023 14.7385 1.02493 14.6171 1.07525C14.4957 1.12557 14.3854 1.19933 14.2925 1.29231L10.2925 5.29231C10.1049 5.47995 9.99944 5.73445 9.99944 5.99981C9.99944 6.13121 10.0253 6.26131 10.0756 6.38271C10.1259 6.5041 10.1996 6.6144 10.2925 6.70731C10.3854 6.80022 10.4957 6.87392 10.6171 6.9242C10.7385 6.97449 10.8686 7.00037 11 7.00037C11.2654 7.00037 11.5199 6.89495 11.7075 6.70731L14 4.41356V9.99981H16V4.41356Z" fill="#1C1C1E"/>
</svg>
