<svg width="32" height="32" viewBox="0 0 32 32" fill="none" xmlns="http://www.w3.org/2000/svg">
<path d="M26.9995 16.0001V22.3663C26.9995 25.5651 25.9395 27.3576 25.8945 27.4476C25.8114 27.6137 25.6836 27.7534 25.5255 27.851C25.3675 27.9486 25.1853 28.0002 24.9995 28.0001H7.99953C7.8252 28.0001 7.65389 27.9545 7.5026 27.8679C7.35131 27.7813 7.22528 27.6567 7.13703 27.5063L3.26828 20.0001C3.1328 19.7656 3.04635 19.506 3.01417 19.2372C2.98199 18.9683 3.00475 18.6956 3.08108 18.4358C3.1574 18.176 3.2857 17.9344 3.45818 17.7256C3.63067 17.5168 3.84376 17.3453 4.08453 17.2213C5.04203 16.7213 6.22203 17.1163 6.75953 18.0488L9.38453 22.6038C9.45754 22.735 9.56769 22.8416 9.70113 22.9103C9.83458 22.9791 9.98536 23.0068 10.1345 22.9901H10.1495C10.3897 22.9487 10.6073 22.823 10.7631 22.6356C10.9189 22.4482 11.0028 22.2113 10.9995 21.9676V7.00007C10.9992 6.72912 11.054 6.46094 11.1604 6.2118C11.2669 5.96265 11.4229 5.73774 11.6189 5.55071C11.815 5.36367 12.047 5.21842 12.3008 5.12377C12.5547 5.02911 12.8252 4.98703 13.0958 5.00007C14.172 5.05007 14.9995 5.97757 14.9995 7.05382V16.0001C14.9992 16.1372 15.0271 16.2728 15.0815 16.3987C15.1358 16.5246 15.2155 16.6379 15.3154 16.7317C15.4154 16.8254 15.5336 16.8977 15.6627 16.9438C15.7918 16.99 15.929 17.0092 16.0658 17.0001C16.3229 16.978 16.5622 16.8593 16.7354 16.668C16.9086 16.4767 17.003 16.2269 16.9995 15.9688V14.0001C16.9992 13.7291 17.054 13.4609 17.1604 13.2118C17.2669 12.9627 17.4229 12.7377 17.6189 12.5507C17.815 12.3637 18.047 12.2184 18.3008 12.1238C18.5547 12.0291 18.8252 11.987 19.0958 12.0001C20.172 12.0501 20.9995 12.9776 20.9995 14.0538V17.0001C20.9992 17.1372 21.0271 17.2728 21.0815 17.3987C21.1358 17.5246 21.2155 17.6379 21.3154 17.7317C21.4154 17.8254 21.5336 17.8977 21.6627 17.9438C21.7918 17.99 21.929 18.0092 22.0658 18.0001C22.3228 17.9777 22.5619 17.859 22.7351 17.6677C22.9082 17.4765 23.0027 17.2268 22.9995 16.9688V16.0588C22.9995 14.9826 23.827 14.0588 24.9033 14.0051C25.1735 13.992 25.4435 14.034 25.6971 14.1283C25.9506 14.2227 26.1824 14.3675 26.3783 14.554C26.5743 14.7405 26.7304 14.9648 26.8372 15.2134C26.9439 15.4619 26.9992 15.7295 26.9995 16.0001ZM30.9995 6.00007H24.4133L26.707 3.70757C26.7999 3.61466 26.8736 3.50436 26.9239 3.38296C26.9742 3.26157 27.0001 3.13146 27.0001 3.00007C27.0001 2.86867 26.9742 2.73856 26.9239 2.61717C26.8736 2.49578 26.7999 2.38548 26.707 2.29257C26.6141 2.19966 26.5038 2.12596 26.3824 2.07567C26.261 2.02539 26.1309 1.99951 25.9995 1.99951C25.8681 1.99951 25.738 2.02539 25.6166 2.07567C25.4952 2.12596 25.3849 2.19966 25.292 2.29257L21.292 6.29257C21.1991 6.38544 21.1253 6.49573 21.075 6.61713C21.0246 6.73853 20.9987 6.86865 20.9987 7.00007C20.9987 7.13148 21.0246 7.26161 21.075 7.38301C21.1253 7.50441 21.1991 7.61469 21.292 7.70757L25.292 11.7076C25.3849 11.8005 25.4952 11.8742 25.6166 11.9245C25.738 11.9747 25.8681 12.0006 25.9995 12.0006C26.1309 12.0006 26.261 11.9747 26.3824 11.9245C26.5038 11.8742 26.6141 11.8005 26.707 11.7076C26.7999 11.6147 26.8736 11.5044 26.9239 11.383C26.9742 11.2616 27.0001 11.1315 27.0001 11.0001C27.0001 10.8687 26.9742 10.7386 26.9239 10.6172C26.8736 10.4958 26.7999 10.3855 26.707 10.2926L24.4133 8.00007H30.9995C31.2647 8.00007 31.5191 7.89471 31.7066 7.70717C31.8942 7.51964 31.9995 7.26528 31.9995 7.00007C31.9995 6.73485 31.8942 6.4805 31.7066 6.29296C31.5191 6.10542 31.2647 6.00007 30.9995 6.00007Z" fill="#1C1C1E"/>
</svg>
