<svg width="32" height="32" viewBox="0 0 32 32" fill="none" xmlns="http://www.w3.org/2000/svg">
<path d="M26.9995 8.00036V19.3666C26.9995 25.1416 22.3933 29.9354 16.6245 29.9991C15.2244 30.018 13.8348 29.7557 12.5379 29.2277C11.241 28.6997 10.0633 27.9168 9.07453 26.9254C6.34828 24.0416 3.26828 17.0004 3.26828 17.0004C3.1328 16.7659 3.04635 16.5063 3.01417 16.2374C2.98199 15.9686 3.00475 15.6959 3.08108 15.4361C3.1574 15.1763 3.2857 14.9347 3.45818 14.7259C3.63067 14.5171 3.84376 14.3456 4.08453 14.2216C5.04203 13.7216 6.22203 14.1166 6.75953 15.0491L9.38453 19.6041C9.45754 19.7353 9.56769 19.8419 9.70113 19.9106C9.83458 19.9794 9.98536 20.0071 10.1345 19.9904H10.1495C10.3897 19.949 10.6073 19.8233 10.7631 19.6359C10.9189 19.4485 11.0028 19.2116 10.9995 18.9679V6.00036C10.9992 5.72942 11.054 5.46124 11.1604 5.21209C11.2669 4.96295 11.4229 4.73804 11.6189 4.551C11.815 4.36397 12.047 4.21872 12.3008 4.12406C12.5547 4.02941 12.8252 3.98732 13.0958 4.00036C14.172 4.05036 14.9995 4.97786 14.9995 6.05411V14.0004C14.9992 14.1375 15.0271 14.2731 15.0815 14.399C15.1358 14.5248 15.2155 14.6382 15.3154 14.732C15.4154 14.8257 15.5336 14.898 15.6627 14.9441C15.7918 14.9903 15.929 15.0094 16.0658 15.0004C16.3229 14.9783 16.5622 14.8596 16.7354 14.6683C16.9086 14.477 17.003 14.2272 16.9995 13.9691V4.00036C16.9992 3.72942 17.054 3.46124 17.1604 3.21209C17.2669 2.96295 17.4229 2.73804 17.6189 2.551C17.815 2.36397 18.047 2.21872 18.3008 2.12406C18.5547 2.02941 18.8252 1.98733 19.0958 2.00036C20.172 2.05036 20.9995 2.97786 20.9995 4.05411V15.0004C20.9992 15.1375 21.0271 15.2731 21.0815 15.399C21.1358 15.5248 21.2155 15.6382 21.3154 15.732C21.4154 15.8257 21.5336 15.898 21.6627 15.9441C21.7918 15.9903 21.929 16.0094 22.0658 16.0004C22.3229 15.9783 22.5622 15.8596 22.7354 15.6683C22.9086 15.477 23.003 15.2272 22.9995 14.9691V8.05661C22.9995 6.98036 23.827 6.05661 24.9033 6.00286C25.1737 5.98984 25.4439 6.03184 25.6977 6.12635C25.9514 6.22085 26.1832 6.36588 26.3792 6.55264C26.5752 6.73941 26.7313 6.96402 26.8379 7.21287C26.9445 7.46172 26.9995 7.72963 26.9995 8.00036Z" fill="#1C1C1E"/>
</svg>
