<svg width="32" height="32" viewBox="0 0 32 32" fill="none" xmlns="http://www.w3.org/2000/svg">
<path d="M29.4153 22.4999L24.8853 17.9687L20.3278 2.93241C20.1983 2.50426 19.9652 2.11466 19.6491 1.79812C19.3331 1.48158 18.9438 1.24788 18.5159 1.11771C18.0879 0.987544 17.6344 0.964931 17.1957 1.05187C16.7569 1.13882 16.3463 1.33264 16.0003 1.61616C15.6543 1.33264 15.2438 1.13882 14.805 1.05187C14.3662 0.964931 13.9127 0.987544 13.4848 1.11771C13.0568 1.24788 12.6676 1.48158 12.3515 1.79812C12.0355 2.11466 11.8023 2.50426 11.6728 2.93241L7.11532 17.9699L2.58532 22.4999C2.21053 22.8749 2 23.3835 2 23.9137C2 24.4439 2.21053 24.9524 2.58532 25.3274L6.67157 29.4137C6.8573 29.5994 7.07779 29.7468 7.32048 29.8473C7.56316 29.9479 7.82327 29.9996 8.08595 29.9996C8.34863 29.9996 8.60874 29.9479 8.85142 29.8473C9.0941 29.7468 9.3146 29.5994 9.50032 29.4137L15.5353 23.3749C15.7026 23.2072 15.858 23.028 16.0003 22.8387C16.1426 23.028 16.298 23.2072 16.4653 23.3749L22.5003 29.4149C22.686 29.6007 22.9065 29.748 23.1492 29.8486C23.3919 29.9491 23.652 30.0009 23.9147 30.0009C24.1774 30.0009 24.4375 29.9491 24.6802 29.8486C24.9229 29.748 25.1434 29.6007 25.3291 29.4149L29.4153 25.3287C29.6011 25.1429 29.7484 24.9224 29.849 24.6798C29.9495 24.4371 30.0013 24.177 30.0013 23.9143C30.0013 23.6516 29.9495 23.3915 29.849 23.1488C29.7484 22.9061 29.6011 22.6856 29.4153 22.4999ZM15.0003 19.8437C15.0023 20.2381 14.926 20.6291 14.7758 20.9939C14.6256 21.3586 14.4045 21.69 14.1253 21.9687L11.0853 24.9999L7.00032 20.9149L8.70657 19.2074C8.82301 19.091 8.90889 18.9475 8.95657 18.7899L13.5816 3.51241C13.6285 3.34241 13.736 3.19543 13.8837 3.09919C14.0315 3.00294 14.2094 2.96406 14.3838 2.98988C14.5583 3.01571 14.7173 3.10444 14.8308 3.23937C14.9444 3.3743 15.0047 3.54611 15.0003 3.72241V19.8437ZM20.9303 25.0162L17.8753 21.9649C17.5961 21.6862 17.375 21.3549 17.2248 20.9901C17.0746 20.6253 16.9983 20.2344 17.0003 19.8399V3.71491C17.0004 3.54172 17.0626 3.3743 17.1758 3.24316C17.2889 3.11203 17.4454 3.02589 17.6167 3.00044C17.788 2.97499 17.9627 3.01193 18.1091 3.10452C18.2555 3.19712 18.3637 3.33921 18.4141 3.50491L23.0391 18.7824C23.0868 18.94 23.1726 19.0835 23.2891 19.1999L25.1003 21.0112L20.9303 25.0162Z" fill="#1C1C1E"/>
</svg>
