<svg width="32" height="32" viewBox="0 0 32 32" fill="none" xmlns="http://www.w3.org/2000/svg">
<path d="M29 14.9997V15.9997C29 17.7108 28.6622 19.405 28.006 20.9853C27.3498 22.5656 26.3881 24.0007 25.1761 25.2085C23.964 26.4163 22.5254 27.3729 20.9428 28.0235C19.3603 28.674 17.6648 29.0058 15.9538 28.9997C9.20375 28.976 3.70375 23.7422 3.06375 17.1522C3.05681 17.0664 3.07216 16.9802 3.10832 16.902C3.14448 16.8239 3.20021 16.7563 3.27013 16.706C3.34004 16.6558 3.42176 16.6244 3.50737 16.6149C3.59297 16.6055 3.67956 16.6183 3.75875 16.6522C4.65819 17.0298 5.65609 17.1044 6.60166 16.8646C7.54723 16.6249 8.38908 16.0839 9 15.3235C9.40029 15.8213 9.90219 16.2279 10.4722 16.5163C11.0422 16.8047 11.6671 16.9681 12.3053 16.9956C12.9435 17.0232 13.5802 16.9143 14.1729 16.6762C14.7657 16.438 15.3008 16.0761 15.7425 15.6147C16.1473 16.2724 16.6977 16.8283 17.3513 17.2397C16.62 17.7992 16.0275 18.5196 15.6197 19.3451C15.212 20.1706 14.9999 21.079 15 21.9997C14.9995 22.1384 15.0279 22.2757 15.0833 22.4028C15.1387 22.5299 15.2199 22.6441 15.3219 22.7382C15.4238 22.8322 15.5441 22.904 15.6753 22.949C15.8065 22.9941 15.9456 23.0113 16.0838 22.9997C16.3375 22.9724 16.572 22.8514 16.7414 22.6605C16.9108 22.4696 17.003 22.2224 17 21.9672C17.0086 20.912 17.4338 19.9029 18.183 19.1598C18.9322 18.4166 19.9447 17.9997 21 17.9997C21.1371 18 21.2728 17.9721 21.3986 17.9178C21.5245 17.8634 21.6378 17.7838 21.7316 17.6838C21.8254 17.5838 21.8976 17.4656 21.9438 17.3365C21.9899 17.2074 22.0091 17.0702 22 16.9335C21.9776 16.6764 21.8589 16.4374 21.6677 16.2642C21.4764 16.091 21.2267 15.9965 20.9688 15.9997H20C19.2044 15.9997 18.4413 15.6836 17.8787 15.121C17.3161 14.5584 17 13.7954 17 12.9997V10.9997H25C26.0609 10.9997 27.0783 11.4211 27.8284 12.1713C28.5786 12.9214 29 13.9388 29 14.9997ZM5.59125 14.9997C6.94625 14.9497 8 13.796 8 12.4397V9.56471C8 8.20346 6.94625 7.04971 5.59125 6.99971C5.25535 6.98744 4.92042 7.04304 4.6065 7.16317C4.29257 7.2833 4.00609 7.46551 3.7642 7.69889C3.5223 7.93227 3.32995 8.21203 3.19864 8.52145C3.06734 8.83087 2.99978 9.16359 3 9.49971V12.4997C2.99978 12.8358 3.06734 13.1686 3.19864 13.478C3.32995 13.7874 3.5223 14.0672 3.7642 14.3005C4.00609 14.5339 4.29257 14.7161 4.6065 14.8363C4.92042 14.9564 5.25535 15.012 5.59125 14.9997ZM12.5913 14.9997C13.9463 14.951 15 13.7972 15 12.441V6.56596C15 5.20971 13.9463 4.05596 12.5913 4.00721C12.256 3.99497 11.9217 4.05033 11.6082 4.17C11.2948 4.28967 11.0087 4.4712 10.7669 4.70378C10.5251 4.93636 10.3326 5.21523 10.2008 5.52377C10.0691 5.83231 10.0008 6.16422 10 6.49971V12.4997C9.99978 12.8358 10.0673 13.1686 10.1986 13.478C10.3299 13.7874 10.5223 14.0672 10.7642 14.3005C11.0061 14.5339 11.2926 14.7161 11.6065 14.8363C11.9204 14.9564 12.2553 15.012 12.5913 14.9997ZM22 6.49971C22.0002 6.16359 21.9327 5.83087 21.8014 5.52145C21.6701 5.21203 21.4777 4.93227 21.2358 4.69889C20.9939 4.46551 20.7074 4.2833 20.3935 4.16317C20.0796 4.04304 19.7447 3.98744 19.4088 3.99971C18.0538 4.04971 17 5.20346 17 6.55971V8.99971H21.5C21.6326 8.99971 21.7598 8.94703 21.8536 8.85327C21.9473 8.7595 22 8.63232 22 8.49971V6.49971Z" fill="#1C1C1E"/>
</svg>
