<svg width="32" height="32" viewBox="0 0 32 32" fill="none" xmlns="http://www.w3.org/2000/svg">
<path d="M16 9.99414C16.5523 9.99414 17 9.54642 17 8.99414C17 8.44186 16.5523 7.99414 16 7.99414C15.4477 7.99414 15 8.44186 15 8.99414C15 9.54642 15.4477 9.99414 16 9.99414Z" fill="#1C1C1E"/>
<path d="M19 17.9941C19.5523 17.9941 20 17.5464 20 16.9941C20 16.4419 19.5523 15.9941 19 15.9941C18.4477 15.9941 18 16.4419 18 16.9941C18 17.5464 18.4477 17.9941 19 17.9941Z" fill="#1C1C1E"/>
<path d="M24.0627 21.4276C25.3272 20.3656 26.3374 19.0335 27.0189 17.5293C27.7003 16.0252 28.0357 14.3873 28.0002 12.7364C28.0002 12.6447 27.9965 12.5535 27.989 12.4626C27.981 12.3355 27.9248 12.2162 27.8319 12.1291C27.739 12.042 27.6163 11.9936 27.489 11.9939H24.469L21.5777 15.4626C21.9388 16.0713 22.0732 16.788 21.957 17.4861C21.8408 18.1842 21.4815 18.8187 20.9427 19.2776C20.4039 19.7364 19.7202 19.99 19.0125 19.9934C18.3048 19.9969 17.6186 19.7501 17.0753 19.2966C16.532 18.8431 16.1665 18.2121 16.0434 17.5152C15.9203 16.8183 16.0476 16.1003 16.4027 15.4881C16.7579 14.8759 17.318 14.409 17.984 14.1699C18.6501 13.9308 19.3793 13.9348 20.0427 14.1814L23.2315 10.3539C23.3259 10.2423 23.4437 10.1528 23.5766 10.0917C23.7094 10.0305 23.854 9.9993 24.0002 10.0001H26.8927C26.9729 10.0002 27.052 9.981 27.1232 9.9441C27.1945 9.90721 27.2558 9.85371 27.302 9.78813C27.3482 9.72255 27.378 9.64681 27.3888 9.56731C27.3995 9.48781 27.391 9.40689 27.364 9.33137C25.909 5.25012 22.1077 2.25012 17.5927 2.01012H17.519C17.4517 2.00759 17.3847 2.01866 17.3219 2.04266C17.259 2.06665 17.2017 2.10308 17.1532 2.14977C17.1048 2.19645 17.0663 2.25243 17.04 2.31434C17.0137 2.37626 17.0002 2.44285 17.0002 2.51012V6.16637C17.6674 6.40226 18.2298 6.86644 18.5878 7.47685C18.9459 8.08726 19.0767 8.8046 18.957 9.5021C18.8373 10.1996 18.4749 10.8323 17.9339 11.2885C17.3928 11.7446 16.7079 11.9948 16.0002 11.9948C15.2925 11.9948 14.6076 11.7446 14.0665 11.2885C13.5255 10.8323 13.1631 10.1996 13.0434 9.5021C12.9237 8.8046 13.0545 8.08726 13.4126 7.47685C13.7707 6.86644 14.333 6.40226 15.0002 6.16637V2.79137C15.0004 2.71614 14.9836 2.64185 14.9511 2.57401C14.9186 2.50618 14.8712 2.44655 14.8125 2.39957C14.7537 2.35259 14.6851 2.31948 14.6118 2.30269C14.5385 2.28591 14.4623 2.28588 14.389 2.30262C12.037 2.88024 9.94077 4.21659 8.42445 6.10505C6.90812 7.9935 6.05614 10.3289 6.00021 12.7501L3.19396 18.1426L3.16646 18.1989C2.96192 18.6683 2.94526 19.1984 3.11991 19.6798C3.29456 20.1612 3.64722 20.5573 4.10521 20.7864L4.13646 20.8014L7.00021 22.1126V25.9876C7.00021 26.5181 7.21092 27.0268 7.586 27.4018C7.96107 27.7769 8.46978 27.9876 9.00021 27.9876H14.0002V28.9876C14.0002 29.2528 14.1056 29.5072 14.2931 29.6947C14.4806 29.8823 14.735 29.9876 15.0002 29.9876H23.9715C24.1485 29.9899 24.3232 29.9469 24.479 29.8626C24.655 29.7666 24.7981 29.62 24.8897 29.4417C24.9813 29.2633 25.0172 29.0616 24.9927 28.8626L24.0627 21.4276Z" fill="#1C1C1E"/>
</svg>
