<svg width="32" height="32" viewBox="0 0 32 32" fill="none" xmlns="http://www.w3.org/2000/svg">
<path d="M20.0003 10C20.0003 9.73478 20.1056 9.48043 20.2932 9.29289C20.4807 9.10536 20.7351 9 21.0003 9H30.0003C30.2655 9 30.5199 9.10536 30.7074 9.29289C30.8949 9.48043 31.0003 9.73478 31.0003 10C31.0003 10.2652 30.8949 10.5196 30.7074 10.7071C30.5199 10.8946 30.2655 11 30.0003 11H21.0003C20.7351 11 20.4807 10.8946 20.2932 10.7071C20.1056 10.5196 20.0003 10.2652 20.0003 10ZM30.0003 21H21.0003C20.7351 21 20.4807 21.1054 20.2932 21.2929C20.1056 21.4804 20.0003 21.7348 20.0003 22C20.0003 22.2652 20.1056 22.5196 20.2932 22.7071C20.4807 22.8946 20.7351 23 21.0003 23H30.0003C30.2655 23 30.5199 22.8946 30.7074 22.7071C30.8949 22.5196 31.0003 22.2652 31.0003 22C31.0003 21.7348 30.8949 21.4804 30.7074 21.2929C30.5199 21.1054 30.2655 21 30.0003 21ZM30.0003 13H21.0003C20.7351 13 20.4807 13.1054 20.2932 13.2929C20.1056 13.4804 20.0003 13.7348 20.0003 14C20.0003 14.2652 20.1056 14.5196 20.2932 14.7071C20.4807 14.8946 20.7351 15 21.0003 15H30.0003C30.2655 15 30.5199 14.8946 30.7074 14.7071C30.8949 14.5196 31.0003 14.2652 31.0003 14C31.0003 13.7348 30.8949 13.4804 30.7074 13.2929C30.5199 13.1054 30.2655 13 30.0003 13ZM30.0003 17H21.0003C20.7351 17 20.4807 17.1054 20.2932 17.2929C20.1056 17.4804 20.0003 17.7348 20.0003 18C20.0003 18.2652 20.1056 18.5196 20.2932 18.7071C20.4807 18.8946 20.7351 19 21.0003 19H30.0003C30.2655 19 30.5199 18.8946 30.7074 18.7071C30.8949 18.5196 31.0003 18.2652 31.0003 18C31.0003 17.7348 30.8949 17.4804 30.7074 17.2929C30.5199 17.1054 30.2655 17 30.0003 17ZM16.0003 6H11.1128C5.57779 6 1.04154 10.4525 1.00029 15.9237C0.990228 17.2434 1.24146 18.5519 1.7395 19.774C2.23754 20.9961 2.97254 22.1075 3.90213 23.0442C4.83172 23.9808 5.93751 24.7243 7.15576 25.2316C8.37401 25.7389 9.68063 26 11.0003 26H16.0003C16.5307 26 17.0394 25.7893 17.4145 25.4142C17.7896 25.0391 18.0003 24.5304 18.0003 24V8C18.0003 7.46957 17.7896 6.96086 17.4145 6.58579C17.0394 6.21071 16.5307 6 16.0003 6Z" fill="#1C1C1E"/>
</svg>
