<svg width="32" height="32" viewBox="0 0 32 32" fill="none" xmlns="http://www.w3.org/2000/svg">
<path d="M14.1608 6.91375C12.7735 5.5817 10.9139 4.85529 8.9911 4.89432C7.06827 4.93335 5.23969 5.73462 3.90764 7.12187C2.57559 8.50912 1.84918 10.3687 1.88821 12.2915C1.92725 14.2144 2.72852 16.0429 4.11577 17.375L15.287 28.7075C15.3801 28.802 15.491 28.877 15.6133 28.9282C15.7356 28.9794 15.8669 29.0058 15.9995 29.0058C16.1321 29.0058 16.2634 28.9794 16.3857 28.9282C16.5081 28.877 16.619 28.802 16.712 28.7075L27.8745 17.375C29.2354 16.0158 30.0006 14.1716 30.0018 12.2482C30.003 10.3247 29.24 8.47964 27.8808 7.11875C26.5215 5.75785 24.6774 4.99265 22.7539 4.99148C20.8305 4.99031 18.9854 5.75326 17.6245 7.1125L14.5745 9.9875L17.8745 13.29C17.9675 13.3829 18.0413 13.4932 18.0916 13.6146C18.1419 13.736 18.1678 13.8661 18.1678 13.9975C18.1678 14.1289 18.1419 14.259 18.0916 14.3804C18.0413 14.5018 17.9675 14.6121 17.8745 14.705L15.2883 17.2912C15.1953 17.3841 15.0849 17.4577 14.9635 17.5079C14.842 17.558 14.7119 17.5838 14.5805 17.5837C14.4491 17.5836 14.319 17.5576 14.1977 17.5072C14.0763 17.4568 13.9661 17.383 13.8733 17.29C13.7804 17.197 13.7068 17.0866 13.6567 16.9652C13.6065 16.8438 13.5807 16.7136 13.5808 16.5822C13.581 16.4508 13.6069 16.3208 13.6573 16.1994C13.7077 16.0781 13.7815 15.9678 13.8745 15.875L15.7495 14L12.437 10.6775C12.3418 10.5824 12.2668 10.469 12.2164 10.3441C12.1661 10.2193 12.1414 10.0856 12.144 9.95102C12.1466 9.81644 12.1763 9.68376 12.2314 9.56094C12.2864 9.43812 12.3657 9.32768 12.4645 9.23625L14.1583 7.63875C14.2074 7.59204 14.2466 7.53581 14.2733 7.47349C14.3001 7.41118 14.3139 7.34407 14.3139 7.27625C14.3139 7.20843 14.3001 7.14132 14.2733 7.079C14.2466 7.01668 14.2074 6.96046 14.1583 6.91375H14.1608Z" fill="#1C1C1E"/>
</svg>
