<svg width="32" height="32" viewBox="0 0 32 32" fill="none" xmlns="http://www.w3.org/2000/svg">
<path d="M30.0003 12.25C30.0024 13.2023 29.8157 14.1456 29.451 15.0253C29.0862 15.9049 28.5507 16.7036 27.8753 17.375L16.7128 28.7025C16.6198 28.797 16.5089 28.872 16.3865 28.9232C16.2642 28.9744 16.1329 29.0008 16.0003 29.0008C15.8677 29.0008 15.7364 28.9744 15.6141 28.9232C15.4918 28.872 15.3809 28.797 15.2878 28.7025L4.12531 17.375C2.76442 16.0157 1.99922 14.1716 1.99805 12.2481C1.99688 10.3247 2.75983 8.47961 4.11906 7.11872C5.4783 5.75783 7.32247 4.99263 9.24589 4.99146C11.1693 4.99028 13.0144 5.75324 14.3753 7.11247L16.0003 8.63122L17.6366 7.10747C18.6521 6.09696 19.9443 5.40998 21.35 5.13326C22.7557 4.85654 24.2118 5.00249 25.5346 5.55269C26.8574 6.10288 27.9875 7.03265 28.7823 8.22462C29.5771 9.41659 30.001 10.8173 30.0003 12.25Z" fill="#1C1C1E"/>
</svg>
