<svg width="32" height="32" viewBox="0 0 32 32" fill="none" xmlns="http://www.w3.org/2000/svg">
<path d="M31.7072 13.2924C31.6143 13.1995 31.504 13.1257 31.3826 13.0754C31.2612 13.0251 31.1311 12.9992 30.9997 12.9992C30.8683 12.9992 30.7381 13.0251 30.6167 13.0754C30.4953 13.1257 30.385 13.1995 30.2922 13.2924L23.9997 19.5862L13.4134 8.99995L19.7072 2.70745C19.8001 2.61454 19.8738 2.50424 19.9241 2.38284C19.9743 2.26145 20.0002 2.13134 20.0002 1.99995C20.0002 1.86855 19.9743 1.73844 19.9241 1.61705C19.8738 1.49566 19.8001 1.38536 19.7072 1.29245C19.6143 1.19954 19.504 1.12584 19.3826 1.07555C19.2612 1.02527 19.1311 0.99939 18.9997 0.99939C18.8683 0.99939 18.7382 1.02527 18.6168 1.07555C18.4954 1.12584 18.3851 1.19954 18.2922 1.29245L11.9997 7.5862C11.6971 7.88883 11.4996 8.28054 11.4361 8.70376C11.3727 9.12698 11.4466 9.55939 11.6472 9.93745L8.99967 12.5862C8.62488 12.9612 8.41435 13.4697 8.41435 13.9999C8.41435 14.5302 8.62488 15.0387 8.99967 15.4137L9.58592 15.9999L2.29217 23.2924C2.17153 23.413 2.08373 23.5624 2.03711 23.7264C1.99049 23.8905 1.9866 24.0637 2.02581 24.2297C2.06502 24.3957 2.14602 24.5489 2.26112 24.6747C2.37622 24.8006 2.52159 24.8949 2.68342 24.9487L11.6834 27.9487C11.7853 27.9829 11.8922 28.0002 11.9997 27.9999C12.131 28 12.2611 27.9743 12.3825 27.9241C12.5039 27.8739 12.6142 27.8003 12.7072 27.7074L16.9997 23.4137L17.5859 23.9999C17.961 24.3747 18.4695 24.5853 18.9997 24.5853C19.5299 24.5853 20.0384 24.3747 20.4134 23.9999L23.0609 21.3524C23.4391 21.5533 23.8718 21.6274 24.2953 21.564C24.7188 21.5005 25.1107 21.3028 25.4134 20.9999L31.7072 14.7074C31.8001 14.6146 31.8739 14.5043 31.9242 14.3829C31.9746 14.2615 32.0005 14.1314 32.0005 13.9999C32.0005 13.8685 31.9746 13.7384 31.9242 13.617C31.8739 13.4956 31.8001 13.3853 31.7072 13.2924ZM18.9997 22.5862L10.4134 13.9999L12.9997 11.4137L21.5859 19.9999L18.9997 22.5862Z" fill="#1C1C1E"/>
</svg>
