<svg width="32" height="32" viewBox="0 0 32 32" fill="none" xmlns="http://www.w3.org/2000/svg">
<path d="M18.7375 15.3526L27.2375 5.35259C27.4092 5.15036 27.6543 5.02464 27.9187 5.00307C28.1831 4.9815 28.4453 5.06586 28.6475 5.23759C28.8497 5.40932 28.9755 5.65435 28.997 5.91877C29.0186 6.1832 28.9342 6.44536 28.7625 6.64759L20.2625 16.6476C20.1775 16.7477 20.0735 16.8301 19.9567 16.8901C19.8398 16.9501 19.7122 16.9864 19.5813 16.9971C19.3169 17.0187 19.0547 16.9343 18.8525 16.7626C18.6503 16.5909 18.5245 16.3458 18.503 16.0814C18.4814 15.817 18.5658 15.5548 18.7375 15.3526ZM30 21.0001V25.0001C30 25.5305 29.7893 26.0392 29.4142 26.4143C29.0391 26.7894 28.5304 27.0001 28 27.0001H21.4625C21.1726 27 20.8862 26.937 20.6231 26.8152C20.36 26.6935 20.1265 26.516 19.9387 26.2951L3.2375 6.64759C3.15247 6.54746 3.08799 6.43156 3.04775 6.30651C3.00752 6.18146 2.9923 6.0497 3.00298 5.91877C3.01366 5.78784 3.05002 5.6603 3.10999 5.54342C3.16996 5.42654 3.25237 5.32262 3.3525 5.23759C3.45263 5.15256 3.56853 5.08808 3.69358 5.04784C3.81863 5.0076 3.95039 4.99239 4.08132 5.00307C4.21225 5.01375 4.33979 5.05011 4.45667 5.11008C4.57355 5.17005 4.67747 5.25246 4.7625 5.35259L16.3625 19.0001H28C28.5304 19.0001 29.0391 19.2108 29.4142 19.5859C29.7893 19.9609 30 20.4697 30 21.0001ZM28 21.0001H26V25.0001H28V21.0001ZM14.4125 22.8826C14.4893 22.973 14.5315 23.0877 14.5315 23.2063C14.5315 23.325 14.4893 23.4397 14.4125 23.5301L12.0612 26.2951C11.8735 26.516 11.64 26.6935 11.3769 26.8152C11.1138 26.937 10.8274 27 10.5375 27.0001H4C3.46957 27.0001 2.96086 26.7894 2.58579 26.4143C2.21071 26.0392 2 25.5305 2 25.0001V21.0001C2 20.4697 2.21071 19.9609 2.58579 19.5859C2.96086 19.2108 3.46957 19.0001 4 19.0001H10.8813C10.9527 19.001 11.0232 19.0171 11.0879 19.0475C11.1526 19.0779 11.21 19.1219 11.2563 19.1763L14.4125 22.8826ZM6 21.0001H4V25.0001H6V21.0001Z" fill="#1C1C1E"/>
</svg>
