<svg width="32" height="32" viewBox="0 0 32 32" fill="none" xmlns="http://www.w3.org/2000/svg">
<path d="M29.6641 15.0662L22.8754 4.89C22.6931 4.61691 22.4465 4.39286 22.1572 4.23765C21.8679 4.08243 21.5449 4.00081 21.2166 4H10.7841C10.4558 4.00081 10.1328 4.08243 9.84347 4.23765C9.55419 4.39286 9.30756 4.61691 9.12535 4.89L2.3366 15.0662C2.17782 15.3041 2.07189 15.5732 2.02596 15.8555C1.98003 16.1378 1.99517 16.4266 2.07035 16.7025L4.75035 26.5263C4.86576 26.9494 5.11707 27.3229 5.46559 27.5892C5.8141 27.8555 6.24049 27.9998 6.6791 28H10.0004C10.5308 28 11.0395 27.7893 11.4146 27.4142C11.7896 27.0391 12.0004 26.5304 12.0004 26V24H20.0004V26C20.0004 26.5304 20.2111 27.0391 20.5861 27.4142C20.9612 27.7893 21.4699 28 22.0004 28H25.3216C25.7602 27.9998 26.1866 27.8555 26.5351 27.5892C26.8836 27.3229 27.1349 26.9494 27.2504 26.5263L29.9304 16.7025C30.0055 16.4266 30.0207 16.1378 29.9747 15.8555C29.9288 15.5732 29.8229 15.3041 29.6641 15.0662ZM10.0004 26H6.6791L4.00035 16.1763L8.00035 10.1763V22C8.00035 22.5304 8.21107 23.0391 8.58614 23.4142C8.96121 23.7893 9.46992 24 10.0004 24V26ZM15.0004 17C15.0004 17.2652 14.895 17.5196 14.7075 17.7071C14.5199 17.8946 14.2656 18 14.0004 18C13.7351 18 13.4808 17.8946 13.2932 17.7071C13.1057 17.5196 13.0004 17.2652 13.0004 17V12.1425C13.0004 11.8773 13.1057 11.6229 13.2932 11.4354C13.4808 11.2479 13.7351 11.1425 14.0004 11.1425C14.2656 11.1425 14.5199 11.2479 14.7075 11.4354C14.895 11.6229 15.0004 11.8773 15.0004 12.1425V17ZM19.0004 16C19.0004 16.2652 18.895 16.5196 18.7075 16.7071C18.5199 16.8946 18.2656 17 18.0004 17C17.7351 17 17.4808 16.8946 17.2932 16.7071C17.1057 16.5196 17.0004 16.2652 17.0004 16V12.1425C17.0004 11.8773 17.1057 11.6229 17.2932 11.4354C17.4808 11.2479 17.7351 11.1425 18.0004 11.1425C18.2656 11.1425 18.5199 11.2479 18.7075 11.4354C18.895 11.6229 19.0004 11.8773 19.0004 12.1425V16ZM16.0004 9.83875L10.4191 6.54875L10.7841 6H21.2166L21.5816 6.54875L16.0004 9.83875ZM25.3216 26H22.0004V24C22.5308 24 23.0395 23.7893 23.4146 23.4142C23.7896 23.0391 24.0004 22.5304 24.0004 22V10.1763L28.0004 16.1763L25.3216 26Z" fill="#1C1C1E"/>
</svg>
