<svg width="32" height="32" viewBox="0 0 32 32" fill="none" xmlns="http://www.w3.org/2000/svg">
<path d="M25.2566 6.87505C24.0506 5.6438 22.6103 4.66657 21.0205 4.00103C19.4308 3.3355 17.7238 2.99514 16.0003 3.00005H15.0003C14.7351 3.00005 14.4808 3.10541 14.2932 3.29295C14.1057 3.48048 14.0003 3.73484 14.0003 4.00005V7.4413L1.47659 15.1488C1.36432 15.2179 1.26683 15.3086 1.18973 15.4156C1.11263 15.5225 1.05745 15.6437 1.02736 15.7721C0.997273 15.9005 0.992869 16.0335 1.0144 16.1636C1.03594 16.2937 1.08298 16.4182 1.15284 16.5301L2.87534 19.2801L2.91284 19.3338C3.34883 19.9426 3.94772 20.416 4.64069 20.6997C5.33367 20.9834 6.09261 21.0658 6.83034 20.9376C8.57159 20.6426 11.6578 20.1201 14.5053 21.3488L11.1803 25.9201C10.2674 25.4862 9.42134 24.9238 8.66784 24.2501C8.46892 24.0732 8.2079 23.9826 7.94218 23.9982C7.67647 24.0138 7.42783 24.1343 7.25096 24.3332C7.0741 24.5321 6.98349 24.7931 6.99908 25.0588C7.01467 25.3245 7.13517 25.5732 7.33409 25.7501C9.71986 27.8648 12.8035 29.0224 15.9916 29.0001H16.2628C18.8039 28.9499 21.2744 28.1559 23.369 26.7165C25.4636 25.277 27.0903 23.2552 28.0479 20.901C29.0055 18.5468 29.2521 15.9635 28.7571 13.4707C28.2621 10.9778 27.0473 8.68476 25.2628 6.87505H25.2566ZM15.5003 14.0001C15.2037 14.0001 14.9137 13.9121 14.667 13.7473C14.4203 13.5824 14.228 13.3482 14.1145 13.0741C14.001 12.8 13.9713 12.4984 14.0292 12.2074C14.087 11.9164 14.2299 11.6492 14.4397 11.4394C14.6495 11.2296 14.9167 11.0868 15.2077 11.0289C15.4987 10.971 15.8003 11.0007 16.0744 11.1142C16.3484 11.2278 16.5827 11.42 16.7475 11.6667C16.9124 11.9134 17.0003 12.2034 17.0003 12.5001C17.0003 12.8979 16.8423 13.2794 16.561 13.5607C16.2797 13.842 15.8982 14.0001 15.5003 14.0001Z" fill="#1C1C1E"/>
</svg>
