<svg width="32" height="32" viewBox="0 0 32 32" fill="none" xmlns="http://www.w3.org/2000/svg">
<path d="M26.4141 24.5863C26.6936 24.866 26.8839 25.2222 26.961 25.6101C27.0381 25.9979 26.9985 26.3999 26.8472 26.7652C26.6959 27.1306 26.4397 27.4429 26.111 27.6626C25.7823 27.8824 25.3958 27.9998 25.0003 28H7.00032C6.60479 28.0001 6.21812 27.8828 5.8892 27.6632C5.56028 27.4435 5.30388 27.1312 5.15243 26.7658C5.00098 26.4004 4.96126 25.9983 5.03832 25.6104C5.11537 25.2224 5.30573 24.866 5.58532 24.5863C5.59105 24.5812 5.59648 24.5757 5.60157 24.57L14.5541 16L5.60282 7.43C5.59773 7.42427 5.5923 7.41885 5.58657 7.41375C5.30706 7.13405 5.11672 6.77777 5.03963 6.38993C4.96254 6.00209 5.00214 5.6001 5.15344 5.23476C5.30474 4.86942 5.56094 4.55713 5.88967 4.33736C6.2184 4.11758 6.6049 4.00018 7.00032 4H25.0003C25.3959 3.99994 25.7825 4.11715 26.1115 4.33683C26.4404 4.55652 26.6968 4.86879 26.8482 5.23418C26.9997 5.59957 27.0394 6.00166 26.9623 6.38962C26.8853 6.77758 26.6949 7.13397 26.4153 7.41375C26.4096 7.41885 26.4042 7.42427 26.3991 7.43L17.4466 16L26.3978 24.57C26.4029 24.5757 26.4083 24.5812 26.4141 24.5863Z" fill="#1C1C1E"/>
</svg>
