<svg width="32" height="32" viewBox="0 0 32 32" fill="none" xmlns="http://www.w3.org/2000/svg">
<path d="M28 15V27C28 27.2652 27.8947 27.5195 27.7071 27.7071C27.5196 27.8946 27.2652 28 27 28H5.00001C4.7348 28 4.48044 27.8946 4.29291 27.7071C4.10537 27.5195 4.00001 27.2652 4.00001 27V15C3.99908 14.737 4.05042 14.4765 4.15107 14.2336C4.25171 13.9907 4.39964 13.7702 4.58626 13.585L14.5863 3.58496C14.9613 3.21017 15.4698 2.99963 16 2.99963C16.5302 2.99963 17.0387 3.21017 17.4138 3.58496L27.4138 13.585C27.6004 13.7702 27.7483 13.9907 27.849 14.2336C27.9496 14.4765 28.0009 14.737 28 15Z" fill="#1C1C1E"/>
</svg>
