<svg width="32" height="32" viewBox="0 0 32 32" fill="none" xmlns="http://www.w3.org/2000/svg">
<path d="M19.79 5.66978L20.9662 1.25728C21.0103 1.0919 21.0111 0.917993 20.9687 0.752193C20.9263 0.586393 20.8421 0.434251 20.724 0.310327C20.606 0.186402 20.4581 0.0948421 20.2946 0.0444086C20.1311 -0.00602486 19.9573 -0.0136441 19.79 0.02228C17.1913 0.660057 14.7147 1.71952 12.4587 3.15853C7.57875 6.29603 5 10.736 5 15.9998C5.00124 18.2523 5.69311 20.4503 6.98232 22.2974C8.27153 24.1445 10.0961 25.5518 12.21 26.3298L11.0337 30.7423C10.9897 30.9077 10.9889 31.0816 11.0313 31.2474C11.0737 31.4132 11.1579 31.5653 11.276 31.6892C11.394 31.8132 11.5419 31.9047 11.7054 31.9552C11.8689 32.0056 12.0427 32.0132 12.21 31.9773C14.8087 31.3395 17.2853 30.28 19.5413 28.841C24.4212 25.7035 27 21.2635 27 15.9998C26.9989 13.7472 26.3071 11.5492 25.0179 9.70204C23.7287 7.85491 21.904 6.44756 19.79 5.66978ZM16 18.9998C15.4067 18.9998 14.8266 18.8238 14.3333 18.4942C13.8399 18.1645 13.4554 17.696 13.2284 17.1478C13.0013 16.5997 12.9419 15.9965 13.0576 15.4145C13.1734 14.8326 13.4591 14.298 13.8787 13.8785C14.2982 13.4589 14.8328 13.1732 15.4147 13.0574C15.9967 12.9417 16.5999 13.0011 17.1481 13.2281C17.6962 13.4552 18.1648 13.8397 18.4944 14.3331C18.8241 14.8264 19 15.4064 19 15.9998C19 16.7954 18.6839 17.5585 18.1213 18.1211C17.5587 18.6837 16.7956 18.9998 16 18.9998Z" fill="#1C1C1E"/>
</svg>
