<svg width="32" height="32" viewBox="0 0 32 32" fill="none" xmlns="http://www.w3.org/2000/svg">
<path d="M21.829 10.1713C21.4965 8.38018 20.681 6.71394 19.4705 5.35249C18.2601 3.99103 16.7008 2.98608 14.9609 2.44615C13.2211 1.90621 11.3668 1.85181 9.59824 2.28881C7.82971 2.72581 6.21415 3.63761 4.926 4.92576C3.63785 6.21391 2.72605 7.82947 2.28905 9.59799C1.85205 11.3665 1.90646 13.2208 2.44639 14.9607C2.98632 16.7006 3.99127 18.2599 5.35273 19.4703C6.71419 20.6807 8.38042 21.4962 10.1715 21.8288C10.5041 23.6199 11.3196 25.2861 12.53 26.6476C13.7404 28.009 15.2998 29.014 17.0396 29.5539C18.7795 30.0939 20.6338 30.1483 22.4023 29.7113C24.1708 29.2743 25.7864 28.3625 27.0746 27.0743C28.3627 25.7862 29.2745 24.1706 29.7115 22.4021C30.1485 20.6335 30.0941 18.7792 29.5542 17.0394C29.0142 15.2995 28.0093 13.7402 26.6478 12.5298C25.2864 11.3194 23.6201 10.5038 21.829 10.1713ZM4.00028 12C3.99644 10.0501 4.70489 8.16596 5.99247 6.70164C7.28005 5.23731 9.05811 4.29365 10.9925 4.04802C12.9269 3.80238 14.8843 4.27169 16.497 5.36772C18.1098 6.46376 19.2666 8.11106 19.7503 10C17.1863 10.0674 14.7459 11.1165 12.9328 12.9307C11.1197 14.745 10.0723 17.186 10.0065 19.75C8.28862 19.3055 6.76684 18.3034 5.67984 16.9008C4.59284 15.4982 4.0021 13.7745 4.00028 12ZM20.0003 28C18.2266 27.9986 16.5036 27.4087 15.1011 26.3229C13.6986 25.2372 12.696 23.7168 12.2503 22C14.8154 21.9342 17.2573 20.8859 19.0717 19.0715C20.8861 17.2571 21.9345 14.8152 22.0003 12.25C23.8893 12.7337 25.5366 13.8906 26.6326 15.5033C27.7286 17.116 28.1979 19.0735 27.9523 21.0078C27.7067 22.9422 26.763 24.7203 25.2987 26.0078C23.8343 27.2954 21.9502 28.0039 20.0003 28Z" fill="#1C1C1E"/>
</svg>
