<svg width="32" height="32" viewBox="0 0 32 32" fill="none" xmlns="http://www.w3.org/2000/svg">
<path d="M24.4855 12C24.4942 11.8363 24.5005 11.6713 24.5005 11.5C24.5005 9.24566 23.6049 7.08365 22.0109 5.48959C20.4168 3.89553 18.2548 3 16.0005 3C13.7461 3 11.5841 3.89553 9.99007 5.48959C8.39601 7.08365 7.50047 9.24566 7.50047 11.5C7.50047 11.6663 7.50047 11.8313 7.51547 12C6.48975 12.5249 5.58145 13.2529 4.84577 14.1397C4.1101 15.0265 3.5624 16.0536 3.23596 17.1586C2.90952 18.2636 2.81115 19.4235 2.94684 20.5677C3.08252 21.7119 3.44943 22.8166 4.02525 23.8146C4.60108 24.8127 5.37381 25.6832 6.29649 26.3733C7.21917 27.0635 8.27253 27.5588 9.39257 27.8293C10.5126 28.0998 11.6759 28.1397 12.8119 27.9466C13.9478 27.7535 15.0327 27.3315 16.0005 26.7062C16.9683 27.3315 18.0531 27.7535 19.1891 27.9466C20.325 28.1397 21.4883 28.0998 22.6084 27.8293C23.7284 27.5588 24.7818 27.0635 25.7045 26.3733C26.6271 25.6832 27.3999 24.8127 27.9757 23.8146C28.5515 22.8166 28.9184 21.7119 29.0541 20.5677C29.1898 19.4235 29.0914 18.2636 28.765 17.1586C28.4385 16.0536 27.8909 15.0265 27.1552 14.1397C26.4195 13.2529 25.5112 12.5249 24.4855 12ZM16.0005 24.1838C14.7866 23.024 14.0697 21.4387 14.0005 19.7612C15.3106 20.0796 16.6779 20.0796 17.988 19.7612C17.9221 21.4369 17.2098 23.0219 16.0005 24.1838ZM12.4042 16.9112C11.1077 16.048 10.1628 14.7493 9.74047 13.25C11.2718 12.8179 12.9085 12.9638 14.3392 13.66C13.4587 14.5851 12.7974 15.6962 12.4042 16.9112ZM17.6617 13.6538C19.0932 12.9596 20.7299 12.8159 22.2605 13.25C21.8395 14.7516 20.8945 16.0527 19.5967 16.9175C19.2052 15.698 18.5438 14.5824 17.6617 13.6538ZM16.0005 5C17.6795 5.0005 19.2934 5.64996 20.5047 6.81262C21.7161 7.97528 22.4311 9.56115 22.5005 11.2388C21.4015 10.9714 20.2601 10.9271 19.1437 11.1083C18.0273 11.2895 16.9585 11.6926 16.0005 12.2937C15.0433 11.6934 13.9756 11.2908 12.8603 11.1096C11.745 10.9284 10.6048 10.9723 9.50672 11.2388C9.57602 9.56223 10.2902 7.97728 11.5002 6.81478C12.7102 5.65229 14.3225 5.00211 16.0005 5ZM5.00047 19.5C5.00101 18.4286 5.26639 17.3739 5.773 16.4298C6.27961 15.4857 7.01173 14.6815 7.90422 14.0887C8.58607 16.1969 10.0601 17.9579 12.0155 19C12.0067 19.1637 12.0005 19.3288 12.0005 19.5C11.9996 21.6769 12.8371 23.7706 14.3392 25.3463C13.3484 25.8273 12.2515 26.0486 11.1517 25.9895C10.0518 25.9304 8.98503 25.5928 8.05144 25.0084C7.11785 24.4239 6.34808 23.6118 5.81441 22.6483C5.28074 21.6848 5.00066 20.6014 5.00047 19.5ZM20.5005 26C19.5168 26.0012 18.5458 25.7776 17.6617 25.3463C19.1638 23.7706 20.0014 21.6769 20.0005 19.5C20.0005 19.3337 19.9942 19.1688 19.9855 19C21.9418 17.9567 23.416 16.1938 24.0967 14.0837C25.2604 14.8558 26.1445 15.9822 26.618 17.2959C27.0915 18.6097 27.1294 20.0411 26.7259 21.378C26.3224 22.7149 25.4991 23.8864 24.3778 24.7189C23.2565 25.5513 21.897 26.0006 20.5005 26Z" fill="#1C1C1E"/>
</svg>
