<svg width="32" height="32" viewBox="0 0 32 32" fill="none" xmlns="http://www.w3.org/2000/svg">
<path d="M29.9436 28.331C29.8749 28.5265 29.7472 28.6959 29.5782 28.8157C29.4091 28.9355 29.207 28.9998 28.9998 28.9998H2.99981C2.79247 28.9999 2.59021 28.9356 2.42102 28.8158C2.25183 28.696 2.12407 28.5265 2.05542 28.3309C1.98678 28.1352 1.98064 27.9231 2.03786 27.7238C2.09508 27.5245 2.21283 27.3479 2.37481 27.2185C2.57856 27.056 7.19106 23.436 14.6611 23.0373C14.2725 21.4888 14.1337 19.8882 14.2498 18.296C14.4661 15.5823 15.6136 11.9673 19.6186 9.23602C19.0045 9.08685 18.3754 9.00842 17.7436 9.00227H17.5348C15.1598 9.07977 13.6673 10.466 12.9723 13.2423C12.9181 13.459 12.7929 13.6514 12.6167 13.7887C12.4404 13.926 12.2232 14.0003 11.9998 13.9998C11.9155 14.0008 11.8315 13.9907 11.7498 13.9698C11.4926 13.9054 11.2714 13.7415 11.135 13.5142C10.9986 13.2868 10.958 13.0145 11.0223 12.7573C12.1786 8.13852 15.1611 7.07977 17.4598 7.00727C18.3728 6.98732 19.2843 7.09033 20.1698 7.31352C19.6923 6.52227 18.9923 5.69727 18.0186 5.28227C16.7686 4.75227 15.2473 4.98352 13.4798 5.97102C13.3649 6.03504 13.2385 6.0758 13.1078 6.09097C12.9772 6.10614 12.8448 6.09543 12.7183 6.05945C12.5918 6.02347 12.4736 5.96292 12.3705 5.88126C12.2674 5.7996 12.1813 5.69842 12.1173 5.58352C12.0533 5.46861 12.0125 5.34222 11.9974 5.21156C11.9822 5.0809 11.9929 4.94853 12.0289 4.82201C12.0649 4.69549 12.1254 4.5773 12.2071 4.47418C12.2887 4.37106 12.3899 4.28504 12.5048 4.22102C14.8473 2.91477 16.9698 2.65352 18.8148 3.44602C20.3761 4.11602 21.4061 5.41852 22.0498 6.57102C22.8211 5.36602 23.7836 4.54977 24.8473 4.20352C26.3298 3.71977 27.9273 4.11352 29.5973 5.37477C29.7996 5.53779 29.9304 5.77313 29.9622 6.03095C29.994 6.28877 29.9242 6.54885 29.7676 6.75612C29.611 6.96339 29.3799 7.1016 29.1232 7.14147C28.8665 7.18135 28.6044 7.11977 28.3923 6.96977C27.2786 6.12852 26.2961 5.83727 25.4748 6.10352C24.5623 6.39727 23.8661 7.35352 23.4273 8.17977C24.3294 8.36135 25.1974 8.68317 25.9998 9.13352C27.8261 10.1773 29.9998 12.3898 29.9998 17.001C29.9998 17.2662 29.8944 17.5206 29.7069 17.7081C29.5194 17.8957 29.265 18.001 28.9998 18.001C28.7346 18.001 28.4802 17.8957 28.2927 17.7081C28.1052 17.5206 27.9998 17.2662 27.9998 17.001C27.9998 14.0685 26.9923 12.001 24.9998 10.876C24.7679 10.7443 24.5278 10.6274 24.2811 10.526C24.9107 11.8061 25.1315 13.2487 24.9136 14.6585C24.7564 15.7015 24.3788 16.6991 23.8061 17.5848C23.6528 17.7997 23.4207 17.9454 23.1604 17.9899C22.9002 18.0344 22.6329 17.9742 22.4168 17.8223C22.2008 17.6705 22.0536 17.4394 22.0073 17.1795C21.9611 16.9195 22.0195 16.6518 22.1698 16.4348C22.2636 16.2985 24.2111 13.3873 21.7623 10.2635C18.3873 12.1648 16.5261 14.9198 16.2423 18.4623C16.1318 19.997 16.2939 21.5391 16.7211 23.0173C24.5523 23.2435 29.4111 27.0585 29.6211 27.2248C29.7824 27.3534 29.8999 27.5287 29.9577 27.7268C30.0154 27.9248 30.0105 28.1359 29.9436 28.331ZM6.49981 20.9998C7.19204 20.9998 7.86873 20.7945 8.4443 20.4099C9.01987 20.0253 9.46848 19.4787 9.73338 18.8392C9.99829 18.1996 10.0676 17.4959 9.93255 16.817C9.79751 16.138 9.46416 15.5144 8.97468 15.0249C8.4852 14.5354 7.86156 14.2021 7.18262 14.067C6.50369 13.932 5.79995 14.0013 5.16041 14.2662C4.52087 14.5311 3.97425 14.9797 3.58966 15.5553C3.20508 16.1308 2.99981 16.8075 2.99981 17.4998C2.99981 18.428 3.36855 19.3183 4.02493 19.9746C4.68131 20.631 5.57155 20.9998 6.49981 20.9998Z" fill="#1C1C1E"/>
</svg>
