<svg width="32" height="32" viewBox="0 0 32 32" fill="none" xmlns="http://www.w3.org/2000/svg">
<path d="M27.0713 4.92898C25.4829 3.33837 23.4049 2.32932 21.1726 2.06468C18.9403 1.80003 16.684 2.29522 14.7677 3.47033C12.8514 4.64544 11.3869 6.43194 10.6106 8.54153C9.83424 10.6511 9.79133 12.9608 10.4888 15.0977L3.58626 22.0002C3.39973 22.1853 3.25185 22.4056 3.15121 22.6483C3.05057 22.891 2.99917 23.1512 3.00001 23.414V27.0002C3.00001 27.5307 3.21072 28.0394 3.5858 28.4144C3.96087 28.7895 4.46958 29.0002 5.00001 29.0002H9.00001C9.26523 29.0002 9.51958 28.8949 9.70712 28.7073C9.89465 28.5198 10 28.2654 10 28.0002V26.0002H12C12.2652 26.0002 12.5196 25.8949 12.7071 25.7073C12.8947 25.5198 13 25.2654 13 25.0002V23.0002H15C15.1314 23.0003 15.2615 22.9746 15.3829 22.9244C15.5043 22.8742 15.6146 22.8006 15.7075 22.7077L16.9025 21.5115C17.9028 21.8368 18.9482 22.0018 20 22.0002H20.0125C21.9893 21.9978 23.9211 21.4096 25.5637 20.3098C27.2063 19.2101 28.4862 17.6481 29.2415 15.8213C29.9969 13.9946 30.1939 11.9849 29.8076 10.0462C29.4213 8.10747 28.4691 6.32676 27.0713 4.92898ZM22.5 11.5002C22.1044 11.5002 21.7178 11.3829 21.3889 11.1632C21.06 10.9434 20.8036 10.6311 20.6523 10.2656C20.5009 9.90015 20.4613 9.49801 20.5384 9.11005C20.6156 8.72209 20.8061 8.36573 21.0858 8.08602C21.3655 7.80631 21.7219 7.61583 22.1098 7.53866C22.4978 7.46149 22.8999 7.5011 23.2654 7.65247C23.6308 7.80385 23.9432 8.06019 24.1629 8.38909C24.3827 8.71799 24.5 9.10467 24.5 9.50023C24.5 10.0307 24.2893 10.5394 23.9142 10.9144C23.5392 11.2895 23.0304 11.5002 22.5 11.5002Z" fill="#1C1C1E"/>
</svg>
