<svg width="32" height="32" viewBox="0 0 32 32" fill="none" xmlns="http://www.w3.org/2000/svg">
<path d="M29.5001 6.12467C29.4985 5.50802 29.3145 4.90562 28.9713 4.39333C28.628 3.88104 28.1409 3.48175 27.5712 3.24574C27.0015 3.00973 26.3747 2.94755 25.7697 3.06703C25.1647 3.18651 24.6086 3.4823 24.1714 3.91717L17.8951 10.1922L2.29264 25.7997C2.16649 25.9259 2.07642 26.0836 2.03178 26.2564C1.98714 26.4292 1.98957 26.6108 2.0388 26.7824C2.08803 26.9539 2.18228 27.1092 2.31176 27.232C2.44124 27.3549 2.60124 27.4408 2.77514 27.4809C4.25893 27.8249 5.77702 27.9989 7.30014 27.9997C11.4189 27.9997 15.5389 26.7247 19.4176 24.2209C23.3876 21.6584 25.6914 18.7434 25.7926 18.6209C25.9433 18.4286 26.0184 18.1878 26.0036 17.9439C25.9889 17.7 25.8854 17.47 25.7126 17.2972L22.6639 14.2497L28.5864 8.32592C28.8762 8.03728 29.1061 7.69422 29.2629 7.31646C29.4197 6.9387 29.5003 6.53369 29.5001 6.12467ZM18.2789 22.5747C13.9751 25.3372 9.53639 26.4397 5.05889 25.8622L18.2501 12.6672L23.6364 18.0547C22.0506 19.7836 20.2501 21.3026 18.2789 22.5747Z" fill="#1C1C1E"/>
</svg>
