<svg width="32" height="32" viewBox="0 0 32 32" fill="none" xmlns="http://www.w3.org/2000/svg">
<path d="M26.9404 26.6575L20.5642 9.125L21.7004 6H23.0004C23.2657 6 23.52 5.89464 23.7075 5.70711C23.8951 5.51957 24.0004 5.26522 24.0004 5C24.0004 4.73478 23.8951 4.48043 23.7075 4.29289C23.52 4.10536 23.2657 4 23.0004 4H11.0004C10.7352 4 10.4809 4.10536 10.2933 4.29289C10.1058 4.48043 10.0004 4.73478 10.0004 5C10.0004 5.26522 10.1058 5.51957 10.2933 5.70711C10.4809 5.89464 10.7352 6 11.0004 6H11.5729L4.06043 26.6575C4.01543 26.781 3.99521 26.9122 4.00095 27.0435C4.00669 27.1749 4.03827 27.3038 4.09388 27.4229C4.1495 27.542 4.22805 27.649 4.32505 27.7377C4.42205 27.8265 4.53559 27.8952 4.65918 27.94C4.76867 27.9794 4.88409 27.9997 5.00043 28C5.2058 28 5.40619 27.9368 5.57436 27.8189C5.74254 27.7011 5.87035 27.5343 5.94043 27.3412L7.15544 24H13.0304L12.0629 26.6575C12.0179 26.781 11.9977 26.9122 12.0035 27.0435C12.0092 27.1749 12.0408 27.3038 12.0964 27.4229C12.152 27.542 12.2306 27.649 12.3276 27.7377C12.4246 27.8265 12.5381 27.8952 12.6617 27.94C12.7704 27.9791 12.8849 27.9994 13.0004 28C13.2058 28 13.4062 27.9368 13.5744 27.8189C13.7425 27.7011 13.8704 27.5343 13.9404 27.3412L16.2504 21H22.7504L25.0567 27.3412C25.127 27.5349 25.2554 27.7021 25.4243 27.82C25.5932 27.9379 25.7944 28.0008 26.0004 28C26.1168 27.9997 26.2322 27.9794 26.3417 27.94C26.4653 27.8952 26.5788 27.8265 26.6758 27.7377C26.7728 27.649 26.8514 27.542 26.907 27.4229C26.9626 27.3038 26.9942 27.1749 26.9999 27.0435C27.0057 26.9122 26.9854 26.781 26.9404 26.6575ZM13.6742 8H17.4242C17.6894 8 17.9438 8.10536 18.1313 8.29289C18.3188 8.48043 18.4242 8.73478 18.4242 9C18.4242 9.26522 18.3188 9.51957 18.1313 9.70711C17.9438 9.89464 17.6894 10 17.4242 10H13.6742C13.409 10 13.1546 9.89464 12.9671 9.70711C12.7795 9.51957 12.6742 9.26522 12.6742 9C12.6742 8.73478 12.7795 8.48043 12.9671 8.29289C13.1546 8.10536 13.409 8 13.6742 8ZM13.7817 20H10.0379C9.77272 20 9.51836 19.8946 9.33083 19.7071C9.14329 19.5196 9.03794 19.2652 9.03794 19C9.03794 18.7348 9.14329 18.4804 9.33083 18.2929C9.51836 18.1054 9.77272 18 10.0379 18H13.7879C14.0532 18 14.3075 18.1054 14.495 18.2929C14.6826 18.4804 14.7879 18.7348 14.7879 19C14.7879 19.2652 14.6826 19.5196 14.495 19.7071C14.3075 19.8946 14.0532 20 13.7879 20H13.7817ZM15.5992 15H11.8554C11.5902 15 11.3359 14.8946 11.1483 14.7071C10.9608 14.5196 10.8554 14.2652 10.8554 14C10.8554 13.7348 10.9608 13.4804 11.1483 13.2929C11.3359 13.1054 11.5902 13 11.8554 13H15.6054C15.8707 13 16.125 13.1054 16.3125 13.2929C16.5001 13.4804 16.6054 13.7348 16.6054 14C16.6054 14.2652 16.5001 14.5196 16.3125 14.7071C16.125 14.8946 15.8707 15 15.6054 15H15.5992ZM16.9742 19L19.5004 12.0513L22.0267 19H16.9742Z" fill="#1C1C1E"/>
</svg>
