<svg width="32" height="32" viewBox="0 0 32 32" fill="none" xmlns="http://www.w3.org/2000/svg">
<path d="M30.8345 19.55C30.7435 19.6883 30.6195 19.8018 30.4738 19.8803C30.328 19.9588 30.1651 20 29.9995 20H25.9995V24C25.9995 24.2652 25.8942 24.5196 25.7066 24.7071C25.5191 24.8946 25.2647 25 24.9995 25C24.7343 25 24.48 24.8946 24.2924 24.7071C24.1049 24.5196 23.9995 24.2652 23.9995 24V20H16.9995V26H19.9995C20.2647 26 20.5191 26.1054 20.7066 26.2929C20.8942 26.4804 20.9995 26.7348 20.9995 27C20.9995 27.2652 20.8942 27.5196 20.7066 27.7071C20.5191 27.8946 20.2647 28 19.9995 28H11.9995C11.7343 28 11.48 27.8946 11.2924 27.7071C11.1049 27.5196 10.9995 27.2652 10.9995 27C10.9995 26.7348 11.1049 26.4804 11.2924 26.2929C11.48 26.1054 11.7343 26 11.9995 26H14.9995V20H1.99953C1.83411 19.9999 1.67128 19.9588 1.52565 19.8803C1.38002 19.8019 1.25613 19.6885 1.16508 19.5504C1.07403 19.4123 1.01867 19.2537 1.00396 19.0889C0.989251 18.9242 1.01565 18.7583 1.08078 18.6063L7.08078 4.60625C7.15782 4.4264 7.28593 4.2731 7.44924 4.16534C7.61254 4.05758 7.80388 4.00009 7.99953 4H23.9995C24.1952 4.00009 24.3865 4.05758 24.5498 4.16534C24.7131 4.2731 24.8412 4.4264 24.9183 4.60625L30.9183 18.6063C30.9834 18.7582 31.0099 18.924 30.9953 19.0887C30.9807 19.2534 30.9254 19.4119 30.8345 19.55Z" fill="#1C1C1E"/>
</svg>
