<svg width="32" height="32" viewBox="0 0 32 32" fill="none" xmlns="http://www.w3.org/2000/svg">
<path d="M27.9316 5.0089C27.9173 4.76425 27.8137 4.53337 27.6404 4.36009C27.4671 4.1868 27.2362 4.08318 26.9916 4.0689C17.4753 3.51015 9.85282 6.37514 6.60282 11.7501C5.47628 13.5888 4.92115 15.7206 5.00782 17.8751C5.0644 19.2529 5.34473 20.6124 5.83782 21.9001C5.8668 21.9794 5.91536 22.05 5.97898 22.1055C6.04261 22.1609 6.11923 22.1993 6.2017 22.2172C6.28418 22.235 6.36983 22.2317 6.45067 22.2075C6.53152 22.1833 6.60493 22.1391 6.66407 22.0789L17.2891 11.2914C17.382 11.1985 17.4923 11.1248 17.6137 11.0745C17.7351 11.0242 17.8652 10.9983 17.9966 10.9983C18.128 10.9983 18.2581 11.0242 18.3795 11.0745C18.5009 11.1248 18.6112 11.1985 18.7041 11.2914C18.797 11.3843 18.8707 11.4946 18.921 11.616C18.9712 11.7374 18.9971 11.8675 18.9971 11.9989C18.9971 12.1303 18.9712 12.2604 18.921 12.3818C18.8707 12.5032 18.797 12.6135 18.7041 12.7064L7.09282 24.4926L5.31907 26.2664C5.13461 26.446 5.02448 26.6884 5.01058 26.9455C4.99669 27.2026 5.08004 27.4555 5.24407 27.6539C5.33391 27.7579 5.44422 27.8423 5.56813 27.9018C5.69204 27.9613 5.82688 27.9946 5.96424 27.9996C6.1016 28.0047 6.23852 27.9814 6.36646 27.9311C6.4944 27.8809 6.6106 27.8048 6.70782 27.7076L8.80657 25.6089C10.5741 26.4639 12.3578 26.9301 14.1266 26.9926C14.2657 26.9976 14.4045 27.0001 14.5428 27.0001C16.5571 27.0053 18.5331 26.4505 20.2503 25.3976C25.6253 22.1476 28.4916 14.5264 27.9316 5.0089Z" fill="#1C1C1E"/>
</svg>
