<svg width="32" height="32" viewBox="0 0 32 32" fill="none" xmlns="http://www.w3.org/2000/svg">
<path d="M13.2153 8.47619C13.1302 8.38388 13.083 8.26296 13.083 8.13744C13.083 8.01193 13.1302 7.89101 13.2153 7.79869L19.264 1.31744C19.4122 1.15852 19.6082 1.05221 19.8222 1.0146C20.0363 0.976992 20.2568 1.01014 20.4503 1.10902C20.6438 1.2079 20.7999 1.36714 20.8948 1.56262C20.9898 1.75811 21.0184 1.9792 20.9765 2.19244L19.1478 11.3624L26.3265 14.0537C26.5452 14.1318 26.7311 14.2816 26.854 14.4787C26.9676 14.6654 27.0168 14.8842 26.9943 15.1016C26.9717 15.319 26.8785 15.523 26.729 15.6824L23.5703 19.0662C23.5234 19.1169 23.4666 19.1574 23.4034 19.1852C23.3401 19.2129 23.2718 19.2272 23.2028 19.2272C23.1337 19.2272 23.0654 19.2129 23.0021 19.1852C22.9389 19.1574 22.8821 19.1169 22.8353 19.0662L13.2153 8.47619ZM16.6853 15.2662L6.74025 4.32744C6.65243 4.22845 6.54584 4.14787 6.42665 4.09038C6.30746 4.03289 6.17805 3.99962 6.04591 3.99251C5.91377 3.98541 5.78153 4.00459 5.65686 4.04897C5.53219 4.09334 5.41757 4.16202 5.31964 4.25102C5.22171 4.34002 5.14241 4.44757 5.08635 4.56744C5.03029 4.68731 4.99858 4.81711 4.99306 4.94933C4.98754 5.08154 5.00831 5.21354 5.05417 5.33767C5.10004 5.4618 5.17008 5.57559 5.26025 5.67244L10.1678 11.0699L5.29275 16.2987C5.12759 16.4641 5.02432 16.6812 5.00025 16.9137C4.98143 17.1312 5.03428 17.3488 5.15074 17.5334C5.2672 17.7181 5.44088 17.8595 5.64525 17.9362L12.849 20.6374L11.0203 29.8037C10.9788 30.0167 11.0077 30.2374 11.1026 30.4325C11.1975 30.6276 11.3533 30.7865 11.5465 30.8853C11.7397 30.9841 11.9598 31.0173 12.1736 30.9801C12.3873 30.9428 12.5831 30.837 12.7315 30.6787L20.464 22.3937L25.2603 27.6687C25.3481 27.7677 25.4547 27.8483 25.5739 27.9058C25.693 27.9632 25.8225 27.9965 25.9546 28.0036C26.0867 28.0107 26.219 27.9915 26.3436 27.9472C26.4683 27.9028 26.5829 27.8341 26.6809 27.7451C26.7788 27.6561 26.8581 27.5486 26.9141 27.4287C26.9702 27.3088 27.0019 27.179 27.0074 27.0468C27.013 26.9146 26.9922 26.7826 26.9463 26.6585C26.9005 26.5343 26.8304 26.4205 26.7403 26.3237L16.6853 15.2662Z" fill="#1C1C1E"/>
</svg>
