<svg width="32" height="32" viewBox="0 0 32 32" fill="none" xmlns="http://www.w3.org/2000/svg">
<path d="M29.4764 9.47375C29.1517 9.79962 28.7657 10.0581 28.3407 10.2342C27.9158 10.4103 27.4601 10.5006 27.0001 10.5C26.762 10.4996 26.5246 10.4753 26.2914 10.4275L22.4701 17.5237C22.9292 17.9827 23.2515 18.5602 23.4012 19.1918C23.5509 19.8234 23.522 20.4842 23.3177 21.1003C23.1135 21.7164 22.7419 22.2636 22.2446 22.6807C21.7472 23.0978 21.1437 23.3684 20.5014 23.4622C19.8592 23.556 19.2034 23.4694 18.6076 23.212C18.0117 22.9545 17.4992 22.5365 17.1272 22.0046C16.7552 21.4726 16.5385 20.8477 16.5013 20.1997C16.4641 19.5517 16.6078 18.906 16.9164 18.335L13.6589 15.0775C13.1493 15.3531 12.5794 15.4983 12.0001 15.5C11.762 15.4997 11.5246 15.4754 11.2914 15.4275L7.47012 22.5225C7.95957 23.012 8.29287 23.6356 8.42789 24.3146C8.56291 24.9935 8.49358 25.6972 8.22866 26.3367C7.96375 26.9762 7.51514 27.5228 6.93958 27.9074C6.36401 28.292 5.68734 28.4972 4.99512 28.4972C4.3029 28.4972 3.62622 28.292 3.05066 27.9074C2.4751 27.5228 2.02649 26.9762 1.76157 26.3367C1.49666 25.6972 1.42732 24.9935 1.56234 24.3146C1.69736 23.6356 2.03067 23.012 2.52012 22.5225C2.93043 22.1126 3.43618 21.811 3.99191 21.645C4.54764 21.4789 5.13592 21.4536 5.70387 21.5713L9.52512 14.475C8.86981 13.8178 8.50182 12.9275 8.50182 11.9994C8.50182 11.0713 8.86981 10.181 9.52512 9.52375C10.1196 8.92894 10.9083 8.56805 11.747 8.50708C12.5857 8.44612 13.4183 8.68916 14.0926 9.19174C14.7668 9.69433 15.2375 10.4229 15.4186 11.244C15.5997 12.0652 15.4791 12.9242 15.0789 13.6637L18.3364 16.9212C19.0628 16.5305 19.9036 16.408 20.7114 16.575L24.5326 9.47875C24.2076 9.15374 23.9497 8.76789 23.7738 8.34322C23.5979 7.91856 23.5074 7.46341 23.5074 7.00375C23.5074 6.54409 23.5979 6.08894 23.7738 5.66427C23.9497 5.23961 24.2076 4.85376 24.5326 4.52875C25.189 3.87234 26.0793 3.50357 27.0076 3.50357C27.9359 3.50357 28.8262 3.87234 29.4826 4.52875C30.139 5.18516 30.5078 6.07544 30.5078 7.00375C30.5078 7.93205 30.139 8.82234 29.4826 9.47875L29.4764 9.47375Z" fill="#1C1C1E"/>
</svg>
