<svg width="32" height="32" viewBox="0 0 32 32" fill="none" xmlns="http://www.w3.org/2000/svg">
<path d="M26.4765 10.4738C25.9435 11.0068 25.2526 11.3535 24.5067 11.4623C23.7607 11.5711 22.9996 11.4361 22.3365 11.0775L11.0778 22.3363C11.3865 22.9072 11.5304 23.5528 11.4933 24.2009C11.4562 24.8489 11.2397 25.4739 10.8679 26.0059C10.496 26.538 9.98356 26.9562 9.38774 27.2137C8.79192 27.4713 8.13621 27.558 7.4939 27.4644C6.85159 27.3707 6.24799 27.1002 5.75055 26.6832C5.2531 26.2662 4.88142 25.7191 4.67704 25.103C4.47267 24.4869 4.44364 23.8261 4.59321 23.1945C4.74278 22.5629 5.06505 21.9853 5.52401 21.5263C6.05704 20.9932 6.74793 20.6465 7.49387 20.5377C8.23982 20.4289 9.00095 20.5639 9.66401 20.9225L20.9228 9.66376C20.614 9.09278 20.4701 8.4472 20.5072 7.79915C20.5443 7.15111 20.7608 6.52614 21.1327 5.99409C21.5045 5.46204 22.017 5.04387 22.6128 4.78632C23.2086 4.52877 23.8643 4.44199 24.5066 4.53567C25.1489 4.62935 25.7525 4.8998 26.25 5.3168C26.7474 5.7338 27.1191 6.28091 27.3235 6.897C27.5279 7.51309 27.5569 8.17388 27.4073 8.80551C27.2577 9.43715 26.9355 10.0148 26.4765 10.4738Z" fill="#1C1C1E"/>
</svg>
