<svg width="32" height="32" viewBox="0 0 32 32" fill="none" xmlns="http://www.w3.org/2000/svg">
<path d="M20.1529 26.2175C20.2044 26.2927 20.2344 26.3805 20.2396 26.4715C20.2448 26.5625 20.225 26.6532 20.1824 26.7337C20.1398 26.8143 20.076 26.8817 19.9979 26.9286C19.9198 26.9755 19.8303 27.0002 19.7392 27H12.2629C12.1718 27.0002 12.0823 26.9755 12.0042 26.9286C11.9261 26.8817 11.8623 26.8143 11.8197 26.7337C11.7771 26.6532 11.7573 26.5625 11.7625 26.4715C11.7677 26.3805 11.7977 26.2927 11.8492 26.2175C12.3064 25.5361 12.9243 24.9777 13.6484 24.5916C14.3725 24.2055 15.1805 24.0035 16.001 24.0035C16.8216 24.0035 17.6296 24.2055 18.3537 24.5916C19.0778 24.9777 19.6957 25.5361 20.1529 26.2175ZM28.7692 26.6388C28.67 26.7543 28.5465 26.8466 28.4076 26.9091C28.2687 26.9715 28.1177 27.0026 27.9654 27H23.0704C22.9675 26.9999 22.8672 26.968 22.783 26.9087C22.6989 26.8494 22.6352 26.7656 22.6004 26.6688C22.1178 25.3042 21.224 24.1228 20.0421 23.2872C18.8603 22.4516 17.4485 22.0029 16.001 22.0029C14.5536 22.0029 13.1418 22.4516 11.9599 23.2872C10.7781 24.1228 9.88431 25.3042 9.40167 26.6688C9.36694 26.7656 9.30317 26.8494 9.21905 26.9087C9.13494 26.968 9.03458 26.9999 8.93167 27H4.02917C3.87658 27.0025 3.72534 26.971 3.58651 26.9076C3.44767 26.8443 3.32473 26.7507 3.22667 26.6338C3.0814 26.4566 3.00138 26.2348 3.00002 26.0057C2.99865 25.7766 3.07602 25.5539 3.21917 25.375C3.22667 25.3662 4.17417 24.1525 5.10917 21.785C5.97167 19.6 7.00042 15.955 7.00042 11C7.00042 8.61305 7.94863 6.32387 9.63646 4.63604C11.3243 2.94821 13.6135 2 16.0004 2C18.3874 2 20.6766 2.94821 22.3644 4.63604C24.0522 6.32387 25.0004 8.61305 25.0004 11C25.0004 15.955 26.0292 19.6 26.8917 21.785C27.8267 24.1525 28.7742 25.3663 28.7829 25.3775C28.9258 25.5573 29.0025 25.7809 29 26.0106C28.9975 26.2403 28.916 26.4621 28.7692 26.6388ZM11.0004 12.5C11.0004 12.7967 11.0884 13.0867 11.2532 13.3334C11.418 13.58 11.6523 13.7723 11.9264 13.8858C12.2005 13.9994 12.5021 14.0291 12.7931 13.9712C13.084 13.9133 13.3513 13.7704 13.5611 13.5607C13.7709 13.3509 13.9137 13.0836 13.9716 12.7926C14.0295 12.5017 13.9998 12.2001 13.8862 11.926C13.7727 11.6519 13.5805 11.4176 13.3338 11.2528C13.0871 11.088 12.7971 11 12.5004 11C12.1026 11 11.7211 11.158 11.4398 11.4393C11.1585 11.7206 11.0004 12.1022 11.0004 12.5ZM20.8954 16.5525C20.7769 16.3153 20.569 16.135 20.3175 16.051C20.0659 15.9671 19.7914 15.9865 19.5542 16.105L16.0004 17.8825L12.4479 16.105C12.2106 15.9865 11.9358 15.9671 11.6842 16.0512C11.4325 16.1352 11.2246 16.3158 11.106 16.5531C10.9875 16.7905 10.9682 17.0652 11.0522 17.3169C11.1362 17.5685 11.3168 17.7765 11.5542 17.895L15.5542 19.895C15.6929 19.9643 15.8459 20.0004 16.001 20.0004C16.1562 20.0004 16.3092 19.9643 16.4479 19.895L20.4479 17.895C20.5655 17.8363 20.6704 17.755 20.7565 17.6557C20.8427 17.5565 20.9084 17.4412 20.95 17.3165C20.9915 17.1918 21.0081 17.0602 20.9987 16.9291C20.9894 16.798 20.9543 16.67 20.8954 16.5525ZM21.0004 12.5C21.0004 12.2033 20.9124 11.9133 20.7476 11.6666C20.5828 11.42 20.3485 11.2277 20.0744 11.1142C19.8004 11.0006 19.4988 10.9709 19.2078 11.0288C18.9168 11.0867 18.6495 11.2296 18.4398 11.4393C18.23 11.6491 18.0871 11.9164 18.0292 12.2074C17.9714 12.4983 18.0011 12.7999 18.1146 13.074C18.2281 13.3481 18.4204 13.5824 18.6671 13.7472C18.9137 13.912 19.2037 14 19.5004 14C19.8982 14 20.2798 13.842 20.5611 13.5607C20.8424 13.2794 21.0004 12.8978 21.0004 12.5Z" fill="#1C1C1E"/>
</svg>
