<svg width="32" height="32" viewBox="0 0 32 32" fill="none" xmlns="http://www.w3.org/2000/svg">
<path d="M23.3928 14.355L26.7403 10.6725C26.915 10.4757 27.005 10.2179 26.9908 9.95516C26.9767 9.6924 26.8596 9.4458 26.6648 9.26883C26.4701 9.09185 26.2135 8.99877 25.9505 9.00975C25.6876 9.02074 25.4396 9.13491 25.2603 9.32751L22.6916 12.1525L20.5416 5.39376C20.4139 4.98857 20.1601 4.6348 19.8172 4.38406C19.4743 4.13333 19.0602 3.99876 18.6353 4.00001H13.3641C12.9393 3.99876 12.5252 4.13333 12.1823 4.38406C11.8393 4.6348 11.5855 4.98857 11.4578 5.39376L5.0941 25.3938C4.99873 25.6936 4.97544 26.0116 5.02611 26.3221C5.07678 26.6326 5.19999 26.9268 5.38571 27.1807C5.57144 27.4347 5.81446 27.6412 6.09501 27.7835C6.37556 27.9259 6.68574 28.0001 7.00035 28H25.0003C25.315 28.0001 25.6251 27.9259 25.9057 27.7835C26.1862 27.6412 26.4293 27.4347 26.615 27.1807C26.8007 26.9268 26.9239 26.6326 26.9746 26.3221C27.0253 26.0116 27.002 25.6936 26.9066 25.3938L23.3928 14.355ZM8.9091 20L13.3641 6.00001H18.6353L21.1353 13.8625L15.5578 20H8.9091ZM18.2603 20L21.8378 16.065L23.0878 20H18.2603Z" fill="#1C1C1E"/>
</svg>
