<svg width="32" height="32" viewBox="0 0 32 32" fill="none" xmlns="http://www.w3.org/2000/svg">
<path d="M26.6723 28.7399C26.476 28.9183 26.2169 29.0114 25.952 28.9987C25.6871 28.986 25.4381 28.8687 25.2598 28.6724L21.3948 24.4224C20.0726 25.2747 18.5656 25.798 16.9998 25.9487V29.9999C16.9998 30.2652 16.8944 30.5195 16.7069 30.7071C16.5193 30.8946 16.265 30.9999 15.9998 30.9999C15.7345 30.9999 15.4802 30.8946 15.2926 30.7071C15.1051 30.5195 14.9998 30.2652 14.9998 29.9999V25.9499C12.5343 25.6991 10.2495 24.5429 8.58705 22.705C6.92465 20.8671 6.0028 18.4781 5.99975 15.9999C5.99975 15.7347 6.10511 15.4804 6.29264 15.2928C6.48018 15.1053 6.73453 14.9999 6.99975 14.9999C7.26497 14.9999 7.51932 15.1053 7.70686 15.2928C7.89439 15.4804 7.99975 15.7347 7.99975 15.9999C8.00207 18.121 8.84566 20.1544 10.3455 21.6542C11.8452 23.154 13.8787 23.9976 15.9998 23.9999C17.4146 24.0041 18.8048 23.6295 20.026 22.9149L18.6385 21.3899C17.7236 21.8379 16.7098 22.0456 15.6925 21.9935C14.6752 21.9413 13.6879 21.631 12.8237 21.0918C11.9594 20.5526 11.2467 19.8022 10.7527 18.9114C10.2586 18.0205 9.99951 17.0186 9.99975 15.9999V11.8862L5.25975 6.67244C5.08512 6.4756 4.99512 6.21785 5.00926 5.9551C5.02339 5.69234 5.14053 5.44574 5.33527 5.26876C5.53 5.09179 5.78665 4.9987 6.04956 5.00969C6.31247 5.02067 6.56045 5.13484 6.73975 5.32744L26.7397 27.3274C26.9181 27.5237 27.0112 27.7828 26.9985 28.0477C26.9858 28.3126 26.8685 28.5616 26.6723 28.7399ZM23.6485 20.8487C23.7849 20.9163 23.935 20.9514 24.0872 20.9512C24.2746 20.9512 24.4582 20.8986 24.6171 20.7994C24.776 20.7002 24.9038 20.5583 24.986 20.3899C25.657 19.024 26.0039 17.5218 25.9998 15.9999C25.9998 15.7347 25.8944 15.4804 25.7069 15.2928C25.5193 15.1053 25.265 14.9999 24.9998 14.9999C24.7345 14.9999 24.4802 15.1053 24.2926 15.2928C24.1051 15.4804 23.9998 15.7347 23.9998 15.9999C24.0033 17.2171 23.7261 18.4186 23.1898 19.5112C23.0733 19.7494 23.0562 20.0241 23.1422 20.2749C23.2282 20.5257 23.4103 20.7321 23.6485 20.8487ZM20.2323 17.1962C20.3622 17.3392 20.5308 17.4415 20.7176 17.4907C20.9045 17.54 21.1016 17.534 21.2851 17.4736C21.4687 17.4131 21.6308 17.3008 21.7518 17.1502C21.8729 16.9996 21.9477 16.8172 21.9673 16.6249C21.9886 16.4173 21.9995 16.2087 21.9998 15.9999V7.99994C21.9982 6.62188 21.5224 5.28634 20.6522 4.21779C19.782 3.14923 18.5704 2.4128 17.2212 2.13225C15.872 1.8517 14.4674 2.04415 13.2433 2.67723C12.0193 3.31032 11.0505 4.34546 10.4998 5.60869C10.4229 5.78526 10.3986 5.98028 10.4298 6.17032C10.4611 6.36035 10.5466 6.53732 10.676 6.67994L20.2323 17.1962Z" fill="#1C1C1E"/>
</svg>
