<svg width="32" height="32" viewBox="0 0 32 32" fill="none" xmlns="http://www.w3.org/2000/svg">
<path d="M30.53 7.50045C30.386 7.4106 30.2216 7.35887 30.0521 7.35012C29.8826 7.34137 29.7137 7.3759 29.5613 7.45045C24.195 10.0754 20.3625 8.84545 16.3113 7.54795C12.05 6.1917 7.65 4.78545 1.56125 7.75795C1.3931 7.84005 1.25135 7.96769 1.15213 8.12635C1.05292 8.28501 1.00021 8.46832 1 8.65545V23.6467C0.999976 23.8164 1.04312 23.9833 1.12538 24.1316C1.20764 24.28 1.3263 24.4051 1.4702 24.495C1.6141 24.5849 1.77851 24.6367 1.94794 24.6455C2.11738 24.6543 2.28628 24.6199 2.43875 24.5454C7.805 21.9204 11.6375 23.1504 15.695 24.4479C18.1 25.2167 20.55 26.0004 23.32 26.0004C25.4562 26.0004 27.7863 25.5354 30.4338 24.2429C30.6019 24.1608 30.7437 24.0332 30.8429 23.8745C30.9421 23.7159 30.9948 23.5326 30.995 23.3454V8.3542C30.9965 8.18409 30.9546 8.01641 30.8732 7.86701C30.7919 7.71762 30.6737 7.59145 30.53 7.50045ZM6 19.0004C6 19.2657 5.89464 19.52 5.70711 19.7076C5.51957 19.8951 5.26522 20.0004 5 20.0004C4.73478 20.0004 4.48043 19.8951 4.29289 19.7076C4.10536 19.52 4 19.2657 4 19.0004V11.0004C4 10.7352 4.10536 10.4809 4.29289 10.2933C4.48043 10.1058 4.73478 10.0004 5 10.0004C5.26522 10.0004 5.51957 10.1058 5.70711 10.2933C5.89464 10.4809 6 10.7352 6 11.0004V19.0004ZM16 20.0004C15.2089 20.0004 14.4355 19.7659 13.7777 19.3263C13.1199 18.8868 12.6072 18.2621 12.3045 17.5312C12.0017 16.8003 11.9225 15.996 12.0769 15.2201C12.2312 14.4442 12.6122 13.7314 13.1716 13.172C13.731 12.6126 14.4437 12.2316 15.2196 12.0773C15.9956 11.923 16.7998 12.0022 17.5307 12.3049C18.2616 12.6077 18.8864 13.1204 19.3259 13.7782C19.7654 14.436 20 15.2093 20 16.0004C20 17.0613 19.5786 18.0787 18.8284 18.8289C18.0783 19.579 17.0609 20.0004 16 20.0004ZM28 21.0004C28 21.2657 27.8946 21.52 27.7071 21.7076C27.5196 21.8951 27.2652 22.0004 27 22.0004C26.7348 22.0004 26.4804 21.8951 26.2929 21.7076C26.1054 21.52 26 21.2657 26 21.0004V13.0004C26 12.7352 26.1054 12.4809 26.2929 12.2933C26.4804 12.1058 26.7348 12.0004 27 12.0004C27.2652 12.0004 27.5196 12.1058 27.7071 12.2933C27.8946 12.4809 28 12.7352 28 13.0004V21.0004Z" fill="#1C1C1E"/>
</svg>
