<svg width="32" height="32" viewBox="0 0 32 32" fill="none" xmlns="http://www.w3.org/2000/svg">
<path d="M26 4.99999H20.9C20.6705 3.8697 20.0573 2.85352 19.1643 2.12361C18.2712 1.39371 17.1534 0.99498 16 0.99498C14.8466 0.99498 13.7288 1.39371 12.8357 2.12361C11.9427 2.85352 11.3295 3.8697 11.1 4.99999H6C5.73478 4.99999 5.48043 5.10535 5.29289 5.29289C5.10536 5.48042 5 5.73478 5 5.99999C5 6.26521 5.10536 6.51956 5.29289 6.7071C5.48043 6.89464 5.73478 6.99999 6 6.99999H11.1C11.3168 8.05477 11.8683 9.01138 12.6725 9.72749C11.2797 10.3659 10.0992 11.3903 9.27103 12.6793C8.44285 13.9684 8.00173 15.4679 8 17V25C8 25.5304 8.21071 26.0391 8.58579 26.4142C8.96086 26.7893 9.46957 27 10 27H12C12 28.0609 12.4214 29.0783 13.1716 29.8284C13.9217 30.5786 14.9391 31 16 31C17.0609 31 18.0783 30.5786 18.8284 29.8284C19.5786 29.0783 20 28.0609 20 27H22C22.5304 27 23.0391 26.7893 23.4142 26.4142C23.7893 26.0391 24 25.5304 24 25V17C23.9983 15.4679 23.5572 13.9684 22.729 12.6793C21.9008 11.3903 20.7203 10.3659 19.3275 9.72749C20.1317 9.01138 20.6832 8.05477 20.9 6.99999H26C26.2652 6.99999 26.5196 6.89464 26.7071 6.7071C26.8946 6.51956 27 6.26521 27 5.99999C27 5.73478 26.8946 5.48042 26.7071 5.29289C26.5196 5.10535 26.2652 4.99999 26 4.99999ZM18 27C18 27.5304 17.7893 28.0391 17.4142 28.4142C17.0391 28.7893 16.5304 29 16 29C15.4696 29 14.9609 28.7893 14.5858 28.4142C14.2107 28.0391 14 27.5304 14 27V21C14 20.4696 14.2107 19.9609 14.5858 19.5858C14.9609 19.2107 15.4696 19 16 19C16.5304 19 17.0391 19.2107 17.4142 19.5858C17.7893 19.9609 18 20.4696 18 21V27ZM16 8.99999C15.4067 8.99999 14.8266 8.82405 14.3333 8.4944C13.8399 8.16476 13.4554 7.69622 13.2284 7.14804C13.0013 6.59986 12.9419 5.99666 13.0576 5.41472C13.1734 4.83278 13.4591 4.29823 13.8787 3.87867C14.2982 3.45911 14.8328 3.17339 15.4147 3.05764C15.9967 2.94188 16.5999 3.00129 17.1481 3.22835C17.6962 3.45542 18.1648 3.83993 18.4944 4.33328C18.8241 4.82663 19 5.40665 19 5.99999C19 6.79564 18.6839 7.5587 18.1213 8.12131C17.5587 8.68392 16.7956 8.99999 16 8.99999Z" fill="#1C1C1E"/>
</svg>
