<svg width="32" height="32" viewBox="0 0 32 32" fill="none" xmlns="http://www.w3.org/2000/svg">
<path d="M24.9998 5V24C24.9998 24.2652 24.8945 24.5196 24.7069 24.7071C24.5194 24.8946 24.265 25 23.9998 25H4.99981C4.80192 25.0002 4.60842 24.9416 4.44383 24.8317C4.27923 24.7218 4.15094 24.5656 4.07519 24.3828C3.99944 24.2 3.97963 23.9988 4.01828 23.8047C4.05693 23.6106 4.1523 23.4324 4.29231 23.2925L23.2923 4.2925C23.4322 4.15249 23.6104 4.05712 23.8045 4.01847C23.9986 3.97982 24.1998 3.99962 24.3826 4.07538C24.5654 4.15113 24.7217 4.27942 24.8315 4.44402C24.9414 4.60861 25 4.8021 24.9998 5Z" fill="#1C1C1E"/>
</svg>
