<svg width="32" height="32" viewBox="0 0 32 32" fill="none" xmlns="http://www.w3.org/2000/svg">
<path d="M21.5003 17C21.7969 17 22.087 17.088 22.3336 17.2528C22.5803 17.4176 22.7726 17.6519 22.8861 17.926C22.9996 18.2001 23.0293 18.5017 22.9715 18.7926C22.9136 19.0836 22.7707 19.3509 22.5609 19.5607C22.3512 19.7704 22.0839 19.9133 21.7929 19.9712C21.5019 20.0291 21.2003 19.9993 20.9263 19.8858C20.6522 19.7723 20.4179 19.58 20.2531 19.3334C20.0882 19.0867 20.0003 18.7967 20.0003 18.5C20.0003 18.1022 20.1583 17.7206 20.4396 17.4393C20.7209 17.158 21.1024 17 21.5003 17ZM23.0778 12.9062L14.864 9.07375C12.749 9.34192 10.798 10.3527 9.35911 11.9258C7.92017 13.4989 7.08684 15.532 7.00777 17.6625L15.5303 13.1175C15.6826 13.0364 15.8534 12.9961 16.026 13.0005C16.1985 13.0049 16.367 13.054 16.515 13.1428C16.663 13.2316 16.7855 13.3573 16.8705 13.5075C16.9555 13.6577 17.0002 13.8274 17.0003 14V26.9438C18.7369 26.7557 20.3806 26.0638 21.729 24.9533C23.0774 23.8428 24.0715 22.3621 24.589 20.6938C24.6694 20.4403 24.8472 20.2292 25.0833 20.1068C25.3193 19.9844 25.5943 19.9609 25.8478 20.0413C26.1012 20.1216 26.3124 20.2994 26.4347 20.5355C26.5571 20.7715 26.5807 21.0466 26.5003 21.3C26.0342 22.7712 25.2638 24.1279 24.2391 25.2819C23.2144 26.4358 21.9583 27.3613 20.5525 27.998C19.1467 28.6348 17.6227 28.9686 16.0795 28.9778C14.5362 28.987 13.0083 28.6714 11.5951 28.0514C10.1818 27.4315 8.91477 26.5211 7.87638 25.3794C6.83798 24.2378 6.05143 22.8904 5.56786 21.4248C5.08428 19.9593 4.91449 18.4084 5.06954 16.8729C5.22458 15.3374 5.70098 13.8518 6.46777 12.5125C5.56634 12.0549 4.84527 11.307 4.42079 10.3895C3.9963 9.47196 3.89314 8.43824 4.12792 7.45493C4.3627 6.47161 4.92175 5.596 5.71496 4.96923C6.50817 4.34246 7.48932 4.00104 8.50027 4C8.64624 4.00024 8.79041 4.03223 8.92277 4.09375L23.704 10.9913C24.3463 10.9374 24.9429 10.6376 25.3694 10.1544C25.7959 9.67121 26.0193 9.04198 25.993 8.39803C25.9667 7.75407 25.6928 7.14514 25.2283 6.69833C24.7638 6.25151 24.1448 6.00133 23.5003 6C23.2351 6 22.9807 5.89464 22.7932 5.70711C22.6056 5.51957 22.5003 5.26522 22.5003 5C22.5003 4.73478 22.6056 4.48043 22.7932 4.29289C22.9807 4.10536 23.2351 4 23.5003 4C24.6937 4 25.8383 4.47411 26.6823 5.31802C27.5262 6.16193 28.0003 7.30653 28.0003 8.5C28.0003 9.69347 27.5262 10.8381 26.6823 11.682C25.8383 12.5259 24.6937 13 23.5003 13C23.3543 12.9998 23.2101 12.9678 23.0778 12.9062ZM12.0003 26.0588V17.2663L7.18902 19.8325C7.46913 21.1661 8.04747 22.419 8.8807 23.4973C9.71394 24.5756 10.7804 25.4513 12.0003 26.0588ZM12.0165 7.75L8.29653 6.00875C7.72921 6.05649 7.19518 6.29644 6.78276 6.6889C6.37033 7.08137 6.10422 7.60285 6.02842 8.1671C5.95262 8.73135 6.07169 9.30458 6.36592 9.79197C6.66015 10.2794 7.11192 10.6517 7.64652 10.8475C7.72152 10.7587 7.79652 10.67 7.87652 10.5837C9.01982 9.33288 10.4367 8.36307 12.0165 7.75Z" fill="#1C1C1E"/>
</svg>
