<svg width="32" height="32" viewBox="0 0 32 32" fill="none" xmlns="http://www.w3.org/2000/svg">
<path d="M28.9408 18.3209L21.9595 6.33218L21.9458 6.30843C21.3176 5.29712 20.4419 4.46274 19.4014 3.88417C18.3609 3.30559 17.19 3.00195 15.9995 3.00195C14.809 3.00195 13.6381 3.30559 12.5977 3.88417C11.5572 4.46274 10.6814 5.29712 10.0533 6.30843L10.0395 6.33218L3.05827 18.3209C2.40337 19.3811 2.04336 20.5969 2.01543 21.8428C1.9875 23.0887 2.29267 24.3194 2.89941 25.4079C3.50614 26.4964 4.39246 27.4031 5.46681 28.0346C6.54117 28.666 7.7646 28.9992 9.01077 28.9997H22.9883C24.2344 28.9992 25.4579 28.666 26.5322 28.0346C27.6066 27.4031 28.4929 26.4964 29.0996 25.4079C29.7064 24.3194 30.0115 23.0887 29.9836 21.8428C29.9557 20.5969 29.5957 19.3811 28.9408 18.3209ZM27.3558 24.4309C26.9279 25.2138 26.2958 25.8661 25.5268 26.3184C24.7577 26.7708 23.8804 27.0062 22.9883 26.9997H21.9995V20.9997C21.9995 20.4692 21.7888 19.9605 21.4137 19.5855C21.0387 19.2104 20.53 18.9997 19.9995 18.9997H11.9995C11.4691 18.9997 10.9604 19.2104 10.5853 19.5855C10.2102 19.9605 9.99952 20.4692 9.99952 20.9997V26.9997H9.01077C8.1195 26.9999 7.24436 26.762 6.47596 26.3104C5.70755 25.8588 5.07383 25.21 4.64039 24.4312C4.20696 23.6525 3.98957 22.772 4.01073 21.8809C4.0319 20.9899 4.29085 20.1208 4.76077 19.3634C4.76583 19.3554 4.77042 19.347 4.77452 19.3384L11.7558 7.35093C12.2052 6.6318 12.8302 6.0388 13.5719 5.6277C14.3136 5.2166 15.1477 5.00091 15.9958 5.00091C16.8438 5.00091 17.6779 5.2166 18.4196 5.6277C19.1613 6.0388 19.7863 6.6318 20.2358 7.35093L27.217 19.3384C27.2211 19.347 27.2257 19.3554 27.2308 19.3634C27.7077 20.1179 27.9712 20.9876 27.9932 21.8799C28.0152 22.7722 27.7949 23.6538 27.3558 24.4309Z" fill="#1C1C1E"/>
</svg>
