<svg width="32" height="32" viewBox="0 0 32 32" fill="none" xmlns="http://www.w3.org/2000/svg">
<path d="M28.0398 14.28C28.5072 13.1361 28.6633 11.8888 28.4925 10.665C28.3216 9.44117 27.8299 8.28437 27.0672 7.31214C26.3044 6.33992 25.2979 5.58692 24.15 5.12967C23.002 4.67241 21.7534 4.5272 20.5311 4.70878C19.7736 3.73305 18.7714 2.97514 17.6263 2.512C16.4812 2.04886 15.2339 1.89699 14.0111 2.0718C12.7883 2.24661 11.6335 2.74189 10.664 3.50734C9.69451 4.27279 8.94484 5.28115 8.4911 6.43003C7.26677 6.59762 6.10862 7.08634 5.13435 7.84651C4.16008 8.60669 3.40441 9.61123 2.94413 10.7581C2.48385 11.9049 2.33536 13.1531 2.51376 14.3759C2.69216 15.5987 3.19109 16.7525 3.95985 17.72C3.5847 18.6394 3.40943 19.628 3.44568 20.6202C3.48192 21.6125 3.72884 22.5857 4.17005 23.4752C4.61126 24.3647 5.23666 25.1502 6.00472 25.7795C6.77278 26.4087 7.66592 26.8674 8.62485 27.125C9.21922 27.2877 9.83237 27.3718 10.4486 27.375C10.7904 27.3747 11.1318 27.3492 11.4698 27.2988C12.2275 28.2742 13.2297 29.0317 14.3747 29.4946C15.5198 29.9574 16.7669 30.1091 17.9895 29.9342C19.2121 29.7592 20.3667 29.2639 21.336 28.4986C22.3053 27.7332 23.0549 26.725 23.5086 25.5763C24.7329 25.4087 25.8911 24.92 26.8653 24.1598C27.8396 23.3996 28.5953 22.3951 29.0556 21.2483C29.5158 20.1014 29.6643 18.8532 29.4859 17.6304C29.3075 16.4076 28.8086 15.2538 28.0398 14.2863V14.28ZM17.9998 17.155L15.9998 18.31L13.9998 17.155V14.845L15.9998 13.69L17.9998 14.845V17.155ZM22.8561 6.80378C24.1162 7.14064 25.1948 7.95657 25.8617 9.0775C26.5287 10.1984 26.7312 11.5356 26.4261 12.8038C26.3073 12.725 26.1873 12.6488 26.0623 12.5775L20.4998 9.36003C20.3478 9.27226 20.1754 9.22606 19.9998 9.22606C19.8243 9.22606 19.6519 9.27226 19.4998 9.36003L13.9998 12.5363V10.2263L19.0623 7.30378C19.6303 6.9739 20.258 6.75985 20.9092 6.67403C21.5603 6.58821 22.2221 6.63231 22.8561 6.80378ZM5.1061 10.8663C5.74352 9.75487 6.78563 8.93265 8.01485 8.57128C8.0061 8.71378 7.99985 8.85628 7.99985 9.00003V15.4225C7.99981 15.5981 8.04599 15.7706 8.13376 15.9227C8.22154 16.0747 8.34779 16.201 8.49985 16.2888L13.9998 19.4638L11.9998 20.625L6.93735 17.6963C5.78898 17.0332 4.95104 15.9411 4.60785 14.6603C4.26466 13.3794 4.44433 12.0147 5.10735 10.8663H5.1061ZM16.9998 28C15.7198 28.0035 14.4877 27.5132 13.5598 26.6313C13.6848 26.5675 13.8098 26.5 13.9348 26.4275L19.4998 23.2163C19.6517 23.1286 19.7779 23.0025 19.8656 22.8507C19.9534 22.6989 19.9997 22.5266 19.9998 22.3513V16L21.9998 17.155V23C21.9998 24.3261 21.4731 25.5979 20.5354 26.5356C19.5977 27.4732 18.3259 28 16.9998 28Z" fill="#1C1C1E"/>
</svg>
