<svg width="32" height="32" viewBox="0 0 32 32" fill="none" xmlns="http://www.w3.org/2000/svg">
<path d="M20.7333 9.0725C22.02 8.39257 23.097 7.37487 23.8487 6.12876C24.6004 4.88266 24.9982 3.45526 24.9996 2C24.9996 1.73478 24.8942 1.48043 24.7067 1.29289C24.5191 1.10536 24.2648 1 23.9996 1H22.9996C21.57 1.00054 20.1666 1.38415 18.9356 2.11092C17.7045 2.83769 16.6907 3.88107 15.9996 5.1325C15.3084 3.88107 14.2946 2.83769 13.0635 2.11092C11.8325 1.38415 10.4291 1.00054 8.99955 1H7.99955C7.73434 1 7.47998 1.10536 7.29245 1.29289C7.10491 1.48043 6.99955 1.73478 6.99955 2C6.99955 2.26522 7.10491 2.51957 7.29245 2.70711C7.47998 2.89464 7.73434 3 7.99955 3H8.99955C10.4261 3.00196 11.8055 3.51129 12.891 4.43693C13.9764 5.36257 14.6973 6.64415 14.9246 8.0525C12.2776 8.31158 9.81414 9.5209 7.99023 11.4566C6.16632 13.3923 5.10548 15.9232 5.00409 18.5809C4.90271 21.2385 5.76765 23.843 7.4388 25.912C9.10994 27.981 11.4741 29.3744 14.0936 29.8344C16.7132 30.2944 19.4106 29.7897 21.6867 28.4138C23.9628 27.038 25.6632 24.884 26.4734 22.3508C27.2835 19.8176 27.1484 17.0766 26.0931 14.6354C25.0377 12.1941 23.1336 10.2179 20.7333 9.0725ZM22.9158 3C22.6799 4.38309 21.9677 5.64011 20.9025 6.55328C19.8373 7.46645 18.4862 7.97825 17.0833 8C17.3192 6.61691 18.0314 5.35989 19.0966 4.44672C20.1618 3.53355 21.5129 3.02175 22.9158 3ZM22.9858 20.165C22.7286 21.6147 22.0323 22.9505 20.9912 23.9916C19.95 25.0327 18.6143 25.729 17.1646 25.9862C17.11 25.9951 17.0548 25.9997 16.9996 26C16.7488 25.9996 16.5074 25.9051 16.3231 25.7351C16.1388 25.5651 16.025 25.3321 16.0044 25.0822C15.9838 24.8323 16.0579 24.5838 16.2118 24.3859C16.3658 24.188 16.5885 24.0552 16.8358 24.0138C17.8764 23.8289 18.8351 23.329 19.5824 22.5816C20.3298 21.8343 20.8297 20.8756 21.0146 19.835C21.0605 19.5754 21.207 19.3445 21.4223 19.1924C21.6376 19.0403 21.9043 18.9794 22.1643 19.0229C22.4243 19.0663 22.6566 19.2107 22.8107 19.4246C22.9647 19.6385 23.0281 19.9046 22.9871 20.165H22.9858Z" fill="#1C1C1E"/>
</svg>
