<svg width="32" height="32" viewBox="0 0 32 32" fill="none" xmlns="http://www.w3.org/2000/svg">
<path d="M28.8296 3.17C28.4582 2.79847 28.0172 2.50375 27.5318 2.30268C27.0464 2.1016 26.5262 1.99811 26.0009 1.99811C25.4755 1.99811 24.9553 2.1016 24.4699 2.30268C23.9846 2.50375 23.5436 2.79847 23.1721 3.17C23.1546 3.1875 23.1371 3.20625 23.1196 3.22625L16.4434 11.0275L15.1246 9.705C14.846 9.42626 14.5152 9.20514 14.1512 9.05428C13.7871 8.90342 13.3968 8.82577 13.0027 8.82577C12.6086 8.82577 12.2184 8.90342 11.8543 9.05428C11.4902 9.20514 11.1595 9.42626 10.8809 9.705L1.29461 19.2925C1.10722 19.48 1.00195 19.7343 1.00195 19.9994C1.00195 20.2645 1.10722 20.5187 1.29461 20.7063L11.2946 30.7063C11.4821 30.8936 11.7364 30.9989 12.0015 30.9989C12.2666 30.9989 12.5208 30.8936 12.7084 30.7063L22.2946 21.125C22.5734 20.8464 22.7945 20.5156 22.9453 20.1515C23.0962 19.7875 23.1738 19.3972 23.1738 19.0031C23.1738 18.609 23.0962 18.2188 22.9453 17.8547C22.7945 17.4906 22.5734 17.1599 22.2946 16.8813L20.9721 15.56L28.7734 8.875C28.7921 8.8575 28.8121 8.84 28.8296 8.82125C29.578 8.07134 29.9984 7.05512 29.9984 5.99563C29.9984 4.93614 29.578 3.91992 28.8296 3.17ZM11.9996 28.5863L9.91461 26.5L12.7071 23.7063C12.8867 23.5172 12.9854 23.2654 12.9821 23.0047C12.9787 22.7439 12.8736 22.4948 12.6892 22.3104C12.5048 22.126 12.2557 22.0209 11.9949 22.0176C11.7342 22.0142 11.4824 22.1129 11.2934 22.2925L8.49961 25.085L6.91461 23.5L9.70712 20.7063C9.88673 20.5172 9.98539 20.2654 9.98205 20.0047C9.97872 19.7439 9.87364 19.4948 9.68924 19.3104C9.50484 19.126 9.2557 19.0209 8.99494 19.0176C8.73418 19.0142 8.48243 19.1129 8.29336 19.2925L5.49961 22.085L3.41336 20L9.70712 13.7075L18.2934 22.2938L11.9996 28.5863Z" fill="#1C1C1E"/>
</svg>
