<svg width="32" height="32" viewBox="0 0 32 32" fill="none" xmlns="http://www.w3.org/2000/svg">
<path d="M30.2188 6.41499C29.9764 6.22734 29.6938 6.09842 29.3932 6.03835C29.0926 5.97827 28.7821 5.98868 28.4862 6.06874L28.0513 6.18624C25.7013 6.81999 21.3263 7.99999 16 7.99999C10.6737 7.99999 6.29875 6.81999 3.94875 6.18624L3.51375 6.06874C3.21773 5.99006 2.90759 5.98042 2.60726 6.04057C2.30693 6.10072 2.02442 6.22904 1.78153 6.41565C1.53864 6.60226 1.34186 6.84216 1.20635 7.11685C1.07085 7.39155 1.00025 7.6937 1 7.99999V24C1 24.5304 1.21071 25.0391 1.58579 25.4142C1.96086 25.7893 2.46957 26 3 26C3.17642 25.9999 3.35207 25.9768 3.5225 25.9312L3.92 25.8237C6.26625 25.1862 10.6462 24 16 24C21.3538 24 25.7337 25.1862 28.0863 25.8237L28.4837 25.9312C28.7799 26.0104 29.0903 26.0204 29.391 25.9604C29.6917 25.9005 29.9745 25.7722 30.2177 25.5856C30.4609 25.3989 30.6579 25.1589 30.7936 24.8839C30.9292 24.609 30.9999 24.3066 31 24V7.99999C31.0008 7.69344 30.9307 7.39086 30.7952 7.11589C30.6597 6.84093 30.4624 6.60104 30.2188 6.41499ZM25.5 12C25.7967 12 26.0867 12.088 26.3334 12.2528C26.58 12.4176 26.7723 12.6519 26.8858 12.926C26.9993 13.2001 27.0291 13.5017 26.9712 13.7926C26.9133 14.0836 26.7704 14.3509 26.5607 14.5607C26.3509 14.7704 26.0836 14.9133 25.7926 14.9712C25.5017 15.029 25.2001 14.9993 24.926 14.8858C24.6519 14.7723 24.4176 14.58 24.2528 14.3333C24.088 14.0867 24 13.7967 24 13.5C24 13.1022 24.158 12.7206 24.4393 12.4393C24.7206 12.158 25.1022 12 25.5 12ZM16 22C10.375 22 5.66 23.2787 3.39125 23.8925L3 24V19.0875L8.7925 13.2937C8.88537 13.2008 8.99566 13.127 9.11706 13.0767C9.23846 13.0264 9.36858 13.0005 9.5 13.0005C9.63142 13.0005 9.76154 13.0264 9.88294 13.0767C10.0043 13.127 10.1146 13.2008 10.2075 13.2937L19.035 22.125C18.0613 22.0437 17.0462 22 16 22ZM28.6087 23.8925C26.5127 23.3025 24.3841 22.835 22.2337 22.4925L17.8263 18.085L19.625 16.2925C19.8125 16.1051 20.0668 15.9998 20.3319 15.9998C20.597 15.9998 20.8512 16.1051 21.0387 16.2925L28.65 23.9025L28.6087 23.8925Z" fill="#1C1C1E"/>
</svg>
