<svg width="32" height="32" viewBox="0 0 32 32" fill="none" xmlns="http://www.w3.org/2000/svg">
<path d="M6.68032 5.4375L6.76532 4.75C6.82623 4.26657 7.06152 3.822 7.42702 3.49977C7.79251 3.17755 8.26307 2.99983 8.75032 3H23.2503C23.7376 2.99983 24.2081 3.17755 24.5736 3.49977C24.9391 3.822 25.1744 4.26657 25.2353 4.75L25.3203 5.43625C25.3292 5.50696 25.3229 5.57876 25.3018 5.64683C25.2807 5.71491 25.2453 5.77768 25.198 5.83095C25.1506 5.88422 25.0924 5.92674 25.0273 5.95569C24.9622 5.98463 24.8916 5.99931 24.8203 5.99875H7.17657C7.10574 5.99875 7.03572 5.9837 6.97114 5.9546C6.90656 5.9255 6.8489 5.88301 6.80198 5.82995C6.75506 5.77688 6.71995 5.71445 6.69898 5.6468C6.678 5.57914 6.67165 5.5078 6.68032 5.4375ZM21.1253 8C21.3483 8.85832 21.8496 9.61845 22.5508 10.1613C23.252 10.7042 24.1135 10.9992 25.0003 11H25.4491C25.5203 11.0006 25.5909 10.9859 25.656 10.9569C25.7212 10.928 25.7794 10.8855 25.8267 10.8322C25.8741 10.7789 25.9095 10.7162 25.9306 10.6481C25.9517 10.58 25.958 10.5082 25.9491 10.4375L25.6991 8.4375C25.6838 8.316 25.6244 8.20434 25.5322 8.1237C25.4401 8.04305 25.3215 7.99904 25.1991 8H21.1253ZM6.55157 11H7.00032C7.88712 10.9992 8.7486 10.7042 9.44982 10.1613C10.151 9.61845 10.6524 8.85832 10.8753 8H6.80157C6.67912 7.99904 6.56056 8.04305 6.4684 8.1237C6.37624 8.20434 6.31688 8.316 6.30157 8.4375L6.05157 10.4375C6.04266 10.5082 6.04897 10.58 6.07008 10.6481C6.09118 10.7162 6.1266 10.7789 6.17394 10.8322C6.22129 10.8855 6.27948 10.928 6.34461 10.9569C6.40974 10.9859 6.48031 11.0006 6.55157 11ZM27.9853 26.75L26.3203 13.4375C26.305 13.316 26.2457 13.2043 26.1535 13.1237C26.0613 13.0431 25.9428 12.999 25.8203 13H25.0003C23.5831 12.998 22.2121 12.4951 21.1297 11.5802C20.0474 10.6652 19.3233 9.39715 19.0853 8H17.0003V12.9663C17.0035 13.2242 16.909 13.4739 16.7359 13.6651C16.5627 13.8564 16.3236 13.9751 16.0666 13.9975C15.9298 14.0066 15.7926 13.9874 15.6635 13.9413C15.5344 13.8951 15.4162 13.8229 15.3162 13.7291C15.2162 13.6353 15.1366 13.522 15.0823 13.3961C15.0279 13.2703 15 13.1346 15.0003 12.9975V8H12.9153C12.6774 9.39715 11.9533 10.6652 10.8709 11.5802C9.78853 12.4951 8.41759 12.998 7.00032 13H6.17657C6.05412 12.999 5.93556 13.0431 5.8434 13.1237C5.75124 13.2043 5.69188 13.316 5.67657 13.4375L4.01532 26.75C3.97038 27.111 4.02474 27.4773 4.17253 27.8097C4.32032 28.1421 4.55596 28.4278 4.85407 28.6362C5.20545 28.8777 5.62279 29.0047 6.04907 29H11.0866C11.5313 29.0001 11.9635 28.8519 12.3146 28.5789C12.6657 28.3059 12.9158 27.9236 13.0253 27.4925L16.0003 15.9925L18.9741 27.485C19.0822 27.9177 19.3319 28.3018 19.6834 28.5763C20.0349 28.8508 20.4681 28.9999 20.9141 29H25.9516C26.3776 29.0056 26.795 28.8794 27.1466 28.6388C27.4451 28.4301 27.681 28.144 27.8288 27.8111C27.9766 27.4783 28.0307 27.1114 27.9853 26.75Z" fill="#1C1C1E"/>
</svg>
