<svg width="32" height="32" viewBox="0 0 32 32" fill="none" xmlns="http://www.w3.org/2000/svg">
<path d="M27.5147 11.6925C26.8435 10.8299 25.979 10.1371 24.9909 9.67C24.9061 7.87278 24.1325 6.17724 22.8307 4.93526C21.5289 3.69328 19.7989 3.00025 17.9997 3H10.4997C10.0537 3.00007 9.62053 3.1492 9.26903 3.4237C8.91752 3.69821 8.66785 4.08232 8.5597 4.515L4.0597 22.515C3.986 22.8098 3.98046 23.1176 4.0435 23.4149C4.10654 23.7122 4.23651 23.9912 4.42352 24.2307C4.61053 24.4703 4.84967 24.6641 5.12279 24.7974C5.3959 24.9307 5.69579 25 5.9997 25H9.4372L9.0622 26.515C8.98855 26.8096 8.98297 27.1172 9.04587 27.4143C9.10878 27.7114 9.23852 27.9902 9.42525 28.2297C9.61198 28.4692 9.8508 28.6631 10.1236 28.7965C10.3964 28.93 10.696 28.9996 10.9997 29H14.9372C15.3828 28.9994 15.8154 28.85 16.1664 28.5755C16.5174 28.3011 16.7666 27.9173 16.8747 27.485L17.9997 23H21.9997C23.3112 23 24.5962 22.6315 25.7085 21.9366C26.8207 21.2417 27.7154 20.2483 28.2905 19.0697C28.8656 17.8911 29.098 16.5746 28.9613 15.2703C28.8246 13.9659 28.3242 12.7263 27.5172 11.6925H27.5147ZM5.9997 23L10.4997 5H17.9997C19.1631 4.99967 20.2903 5.40508 21.187 6.14638C22.0837 6.88769 22.6938 7.9185 22.9122 9.06125C22.6097 9.02131 22.3049 9.00085 21.9997 9H14.9997C14.5535 8.99979 14.12 9.1488 13.7683 9.42332C13.4165 9.69784 13.1667 10.0821 13.0584 10.515L9.9397 23H5.9997ZM26.8459 17.2125C26.5769 18.2942 25.9536 19.2548 25.0753 19.9412C24.1971 20.6276 23.1144 21.0003 21.9997 21H17.9997C17.5537 21.0001 17.1205 21.1492 16.769 21.4237C16.4175 21.6982 16.1678 22.0823 16.0597 22.515L14.9347 27H10.9997L13.4997 17H17.9997C19.5373 17.0004 21.0321 16.4937 22.2525 15.5583C23.4728 14.6229 24.3506 13.3111 24.7497 11.8263C25.2012 12.1254 25.6014 12.4956 25.9347 12.9225C26.4051 13.52 26.732 14.2175 26.8902 14.9613C27.0484 15.7051 27.0337 16.4753 26.8472 17.2125H26.8459Z" fill="#1C1C1E"/>
</svg>
