<svg width="32" height="32" viewBox="0 0 32 32" fill="none" xmlns="http://www.w3.org/2000/svg">
<path d="M27.7908 15.4862C27.7833 15.47 27.7758 15.4538 27.7671 15.4388L23.9996 8.73875V4C23.9996 3.46957 23.7889 2.96086 23.4138 2.58579C23.0387 2.21071 22.53 2 21.9996 2H9.99957C9.46913 2 8.96043 2.21071 8.58535 2.58579C8.21028 2.96086 7.99957 3.46957 7.99957 4V8.7375L4.23207 15.4388C4.22332 15.4538 4.21582 15.47 4.20707 15.4862C4.04384 15.8148 3.97451 16.1821 4.00671 16.5476C4.03892 16.913 4.1714 17.2625 4.38957 17.5575L4.40332 17.575L14.1046 30.1763C14.1682 30.2583 14.2558 30.3184 14.3551 30.3484C14.4545 30.3784 14.5607 30.3767 14.6591 30.3436C14.7575 30.3105 14.8431 30.2476 14.9041 30.1636C14.9651 30.0797 14.9985 29.9788 14.9996 29.875V19.3288C14.3324 19.0929 13.77 18.6287 13.4119 18.0183C13.0539 17.4079 12.9231 16.6905 13.0428 15.993C13.1624 15.2955 13.5248 14.6628 14.0659 14.2066C14.607 13.7505 15.2919 13.5003 15.9996 13.5003C16.7073 13.5003 17.3922 13.7505 17.9332 14.2066C18.4743 14.6628 18.8367 15.2955 18.9564 15.993C19.076 16.6905 18.9453 17.4079 18.5872 18.0183C18.2291 18.6287 17.6668 19.0929 16.9996 19.3288V29.875C16.9999 29.9791 17.0327 30.0805 17.0934 30.1651C17.1541 30.2496 17.2397 30.3131 17.3383 30.3467C17.4368 30.3803 17.5434 30.3823 17.6431 30.3524C17.7428 30.3225 17.8307 30.2622 17.8946 30.18L27.5946 17.5788L27.6083 17.5613C27.8275 17.266 27.9605 16.9158 27.9927 16.5495C28.025 16.1833 27.9551 15.8152 27.7908 15.4862ZM21.9996 8H9.99957V4H21.9996V8Z" fill="#1C1C1E"/>
</svg>
