<svg width="32" height="32" viewBox="0 0 32 32" fill="none" xmlns="http://www.w3.org/2000/svg">
<path d="M7.52298 16.1901C7.49857 16.265 7.45678 16.3331 7.40104 16.3888C7.34529 16.4445 7.27716 16.4863 7.20221 16.5107C7.12726 16.535 7.04761 16.5414 6.96976 16.5291C6.89191 16.5168 6.81806 16.4863 6.75423 16.4401L2.83298 13.6251C2.48487 13.379 2.22584 13.0268 2.09469 12.6212C1.96354 12.2156 1.96733 11.7784 2.10548 11.3751C2.24516 10.9705 2.50846 10.6201 2.85816 10.3734C3.20786 10.1266 3.62627 9.99604 4.05423 10.0001H8.84298C8.92201 9.99994 8.99994 10.0185 9.07039 10.0543C9.14084 10.0901 9.2018 10.1421 9.24827 10.206C9.29474 10.27 9.3254 10.344 9.33774 10.422C9.35007 10.5001 9.34373 10.58 9.31923 10.6551L7.52298 16.1901ZM6.64798 25.3751C6.51279 25.7763 6.51056 26.2104 6.64161 26.6131C6.77266 27.0157 7.03001 27.3653 7.37548 27.6101C7.71471 27.862 8.12605 27.9981 8.54861 27.9981C8.97117 27.9981 9.3825 27.862 9.72173 27.6101L13.728 24.7276C13.7925 24.6813 13.8451 24.6203 13.8813 24.5497C13.9176 24.479 13.9365 24.4007 13.9365 24.3213C13.9365 24.2419 13.9176 24.1637 13.8813 24.093C13.8451 24.0224 13.7925 23.9614 13.728 23.9151L8.92298 20.4651C8.85918 20.4191 8.78544 20.3888 8.70773 20.3767C8.63003 20.3646 8.55056 20.3709 8.47579 20.3953C8.40101 20.4197 8.33303 20.4613 8.27738 20.5169C8.22173 20.5724 8.17996 20.6403 8.15548 20.7151L6.64798 25.3751ZM17.9042 2.40758C17.7796 2.00042 17.5278 1.64392 17.1857 1.39041C16.8436 1.1369 16.4292 0.999725 16.0034 0.999026C15.5776 0.998327 15.1628 1.13414 14.8199 1.38652C14.4769 1.63891 14.2239 1.99458 14.098 2.40133L12.5005 7.34508C12.4761 7.41971 12.4697 7.49902 12.4817 7.5766C12.4937 7.65417 12.5238 7.72783 12.5696 7.79161C12.6154 7.85539 12.6755 7.90749 12.7452 7.94371C12.8148 7.97993 12.892 7.99924 12.9705 8.00008H19.0305C19.1094 8.00016 19.1871 7.98157 19.2575 7.94584C19.3278 7.91011 19.3887 7.85824 19.4351 7.79449C19.4815 7.73073 19.5122 7.6569 19.5247 7.57901C19.5371 7.50112 19.531 7.42139 19.5067 7.34633L17.9042 2.40758ZM20.0005 10.0001H12.0005C11.8949 10.0002 11.7921 10.0338 11.7067 10.096C11.6214 10.1582 11.558 10.2459 11.5255 10.3463L9.12548 17.7213C9.09284 17.8221 9.09305 17.9306 9.12608 18.0313C9.1591 18.1319 9.22324 18.2195 9.30923 18.2813L15.7055 22.8838C15.7906 22.9453 15.893 22.9783 15.998 22.9783C16.103 22.9783 16.2053 22.9453 16.2905 22.8838L22.6867 18.2813C22.7727 18.2195 22.8369 18.1319 22.8699 18.0313C22.9029 17.9306 22.9031 17.8221 22.8705 17.7213L20.4767 10.3463C20.4442 10.2457 20.3806 10.1579 20.295 10.0957C20.2094 10.0334 20.1063 9.99998 20.0005 10.0001ZM29.8917 11.3751C29.7521 10.9705 29.4888 10.6201 29.1391 10.3734C28.7894 10.1266 28.371 9.99604 27.943 10.0001H23.158C23.079 9.99994 23.001 10.0185 22.9306 10.0543C22.8601 10.0901 22.7992 10.1421 22.7527 10.206C22.7062 10.27 22.6756 10.344 22.6632 10.422C22.6509 10.5001 22.6572 10.58 22.6817 10.6551L24.478 16.1913C24.5025 16.2661 24.5442 16.334 24.5999 16.3895C24.6555 16.4451 24.7235 16.4868 24.7983 16.5111C24.8731 16.5355 24.9525 16.5418 25.0302 16.5297C25.1079 16.5176 25.1817 16.4873 25.2455 16.4413L29.1717 13.6163C29.5178 13.3707 29.7753 13.0198 29.9057 12.6159C30.0361 12.212 30.0325 11.7768 29.8955 11.3751H29.8917ZM23.073 20.4688L18.273 23.9226C18.2085 23.9689 18.1559 24.0299 18.1196 24.1005C18.0834 24.1712 18.0645 24.2494 18.0645 24.3288C18.0645 24.4082 18.0834 24.4865 18.1196 24.5572C18.1559 24.6278 18.2085 24.6888 18.273 24.7351L22.273 27.6101C22.6145 27.8606 23.0267 27.9963 23.4503 27.9975C23.8738 27.9987 24.2868 27.8655 24.6297 27.6169C24.9727 27.3684 25.2279 27.0174 25.3585 26.6145C25.4892 26.2116 25.4886 25.7776 25.3567 25.3751L23.8455 20.7163C23.8212 20.6413 23.7795 20.5731 23.7238 20.5172C23.6682 20.4614 23.6001 20.4195 23.5251 20.395C23.4501 20.3705 23.3704 20.364 23.2925 20.3762C23.2146 20.3884 23.1406 20.4189 23.0767 20.4651L23.073 20.4688Z" fill="#1C1C1E"/>
</svg>
