<svg width="32" height="32" viewBox="0 0 32 32" fill="none" xmlns="http://www.w3.org/2000/svg">
<path d="M28.9072 13.1486L24.9072 26.5911L24.8997 26.6124C24.7713 27.0154 24.5179 27.3671 24.1763 27.6165C23.8348 27.866 23.4227 28.0002 22.9997 27.9999H8.9997C8.57673 28.0002 8.16463 27.866 7.82305 27.6165C7.48147 27.3671 7.22813 27.0154 7.0997 26.6124L7.0922 26.5911L3.0922 13.1486C2.96765 12.7528 2.96933 12.328 3.09699 11.9331C3.22465 11.5383 3.47198 11.1929 3.8047 10.9449L14.7947 2.40615L14.8172 2.38865C15.1596 2.13589 15.5741 1.99951 15.9997 1.99951C16.4253 1.99951 16.8397 2.13589 17.1822 2.38865L17.2047 2.40615L28.1947 10.9449C28.5274 11.1929 28.7747 11.5383 28.9024 11.9331C29.0301 12.328 29.0317 12.7528 28.9072 13.1486Z" fill="#1C1C1E"/>
</svg>
