<svg width="32" height="32" viewBox="0 0 32 32" fill="none" xmlns="http://www.w3.org/2000/svg">
<path d="M20.9085 5.0525C20.687 3.91264 20.0763 2.88517 19.1809 2.14592C18.2854 1.40667 17.1609 1.00159 15.9997 1C15.7345 1 15.4802 1.10536 15.2926 1.29289C15.1051 1.48043 14.9997 1.73478 14.9997 2C14.9997 2.26522 15.1051 2.51957 15.2926 2.70711C15.4802 2.89464 15.7345 3 15.9997 3C16.635 3 17.2538 3.20165 17.7671 3.5759C18.2804 3.95016 18.6617 4.47769 18.856 5.0825C16.9531 5.35948 15.2134 6.31177 13.9545 7.76542C12.6957 9.21907 12.0019 11.0771 11.9997 13C11.9997 18.8438 8.78098 22.75 2.43348 24.625C1.9993 24.7516 1.62083 25.0215 1.35983 25.3909C1.09883 25.7602 0.970718 26.2071 0.996391 26.6586C1.02206 27.1101 1.20001 27.5396 1.50119 27.877C1.80237 28.2144 2.209 28.4397 2.65473 28.5163C4.53351 28.841 6.43684 29.0029 8.34348 29C13.441 29 19.1135 27.8562 23.0347 24.5675C26.3297 21.805 27.9997 17.9125 27.9997 13C27.9976 11.0363 27.2742 9.14179 25.9668 7.67655C24.6594 6.21131 22.8593 5.27747 20.9085 5.0525ZM23.9997 11.875L20.4472 10.1038C20.3083 10.0342 20.1551 9.99803 19.9997 9.99803C19.8444 9.99803 19.6912 10.0342 19.5522 10.1038L15.9997 11.875L14.3285 11.04C14.736 9.86018 15.5013 8.83682 16.5178 8.11246C17.5344 7.3881 18.7515 6.99881 19.9997 6.99881C21.2479 6.99881 22.4651 7.3881 23.4816 8.11246C24.4982 8.83682 25.2635 9.86018 25.671 11.04L23.9997 11.875Z" fill="#1C1C1E"/>
</svg>
