<svg width="32" height="32" viewBox="0 0 32 32" fill="none" xmlns="http://www.w3.org/2000/svg">
<path d="M11.9865 6C11.9865 5.20888 12.2211 4.43552 12.6606 3.77772C13.1002 3.11992 13.7249 2.60723 14.4558 2.30448C15.1867 2.00173 15.991 1.92252 16.7669 2.07686C17.5428 2.2312 18.2555 2.61216 18.8149 3.17157C19.3744 3.73098 19.7553 4.44372 19.9097 5.21964C20.064 5.99556 19.9848 6.79983 19.682 7.53074C19.3793 8.26164 18.8666 8.88635 18.2088 9.32588C17.551 9.76541 16.7776 10 15.9865 10C14.9257 10 13.9082 9.57857 13.1581 8.82843C12.4079 8.07828 11.9865 7.06087 11.9865 6ZM28.5153 15.1425C28.3003 15.0138 23.194 12 16.0003 12C8.80652 12 3.70027 15.0138 3.48527 15.1425C3.25785 15.2791 3.094 15.5004 3.02976 15.7578C2.96553 16.0152 3.00618 16.2876 3.14277 16.515C3.27936 16.7424 3.50069 16.9063 3.75808 16.9705C4.01548 17.0347 4.28785 16.9941 4.51527 16.8575C4.56027 16.83 8.87902 14.2825 15.0003 14.0225V18.625L7.25027 27.3363C7.1631 27.4347 7.09619 27.5494 7.05335 27.6738C7.01051 27.7981 6.99259 27.9297 7.0006 28.061C7.00861 28.1923 7.04239 28.3207 7.10003 28.4389C7.15767 28.5571 7.23803 28.6628 7.33652 28.75C7.43501 28.8372 7.54971 28.9041 7.67406 28.9469C7.79841 28.9898 7.92998 29.0077 8.06126 28.9997C8.19254 28.9917 8.32095 28.9579 8.43917 28.9002C8.55739 28.8426 8.6631 28.7622 8.75027 28.6638L16.0003 20.5L23.2503 28.6588C23.4263 28.8577 23.6742 28.9785 23.9393 28.9947C24.2044 29.0108 24.4651 28.921 24.664 28.745C24.8629 28.569 24.9838 28.3211 24.9999 28.056C25.0161 27.7909 24.9263 27.5302 24.7503 27.3313L17.0003 18.625V14.0238C23.0965 14.2838 27.4415 16.8313 27.4853 16.8575C27.5979 16.9251 27.7227 16.9699 27.8526 16.9893C27.9825 17.0087 28.115 17.0023 28.2425 16.9705C28.3699 16.9387 28.4898 16.8821 28.5954 16.804C28.701 16.7258 28.7901 16.6276 28.8578 16.515C28.9254 16.4024 28.9702 16.2776 28.9896 16.1476C29.009 16.0177 29.0026 15.8853 28.9708 15.7578C28.939 15.6304 28.8824 15.5104 28.8042 15.4049C28.7261 15.2993 28.6279 15.2101 28.5153 15.1425Z" fill="#1C1C1E"/>
</svg>
