<svg width="32" height="32" viewBox="0 0 32 32" fill="none" xmlns="http://www.w3.org/2000/svg">
<path d="M18.0003 7.5C18.0003 6.80777 18.2055 6.13108 18.5901 5.55551C18.9747 4.97993 19.5213 4.53133 20.1609 4.26642C20.8004 4.00152 21.5042 3.9322 22.1831 4.06725C22.862 4.2023 23.4857 4.53564 23.9751 5.02513C24.4646 5.51461 24.798 6.13825 24.933 6.81719C25.0681 7.49612 24.9988 8.19985 24.7339 8.83939C24.4689 9.47893 24.0203 10.0256 23.4448 10.4101C22.8692 10.7947 22.1925 11 21.5003 11C20.572 11 19.6818 10.6313 19.0254 9.97487C18.369 9.3185 18.0003 8.42826 18.0003 7.5ZM4.72028 10.96L18.5953 15.005L19.2965 15.7063C19.4831 15.8933 19.7361 15.9989 20.0003 16H25.0003C25.2655 16 25.5198 15.8946 25.7074 15.7071C25.8949 15.5196 26.0003 15.2652 26.0003 15C26.0003 14.7348 25.8949 14.4804 25.7074 14.2929C25.5198 14.1054 25.2655 14 25.0003 14H20.414L19.824 13.41L16.7115 10.2975C16.6187 10.2045 16.5084 10.1308 16.387 10.0804C16.2656 10.0301 16.1354 10.0042 16.004 10.0042C15.8726 10.0042 15.7425 10.0301 15.6211 10.0804C15.4997 10.1308 15.3894 10.2045 15.2965 10.2975L14.0003 11.5838L5.28028 9.04C5.02567 8.96574 4.75199 8.99566 4.51944 9.12319C4.2869 9.25071 4.11454 9.46539 4.04028 9.72C3.96601 9.97461 3.99594 10.2483 4.12346 10.4808C4.25099 10.7134 4.46567 10.8857 4.72028 10.96ZM29.8328 24.1438C29.7599 24.0344 29.6663 23.9404 29.5571 23.8673C29.4479 23.7941 29.3254 23.7432 29.1965 23.7174C29.0677 23.6916 28.935 23.6915 28.8061 23.7171C28.6772 23.7426 28.5546 23.7933 28.4453 23.8663C27.6278 24.4126 26.7004 24.773 25.7285 24.9221C24.7566 25.0711 23.7639 25.0051 22.8203 24.7288L14.9715 22.4438L18.709 18.7063C18.8322 18.5831 18.9211 18.4299 18.9668 18.2619C19.0126 18.0939 19.0137 17.9168 18.97 17.7482C18.9263 17.5796 18.8393 17.4253 18.7177 17.3007C18.5961 17.176 18.444 17.0853 18.2765 17.0375L11.2765 15.0375C11.1502 15.0014 11.018 14.9905 10.8875 15.0055C10.757 15.0205 10.6307 15.061 10.5158 15.1248C10.2839 15.2536 10.1126 15.4693 10.0397 15.7244C10.0035 15.8507 9.99266 15.9829 10.0076 16.1134C10.0226 16.2439 10.0631 16.3702 10.1269 16.4851C10.2557 16.717 10.4714 16.8883 10.7265 16.9613L16.0915 18.5L12.779 21.8113L3.27903 19.045C3.15296 19.0082 3.02088 18.9967 2.89034 19.0109C2.75979 19.0252 2.63334 19.065 2.51819 19.1282C2.28565 19.2557 2.11329 19.4704 2.03903 19.725C1.96476 19.9796 1.99469 20.2533 2.12221 20.4858C2.24974 20.7184 2.46442 20.8907 2.71903 20.965L22.2578 26.655C23.4818 27.0133 24.7695 27.0988 26.0301 26.9055C27.2907 26.7122 28.4936 26.2448 29.554 25.5363C29.6642 25.4635 29.7589 25.3696 29.8326 25.2601C29.9063 25.1506 29.9576 25.0275 29.9835 24.8981C30.0094 24.7686 30.0094 24.6353 29.9836 24.5058C29.9577 24.3764 29.9065 24.2533 29.8328 24.1438Z" fill="#1C1C1E"/>
</svg>
