<svg width="32" height="32" viewBox="0 0 32 32" fill="none" xmlns="http://www.w3.org/2000/svg">
<path d="M12.0003 7C12.0003 6.20888 12.2349 5.43552 12.6744 4.77772C13.114 4.11992 13.7387 3.60723 14.4696 3.30448C15.2005 3.00173 16.0047 2.92252 16.7807 3.07686C17.5566 3.2312 18.2693 3.61216 18.8287 4.17157C19.3881 4.73098 19.7691 5.44372 19.9235 6.21964C20.0778 6.99556 19.9986 7.79983 19.6958 8.53074C19.3931 9.26164 18.8804 9.88635 18.2226 10.3259C17.5648 10.7654 16.7914 11 16.0003 11C14.9394 11 13.922 10.5786 13.1719 9.82843C12.4217 9.07828 12.0003 8.06087 12.0003 7ZM27.6253 12.42C27.4378 12.27 22.9728 8.795 16.4366 13.2413C10.7503 17.105 7.44656 15.7788 7.41531 15.765C7.29551 15.7084 7.16565 15.6762 7.0333 15.6703C6.90094 15.6643 6.76871 15.6847 6.64431 15.7303C6.5199 15.7758 6.40579 15.8457 6.30861 15.9357C6.21142 16.0258 6.1331 16.1342 6.07819 16.2548C6.02329 16.3754 5.99289 16.5057 5.98877 16.6381C5.98464 16.7705 6.00688 16.9025 6.05418 17.0262C6.10148 17.15 6.1729 17.2631 6.26429 17.359C6.35569 17.455 6.46523 17.5318 6.58656 17.585C6.66281 17.62 7.52281 17.9938 9.04531 17.9938C10.8216 17.9938 13.5003 17.48 16.8916 15.3325C16.6066 19.0088 15.3003 25.7663 7.71281 28.0425C7.58431 28.0779 7.46418 28.1385 7.35947 28.221C7.25476 28.3034 7.16759 28.406 7.10307 28.5226C7.03856 28.6392 6.99801 28.7676 6.9838 28.9001C6.9696 29.0326 6.98202 29.1666 7.02035 29.2942C7.05868 29.4219 7.12213 29.5406 7.20698 29.6434C7.29184 29.7461 7.39638 29.8309 7.51446 29.8927C7.63254 29.9545 7.76178 29.992 7.89459 30.0032C8.0274 30.0143 8.16109 29.9988 8.28781 29.9575C12.6416 28.6513 15.7191 25.915 17.4378 21.8225C17.6822 21.2372 17.895 20.6393 18.0753 20.0313L20.8353 22.3313L19.0516 27.6838C18.9677 27.9354 18.9872 28.21 19.1058 28.4472C19.2244 28.6845 19.4324 28.8649 19.6841 28.9488C19.9357 29.0326 20.2103 29.0131 20.4476 28.8945C20.6848 28.7759 20.8652 28.5679 20.9491 28.3163L22.9491 22.3163C23.0128 22.1253 23.0174 21.9196 22.9623 21.7261C22.9072 21.5325 22.795 21.36 22.6403 21.2313L18.5878 17.8563C18.802 16.6025 18.9273 15.3352 18.9628 14.0638C23.4853 11.7425 26.3378 13.9575 26.3728 13.9825C26.4747 14.0695 26.593 14.1351 26.7207 14.1755C26.8484 14.2159 26.9829 14.2302 27.1163 14.2176C27.2497 14.205 27.3791 14.1657 27.497 14.1021C27.6149 14.0385 27.7188 13.9519 27.8026 13.8473C27.8863 13.7428 27.9482 13.6225 27.9846 13.4936C28.021 13.3647 28.0311 13.2298 28.0143 13.0969C27.9975 12.964 27.9543 12.8358 27.887 12.72C27.8197 12.6041 27.7299 12.503 27.6228 12.4225L27.6253 12.42ZM8.00031 14C8.39587 14 8.78255 13.8827 9.11145 13.6629C9.44035 13.4432 9.6967 13.1308 9.84807 12.7654C9.99945 12.3999 10.0391 11.9978 9.96188 11.6098C9.88471 11.2219 9.69423 10.8655 9.41452 10.5858C9.13482 10.3061 8.77845 10.1156 8.39049 10.0384C8.00253 9.96126 7.6004 10.0009 7.23494 10.1522C6.86949 10.3036 6.55713 10.56 6.33737 10.8889C6.11761 11.2178 6.00031 11.6044 6.00031 12C6.00031 12.5304 6.21102 13.0391 6.5861 13.4142C6.96117 13.7893 7.46988 14 8.00031 14Z" fill="#1C1C1E"/>
</svg>
