<svg width="32" height="32" viewBox="0 0 32 32" fill="none" xmlns="http://www.w3.org/2000/svg">
<path d="M29.5353 20.23C29.2709 20.5679 28.9048 20.8119 28.4911 20.9258C28.0774 21.0397 27.638 21.0175 27.2378 20.8625L21.1128 18.6887L21.0766 18.675C20.7703 18.5525 20.4991 18.356 20.2871 18.1033C20.0751 17.8505 19.9289 17.5492 19.8616 17.2262L19.0853 13.5075C17.0714 12.8213 14.8862 12.8261 12.8753 13.5212L12.1378 17.2112C12.0728 17.5378 11.9273 17.8429 11.7144 18.0989C11.5016 18.355 11.2282 18.5539 10.9191 18.6775L10.8828 18.6912L4.75785 20.8625C4.53049 20.9521 4.28847 20.9987 4.0441 21C3.73991 21.0005 3.4396 20.9317 3.16602 20.7987C2.89244 20.6657 2.65281 20.4721 2.46535 20.2325C0.311599 17.455 0.552849 13.7687 3.0516 11.2687C10.0703 4.2475 21.9266 4.2475 28.9491 11.2687C31.4478 13.7662 31.6891 17.4525 29.5353 20.23ZM27.0003 24H5.00035C4.73513 24 4.48078 24.1054 4.29324 24.2929C4.10571 24.4804 4.00035 24.7348 4.00035 25C4.00035 25.2652 4.10571 25.5196 4.29324 25.7071C4.48078 25.8946 4.73513 26 5.00035 26H27.0003C27.2656 26 27.5199 25.8946 27.7075 25.7071C27.895 25.5196 28.0003 25.2652 28.0003 25C28.0003 24.7348 27.895 24.4804 27.7075 24.2929C27.5199 24.1054 27.2656 24 27.0003 24Z" fill="#1C1C1E"/>
</svg>
