<svg width="32" height="32" viewBox="0 0 32 32" fill="none" xmlns="http://www.w3.org/2000/svg">
<path d="M29.5348 22.2312C29.2705 22.5694 28.9045 22.8136 28.4908 22.9277C28.077 23.0418 27.6376 23.0198 27.2373 22.865L24.1423 20.49C24.1182 20.4723 24.096 20.4522 24.076 20.43L13.6473 8.95246C13.5847 8.88405 13.5424 8.79957 13.525 8.70848C13.5077 8.61738 13.516 8.52326 13.5491 8.43662C13.5821 8.34999 13.6386 8.27426 13.7123 8.2179C13.7859 8.16153 13.8738 8.12676 13.966 8.11746C19.341 7.53996 24.9335 9.25746 28.9485 13.2725C31.4473 15.7712 31.6885 19.455 29.5348 22.2312ZM6.74105 4.32746C6.65323 4.22847 6.54663 4.14789 6.42745 4.0904C6.30826 4.03291 6.17884 3.99964 6.0467 3.99253C5.91456 3.98542 5.78233 4.00461 5.65766 4.04899C5.53299 4.09336 5.41837 4.16204 5.32043 4.25104C5.2225 4.34003 5.14321 4.44759 5.08715 4.56746C5.03109 4.68732 4.99938 4.81713 4.99385 4.94934C4.98833 5.08156 5.0091 5.21356 5.05497 5.33769C5.10083 5.46181 5.17088 5.5756 5.26105 5.67246L8.71355 9.47121C6.59808 10.3604 4.67509 11.6513 3.05105 13.2725C0.551046 15.7725 0.311046 19.455 2.4648 22.2312C2.72907 22.5694 3.09511 22.8136 3.50884 22.9277C3.92256 23.0418 4.36203 23.0198 4.7623 22.865L10.8873 20.6937L10.9235 20.68C11.2325 20.5564 11.5058 20.3578 11.7186 20.1019C11.9314 19.8461 12.0771 19.5413 12.1423 19.215L12.8798 15.5262C13.2305 15.4051 13.5883 15.3054 13.951 15.2275L25.2635 27.6725C25.3514 27.7715 25.458 27.852 25.5771 27.9095C25.6963 27.967 25.8258 28.0003 25.9579 28.0074C26.09 28.0145 26.2223 27.9953 26.3469 27.9509C26.4716 27.9066 26.5862 27.8379 26.6842 27.7489C26.7821 27.6599 26.8614 27.5523 26.9174 27.4325C26.9735 27.3126 27.0052 27.1828 27.0107 27.0506C27.0163 26.9184 26.9955 26.7864 26.9496 26.6622C26.9038 26.5381 26.8337 26.4243 26.7435 26.3275L6.74105 4.32746Z" fill="#1C1C1E"/>
</svg>
