<svg width="32" height="32" viewBox="0 0 32 32" fill="none" xmlns="http://www.w3.org/2000/svg">
<path d="M17 8.99995C17 8.73473 17.1054 8.48038 17.2929 8.29284C17.4804 8.1053 17.7348 7.99995 18 7.99995H24.5863L22.2925 5.70745C22.1996 5.61454 22.1259 5.50424 22.0756 5.38284C22.0253 5.26145 21.9995 5.13134 21.9995 4.99995C21.9995 4.86855 22.0253 4.73844 22.0756 4.61705C22.1259 4.49566 22.1996 4.38536 22.2925 4.29245C22.3854 4.19954 22.4957 4.12584 22.6171 4.07555C22.7385 4.02527 22.8686 3.99939 23 3.99939C23.1314 3.99939 23.2615 4.02527 23.3829 4.07555C23.5043 4.12584 23.6146 4.19954 23.7075 4.29245L27.7075 8.29245C27.8005 8.38532 27.8743 8.49561 27.9246 8.61701C27.9749 8.7384 28.0008 8.86853 28.0008 8.99995C28.0008 9.13136 27.9749 9.26149 27.9246 9.38289C27.8743 9.50428 27.8005 9.61457 27.7075 9.70745L23.7075 13.7074C23.5199 13.8951 23.2654 14.0005 23 14.0005C22.7346 14.0005 22.4802 13.8951 22.2925 13.7074C22.1049 13.5198 21.9995 13.2653 21.9995 12.9999C21.9995 12.7346 22.1049 12.4801 22.2925 12.2924L24.5863 9.99995H18C17.7348 9.99995 17.4804 9.89459 17.2929 9.70705C17.1054 9.51952 17 9.26516 17 8.99995ZM26.795 20.8074L20.9063 18.1687L20.8925 18.1612C20.5866 18.0302 20.2529 17.9776 19.9216 18.0082C19.5902 18.0387 19.2718 18.1515 18.995 18.3362C18.9624 18.3577 18.9311 18.3811 18.9013 18.4062L15.8588 20.9999C13.9313 20.0637 11.9413 18.0887 11.005 16.1862L13.6025 13.0974C13.6275 13.0662 13.6513 13.0349 13.6738 13.0012C13.8543 12.7253 13.9638 12.4091 13.9926 12.0807C14.0214 11.7522 13.9686 11.4218 13.8388 11.1187V11.1037L11.1925 5.20495C11.0207 4.80926 10.7256 4.47972 10.3512 4.26548C9.97682 4.05125 9.54318 3.9638 9.11501 4.0162C7.42122 4.23854 5.86635 5.07004 4.74097 6.3553C3.61559 7.64056 2.99672 9.29163 3.00001 10.9999C3.00001 20.9249 11.075 28.9999 21 28.9999C22.7083 29.0032 24.3594 28.3844 25.6447 27.259C26.9299 26.1336 27.7614 24.5787 27.9838 22.8849C28.0362 22.4568 27.9487 22.0231 27.7345 21.6487C27.5202 21.2743 27.1907 20.9792 26.795 20.8074Z" fill="#1C1C1E"/>
</svg>
