<svg width="32" height="32" viewBox="0 0 32 32" fill="none" xmlns="http://www.w3.org/2000/svg">
<path d="M25.7503 3.33625C25.6563 3.23027 25.5408 3.14548 25.4115 3.08751C25.2822 3.02954 25.142 2.99971 25.0003 3H7.00034C6.85844 2.99995 6.71815 3.03011 6.5888 3.08846C6.45944 3.14681 6.34399 3.23202 6.25011 3.33844C6.15623 3.44485 6.08608 3.57002 6.04431 3.70564C6.00253 3.84126 5.99011 3.98421 6.00784 4.125L8.90159 28.25C8.96253 28.7336 9.198 29.1784 9.56376 29.5006C9.92951 29.8229 10.4004 30.0005 10.8878 30H21.1128C21.602 30.0001 22.0743 29.821 22.4403 29.4964C22.8063 29.1719 23.0407 28.7244 23.0991 28.2388L25.9928 4.125C26.0109 3.98385 25.9986 3.84047 25.9567 3.70445C25.9149 3.56843 25.8446 3.4429 25.7503 3.33625ZM23.8753 5L23.5128 8H8.48784L8.12534 5H23.8753Z" fill="#1C1C1E"/>
</svg>
