<svg width="32" height="32" viewBox="0 0 32 32" fill="none" xmlns="http://www.w3.org/2000/svg">
<path d="M29.9998 16.0875C29.9523 23.1487 24.1923 28.9287 17.1323 28.9987C16.04 29.0103 14.9506 28.8843 13.8898 28.6237C13.826 28.6078 13.7659 28.5795 13.7131 28.5403C13.6602 28.5011 13.6156 28.4519 13.5819 28.3955C13.5481 28.339 13.5257 28.2765 13.5162 28.2114C13.5066 28.1463 13.5099 28.08 13.526 28.0162L14.606 23.6975C15.6594 24.2254 16.8215 24.5002 17.9998 24.5C22.6248 24.5 26.3373 20.3187 25.976 15.33C25.8781 14.0352 25.501 12.7768 24.8709 11.6415C24.2407 10.5061 23.3723 9.52051 22.3252 8.75241C21.2782 7.98431 20.0774 7.45188 18.8052 7.19167C17.533 6.93146 16.2195 6.94963 14.955 7.24493C13.6905 7.54023 12.5048 8.10567 11.4795 8.90243C10.4541 9.69919 9.61328 10.7084 9.01475 11.8608C8.41622 13.0132 8.07414 14.2814 8.01201 15.5785C7.94987 16.8755 8.16915 18.1707 8.65479 19.375C8.70524 19.5006 8.78068 19.6147 8.87653 19.7103C8.97238 19.8059 9.08665 19.8811 9.21241 19.9312C9.33818 19.9814 9.47281 20.0055 9.60815 20.002C9.7435 19.9986 9.87674 19.9677 9.99979 19.9112C10.2345 19.7975 10.4169 19.5985 10.5098 19.3548C10.6027 19.1111 10.5991 18.8411 10.4998 18.6C10.126 17.6627 9.95933 16.6557 10.0111 15.648C10.0629 14.6403 10.3319 13.6557 10.7997 12.7617C11.2676 11.8676 11.9232 11.0853 12.7216 10.4683C13.52 9.8513 14.4424 9.41421 15.4255 9.18698C16.4086 8.95974 17.4293 8.94774 18.4175 9.1518C19.4057 9.35585 20.3381 9.77114 21.1508 10.3692C21.9635 10.9672 22.6373 11.7339 23.126 12.6167C23.6147 13.4995 23.9068 14.4775 23.9823 15.4837C24.2498 19.3 21.466 22.5 17.9998 22.5C16.9804 22.4995 15.9804 22.2212 15.1073 21.695L16.9698 14.2425C17.029 13.987 16.9855 13.7185 16.8487 13.4948C16.7118 13.2711 16.4926 13.1101 16.2382 13.0465C15.9837 12.9829 15.7145 13.0218 15.4885 13.1547C15.2625 13.2877 15.0977 13.5042 15.0298 13.7575L11.6723 27.1887C11.6541 27.2619 11.6195 27.33 11.5713 27.3879C11.523 27.4458 11.4623 27.492 11.3937 27.5232C11.325 27.5543 11.2502 27.5695 11.1749 27.5677C11.0995 27.5658 11.0256 27.547 10.9585 27.5125C8.83783 26.3997 7.06574 24.7226 5.8378 22.6665C4.60986 20.6103 3.9738 18.2548 3.99979 15.86C4.07479 8.81499 9.83354 3.06499 16.8748 2.99999C18.5999 2.98337 20.311 3.31025 21.9084 3.96161C23.5059 4.61296 24.9577 5.57575 26.1793 6.79386C27.4009 8.01197 28.3679 9.46105 29.0238 11.0566C29.6797 12.6522 30.0115 14.3624 29.9998 16.0875Z" fill="#1C1C1E"/>
</svg>
