<svg width="32" height="32" viewBox="0 0 32 32" fill="none" xmlns="http://www.w3.org/2000/svg">
<path d="M27.5345 6.87523L27.5133 6.85398L21.9008 1.56898C21.5251 1.20008 21.019 0.994234 20.4925 0.996106C19.9659 0.997979 19.4614 1.20742 19.0883 1.57898L13.5208 7.10898L13.3283 6.91398C12.7347 6.37319 11.9558 6.08163 11.153 6.09978C10.3502 6.11792 9.58527 6.44439 9.01675 7.01145C8.44824 7.57852 8.11983 8.34266 8.09963 9.14538C8.07944 9.9481 8.36901 10.7278 8.90829 11.3227L9.09079 11.5077L6.58579 14.0002C6.40003 14.186 6.25267 14.4065 6.15213 14.6491C6.05159 14.8918 5.99984 15.1519 5.99984 15.4146C5.99984 15.6773 6.05159 15.9374 6.15213 16.1801C6.25267 16.4228 6.40003 16.6433 6.58579 16.829L8.17079 18.414C8.54567 18.7876 9.05338 18.9974 9.58267 18.9974C10.112 18.9974 10.6197 18.7876 10.9945 18.414L13.4858 15.9577L14.9995 17.5002L6.91329 25.6715C6.60049 25.9561 6.34872 26.3013 6.17325 26.6862C5.99777 27.071 5.90224 27.4874 5.89244 27.9103C5.88264 28.3331 5.95877 28.7535 6.11623 29.1461C6.27368 29.5386 6.50918 29.8951 6.80846 30.194C7.10774 30.4928 7.46457 30.7278 7.85733 30.8847C8.2501 31.0416 8.67063 31.1171 9.09344 31.1067C9.51626 31.0963 9.93257 31.0002 10.3171 30.8242C10.7017 30.6482 11.0466 30.3959 11.3308 30.0827L22.4145 18.914C22.7886 18.539 22.9986 18.0311 22.9986 17.5015C22.9986 16.9719 22.7886 16.4639 22.4145 16.089L17.9533 11.5827L19.5695 10.0002L19.582 10.0115L24.2495 14.4252C24.6256 14.7951 25.1325 15.0014 25.66 14.9993C26.1874 14.9972 26.6927 14.7868 27.0658 14.414L27.5295 13.9502C27.9939 13.4859 28.3622 12.9347 28.6135 12.3281C28.8648 11.7214 28.9941 11.0712 28.9941 10.4146C28.9941 9.75797 28.8648 9.10777 28.6135 8.50113C28.3622 7.89448 27.9939 7.34328 27.5295 6.87898L27.5345 6.87523ZM9.58579 17.0002L7.99954 15.4165L10.4995 12.9315L12.0858 14.539L9.58579 17.0002ZM26.1245 12.5352L25.6558 13.0002C25.6498 12.993 25.6431 12.9863 25.6358 12.9802L20.9608 8.56273C20.5843 8.20013 20.0811 7.9988 19.5584 8.0016C19.0356 8.0044 18.5347 8.21111 18.162 8.57773L16.5458 10.1615L14.9283 8.52898L20.4995 3.00023L20.5208 3.02023L26.1308 8.30273C26.689 8.86624 27.0013 9.62787 26.9994 10.421C26.9975 11.2142 26.6816 11.9744 26.1208 12.5352H26.1245Z" fill="#1C1C1E"/>
</svg>
