<svg width="32" height="32" viewBox="0 0 32 32" fill="none" xmlns="http://www.w3.org/2000/svg">
<path d="M29.9426 7.87471C29.881 7.61871 29.7691 7.3775 29.6136 7.16507C29.458 6.95264 29.2618 6.77321 29.0363 6.63721C25.1041 4.25846 20.5959 3.00098 16.0001 3.00098C11.4043 3.00098 6.89612 4.25846 2.96385 6.63721C2.73904 6.77355 2.54332 6.95287 2.38789 7.16493C2.23246 7.37698 2.12037 7.61761 2.05802 7.87302C1.99567 8.12844 1.9843 8.39365 2.02455 8.65347C2.0648 8.91329 2.15589 9.16262 2.2926 9.38721L14.2926 29.046C14.4709 29.3398 14.7219 29.5828 15.0214 29.7515C15.3209 29.9201 15.6589 30.0087 16.0026 30.0087C16.3463 30.0087 16.6843 29.9201 16.9838 29.7515C17.2833 29.5828 17.5343 29.3398 17.7126 29.046L29.7126 9.38721C29.8495 9.16301 29.9403 8.91379 29.9798 8.6541C30.0193 8.39441 30.0066 8.12946 29.9426 7.87471ZM23.0551 16.441C21.9436 15.9365 20.686 15.856 19.5192 16.2147C18.3525 16.5734 17.3573 17.3465 16.7212 18.3883C16.0851 19.43 15.852 20.6685 16.066 21.8703C16.2799 23.072 16.926 24.154 17.8826 24.9122L16.0001 27.9997L12.0626 21.5535C12.709 21.2622 13.2861 20.8367 13.7556 20.3053C14.225 19.7739 14.5761 19.1488 14.7855 18.4713C14.9948 17.7939 15.0577 17.0797 14.97 16.3761C14.8822 15.6725 14.6458 14.9956 14.2765 14.3904C13.9071 13.7851 13.4133 13.2653 12.8277 12.8655C12.2421 12.4657 11.5782 12.1951 10.88 12.0715C10.1818 11.9479 9.4653 11.9742 8.77805 12.1487C8.09081 12.3231 7.44853 12.6418 6.89385 13.0835L6.1001 11.7822C9.08139 9.96237 12.5066 8.99955 15.9995 8.99955C19.4923 8.99955 22.9176 9.96237 25.8988 11.7822L23.0551 16.441Z" fill="#1C1C1E"/>
</svg>
