<svg width="32" height="32" viewBox="0 0 32 32" fill="none" xmlns="http://www.w3.org/2000/svg">
<path d="M18.7071 18.7073L16.4133 20.9998L18.7071 23.2923C18.8 23.3852 18.8737 23.4955 18.924 23.6169C18.9743 23.7383 19.0001 23.8684 19.0001 23.9998C19.0001 24.1312 18.9743 24.2613 18.924 24.3827C18.8737 24.5041 18.8 24.6144 18.7071 24.7073C18.6142 24.8002 18.5039 24.8739 18.3825 24.9242C18.2611 24.9745 18.131 25.0004 17.9996 25.0004C17.8682 25.0004 17.7381 24.9745 17.6167 24.9242C17.4953 24.8739 17.385 24.8002 17.2921 24.7073L16.4996 23.9136L13.5858 26.8286C12.8347 27.5771 11.8175 27.9974 10.7571 27.9974C9.69666 27.9974 8.67947 27.5771 7.92833 26.8286L7.25708 26.1561L3.70708 29.7073C3.61417 29.8002 3.50387 29.8739 3.38248 29.9242C3.26108 29.9745 3.13097 30.0004 2.99958 30.0004C2.86818 30.0004 2.73808 29.9745 2.61668 29.9242C2.49529 29.8739 2.38499 29.8002 2.29208 29.7073C2.19917 29.6144 2.12547 29.5041 2.07519 29.3827C2.0249 29.2613 1.99902 29.1312 1.99902 28.9998C1.99902 28.8684 2.0249 28.7383 2.07519 28.6169C2.12547 28.4955 2.19917 28.3852 2.29208 28.2923L5.84333 24.7423L5.17083 24.0711C4.7993 23.6996 4.50458 23.2586 4.3035 22.7733C4.10243 22.2879 3.99893 21.7677 3.99893 21.2423C3.99893 20.7169 4.10243 20.1967 4.3035 19.7114C4.50458 19.226 4.7993 18.785 5.17083 18.4136L8.08583 15.4998L7.29208 14.7073C7.10444 14.5197 6.99902 14.2652 6.99902 13.9998C6.99902 13.7344 7.10444 13.48 7.29208 13.2923C7.47972 13.1047 7.73422 12.9993 7.99958 12.9993C8.26494 12.9993 8.51944 13.1047 8.70708 13.2923L10.9996 15.5861L13.2921 13.2923C13.4797 13.1047 13.7342 12.9993 13.9996 12.9993C14.2649 12.9993 14.5194 13.1047 14.7071 13.2923C14.8947 13.4799 15.0001 13.7344 15.0001 13.9998C15.0001 14.2652 14.8947 14.5197 14.7071 14.7073L12.4133 16.9998L14.9996 19.5861L17.2921 17.2923C17.4797 17.1047 17.7342 16.9993 17.9996 16.9993C18.2649 16.9993 18.5194 17.1047 18.7071 17.2923C18.8947 17.4799 19.0001 17.7344 19.0001 17.9998C19.0001 18.2652 18.8947 18.5197 18.7071 18.7073ZM29.7071 2.29231C29.6142 2.19933 29.5039 2.12557 29.3825 2.07525C29.2611 2.02493 29.131 1.99902 28.9996 1.99902C28.8682 1.99902 28.738 2.02493 28.6166 2.07525C28.4952 2.12557 28.385 2.19933 28.2921 2.29231L24.7421 5.84356L24.0708 5.17106C23.3198 4.42225 22.3026 4.00175 21.2421 4.00175C20.1816 4.00175 19.1643 4.42225 18.4133 5.17106L15.4996 8.08606L14.7071 7.29231C14.5194 7.10467 14.2649 6.99925 13.9996 6.99925C13.7342 6.99925 13.4797 7.10467 13.2921 7.29231C13.1044 7.47995 12.999 7.73445 12.999 7.99981C12.999 8.26517 13.1044 8.51967 13.2921 8.70731L23.2921 18.7073C23.385 18.8002 23.4953 18.8739 23.6167 18.9242C23.7381 18.9745 23.8682 19.0004 23.9996 19.0004C24.131 19.0004 24.2611 18.9745 24.3825 18.9242C24.5039 18.8739 24.6142 18.8002 24.7071 18.7073C24.8 18.6144 24.8737 18.5041 24.924 18.3827C24.9743 18.2613 25.0001 18.1312 25.0001 17.9998C25.0001 17.8684 24.9743 17.7383 24.924 17.6169C24.8737 17.4955 24.8 17.3852 24.7071 17.2923L23.9133 16.4998L26.8283 13.5861C27.1999 13.2146 27.4946 12.7736 27.6957 12.2883C27.8967 11.8029 28.0002 11.2827 28.0002 10.7573C28.0002 10.2319 27.8967 9.71173 27.6957 9.22637C27.4946 8.741 27.1999 8.30001 26.8283 7.92856L26.1558 7.25731L29.7071 3.70731C29.8001 3.61444 29.8738 3.50415 29.9241 3.38275C29.9745 3.26135 30.0004 3.13123 30.0004 2.99981C30.0004 2.86839 29.9745 2.73827 29.9241 2.61687C29.8738 2.49547 29.8001 2.38518 29.7071 2.29231Z" fill="#1C1C1E"/>
</svg>
