<svg width="32" height="32" viewBox="0 0 32 32" fill="none" xmlns="http://www.w3.org/2000/svg">
<path d="M11.0712 4.37518C10.9718 4.12886 10.9742 3.85312 11.0781 3.60862C11.1819 3.36412 11.3786 3.17089 11.625 3.07143C11.8713 2.97197 12.147 2.97444 12.3915 3.07829C12.636 3.18214 12.8293 3.37886 12.9287 3.62518L13.9287 6.12518C13.978 6.24715 14.0027 6.37762 14.0015 6.50914C14.0003 6.64067 13.9733 6.77068 13.9219 6.89174C13.8704 7.01281 13.7957 7.12256 13.7018 7.21473C13.608 7.3069 13.4969 7.37969 13.375 7.42893C13.253 7.47818 13.1225 7.50292 12.991 7.50174C12.8595 7.50056 12.7295 7.47349 12.6084 7.42207C12.4873 7.37065 12.3776 7.29589 12.2854 7.20205C12.1932 7.10822 12.1205 6.99715 12.0712 6.87518L11.0712 4.37518ZM3.62496 12.9289L6.12496 13.9289C6.24693 13.9782 6.3774 14.0029 6.50892 14.0017C6.64045 14.0006 6.77046 13.9735 6.89152 13.9221C7.01259 13.8707 7.12234 13.7959 7.21451 13.7021C7.30668 13.6082 7.37947 13.4971 7.42871 13.3752C7.47796 13.2532 7.5027 13.1227 7.50152 12.9912C7.50034 12.8597 7.47327 12.7297 7.42185 12.6086C7.37043 12.4876 7.29567 12.3778 7.20183 12.2856C7.108 12.1935 6.99693 12.1207 6.87496 12.0714L4.37496 11.0714C4.12864 10.972 3.8529 10.9744 3.6084 11.0783C3.3639 11.1821 3.17067 11.3789 3.07121 11.6252C2.97176 11.8715 2.97422 12.1472 3.07807 12.3917C3.18192 12.6362 3.37864 12.8295 3.62496 12.9289ZM28.375 19.0714L25.875 18.0714C25.6286 17.972 25.3529 17.9744 25.1084 18.0783C24.8639 18.1821 24.6707 18.3789 24.5712 18.6252C24.4718 18.8715 24.4742 19.1472 24.5781 19.3917C24.6819 19.6362 24.8786 19.8295 25.125 19.9289L27.625 20.9289C27.8713 21.0284 28.147 21.0259 28.3915 20.9221C28.636 20.8182 28.8293 20.6215 28.9287 20.3752C29.0282 20.1289 29.0257 19.8531 28.9219 19.6086C28.818 19.3641 28.6213 19.1709 28.375 19.0714ZM19.9287 25.1252C19.8293 24.8789 19.636 24.6821 19.3915 24.5783C19.147 24.4744 18.8713 24.472 18.625 24.5714C18.3786 24.6709 18.1819 24.8641 18.0781 25.1086C17.9742 25.3531 17.9718 25.6289 18.0712 25.8752L19.0712 28.3752C19.1707 28.6215 19.3639 28.8182 19.6084 28.9221C19.8529 29.0259 20.1286 29.0284 20.375 28.9289C20.6213 28.8295 20.818 28.6362 20.9219 28.3917C21.0257 28.1472 21.0282 27.8715 20.9287 27.6252L19.9287 25.1252ZM29.7387 2.31518C29.647 2.21731 29.5365 2.13889 29.4138 2.0846C29.2912 2.03031 29.1589 2.00125 29.0247 1.99915C28.8906 1.99705 28.7574 2.02195 28.6331 2.07238C28.5088 2.12281 28.396 2.19773 28.3012 2.29268L21.75 8.84393L21.0775 8.17143C20.706 7.79953 20.2648 7.50449 19.7792 7.30319C19.2936 7.10189 18.7731 6.99828 18.2475 6.99828C17.7218 6.99828 17.2013 7.10189 16.7157 7.30319C16.2301 7.50449 15.789 7.79953 15.4175 8.17143L13.2675 10.3177C13.221 10.3641 13.1841 10.4193 13.1589 10.48C13.1338 10.5407 13.1208 10.6057 13.1208 10.6714C13.1208 10.7371 13.1338 10.8022 13.1589 10.8629C13.1841 10.9236 13.221 10.9787 13.2675 11.0252L20.98 18.7327C21.0264 18.7792 21.0815 18.816 21.1422 18.8412C21.2029 18.8664 21.268 18.8793 21.3337 18.8793C21.3994 18.8793 21.4645 18.8664 21.5252 18.8412C21.5859 18.816 21.641 18.7792 21.6875 18.7327L23.78 16.6402C24.5383 15.8964 24.978 14.887 25.0062 13.8252C25.0166 13.2884 24.9181 12.755 24.7168 12.2572C24.5156 11.7595 24.2156 11.3076 23.835 10.9289L23.1625 10.2577L29.6875 3.73643C29.8776 3.55186 29.9892 3.30095 29.9987 3.03611C30.0083 2.77126 29.9151 2.51297 29.7387 2.31518ZM10.705 11.2927C10.6102 11.1979 10.4974 11.1232 10.3733 11.0729C10.2491 11.0225 10.116 10.9977 9.98207 10.9998C9.8481 11.0019 9.71592 11.0309 9.59337 11.0851C9.47083 11.1392 9.36042 11.2175 9.26871 11.3152C9.09232 11.513 8.99917 11.7713 9.00872 12.0361C9.01827 12.301 9.12978 12.5519 9.31996 12.7364L10.0837 13.5002L8.16746 15.4139C7.78769 15.7928 7.48848 16.2446 7.28785 16.7421C7.08721 17.2396 6.98928 17.7726 6.99996 18.3089C7.02636 19.3705 7.46426 20.3804 8.22121 21.1252L8.84621 21.7427L2.31121 28.2664C2.12682 28.446 2.01665 28.6883 2.00252 28.9453C1.9884 29.2023 2.07136 29.4552 2.23496 29.6539C2.3248 29.7582 2.43519 29.8427 2.55921 29.9023C2.68324 29.9619 2.81823 29.9953 2.95574 30.0004C3.09325 30.0054 3.23032 29.982 3.35838 29.9317C3.48644 29.8813 3.60272 29.805 3.69996 29.7077L10.25 23.1564L10.9212 23.8289C11.6732 24.5774 12.6909 24.9975 13.7518 24.9975C14.8128 24.9975 15.8305 24.5774 16.5825 23.8289L18.5 21.9139L19.2925 22.7077C19.3854 22.8006 19.4957 22.8743 19.6171 22.9246C19.7385 22.9749 19.8686 23.0007 20 23.0007C20.1314 23.0007 20.2615 22.9749 20.3829 22.9246C20.5043 22.8743 20.6146 22.8006 20.7075 22.7077C20.8004 22.6148 20.8741 22.5045 20.9244 22.3831C20.9746 22.2617 21.0005 22.1316 21.0005 22.0002C21.0005 21.8688 20.9746 21.7387 20.9244 21.6173C20.8741 21.4959 20.8004 21.3856 20.7075 21.2927L10.705 11.2927Z" fill="#1C1C1E"/>
</svg>
