<svg width="32" height="32" viewBox="0 0 32 32" fill="none" xmlns="http://www.w3.org/2000/svg">
<path d="M24.9999 17.9996H15.4124L18.2136 15.1984C19.2264 15.7084 20.3423 15.9803 21.4761 15.9934C22.6174 15.9964 23.7374 15.6841 24.7124 15.0909C27.6774 13.2959 29.2661 9.14086 28.9624 3.97586C28.9481 3.73122 28.8445 3.50034 28.6712 3.32705C28.4979 3.15377 28.267 3.05015 28.0224 3.03586C22.8574 2.73211 18.7024 4.32086 16.9061 7.28586C15.7374 9.21711 15.7074 11.5496 16.7986 13.7859L14.9999 15.5846L13.4736 14.0584C14.2236 12.4021 14.1699 10.6834 13.2999 9.24836C11.9411 6.99961 8.82614 5.80086 4.96614 6.02711C4.72192 6.04166 4.4915 6.14524 4.31851 6.31823C4.14551 6.49123 4.04194 6.72164 4.02739 6.96586C3.79989 10.8246 4.99989 13.9396 7.24989 15.2996C8.00263 15.7592 8.86792 16.0015 9.74989 15.9996C10.55 15.9917 11.3393 15.8131 12.0649 15.4759L13.5861 16.9996L12.5861 17.9996H6.99989C6.73467 17.9996 6.48032 18.105 6.29278 18.2925C6.10524 18.48 5.99989 18.7344 5.99989 18.9996C5.99989 19.2648 6.10524 19.5192 6.29278 19.7067C6.48032 19.8943 6.73467 19.9996 6.99989 19.9996H8.19864L9.84989 27.4334C9.94625 27.8788 10.1929 28.2776 10.5484 28.5627C10.9039 28.8479 11.3466 29.0022 11.8024 28.9996H20.1986C20.6543 29.0017 21.0968 28.8473 21.4522 28.5622C21.8076 28.2771 22.0543 27.8786 22.1511 27.4334L23.8024 19.9996H24.9999C25.2651 19.9996 25.5195 19.8943 25.707 19.7067C25.8945 19.5192 25.9999 19.2648 25.9999 18.9996C25.9999 18.7344 25.8945 18.48 25.707 18.2925C25.5195 18.105 25.2651 17.9996 24.9999 17.9996Z" fill="#1C1C1E"/>
</svg>
