<svg width="32" height="32" viewBox="0 0 32 32" fill="none" xmlns="http://www.w3.org/2000/svg">
<path d="M28.9991 7.99976V5.99982C28.9991 5.4694 28.7884 4.96071 28.4133 4.58565C28.0383 4.21059 27.5296 3.99988 26.9992 3.99988H4.99985C4.46943 3.99988 3.96074 4.21059 3.58568 4.58565C3.21062 4.96071 2.99991 5.4694 2.99991 5.99982V7.99976C2.99991 8.53017 3.21062 9.03886 3.58568 9.41393C3.96074 9.78899 4.46943 9.99969 4.99985 9.99969V21.9993H3.99988C3.73467 21.9993 3.48032 22.1047 3.29279 22.2922C3.10526 22.4797 2.99991 22.7341 2.99991 22.9993C2.99991 23.2645 3.10526 23.5189 3.29279 23.7064C3.48032 23.8939 3.73467 23.9993 3.99988 23.9993H14.9995V26.1717C14.3323 26.4076 13.77 26.8717 13.412 27.4821C13.0539 28.0925 12.9231 28.8099 13.0428 29.5073C13.1625 30.2048 13.5249 30.8375 14.0659 31.2937C14.607 31.7498 15.2918 32 15.9995 32C16.7072 32 17.3921 31.7498 17.9331 31.2937C18.4742 30.8375 18.8365 30.2048 18.9562 29.5073C19.0759 28.8099 18.9451 28.0925 18.5871 27.4821C18.229 26.8717 17.6667 26.4076 16.9995 26.1717V23.9993H27.9991C28.2644 23.9993 28.5187 23.8939 28.7062 23.7064C28.8938 23.5189 28.9991 23.2645 28.9991 22.9993C28.9991 22.7341 28.8938 22.4797 28.7062 22.2922C28.5187 22.1047 28.2644 21.9993 27.9991 21.9993H26.9992V9.99969C27.5296 9.99969 28.0383 9.78899 28.4133 9.41393C28.7884 9.03886 28.9991 8.53017 28.9991 7.99976ZM12.9996 17.9995C12.9996 18.2647 12.8942 18.519 12.7067 18.7065C12.5192 18.8941 12.2648 18.9994 11.9996 18.9994C11.7344 18.9994 11.4801 18.8941 11.2925 18.7065C11.105 18.519 10.9997 18.2647 10.9997 17.9995V15.9995C10.9997 15.7343 11.105 15.48 11.2925 15.2924C11.4801 15.1049 11.7344 14.9995 11.9996 14.9995C12.2648 14.9995 12.5192 15.1049 12.7067 15.2924C12.8942 15.48 12.9996 15.7343 12.9996 15.9995V17.9995ZM15.9995 29.9991C15.8017 29.9991 15.6084 29.9404 15.444 29.8306C15.2795 29.7207 15.1513 29.5645 15.0757 29.3818C15 29.1991 14.9802 28.998 15.0188 28.804C15.0573 28.6101 15.1526 28.4319 15.2924 28.292C15.4323 28.1522 15.6105 28.0569 15.8044 28.0184C15.9984 27.9798 16.1995 27.9996 16.3822 28.0753C16.5649 28.1509 16.7211 28.2791 16.831 28.4436C16.9408 28.608 16.9995 28.8013 16.9995 28.9991C16.9995 29.2643 16.8941 29.5187 16.7066 29.7062C16.5191 29.8937 16.2647 29.9991 15.9995 29.9991ZM16.9995 17.9995C16.9995 18.2647 16.8941 18.519 16.7066 18.7065C16.5191 18.8941 16.2647 18.9994 15.9995 18.9994C15.7343 18.9994 15.48 18.8941 15.2924 18.7065C15.1049 18.519 14.9995 18.2647 14.9995 17.9995V14.9995C14.9995 14.7343 15.1049 14.48 15.2924 14.2925C15.48 14.1049 15.7343 13.9996 15.9995 13.9996C16.2647 13.9996 16.5191 14.1049 16.7066 14.2925C16.8941 14.48 16.9995 14.7343 16.9995 14.9995V17.9995ZM20.9994 17.9995C20.9994 18.2647 20.894 18.519 20.7065 18.7065C20.5189 18.8941 20.2646 18.9994 19.9994 18.9994C19.7342 18.9994 19.4798 18.8941 19.2923 18.7065C19.1048 18.519 18.9994 18.2647 18.9994 17.9995V13.9996C18.9994 13.7344 19.1048 13.48 19.2923 13.2925C19.4798 13.105 19.7342 12.9996 19.9994 12.9996C20.2646 12.9996 20.5189 13.105 20.7065 13.2925C20.894 13.48 20.9994 13.7344 20.9994 13.9996V17.9995ZM4.99985 7.99976V5.99982H26.9992V7.99976H4.99985Z" fill="#1C1C1E"/>
</svg>
