<svg width="32" height="32" viewBox="0 0 32 32" fill="none" xmlns="http://www.w3.org/2000/svg">
<path d="M29.4166 13.0004L22.7328 19.7066C23.3028 21.2904 23.5391 23.9429 21.0841 27.2066C20.9124 27.4361 20.6932 27.6259 20.4414 27.7629C20.1896 27.8998 19.9113 27.9809 19.6253 28.0004C19.5778 28.0004 19.5316 28.0004 19.4841 28.0004C19.2213 28.0004 18.961 27.9487 18.7182 27.8481C18.4754 27.7475 18.2549 27.6 18.0691 27.4142L12.0366 21.3754L6.70783 26.7079C6.52019 26.8955 6.2657 27.001 6.00034 27.001C5.73497 27.001 5.48048 26.8955 5.29284 26.7079C5.10519 26.5203 4.99978 26.2658 4.99978 26.0004C4.99978 25.735 5.10519 25.4805 5.29284 25.2929L10.6253 19.9642L4.58784 13.9267C4.38938 13.728 4.235 13.4897 4.13474 13.2274C4.03448 12.965 3.99058 12.6846 4.00591 12.4041C4.02124 12.1237 4.09545 11.8497 4.22371 11.5999C4.35197 11.35 4.53141 11.13 4.75034 10.9542C7.92783 8.3904 10.9691 8.89415 12.3003 9.31165L19.0003 2.5879C19.1861 2.40214 19.4066 2.25478 19.6492 2.15424C19.8919 2.0537 20.152 2.00195 20.4147 2.00195C20.6774 2.00195 20.9375 2.0537 21.1802 2.15424C21.4229 2.25478 21.6434 2.40214 21.8291 2.5879L29.4153 10.1729C29.7903 10.5478 30.001 11.0562 30.0013 11.5864C30.0015 12.1166 29.7912 12.6252 29.4166 13.0004Z" fill="#1C1C1E"/>
</svg>
