<svg width="32" height="32" viewBox="0 0 32 32" fill="none" xmlns="http://www.w3.org/2000/svg">
<path d="M29.4159 13.0004L23.4634 18.9729C23.4155 19.0208 23.3584 19.0584 23.2956 19.0836C23.2327 19.1087 23.1654 19.1208 23.0978 19.1192C23.0301 19.1175 22.9635 19.1022 22.9019 19.074C22.8403 19.0459 22.7851 19.0055 22.7396 18.9554L13.4996 8.78415C13.4135 8.68916 13.3672 8.56471 13.3702 8.43653C13.3732 8.30835 13.4254 8.18623 13.5159 8.0954L18.9996 2.5879C19.1854 2.40214 19.4059 2.25478 19.6485 2.15424C19.8912 2.0537 20.1513 2.00195 20.414 2.00195C20.6767 2.00195 20.9368 2.0537 21.1795 2.15424C21.4222 2.25478 21.6427 2.40214 21.8284 2.5879L29.4146 10.1729C29.7896 10.5478 30.0004 11.0562 30.0006 11.5864C30.0008 12.1166 29.7905 12.6252 29.4159 13.0004ZM6.73964 4.3279C6.64395 4.22311 6.52705 4.13989 6.39672 4.08377C6.26639 4.02765 6.1256 3.9999 5.98372 4.00239C5.84183 4.00487 5.7021 4.03752 5.57381 4.09817C5.44552 4.15882 5.33161 4.24608 5.23964 4.35415C5.08362 4.54589 5.00234 4.78765 5.01084 5.0347C5.01934 5.28174 5.11706 5.51735 5.28589 5.6979L8.41464 9.14415C7.28214 9.38665 6.02464 9.92165 4.74964 10.9542C4.5308 11.1301 4.35147 11.3502 4.22332 11.6001C4.09517 11.85 4.02108 12.124 4.00587 12.4044C3.99065 12.6848 4.03466 12.9653 4.13503 13.2276C4.2354 13.4898 4.38987 13.728 4.58839 13.9267L10.6246 19.9642L5.31839 25.2679C5.13349 25.447 5.02303 25.6893 5.00912 25.9463C4.99521 26.2034 5.07889 26.4562 5.24339 26.6542C5.33323 26.7582 5.44354 26.8426 5.56745 26.9021C5.69136 26.9616 5.8262 26.9949 5.96356 26.9999C6.10091 27.0049 6.23784 26.9816 6.36577 26.9314C6.49371 26.8811 6.60992 26.8051 6.70714 26.7079L12.0359 21.3754L18.0721 27.4116C18.2577 27.598 18.4782 27.7459 18.721 27.8469C18.9638 27.948 19.2242 28.0001 19.4871 28.0004C19.5346 28.0004 19.5809 28.0004 19.6284 28.0004C19.9135 27.9806 20.191 27.8998 20.4421 27.7632C20.6931 27.6267 20.9119 27.4377 21.0834 27.2092C21.6775 26.4352 22.1667 25.5862 22.5384 24.6842L25.2596 27.6779C25.3475 27.7769 25.4541 27.8575 25.5732 27.915C25.6924 27.9725 25.8218 28.0057 25.954 28.0128C26.0861 28.0199 26.2184 28.0007 26.343 27.9564C26.4677 27.912 26.5823 27.8433 26.6803 27.7543C26.7782 27.6653 26.8575 27.5578 26.9135 27.4379C26.9696 27.318 27.0013 27.1882 27.0068 27.056C27.0124 26.9238 26.9916 26.7918 26.9457 26.6677C26.8999 26.5435 26.8298 26.4298 26.7396 26.3329L6.73964 4.3279Z" fill="#1C1C1E"/>
</svg>
