<svg width="32" height="32" viewBox="0 0 32 32" fill="none" xmlns="http://www.w3.org/2000/svg">
<path d="M28.7503 3.25625C25.2503 -0.235001 18.9416 0.394999 14.6753 4.6625C10.7016 8.63625 9.88407 14.3837 12.6116 17.9737L8.91657 21.6687L8.83157 21.5837C8.64583 21.3978 8.42525 21.2503 8.18245 21.1496C7.93966 21.049 7.6794 20.9972 7.41657 20.9972C7.15374 20.9972 6.89349 21.049 6.65069 21.1496C6.4079 21.2503 6.18732 21.3978 6.00157 21.5837L2.58657 25C2.40062 25.1857 2.2531 25.4063 2.15245 25.6491C2.05181 25.8919 2 26.1522 2 26.415C2 26.6778 2.05181 26.9381 2.15245 27.1809C2.2531 27.4237 2.40062 27.6443 2.58657 27.83L4.17282 29.4162C4.35855 29.602 4.57904 29.7494 4.82173 29.8499C5.06441 29.9504 5.32452 30.0022 5.5872 30.0022C5.84988 30.0022 6.10999 29.9504 6.35267 29.8499C6.59535 29.7494 6.81585 29.602 7.00157 29.4162L10.4178 26C10.6036 25.8143 10.7509 25.5938 10.8515 25.3511C10.952 25.1084 11.0038 24.8483 11.0038 24.5856C11.0038 24.3229 10.952 24.0628 10.8515 23.8202C10.7509 23.5775 10.6036 23.357 10.4178 23.1712L10.3316 23.085L14.0266 19.39C15.4378 20.4625 17.1816 20.9887 19.0266 20.9887C21.8666 20.9887 24.9328 19.7387 27.3441 17.3262C31.6041 13.0587 32.2353 6.75 28.7503 3.25625ZM28.0291 13H25.0078V9H29.0078C28.9931 10.3908 28.6582 11.7595 28.0291 13ZM17.0003 18.7012C16.1252 18.4389 15.329 17.9633 14.683 17.3173C14.037 16.6714 13.5615 15.8751 13.2991 15H17.0003V18.7012ZM13.0003 13C13.0153 11.6088 13.3515 10.2398 13.9828 9H17.0003V13H13.0003ZM19.0003 9H23.0003V13H19.0003V9ZM28.7091 7H25.0078V3.285C25.8844 3.54788 26.6819 4.02422 27.329 4.6713C27.9761 5.31838 28.4524 6.11596 28.7153 6.9925L28.7091 7ZM22.9816 3H23.0016V7H19.0016V3.97C20.2376 3.34174 21.6014 3.00561 22.9878 2.9875L22.9816 3ZM17.0003 5.2575V6.9925H15.2703C15.5267 6.67274 15.8005 6.36729 16.0903 6.0775C16.3791 5.78839 16.6828 5.51468 17.0003 5.2575ZM19.0003 18.9975V15H23.0003V18.02C21.7622 18.6495 20.3955 18.9848 19.0066 19L19.0003 18.9975ZM25.0003 16.73V15H26.7503C26.4936 15.3195 26.2198 15.6249 25.9303 15.915C25.638 16.2034 25.33 16.4754 25.0078 16.73H25.0003Z" fill="#1C1C1E"/>
</svg>
