<svg width="32" height="32" viewBox="0 0 32 32" fill="none" xmlns="http://www.w3.org/2000/svg">
<path d="M27 8.00001H10.8138L24.2875 3.95876C24.5416 3.88251 24.755 3.70844 24.8808 3.47484C25.0066 3.24124 25.0344 2.96725 24.9581 2.71314C24.8819 2.45903 24.7078 2.24561 24.4742 2.11985C24.2406 1.99408 23.9666 1.96626 23.7125 2.04251L3.7125 8.04251C3.50659 8.10432 3.32608 8.23084 3.19774 8.40331C3.0694 8.57579 3.00006 8.78503 3 9.00001V24C3 24.5304 3.21071 25.0392 3.58579 25.4142C3.96086 25.7893 4.46957 26 5 26H27C27.5304 26 28.0391 25.7893 28.4142 25.4142C28.7893 25.0392 29 24.5304 29 24V10C29 9.46958 28.7893 8.96087 28.4142 8.5858C28.0391 8.21073 27.5304 8.00001 27 8.00001ZM13 22H8C7.73478 22 7.48043 21.8947 7.29289 21.7071C7.10536 21.5196 7 21.2652 7 21C7 20.7348 7.10536 20.4804 7.29289 20.2929C7.48043 20.1054 7.73478 20 8 20H13C13.2652 20 13.5196 20.1054 13.7071 20.2929C13.8946 20.4804 14 20.7348 14 21C14 21.2652 13.8946 21.5196 13.7071 21.7071C13.5196 21.8947 13.2652 22 13 22ZM13 18H8C7.73478 18 7.48043 17.8947 7.29289 17.7071C7.10536 17.5196 7 17.2652 7 17C7 16.7348 7.10536 16.4804 7.29289 16.2929C7.48043 16.1054 7.73478 16 8 16H13C13.2652 16 13.5196 16.1054 13.7071 16.2929C13.8946 16.4804 14 16.7348 14 17C14 17.2652 13.8946 17.5196 13.7071 17.7071C13.5196 17.8947 13.2652 18 13 18ZM13 14H8C7.73478 14 7.48043 13.8947 7.29289 13.7071C7.10536 13.5196 7 13.2652 7 13C7 12.7348 7.10536 12.4804 7.29289 12.2929C7.48043 12.1054 7.73478 12 8 12H13C13.2652 12 13.5196 12.1054 13.7071 12.2929C13.8946 12.4804 14 12.7348 14 13C14 13.2652 13.8946 13.5196 13.7071 13.7071C13.5196 13.8947 13.2652 14 13 14ZM21 21C20.2089 21 19.4355 20.7654 18.7777 20.3259C18.1199 19.8864 17.6072 19.2616 17.3045 18.5307C17.0017 17.7998 16.9225 16.9956 17.0769 16.2197C17.2312 15.4437 17.6122 14.731 18.1716 14.1716C18.731 13.6122 19.4437 13.2312 20.2196 13.0769C20.9956 12.9225 21.7998 13.0017 22.5307 13.3045C23.2616 13.6072 23.8864 14.1199 24.3259 14.7777C24.7654 15.4355 25 16.2089 25 17C25 18.0609 24.5786 19.0783 23.8284 19.8284C23.0783 20.5786 22.0609 21 21 21Z" fill="#1C1C1E"/>
</svg>
