<svg width="32" height="32" viewBox="0 0 32 32" fill="none" xmlns="http://www.w3.org/2000/svg">
<path d="M14.5003 15.9999C14.5003 15.7033 14.5883 15.4133 14.7531 15.1666C14.9179 14.9199 15.1522 14.7276 15.4263 14.6141C15.7004 14.5006 16.002 14.4709 16.2929 14.5288C16.5839 14.5866 16.8512 14.7295 17.061 14.9393C17.2707 15.1491 17.4136 15.4163 17.4715 15.7073C17.5294 15.9983 17.4996 16.2999 17.3861 16.574C17.2726 16.8481 17.0803 17.0823 16.8336 17.2471C16.587 17.412 16.297 17.4999 16.0003 17.4999C15.6025 17.4999 15.2209 17.3419 14.9396 17.0606C14.6583 16.7793 14.5003 16.3978 14.5003 15.9999ZM12.5278 16.4387C12.5098 16.2931 12.5006 16.1466 12.5003 15.9999C12.5001 15.3155 12.7006 14.6461 13.077 14.0744C13.4533 13.5028 13.989 13.054 14.6178 12.7837C14.6823 12.7556 14.7401 12.7142 14.7875 12.6623C14.8348 12.6103 14.8707 12.5489 14.8928 12.4822C14.9149 12.4154 14.9226 12.3447 14.9155 12.2748C14.9084 12.2048 14.8866 12.1372 14.8515 12.0762L11.344 5.99994C11.2051 5.75891 11.0173 5.54954 10.7928 5.3852C10.5683 5.22086 10.312 5.10517 10.0402 5.04552C9.76846 4.98588 9.48725 4.98359 9.21456 5.0388C8.94187 5.09402 8.68369 5.20552 8.45655 5.36619C6.91887 6.45023 5.63525 7.85562 4.69462 9.48498C3.754 11.1143 3.17886 12.9287 3.00905 14.8024C2.984 15.0822 3.01741 15.3642 3.10714 15.6304C3.19688 15.8965 3.34098 16.1412 3.5303 16.3487C3.71693 16.553 3.94394 16.7164 4.19697 16.8285C4.45 16.9406 4.72355 16.999 5.0003 16.9999H12.0328C12.1035 16.9998 12.1734 16.9846 12.2378 16.9554C12.3023 16.9262 12.3598 16.8837 12.4066 16.8307C12.4533 16.7776 12.4883 16.7153 12.5092 16.6477C12.5301 16.5801 12.5365 16.5089 12.5278 16.4387ZM28.9915 14.8024C28.8217 12.9287 28.2466 11.1143 27.306 9.48498C26.3653 7.85562 25.0817 6.45023 23.544 5.36619C23.3169 5.20552 23.0587 5.09402 22.786 5.0388C22.5133 4.98359 22.2321 4.98588 21.9604 5.04552C21.6886 5.10517 21.4323 5.22086 21.2078 5.3852C20.9833 5.54954 20.7955 5.75891 20.6565 5.99994L17.149 12.0762C17.114 12.1372 17.0922 12.2048 17.0851 12.2748C17.078 12.3447 17.0857 12.4154 17.1078 12.4822C17.1299 12.5489 17.1657 12.6103 17.2131 12.6623C17.2605 12.7142 17.3183 12.7556 17.3828 12.7837C18.0116 13.054 18.5473 13.5028 18.9236 14.0744C19.3 14.6461 19.5005 15.3155 19.5003 15.9999C19.5 16.1466 19.4908 16.2931 19.4728 16.4387C19.4641 16.5093 19.4705 16.581 19.4917 16.6489C19.5129 16.7168 19.5484 16.7794 19.5957 16.8325C19.643 16.8857 19.7011 16.9281 19.7662 16.957C19.8312 16.9858 19.9016 17.0005 19.9728 16.9999H27.0003C27.277 16.999 27.5506 16.9406 27.8036 16.8285C28.0567 16.7164 28.2837 16.553 28.4703 16.3487C28.6596 16.1412 28.8037 15.8965 28.8934 15.6304C28.9832 15.3642 29.0166 15.0822 28.9915 14.8024ZM18.8503 18.9349C18.8145 18.8733 18.7659 18.8201 18.7078 18.7788C18.6497 18.7375 18.5835 18.7091 18.5135 18.6954C18.4436 18.6818 18.3715 18.6833 18.3022 18.6998C18.2329 18.7164 18.1679 18.7475 18.1115 18.7912C17.5037 19.2509 16.7624 19.4997 16.0003 19.4997C15.2382 19.4997 14.4969 19.2509 13.889 18.7912C13.8327 18.7475 13.7677 18.7164 13.6984 18.6998C13.6291 18.6833 13.557 18.6818 13.4871 18.6954C13.4171 18.7091 13.3509 18.7375 13.2928 18.7788C13.2347 18.8201 13.1861 18.8733 13.1503 18.9349L9.65655 24.9887C9.51758 25.2292 9.43022 25.4959 9.40003 25.772C9.36985 26.0481 9.3975 26.3275 9.48122 26.5923C9.56495 26.8571 9.70292 27.1016 9.88633 27.3102C10.0697 27.5187 10.2946 27.6868 10.5465 27.8037C12.2567 28.5918 14.1173 28.9999 16.0003 28.9999C17.8833 28.9999 19.7439 28.5918 21.454 27.8037C21.706 27.6868 21.9308 27.5187 22.1143 27.3102C22.2977 27.1016 22.4356 26.8571 22.5194 26.5923C22.6031 26.3275 22.6307 26.0481 22.6006 25.772C22.5704 25.4959 22.483 25.2292 22.344 24.9887L18.8503 18.9349Z" fill="#1C1C1E"/>
</svg>
