<svg width="32" height="32" viewBox="0 0 32 32" fill="none" xmlns="http://www.w3.org/2000/svg">
<path d="M30.9999 13C30.9998 12.2334 30.7793 11.4831 30.3649 10.8383C29.9505 10.1934 29.3595 9.68126 28.6623 9.3627C27.9652 9.04413 27.1911 8.93259 26.4324 9.04136C25.6736 9.15012 24.9621 9.47461 24.3824 9.9762C22.2887 8.8637 19.7874 8.1912 17.1749 8.03495L17.8237 4.1387L20.0387 4.4787C20.1511 5.17741 20.5068 5.8139 21.0431 6.27567C21.5794 6.73744 22.2616 6.99477 22.9693 7.00216C23.6769 7.00955 24.3644 6.76653 24.9102 6.31606C25.456 5.86559 25.825 5.23667 25.952 4.54046C26.0789 3.84425 25.9556 3.12557 25.604 2.51146C25.2523 1.89734 24.6948 1.42732 24.0301 1.18448C23.3654 0.941634 22.6362 0.941598 21.9715 1.18438C21.3067 1.42716 20.7492 1.89712 20.3974 2.5112L17.1474 2.0112C16.8874 1.97111 16.6221 2.0351 16.409 2.18929C16.1958 2.34348 16.052 2.57546 16.0087 2.83495L15.1499 8.01995C12.4199 8.13745 9.79744 8.81745 7.61744 9.9762C6.82132 9.30366 5.79416 8.96839 4.75457 9.04175C3.71499 9.11511 2.74508 9.59131 2.0513 10.369C1.35751 11.1467 0.99464 12.1644 1.03991 13.2056C1.08518 14.2468 1.53503 15.2292 2.29369 15.9437C2.09926 16.6118 2.00036 17.3041 1.99994 18C1.99994 20.7412 3.49994 23.2937 6.23869 25.1862C8.85994 27 12.3262 28 15.9999 28C19.6737 28 23.1399 27 25.7612 25.1862C28.4999 23.2937 29.9999 20.7412 29.9999 18C29.9995 17.3041 29.9006 16.6118 29.7062 15.9437C30.1128 15.5685 30.4376 15.1134 30.6602 14.6068C30.8828 14.1003 30.9985 13.5532 30.9999 13ZM8.99994 16C8.99994 15.6044 9.11724 15.2177 9.337 14.8888C9.55677 14.5599 9.86913 14.3036 10.2346 14.1522C10.6 14.0008 11.0022 13.9612 11.3901 14.0384C11.7781 14.1156 12.1345 14.306 12.4142 14.5857C12.6939 14.8654 12.8843 15.2218 12.9615 15.6098C13.0387 15.9977 12.9991 16.3999 12.8477 16.7653C12.6963 17.1308 12.44 17.4431 12.1111 17.6629C11.7822 17.8827 11.3955 18 10.9999 18C10.4695 18 9.9608 17.7892 9.58573 17.4142C9.21066 17.0391 8.99994 16.5304 8.99994 16ZM20.4687 22.8837C19.0927 23.615 17.5582 23.9974 15.9999 23.9974C14.4417 23.9974 12.9072 23.615 11.5312 22.8837C11.4151 22.8221 11.3123 22.7383 11.2287 22.637C11.145 22.5358 11.0821 22.419 11.0436 22.2934C11.005 22.1678 10.9916 22.0359 11.0041 21.9051C11.0165 21.7743 11.0546 21.6473 11.1162 21.5312C11.1778 21.4151 11.2616 21.3124 11.3628 21.2287C11.4641 21.145 11.5809 21.0821 11.7065 21.0436C11.8321 21.0051 11.964 20.9916 12.0948 21.0041C12.2256 21.0166 12.3526 21.0546 12.4687 21.1162C13.556 21.6942 14.7685 21.9965 15.9999 21.9965C17.2313 21.9965 18.4439 21.6942 19.5312 21.1162C19.6472 21.0546 19.7743 21.0166 19.9051 21.0041C20.0359 20.9916 20.1678 21.0051 20.2934 21.0436C20.419 21.0821 20.5358 21.145 20.637 21.2287C20.7383 21.3124 20.8221 21.4151 20.8837 21.5312C20.9453 21.6473 20.9833 21.7743 20.9958 21.9051C21.0083 22.0359 20.9948 22.1678 20.9563 22.2934C20.9178 22.419 20.8549 22.5358 20.7712 22.637C20.6875 22.7383 20.5847 22.8221 20.4687 22.8837ZM20.9999 18C20.6044 18 20.2177 17.8827 19.8888 17.6629C19.5599 17.4431 19.3036 17.1308 19.1522 16.7653C19.0008 16.3999 18.9612 15.9977 19.0384 15.6098C19.1155 15.2218 19.306 14.8654 19.5857 14.5857C19.8654 14.306 20.2218 14.1156 20.6098 14.0384C20.9977 13.9612 21.3999 14.0008 21.7653 14.1522C22.1308 14.3036 22.4431 14.5599 22.6629 14.8888C22.8826 15.2177 22.9999 15.6044 22.9999 16C22.9999 16.5304 22.7892 17.0391 22.4142 17.4142C22.0391 17.7892 21.5304 18 20.9999 18Z" fill="#1C1C1E"/>
</svg>
