<svg width="32" height="32" viewBox="0 0 32 32" fill="none" xmlns="http://www.w3.org/2000/svg">
<path d="M2.99981 16C3.00246 13.6139 3.95152 11.3262 5.63877 9.63896C7.32603 7.9517 9.61367 7.00264 11.9998 6.99999H23.9998V4.99999C23.9997 4.8021 24.0582 4.60861 24.1681 4.44401C24.278 4.27942 24.4342 4.15112 24.617 4.07537C24.7998 3.99962 25.001 3.97981 25.1951 4.01846C25.3892 4.05712 25.5675 4.15248 25.7073 4.29249L28.7073 7.29249C28.8003 7.38537 28.874 7.49566 28.9244 7.61705C28.9747 7.73845 29.0006 7.86858 29.0006 7.99999C29.0006 8.13141 28.9747 8.26154 28.9244 8.38293C28.874 8.50433 28.8003 8.61462 28.7073 8.70749L25.7073 11.7075C25.5675 11.8475 25.3892 11.9429 25.1951 11.9815C25.001 12.0202 24.7998 12.0004 24.617 11.9246C24.4342 11.8489 24.278 11.7206 24.1681 11.556C24.0582 11.3914 23.9997 11.1979 23.9998 11V8.99999H11.9998C10.1439 9.00198 8.36458 9.74012 7.05226 11.0524C5.73993 12.3648 5.0018 14.1441 4.99981 16C4.99981 16.2652 4.89445 16.5196 4.70692 16.7071C4.51938 16.8946 4.26503 17 3.99981 17C3.73459 17 3.48024 16.8946 3.2927 16.7071C3.10517 16.5196 2.99981 16.2652 2.99981 16ZM27.9998 15C27.7346 15 27.4802 15.1054 27.2927 15.2929C27.1052 15.4804 26.9998 15.7348 26.9998 16C26.9978 17.8559 26.2597 19.6352 24.9474 20.9475C23.635 22.2599 21.8557 22.998 19.9998 23H7.99981V21C7.99997 20.8021 7.9414 20.6086 7.83153 20.444C7.72166 20.2794 7.56542 20.1511 7.3826 20.0754C7.19978 19.9996 6.99859 19.9798 6.8045 20.0185C6.61042 20.0571 6.43217 20.1525 6.29231 20.2925L3.29231 23.2925C3.19933 23.3854 3.12557 23.4957 3.07525 23.6171C3.02493 23.7385 2.99902 23.8686 2.99902 24C2.99902 24.1314 3.02493 24.2615 3.07525 24.3829C3.12557 24.5043 3.19933 24.6146 3.29231 24.7075L6.29231 27.7075C6.43217 27.8475 6.61042 27.9429 6.8045 27.9815C6.99859 28.0202 7.19978 28.0004 7.3826 27.9246C7.56542 27.8489 7.72166 27.7206 7.83153 27.556C7.9414 27.3914 7.99997 27.1979 7.99981 27V25H19.9998C22.3859 24.9973 24.6736 24.0483 26.3608 22.361C28.0481 20.6738 28.9972 18.3861 28.9998 16C28.9998 15.7348 28.8945 15.4804 28.7069 15.2929C28.5194 15.1054 28.265 15 27.9998 15ZM16.9998 20C17.265 20 17.5194 19.8946 17.7069 19.7071C17.8945 19.5196 17.9998 19.2652 17.9998 19V13C17.9999 12.8294 17.9564 12.6617 17.8735 12.5127C17.7905 12.3637 17.6708 12.2384 17.5257 12.1487C17.3807 12.059 17.2151 12.0079 17.0447 12.0003C16.8743 11.9926 16.7048 12.0287 16.5523 12.105L14.5523 13.105C14.3151 13.2237 14.1348 13.4317 14.051 13.6834C13.9672 13.935 13.9868 14.2097 14.1054 14.4469C14.2241 14.6841 14.4322 14.8644 14.6838 14.9482C14.9355 15.032 15.2101 15.0124 15.4473 14.8937L15.9998 14.6175V19C15.9998 19.2652 16.1052 19.5196 16.2927 19.7071C16.4802 19.8946 16.7346 20 16.9998 20Z" fill="#1C1C1E"/>
</svg>
