<svg width="32" height="32" viewBox="0 0 32 32" fill="none" xmlns="http://www.w3.org/2000/svg">
<path d="M29.0004 8.98001V23.02C28.9986 23.3759 28.9013 23.7248 28.7188 24.0303C28.5363 24.3358 28.2752 24.5868 27.9627 24.7571C27.6502 24.9274 27.2977 25.0107 26.942 24.9985C26.5864 24.9863 26.2405 24.8789 25.9404 24.6875L16.0004 18.3575V23.02C15.9986 23.3759 15.9013 23.7248 15.7188 24.0303C15.5363 24.3358 15.2752 24.5868 14.9627 24.7571C14.6502 24.9274 14.2977 25.0107 13.942 24.9985C13.5864 24.9863 13.2405 24.8789 12.9404 24.6875L1.91667 17.6675C1.63581 17.4893 1.40452 17.2429 1.24427 16.9514C1.08402 16.6599 1 16.3327 1 16C1 15.6674 1.08402 15.3401 1.24427 15.0486C1.40452 14.7571 1.63581 14.5108 1.91667 14.3325L12.9404 7.31251C13.2404 7.12073 13.5864 7.01299 13.9422 7.00054C14.298 6.9881 14.6507 7.07141 14.9633 7.24178C15.2759 7.41215 15.5371 7.66333 15.7195 7.96909C15.902 8.27484 15.999 8.62397 16.0004 8.98001V13.6425L25.9404 7.31251C26.2404 7.12073 26.5864 7.01299 26.9422 7.00054C27.298 6.9881 27.6507 7.07141 27.9633 7.24178C28.2759 7.41215 28.5371 7.66333 28.7195 7.96909C28.902 8.27484 28.999 8.62397 29.0004 8.98001Z" fill="#1C1C1E"/>
</svg>
