<svg width="32" height="32" viewBox="0 0 32 32" fill="none" xmlns="http://www.w3.org/2000/svg">
<path d="M29.8745 23.51L21.7095 9.00001H28.9595C29.2191 9.00572 29.4711 8.91236 29.6643 8.73891C29.8575 8.56546 29.9774 8.32494 29.9995 8.06626C30.0086 7.92947 29.9895 7.79228 29.9433 7.6632C29.8971 7.53412 29.8249 7.41591 29.7311 7.31592C29.6374 7.21593 29.524 7.13629 29.3982 7.08194C29.2723 7.02759 29.1366 6.99971 28.9995 7.00001H3.0333C2.7748 6.99589 2.52436 7.08998 2.33251 7.26327C2.14065 7.43656 2.02167 7.67617 1.99955 7.93376C1.99047 8.07054 2.00961 8.20774 2.05578 8.33682C2.10195 8.46589 2.17417 8.5841 2.26795 8.68409C2.36173 8.78409 2.47506 8.86373 2.60092 8.91807C2.72678 8.97242 2.86246 9.00031 2.99955 9.00001H10.2895L2.12455 23.51C2.01974 23.6963 1.97738 23.9113 2.0037 24.1234C2.03002 24.3356 2.12363 24.5337 2.2708 24.6888C2.3682 24.7888 2.4849 24.8679 2.61383 24.9214C2.74276 24.9749 2.88122 25.0017 3.0208 25H14.4995C14.6322 25 14.7593 24.9473 14.8531 24.8536C14.9469 24.7598 14.9995 24.6326 14.9995 24.5V22.0338C14.9961 21.7757 15.0904 21.5259 15.2637 21.3346C15.4369 21.1432 15.6762 21.0246 15.9333 21.0025C16.0701 20.9934 16.2073 21.0126 16.3364 21.0587C16.4654 21.1049 16.5836 21.1771 16.6836 21.2709C16.7836 21.3647 16.8633 21.478 16.9176 21.6039C16.972 21.7297 16.9999 21.8654 16.9995 22.0025V24.5025C16.9995 24.6351 17.0522 24.7623 17.146 24.8561C17.2398 24.9498 17.3669 25.0025 17.4995 25.0025H28.9708C29.1104 25.0042 29.2488 24.9774 29.3778 24.9239C29.5067 24.8704 29.6234 24.7913 29.7208 24.6913C29.8697 24.5369 29.9651 24.3387 29.9928 24.126C30.0204 23.9133 29.979 23.6974 29.8745 23.51ZM16.9995 17.5C16.9995 17.7652 16.8942 18.0196 16.7067 18.2071C16.5191 18.3947 16.2648 18.5 15.9995 18.5C15.7343 18.5 15.48 18.3947 15.2924 18.2071C15.1049 18.0196 14.9995 17.7652 14.9995 17.5V15.5C14.9995 15.2348 15.1049 14.9804 15.2924 14.7929C15.48 14.6054 15.7343 14.5 15.9995 14.5C16.2648 14.5 16.5191 14.6054 16.7067 14.7929C16.8942 14.9804 16.9995 15.2348 16.9995 15.5V17.5ZM16.9995 11C16.9995 11.2652 16.8942 11.5196 16.7067 11.7071C16.5191 11.8946 16.2648 12 15.9995 12C15.7343 12 15.48 11.8946 15.2924 11.7071C15.1049 11.5196 14.9995 11.2652 14.9995 11V10C14.9995 9.73479 15.1049 9.48044 15.2924 9.2929C15.48 9.10536 15.7343 9.00001 15.9995 9.00001C16.2648 9.00001 16.5191 9.10536 16.7067 9.2929C16.8942 9.48044 16.9995 9.73479 16.9995 10V11Z" fill="#1C1C1E"/>
</svg>
