<svg width="32" height="32" viewBox="0 0 32 32" fill="none" xmlns="http://www.w3.org/2000/svg">
<path d="M12.731 23.8925C12.1672 25.125 10.286 28 4.99974 28C4.73453 28 4.48017 27.8947 4.29264 27.7071C4.1051 27.5196 3.99974 27.2652 3.99974 27C3.99974 21.7138 6.87474 19.8325 8.10724 19.2688C8.22675 19.2143 8.35581 19.1838 8.48708 19.1792C8.61834 19.1746 8.74922 19.1959 8.87226 19.2418C8.9953 19.2878 9.10808 19.3576 9.20416 19.4471C9.30024 19.5367 9.37775 19.6443 9.43224 19.7638C9.48674 19.8833 9.51717 20.0123 9.52179 20.1436C9.52641 20.2749 9.50513 20.4057 9.45916 20.5288C9.4132 20.6518 9.34345 20.7646 9.2539 20.8607C9.16435 20.9568 9.05675 21.0343 8.93724 21.0888C8.13349 21.455 6.35974 22.6338 6.04724 25.9525C9.36599 25.64 10.5472 23.8663 10.911 23.0625C10.9655 22.943 11.043 22.8354 11.1391 22.7459C11.2352 22.6563 11.3479 22.5866 11.471 22.5406C11.594 22.4946 11.7249 22.4734 11.8562 22.478C11.9874 22.4826 12.1165 22.513 12.236 22.5675C12.3555 22.622 12.4631 22.6995 12.5526 22.7956C12.6422 22.8917 12.7119 23.0045 12.7579 23.1275C12.8039 23.2505 12.8252 23.3814 12.8205 23.5127C12.8159 23.6439 12.7855 23.773 12.731 23.8925ZM27.981 5.89252C27.9514 5.40492 27.7443 4.94503 27.3989 4.59962C27.0535 4.2542 26.5936 4.04715 26.106 4.01752C24.5335 3.92377 20.5147 4.06751 17.181 7.40126L10.9997 13.5875C10.9069 13.6805 10.7967 13.7543 10.6753 13.8047C10.554 13.8551 10.4239 13.8811 10.2925 13.8812C10.0271 13.8814 9.77255 13.7762 9.58474 13.5888C9.39694 13.4013 9.2913 13.1469 9.29106 12.8815C9.29083 12.6162 9.39602 12.3616 9.58349 12.1738L12.9035 8.85252C12.973 8.7826 13.0203 8.6937 13.0394 8.59698C13.0585 8.50027 13.0486 8.40006 13.011 8.30895C12.9733 8.21785 12.9095 8.13991 12.8277 8.08495C12.7458 8.02998 12.6496 8.00043 12.551 8.00002H9.29349C9.03004 7.99863 8.76894 8.04963 8.52538 8.15006C8.28182 8.25049 8.06065 8.39834 7.87474 8.58502L3.58724 12.875C3.3243 13.1378 3.1398 13.4686 3.05443 13.8304C2.96906 14.1922 2.98621 14.5706 3.10396 14.9232C3.2217 15.2758 3.43538 15.5886 3.72102 15.8265C4.00665 16.0644 4.35293 16.218 4.72099 16.27L9.52974 16.9413L15.056 22.4675L15.7272 27.2788C15.7789 27.6469 15.9324 27.9932 16.1705 28.2786C16.4087 28.5639 16.7219 28.777 17.0747 28.8938C17.2803 28.9624 17.4955 28.9975 17.7122 28.9975C17.9746 28.998 18.2345 28.9466 18.477 28.8462C18.7194 28.7458 18.9395 28.5984 19.1247 28.4125L23.4147 24.125C23.6009 23.9387 23.7483 23.7174 23.8487 23.474C23.9491 23.2305 24.0004 22.9696 23.9997 22.7063V19.4488C23.9996 19.3499 23.9701 19.2533 23.9151 19.1712C23.8601 19.0891 23.7819 19.0252 23.6906 18.9875C23.5992 18.9497 23.4987 18.9399 23.4018 18.9593C23.3049 18.9787 23.2158 19.0263 23.146 19.0963L19.8247 22.4163C19.7276 22.5135 19.6115 22.5897 19.4836 22.64C19.3557 22.6904 19.2188 22.7138 19.0814 22.7089C18.9441 22.704 18.8092 22.6708 18.6853 22.6114C18.5613 22.552 18.4509 22.4677 18.361 22.3638C18.197 22.1653 18.1136 21.9124 18.1275 21.6554C18.1414 21.3983 18.2515 21.1559 18.436 20.9763L24.5947 14.8175C27.931 11.4825 28.0747 7.46377 27.981 5.89002V5.89252Z" fill="#1C1C1E"/>
</svg>
