<svg width="32" height="32" viewBox="0 0 32 32" fill="none" xmlns="http://www.w3.org/2000/svg">
<path d="M19.0003 28C19.0003 28.2652 18.8949 28.5195 18.7074 28.7071C18.5199 28.8946 18.2655 29 18.0003 29H14.0003C13.7351 29 13.4807 28.8946 13.2932 28.7071C13.1056 28.5195 13.0003 28.2652 13.0003 28C13.0003 27.7348 13.1056 27.4804 13.2932 27.2929C13.4807 27.1053 13.7351 27 14.0003 27H18.0003C18.2655 27 18.5199 27.1053 18.7074 27.2929C18.8949 27.4804 19.0003 27.7348 19.0003 28ZM27.9528 19.4787L26.4078 26.4325C26.3345 26.7627 26.1786 27.0689 25.9548 27.3225C25.731 27.5761 25.4465 27.7688 25.1279 27.8826C24.8094 27.9963 24.4672 28.0274 24.1334 27.973C23.7995 27.9185 23.4849 27.7803 23.219 27.5712L19.814 25H12.189L8.78154 27.5712C8.51565 27.7803 8.20107 27.9185 7.86723 27.973C7.53339 28.0274 7.19119 27.9963 6.87264 27.8826C6.55409 27.7688 6.2696 27.5761 6.04577 27.3225C5.82194 27.0689 5.66609 26.7627 5.59279 26.4325L4.04779 19.4787C3.98226 19.1803 3.98557 18.8709 4.05747 18.5739C4.12938 18.277 4.26799 18.0003 4.46279 17.765L8.03279 13.4825C8.15261 11.9086 8.51393 10.3626 9.10404 8.89872C10.7165 4.85622 13.604 2.31997 14.7753 1.41747C15.1259 1.14583 15.5568 0.998413 16.0003 0.998413C16.4438 0.998413 16.8747 1.14583 17.2253 1.41747C18.3928 2.31997 21.284 4.85622 22.8965 8.89872C23.4867 10.3626 23.848 11.9086 23.9678 13.4825L27.5378 17.765C27.7326 18.0003 27.8712 18.277 27.9431 18.5739C28.015 18.8709 28.0183 19.1803 27.9528 19.4787ZM10.549 23.7287C9.20654 21.2846 8.39154 18.8816 8.10404 16.52L6.00029 19.045L7.54529 26L7.56779 25.9837L10.549 23.7287ZM17.5003 12.5C17.5003 12.2033 17.4123 11.9133 17.2475 11.6666C17.0827 11.4199 16.8484 11.2277 16.5743 11.1142C16.3002 11.0006 15.9986 10.9709 15.7077 11.0288C15.4167 11.0867 15.1494 11.2295 14.9396 11.4393C14.7299 11.6491 14.587 11.9164 14.5291 12.2073C14.4712 12.4983 14.5009 12.7999 14.6145 13.074C14.728 13.3481 14.9203 13.5824 15.1669 13.7472C15.4136 13.912 15.7036 14 16.0003 14C16.3981 14 16.7796 13.8419 17.061 13.5606C17.3423 13.2793 17.5003 12.8978 17.5003 12.5ZM26.0003 19.045L23.8965 16.52C23.6115 18.8766 22.7965 21.2804 21.4515 23.7312L24.4328 25.9812L24.4553 25.9975L26.0003 19.045Z" fill="#1C1C1E"/>
</svg>
