<svg width="32" height="32" viewBox="0 0 32 32" fill="none" xmlns="http://www.w3.org/2000/svg">
<path d="M19.9996 17.5V9.10621C19.9985 9.00418 20.0286 8.90424 20.0859 8.81982C20.1432 8.73539 20.225 8.67053 20.3203 8.63392C20.4155 8.59732 20.5197 8.59074 20.6188 8.61505C20.7179 8.63937 20.8072 8.69343 20.8746 8.76996L27.7496 16.3275C27.9077 16.501 27.9996 16.7245 28.0095 16.959C28.0193 17.1934 27.9463 17.4239 27.8034 17.61C27.7053 17.7336 27.5802 17.8331 27.4376 17.9008C27.295 17.9684 27.1387 18.0023 26.9809 18H20.4996C20.367 18 20.2399 17.9473 20.1461 17.8535C20.0523 17.7597 19.9996 17.6326 19.9996 17.5ZM30.9009 21.5662C30.8192 21.3966 30.6913 21.2534 30.5319 21.1532C30.3724 21.053 30.1879 20.9999 29.9996 21H17.9996V0.999964C17.9985 0.793839 17.9338 0.593094 17.8142 0.425204C17.6946 0.257313 17.526 0.13048 17.3316 0.0620626C17.1371 -0.00635479 16.9263 -0.0130134 16.7279 0.042998C16.5296 0.0990095 16.3533 0.214954 16.2234 0.374964L3.2234 16.375C3.10588 16.5217 3.03212 16.6987 3.01059 16.8855C2.98906 17.0723 3.02063 17.2613 3.10168 17.431C3.18273 17.6007 3.30997 17.7441 3.4688 17.8447C3.62763 17.9453 3.81162 17.9991 3.99965 18H15.9996V21H1.99965C1.8112 20.9998 1.62655 21.053 1.46698 21.1532C1.30741 21.2535 1.17943 21.3968 1.09777 21.5667C1.01612 21.7365 0.984115 21.926 1.00546 22.1132C1.0268 22.3005 1.10062 22.4779 1.2184 22.625L4.9184 27.25C5.10535 27.4845 5.34287 27.6737 5.61321 27.8036C5.88355 27.9335 6.17973 28.0006 6.47965 28H25.5196C25.8196 28.0006 26.1157 27.9335 26.3861 27.8036C26.6564 27.6737 26.8939 27.4845 27.0809 27.25L30.7809 22.625C30.8987 22.4777 30.9724 22.3002 30.9937 22.1129C31.0149 21.9256 30.9827 21.7361 30.9009 21.5662Z" fill="#1C1C1E"/>
</svg>
