<svg width="32" height="32" viewBox="0 0 32 32" fill="none" xmlns="http://www.w3.org/2000/svg">
<path d="M29.565 23.3861L11.69 11.1523C12.0839 10.1572 12.1102 9.05437 11.7643 8.04161C11.4184 7.02886 10.7229 6.17253 9.80256 5.62633C8.88225 5.08012 7.79739 4.87979 6.74269 5.06129C5.688 5.24279 4.73251 5.79423 4.04772 6.61665C3.36292 7.43907 2.99365 8.47863 3.00617 9.54876C3.01869 10.6189 3.41219 11.6495 4.11604 12.4557C4.8199 13.2619 5.78803 13.7908 6.84668 13.9476C7.90533 14.1043 8.9852 13.8787 9.89249 13.3111L12.5662 16.0223L9.89374 18.6923C8.98853 18.1271 7.91153 17.9028 6.85594 18.0598C5.80034 18.2168 4.83521 18.7447 4.13365 19.5489C3.4321 20.3531 3.04003 21.381 3.02776 22.4481C3.01549 23.5153 3.38383 24.5518 4.06671 25.372C4.74959 26.1921 5.70233 26.7421 6.75404 26.9233C7.80575 27.1045 8.88761 26.9051 9.80558 26.3608C10.7235 25.8165 11.4176 24.9629 11.7631 23.9532C12.1087 22.9435 12.0832 21.8437 11.6912 20.8511L15.055 18.5498L21.25 24.8298C22.0044 25.5791 23.0242 26 24.0875 26.0011C24.2593 26.001 24.4309 25.9898 24.6012 25.9673H24.6362L29.17 25.2036C29.3669 25.1707 29.5494 25.0797 29.6941 24.9422C29.8388 24.8047 29.9391 24.627 29.9819 24.4321C30.0248 24.2371 30.0084 24.0338 29.9348 23.8483C29.8611 23.6628 29.7336 23.5035 29.5687 23.3911L29.565 23.3861ZM9.26749 11.2611C8.85825 11.6702 8.31976 11.9247 7.74385 11.9811C7.16795 12.0376 6.5903 11.8925 6.10942 11.5706C5.62853 11.2487 5.2742 10.77 5.10684 10.2161C4.93948 9.66214 4.96946 9.0673 5.19168 8.53301C5.41389 7.99871 5.81457 7.55804 6.32538 7.28616C6.83619 7.01428 7.42551 6.92802 7.99281 7.04209C8.56012 7.15616 9.07029 7.46349 9.43632 7.91169C9.80235 8.35988 10.0016 8.92116 9.99999 9.49982C9.99952 10.1624 9.73606 10.7976 9.26749 11.2661V11.2611ZM9.26749 24.2611C8.85825 24.6702 8.31976 24.9247 7.74385 24.9811C7.16795 25.0376 6.5903 24.8925 6.10942 24.5706C5.62853 24.2487 5.2742 23.77 5.10684 23.2161C4.93948 22.6621 4.96946 22.0673 5.19168 21.533C5.41389 20.9987 5.81457 20.558 6.32538 20.2862C6.83619 20.0143 7.42551 19.928 7.99281 20.0421C8.56012 20.1562 9.07029 20.4635 9.43632 20.9117C9.80235 21.3599 10.0016 21.9212 9.99999 22.4998C10.0001 22.8283 9.93544 23.1536 9.80975 23.4571C9.68407 23.7606 9.4998 24.0363 9.26749 24.2686V24.2611ZM16.8925 11.5736L21.2425 7.17482C21.6774 6.7409 22.2059 6.41233 22.7874 6.21429C23.369 6.01625 23.9882 5.954 24.5975 6.03232H24.6325L29.1325 6.79107C29.2942 6.81581 29.4477 6.87886 29.5801 6.97497C29.7126 7.07108 29.8201 7.19746 29.8937 7.34357C29.9993 7.55936 30.0237 7.80594 29.9624 8.03823C29.9011 8.27051 29.7583 8.47297 29.56 8.60857L20.8187 14.5898C20.7357 14.6465 20.6374 14.6769 20.5369 14.6769C20.4363 14.6769 20.3381 14.6465 20.255 14.5898L16.9662 12.3398C16.907 12.2981 16.8576 12.2439 16.8214 12.1812C16.7851 12.1184 16.763 12.0485 16.7565 11.9763C16.7499 11.9042 16.7591 11.8314 16.7835 11.7632C16.8078 11.6949 16.8467 11.6328 16.8975 11.5811L16.8925 11.5736Z" fill="#1C1C1E"/>
</svg>
