<svg width="32" height="32" viewBox="0 0 32 32" fill="none" xmlns="http://www.w3.org/2000/svg">
<path d="M29.1539 2.84423C27.9713 1.6633 26.3683 1 24.697 1C23.0258 1 21.4228 1.6633 20.2402 2.84423L13.5852 9.50047C13.3994 9.68572 13.252 9.90589 13.1516 10.1483C13.0512 10.3907 12.9997 10.6506 13.0002 10.913V13.0005H10.8964C10.4607 13.0016 10.0371 13.1436 9.68892 13.4055C9.65274 13.4331 9.61849 13.4632 9.58642 13.4955L8.58642 14.4955C8.40065 14.6812 8.25329 14.9017 8.15275 15.1444C8.05221 15.3871 8.00047 15.6472 8.00047 15.9099C8.00047 16.1725 8.05221 16.4326 8.15275 16.6753C8.25329 16.918 8.40065 17.1385 8.58642 17.3242L10.9239 19.663L1.29892 29.2942C1.20601 29.3871 1.1323 29.4974 1.08202 29.6188C1.03174 29.7402 1.00586 29.8703 1.00586 30.0017C1.00586 30.1331 1.03174 30.2632 1.08202 30.3846C1.1323 30.506 1.20601 30.6163 1.29892 30.7092C1.48656 30.8969 1.74105 31.0023 2.00642 31.0023C2.13781 31.0023 2.26792 30.9764 2.38931 30.9261C2.5107 30.8758 2.62101 30.8021 2.71392 30.7092L12.3389 21.0767L14.6777 23.4155C15.0527 23.7903 15.5612 24.0008 16.0914 24.0008C16.6216 24.0008 17.1301 23.7903 17.5052 23.4155L18.5052 22.4155C18.5375 22.383 18.5676 22.3483 18.5952 22.3117C18.8586 21.9643 19.0012 21.5402 19.0014 21.1042V19.0005H21.0877C21.3503 19.001 21.6104 18.9493 21.8529 18.8485C22.0953 18.7476 22.3154 18.5996 22.5002 18.413L29.1539 11.7592C29.7393 11.1739 30.2036 10.4789 30.5205 9.71412C30.8373 8.9493 31.0003 8.12956 31.0003 7.30173C31.0003 6.47389 30.8373 5.65415 30.5205 4.88933C30.2036 4.12451 29.7393 3.42959 29.1539 2.84423ZM25.7077 7.70548L18.7077 14.7055C18.5202 14.8931 18.2659 14.9986 18.0006 14.9987C17.7354 14.9988 17.4809 14.8936 17.2933 14.7061C17.1056 14.5186 17.0002 14.2643 17.0001 13.999C16.9999 13.7338 17.1052 13.4794 17.2927 13.2917L24.2927 6.29173C24.4803 6.10408 24.7348 5.99867 25.0002 5.99867C25.2655 5.99867 25.52 6.10408 25.7077 6.29173C25.8953 6.47937 26.0007 6.73386 26.0007 6.99923C26.0007 7.26459 25.8953 7.51908 25.7077 7.70673V7.70548Z" fill="#1C1C1E"/>
</svg>
