<svg width="32" height="32" viewBox="0 0 32 32" fill="none" xmlns="http://www.w3.org/2000/svg">
<path d="M16.0002 14C14.9124 14 13.8491 13.6774 12.9446 13.0731C12.0401 12.4687 11.3352 11.6098 10.9189 10.6048C10.5026 9.59977 10.3937 8.4939 10.6059 7.42701C10.8181 6.36011 11.3419 5.3801 12.1111 4.61092C12.8803 3.84173 13.8603 3.3179 14.9272 3.10568C15.9941 2.89346 17.1 3.00238 18.105 3.41867C19.11 3.83495 19.969 4.5399 20.5733 5.44437C21.1777 6.34884 21.5002 7.41221 21.5002 8.5C21.4986 9.95819 20.9186 11.3562 19.8875 12.3873C18.8564 13.4184 17.4584 13.9983 16.0002 14ZM25.0002 27H9.64523L24.6615 13.75C24.7121 13.7051 24.7582 13.6553 24.799 13.6013C24.936 13.4185 25.007 13.1946 25.0002 12.9663C24.9939 12.7767 24.9338 12.5929 24.8269 12.4362C24.7201 12.2795 24.5709 12.1565 24.3967 12.0814C24.2226 12.0063 24.0306 11.9823 23.8434 12.0121C23.6561 12.042 23.4811 12.1245 23.339 12.25L20.2715 14.9563C18.8694 14.2935 17.3325 13.9659 15.7821 13.9994C14.2317 14.0329 12.7103 14.4265 11.3382 15.1491C9.96604 15.8717 8.78078 16.9035 7.87605 18.163C6.97132 19.4226 6.37193 20.8752 6.12523 22.4063C6.11802 22.4518 6.11385 22.4977 6.11273 22.5438L6.00023 27.9788C5.9974 28.1119 6.02117 28.2442 6.07016 28.368C6.11915 28.4918 6.19236 28.6045 6.2855 28.6996C6.37864 28.7948 6.48984 28.8703 6.61257 28.9219C6.7353 28.9735 6.8671 29 7.00023 29H25.0002C25.2654 29 25.5198 28.8946 25.7073 28.7071C25.8949 28.5196 26.0002 28.2652 26.0002 28C26.0002 27.7348 25.8949 27.4804 25.7073 27.2929C25.5198 27.1054 25.2654 27 25.0002 27ZM23.5152 17.875C23.3753 17.8581 23.2333 17.8709 23.0987 17.9127C22.964 17.9545 22.8397 18.0243 22.734 18.1175L14.934 25H25.0002C25.2654 25 25.5198 24.8946 25.7073 24.7071C25.8949 24.5196 26.0002 24.2652 26.0002 24C26.0039 21.9613 25.3812 19.9707 24.2165 18.2975C24.136 18.1816 24.0319 18.084 23.9111 18.0112C23.7902 17.9384 23.6553 17.892 23.5152 17.875Z" fill="#1C1C1E"/>
</svg>
