<svg width="32" height="32" viewBox="0 0 32 32" fill="none" xmlns="http://www.w3.org/2000/svg">
<path d="M30.9997 16.9997C30.7345 16.9997 30.4802 17.1051 30.2926 17.2926C30.1051 17.4801 29.9997 17.7345 29.9997 17.9997V19.9997H24.4135L22.1247 17.7072L28.4172 11.4134C28.792 11.0384 29.0026 10.5299 29.0026 9.9997C29.0026 9.46949 28.792 8.96098 28.4172 8.58595L23.7072 3.8747L21.4135 1.58595C21.2278 1.40018 21.0073 1.25282 20.7646 1.15228C20.5219 1.05175 20.2618 1 19.9991 1C19.7364 1 19.4763 1.05175 19.2336 1.15228C18.991 1.25282 18.7705 1.40018 18.5847 1.58595L0.364736 19.8672C0.190327 20.0422 0.0716698 20.2649 0.0237466 20.5072C-0.0241766 20.7496 0.000783347 21.0007 0.0954748 21.2288C0.190166 21.457 0.350343 21.652 0.555779 21.7892C0.761215 21.9264 1.0027 21.9996 1.24974 21.9997H6.17099L10.586 26.4134C10.961 26.7882 11.4695 26.9988 11.9997 26.9988C12.5299 26.9988 13.0385 26.7882 13.4135 26.4134L20.7072 19.1247L22.9997 21.4134C23.1848 21.6 23.4051 21.7479 23.6478 21.8485C23.8905 21.9491 24.1507 22.0005 24.4135 21.9997H29.9997V23.9997C29.9997 24.2649 30.1051 24.5193 30.2926 24.7068C30.4802 24.8943 30.7345 24.9997 30.9997 24.9997C31.265 24.9997 31.5193 24.8943 31.7068 24.7068C31.8944 24.5193 31.9997 24.2649 31.9997 23.9997V17.9997C31.9997 17.7345 31.8944 17.4801 31.7068 17.2926C31.5193 17.1051 31.265 16.9997 30.9997 16.9997ZM19.9997 2.9997L21.586 4.58595L6.17099 19.9997H3.05724L19.9997 2.9997Z" fill="#1C1C1E"/>
</svg>
