<svg width="32" height="32" viewBox="0 0 32 32" fill="none" xmlns="http://www.w3.org/2000/svg">
<path d="M26.4996 25C26.4997 25.6568 26.356 26.3057 26.0786 26.901C25.8012 27.4964 25.3969 28.0238 24.894 28.4463C24.391 28.8687 23.8017 29.1759 23.1674 29.3464C22.5331 29.5169 21.8692 29.5464 21.2223 29.4329C20.5753 29.3195 19.9611 29.0658 19.4226 28.6897C18.8842 28.3135 18.4346 27.8241 18.1055 27.2557C17.7763 26.6873 17.5756 26.0538 17.5173 25.3996C17.4591 24.7454 17.5448 24.0863 17.7684 23.4687L11.1434 19.2125C10.5106 19.8332 9.70869 20.2531 8.83817 20.4198C7.96765 20.5864 7.06731 20.4922 6.2501 20.1491C5.43289 19.806 4.7352 19.2292 4.24456 18.491C3.75392 17.7529 3.49219 16.8863 3.49219 16C3.49219 15.1137 3.75392 14.2471 4.24456 13.509C4.7352 12.7708 5.43289 12.194 6.2501 11.8509C7.06731 11.5078 7.96765 11.4136 8.83817 11.5802C9.70869 11.7469 10.5106 12.1668 11.1434 12.7875L17.7684 8.5375C17.389 7.49505 17.407 6.34938 17.819 5.31939C18.231 4.2894 19.008 3.44731 20.0016 2.95404C20.9952 2.46076 22.1358 2.35088 23.2053 2.64539C24.2748 2.93991 25.1983 3.61816 25.7994 4.55056C26.4004 5.48296 26.6368 6.60412 26.4634 7.69981C26.29 8.79551 25.719 9.78891 24.8595 10.4902C24 11.1915 22.9122 11.5515 21.804 11.5014C20.6958 11.4513 19.6449 10.9947 18.8521 10.2187L12.2271 14.475C12.5852 15.4644 12.5852 16.5481 12.2271 17.5375L18.8521 21.7937C19.4846 21.1747 20.2857 20.7559 21.155 20.5898C22.0243 20.4237 22.9233 20.5176 23.7395 20.8598C24.5557 21.202 25.2529 21.7773 25.7439 22.5137C26.2348 23.2501 26.4977 24.1149 26.4996 25Z" fill="#1C1C1E"/>
</svg>
