<svg width="32" height="32" viewBox="0 0 32 32" fill="none" xmlns="http://www.w3.org/2000/svg">
<path d="M29.7074 14.7075L19.7074 24.7075C19.5676 24.8475 19.3893 24.9429 19.1952 24.9815C19.0011 25.0202 18.8 25.0004 18.6171 24.9246C18.4343 24.8489 18.2781 24.7206 18.1682 24.556C18.0583 24.3914 17.9998 24.1979 17.9999 24V19.0287C10.8624 19.4337 5.96867 24.0625 4.59492 25.5287C4.37921 25.7591 4.09634 25.9156 3.78655 25.9759C3.47677 26.0362 3.15586 25.9972 2.86949 25.8645C2.58313 25.7319 2.34591 25.5123 2.19158 25.237C2.03725 24.9617 1.97368 24.6448 2.00992 24.3312C2.47367 20.2987 4.68242 16.42 8.22992 13.41C11.1762 10.91 14.7574 9.32374 17.9999 9.04624V3.99999C17.9998 3.8021 18.0583 3.60861 18.1682 3.44401C18.2781 3.27942 18.4343 3.15112 18.6171 3.07537C18.8 2.99962 19.0011 2.97981 19.1952 3.01846C19.3893 3.05712 19.5676 3.15248 19.7074 3.29249L29.7074 13.2925C29.8004 13.3854 29.8742 13.4957 29.9245 13.6171C29.9748 13.7385 30.0007 13.8686 30.0007 14C30.0007 14.1314 29.9748 14.2615 29.9245 14.3829C29.8742 14.5043 29.8004 14.6146 29.7074 14.7075Z" fill="#1C1C1E"/>
</svg>
