<svg width="32" height="32" viewBox="0 0 32 32" fill="none" xmlns="http://www.w3.org/2000/svg">
<path d="M28.7075 13.7075L22.7075 19.7075C22.5676 19.8475 22.3894 19.9429 22.1953 19.9815C22.0012 20.0202 21.8 20.0004 21.6172 19.9246C21.4344 19.8489 21.2782 19.7206 21.1683 19.556C21.0584 19.3914 20.9998 19.1979 21 19V14H20.625C18.1858 13.9993 15.8156 14.8094 13.8871 16.3028C11.9585 17.7962 10.581 19.8883 9.97125 22.25C9.90495 22.5069 9.73929 22.727 9.51073 22.8618C9.28217 22.9966 9.00943 23.035 8.7525 22.9687C8.49557 22.9024 8.27551 22.7368 8.14071 22.5082C8.00592 22.2797 7.96745 22.0069 8.03375 21.75C8.75327 18.9582 10.3809 16.4849 12.6605 14.7198C14.94 12.9546 17.7419 11.9978 20.625 12H21V6.99999C20.9998 6.8021 21.0584 6.60861 21.1683 6.44401C21.2782 6.27942 21.4344 6.15112 21.6172 6.07537C21.8 5.99962 22.0012 5.97981 22.1953 6.01846C22.3894 6.05712 22.5676 6.15248 22.7075 6.29249L28.7075 12.2925C28.8005 12.3854 28.8742 12.4957 28.9246 12.6171C28.9749 12.7385 29.0008 12.8686 29.0008 13C29.0008 13.1314 28.9749 13.2615 28.9246 13.3829C28.8742 13.5043 28.8005 13.6146 28.7075 13.7075ZM24 26H5V11C5 10.7348 4.89464 10.4804 4.70711 10.2929C4.51957 10.1054 4.26522 9.99999 4 9.99999C3.73478 9.99999 3.48043 10.1054 3.29289 10.2929C3.10536 10.4804 3 10.7348 3 11V27C3 27.2652 3.10536 27.5196 3.29289 27.7071C3.48043 27.8946 3.73478 28 4 28H24C24.2652 28 24.5196 27.8946 24.7071 27.7071C24.8946 27.5196 25 27.2652 25 27C25 26.7348 24.8946 26.4804 24.7071 26.2929C24.5196 26.1054 24.2652 26 24 26Z" fill="#1C1C1E"/>
</svg>
