<svg width="32" height="32" viewBox="0 0 32 32" fill="none" xmlns="http://www.w3.org/2000/svg">
<path d="M28 6.99969V13.9997C28 17.1547 27.2687 19.7147 26.2125 21.7672C26.1757 21.8394 26.122 21.9016 26.0559 21.9484C25.9898 21.9952 25.9133 22.0253 25.8329 22.036C25.7526 22.0467 25.6709 22.0377 25.5949 22.0098C25.5188 21.9819 25.4506 21.936 25.3962 21.8759L10.815 5.83594C10.7496 5.76394 10.7066 5.67443 10.6913 5.57836C10.6759 5.48229 10.689 5.38384 10.7288 5.29508C10.7686 5.20631 10.8334 5.13108 10.9154 5.07862C10.9973 5.02615 11.0927 4.99872 11.19 4.99969H26C26.5304 4.99969 27.0391 5.2104 27.4142 5.58547C27.7893 5.96055 28 6.46925 28 6.99969ZM6.74 4.32719C6.58962 4.16227 6.38839 4.0524 6.16835 4.01507C5.94831 3.97773 5.72211 4.01508 5.52575 4.12117C5.32939 4.22726 5.17416 4.39598 5.08478 4.60048C4.9954 4.80499 4.97699 5.03351 5.0325 5.24969C4.71976 5.42255 4.45904 5.67604 4.27746 5.9838C4.09588 6.29156 4.00007 6.64235 4 6.99969V13.9997C4 20.5897 7.19 24.5834 9.86625 26.7734C12.7487 29.1309 15.6163 29.9322 15.7413 29.9647C15.9131 30.0114 16.0944 30.0114 16.2663 29.9647C16.3913 29.9322 19.255 29.1309 22.1413 26.7734C22.5795 26.4124 22.9988 26.029 23.3975 25.6247L25.26 27.6722C25.3478 27.7712 25.4544 27.8518 25.5736 27.9093C25.6928 27.9667 25.8222 28 25.9543 28.0071C26.0865 28.0142 26.2187 27.995 26.3434 27.9507C26.4681 27.9063 26.5827 27.8376 26.6806 27.7486C26.7785 27.6596 26.8578 27.5521 26.9139 27.4322C26.97 27.3123 27.0017 27.1825 27.0072 27.0503C27.0127 26.9181 26.9919 26.7861 26.9461 26.662C26.9002 26.5378 26.8302 26.424 26.74 26.3272L6.74 4.32719Z" fill="#1C1C1E"/>
</svg>
