<svg width="32" height="32" viewBox="0 0 32 32" fill="none" xmlns="http://www.w3.org/2000/svg">
<path d="M29.4046 10.5476L25.8971 13.5076L26.9671 17.9314C27.0447 18.2516 27.0257 18.5877 26.9125 18.8972C26.7992 19.2066 26.5968 19.4756 26.3308 19.6701C26.0617 19.8679 25.74 19.9816 25.4064 19.997C25.0727 20.0123 24.742 19.9286 24.4558 19.7564L20.4996 17.3751L16.5433 19.7576C16.2573 19.9303 15.9265 20.0143 15.5927 19.999C15.259 19.9836 14.9373 19.8696 14.6683 19.6714C14.4019 19.4772 14.199 19.2083 14.0855 18.8988C13.972 18.5893 13.953 18.253 14.0308 17.9326L15.1008 13.5089L11.5946 10.5476C11.3407 10.333 11.1564 10.0476 11.0653 9.72784C10.9743 9.40808 10.9805 9.06844 11.0832 8.75223C11.1859 8.43602 11.3805 8.15756 11.6421 7.95237C11.9037 7.74718 12.2205 7.62455 12.5521 7.60012L17.1696 7.23512L18.9458 3.02762C19.0756 2.72293 19.292 2.46311 19.5683 2.28048C19.8446 2.09786 20.1684 2.00049 20.4996 2.00049C20.8307 2.00049 21.1546 2.09786 21.4309 2.28048C21.7071 2.46311 21.9236 2.72293 22.0533 3.02762L23.8296 7.23512L28.4471 7.60012C28.7787 7.62455 29.0954 7.74718 29.3571 7.95237C29.6187 8.15756 29.8132 8.43602 29.916 8.75223C30.0187 9.06844 30.0249 9.40808 29.9338 9.72784C29.8427 10.0476 29.6585 10.333 29.4046 10.5476ZM11.0133 13.9864C10.9205 13.8934 10.8102 13.8196 10.6888 13.7693C10.5674 13.719 10.4372 13.6931 10.3058 13.6931C10.1744 13.6931 10.0443 13.719 9.92289 13.7693C9.80149 13.8196 9.6912 13.8934 9.59833 13.9864L2.29208 21.2926C2.10444 21.4803 1.99902 21.7348 1.99902 22.0001C1.99902 22.2655 2.10444 22.52 2.29208 22.7076C2.47972 22.8953 2.73422 23.0007 2.99958 23.0007C3.26494 23.0007 3.51944 22.8953 3.70708 22.7076L11.0133 15.4014C11.1063 15.3085 11.1801 15.1982 11.2304 15.0768C11.2807 14.9554 11.3066 14.8253 11.3066 14.6939C11.3066 14.5625 11.2807 14.4323 11.2304 14.3109C11.1801 14.1895 11.1063 14.0792 11.0133 13.9864ZM10.9508 21.6351L4.29208 28.2926C4.19917 28.3855 4.12547 28.4958 4.07519 28.6172C4.0249 28.7386 3.99902 28.8687 3.99902 29.0001C3.99902 29.1315 4.0249 29.2616 4.07519 29.383C4.12547 29.5044 4.19917 29.6147 4.29208 29.7076C4.47972 29.8953 4.73422 30.0007 4.99958 30.0007C5.13097 30.0007 5.26108 29.9748 5.38248 29.9245C5.50387 29.8742 5.61417 29.8005 5.70708 29.7076L12.3646 23.0489C12.5442 22.8598 12.6429 22.6081 12.6395 22.3473C12.6362 22.0865 12.5311 21.8374 12.3467 21.653C12.1623 21.4686 11.9132 21.3635 11.6524 21.3602C11.3916 21.3568 11.1399 21.4555 10.9508 21.6351ZM20.0758 21.5101L13.2896 28.2951C13.1967 28.388 13.123 28.4983 13.0727 28.6197C13.0224 28.7411 12.9965 28.8712 12.9965 29.0026C12.9965 29.134 13.0224 29.2641 13.0727 29.3855C13.123 29.5069 13.1967 29.6172 13.2896 29.7101C13.4772 29.8978 13.7317 30.0032 13.9971 30.0032C14.1285 30.0032 14.2586 29.9773 14.38 29.927C14.5014 29.8767 14.6117 29.803 14.7046 29.7101L21.4896 22.9251C21.6772 22.7376 21.7827 22.4833 21.7828 22.2181C21.7829 21.9528 21.6777 21.6984 21.4902 21.5107C21.3027 21.3231 21.0484 21.2176 20.7831 21.2175C20.5179 21.2174 20.2635 21.3226 20.0758 21.5101Z" fill="#1C1C1E"/>
</svg>
