<svg width="32" height="32" viewBox="0 0 32 32" fill="none" xmlns="http://www.w3.org/2000/svg">
<path d="M30.7075 8.70708C30.6146 8.80006 30.5043 8.87381 30.3829 8.92414C30.2616 8.97446 30.1314 9.00037 30 9.00037C29.8686 9.00037 29.7385 8.97446 29.6171 8.92414C29.4957 8.87381 29.3854 8.80006 29.2925 8.70708L27 6.41333L18.125 15.2883L16.7075 13.8746L25.5825 4.99958L23.2925 2.70708C23.1996 2.61417 23.1259 2.50387 23.0756 2.38248C23.0253 2.26108 22.9995 2.13097 22.9995 1.99958C22.9995 1.86818 23.0253 1.73808 23.0756 1.61668C23.1259 1.49529 23.1996 1.38499 23.2925 1.29208C23.4802 1.10444 23.7346 0.999023 24 0.999023C24.1314 0.999023 24.2615 1.0249 24.3829 1.07519C24.5043 1.12547 24.6146 1.19917 24.7075 1.29208L30.7075 7.29208C30.8005 7.38495 30.8742 7.49524 30.9246 7.61664C30.9749 7.73804 31.0008 7.86816 31.0008 7.99958C31.0008 8.13099 30.9749 8.26112 30.9246 8.38252C30.8742 8.50392 30.8005 8.61421 30.7075 8.70708ZM11 21.9996C10.8021 21.9997 10.6086 21.9412 10.444 21.8313C10.2794 21.7214 10.1511 21.5652 10.0754 21.3824C9.99963 21.1995 9.97983 20.9984 10.0185 20.8043C10.0571 20.6102 10.1525 20.4319 10.2925 20.2921L16.7075 13.8746L12.4138 9.58458C12.0387 9.20979 11.5302 8.99926 11 8.99926C10.4698 8.99926 9.96129 9.20979 9.58626 9.58458L2.58626 16.5846C2.39975 16.7699 2.25189 16.9904 2.15126 17.2333C2.05062 17.4762 1.99921 17.7367 2.00001 17.9996V27.9996C2.00001 28.53 2.21072 29.0387 2.5858 29.4138C2.96087 29.7889 3.46958 29.9996 4.00001 29.9996H14C14.2627 30.0004 14.523 29.949 14.7657 29.8484C15.0084 29.7477 15.2287 29.5999 15.4138 29.4133L22.4138 22.4133C22.7885 22.0383 22.9991 21.5298 22.9991 20.9996C22.9991 20.4694 22.7885 19.9609 22.4138 19.5858L18.125 15.2921L11.7075 21.7071C11.6146 21.7999 11.5043 21.8735 11.3829 21.9237C11.2615 21.9739 11.1314 21.9997 11 21.9996Z" fill="#1C1C1E"/>
</svg>
