<svg width="32" height="32" viewBox="0 0 32 32" fill="none" xmlns="http://www.w3.org/2000/svg">
<path d="M29.7075 22.2925C29.8005 22.3854 29.8742 22.4957 29.9246 22.6171C29.9749 22.7385 30.0008 22.8686 30.0008 23C30.0008 23.1314 29.9749 23.2615 29.9246 23.3829C29.8742 23.5043 29.8005 23.6146 29.7075 23.7075L26.7075 26.7075C26.5676 26.8475 26.3894 26.9429 26.1953 26.9815C26.0012 27.0202 25.8 27.0004 25.6172 26.9246C25.4344 26.8489 25.2782 26.7206 25.1683 26.556C25.0584 26.3914 24.9998 26.1979 25 26V24H21C20.8408 24 20.6839 23.962 20.5424 23.8892C20.4009 23.8163 20.2788 23.7108 20.1863 23.5812L10.485 9.99999H4C3.73478 9.99999 3.48043 9.89464 3.29289 9.7071C3.10536 9.51956 3 9.26521 3 8.99999C3 8.73478 3.10536 8.48042 3.29289 8.29289C3.48043 8.10535 3.73478 7.99999 4 7.99999H11C11.1592 7.99999 11.3161 8.03798 11.4576 8.11082C11.5991 8.18365 11.7212 8.28922 11.8138 8.41874L21.515 22H25V20C24.9998 19.8021 25.0584 19.6086 25.1683 19.444C25.2782 19.2794 25.4344 19.1511 25.6172 19.0754C25.8 18.9996 26.0012 18.9798 26.1953 19.0185C26.3894 19.0571 26.5676 19.1525 26.7075 19.2925L29.7075 22.2925ZM17.875 13.375C17.9819 13.4513 18.1027 13.5059 18.2307 13.5355C18.3586 13.5651 18.4911 13.5693 18.6207 13.5477C18.7502 13.5261 18.8742 13.4792 18.9856 13.4097C19.097 13.3401 19.1937 13.2494 19.27 13.1425L21.52 10.0025H25V12C24.9998 12.1979 25.0584 12.3914 25.1683 12.556C25.2782 12.7206 25.4344 12.8489 25.6172 12.9246C25.8 13.0004 26.0012 13.0202 26.1953 12.9815C26.3894 12.9429 26.5676 12.8475 26.7075 12.7075L29.7075 9.70749C29.8005 9.61462 29.8742 9.50433 29.9246 9.38293C29.9749 9.26154 30.0008 9.13141 30.0008 8.99999C30.0008 8.86858 29.9749 8.73845 29.9246 8.61705C29.8742 8.49566 29.8005 8.38537 29.7075 8.29249L26.7075 5.29249C26.5676 5.15248 26.3894 5.05712 26.1953 5.01846C26.0012 4.97981 25.8 4.99962 25.6172 5.07537C25.4344 5.15112 25.2782 5.27942 25.1683 5.44401C25.0584 5.60861 24.9998 5.8021 25 5.99999V7.99999H21C20.8408 7.99999 20.6839 8.03798 20.5424 8.11082C20.4009 8.18365 20.2788 8.28922 20.1863 8.41874L17.6437 11.9775C17.567 12.0844 17.512 12.2053 17.4821 12.3335C17.4521 12.4616 17.4478 12.5944 17.4693 12.7242C17.4908 12.8541 17.5377 12.9784 17.6073 13.0901C17.6769 13.2017 17.7679 13.2986 17.875 13.375ZM14.125 18.625C14.0181 18.5487 13.8973 18.4941 13.7693 18.4645C13.6414 18.4349 13.5089 18.4307 13.3793 18.4523C13.2498 18.4739 13.1258 18.5208 13.0144 18.5903C12.903 18.6598 12.8063 18.7506 12.73 18.8575L10.485 22H4C3.73478 22 3.48043 22.1054 3.29289 22.2929C3.10536 22.4804 3 22.7348 3 23C3 23.2652 3.10536 23.5196 3.29289 23.7071C3.48043 23.8946 3.73478 24 4 24H11C11.1592 24 11.3161 23.962 11.4576 23.8892C11.5991 23.8163 11.7212 23.7108 11.8138 23.5812L14.3562 20.0225C14.433 19.9156 14.488 19.7946 14.5179 19.6665C14.5479 19.5384 14.5522 19.4056 14.5307 19.2757C14.5092 19.1459 14.4623 19.0216 14.3927 18.9099C14.3231 18.7983 14.2321 18.7014 14.125 18.625Z" fill="#1C1C1E"/>
</svg>
