<svg width="32" height="32" viewBox="0 0 32 32" fill="none" xmlns="http://www.w3.org/2000/svg">
<path d="M26.9996 6.00001V11C26.9997 11.1979 26.9412 11.3914 26.8313 11.556C26.7214 11.7206 26.5652 11.8489 26.3824 11.9246C26.1995 12.0004 25.9984 12.0202 25.8043 11.9815C25.6102 11.9429 25.4319 11.8475 25.2921 11.7075L23.4996 9.91376L19.5346 13.875C19.3433 14.0388 19.0972 14.1244 18.8455 14.1147C18.5939 14.105 18.3551 14.0007 18.177 13.8226C17.9989 13.6445 17.8946 13.4057 17.8849 13.1541C17.8751 12.9024 17.9608 12.6563 18.1246 12.465L22.0858 8.50001L20.2921 6.70751C20.1521 6.56765 20.0567 6.3894 20.0181 6.19531C19.9794 6.00123 19.9992 5.80004 20.075 5.61722C20.1507 5.43439 20.279 5.27816 20.4436 5.16829C20.6082 5.05842 20.8017 4.99985 20.9996 5.00001H25.9996C26.2648 5.00001 26.5192 5.10536 26.7067 5.2929C26.8942 5.48044 26.9996 5.73479 26.9996 6.00001ZM26.3821 20.0763C26.1994 20.0005 25.9983 19.9805 25.8043 20.019C25.6103 20.0575 25.432 20.1527 25.2921 20.2925L23.4996 22.0863L6.70708 5.29251C6.51944 5.10487 6.26494 4.99945 5.99958 4.99945C5.73422 4.99945 5.47972 5.10487 5.29208 5.29251C5.10444 5.48015 4.99902 5.73464 4.99902 6.00001C4.99902 6.26537 5.10444 6.51987 5.29208 6.70751L22.0858 23.5L20.2921 25.2925C20.1521 25.4324 20.0567 25.6106 20.0181 25.8047C19.9794 25.9988 19.9992 26.2 20.075 26.3828C20.1507 26.5656 20.279 26.7219 20.4436 26.8317C20.6082 26.9416 20.8017 27.0002 20.9996 27H25.9996C26.2648 27 26.5192 26.8947 26.7067 26.7071C26.8942 26.5196 26.9996 26.2652 26.9996 26V21C26.9995 20.8022 26.9409 20.6089 26.8309 20.4445C26.721 20.28 26.5648 20.1519 26.3821 20.0763ZM12.4646 18.125L5.29208 25.2925C5.10444 25.4801 4.99902 25.7346 4.99902 26C4.99902 26.2654 5.10444 26.5199 5.29208 26.7075C5.47972 26.8951 5.73422 27.0006 5.99958 27.0006C6.26494 27.0006 6.51944 26.8951 6.70708 26.7075L13.8746 19.535C14.0384 19.3437 14.124 19.0976 14.1143 18.846C14.1046 18.5943 14.0002 18.3555 13.8221 18.1774C13.644 17.9993 13.4053 17.895 13.1536 17.8853C12.902 17.8756 12.6559 17.9612 12.4646 18.125Z" fill="#1C1C1E"/>
</svg>
