<svg width="32" height="32" viewBox="0 0 32 32" fill="none" xmlns="http://www.w3.org/2000/svg">
<path d="M27.6416 15.9999C28.3787 15.3422 28.8464 14.435 28.9545 13.4531C29.0627 12.4712 28.8036 11.4839 28.2273 10.6816C27.651 9.87929 26.7981 9.31861 25.8331 9.10758C24.868 8.89655 23.859 9.0501 23.0004 9.53865V6.9999C22.9995 6.1878 22.7514 5.39521 22.2891 4.72751C21.8269 4.05981 21.1723 3.54864 20.4125 3.26194C19.6527 2.97525 18.8236 2.92662 18.0355 3.12252C17.2474 3.31842 16.5375 3.74957 16.0004 4.35865C15.3427 3.62154 14.4355 3.15387 13.4536 3.04574C12.4717 2.9376 11.4844 3.19665 10.6821 3.77298C9.87978 4.34931 9.3191 5.20215 9.10807 6.16721C8.89704 7.13227 9.05059 8.14129 9.53913 8.9999H7.00039C6.18828 9.00081 5.3957 9.24889 4.728 9.71116C4.0603 10.1734 3.54912 10.828 3.26243 11.5878C2.97574 12.3476 2.92711 13.1767 3.12301 13.9648C3.31891 14.7529 3.75006 15.4627 4.35914 15.9999C3.62203 16.6576 3.15436 17.5648 3.04623 18.5467C2.93809 19.5286 3.19714 20.5158 3.77347 21.3182C4.3498 22.1205 5.20263 22.6812 6.1677 22.8922C7.13276 23.1032 8.14178 22.9497 9.00039 22.4611V24.9999C9.0013 25.812 9.24938 26.6046 9.71165 27.2723C10.1739 27.94 10.8285 28.4512 11.5883 28.7379C12.3481 29.0245 13.1772 29.0732 13.9653 28.8773C14.7534 28.6814 15.4632 28.2502 16.0004 27.6411C16.6581 28.3783 17.5653 28.8459 18.5472 28.9541C19.5291 29.0622 20.5163 28.8031 21.3187 28.2268C22.121 27.6505 22.6817 26.7976 22.8927 25.8326C23.1037 24.8675 22.9502 23.8585 22.4616 22.9999H25.0004C25.8125 22.999 26.6051 22.7509 27.2728 22.2886C27.9405 21.8264 28.4516 21.1718 28.7383 20.412C29.025 19.6522 29.0737 18.8231 28.8778 18.035C28.6819 17.2469 28.2507 16.5371 27.6416 15.9999ZM11.0004 6.9999C11.0004 6.46946 11.2111 5.96076 11.5862 5.58568C11.9612 5.21061 12.47 4.9999 13.0004 4.9999C13.5308 4.9999 14.0395 5.21061 14.4146 5.58568C14.7897 5.96076 15.0004 6.46946 15.0004 6.9999V8.9999H13.0004C12.47 8.9999 11.9612 8.78918 11.5862 8.41411C11.2111 8.03904 11.0004 7.53033 11.0004 6.9999ZM5.00039 12.9999C5.00039 12.4695 5.2111 11.9608 5.58617 11.5857C5.96124 11.2106 6.46995 10.9999 7.00039 10.9999H13.0004C13.5308 10.9999 14.0395 11.2106 14.4146 11.5857C14.7897 11.9608 15.0004 12.4695 15.0004 12.9999V14.9999H7.00039C6.46995 14.9999 5.96124 14.7892 5.58617 14.4141C5.2111 14.039 5.00039 13.5303 5.00039 12.9999ZM21.0004 24.9999C21.0004 25.5303 20.7897 26.039 20.4146 26.4141C20.0395 26.7892 19.5308 26.9999 19.0004 26.9999C18.47 26.9999 17.9612 26.7892 17.5862 26.4141C17.2111 26.039 17.0004 25.5303 17.0004 24.9999V22.9999H19.0004C19.5308 22.9999 20.0395 23.2106 20.4146 23.5857C20.7897 23.9608 21.0004 24.4695 21.0004 24.9999ZM25.0004 20.9999H19.0004C18.47 20.9999 17.9612 20.7892 17.5862 20.4141C17.2111 20.039 17.0004 19.5303 17.0004 18.9999V16.9999H25.0004C25.5308 16.9999 26.0395 17.2106 26.4146 17.5857C26.7897 17.9608 27.0004 18.4695 27.0004 18.9999C27.0004 19.5303 26.7897 20.039 26.4146 20.4141C26.0395 20.7892 25.5308 20.9999 25.0004 20.9999Z" fill="#1C1C1E"/>
</svg>
