<svg width="32" height="32" viewBox="0 0 32 32" fill="none" xmlns="http://www.w3.org/2000/svg">
<path d="M29.4503 22.0001H27.5303C28.5612 20.0186 29.0642 17.8049 28.9907 15.5724C28.9173 13.34 28.2698 11.1641 27.1108 9.25469C25.9519 7.34524 24.3204 5.76663 22.3739 4.67108C20.4274 3.57553 18.2314 3 15.9978 3C13.7641 3 11.5681 3.57553 9.62159 4.67108C7.67505 5.76663 6.04364 7.34524 4.88466 9.25469C3.72568 11.1641 3.07825 13.34 3.00478 15.5724C2.93132 17.8049 3.43431 20.0186 4.46525 22.0001H2.55025C2.15098 21.9953 1.76557 22.1464 1.47607 22.4214C1.18658 22.6965 1.01586 23.0736 1.00025 23.4726C0.996598 23.6719 1.0327 23.8699 1.10644 24.0551C1.18019 24.2403 1.2901 24.4089 1.42975 24.5511C1.5694 24.6933 1.736 24.8063 1.9198 24.8834C2.10361 24.9605 2.30093 25.0002 2.50025 25.0001H10.0003C10.2655 25.0001 10.5198 25.1055 10.7074 25.293C10.8949 25.4805 11.0003 25.7349 11.0003 26.0001C11.0003 26.2653 10.8949 26.5197 10.7074 26.7072C10.5198 26.8948 10.2655 27.0001 10.0003 27.0001H9.02025C8.7887 26.9997 8.56381 27.0776 8.38223 27.2213C8.20064 27.365 8.07306 27.5659 8.02025 27.7914C7.9891 27.9373 7.99101 28.0883 8.02582 28.2334C8.06063 28.3785 8.12747 28.514 8.22144 28.6299C8.31541 28.7458 8.43413 28.8392 8.56889 28.9033C8.70365 28.9673 8.85104 29.0004 9.00025 29.0001H24.9665C25.2245 29.0033 25.4741 28.9088 25.6654 28.7357C25.8567 28.5625 25.9754 28.3234 25.9978 28.0664C26.0068 27.9296 25.9877 27.7924 25.9415 27.6633C25.8954 27.5342 25.8231 27.416 25.7294 27.316C25.6356 27.216 25.5222 27.1364 25.3964 27.0821C25.2705 27.0277 25.1348 26.9998 24.9978 27.0001H18.0003C17.735 27.0001 17.4807 26.8948 17.2931 26.7072C17.1056 26.5197 17.0003 26.2653 17.0003 26.0001C17.0003 25.7349 17.1056 25.4805 17.2931 25.293C17.4807 25.1055 17.735 25.0001 18.0003 25.0001H18.974C19.221 24.999 19.4595 24.9095 19.6464 24.7479C19.8332 24.5863 19.9561 24.3632 19.9928 24.1189C20.0095 23.9786 19.9964 23.8363 19.9542 23.7014C19.912 23.5666 19.8417 23.4422 19.7479 23.3365C19.6541 23.2308 19.539 23.1461 19.4101 23.0882C19.2813 23.0302 19.1416 23.0002 19.0003 23.0001H17.0003C15.134 23.0001 13.1765 22.2776 11.6253 21.0189C9.9315 19.6439 9.00025 17.8601 9.00025 16.0001C9.00004 15.6234 9.02972 15.2472 9.089 14.8751C9.12664 14.6155 9.26225 14.3802 9.46799 14.2175C9.67372 14.0547 9.93396 13.977 10.1953 14.0001C10.3303 14.0152 10.4608 14.0577 10.5789 14.125C10.697 14.1922 10.8001 14.2829 10.882 14.3913C10.9639 14.4997 11.0228 14.6237 11.0552 14.7557C11.0875 14.8877 11.0927 15.0248 11.0703 15.1589C11.024 15.4369 11.0006 15.7183 11.0003 16.0001C11.0003 18.7701 14.2828 21.0001 17.0003 21.0001H18.9303C20.6178 21.0001 22.0378 22.3814 21.999 24.0689C21.9964 24.1873 21.9868 24.3054 21.9703 24.4226C21.959 24.4945 21.9635 24.5679 21.9835 24.6378C22.0036 24.7077 22.0386 24.7725 22.0862 24.8274C22.1338 24.8824 22.1928 24.9264 22.2592 24.9562C22.3255 24.986 22.3975 25.001 22.4703 25.0001H29.5003C29.6996 25.0002 29.8969 24.9605 30.0807 24.8834C30.2645 24.8063 30.4311 24.6933 30.5708 24.5511C30.7104 24.4089 30.8203 24.2403 30.8941 24.0551C30.9678 23.8699 31.0039 23.6719 31.0003 23.4726C30.9846 23.0736 30.8139 22.6965 30.5244 22.4214C30.2349 22.1464 29.8495 21.9953 29.4503 22.0001ZM15.9878 11.6951C15.9513 11.9728 15.8379 12.2346 15.6603 12.4511C15.4827 12.6676 15.2481 12.8301 14.9829 12.9202C14.7178 13.0102 14.4327 13.0243 14.16 12.9607C13.8873 12.8971 13.6379 12.7585 13.4399 12.5605C13.2419 12.3625 13.1032 12.113 13.0397 11.8403C12.9761 11.5676 12.9902 11.2826 13.0802 11.0174C13.1703 10.7523 13.3327 10.5177 13.5492 10.3401C13.7657 10.1625 14.0276 10.0491 14.3053 10.0126C14.5333 9.98268 14.7652 10.0056 14.9829 10.0795C15.2007 10.1535 15.3985 10.2766 15.5612 10.4392C15.7238 10.6018 15.8469 10.7997 15.9208 11.0174C15.9948 11.2352 16.0177 11.4671 15.9878 11.6951ZM21.9878 17.6951C21.9513 17.9728 21.8379 18.2346 21.6603 18.4511C21.4827 18.6676 21.2481 18.8301 20.9829 18.9202C20.7178 19.0102 20.4327 19.0243 20.16 18.9607C19.8873 18.8971 19.6379 18.7585 19.4399 18.5605C19.2419 18.3625 19.1032 18.113 19.0397 17.8403C18.9761 17.5676 18.9902 17.2826 19.0802 17.0174C19.1703 16.7523 19.3327 16.5177 19.5492 16.3401C19.7657 16.1625 20.0276 16.0491 20.3053 16.0126C20.5333 15.9827 20.7652 16.0056 20.9829 16.0795C21.2007 16.1535 21.3985 16.2766 21.5612 16.4392C21.7238 16.6018 21.8469 16.7997 21.9208 17.0174C21.9948 17.2352 22.0177 17.4671 21.9878 17.6951Z" fill="#1C1C1E"/>
</svg>
