<svg width="32" height="32" viewBox="0 0 32 32" fill="none" xmlns="http://www.w3.org/2000/svg">
<path d="M29 17C28.9996 18.2212 28.6797 19.4211 28.0721 20.4805C27.4644 21.5398 26.5902 22.4218 25.5363 23.0387C24.4823 23.6557 23.2853 23.9862 22.0641 23.9973C20.8429 24.0085 19.6401 23.7 18.575 23.1025L19.9575 27.7125C20.0023 27.8618 20.0116 28.0195 19.9846 28.173C19.9577 28.3266 19.8952 28.4717 19.8021 28.5968C19.7091 28.7218 19.5881 28.8234 19.4489 28.8935C19.3096 28.9635 19.1559 29 19 29H13C12.8441 29 12.6904 28.9635 12.5511 28.8935C12.4119 28.8234 12.2909 28.7218 12.1979 28.5968C12.1048 28.4717 12.0423 28.3266 12.0154 28.173C11.9884 28.0195 11.9977 27.8618 12.0425 27.7125L13.425 23.1025C12.3599 23.7 11.1571 24.0085 9.93587 23.9973C8.71468 23.9862 7.51766 23.6557 6.46372 23.0387C5.40977 22.4218 4.53557 21.5398 3.92795 20.4805C3.32032 19.4211 3.00041 18.2212 3 17C3 13 5.20625 9.145 9.375 5.84125C11.2889 4.33188 13.3839 3.0675 15.6112 2.0775C15.7331 2.02614 15.864 1.99968 15.9963 1.99968C16.1285 1.99968 16.2594 2.02614 16.3813 2.0775C18.6112 3.06695 20.7088 4.33134 22.625 5.84125C26.7938 9.145 29 13 29 17Z" fill="#1C1C1E"/>
</svg>
