<svg width="32" height="32" viewBox="0 0 32 32" fill="none" xmlns="http://www.w3.org/2000/svg">
<path d="M20.44 3.10118C20.2717 3.01898 20.0837 2.98571 19.8974 3.00516C19.7111 3.02461 19.534 3.09599 19.3862 3.21118L10.6562 9.99993H5C4.46957 9.99993 3.96086 10.2106 3.58579 10.5857C3.21071 10.9608 3 11.4695 3 11.9999V19.9999C3 20.5304 3.21071 21.0391 3.58579 21.4141C3.96086 21.7892 4.46957 21.9999 5 21.9999H10.6562L19.3862 28.7887C19.5614 28.9259 19.7775 29.0003 20 28.9999C20.2652 28.9999 20.5196 28.8946 20.7071 28.707C20.8946 28.5195 21 28.2651 21 27.9999V3.99993C21.0001 3.81272 20.9477 3.62923 20.8487 3.47035C20.7497 3.31146 20.6081 3.18355 20.44 3.10118Z" fill="#1C1C1E"/>
<path d="M29.4133 16.0001L31.7071 13.7076C31.8947 13.5199 32.0001 13.2654 32.0001 13.0001C32.0001 12.7347 31.8947 12.4802 31.7071 12.2926C31.5194 12.1049 31.2649 11.9995 30.9996 11.9995C30.7342 11.9995 30.4797 12.1049 30.2921 12.2926L27.9996 14.5863L25.7071 12.2926C25.5194 12.1049 25.2649 11.9995 24.9996 11.9995C24.7342 11.9995 24.4797 12.1049 24.2921 12.2926C24.1044 12.4802 23.999 12.7347 23.999 13.0001C23.999 13.2654 24.1044 13.5199 24.2921 13.7076L26.5858 16.0001L24.2921 18.2926C24.1044 18.4802 23.999 18.7347 23.999 19.0001C23.999 19.2654 24.1044 19.5199 24.2921 19.7076C24.4797 19.8952 24.7342 20.0006 24.9996 20.0006C25.2649 20.0006 25.5194 19.8952 25.7071 19.7076L27.9996 17.4138L30.2921 19.7076C30.4797 19.8952 30.7342 20.0006 30.9996 20.0006C31.2649 20.0006 31.5194 19.8952 31.7071 19.7076C31.8947 19.5199 32.0001 19.2654 32.0001 19.0001C32.0001 18.7347 31.8947 18.4802 31.7071 18.2926L29.4133 16.0001Z" fill="#1C1C1E"/>
</svg>
