<svg width="32" height="32" viewBox="0 0 32 32" fill="none" xmlns="http://www.w3.org/2000/svg">
<path d="M27.7342 11.3579C27.6933 11.296 27.6391 11.244 27.5756 11.2056C27.5121 11.1672 27.4408 11.1434 27.367 11.136C27.2931 11.1286 27.2186 11.1377 27.1487 11.1627C27.0788 11.1877 27.0154 11.2279 26.963 11.2804L17.5355 20.7079C17.3447 20.8775 17.0962 20.9677 16.8411 20.96C16.5859 20.9523 16.3434 20.8474 16.1631 20.6666C15.9828 20.4859 15.8785 20.2431 15.8715 19.9879C15.8645 19.7327 15.9554 19.4845 16.1255 19.2942L27.713 7.70793C27.8059 7.61502 27.8796 7.50472 27.9299 7.38332C27.9801 7.26193 28.006 7.13182 28.006 7.00043C28.006 6.86903 27.9801 6.73892 27.9299 6.61753C27.8796 6.49614 27.8059 6.38584 27.713 6.29293C27.62 6.20002 27.5097 6.12632 27.3884 6.07603C27.267 6.02575 27.1369 5.99987 27.0055 5.99987C26.8741 5.99987 26.744 6.02575 26.6226 6.07603C26.5012 6.12632 26.3909 6.20002 26.298 6.29293L24.6255 7.96668C22.2386 6.10252 19.3118 5.06225 16.2838 5.00181C13.2558 4.94138 10.2898 5.86403 7.83047 7.63146C5.37111 9.39889 3.55088 11.9159 2.64267 14.8051C1.73445 17.6942 1.78718 20.8 2.79296 23.6567C2.93076 24.0484 3.1864 24.3878 3.52479 24.6284C3.86319 24.869 4.26775 24.9989 4.68296 25.0004H27.3167C27.7315 25.0007 28.1361 24.872 28.4745 24.6321C28.8129 24.3923 29.0683 24.0531 29.2055 23.6617C29.9183 21.635 30.1563 19.4718 29.9012 17.3386C29.6461 15.2055 28.9048 13.1594 27.7342 11.3579ZM7.18046 20.8017C7.23316 21.0616 7.18045 21.3318 7.03394 21.5528C6.88743 21.7739 6.65911 21.9277 6.39921 21.9804C6.3334 21.9939 6.26638 22.0006 6.19921 22.0004C5.96872 22.0001 5.7454 21.9202 5.56705 21.7742C5.38871 21.6282 5.26627 21.4251 5.22046 21.1992C4.86286 19.4389 4.94149 17.6178 5.44948 15.8949C5.95747 14.172 6.87938 12.5995 8.13477 11.3148C9.39016 10.0301 10.9409 9.07207 12.6516 8.52441C14.3623 7.97676 16.1811 7.85609 17.9492 8.17293C18.2103 8.21967 18.4421 8.36821 18.5936 8.58587C18.7452 8.80353 18.8041 9.07248 18.7573 9.33355C18.7106 9.59463 18.562 9.82644 18.3444 9.97799C18.1267 10.1295 17.8578 10.1884 17.5967 10.1417C16.1498 9.88265 14.6616 9.98158 13.2617 10.4298C11.8619 10.8781 10.593 11.6621 9.56574 12.7134C8.53848 13.7647 7.78406 15.0514 7.36829 16.4612C6.95252 17.871 6.88804 19.3612 7.18046 20.8017Z" fill="#1C1C1E"/>
</svg>
