<svg width="32" height="32" viewBox="0 0 32 32" fill="none" xmlns="http://www.w3.org/2000/svg">
<path d="M25.1511 16L28.8748 9.49999C28.963 9.34731 29.0092 9.17404 29.0088 8.99773C29.0084 8.82143 28.9614 8.64836 28.8726 8.49608C28.7838 8.34379 28.6562 8.2177 28.503 8.13057C28.3497 8.04345 28.1761 7.9984 27.9998 7.99999H20.5811L16.8748 1.49999C16.7874 1.34668 16.661 1.21924 16.5084 1.13059C16.3559 1.04194 16.1825 0.995239 16.0061 0.995239C15.8296 0.995239 15.6563 1.04194 15.5037 1.13059C15.3511 1.21924 15.2247 1.34668 15.1373 1.49999L11.4161 7.99999H3.99982C3.82405 7.99951 3.65126 8.04537 3.49886 8.13294C3.34646 8.22051 3.21984 8.34671 3.13175 8.49881C3.04366 8.65091 2.99721 8.82354 2.99709 8.99931C2.99697 9.17507 3.04318 9.34777 3.13107 9.49999L6.84607 16L3.13107 22.5C3.04291 22.6527 2.99668 22.8259 2.99707 23.0022C2.99746 23.1785 3.04446 23.3516 3.13329 23.5039C3.22213 23.6562 3.34964 23.7823 3.50292 23.8694C3.65619 23.9565 3.82977 24.0016 4.00607 24H11.4161L15.1311 30.5C15.2185 30.6533 15.3449 30.7807 15.4974 30.8694C15.65 30.958 15.8234 31.0047 15.9998 31.0047C16.1763 31.0047 16.3496 30.958 16.5022 30.8694C16.6548 30.7807 16.7812 30.6533 16.8686 30.5L20.5811 24H27.9998C28.1761 24.0016 28.3497 23.9565 28.503 23.8694C28.6562 23.7823 28.7838 23.6562 28.8726 23.5039C28.9614 23.3516 29.0084 23.1785 29.0088 23.0022C29.0092 22.8259 28.963 22.6527 28.8748 22.5L25.1511 16ZM22.8486 16L19.4211 22H12.5773L9.14982 16L12.5773 9.99999H19.4211L22.8486 16Z" fill="#1C1C1E"/>
</svg>
