<svg width="32" height="32" viewBox="0 0 32 32" fill="none" xmlns="http://www.w3.org/2000/svg">
<path d="M30.0003 16.0001C30.0035 16.4102 29.8788 16.8112 29.6436 17.1472C29.4084 17.4833 29.0743 17.7377 28.6878 17.8751L20.7578 20.7588L17.8753 28.6876C17.7332 29.0703 17.4774 29.4004 17.1423 29.6335C16.8071 29.8667 16.4086 29.9916 16.0003 29.9916C15.592 29.9916 15.1936 29.8667 14.8584 29.6335C14.5232 29.4004 14.2674 29.0703 14.1253 28.6876L11.2428 20.7576L3.31282 17.8751C2.93006 17.733 2.59996 17.4772 2.36685 17.142C2.13374 16.8068 2.00879 16.4083 2.00879 16.0001C2.00879 15.5918 2.13374 15.1933 2.36685 14.8581C2.59996 14.523 2.93006 14.2671 3.31282 14.1251L11.2428 11.2426L14.1253 3.31257C14.2674 2.92982 14.5232 2.59971 14.8584 2.3666C15.1936 2.13349 15.592 2.00854 16.0003 2.00854C16.4086 2.00854 16.8071 2.13349 17.1423 2.3666C17.4774 2.59971 17.7332 2.92982 17.8753 3.31257L20.7591 11.2426L28.6878 14.1251C29.0743 14.2625 29.4084 14.5169 29.6436 14.8529C29.8788 15.1889 30.0035 15.5899 30.0003 16.0001Z" fill="#1C1C1E"/>
</svg>
