<svg width="32" height="32" viewBox="0 0 32 32" fill="none" xmlns="http://www.w3.org/2000/svg">
<path d="M19.9994 25.7992C19.9995 25.9836 19.9487 26.1644 19.8525 26.3216C19.7564 26.4789 19.6186 26.6066 19.4544 26.6904C17.7669 27.5564 15.8963 28.0052 13.9996 27.9991C10.8171 27.9991 7.76492 26.7349 5.51455 24.4845C3.26418 22.2342 1.99994 19.182 1.99994 15.9995C1.99994 12.817 3.26418 9.76486 5.51455 7.51449C7.76492 5.26412 10.8171 3.99988 13.9996 3.99988C15.8963 3.99387 17.7669 4.44264 19.4544 5.30859C19.6185 5.39238 19.7563 5.5199 19.8525 5.67706C19.9487 5.83422 19.9997 6.01491 19.9997 6.19918C19.9997 6.38346 19.9487 6.56415 19.8525 6.72131C19.7563 6.87847 19.6185 7.00599 19.4544 7.08978C17.8113 7.92703 16.4317 9.20235 15.4681 10.7747C14.5046 12.3471 13.9946 14.1554 13.9946 15.9995C13.9946 17.8437 14.5046 19.6519 15.4681 21.2243C16.4317 22.7967 17.8113 24.072 19.4544 24.9092C19.6184 24.993 19.756 25.1205 19.8522 25.2775C19.9484 25.4345 19.9993 25.6151 19.9994 25.7992ZM31.3953 15.0808L28.0829 13.6521L27.7942 9.9222C27.7785 9.7237 27.704 9.53439 27.5801 9.37852C27.4562 9.22266 27.2885 9.10733 27.0987 9.04731C26.9088 8.98729 26.7054 8.98532 26.5144 9.04165C26.3234 9.09797 26.1536 9.21003 26.0267 9.36346L23.703 12.1771L20.2394 11.3209C20.0484 11.2739 19.8478 11.2843 19.6627 11.3507C19.4776 11.4171 19.3162 11.5366 19.1986 11.6943C19.0811 11.852 19.0127 12.0408 19.0019 12.2372C18.9912 12.4336 19.0386 12.6288 19.1382 12.7984L21.0219 15.9995L19.1382 19.2007C19.0386 19.3702 18.9912 19.5654 19.0019 19.7618C19.0127 19.9582 19.0811 20.147 19.1986 20.3047C19.3162 20.4624 19.4776 20.5819 19.6627 20.6484C19.8478 20.7148 20.0484 20.7251 20.2394 20.6781L23.703 19.8219L26.0267 22.6356C26.1536 22.789 26.3234 22.901 26.5144 22.9574C26.7054 23.0137 26.9088 23.0117 27.0987 22.9517C27.2885 22.8917 27.4562 22.7764 27.5801 22.6205C27.704 22.4646 27.7785 22.2753 27.7942 22.0768L28.0829 18.3469L31.3953 16.9182C31.5749 16.841 31.728 16.7129 31.8356 16.5496C31.9431 16.3863 32.0004 16.195 32.0004 15.9995C32.0004 15.804 31.9431 15.6127 31.8356 15.4495C31.728 15.2862 31.5749 15.158 31.3953 15.0808Z" fill="#1C1C1E"/>
</svg>
