<svg width="32" height="32" viewBox="0 0 32 32" fill="none" xmlns="http://www.w3.org/2000/svg">
<path d="M13.4996 23.5C13.4996 24.2911 13.265 25.0645 12.8255 25.7223C12.3859 26.3801 11.7612 26.8928 11.0303 27.1955C10.2994 27.4983 9.49514 27.5775 8.71922 27.4231C7.94329 27.2688 7.23056 26.8878 6.67115 26.3284C6.11174 25.769 5.73078 25.0563 5.57644 24.2804C5.4221 23.5044 5.50131 22.7002 5.80406 21.9693C6.10681 21.2384 6.6195 20.6136 7.2773 20.1741C7.9351 19.7346 8.70845 19.5 9.49958 19.5C10.5604 19.5 11.5779 19.9214 12.328 20.6716C13.0782 21.4217 13.4996 22.4391 13.4996 23.5ZM6.70708 14.7075L8.49958 12.9137L10.2921 14.7075C10.4797 14.8951 10.7342 15.0006 10.9996 15.0006C11.2649 15.0006 11.5194 14.8951 11.7071 14.7075C11.8947 14.5199 12.0001 14.2654 12.0001 14C12.0001 13.7346 11.8947 13.4801 11.7071 13.2925L9.91333 11.5L11.7071 9.7075C11.8947 9.51986 12.0001 9.26536 12.0001 9C12.0001 8.73464 11.8947 8.48014 11.7071 8.2925C11.5194 8.10486 11.2649 7.99944 10.9996 7.99944C10.7342 7.99944 10.4797 8.10486 10.2921 8.2925L8.49958 10.0863L6.70708 8.2925C6.51944 8.10486 6.26494 7.99944 5.99958 7.99944C5.73422 7.99944 5.47972 8.10486 5.29208 8.2925C5.10444 8.48014 4.99902 8.73464 4.99902 9C4.99902 9.26536 5.10444 9.51986 5.29208 9.7075L7.08583 11.5L5.29208 13.2925C5.10444 13.4801 4.99902 13.7346 4.99902 14C4.99902 14.2654 5.10444 14.5199 5.29208 14.7075C5.47972 14.8951 5.73422 15.0006 5.99958 15.0006C6.26494 15.0006 6.51944 14.8951 6.70708 14.7075ZM26.9133 23.5L28.7071 21.7075C28.8947 21.5199 29.0001 21.2654 29.0001 21C29.0001 20.7346 28.8947 20.4801 28.7071 20.2925C28.5194 20.1049 28.2649 19.9994 27.9996 19.9994C27.7342 19.9994 27.4797 20.1049 27.2921 20.2925L25.4996 22.0863L23.7071 20.2925C23.5194 20.1049 23.2649 19.9994 22.9996 19.9994C22.7342 19.9994 22.4797 20.1049 22.2921 20.2925C22.1044 20.4801 21.999 20.7346 21.999 21C21.999 21.2654 22.1044 21.5199 22.2921 21.7075L24.0858 23.5L22.2921 25.2925C22.1044 25.4801 21.999 25.7346 21.999 26C21.999 26.2654 22.1044 26.5199 22.2921 26.7075C22.4797 26.8951 22.7342 27.0006 22.9996 27.0006C23.2649 27.0006 23.5194 26.8951 23.7071 26.7075L25.4996 24.9137L27.2921 26.7075C27.385 26.8004 27.4953 26.8741 27.6167 26.9244C27.7381 26.9747 27.8682 27.0006 27.9996 27.0006C28.131 27.0006 28.2611 26.9747 28.3825 26.9244C28.5039 26.8741 28.6142 26.8004 28.7071 26.7075C28.8 26.6146 28.8737 26.5043 28.924 26.3829C28.9743 26.2615 29.0001 26.1314 29.0001 26C29.0001 25.8686 28.9743 25.7385 28.924 25.6171C28.8737 25.4957 28.8 25.3854 28.7071 25.2925L26.9133 23.5ZM20.7071 6.2925L20.4133 6H22.9996C23.2648 6 23.5192 5.89464 23.7067 5.70711C23.8942 5.51957 23.9996 5.26522 23.9996 5C23.9996 4.73478 23.8942 4.48043 23.7067 4.29289C23.5192 4.10536 23.2648 4 22.9996 4H17.9996C17.7344 4 17.48 4.10536 17.2925 4.29289C17.1049 4.48043 16.9996 4.73478 16.9996 5V10C16.9996 10.2652 17.1049 10.5196 17.2925 10.7071C17.48 10.8946 17.7344 11 17.9996 11C18.2648 11 18.5192 10.8946 18.7067 10.7071C18.8942 10.5196 18.9996 10.2652 18.9996 10V7.41375L19.2921 7.7075C21.5333 9.94875 21.5296 12.1325 21.1308 13.57C20.5508 15.6663 18.7108 17.5413 16.7558 18.03C16.5191 18.0893 16.3122 18.2332 16.1742 18.4345C16.0362 18.6358 15.9765 18.8806 16.0065 19.1228C16.0365 19.365 16.154 19.5879 16.3369 19.7495C16.5198 19.9111 16.7555 20.0002 16.9996 20C17.0817 19.9999 17.1636 19.9898 17.2433 19.97C19.8946 19.3075 22.2871 16.895 23.0596 14.1038C23.8221 11.3475 22.9871 8.57375 20.7071 6.2925Z" fill="#1C1C1E"/>
</svg>
