<svg width="32" height="32" viewBox="0 0 32 32" fill="none" xmlns="http://www.w3.org/2000/svg">
<path d="M21.8285 10.1689C21.4954 8.3782 20.6795 6.71244 19.469 5.35147C18.2584 3.99049 16.6991 2.986 14.9594 2.44642C13.2198 1.90683 11.3657 1.85265 9.59748 2.28973C7.82924 2.7268 6.21397 3.63853 4.926 4.92649C3.63804 6.21445 2.72631 7.82973 2.28924 9.59797C1.85217 11.3662 1.90634 13.2202 2.44593 14.9599C2.98551 16.6996 3.99 18.2589 5.35098 19.4695C6.71195 20.68 8.37772 21.4959 10.1685 21.8289C10.5015 23.6197 11.3174 25.2854 12.5279 26.6464C13.7385 28.0074 15.2978 29.0119 17.0375 29.5515C18.7772 30.0911 20.6312 30.1452 22.3994 29.7082C24.1677 29.2711 25.783 28.3594 27.0709 27.0714C28.3589 25.7834 29.2706 24.1682 29.7077 22.3999C30.1448 20.6317 30.0906 18.7777 29.551 17.038C29.0114 15.2983 28.0069 13.739 26.6459 12.5284C25.285 11.3179 23.6192 10.502 21.8285 10.1689ZM11.9997 20.0002C10.4175 20.0002 8.87074 19.531 7.55515 18.652C6.23955 17.7729 5.21417 16.5235 4.60867 15.0617C4.00317 13.5999 3.84474 11.9913 4.15343 10.4395C4.46211 8.88763 5.22403 7.46216 6.34285 6.34334C7.46167 5.22452 8.88714 4.4626 10.439 4.15391C11.9908 3.84523 13.5994 4.00366 15.0612 4.60916C16.523 5.21466 17.7724 6.24004 18.6515 7.55563C19.5305 8.87123 19.9997 10.4179 19.9997 12.0002C19.9974 14.1212 19.1538 16.1547 17.654 17.6545C16.1542 19.1543 14.1207 19.9979 11.9997 20.0002Z" fill="#1C1C1E"/>
</svg>
