<svg width="32" height="32" viewBox="0 0 32 32" fill="none" xmlns="http://www.w3.org/2000/svg">
<path d="M31 20C31 20.2652 30.8946 20.5196 30.7071 20.7071C30.5196 20.8947 30.2652 21 30 21H2C1.73478 21 1.48043 20.8947 1.29289 20.7071C1.10536 20.5196 1 20.2652 1 20C1 19.7348 1.10536 19.4805 1.29289 19.2929C1.48043 19.1054 1.73478 19 2 19H7.05625C7.01934 18.668 7.00056 18.3341 7 18C7 15.6131 7.94821 13.3239 9.63604 11.6361C11.3239 9.94824 13.6131 9.00003 16 9.00003C18.3869 9.00003 20.6761 9.94824 22.364 11.6361C24.0518 13.3239 25 15.6131 25 18C24.9994 18.3341 24.9807 18.668 24.9438 19H30C30.2652 19 30.5196 19.1054 30.7071 19.2929C30.8946 19.4805 31 19.7348 31 20ZM26 24H6C5.73478 24 5.48043 24.1054 5.29289 24.2929C5.10536 24.4805 5 24.7348 5 25C5 25.2652 5.10536 25.5196 5.29289 25.7071C5.48043 25.8947 5.73478 26 6 26H26C26.2652 26 26.5196 25.8947 26.7071 25.7071C26.8946 25.5196 27 25.2652 27 25C27 24.7348 26.8946 24.4805 26.7071 24.2929C26.5196 24.1054 26.2652 24 26 24ZM10.105 7.44753C10.1638 7.56506 10.2451 7.66987 10.3444 7.75597C10.4436 7.84207 10.5589 7.90777 10.6836 7.94932C10.8082 7.99088 10.9399 8.00747 11.0709 7.99815C11.202 7.98884 11.33 7.9538 11.4475 7.89503C11.565 7.83626 11.6698 7.75492 11.7559 7.65565C11.842 7.55638 11.9077 7.44112 11.9493 7.31646C11.9908 7.1918 12.0074 7.06017 11.9981 6.9291C11.9888 6.79802 11.9538 6.67006 11.895 6.55253L10.895 4.55253C10.7763 4.31516 10.5682 4.13466 10.3164 4.05074C10.0647 3.96682 9.78987 3.98635 9.5525 4.10503C9.31513 4.22372 9.13463 4.43183 9.05071 4.6836C8.96679 4.93537 8.98632 5.21016 9.105 5.44753L10.105 7.44753ZM2.5525 12.895L4.5525 13.895C4.7897 14.0137 5.06434 14.0333 5.31599 13.9495C5.56764 13.8657 5.77569 13.6854 5.89437 13.4482C6.01306 13.211 6.03265 12.9363 5.94885 12.6847C5.86504 12.433 5.6847 12.225 5.4475 12.1063L3.4475 11.1063C3.33005 11.0475 3.20217 11.0125 3.07117 11.0031C2.94017 10.9938 2.80862 11.0103 2.68401 11.0518C2.55941 11.0933 2.4442 11.1589 2.34496 11.245C2.24572 11.331 2.16439 11.4357 2.10562 11.5532C2.04686 11.6706 2.0118 11.7985 2.00245 11.9295C1.99311 12.0605 2.00965 12.192 2.05115 12.3166C2.09265 12.4412 2.15828 12.5565 2.2443 12.6557C2.33032 12.7549 2.43505 12.8363 2.5525 12.895ZM27 14C27.1549 14.0001 27.3076 13.9641 27.4463 13.895L29.4463 12.895C29.5637 12.8363 29.6684 12.7549 29.7544 12.6557C29.8405 12.5565 29.9061 12.4412 29.9476 12.3166C29.9891 12.192 30.0056 12.0605 29.9963 11.9295C29.9869 11.7985 29.9519 11.6706 29.8931 11.5532C29.8344 11.4357 29.753 11.331 29.6538 11.245C29.5546 11.1589 29.4393 11.0933 29.3147 11.0518C29.1901 11.0103 29.0586 10.9938 28.9276 11.0031C28.7966 11.0125 28.6687 11.0475 28.5513 11.1063L26.5513 12.1063C26.35 12.2073 26.1888 12.3732 26.0936 12.5773C25.9984 12.7813 25.9748 13.0115 26.0268 13.2306C26.0787 13.4497 26.203 13.6449 26.3796 13.7845C26.5563 13.9241 26.7748 14.0001 27 14ZM20.5525 7.89503C20.67 7.95388 20.798 7.98899 20.9291 7.99835C21.0602 8.00771 21.1918 7.99114 21.3165 7.94957C21.4412 7.90801 21.5565 7.84228 21.6557 7.75613C21.755 7.66999 21.8363 7.56512 21.895 7.44753L22.895 5.44753C23.0137 5.21016 23.0332 4.93537 22.9493 4.6836C22.8654 4.43183 22.6849 4.22372 22.4475 4.10503C22.2101 3.98635 21.9353 3.96682 21.6836 4.05074C21.4318 4.13466 21.2237 4.31516 21.105 4.55253L20.105 6.55253C20.0461 6.67005 20.011 6.79801 20.0017 6.92911C19.9923 7.06021 20.0089 7.19186 20.0505 7.31655C20.092 7.44123 20.1578 7.5565 20.2439 7.65576C20.33 7.75502 20.4349 7.83633 20.5525 7.89503Z" fill="#1C1C1E"/>
</svg>
