<svg width="32" height="32" viewBox="0 0 32 32" fill="none" xmlns="http://www.w3.org/2000/svg">
<path d="M27.0002 4H19.0002C18.8471 3.99998 18.696 4.03514 18.5586 4.10276C18.4212 4.17038 18.3012 4.26865 18.2077 4.39L10.2077 14.7913L9.00025 13.5863C8.8145 13.4003 8.59392 13.2528 8.35113 13.1521C8.10833 13.0515 7.84808 12.9997 7.58525 12.9997C7.32241 12.9997 7.06216 13.0515 6.81936 13.1521C6.57657 13.2528 6.35599 13.4003 6.17024 13.5863L5.08399 14.6737C4.89823 14.8595 4.75087 15.08 4.65033 15.3227C4.54979 15.5653 4.49805 15.8254 4.49805 16.0881C4.49805 16.3508 4.54979 16.6109 4.65033 16.8536C4.75087 17.0963 4.89823 17.3168 5.08399 17.5025L7.83399 20.2525L3.83399 24.2525C3.64823 24.4382 3.50087 24.6587 3.40033 24.9014C3.29979 25.1441 3.24805 25.4042 3.24805 25.6669C3.24805 25.9296 3.29979 26.1897 3.40033 26.4323C3.50087 26.675 3.64823 26.8955 3.83399 27.0812L4.92024 28.1663C5.29528 28.541 5.80379 28.7516 6.33399 28.7516C6.8642 28.7516 7.37271 28.541 7.74774 28.1663L11.7477 24.1663L14.4977 26.9163C14.6835 27.1022 14.9041 27.2497 15.1469 27.3504C15.3897 27.451 15.6499 27.5028 15.9127 27.5028C16.1756 27.5028 16.4358 27.451 16.6786 27.3504C16.9214 27.2497 17.142 27.1022 17.3277 26.9163L18.414 25.8288C18.5998 25.643 18.7471 25.4225 18.8477 25.1798C18.9482 24.9372 18.9999 24.6771 18.9999 24.4144C18.9999 24.1517 18.9482 23.8916 18.8477 23.6489C18.7471 23.4062 18.5998 23.1857 18.414 23L17.209 21.795L27.6102 13.795C27.7319 13.7013 27.8304 13.5809 27.898 13.443C27.9657 13.3052 28.0006 13.1536 28.0002 13V5C28.0002 4.73478 27.8949 4.48043 27.7074 4.29289C27.5198 4.10536 27.2655 4 27.0002 4ZM26.0002 12.5075L15.7827 20.3675L14.4152 19L20.7077 12.7075C20.8952 12.5199 21.0005 12.2654 21.0004 12.0002C21.0002 11.7349 20.8948 11.4806 20.7071 11.2931C20.5195 11.1057 20.265 11.0004 19.9998 11.0005C19.7346 11.0006 19.4802 11.1061 19.2927 11.2937L13.0002 17.585L11.634 16.2175L19.4927 6H26.0002V12.5075Z" fill="#1C1C1E"/>
</svg>
