<svg width="32" height="32" viewBox="0 0 32 32" fill="none" xmlns="http://www.w3.org/2000/svg">
<path d="M29.7075 9.69953C29.6146 9.79251 29.5043 9.86626 29.3829 9.91659C29.2615 9.96691 29.1314 9.99282 29 9.99282C28.8685 9.99282 28.7384 9.96691 28.617 9.91659C28.4956 9.86626 28.3853 9.79251 28.2925 9.69953L26 7.40578L22.4125 10.9995L26.7062 15.2933C26.8939 15.4809 26.9993 15.7354 26.9993 16.0008C26.9993 16.2661 26.8939 16.5206 26.7062 16.7083C26.5186 16.8959 26.2641 17.0013 25.9987 17.0013C25.7333 17.0013 25.4789 16.8959 25.2912 16.7083L24.5 15.9083L14 26.4083C13.8142 26.5955 13.5931 26.7442 13.3497 26.8456C13.1062 26.9471 12.845 26.9994 12.5812 26.9995H6.40746L3.69996 29.707C3.60272 29.8044 3.48644 29.8806 3.35838 29.931C3.23032 29.9814 3.09325 30.0047 2.95574 29.9997C2.81823 29.9947 2.68324 29.9613 2.55921 29.9017C2.43519 29.8421 2.3248 29.7575 2.23496 29.6533C2.07136 29.4546 1.9884 29.2017 2.00252 28.9447C2.01665 28.6877 2.12682 28.4454 2.31121 28.2658L4.99246 25.5833V19.4095C4.9937 18.8805 5.2045 18.3735 5.57871 17.9995L7.47621 16.102C7.52265 16.0555 7.57779 16.0187 7.63849 15.9935C7.69919 15.9683 7.76425 15.9554 7.82996 15.9554C7.89567 15.9554 7.96073 15.9683 8.02143 15.9935C8.08213 16.0187 8.13728 16.0555 8.18371 16.102L11.7875 19.7033C11.8804 19.7962 11.9907 19.8699 12.1121 19.9202C12.2335 19.9705 12.3636 19.9963 12.495 19.9963C12.6264 19.9963 12.7565 19.9705 12.8779 19.9202C12.9993 19.8699 13.1096 19.7962 13.2025 19.7033C13.2954 19.6104 13.3691 19.5001 13.4194 19.3787C13.4696 19.2573 13.4955 19.1272 13.4955 18.9958C13.4955 18.8644 13.4696 18.7343 13.4194 18.6129C13.3691 18.4915 13.2954 18.3812 13.2025 18.2883L9.59746 14.6833C9.55097 14.6368 9.51409 14.5817 9.48893 14.521C9.46377 14.4603 9.45082 14.3952 9.45082 14.3295C9.45082 14.2638 9.46377 14.1988 9.48893 14.1381C9.51409 14.0774 9.55097 14.0222 9.59746 13.9758L10.9725 12.6008C11.0189 12.5543 11.074 12.5174 11.1347 12.4922C11.1954 12.4671 11.2605 12.4541 11.3262 12.4541C11.3919 12.4541 11.457 12.4671 11.5177 12.4922C11.5784 12.5174 11.6335 12.5543 11.68 12.6008L15.285 16.2058C15.3779 16.2987 15.4882 16.3724 15.6096 16.4227C15.731 16.473 15.8611 16.4988 15.9925 16.4988C16.1239 16.4988 16.254 16.473 16.3754 16.4227C16.4968 16.3724 16.6071 16.2987 16.7 16.2058C16.7929 16.1129 16.8666 16.0026 16.9169 15.8812C16.9671 15.7598 16.993 15.6297 16.993 15.4983C16.993 15.3669 16.9671 15.2368 16.9169 15.1154C16.8666 14.994 16.7929 14.8837 16.7 14.7908L13.0987 11.182C13.0522 11.1356 13.0153 11.0804 12.9902 11.0197C12.965 10.959 12.9521 10.894 12.9521 10.8283C12.9521 10.7626 12.965 10.6975 12.9902 10.6368C13.0153 10.5761 13.0522 10.521 13.0987 10.4745L16.0825 7.49203L15.2887 6.69828C15.194 6.60355 15.1192 6.49075 15.0689 6.36657C15.0186 6.24239 14.9937 6.10936 14.9958 5.97539C14.9979 5.84142 15.0269 5.70924 15.0811 5.58669C15.1353 5.46415 15.2135 5.35374 15.3112 5.26203C15.509 5.08564 15.7673 4.99248 16.0321 5.00203C16.297 5.01159 16.5479 5.1231 16.7325 5.31328L21 9.57828L24.5862 5.99078L22.2912 3.69703C22.1964 3.60239 22.1215 3.48965 22.0711 3.36551C22.0207 3.24138 21.9957 3.10837 21.9977 2.9744C21.9997 2.84043 22.0286 2.70823 22.0826 2.58564C22.1367 2.46305 22.2149 2.35258 22.3125 2.26078C22.5105 2.08431 22.769 1.99112 23.034 2.00067C23.2991 2.01022 23.5502 2.12176 23.735 2.31203L29.7075 8.28453C29.8004 8.3774 29.8742 8.48769 29.9245 8.60909C29.9748 8.73049 30.0007 8.86061 30.0007 8.99203C30.0007 9.12345 29.9748 9.25357 29.9245 9.37497C29.8742 9.49637 29.8004 9.60666 29.7075 9.69953Z" fill="#1C1C1E"/>
</svg>
