<svg width="32" height="32" viewBox="0 0 32 32" fill="none" xmlns="http://www.w3.org/2000/svg">
<path d="M30.8322 16.555L25.1247 25.11C24.9424 25.3833 24.6955 25.6074 24.406 25.7626C24.1165 25.9179 23.7932 25.9994 23.4647 26H3.99967C3.81859 26.0001 3.64087 25.9511 3.48549 25.8581C3.3301 25.7651 3.20289 25.6316 3.11742 25.472C3.03195 25.3123 2.99143 25.1325 3.0002 24.9516C3.00896 24.7707 3.06667 24.5956 3.16717 24.445L8.79842 16L3.17342 7.555C3.07321 7.4048 3.01553 7.23028 3.00651 7.04995C2.99749 6.86962 3.03746 6.69021 3.12218 6.53076C3.20691 6.37131 3.33322 6.23778 3.48771 6.14433C3.64221 6.05088 3.81912 6.00101 3.99967 6H23.4647C23.7932 6.00061 24.1165 6.08213 24.406 6.23735C24.6955 6.39258 24.9424 6.61673 25.1247 6.89L30.8284 15.445C30.9386 15.609 30.9978 15.8019 30.9984 15.9994C30.9991 16.197 30.9413 16.3903 30.8322 16.555Z" fill="#1C1C1E"/>
</svg>
