<svg width="32" height="32" viewBox="0 0 32 32" fill="none" xmlns="http://www.w3.org/2000/svg">
<path d="M26.4005 9.92375C26.2819 9.98036 26.1757 10.0598 26.0879 10.1574C26 10.2551 25.9323 10.3691 25.8885 10.493C25.8448 10.6169 25.8258 10.7481 25.8328 10.8793C25.8398 11.0105 25.8726 11.139 25.9292 11.2575C27.103 13.7063 27.3305 16.5026 26.5679 19.1089C25.8054 21.7153 24.1066 23.948 21.798 25.3779C19.4893 26.8079 16.7337 27.3344 14.0605 26.8561C11.3873 26.3779 8.98515 24.9287 7.31552 22.7869C5.64589 20.6452 4.82658 17.9621 5.01499 15.253C5.20341 12.5439 6.38626 9.99998 8.3363 8.11001C10.2863 6.22004 12.866 5.11732 15.5796 5.01372C18.2933 4.91013 20.9495 5.81296 23.038 7.54875L20.1917 10.395C18.7743 9.33894 17.0099 8.85819 15.2526 9.04929C13.4954 9.2404 11.8756 10.0892 10.7183 11.4253C9.56105 12.7613 8.9521 14.4858 9.01371 16.2523C9.07532 18.0188 9.80294 19.6966 11.0505 20.9488C12.0535 21.9515 13.3375 22.6258 14.7324 22.8825C16.1273 23.1392 17.5672 22.9661 18.8616 22.3862C20.1559 21.8062 21.2435 20.8468 21.9804 19.635C22.7172 18.4231 23.0686 17.016 22.988 15.6C22.9806 15.4687 22.9474 15.3401 22.8903 15.2216C22.8332 15.1031 22.7534 14.997 22.6553 14.9094C22.5572 14.8217 22.4428 14.7543 22.3187 14.7108C22.1945 14.6674 22.063 14.6489 21.9317 14.6563C21.8004 14.6636 21.6718 14.6968 21.5533 14.7539C21.4348 14.811 21.3287 14.8908 21.2411 14.9889C21.1535 15.087 21.086 15.2014 21.0426 15.3255C20.9991 15.4497 20.9806 15.5812 20.988 15.7125C21.0415 16.6389 20.8362 17.5619 20.3949 18.3783C19.9537 19.1946 19.294 19.8721 18.4897 20.3349C17.6854 20.7976 16.7681 21.0274 15.8406 20.9985C14.9131 20.9696 14.0119 20.6832 13.238 20.1713L16.2317 17.1775L20.9505 12.465L28.708 4.715C28.8009 4.62209 28.8746 4.51179 28.9249 4.3904C28.9751 4.26901 29.001 4.1389 29.001 4.0075C29.001 3.87611 28.9751 3.746 28.9249 3.62461C28.8746 3.50321 28.8009 3.39291 28.708 3.3C28.6151 3.20709 28.5048 3.13339 28.3834 3.08311C28.262 3.03283 28.1319 3.00695 28.0005 3.00695C27.8691 3.00695 27.739 3.03283 27.6176 3.08311C27.4962 3.13339 27.3859 3.20709 27.293 3.3L24.4592 6.125C21.9079 3.92726 18.6034 2.80522 15.2414 2.99514C11.8794 3.18505 8.7223 4.6721 6.43477 7.14317C4.14723 9.61425 2.90778 12.8766 2.97739 16.2432C3.047 19.6098 4.42024 22.8181 6.80797 25.1925C8.9759 27.3643 11.8422 28.6992 14.8997 28.961C17.9572 29.2227 21.0087 28.3945 23.5143 26.6227C26.0198 24.851 27.8178 22.25 28.5902 19.2801C29.3625 16.3102 29.0593 13.1629 27.7342 10.395C27.6776 10.2765 27.5982 10.1702 27.5005 10.0824C27.4029 9.99456 27.2888 9.92682 27.165 9.88306C27.0411 9.83929 26.9098 9.82036 26.7787 9.82735C26.6475 9.83433 26.519 9.86709 26.4005 9.92375Z" fill="#1C1C1E"/>
</svg>
