<svg width="32" height="32" viewBox="0 0 32 32" fill="none" xmlns="http://www.w3.org/2000/svg">
<path d="M7.5 11H24.5C24.6326 11 24.7598 10.9473 24.8536 10.8536C24.9473 10.7598 25 10.6326 25 10.5V5C25 4.46957 24.7893 3.96086 24.4142 3.58579C24.0391 3.21071 23.5304 3 23 3H9C8.46957 3 7.96086 3.21071 7.58579 3.58579C7.21071 3.96086 7 4.46957 7 5V10.5C7 10.6326 7.05268 10.7598 7.14645 10.8536C7.24021 10.9473 7.36739 11 7.5 11ZM11 6H13C13.2652 6 13.5196 6.10536 13.7071 6.29289C13.8946 6.48043 14 6.73478 14 7C14 7.26522 13.8946 7.51957 13.7071 7.70711C13.5196 7.89464 13.2652 8 13 8H11C10.7348 8 10.4804 7.89464 10.2929 7.70711C10.1054 7.51957 10 7.26522 10 7C10 6.73478 10.1054 6.48043 10.2929 6.29289C10.4804 6.10536 10.7348 6 11 6ZM28 14C28 13.7348 27.8946 13.4804 27.7071 13.2929C27.5196 13.1054 27.2652 13 27 13H5C4.73478 13 4.48043 13.1054 4.29289 13.2929C4.10536 13.4804 4 13.7348 4 14C4.00164 16.1948 4.60465 18.3473 5.74353 20.2235C6.88241 22.0998 8.51363 23.6281 10.46 24.6425L10.02 27.7175C9.97953 28.0011 10.0005 28.2902 10.0814 28.565C10.1624 28.8399 10.3014 29.0941 10.4892 29.3106C10.6769 29.527 10.909 29.7006 11.1696 29.8195C11.4303 29.9385 11.7135 30 12 30H20C20.2865 30 20.5697 29.9385 20.8304 29.8195C21.091 29.7006 21.3231 29.527 21.5108 29.3106C21.6986 29.0941 21.8376 28.8399 21.9186 28.565C21.9995 28.2902 22.0205 28.0011 21.98 27.7175L21.54 24.6425C23.4864 23.6281 25.1176 22.0998 26.2565 20.2235C27.3954 18.3473 27.9984 16.1948 28 14ZM12 28L12.3663 25.4375C14.7307 26.1875 17.2693 26.1875 19.6338 25.4375L20 28H12Z" fill="#1C1C1E"/>
</svg>
