<svg width="32" height="32" viewBox="0 0 32 32" fill="none" xmlns="http://www.w3.org/2000/svg">
<path d="M29.5005 8.675C29.3108 8.46212 29.0781 8.29189 28.8179 8.17554C28.5576 8.05918 28.2756 7.99935 27.9905 8H22.0005C22.0005 6.4087 21.3683 4.88258 20.2431 3.75736C19.1179 2.63214 17.5918 2 16.0005 2C14.4092 2 12.883 2.63214 11.7578 3.75736C10.6326 4.88258 10.0005 6.4087 10.0005 8H4.01046C3.72703 8.00076 3.44696 8.06127 3.18849 8.17758C2.93003 8.29389 2.699 8.46338 2.51046 8.675C2.32349 8.88583 2.18319 9.1338 2.09875 9.40264C2.01431 9.67148 1.98763 9.95513 2.02046 10.235L3.80296 25.235C3.86077 25.7237 4.09675 26.174 4.46574 26.4996C4.83474 26.8253 5.31084 27.0034 5.80296 27H26.2092C26.7013 27.0034 27.1774 26.8253 27.5464 26.4996C27.9154 26.174 28.1514 25.7237 28.2092 25.235L29.9917 10.235C30.0244 9.95504 29.9975 9.67134 29.9128 9.40249C29.8282 9.13364 29.6876 8.88573 29.5005 8.675ZM12.0005 13C12.0005 13.2652 11.8951 13.5196 11.7076 13.7071C11.52 13.8946 11.2657 14 11.0005 14C10.7352 14 10.4809 13.8946 10.2934 13.7071C10.1058 13.5196 10.0005 13.2652 10.0005 13V11C10.0005 10.7348 10.1058 10.4804 10.2934 10.2929C10.4809 10.1054 10.7352 10 11.0005 10C11.2657 10 11.52 10.1054 11.7076 10.2929C11.8951 10.4804 12.0005 10.7348 12.0005 11V13ZM16.0005 4C17.0613 4 18.0787 4.42143 18.8289 5.17157C19.579 5.92172 20.0005 6.93913 20.0005 8H12.0005C12.0005 6.93913 12.4219 5.92172 13.172 5.17157C13.9222 4.42143 14.9396 4 16.0005 4ZM22.0005 13C22.0005 13.2652 21.8951 13.5196 21.7076 13.7071C21.52 13.8946 21.2657 14 21.0005 14C20.7352 14 20.4809 13.8946 20.2934 13.7071C20.1058 13.5196 20.0005 13.2652 20.0005 13V11C20.0005 10.7348 20.1058 10.4804 20.2934 10.2929C20.4809 10.1054 20.7352 10 21.0005 10C21.2657 10 21.52 10.1054 21.7076 10.2929C21.8951 10.4804 22.0005 10.7348 22.0005 11V13Z" fill="#1C1C1E"/>
</svg>
