<svg width="32" height="32" viewBox="0 0 32 32" fill="none" xmlns="http://www.w3.org/2000/svg">
<path d="M20.9997 11C20.9997 11.2652 20.8944 11.5196 20.7068 11.7071C20.5193 11.8946 20.2649 12 19.9997 12H11.9997C11.7345 12 11.4801 11.8946 11.2926 11.7071C11.1051 11.5196 10.9997 11.2652 10.9997 11C10.9997 10.7348 11.1051 10.4804 11.2926 10.2929C11.4801 10.1054 11.7345 10 11.9997 10H19.9997C20.2649 10 20.5193 10.1054 20.7068 10.2929C20.8944 10.4804 20.9997 10.7348 20.9997 11ZM27.9647 15.2625L25.166 25.5263C25.0505 25.9496 24.799 26.3232 24.4502 26.5896C24.1015 26.8559 23.6748 27.0001 23.236 27H21.9997L23.7997 29.4C23.8785 29.5051 23.9358 29.6246 23.9684 29.7518C24.001 29.879 24.0082 30.0114 23.9897 30.1414C23.9711 30.2714 23.9271 30.3965 23.8602 30.5095C23.7933 30.6225 23.7048 30.7212 23.5997 30.8C23.4947 30.8788 23.3751 30.9361 23.2479 30.9687C23.1207 31.0013 22.9883 31.0085 22.8583 30.99C22.7283 30.9714 22.6032 30.9274 22.4902 30.8605C22.3772 30.7936 22.2785 30.7051 22.1997 30.6L19.4997 27H12.4997L9.79971 30.6C9.72092 30.7051 9.6222 30.7936 9.5092 30.8605C9.3962 30.9274 9.27113 30.9714 9.14113 30.99C9.01113 31.0085 8.87874 31.0013 8.75153 30.9687C8.62431 30.9361 8.50477 30.8788 8.39971 30.8C8.29465 30.7212 8.20614 30.6225 8.13923 30.5095C8.07233 30.3965 8.02833 30.2714 8.00976 30.1414C7.99119 30.0114 7.9984 29.879 8.03099 29.7518C8.06359 29.6246 8.12092 29.5051 8.19971 29.4L9.99971 27H8.76346C8.32464 27.0001 7.89796 26.8559 7.54919 26.5896C7.20042 26.3232 6.94892 25.9496 6.83346 25.5263L4.03471 15.2625C3.98843 15.0906 3.98843 14.9094 4.03471 14.7375L6.83346 4.47375C6.94892 4.05039 7.20042 3.67676 7.54919 3.41044C7.89796 3.14412 8.32464 2.9999 8.76346 3H23.236C23.6748 2.9999 24.1015 3.14412 24.4502 3.41044C24.799 3.67676 25.0505 4.05039 25.166 4.47375L27.9647 14.7375C28.011 14.9094 28.011 15.0906 27.9647 15.2625ZM16.9997 19C16.9997 18.7348 16.8944 18.4804 16.7068 18.2929C16.5193 18.1054 16.2649 18 15.9997 18C15.7345 18 15.4801 18.1054 15.2926 18.2929C15.1051 18.4804 14.9997 18.7348 14.9997 19V24C14.9997 24.2652 15.1051 24.5196 15.2926 24.7071C15.4801 24.8946 15.7345 25 15.9997 25C16.2649 25 16.5193 24.8946 16.7068 24.7071C16.8944 24.5196 16.9997 24.2652 16.9997 24V19ZM25.7497 14.2113L23.236 5H8.76346L6.24971 14.2113L15.9997 15.9838L25.7497 14.2113Z" fill="#1C1C1E"/>
</svg>
