<svg width="32" height="32" viewBox="0 0 32 32" fill="none" xmlns="http://www.w3.org/2000/svg">
<path d="M16 23.4813C16.3207 23.6948 16.6547 23.8877 17 24.0588V29C17 29.2652 16.8947 29.5196 16.7071 29.7071C16.5196 29.8946 16.2652 30 16 30C15.7348 30 15.4805 29.8946 15.2929 29.7071C15.1054 29.5196 15 29.2652 15 29V24.0588C15.3453 23.8877 15.6793 23.6948 16 23.4813ZM24.7625 7.82376C24.0391 6.09656 22.8214 4.62168 21.2624 3.5844C19.7034 2.54712 17.8726 1.99371 16 1.99371C14.1275 1.99371 12.2967 2.54712 10.7376 3.5844C9.17862 4.62168 7.96092 6.09656 7.23753 7.82376C5.67529 8.5378 4.3511 9.68568 3.42258 11.1308C2.49405 12.5759 2.00028 14.2573 2.00003 15.975C1.98753 20.75 6.00003 24.875 10.7675 25C12.2339 25.0348 13.6866 24.7117 15 24.0588V19.6175L9.55253 16.895C9.31516 16.7763 9.13466 16.5682 9.05074 16.3164C8.96682 16.0647 8.98634 15.7899 9.10503 15.5525C9.22371 15.3151 9.43183 15.1346 9.6836 15.0507C9.93537 14.9668 10.2102 14.9863 10.4475 15.105L15 17.3825V11C15 10.7348 15.1054 10.4804 15.2929 10.2929C15.4805 10.1054 15.7348 10 16 10C16.2652 10 16.5196 10.1054 16.7071 10.2929C16.8947 10.4804 17 10.7348 17 11V14.3825L21.5525 12.105C21.6701 12.0462 21.798 12.0112 21.9291 12.0019C22.0602 11.9926 22.1918 12.0092 22.3165 12.0507C22.4411 12.0923 22.5564 12.158 22.6556 12.2441C22.7549 12.3302 22.8363 12.435 22.895 12.5525C22.9538 12.67 22.9888 12.798 22.9982 12.9291C23.0075 13.0601 22.9909 13.1918 22.9493 13.3164C22.9078 13.4411 22.8421 13.5564 22.756 13.6556C22.6699 13.7549 22.5651 13.8362 22.4475 13.895L17 16.6175V24.0588C18.2432 24.676 19.612 24.9981 21 25H21.2275C26 24.875 30.0138 20.75 30 15.975C29.9998 14.2573 29.506 12.5759 28.5775 11.1308C27.649 9.68568 26.3248 8.5378 24.7625 7.82376Z" fill="#1C1C1E"/>
</svg>
