<svg width="32" height="32" viewBox="0 0 32 32" fill="none" xmlns="http://www.w3.org/2000/svg">
<path d="M29.9804 7.54122C29.9485 7.69896 29.879 7.84666 29.7778 7.97179C29.6766 8.09692 29.5467 8.19578 29.3991 8.25997L22.3754 11.3187C24.6607 11.9297 26.6101 13.4228 27.7954 15.47C28.3901 16.4848 28.776 17.6081 28.9306 18.7742C29.0851 19.9402 29.0052 21.1253 28.6954 22.26C28.6526 22.4181 28.5716 22.5632 28.4595 22.6827C28.3474 22.8022 28.2078 22.8923 28.0527 22.9451C27.8977 22.998 27.732 23.0119 27.5703 22.9857C27.4086 22.9595 27.2558 22.894 27.1254 22.795L17.0004 15.085V28C17.0004 28.2652 16.895 28.5195 16.7075 28.7071C16.52 28.8946 16.2656 29 16.0004 29C15.7352 29 15.4808 28.8946 15.2933 28.7071C15.1057 28.5195 15.0004 28.2652 15.0004 28V15.085L4.87539 22.795C4.74493 22.8943 4.59203 22.96 4.43018 22.9864C4.26833 23.0127 4.10249 22.9988 3.94726 22.946C3.79203 22.8931 3.65219 22.8029 3.54004 22.6833C3.42788 22.5637 3.34687 22.4183 3.30414 22.26C2.99436 21.1253 2.9144 19.9402 3.06895 18.7742C3.2235 17.6081 3.60945 16.4848 4.20414 15.47C5.38975 13.4225 7.33962 11.9294 9.62539 11.3187L2.60164 8.25997C2.45419 8.19575 2.3244 8.0969 2.22329 7.97182C2.12218 7.84674 2.05273 7.69912 2.02084 7.54148C1.98894 7.38385 1.99554 7.22084 2.04007 7.06629C2.0846 6.91175 2.16575 6.77022 2.27664 6.65372C3.05857 5.81625 4.00435 5.1485 5.05522 4.69195C6.1061 4.23541 7.23963 3.99982 8.38539 3.99982C9.53115 3.99982 10.6647 4.23541 11.7156 4.69195C12.7664 5.1485 13.7122 5.81625 14.4941 6.65372C15.0941 7.28592 15.5994 8.00169 15.9941 8.77872C16.3908 8.00129 16.8982 7.28551 17.5004 6.65372C18.2823 5.81625 19.2281 5.1485 20.279 4.69195C21.3298 4.23541 22.4634 3.99982 23.6091 3.99982C24.7549 3.99982 25.8884 4.23541 26.9393 4.69195C27.9902 5.1485 28.936 5.81625 29.7179 6.65372C29.8299 6.76956 29.9123 6.91075 29.958 7.06528C30.0037 7.2198 30.0114 7.38309 29.9804 7.54122Z" fill="#1C1C1E"/>
</svg>
