<svg width="32" height="32" viewBox="0 0 32 32" fill="none" xmlns="http://www.w3.org/2000/svg">
<path d="M28.899 24.4388C28.8168 24.6071 28.6889 24.749 28.53 24.8482C28.3711 24.9474 28.1876 25 28.0002 25H17.0002V30C17.0002 30.2652 16.8949 30.5196 16.7073 30.7071C16.5198 30.8946 16.2654 31 16.0002 31C15.735 31 15.4807 30.8946 15.2931 30.7071C15.1056 30.5196 15.0002 30.2652 15.0002 30V25H4.00023C3.81311 24.9999 3.62978 24.9472 3.47109 24.8481C3.3124 24.7489 3.18472 24.6072 3.10255 24.4391C3.02038 24.271 2.98703 24.0832 3.00629 23.8971C3.02554 23.711 3.09663 23.534 3.21148 23.3863L8.96148 16H6.00023C5.81344 16 5.63038 15.9477 5.47179 15.849C5.3132 15.7504 5.18542 15.6092 5.10293 15.4416C5.02044 15.2741 4.98654 15.0867 5.00506 14.9008C5.02358 14.715 5.09379 14.538 5.20773 14.39L15.2077 1.39001C15.3011 1.26863 15.4212 1.17034 15.5586 1.1027C15.696 1.03505 15.8471 0.999878 16.0002 0.999878C16.1534 0.999878 16.3045 1.03505 16.4419 1.1027C16.5793 1.17034 16.6993 1.26863 16.7927 1.39001L26.7927 14.39C26.9067 14.538 26.9769 14.715 26.9954 14.9008C27.0139 15.0867 26.98 15.2741 26.8975 15.4416C26.815 15.6092 26.6873 15.7504 26.5287 15.849C26.3701 15.9477 26.187 16 26.0002 16H23.0452L28.789 23.3863C28.9039 23.5338 28.9752 23.7107 28.9946 23.8968C29.0141 24.0828 28.9809 24.2706 28.899 24.4388Z" fill="#1C1C1E"/>
</svg>
