<svg width="32" height="32" viewBox="0 0 32 32" fill="none" xmlns="http://www.w3.org/2000/svg">
<path d="M29.9996 15.9996V23.9996C29.9996 24.2648 29.8942 24.5192 29.7067 24.7067C29.5192 24.8942 29.2648 24.9996 28.9996 24.9996H20.9996C20.8017 24.9997 20.6082 24.9412 20.4436 24.8313C20.279 24.7214 20.1507 24.5652 20.075 24.3824C19.9992 24.1995 19.9794 23.9984 20.0181 23.8043C20.0567 23.6102 20.1521 23.4319 20.2921 23.2921L23.5858 19.9996L16.9996 13.4133L12.7071 17.7071C12.6142 17.8001 12.5039 17.8738 12.3825 17.9241C12.2611 17.9745 12.131 18.0004 11.9996 18.0004C11.8682 18.0004 11.738 17.9745 11.6166 17.9241C11.4952 17.8738 11.385 17.8001 11.2921 17.7071L2.29208 8.70708C2.10444 8.51944 1.99902 8.26494 1.99902 7.99958C1.99902 7.73422 2.10444 7.47972 2.29208 7.29208C2.47972 7.10444 2.73422 6.99902 2.99958 6.99902C3.26494 6.99902 3.51944 7.10444 3.70708 7.29208L11.9996 15.5858L16.2921 11.2921C16.385 11.1991 16.4952 11.1253 16.6166 11.075C16.738 11.0247 16.8682 10.9988 16.9996 10.9988C17.131 10.9988 17.2611 11.0247 17.3825 11.075C17.5039 11.1253 17.6142 11.1991 17.7071 11.2921L24.9996 18.5858L28.2921 15.2921C28.4319 15.1521 28.6102 15.0567 28.8043 15.0181C28.9984 14.9794 29.1995 14.9992 29.3824 15.075C29.5652 15.1507 29.7214 15.279 29.8313 15.4436C29.9412 15.6082 29.9997 15.8017 29.9996 15.9996Z" fill="#1C1C1E"/>
</svg>
