<svg width="32" height="32" viewBox="0 0 32 32" fill="none" xmlns="http://www.w3.org/2000/svg">
<path d="M29.6004 23.5113L18.6691 4.52758C18.396 4.06249 18.006 3.67686 17.5379 3.40891C17.0698 3.14096 16.5397 3 16.0004 3C15.461 3 14.931 3.14096 14.4629 3.40891C13.9947 3.67686 13.6048 4.06249 13.3316 4.52758L2.40036 23.5113C2.13753 23.9612 1.99902 24.4728 1.99902 24.9938C1.99902 25.5148 2.13753 26.0265 2.40036 26.4763C2.66993 26.9443 3.05921 27.3321 3.52822 27.5999C3.99723 27.8677 4.52907 28.0058 5.06911 28.0001H26.9316C27.4712 28.0054 28.0026 27.867 28.4711 27.5993C28.9396 27.3315 29.3285 26.944 29.5979 26.4763C29.8611 26.0267 30 25.5152 30.0005 24.9942C30.0009 24.4732 29.8628 23.9614 29.6004 23.5113ZM13.5004 25.0001H7.59911C7.33583 25 7.0772 24.9307 6.84922 24.799C6.62123 24.6673 6.43191 24.478 6.30029 24.25C6.16867 24.0219 6.09939 23.7633 6.0994 23.5C6.09942 23.2367 6.16872 22.9781 6.30036 22.7501L9.32286 17.5001C9.45547 17.2702 9.67398 17.1024 9.93032 17.0336C10.1867 16.9648 10.4598 17.0006 10.6897 17.1332C10.9196 17.2658 11.0875 17.4843 11.1563 17.7407C11.2251 17.997 11.1892 18.2702 11.0566 18.5001L8.46411 23.0001H13.5004C13.7656 23.0001 14.0199 23.1054 14.2075 23.293C14.395 23.4805 14.5004 23.7349 14.5004 24.0001C14.5004 24.2653 14.395 24.5197 14.2075 24.7072C14.0199 24.8947 13.7656 25.0001 13.5004 25.0001ZM13.3604 14.5001C13.2278 14.7302 13.0092 14.8981 12.7527 14.9671C12.4963 15.036 12.2229 15.0002 11.9929 14.8676C11.7628 14.735 11.5948 14.5164 11.5259 14.2599C11.457 14.0035 11.4928 13.7302 11.6254 13.5001L14.6991 8.16258C14.8306 7.9341 15.0201 7.74432 15.2483 7.61236C15.4765 7.48039 15.7355 7.41091 15.9991 7.41091C16.2627 7.41091 16.5217 7.48039 16.7499 7.61236C16.9782 7.74432 17.1676 7.9341 17.2991 8.16258L20.3754 13.5001C20.508 13.73 20.5438 14.0032 20.475 14.2595C20.4062 14.5158 20.2384 14.7343 20.0085 14.867C19.7786 14.9996 19.5054 15.0354 19.2491 14.9666C18.9927 14.8978 18.7742 14.73 18.6416 14.5001L16.0004 9.91383L13.3604 14.5001ZM25.7004 24.2501C25.5683 24.4776 25.3788 24.6666 25.151 24.7982C24.9231 24.9298 24.6647 24.9994 24.4016 25.0001H18.5004C18.2351 25.0001 17.9808 24.8947 17.7933 24.7072C17.6057 24.5197 17.5004 24.2653 17.5004 24.0001C17.5004 23.7349 17.6057 23.4805 17.7933 23.293C17.9808 23.1054 18.2351 23.0001 18.5004 23.0001H23.5366L20.9441 18.5001C20.8115 18.2702 20.7757 17.997 20.8445 17.7407C20.9133 17.4843 21.0811 17.2658 21.311 17.1332C21.5409 17.0006 21.8141 16.9648 22.0704 17.0336C22.3267 17.1024 22.5453 17.2702 22.6779 17.5001L25.7004 22.7501C25.832 22.9781 25.9013 23.2368 25.9013 23.5001C25.9013 23.7634 25.832 24.0221 25.7004 24.2501Z" fill="#1C1C1E"/>
</svg>
