<svg width="32" height="32" viewBox="0 0 32 32" fill="none" xmlns="http://www.w3.org/2000/svg">
<path d="M10.9996 28.0001C10.9996 28.3956 10.8823 28.7823 10.6625 29.1112C10.4428 29.4401 10.1304 29.6965 9.76495 29.8478C9.39949 29.9992 8.99736 30.0388 8.6094 29.9616C8.22144 29.8845 7.86507 29.694 7.58537 29.4143C7.30566 29.1346 7.11518 28.7782 7.03801 28.3902C6.96084 28.0023 7.00044 27.6002 7.15182 27.2347C7.3032 26.8692 7.55954 26.5569 7.88844 26.3371C8.21734 26.1174 8.60402 26.0001 8.99958 26.0001C9.53001 26.0001 10.0387 26.2108 10.4138 26.5859C10.7889 26.9609 10.9996 27.4696 10.9996 28.0001ZM26.9996 26.0001C26.604 26.0001 26.2173 26.1174 25.8884 26.3371C25.5595 26.5569 25.3032 26.8692 25.1518 27.2347C25.0004 27.6002 24.9608 28.0023 25.038 28.3902C25.1152 28.7782 25.3057 29.1346 25.5854 29.4143C25.8651 29.694 26.2214 29.8845 26.6094 29.9616C26.9974 30.0388 27.3995 29.9992 27.7649 29.8478C28.1304 29.6965 28.4428 29.4401 28.6625 29.1112C28.8823 28.7823 28.9996 28.3956 28.9996 28.0001C28.9996 27.4696 28.7889 26.9609 28.4138 26.5859C28.0387 26.2108 27.53 26.0001 26.9996 26.0001ZM29.9996 22.0001H6.99958V9.41382C7.00042 9.15108 6.94902 8.89079 6.84838 8.64809C6.74774 8.40539 6.59985 8.18511 6.41333 8.00007L3.70708 5.29257C3.61417 5.19966 3.50387 5.12596 3.38248 5.07567C3.26108 5.02539 3.13097 4.99951 2.99958 4.99951C2.73422 4.99951 2.47972 5.10493 2.29208 5.29257C2.19917 5.38548 2.12547 5.49578 2.07519 5.61717C2.0249 5.73856 1.99902 5.86867 1.99902 6.00007C1.99902 6.26543 2.10444 6.51993 2.29208 6.70757L4.99958 9.41382V22.0001H3.99958C3.73436 22.0001 3.48001 22.1054 3.29247 22.293C3.10494 22.4805 2.99958 22.7349 2.99958 23.0001C2.99958 23.2653 3.10494 23.5196 3.29247 23.7072C3.48001 23.8947 3.73436 24.0001 3.99958 24.0001H29.9996C30.2648 24.0001 30.5192 23.8947 30.7067 23.7072C30.8942 23.5196 30.9996 23.2653 30.9996 23.0001C30.9996 22.7349 30.8942 22.4805 30.7067 22.293C30.5192 22.1054 30.2648 22.0001 29.9996 22.0001ZM10.9996 20.0001H26.9996C27.53 20.0001 28.0387 19.7894 28.4138 19.4143C28.7889 19.0392 28.9996 18.5305 28.9996 18.0001V10.0001C28.9996 9.46963 28.7889 8.96093 28.4138 8.58585C28.0387 8.21078 27.53 8.00007 26.9996 8.00007H10.9996C10.4691 8.00007 9.96044 8.21078 9.58537 8.58585C9.21029 8.96093 8.99958 9.46963 8.99958 10.0001V18.0001C8.99958 18.5305 9.21029 19.0392 9.58537 19.4143C9.96044 19.7894 10.4691 20.0001 10.9996 20.0001Z" fill="#1C1C1E"/>
</svg>
