<svg width="32" height="32" viewBox="0 0 32 32" fill="none" xmlns="http://www.w3.org/2000/svg">
<path d="M10.9996 28C10.9996 28.3956 10.8823 28.7822 10.6625 29.1111C10.4428 29.44 10.1304 29.6964 9.76495 29.8478C9.39949 29.9991 8.99736 30.0387 8.6094 29.9616C8.22144 29.8844 7.86507 29.6939 7.58537 29.4142C7.30566 29.1345 7.11518 28.7781 7.03801 28.3902C6.96084 28.0022 7.00044 27.6001 7.15182 27.2346C7.3032 26.8692 7.55954 26.5568 7.88844 26.3371C8.21734 26.1173 8.60402 26 8.99958 26C9.53001 26 10.0387 26.2107 10.4138 26.5858C10.7889 26.9609 10.9996 27.4696 10.9996 28ZM26.9996 26C26.604 26 26.2173 26.1173 25.8884 26.3371C25.5595 26.5568 25.3032 26.8692 25.1518 27.2346C25.0004 27.6001 24.9608 28.0022 25.038 28.3902C25.1152 28.7781 25.3057 29.1345 25.5854 29.4142C25.8651 29.6939 26.2214 29.8844 26.6094 29.9616C26.9974 30.0387 27.3995 29.9991 27.7649 29.8478C28.1304 29.6964 28.4428 29.44 28.6625 29.1111C28.8823 28.7822 28.9996 28.3956 28.9996 28C28.9996 27.4696 28.7889 26.9609 28.4138 26.5858C28.0387 26.2107 27.53 26 26.9996 26ZM29.9996 22H6.99958V9.41375C7.00042 9.15101 6.94902 8.89072 6.84838 8.64802C6.74774 8.40532 6.59985 8.18504 6.41333 8L3.70708 5.2925C3.61417 5.19959 3.50387 5.12589 3.38248 5.07561C3.26108 5.02532 3.13097 4.99944 2.99958 4.99944C2.73422 4.99944 2.47972 5.10486 2.29208 5.2925C2.19917 5.38541 2.12547 5.49571 2.07519 5.6171C2.0249 5.7385 1.99902 5.86861 1.99902 6C1.99902 6.26536 2.10444 6.51986 2.29208 6.7075L4.99958 9.41375V22H3.99958C3.73436 22 3.48001 22.1054 3.29247 22.2929C3.10494 22.4804 2.99958 22.7348 2.99958 23C2.99958 23.2652 3.10494 23.5196 3.29247 23.7071C3.48001 23.8946 3.73436 24 3.99958 24H29.9996C30.2648 24 30.5192 23.8946 30.7067 23.7071C30.8942 23.5196 30.9996 23.2652 30.9996 23C30.9996 22.7348 30.8942 22.4804 30.7067 22.2929C30.5192 22.1054 30.2648 22 29.9996 22ZM8.99958 18V9C8.99958 8.46957 9.21029 7.96086 9.58537 7.58579C9.96044 7.21071 10.4691 7 10.9996 7H14.9996V5C14.9996 4.46957 15.2103 3.96086 15.5854 3.58579C15.9604 3.21071 16.4691 3 16.9996 3H20.9996C21.53 3 22.0387 3.21071 22.4138 3.58579C22.7889 3.96086 22.9996 4.46957 22.9996 5V7H26.9996C27.53 7 28.0387 7.21071 28.4138 7.58579C28.7889 7.96086 28.9996 8.46957 28.9996 9V18C28.9996 18.5304 28.7889 19.0391 28.4138 19.4142C28.0387 19.7893 27.53 20 26.9996 20H10.9996C10.4691 20 9.96044 19.7893 9.58537 19.4142C9.21029 19.0391 8.99958 18.5304 8.99958 18ZM16.9996 7H20.9996V5H16.9996V7Z" fill="#1C1C1E"/>
</svg>
