<svg width="32" height="32" viewBox="0 0 32 32" fill="none" xmlns="http://www.w3.org/2000/svg">
<path d="M30.7071 9.70758L26.9696 13.4451C26.2146 22.1976 18.8333 29.0001 9.99957 29.0001C8.18457 29.0001 6.68832 28.7126 5.55207 28.1451C4.63582 27.6863 4.26082 27.1951 4.16707 27.0551C4.08348 26.9297 4.0293 26.7871 4.00857 26.6378C3.98785 26.4886 4.00112 26.3366 4.0474 26.1932C4.09368 26.0498 4.17176 25.9187 4.27582 25.8097C4.37988 25.7007 4.50722 25.6167 4.64832 25.5638C4.68082 25.5513 7.67832 24.4001 9.58207 22.2088C8.5263 21.3408 7.60467 20.3214 6.84707 19.1838C5.29707 16.8826 3.56207 12.8851 4.09707 6.91133C4.11403 6.72151 4.18488 6.54049 4.30126 6.38959C4.41765 6.23868 4.57474 6.12418 4.75402 6.05955C4.9333 5.99493 5.12732 5.98289 5.31322 6.02484C5.49912 6.06678 5.66916 6.16098 5.80332 6.29633C5.84707 6.34008 9.96332 10.4338 14.9958 11.7613V11.0001C14.9939 10.2018 15.1517 9.41125 15.46 8.67492C15.7683 7.93858 16.2208 7.27137 16.7908 6.71258C17.3444 6.15974 18.0032 5.72338 18.7282 5.42926C19.4532 5.13514 20.2298 4.98921 21.0121 5.00008C22.0615 5.01043 23.0904 5.29214 23.9988 5.81783C24.9071 6.34352 25.664 7.0953 26.1958 8.00008H29.9996C30.1975 7.99992 30.391 8.05849 30.5556 8.16836C30.7202 8.27823 30.8484 8.43446 30.9242 8.61729C30.9999 8.80011 31.0198 9.0013 30.9811 9.19538C30.9425 9.38947 30.8471 9.56772 30.7071 9.70758Z" fill="#1C1C1E"/>
</svg>
