<svg width="32" height="32" viewBox="0 0 32 32" fill="none" xmlns="http://www.w3.org/2000/svg">
<path d="M29.4695 17.3537C29.2825 17.5572 29.0553 17.7196 28.8022 17.8309C28.5492 17.9421 28.2759 17.9997 27.9995 18H16.9995V25C16.9995 25.5304 17.2102 26.0391 17.5853 26.4142C17.9604 26.7893 18.4691 27 18.9995 27C19.53 27 20.0387 26.7893 20.4137 26.4142C20.7888 26.0391 20.9995 25.5304 20.9995 25C20.9995 24.7348 21.1049 24.4804 21.2924 24.2929C21.48 24.1053 21.7343 24 21.9995 24C22.2648 24 22.5191 24.1053 22.7066 24.2929C22.8942 24.4804 22.9995 24.7348 22.9995 25C22.9995 26.0608 22.5781 27.0783 21.828 27.8284C21.0778 28.5785 20.0604 29 18.9995 29C17.9387 29 16.9213 28.5785 16.1711 27.8284C15.421 27.0783 14.9995 26.0608 14.9995 25V18H3.99953C3.72184 18.001 3.44697 17.9442 3.19244 17.8331C2.93791 17.7221 2.7093 17.5593 2.52115 17.355C2.33301 17.1507 2.18947 16.9096 2.09966 16.6468C2.00985 16.384 1.97575 16.1054 1.99953 15.8287C2.22873 13.2123 3.18646 10.7125 4.76411 8.61266C6.34177 6.51286 8.47622 4.89712 10.9254 3.94867C13.3746 3.00022 16.0406 2.75701 18.621 3.24662C21.2014 3.73623 23.593 4.93906 25.5245 6.71873C28.1076 9.08546 29.7052 12.3377 29.9995 15.8287C30.0213 16.1057 29.9854 16.3842 29.8942 16.6467C29.8029 16.9092 29.6584 17.1499 29.4695 17.3537Z" fill="#1C1C1E"/>
</svg>
