<svg width="32" height="32" viewBox="0 0 32 32" fill="none" xmlns="http://www.w3.org/2000/svg">
<path d="M28.5308 7.88375L27.9483 7.5475C28.0166 7.1857 28.0166 6.8143 27.9483 6.4525L28.5308 6.11625C28.7605 5.98364 28.9282 5.7652 28.9969 5.50898C29.0656 5.25276 29.0297 4.97974 28.897 4.75C28.7644 4.52026 28.546 4.3526 28.2898 4.28392C28.0336 4.21523 27.7605 4.25114 27.5308 4.38375L26.947 4.72125C26.6677 4.48157 26.3465 4.29554 25.9995 4.1725V3.5C25.9995 3.23478 25.8942 2.98043 25.7067 2.79289C25.5191 2.60536 25.2648 2.5 24.9995 2.5C24.7343 2.5 24.48 2.60536 24.2924 2.79289C24.1049 2.98043 23.9995 3.23478 23.9995 3.5V4.1725C23.6526 4.29554 23.3314 4.48157 23.052 4.72125L22.4683 4.38375C22.3545 4.31809 22.229 4.27548 22.0987 4.25835C21.9685 4.24122 21.8362 4.24991 21.7093 4.28392C21.5824 4.31792 21.4635 4.37659 21.3593 4.45656C21.2551 4.53653 21.1677 4.63624 21.102 4.75C21.0364 4.86376 20.9938 4.98933 20.9766 5.11956C20.9595 5.24979 20.9682 5.38211 21.0022 5.50898C21.0362 5.63585 21.0949 5.75477 21.1749 5.85897C21.2548 5.96316 21.3545 6.05059 21.4683 6.11625L22.0508 6.4525C21.9825 6.8143 21.9825 7.1857 22.0508 7.5475L21.4683 7.88375C21.2775 7.99377 21.1284 8.16367 21.0441 8.36709C20.9598 8.57052 20.945 8.79609 21.002 9.00879C21.059 9.22149 21.1846 9.40944 21.3593 9.54346C21.534 9.67748 21.7481 9.75009 21.9683 9.75C22.1439 9.75054 22.3164 9.70438 22.4683 9.61625L23.052 9.27875C23.3314 9.51843 23.6526 9.70446 23.9995 9.8275V10.5C23.9995 10.7652 24.1049 11.0196 24.2924 11.2071C24.48 11.3946 24.7343 11.5 24.9995 11.5C25.2648 11.5 25.5191 11.3946 25.7067 11.2071C25.8942 11.0196 25.9995 10.7652 25.9995 10.5V9.8275C26.3465 9.70446 26.6677 9.51843 26.947 9.27875L27.5308 9.61625C27.6827 9.70438 27.8552 9.75054 28.0308 9.75C28.251 9.75009 28.4651 9.67748 28.6398 9.54346C28.8145 9.40944 28.9401 9.22149 28.9971 9.00879C29.0541 8.79609 29.0393 8.57052 28.955 8.36709C28.8707 8.16367 28.7215 7.99377 28.5308 7.88375ZM24.9995 8C24.8018 8 24.6084 7.94135 24.444 7.83147C24.2795 7.72159 24.1514 7.56541 24.0757 7.38268C24 7.19996 23.9802 6.99889 24.0188 6.80491C24.0573 6.61093 24.1526 6.43275 24.2924 6.29289C24.4323 6.15304 24.6105 6.0578 24.8045 6.01921C24.9984 5.98063 25.1995 6.00043 25.3822 6.07612C25.565 6.15181 25.7211 6.27998 25.831 6.44443C25.9409 6.60888 25.9995 6.80222 25.9995 7C25.9995 7.26522 25.8942 7.51957 25.7067 7.70711C25.5191 7.89464 25.2648 8 24.9995 8ZM15.9995 9.5C17.0873 9.5 18.1507 9.82257 19.0552 10.4269C19.9597 11.0313 20.6646 11.8902 21.0809 12.8952C21.4972 13.9002 21.6061 15.0061 21.3939 16.073C21.1816 17.1399 20.6578 18.1199 19.8886 18.8891C19.1194 19.6583 18.1394 20.1821 17.0725 20.3943C16.0056 20.6065 14.8998 20.4976 13.8948 20.0813C12.8898 19.6651 12.0308 18.9601 11.4265 18.0556C10.8221 17.1512 10.4995 16.0878 10.4995 15C10.4995 13.5413 11.079 12.1424 12.1105 11.1109C13.1419 10.0795 14.5409 9.5 15.9995 9.5ZM28.8195 13.835C29.2764 16.5507 28.8584 19.3413 27.6258 21.804C26.3933 24.2666 24.41 26.2738 21.9623 27.5358C19.5146 28.7977 16.7292 29.2492 14.0082 28.8249C11.2872 28.4006 8.7715 27.1226 6.82423 25.1753C4.87696 23.228 3.59892 20.7123 3.17464 17.9913C2.75036 15.2703 3.2018 12.4849 4.46377 10.0372C5.72575 7.58956 7.73295 5.60627 10.1956 4.37372C12.6582 3.14117 15.4488 2.72314 18.1645 3.18C18.4241 3.22591 18.6551 3.37245 18.8072 3.58776C18.9593 3.80307 19.0202 4.06973 18.9767 4.32973C18.9332 4.58972 18.7888 4.82203 18.5749 4.97611C18.361 5.13019 18.0949 5.19359 17.8345 5.1525C16.2572 4.88716 14.641 4.96872 13.0984 5.39151C11.5558 5.8143 10.1238 6.56816 8.90219 7.60062C7.68056 8.63309 6.69858 9.91937 6.02459 11.3699C5.35061 12.8205 5.00081 14.4005 4.99954 16C4.99717 18.6927 5.98686 21.292 7.77954 23.3013C8.50657 22.2468 9.43009 21.3423 10.4995 20.6375C10.5907 20.5773 10.6991 20.5486 10.8082 20.5558C10.9172 20.563 11.0209 20.6058 11.1033 20.6775C12.462 21.8531 14.1985 22.5001 15.9952 22.5001C17.7918 22.5001 19.5284 21.8531 20.887 20.6775C20.9696 20.6055 21.0735 20.5626 21.1828 20.5553C21.2921 20.5481 21.4007 20.577 21.492 20.6375C22.5625 21.3423 23.4873 22.2467 24.2158 23.3013C26.0098 21.2925 27.0009 18.6932 26.9995 16C26.9996 15.3852 26.9486 14.7714 26.847 14.165C26.824 14.0349 26.827 13.9016 26.8559 13.7726C26.8847 13.6437 26.9388 13.5218 27.015 13.4139C27.0912 13.306 27.188 13.2143 27.2999 13.144C27.4118 13.0738 27.5365 13.0264 27.6668 13.0046C27.797 12.9828 27.9304 12.987 28.059 13.017C28.1877 13.047 28.3091 13.1023 28.4163 13.1795C28.5235 13.2567 28.6143 13.3544 28.6835 13.4669C28.7527 13.5794 28.799 13.7045 28.8195 13.835Z" fill="#1C1C1E"/>
</svg>
