<svg width="32" height="32" viewBox="0 0 32 32" fill="none" xmlns="http://www.w3.org/2000/svg">
<path d="M31.7069 16.7071L27.707 20.707C27.6142 20.8 27.5039 20.8737 27.3825 20.924C27.2611 20.9744 27.131 21.0003 26.9995 21.0003C26.8681 21.0003 26.738 20.9744 26.6166 20.924C26.4952 20.8737 26.3849 20.8 26.2921 20.707L24.2921 18.707C24.1045 18.5194 23.9991 18.2649 23.9991 17.9996C23.9991 17.7342 24.1045 17.4797 24.2921 17.2921C24.4798 17.1045 24.7342 16.999 24.9996 16.999C25.265 16.999 25.5194 17.1045 25.7071 17.2921L26.9995 18.5858L30.2919 15.2921C30.4796 15.1045 30.7341 14.9991 30.9994 14.9991C31.2648 14.9991 31.5193 15.1045 31.7069 15.2922C31.8945 15.4798 31.9999 15.7343 31.9999 15.9996C31.9999 16.265 31.8945 16.5195 31.7069 16.7071ZM17.9998 19.7095C19.5674 18.7332 20.7743 17.2729 21.438 15.5495C22.1018 13.8261 22.1861 11.9335 21.6784 10.1579C21.1707 8.38228 20.0984 6.82036 18.624 5.70841C17.1495 4.59647 15.353 3.995 13.5062 3.995C11.6594 3.995 9.86293 4.59647 8.38845 5.70841C6.91397 6.82036 5.84175 8.38228 5.33402 10.1579C4.82628 11.9335 4.91065 13.8261 5.57437 15.5495C6.23808 17.2729 7.44502 18.7332 9.01259 19.7095C6.43142 20.5545 4.10899 22.1332 2.24155 24.3556C2.11929 24.5009 2.04094 24.6781 2.01567 24.8663C1.9904 25.0545 2.01924 25.246 2.09883 25.4185C2.17842 25.5909 2.30547 25.7371 2.46511 25.8399C2.62474 25.9428 2.81037 25.9981 3.00028 25.9993H23.9996C24.1902 25.9995 24.3768 25.9453 24.5376 25.843C24.6983 25.7407 24.8265 25.5945 24.907 25.4218C24.9875 25.2491 25.017 25.057 24.992 24.8681C24.967 24.6793 24.8885 24.5014 24.7659 24.3556C22.8972 22.1332 20.5747 20.5545 17.9998 19.7095Z" fill="#1C1C1E"/>
</svg>
