<svg width="32" height="32" viewBox="0 0 32 32" fill="none" xmlns="http://www.w3.org/2000/svg">
<path d="M16.0003 9.49961C17.0881 9.49961 18.1515 9.82218 19.0559 10.4265C19.9604 11.0309 20.6653 11.8899 21.0816 12.8949C21.4979 13.8998 21.6068 15.0057 21.3946 16.0726C21.1824 17.1395 20.6586 18.1195 19.8894 18.8887C19.1202 19.6579 18.1402 20.1817 17.0733 20.3939C16.0064 20.6062 14.9005 20.4972 13.8955 20.0809C12.8905 19.6647 12.0316 18.9597 11.4272 18.0552C10.8229 17.1508 10.5003 16.0874 10.5003 14.9996C10.5003 13.5409 11.0797 12.142 12.1112 11.1105C13.1426 10.0791 14.5416 9.49961 16.0003 9.49961ZM22.0003 7.99961H28.0003C28.2655 7.99961 28.5199 7.89426 28.7074 7.70672C28.8949 7.51918 29.0003 7.26483 29.0003 6.99961C29.0003 6.7344 28.8949 6.48004 28.7074 6.29251C28.5199 6.10497 28.2655 5.99961 28.0003 5.99961H22.0003C21.7351 5.99961 21.4807 6.10497 21.2932 6.29251C21.1056 6.48004 21.0003 6.7344 21.0003 6.99961C21.0003 7.26483 21.1056 7.51918 21.2932 7.70672C21.4807 7.89426 21.7351 7.99961 22.0003 7.99961ZM26.984 11.0571C26.7341 11.1457 26.5296 11.3299 26.4154 11.5692C26.3012 11.8085 26.2868 12.0834 26.3753 12.3334C27.029 14.1871 27.174 16.1822 26.7952 18.111C26.4164 20.0399 25.5277 21.8319 24.2215 23.3009C23.4938 22.2466 22.5699 21.3422 21.5003 20.6371C21.409 20.5766 21.3003 20.5477 21.191 20.5549C21.0817 20.5622 20.9778 20.6051 20.8953 20.6771C19.5366 21.8527 17.8001 22.4997 16.0034 22.4997C14.2068 22.4997 12.4702 21.8527 11.1115 20.6771C11.0285 20.6036 10.9234 20.5598 10.8128 20.5525C10.7021 20.5453 10.5922 20.5751 10.5003 20.6371C9.42949 21.3416 8.50467 22.246 7.77654 23.3009C6.36972 21.7156 5.45086 19.7576 5.13045 17.6625C4.81005 15.5674 5.10175 13.4243 5.97048 11.491C6.8392 9.55771 8.24796 7.91657 10.0273 6.76497C11.8066 5.61337 13.8808 5.00034 16.0003 4.99961C16.6151 4.99952 17.2289 5.05052 17.8353 5.15211C18.0957 5.1932 18.3618 5.12981 18.5756 4.97572C18.7895 4.82164 18.9339 4.58934 18.9774 4.32934C19.0209 4.06934 18.96 3.80269 18.8079 3.58738C18.6558 3.37207 18.4249 3.22552 18.1653 3.17961C15.3556 2.70745 12.4687 3.17227 9.9492 4.50245C7.42973 5.83264 5.41757 7.95439 4.22272 10.5408C3.02788 13.1272 2.71666 16.0347 3.33701 18.8154C3.95737 21.5961 5.47487 24.0957 7.65572 25.929C9.83657 27.7623 12.5597 28.8276 15.4057 28.9608C18.2516 29.094 21.0624 28.2877 23.405 26.6661C25.7475 25.0445 27.4919 22.6976 28.3692 19.987C29.2466 17.2765 29.2083 14.3526 28.2603 11.6659C28.1717 11.4159 27.9875 11.2114 27.7482 11.0972C27.5089 10.9831 27.234 10.9686 26.984 11.0571Z" fill="#1C1C1E"/>
</svg>
