<svg width="32" height="32" viewBox="0 0 32 32" fill="none" xmlns="http://www.w3.org/2000/svg">
<path d="M18.9995 9.99954C18.9995 9.73432 19.1049 9.47997 19.2924 9.29243C19.48 9.1049 19.7343 8.99954 19.9995 8.99954H30.9995C31.2647 8.99954 31.5191 9.1049 31.7066 9.29243C31.8942 9.47997 31.9995 9.73432 31.9995 9.99954C31.9995 10.2648 31.8942 10.5191 31.7066 10.7066C31.5191 10.8942 31.2647 10.9995 30.9995 10.9995H19.9995C19.7343 10.9995 19.48 10.8942 19.2924 10.7066C19.1049 10.5191 18.9995 10.2648 18.9995 9.99954ZM30.9995 14.9995H19.9995C19.7343 14.9995 19.48 15.1049 19.2924 15.2924C19.1049 15.48 18.9995 15.7343 18.9995 15.9995C18.9995 16.2648 19.1049 16.5191 19.2924 16.7066C19.48 16.8942 19.7343 16.9995 19.9995 16.9995H30.9995C31.2647 16.9995 31.5191 16.8942 31.7066 16.7066C31.8942 16.5191 31.9995 16.2648 31.9995 15.9995C31.9995 15.7343 31.8942 15.48 31.7066 15.2924C31.5191 15.1049 31.2647 14.9995 30.9995 14.9995ZM30.9995 20.9995H22.9995C22.7343 20.9995 22.48 21.1049 22.2924 21.2924C22.1049 21.48 21.9995 21.7343 21.9995 21.9995C21.9995 22.2648 22.1049 22.5191 22.2924 22.7066C22.48 22.8942 22.7343 22.9995 22.9995 22.9995H30.9995C31.2647 22.9995 31.5191 22.8942 31.7066 22.7066C31.8942 22.5191 31.9995 22.2648 31.9995 21.9995C31.9995 21.7343 31.8942 21.48 31.7066 21.2924C31.5191 21.1049 31.2647 20.9995 30.9995 20.9995ZM13.6608 17.7495C14.6532 16.9851 15.3815 15.9292 15.7435 14.7299C16.1056 13.5307 16.0831 12.2481 15.6793 11.0623C15.2756 9.8764 14.5108 8.84664 13.4922 8.11742C12.4736 7.3882 11.2523 6.99609 9.99953 6.99609C8.7468 6.99609 7.52549 7.3882 6.50689 8.11742C5.48828 8.84664 4.72347 9.8764 4.31971 11.0623C3.91595 12.2481 3.8935 13.5307 4.25551 14.7299C4.61751 15.9292 5.34582 16.9851 6.33828 17.7495C3.76078 18.8408 1.72953 21.037 1.03078 23.7495C0.992613 23.8974 0.988796 24.0519 1.01962 24.2015C1.05045 24.351 1.11509 24.4914 1.20861 24.6121C1.30212 24.7328 1.42202 24.8304 1.55912 24.8976C1.69622 24.9647 1.84687 24.9996 1.99953 24.9995H17.9995C18.1522 24.9996 18.3028 24.9647 18.4399 24.8976C18.577 24.8304 18.6969 24.7328 18.7904 24.6121C18.884 24.4914 18.9486 24.351 18.9794 24.2015C19.0103 24.0519 19.0064 23.8974 18.9683 23.7495C18.2695 21.0358 16.2383 18.8395 13.6608 17.7495Z" fill="#1C1C1E"/>
</svg>
