<svg width="32" height="32" viewBox="0 0 32 32" fill="none" xmlns="http://www.w3.org/2000/svg">
<path d="M12.0322 4.62513C11.9672 4.36907 12.0062 4.0977 12.1406 3.87028C12.275 3.64287 12.494 3.47789 12.7497 3.41138C14.8815 2.86157 17.1179 2.86157 19.2497 3.41138C19.4858 3.47183 19.6917 3.61644 19.8287 3.81803C19.9657 4.01962 20.0244 4.26431 19.9937 4.5061C19.963 4.7479 19.845 4.97016 19.662 5.1311C19.4789 5.29205 19.2434 5.38061 18.9997 5.38013C18.9153 5.37969 18.8313 5.36877 18.7497 5.34763C16.9459 4.8819 15.0534 4.8819 13.2497 5.34763C13.1223 5.38028 12.9897 5.38748 12.8595 5.36883C12.7294 5.35017 12.6041 5.30603 12.4911 5.23891C12.378 5.1718 12.2792 5.08305 12.2005 4.97772C12.1217 4.8724 12.0645 4.75258 12.0322 4.62513ZM4.16841 13.7501C4.29498 13.7853 4.42722 13.7952 4.5576 13.7792C4.68798 13.7632 4.81394 13.7217 4.92828 13.6571C5.04261 13.5924 5.14309 13.5059 5.22398 13.4024C5.30486 13.2989 5.36456 13.1805 5.39966 13.0539C5.8985 11.2596 6.84473 9.62133 8.14966 8.29263C8.32366 8.10129 8.41677 7.84999 8.40944 7.59148C8.40211 7.33297 8.29491 7.08735 8.11035 6.90618C7.92579 6.72502 7.67822 6.6224 7.41961 6.61988C7.16101 6.61735 6.91148 6.71511 6.72341 6.89263C5.18172 8.46253 4.0635 10.3979 3.47341 12.5176C3.43805 12.6442 3.42798 12.7765 3.44377 12.9069C3.45957 13.0374 3.50092 13.1635 3.56547 13.2779C3.63001 13.3924 3.71649 13.493 3.81995 13.574C3.9234 13.6551 4.04182 13.7149 4.16841 13.7501ZM26.5984 13.0551C26.6694 13.3107 26.8389 13.5277 27.0698 13.6583C27.3007 13.7888 27.5741 13.8223 27.8297 13.7514C28.0853 13.6804 28.3022 13.5109 28.4328 13.28C28.5634 13.049 28.5969 12.7757 28.5259 12.5201C27.9361 10.4003 26.8178 8.46487 25.2759 6.89513C25.1838 6.80148 25.0742 6.72688 24.9533 6.67561C24.8324 6.62433 24.7025 6.59737 24.5712 6.59626C24.4398 6.59516 24.3096 6.61994 24.1878 6.66918C24.0661 6.71842 23.9552 6.79116 23.8615 6.88325C23.7679 6.97534 23.6933 7.08497 23.642 7.20589C23.5907 7.32681 23.5638 7.45664 23.5627 7.58798C23.5616 7.71932 23.5863 7.84959 23.6356 7.97135C23.6848 8.09311 23.7576 8.20398 23.8497 8.29763C25.1538 9.62576 26.0995 11.2631 26.5984 13.0564V13.0551ZM27.8322 18.2501C27.7055 18.215 27.5732 18.2052 27.4428 18.2212C27.3123 18.2373 27.1863 18.2789 27.072 18.3437C26.9576 18.4084 26.8571 18.4951 26.7763 18.5988C26.6955 18.7024 26.6359 18.8209 26.6009 18.9476C26.1526 20.5614 25.3401 22.0508 24.2259 23.3014C23.4968 22.2468 22.5712 21.3428 21.4997 20.6389C21.4086 20.5785 21.3003 20.5496 21.1913 20.5566C21.0822 20.5636 20.9785 20.6061 20.8959 20.6776C19.5373 21.8532 17.8007 22.5002 16.004 22.5002C14.2074 22.5002 12.4708 21.8532 11.1122 20.6776C11.0295 20.6058 10.9255 20.5631 10.8162 20.5561C10.7069 20.5491 10.5983 20.5782 10.5072 20.6389C9.42876 21.3332 8.49492 22.2297 7.75716 23.2789C6.65361 22.0318 5.84866 20.5497 5.40341 18.9451C5.33247 18.6895 5.16289 18.4726 4.93199 18.342C4.70108 18.2114 4.42777 18.1779 4.17216 18.2489C3.91656 18.3198 3.69961 18.4894 3.56904 18.7203C3.43847 18.9512 3.40497 19.2245 3.47591 19.4801C4.24022 22.2152 5.87854 24.625 8.14076 26.3417C10.403 28.0584 13.1648 28.9877 16.0047 28.9877C18.8445 28.9877 21.6064 28.0584 23.8686 26.3417C26.1308 24.625 27.7691 22.2152 28.5334 19.4801C28.5683 19.3533 28.5778 19.2209 28.5614 19.0904C28.545 18.9599 28.5031 18.8339 28.438 18.7197C28.3728 18.6054 28.2858 18.5051 28.1818 18.4246C28.0779 18.344 27.9591 18.2847 27.8322 18.2501ZM15.9997 20.5001C17.0875 20.5001 18.1508 20.1776 19.0553 19.5732C19.9598 18.9689 20.6647 18.1099 21.081 17.1049C21.4973 16.0999 21.6062 14.994 21.394 13.9271C21.1818 12.8602 20.6579 11.8802 19.8888 11.111C19.1196 10.3419 18.1396 9.81803 17.0727 9.60581C16.0058 9.39359 14.8999 9.50251 13.8949 9.91879C12.8899 10.3351 12.0309 11.04 11.4266 11.9445C10.8222 12.849 10.4997 13.9123 10.4997 15.0001C10.5013 16.4583 11.0813 17.8563 12.1124 18.8874C13.1435 19.9185 14.5415 20.4985 15.9997 20.5001Z" fill="#1C1C1E"/>
</svg>
