<svg width="32" height="32" viewBox="0 0 32 32" fill="none" xmlns="http://www.w3.org/2000/svg">
<path d="M28.8 27.3992C28.9118 27.5477 28.9799 27.7245 28.9968 27.9097C29.0137 28.0948 28.9786 28.281 28.8955 28.4474C28.8124 28.6137 28.6846 28.7535 28.5264 28.8512C28.3682 28.9489 28.1859 29.0006 28 29.0004H4C3.81429 29.0004 3.63225 28.9487 3.47427 28.8511C3.31629 28.7534 3.18863 28.6137 3.10557 28.4476C3.02252 28.2815 2.98736 28.0956 3.00404 27.9106C3.02072 27.7257 3.08857 27.549 3.2 27.4004C4.08548 26.2133 5.26628 25.2785 6.625 24.6892C5.88022 24.0094 5.35837 23.1204 5.12794 22.1387C4.8975 21.1571 4.96926 20.1287 5.33379 19.1885C5.69832 18.2484 6.33858 17.4404 7.17054 16.8707C8.0025 16.301 8.98728 15.9961 9.99563 15.9961C11.004 15.9961 11.9887 16.301 12.8207 16.8707C13.6527 17.4404 14.2929 18.2484 14.6575 19.1885C15.022 20.1287 15.0937 21.1571 14.8633 22.1387C14.6329 23.1204 14.111 24.0094 13.3663 24.6892C14.3465 25.1129 15.2373 25.7191 15.9913 26.4754C16.7452 25.7191 17.636 25.1129 18.6162 24.6892C17.8715 24.0094 17.3496 23.1204 17.1192 22.1387C16.8888 21.1571 16.9605 20.1287 17.325 19.1885C17.6896 18.2484 18.3298 17.4404 19.1618 16.8707C19.9938 16.301 20.9785 15.9961 21.9869 15.9961C22.9952 15.9961 23.98 16.301 24.812 16.8707C25.6439 17.4404 26.2842 18.2484 26.6487 19.1885C27.0132 20.1287 27.085 21.1571 26.8546 22.1387C26.6241 23.1204 26.1023 24.0094 25.3575 24.6892C26.7225 25.2754 27.9097 26.2099 28.8 27.3992ZM3.4 15.8004C3.50506 15.8792 3.62461 15.9366 3.75182 15.9691C3.87903 16.0017 4.01142 16.009 4.14142 15.9904C4.27142 15.9718 4.39649 15.9278 4.50949 15.8609C4.62249 15.794 4.72121 15.7055 4.8 15.6004C5.40546 14.7932 6.19055 14.1379 7.09311 13.6867C7.99567 13.2354 8.99091 13.0004 10 13.0004C11.0091 13.0004 12.0043 13.2354 12.9069 13.6867C13.8094 14.1379 14.5945 14.7932 15.2 15.6004C15.2931 15.7246 15.4139 15.8254 15.5528 15.8949C15.6916 15.9643 15.8448 16.0004 16 16.0004C16.1552 16.0004 16.3084 15.9643 16.4472 15.8949C16.5861 15.8254 16.7069 15.7246 16.8 15.6004C17.4055 14.7932 18.1906 14.1379 19.0931 13.6867C19.9957 13.2354 20.9909 13.0004 22 13.0004C23.0091 13.0004 24.0043 13.2354 24.9069 13.6867C25.8095 14.1379 26.5945 14.7932 27.2 15.6004C27.2789 15.7055 27.3777 15.794 27.4907 15.8609C27.6038 15.9277 27.729 15.9717 27.859 15.9902C27.9891 16.0087 28.1215 16.0014 28.2488 15.9688C28.376 15.9361 28.4956 15.8787 28.6006 15.7998C28.7057 15.7209 28.7942 15.6221 28.8611 15.5091C28.9279 15.396 28.9719 15.2708 28.9904 15.1408C29.0089 15.0107 29.0016 14.8783 28.969 14.751C28.9363 14.6238 28.8789 14.5042 28.8 14.3992C27.9145 13.2123 26.7337 12.278 25.375 11.6892C26.1198 11.0094 26.6416 10.1204 26.8721 9.13873C27.1025 8.15707 27.0307 7.12867 26.6662 6.18853C26.3017 5.24839 25.6614 4.44043 24.8295 3.8707C23.9975 3.30097 23.0127 2.99609 22.0044 2.99609C20.996 2.99609 20.0113 3.30097 19.1793 3.8707C18.3473 4.44043 17.7071 5.24839 17.3425 6.18853C16.978 7.12867 16.9063 8.15707 17.1367 9.13873C17.3671 10.1204 17.889 11.0094 18.6338 11.6892C17.6535 12.1129 16.7627 12.7191 16.0088 13.4754C15.2548 12.7191 14.364 12.1129 13.3837 11.6892C14.1285 11.0094 14.6504 10.1204 14.8808 9.13873C15.1112 8.15707 15.0395 7.12867 14.675 6.18853C14.3104 5.24839 13.6702 4.44043 12.8382 3.8707C12.0062 3.30097 11.0215 2.99609 10.0131 2.99609C9.00479 2.99609 8.02 3.30097 7.18804 3.8707C6.35608 4.44043 5.71582 5.24839 5.35129 6.18853C4.98676 7.12867 4.915 8.15707 5.14544 9.13873C5.37587 10.1204 5.89772 11.0094 6.6425 11.6892C5.2774 12.2759 4.09032 13.2109 3.2 14.4004C3.12121 14.5055 3.06388 14.625 3.03129 14.7522C2.9987 14.8795 2.99148 15.0118 3.01005 15.1419C3.02862 15.2719 3.07262 15.3969 3.13953 15.5099C3.20643 15.6229 3.29494 15.7216 3.4 15.8004Z" fill="#1C1C1E"/>
</svg>
