<svg width="32" height="32" viewBox="0 0 32 32" fill="none" xmlns="http://www.w3.org/2000/svg">
<path d="M15.9995 9.50001C17.0873 9.50001 18.1507 9.82258 19.0552 10.4269C19.9597 11.0313 20.6646 11.8903 21.0809 12.8953C21.4972 13.9002 21.6061 15.0061 21.3939 16.073C21.1816 17.1399 20.6578 18.1199 19.8886 18.8891C19.1194 19.6583 18.1394 20.1821 17.0725 20.3943C16.0056 20.6066 14.8998 20.4976 13.8948 20.0814C12.8898 19.6651 12.0308 18.9601 11.4265 18.0556C10.8221 17.1512 10.4995 16.0878 10.4995 15C10.4995 13.5413 11.079 12.1424 12.1105 11.1109C13.1419 10.0795 14.5409 9.50001 15.9995 9.50001ZM21.9995 8.00001H23.9995V10C23.9995 10.2652 24.1049 10.5196 24.2924 10.7071C24.48 10.8947 24.7343 11 24.9995 11C25.2648 11 25.5191 10.8947 25.7067 10.7071C25.8942 10.5196 25.9995 10.2652 25.9995 10V8.00001H27.9995C28.2648 8.00001 28.5191 7.89466 28.7067 7.70712C28.8942 7.51958 28.9995 7.26523 28.9995 7.00001C28.9995 6.7348 28.8942 6.48044 28.7067 6.29291C28.5191 6.10537 28.2648 6.00001 27.9995 6.00001H25.9995V4.00001C25.9995 3.7348 25.8942 3.48044 25.7067 3.29291C25.5191 3.10537 25.2648 3.00001 24.9995 3.00001C24.7343 3.00001 24.48 3.10537 24.2924 3.29291C24.1049 3.48044 23.9995 3.7348 23.9995 4.00001V6.00001H21.9995C21.7343 6.00001 21.48 6.10537 21.2924 6.29291C21.1049 6.48044 20.9995 6.7348 20.9995 7.00001C20.9995 7.26523 21.1049 7.51958 21.2924 7.70712C21.48 7.89466 21.7343 8.00001 21.9995 8.00001ZM27.6683 13.0138C27.4067 13.0575 27.1733 13.2034 27.0193 13.4193C26.8652 13.6352 26.8033 13.9034 26.847 14.165C26.9486 14.7714 26.9996 15.3852 26.9995 16C27.0019 18.6928 26.0122 21.292 24.2195 23.3013C23.4922 22.2471 22.5687 21.3427 21.4995 20.6375C21.4082 20.577 21.2996 20.5481 21.1903 20.5553C21.081 20.5626 20.9771 20.6055 20.8945 20.6775C19.5359 21.8531 17.7993 22.5001 16.0027 22.5001C14.206 22.5001 12.4695 21.8531 11.1108 20.6775C11.0278 20.604 10.9227 20.5602 10.812 20.5529C10.7014 20.5457 10.5914 20.5755 10.4995 20.6375C9.42875 21.342 8.50393 22.2464 7.77579 23.3013C6.36898 21.716 5.45011 19.758 5.12971 17.6629C4.8093 15.5678 5.10101 13.4247 5.96974 11.4914C6.83846 9.55811 8.24722 7.91698 10.0266 6.76537C11.8059 5.61377 13.8801 5.00074 15.9995 5.00001C16.6144 4.99992 17.2282 5.05093 17.8345 5.15251C18.0949 5.1936 18.361 5.13021 18.5749 4.97613C18.7888 4.82204 18.9332 4.58974 18.9767 4.32974C19.0202 4.06974 18.9593 3.80309 18.8072 3.58778C18.6551 3.37247 18.4241 3.22592 18.1645 3.18001C15.4488 2.72316 12.6582 3.14118 10.1956 4.37373C7.73295 5.60628 5.72575 7.58958 4.46377 10.0373C3.2018 12.4849 2.75036 15.2704 3.17464 17.9913C3.59892 20.7123 4.87696 23.2281 6.82423 25.1753C8.7715 27.1226 11.2872 28.4006 14.0082 28.8249C16.7292 29.2492 19.5146 28.7978 21.9623 27.5358C24.41 26.2738 26.3933 24.2666 27.6258 21.804C28.8584 19.3413 29.2764 16.5507 28.8195 13.835C28.7758 13.5735 28.6299 13.34 28.414 13.186C28.1981 13.032 27.9299 12.97 27.6683 13.0138Z" fill="#1C1C1E"/>
</svg>
