<svg width="32" height="32" viewBox="0 0 32 32" fill="none" xmlns="http://www.w3.org/2000/svg">
<path d="M32.0004 17.0001C32.0004 17.2653 31.895 17.5197 31.7075 17.7072C31.5199 17.8948 31.2656 18.0001 31.0004 18.0001H29.0004V20.0001C29.0004 20.2653 28.895 20.5197 28.7075 20.7072C28.5199 20.8948 28.2656 21.0001 28.0004 21.0001C27.7352 21.0001 27.4808 20.8948 27.2933 20.7072C27.1057 20.5197 27.0004 20.2653 27.0004 20.0001V18.0001H25.0004C24.7352 18.0001 24.4808 17.8948 24.2933 17.7072C24.1057 17.5197 24.0004 17.2653 24.0004 17.0001C24.0004 16.7349 24.1057 16.4805 24.2933 16.293C24.4808 16.1055 24.7352 16.0001 25.0004 16.0001H27.0004V14.0001C27.0004 13.7349 27.1057 13.4805 27.2933 13.293C27.4808 13.1055 27.7352 13.0001 28.0004 13.0001C28.2656 13.0001 28.5199 13.1055 28.7075 13.293C28.895 13.4805 29.0004 13.7349 29.0004 14.0001V16.0001H31.0004C31.2656 16.0001 31.5199 16.1055 31.7075 16.293C31.895 16.4805 32.0004 16.7349 32.0004 17.0001ZM18.0004 19.7101C19.568 18.7337 20.775 17.2734 21.4387 15.55C22.1024 13.8265 22.1868 11.9338 21.6791 10.1582C21.1713 8.38254 20.0991 6.82057 18.6245 5.70859C17.15 4.59661 15.3534 3.99512 13.5066 3.99512C11.6598 3.99512 9.86323 4.59661 8.38871 5.70859C6.91418 6.82057 5.84193 8.38254 5.33418 10.1582C4.82643 11.9338 4.9108 13.8265 5.57454 15.55C6.23827 17.2734 7.44525 18.7337 9.01287 19.7101C6.43162 20.5551 4.10912 22.1339 2.24162 24.3564C2.11936 24.5017 2.04101 24.6788 2.01573 24.8671C1.99046 25.0553 2.0193 25.2468 2.0989 25.4192C2.17849 25.5917 2.30554 25.7379 2.46518 25.8407C2.62482 25.9436 2.81046 25.9989 3.00037 26.0001H24.0004C24.1909 26.0003 24.3776 25.9461 24.5383 25.8437C24.6991 25.7414 24.8272 25.5953 24.9077 25.4226C24.9882 25.2499 25.0177 25.0578 24.9927 24.8689C24.9677 24.68 24.8893 24.5022 24.7666 24.3564C22.8979 22.1339 20.5754 20.5551 18.0004 19.7101Z" fill="#1C1C1E"/>
</svg>
