<svg width="32" height="32" viewBox="0 0 32 32" fill="none" xmlns="http://www.w3.org/2000/svg">
<path d="M29.7075 17.7073L25.7075 21.7073C25.5676 21.8473 25.3894 21.9427 25.1953 21.9813C25.0012 22.02 24.8 22.0002 24.6172 21.9244C24.4344 21.8487 24.2782 21.7204 24.1683 21.5558C24.0584 21.3912 23.9998 21.1977 24 20.9998V17.9998H15.4137L10.4138 22.9998L12.7075 25.2923C12.8475 25.4322 12.9429 25.6104 12.9815 25.8045C13.0202 25.9986 13.0004 26.1998 12.9246 26.3826C12.8489 26.5654 12.7206 26.7217 12.556 26.8315C12.3914 26.9414 12.1979 27 12 26.9998H6C5.73478 26.9998 5.48043 26.8945 5.29289 26.7069C5.10536 26.5194 5 26.265 5 25.9998V19.9998C4.99984 19.8019 5.05841 19.6084 5.16828 19.4438C5.27815 19.2792 5.43439 19.1509 5.61721 19.0752C5.80003 18.9994 6.00122 18.9796 6.19531 19.0183C6.38939 19.0569 6.56764 19.1523 6.7075 19.2923L9 21.5861L14 16.5861V7.99981H11C10.8021 7.99997 10.6086 7.9414 10.444 7.83153C10.2794 7.72166 10.1511 7.56542 10.0754 7.3826C9.99963 7.19978 9.97982 6.99859 10.0185 6.8045C10.0571 6.61042 10.1525 6.43217 10.2925 6.29231L14.2925 2.29231C14.3854 2.19933 14.4957 2.12557 14.6171 2.07525C14.7385 2.02493 14.8686 1.99902 15 1.99902C15.1314 1.99902 15.2615 2.02493 15.3829 2.07525C15.5043 2.12557 15.6146 2.19933 15.7075 2.29231L19.7075 6.29231C19.8475 6.43217 19.9429 6.61042 19.9815 6.8045C20.0202 6.99859 20.0004 7.19978 19.9246 7.3826C19.8489 7.56542 19.7206 7.72166 19.556 7.83153C19.3914 7.9414 19.1979 7.99997 19 7.99981H16V15.9998H24V12.9998C23.9998 12.8019 24.0584 12.6084 24.1683 12.4438C24.2782 12.2792 24.4344 12.1509 24.6172 12.0752C24.8 11.9994 25.0012 11.9796 25.1953 12.0183C25.3894 12.0569 25.5676 12.1523 25.7075 12.2923L29.7075 16.2923C29.8005 16.3852 29.8742 16.4955 29.9246 16.6169C29.9749 16.7383 30.0008 16.8684 30.0008 16.9998C30.0008 17.1312 29.9749 17.2614 29.9246 17.3828C29.8742 17.5041 29.8005 17.6144 29.7075 17.7073Z" fill="#1C1C1E"/>
</svg>
