<svg width="32" height="32" viewBox="0 0 32 32" fill="none" xmlns="http://www.w3.org/2000/svg">
<path d="M28.7073 24.7073L24.7073 28.7073C24.5675 28.8473 24.3892 28.9427 24.1951 28.9813C24.001 29.02 23.7998 29.0002 23.617 28.9244C23.4342 28.8487 23.278 28.7204 23.1681 28.5558C23.0582 28.3912 22.9997 28.1977 22.9998 27.9998V24.9998H9.99981C9.73459 24.9998 9.48024 24.8945 9.2927 24.7069C9.10517 24.5194 8.99981 24.265 8.99981 23.9998V9.99981H5.99981C5.80192 9.99997 5.60842 9.9414 5.44383 9.83153C5.27923 9.72166 5.15094 9.56542 5.07519 9.3826C4.99944 9.19978 4.97963 8.99859 5.01828 8.8045C5.05693 8.61042 5.1523 8.43217 5.29231 8.29231L9.29231 4.29231C9.38518 4.19933 9.49547 4.12557 9.61687 4.07525C9.73827 4.02493 9.8684 3.99902 9.99981 3.99902C10.1312 3.99902 10.2614 4.02493 10.3828 4.07525C10.5041 4.12557 10.6144 4.19933 10.7073 4.29231L14.7073 8.29231C14.8473 8.43217 14.9427 8.61042 14.9813 8.8045C15.02 8.99859 15.0002 9.19978 14.9244 9.3826C14.8487 9.56542 14.7204 9.72166 14.5558 9.83153C14.3912 9.9414 14.1977 9.99997 13.9998 9.99981H10.9998V22.9998H22.9998V19.9998C22.9997 19.8019 23.0582 19.6084 23.1681 19.4438C23.278 19.2792 23.4342 19.1509 23.617 19.0752C23.7998 18.9994 24.001 18.9796 24.1951 19.0183C24.3892 19.0569 24.5675 19.1523 24.7073 19.2923L28.7073 23.2923C28.8003 23.3852 28.874 23.4955 28.9244 23.6169C28.9747 23.7383 29.0006 23.8684 29.0006 23.9998C29.0006 24.1312 28.9747 24.2614 28.9244 24.3827C28.874 24.5041 28.8003 24.6144 28.7073 24.7073Z" fill="#1C1C1E"/>
</svg>
