<svg width="32" height="32" viewBox="0 0 32 32" fill="none" xmlns="http://www.w3.org/2000/svg">
<path d="M22.8806 6.99979H8.99977C7.78212 6.99978 6.57713 7.24687 5.45775 7.72609C4.33838 8.20531 3.32788 8.9067 2.48745 9.7878C1.64702 10.6689 0.994122 11.7114 0.568289 12.8521C0.142455 13.9929 -0.0474595 15.2082 0.0100405 16.4245C0.221284 21.0106 3.97992 24.773 8.56603 24.9892C10.546 25.0792 12.5659 24.2518 14.7383 22.4518C15.0941 22.1573 15.5415 21.9962 16.0033 21.9962C16.4651 21.9962 16.9125 22.1573 17.2683 22.4518C18.5895 23.548 20.6244 24.9992 22.9993 24.9992C24.1913 24.9993 25.3713 24.7627 26.471 24.303C27.5707 23.8433 28.5682 23.1698 29.4055 22.3214C30.2427 21.4731 30.9032 20.4669 31.3484 19.3613C31.7936 18.2556 32.0148 17.0726 31.9991 15.8808C31.9353 10.9834 27.8442 6.99979 22.8806 6.99979ZM21.9994 12.9996H9.99974C9.73453 12.9996 9.48018 12.8942 9.29265 12.7067C9.10512 12.5192 8.99977 12.2648 8.99977 11.9996C8.99977 11.7344 9.10512 11.4801 9.29265 11.2925C9.48018 11.105 9.73453 10.9997 9.99974 10.9997H21.9994C22.2646 10.9997 22.5189 11.105 22.7065 11.2925C22.894 11.4801 22.9993 11.7344 22.9993 11.9996C22.9993 12.2648 22.894 12.5192 22.7065 12.7067C22.5189 12.8942 22.2646 12.9996 21.9994 12.9996Z" fill="#1C1C1E"/>
</svg>
