<svg width="32" height="32" viewBox="0 0 32 32" fill="none" xmlns="http://www.w3.org/2000/svg">
<path d="M10.4177 5.39889C10.37 5.34535 10.3343 5.28216 10.3131 5.2136C10.292 5.14505 10.2858 5.07275 10.295 5.0016C10.3043 4.93045 10.3287 4.86213 10.3667 4.80127C10.4047 4.74041 10.4554 4.68844 10.5152 4.64889C12.5048 3.35485 14.8898 2.81063 17.2438 3.11353C19.5978 3.41644 21.7673 4.54672 23.3644 6.30229C24.9616 8.05786 25.8823 10.3243 25.9619 12.6963C26.0415 15.0684 25.2749 17.3914 23.799 19.2501C23.7541 19.3074 23.6972 19.3542 23.6324 19.3872C23.5675 19.4202 23.4962 19.4387 23.4235 19.4413C23.3508 19.4439 23.2784 19.4306 23.2113 19.4024C23.1442 19.3741 23.0842 19.3315 23.0352 19.2776L20.9815 17.0176C20.905 16.9333 20.8596 16.8254 20.8528 16.7117C20.846 16.5981 20.8782 16.4855 20.944 16.3926C21.7065 15.278 22.0707 13.9387 21.9776 12.5914C21.8846 11.2441 21.3397 9.96762 20.4311 8.96842C19.5226 7.96922 18.3035 7.30575 16.9711 7.08534C15.6387 6.86494 14.2709 7.10049 13.089 7.75389C12.9903 7.81023 12.8754 7.83127 12.7631 7.81354C12.6509 7.79582 12.548 7.74039 12.4715 7.65639L10.4177 5.39889ZM15.8665 9.00014C15.5089 9.01161 15.1544 9.07131 14.8127 9.17764C14.7311 9.20226 14.6571 9.24736 14.5977 9.30866C14.5384 9.36996 14.4958 9.44541 14.4739 9.52785C14.4519 9.61028 14.4515 9.69695 14.4725 9.77962C14.4935 9.86229 14.5353 9.9382 14.594 10.0001L18.859 14.6914C18.9158 14.7541 18.9876 14.8013 19.0676 14.8287C19.1476 14.8561 19.2333 14.8628 19.3166 14.848C19.3999 14.8333 19.4781 14.7977 19.5439 14.7445C19.6097 14.6913 19.6609 14.6223 19.6927 14.5439C19.897 14.0549 20.0015 13.5301 20.0002 13.0001C19.9944 12.4652 19.8825 11.9367 19.6711 11.4453C19.4596 10.9539 19.1528 10.5093 18.7683 10.1373C18.3839 9.76525 17.9294 9.47319 17.4313 9.278C16.9332 9.08281 16.4013 8.98837 15.8665 9.00014ZM26.6727 27.7376C26.4765 27.916 26.2174 28.0091 25.9525 27.9964C25.6876 27.9837 25.4386 27.8664 25.2602 27.6701L24.649 27.0001H4.00024C3.86316 27.0004 3.72747 26.9725 3.60162 26.9182C3.47576 26.8639 3.36242 26.7842 3.26864 26.6842C3.17486 26.5842 3.10264 26.466 3.05647 26.3369C3.0103 26.2079 2.99116 26.0707 3.00024 25.9339C3.02236 25.6763 3.14135 25.4367 3.3332 25.2634C3.52506 25.0901 3.7755 24.996 4.03399 25.0001H15.0002V22.9501C13.3356 22.7841 11.7393 22.2028 10.3577 21.2595C8.97618 20.3162 7.85359 19.0411 7.09293 17.5512C6.33228 16.0612 5.95792 14.4041 6.00419 12.7319C6.05046 11.0596 6.51587 9.42575 7.35774 7.98014L5.26024 5.67264C5.17008 5.57578 5.10003 5.46199 5.05417 5.33786C5.0083 5.21373 4.98753 5.08174 4.99305 4.94952C4.99858 4.81731 5.03029 4.6875 5.08635 4.56763C5.14241 4.44776 5.2217 4.34021 5.31963 4.25121C5.41756 4.16221 5.53219 4.09354 5.65686 4.04916C5.78152 4.00479 5.91376 3.9856 6.0459 3.99271C6.17804 3.99982 6.30746 4.03308 6.42664 4.09058C6.54583 4.14807 6.65243 4.22865 6.74024 4.32764L26.7402 26.3276C26.9186 26.5239 27.0117 26.783 26.999 27.0479C26.9863 27.3128 26.869 27.5618 26.6727 27.7401V27.7376ZM16.0002 19.0001C16.4204 18.9997 16.8393 18.9553 17.2502 18.8676L15.5265 16.9714C14.5697 16.8575 13.6861 16.402 13.0382 15.6887C12.3904 14.9754 12.0218 14.0522 12.0002 13.0889L10.279 11.1939C9.99524 12.0927 9.92724 13.0458 10.0805 13.9758C10.2338 14.9059 10.604 15.7867 11.1612 16.547C11.7184 17.3072 12.4469 17.9255 13.2876 18.3517C14.1284 18.7779 15.0577 19.0001 16.0002 19.0001ZM22.8302 25.0001L20.1777 22.0826C19.1744 22.5471 18.1004 22.8403 17.0002 22.9501V25.0001H22.8302Z" fill="#1C1C1E"/>
</svg>
