<svg width="32" height="32" viewBox="0 0 32 32" fill="none" xmlns="http://www.w3.org/2000/svg">
<path d="M6.26899 20.0004L11.134 11.5716L10.854 11.0866C10.4354 10.3844 10.1648 9.60409 10.0587 8.79353C9.95257 7.98297 10.0132 7.15927 10.2369 6.37299C10.4606 5.5867 10.8425 4.85442 11.3594 4.22107C11.8763 3.58773 12.5171 3.06668 13.2426 2.68991C13.968 2.31314 14.7629 2.0886 15.5782 2.03005C16.3936 1.97151 17.2124 2.08021 17.9842 2.34947C18.7561 2.61873 19.4648 3.04288 20.0668 3.59589C20.6689 4.1489 21.1515 4.8191 21.4852 5.56537C21.59 5.79322 21.6072 6.05164 21.5337 6.29138C21.4601 6.53113 21.301 6.73543 21.0865 6.86537C20.9646 6.93616 20.8291 6.98038 20.6888 6.99511C20.5486 7.00984 20.4069 6.99476 20.2729 6.95085C20.1389 6.90693 20.0157 6.83519 19.9115 6.74032C19.8072 6.64545 19.7241 6.5296 19.6677 6.40037C19.447 5.90156 19.1267 5.45316 18.7263 5.08273C18.3259 4.7123 17.854 4.42767 17.3396 4.24634C16.8251 4.06501 16.279 3.99081 15.7349 4.0283C15.1907 4.06579 14.66 4.21418 14.1753 4.46435C13.6906 4.71451 13.2621 5.06116 12.9163 5.483C12.5705 5.90483 12.3147 6.39294 12.1645 6.9173C12.0143 7.44166 11.9729 7.99121 12.0429 8.53215C12.1129 9.0731 12.2928 9.59401 12.5715 10.0629C12.5755 10.0678 12.5789 10.0733 12.5815 10.0791L14.3102 13.0716C14.398 13.2236 14.4442 13.3961 14.4442 13.5716C14.4442 13.7472 14.398 13.9196 14.3102 14.0716L9.73274 22.0004C9.46404 22.4527 9.0279 22.781 8.51883 22.914C8.00976 23.047 7.46878 22.9741 7.01313 22.711C6.55747 22.4479 6.22385 22.0158 6.08456 21.5085C5.94527 21.0011 6.01153 20.4592 6.26899 20.0004ZM23.894 15.0004H22.3515L17.7327 7.00037C17.464 6.54799 17.0279 6.21973 16.5188 6.08671C16.0098 5.95369 15.4688 6.02663 15.0131 6.28973C14.5575 6.55283 14.2239 6.98489 14.0846 7.49228C13.9453 7.99966 14.0115 8.5415 14.269 9.00037L18.599 16.5004C18.6867 16.6522 18.8127 16.7784 18.9646 16.8661C19.1164 16.9539 19.2886 17.0002 19.464 17.0004H23.9177C26.154 17.0004 28.0365 18.8304 28.0002 21.0666C27.983 22.1093 27.5593 23.104 26.8193 23.8388C26.0794 24.5736 25.0818 24.9904 24.039 25.0004C23.7835 24.9973 23.536 25.0894 23.3447 25.2588C23.1534 25.4281 23.0319 25.6626 23.004 25.9166C22.9924 26.0548 23.0096 26.1939 23.0547 26.3251C23.0997 26.4562 23.1715 26.5766 23.2655 26.6785C23.3596 26.7804 23.4738 26.8617 23.6009 26.9171C23.7281 26.9725 23.8653 27.0009 24.004 27.0004C24.8016 26.9997 25.591 26.8401 26.3263 26.5311C27.0615 26.222 27.7278 25.7696 28.2864 25.2002C28.8449 24.6309 29.2844 23.956 29.5793 23.215C29.8742 22.4739 30.0186 21.6816 30.004 20.8841C29.9365 17.5991 27.1852 15.0004 23.899 15.0004H23.894ZM26.0002 20.9041C25.9502 19.8279 25.0227 19.0004 23.9465 19.0004H14.3515C14.1759 19.0003 14.0034 19.0465 13.8514 19.1343C13.6993 19.2221 13.573 19.3483 13.4852 19.5004L11.4652 23.0004C11.1926 23.4705 10.827 23.8802 10.3908 24.2043C9.95452 24.5285 9.4568 24.7604 8.92798 24.8858C8.39916 25.0112 7.85033 25.0275 7.31499 24.9337C6.77964 24.84 6.26902 24.6381 5.81429 24.3405C5.35956 24.0428 4.97026 23.6556 4.67014 23.2025C4.37003 22.7494 4.1654 22.2399 4.06875 21.705C3.9721 21.1702 3.98545 20.6213 4.108 20.0918C4.23054 19.5623 4.4597 19.0634 4.78149 18.6254C4.93692 18.423 5.01127 18.1699 4.99 17.9156C4.96873 17.6613 4.85338 17.4241 4.66649 17.2504C4.56317 17.1583 4.44187 17.0887 4.31026 17.0459C4.17864 17.0032 4.03959 16.9882 3.90189 17.0019C3.76419 17.0157 3.63084 17.0578 3.51028 17.1258C3.38972 17.1937 3.28457 17.2859 3.20149 17.3966C2.43013 18.4188 2.00887 19.6624 2.00024 20.9429C1.98837 22.2679 2.41543 23.5595 3.21479 24.6163C4.01415 25.673 5.14084 26.4355 6.41905 26.7846C7.69727 27.1337 9.0551 27.0499 10.2807 26.5463C11.5063 26.0426 12.5306 25.1474 13.194 24.0004L13.7715 23.0004H24.0002C24.2712 23.0007 24.5394 22.9459 24.7885 22.8395C25.0377 22.733 25.2626 22.577 25.4496 22.381C25.6366 22.1849 25.7819 21.9529 25.8765 21.6991C25.9712 21.4452 26.0133 21.1747 26.0002 20.9041Z" fill="#1C1C1E"/>
</svg>
