<svg width="32" height="32" viewBox="0 0 32 32" fill="none" xmlns="http://www.w3.org/2000/svg">
<path d="M31.3158 24.9487L28.3158 25.9487C28.0876 26.0251 27.8394 26.0166 27.6169 25.9247C27.3944 25.8329 27.2125 25.6638 27.1046 25.4487L23.3808 17.9999H12.9996C12.7344 17.9999 12.48 17.8946 12.2925 17.707C12.1049 17.5195 11.9996 17.2651 11.9996 16.9999V13.2924C10.3888 13.7733 9.0049 14.8177 8.10074 16.2349C7.19659 17.652 6.83259 19.3472 7.07529 21.0106C7.31799 22.674 8.15117 24.1945 9.42254 25.2942C10.6939 26.3939 12.3186 26.9994 13.9996 26.9999C17.2383 26.9999 20.2608 24.7437 21.0308 21.7499C21.0637 21.6227 21.1212 21.5032 21.2003 21.3982C21.2793 21.2933 21.3782 21.2049 21.4914 21.1381C21.6045 21.0714 21.7297 21.0276 21.8598 21.0092C21.9899 20.9909 22.1224 20.9983 22.2496 21.0312C22.3768 21.064 22.4963 21.1216 22.6013 21.2006C22.7063 21.2796 22.7946 21.3785 22.8614 21.4917C22.9281 21.6049 22.9719 21.7301 22.9903 21.8602C23.0086 21.9903 23.0012 22.1227 22.9683 22.2499C21.9608 26.1624 18.1896 28.9999 13.9996 28.9999C11.7878 28.9986 9.65397 28.1829 8.00532 26.7085C6.35667 25.2341 5.30867 23.2042 5.06135 21.0063C4.81403 18.8084 5.3847 16.5964 6.66446 14.7924C7.94421 12.9885 9.84342 11.719 11.9996 11.2262V8.85117C11.1939 8.61097 10.5016 8.0888 10.0493 7.38013C9.59701 6.67147 9.41488 5.82368 9.53626 4.99178C9.65763 4.15988 10.0744 3.39946 10.7103 2.84957C11.3463 2.29968 12.1589 1.99707 12.9996 1.99707C13.8403 1.99707 14.6529 2.29968 15.2889 2.84957C15.9248 3.39946 16.3416 4.15988 16.4629 4.99178C16.5843 5.82368 16.4022 6.67147 15.9499 7.38013C15.4975 8.0888 14.8053 8.61097 13.9996 8.85117V10.9999H20.9996C21.2648 10.9999 21.5192 11.1053 21.7067 11.2928C21.8942 11.4804 21.9996 11.7347 21.9996 11.9999C21.9996 12.2651 21.8942 12.5195 21.7067 12.707C21.5192 12.8946 21.2648 12.9999 20.9996 12.9999H13.9996V15.9999H23.9996C24.1852 16 24.367 16.0518 24.5249 16.1493C24.6827 16.2469 24.8103 16.3865 24.8933 16.5524L28.5058 23.7774L30.6833 23.0512C30.935 22.9673 31.2096 22.9868 31.4468 23.1054C31.6841 23.224 31.8645 23.432 31.9483 23.6837C32.0322 23.9353 32.0127 24.2099 31.8941 24.4472C31.7755 24.6844 31.5675 24.8648 31.3158 24.9487Z" fill="#1C1C1E"/>
</svg>
