<svg width="32" height="32" viewBox="0 0 32 32" fill="none" xmlns="http://www.w3.org/2000/svg">
<path d="M17.9997 6C17.9997 5.20888 18.2343 4.43552 18.6739 3.77772C19.1134 3.11992 19.7381 2.60723 20.469 2.30448C21.1999 2.00173 22.0042 1.92252 22.7801 2.07686C23.556 2.2312 24.2687 2.61216 24.8282 3.17157C25.3876 3.73098 25.7685 4.44372 25.9229 5.21964C26.0772 5.99556 25.998 6.79983 25.6952 7.53074C25.3925 8.26164 24.8798 8.88635 24.222 9.32588C23.5642 9.76541 22.7909 10 21.9997 10C20.9389 10 19.9214 9.57857 19.1713 8.82843C18.4212 8.07828 17.9997 7.06087 17.9997 6ZM19.9997 20C19.7345 20 19.4802 20.1054 19.2926 20.2929C19.1051 20.4804 18.9997 20.7348 18.9997 21C18.9997 22.1867 18.6478 23.3467 17.9885 24.3334C17.3293 25.3201 16.3922 26.0892 15.2958 26.5433C14.1995 26.9974 12.9931 27.1162 11.8292 26.8847C10.6653 26.6532 9.5962 26.0818 8.75709 25.2426C7.91797 24.4035 7.34653 23.3344 7.11502 22.1705C6.88351 21.0067 7.00233 19.8003 7.45645 18.7039C7.91058 17.6075 8.67961 16.6705 9.66631 16.0112C10.653 15.3519 11.813 15 12.9997 15C13.2649 15 13.5193 14.8946 13.7068 14.7071C13.8944 14.5196 13.9997 14.2652 13.9997 14C13.9997 13.7348 13.8944 13.4804 13.7068 13.2929C13.5193 13.1054 13.2649 13 12.9997 13C11.4175 13 9.87076 13.4692 8.55517 14.3482C7.23957 15.2273 6.21419 16.4767 5.60869 17.9385C5.00319 19.4003 4.84477 21.0089 5.15345 22.5607C5.46213 24.1126 6.22405 25.538 7.34287 26.6569C8.46169 27.7757 9.88716 28.5376 11.439 28.8463C12.9909 29.155 14.5994 28.9965 16.0612 28.391C17.523 27.7855 18.7724 26.7602 19.6515 25.4446C20.5305 24.129 20.9997 22.5823 20.9997 21C20.9997 20.7348 20.8944 20.4804 20.7068 20.2929C20.5193 20.1054 20.2649 20 19.9997 20ZM24.9997 16H17.7272L19.8672 12.2775C19.9946 12.0559 20.0323 11.794 19.9725 11.5454C19.9128 11.2969 19.7601 11.0807 19.546 10.9413C17.4038 9.54863 14.8731 8.8761 12.3222 9.02156C9.77131 9.16703 7.33343 10.1229 5.36348 11.75C5.25681 11.8317 5.1677 11.9341 5.10149 12.0511C5.03528 12.168 4.99331 12.2971 4.9781 12.4306C4.9629 12.5641 4.97476 12.6993 5.01297 12.8282C5.05119 12.957 5.11499 13.0768 5.20054 13.1805C5.2861 13.2841 5.39167 13.3694 5.51094 13.4313C5.63021 13.4932 5.76074 13.5305 5.89472 13.5408C6.02871 13.5512 6.1634 13.5344 6.29076 13.4915C6.41812 13.4486 6.53553 13.3805 6.63598 13.2913C8.15415 12.0408 10.007 11.2652 11.9633 11.0613C13.9196 10.8575 15.8926 11.2344 17.636 12.145L15.1322 16.5C15.0444 16.6521 14.9982 16.8247 14.9983 17.0004C14.9983 17.176 15.0447 17.3486 15.1326 17.5006C15.2205 17.6527 15.347 17.7789 15.4992 17.8666C15.6514 17.9542 15.8241 18.0003 15.9997 18H23.7797L22.0197 26.8038C21.9678 27.0636 22.0212 27.3335 22.1682 27.5541C22.3151 27.7746 22.5436 27.9278 22.8035 27.98C22.868 27.9933 22.9338 28 22.9997 28C23.2306 27.9996 23.4542 27.9193 23.6326 27.7728C23.811 27.6263 23.9332 27.4226 23.9785 27.1963L25.9785 17.1963C26.0075 17.0513 26.004 16.9017 25.9683 16.7583C25.9326 16.6149 25.8655 16.4812 25.7719 16.3668C25.6783 16.2524 25.5605 16.1601 25.427 16.0967C25.2935 16.0333 25.1475 16.0003 24.9997 16Z" fill="#1C1C1E"/>
</svg>
