<svg width="32" height="32" viewBox="0 0 32 32" fill="none" xmlns="http://www.w3.org/2000/svg">
<path d="M28.7074 12.2927C28.8003 12.3856 28.874 12.4959 28.9243 12.6173C28.9746 12.7387 29.0005 12.8688 29.0005 13.0002C29.0005 13.1316 28.9746 13.2617 28.9243 13.3831C28.874 13.5045 28.8003 13.6148 28.7074 13.7077C28.6145 13.8006 28.5042 13.8743 28.3828 13.9246C28.2614 13.9748 28.1313 14.0007 27.9999 14.0007C27.8685 14.0007 27.7384 13.9748 27.617 13.9246C27.4956 13.8743 27.3853 13.8006 27.2924 13.7077L24.9999 11.4139L22.7074 13.7077C22.5198 13.8953 22.2653 14.0007 21.9999 14.0007C21.7345 14.0007 21.48 13.8953 21.2924 13.7077C21.1048 13.52 20.9993 13.2655 20.9993 13.0002C20.9993 12.7348 21.1048 12.4803 21.2924 12.2927L23.5861 10.0002L21.2924 7.70767C21.1995 7.61475 21.1258 7.50445 21.0755 7.38306C21.0252 7.26167 20.9993 7.13156 20.9993 7.00017C20.9993 6.86877 21.0252 6.73866 21.0755 6.61727C21.1258 6.49588 21.1995 6.38558 21.2924 6.29267C21.48 6.10502 21.7345 5.99961 21.9999 5.99961C22.1313 5.99961 22.2614 6.02549 22.3828 6.07577C22.5042 6.12605 22.6145 6.19975 22.7074 6.29267L24.9999 8.58642L27.2924 6.29267C27.3853 6.19975 27.4956 6.12605 27.617 6.07577C27.7384 6.02549 27.8685 5.99961 27.9999 5.99961C28.1313 5.99961 28.2614 6.02549 28.3828 6.07577C28.5042 6.12605 28.6145 6.19975 28.7074 6.29267C28.8003 6.38558 28.874 6.49588 28.9243 6.61727C28.9746 6.73866 29.0005 6.86877 29.0005 7.00017C29.0005 7.13156 28.9746 7.26167 28.9243 7.38306C28.874 7.50445 28.8003 7.61475 28.7074 7.70767L26.4136 10.0002L28.7074 12.2927ZM25.8561 16.3752C25.6731 16.2583 25.4996 16.1271 25.3374 15.9827C25.2454 15.8994 25.1258 15.8533 25.0018 15.8533C24.8777 15.8533 24.7581 15.8994 24.6661 15.9827C23.9038 16.662 22.9106 17.024 21.89 16.9947C20.8693 16.9653 19.8986 16.5468 19.1766 15.8248C18.4546 15.1028 18.036 14.132 18.0066 13.1113C17.9773 12.0907 18.3393 11.0975 19.0186 10.3352C19.1009 10.2434 19.1463 10.1246 19.1463 10.0014C19.1463 9.87823 19.1009 9.75939 19.0186 9.66766C18.4397 9.01863 18.088 8.19858 18.017 7.33176C17.9459 6.46493 18.1594 5.59856 18.6249 4.86392C18.6697 4.79085 18.695 4.70749 18.6983 4.62184C18.7016 4.53619 18.6828 4.45112 18.6438 4.37481C18.6048 4.2985 18.5468 4.23351 18.4754 4.18607C18.404 4.13863 18.3216 4.11034 18.2361 4.10392C17.4953 4.03475 16.7499 4.00017 15.9999 4.00017C10.8667 3.98086 5.87038 5.65479 1.78489 8.76266C1.57222 8.9246 1.39434 9.1277 1.26183 9.35985C1.12933 9.592 1.04492 9.84845 1.01364 10.1139C0.982204 10.3787 1.00524 10.6472 1.08133 10.9028C1.15743 11.1583 1.28498 11.3957 1.45614 11.6002L14.4561 27.2789C14.6441 27.5059 14.88 27.6883 15.147 27.813C15.4139 27.9377 15.7052 28.0017 15.9999 28.0002C16.2937 28.0009 16.584 27.9366 16.8501 27.8119C17.1161 27.6872 17.3513 27.5052 17.5386 27.2789L25.9699 17.1152C26.0151 17.0607 26.0483 16.9973 26.0672 16.9291C26.0861 16.8609 26.0904 16.7895 26.0796 16.7196C26.0689 16.6496 26.0434 16.5827 26.0048 16.5234C25.9663 16.464 25.9156 16.4135 25.8561 16.3752Z" fill="#1C1C1E"/>
</svg>
