<svg width="32" height="32" viewBox="0 0 32 32" fill="none" xmlns="http://www.w3.org/2000/svg">
<path d="M26.7399 26.3277C26.8301 26.4245 26.9001 26.5383 26.946 26.6625C26.9918 26.7866 27.0126 26.9186 27.0071 27.0508C27.0016 27.183 26.9698 27.3128 26.9138 27.4327C26.8577 27.5526 26.7784 27.6601 26.6805 27.7491C26.5826 27.8381 26.468 27.9068 26.3433 27.9512C26.2186 27.9955 26.0864 28.0147 25.9542 28.0076C25.8221 28.0005 25.6927 27.9672 25.5735 27.9097C25.4543 27.8522 25.3477 27.7717 25.2599 27.6727L21.0511 23.0477L17.5386 27.2827C17.3509 27.5083 17.1156 27.6896 16.8496 27.8136C16.5836 27.9377 16.2934 28.0014 15.9999 28.0002C15.7061 28.0009 15.4157 27.9366 15.1497 27.8119C14.8837 27.6873 14.6485 27.5052 14.4611 27.2789L1.45614 11.6002C1.28498 11.3957 1.15743 11.1584 1.08133 10.9028C1.00524 10.6472 0.982204 10.3787 1.01364 10.1139C1.04492 9.84846 1.12933 9.59201 1.26183 9.35986C1.39434 9.12771 1.57222 8.92461 1.78489 8.76268C3.04514 7.80604 4.39866 6.97894 5.82489 6.29393L5.28864 5.70393C5.10731 5.51052 5.00775 5.25451 5.01078 4.98941C5.01381 4.72431 5.11919 4.47064 5.30489 4.28143C5.40116 4.18836 5.51514 4.11556 5.64007 4.06737C5.76501 4.01918 5.89834 3.99657 6.03218 4.00089C6.16601 4.0052 6.29762 4.03635 6.41919 4.09248C6.54076 4.14862 6.64982 4.2286 6.73989 4.32768L26.7399 26.3277ZM30.9899 10.1139C30.9586 9.84846 30.8742 9.59201 30.7417 9.35986C30.6092 9.12771 30.4313 8.92461 30.2186 8.76268C26.1321 5.65402 21.1344 3.98005 15.9999 4.00018C14.2128 3.9987 12.4313 4.19786 10.6886 4.59393C10.6042 4.61452 10.5266 4.65675 10.4635 4.71647C10.4004 4.77619 10.3539 4.85133 10.3287 4.93449C10.3034 5.01764 10.3003 5.10594 10.3196 5.19067C10.3389 5.2754 10.3799 5.35364 10.4386 5.41768L23.2499 19.5089C23.298 19.5611 23.3567 19.6023 23.4221 19.63C23.4874 19.6577 23.5579 19.6712 23.6288 19.6695C23.6998 19.6679 23.7696 19.6511 23.8335 19.6204C23.8975 19.5897 23.9542 19.5457 23.9999 19.4914L30.5436 11.6002C30.7148 11.3957 30.8424 11.1584 30.9185 10.9028C30.9945 10.6472 31.0176 10.3787 30.9861 10.1139H30.9899Z" fill="#1C1C1E"/>
</svg>
