<svg width="32" height="32" viewBox="0 0 32 32" fill="none" xmlns="http://www.w3.org/2000/svg">
<path d="M29.0002 28.9341C28.9782 28.677 28.8595 28.4377 28.6682 28.2645C28.4769 28.0913 28.2271 27.9969 27.969 28.0004H22.8677L22.0802 22.4854L22.4852 22.7241C22.7116 22.8575 22.962 22.9449 23.2222 22.9815C23.4823 23.018 23.7471 23.0029 24.0014 22.9371C24.2558 22.8713 24.4946 22.756 24.7044 22.5979C24.9142 22.4397 25.0907 22.2418 25.224 22.0154L26.7002 19.5154C26.9605 19.0848 27.0543 18.574 26.964 18.0791C26.9105 17.8006 26.798 17.5367 26.6342 17.3051C26.4703 17.0736 26.2589 16.8798 26.014 16.7366L18.6165 12.3754C18.3921 12.2474 18.2245 12.0393 18.1472 11.7928C18.07 11.5463 18.089 11.2797 18.2002 11.0466C18.2617 10.9243 18.3477 10.8158 18.4528 10.728C18.558 10.6403 18.68 10.575 18.8114 10.5363C18.9427 10.4977 19.0807 10.4864 19.2166 10.5032C19.3525 10.52 19.4835 10.5646 19.6015 10.6341L22.2202 12.1754C22.3343 12.243 22.4705 12.2625 22.599 12.2297C22.7274 12.1969 22.8376 12.1144 22.9052 12.0004L26.724 5.51287C26.8575 5.28647 26.9451 5.03596 26.9818 4.77567C27.0184 4.51539 27.0034 4.25043 26.9376 3.99595C26.8718 3.74148 26.7564 3.50247 26.5982 3.29261C26.4399 3.08274 26.2418 2.90613 26.0152 2.77287L23.4727 1.27287C23.2464 1.13953 22.996 1.05209 22.7358 1.01554C22.4757 0.978995 22.2109 0.99406 21.9565 1.05988C21.7022 1.12569 21.4633 1.24097 21.2536 1.39913C21.0438 1.55728 20.8672 1.75522 20.734 1.98162L16.359 9.40912C16.287 9.53148 16.1897 9.63711 16.0737 9.71898C15.9577 9.80084 15.8256 9.85706 15.6862 9.88391C15.5468 9.91075 15.4033 9.9076 15.2652 9.87466C15.127 9.84172 14.9975 9.77975 14.8852 9.69287C14.6934 9.53879 14.5639 9.32032 14.5209 9.07802C14.4779 8.83572 14.5243 8.58605 14.6515 8.37537L16.1802 5.77787C16.2466 5.66344 16.265 5.52736 16.2312 5.39944C16.1975 5.27151 16.1144 5.16217 16.0002 5.09537L9.51524 1.27787C9.28889 1.14453 9.03849 1.05709 8.77833 1.02054C8.51818 0.983995 8.25337 0.99906 7.99904 1.06488C7.74471 1.13069 7.50584 1.24597 7.29607 1.40413C7.0863 1.56228 6.90975 1.76022 6.77649 1.98662L5.30024 4.48662C5.04009 4.91672 4.94628 5.42713 5.03649 5.92162C5.09047 6.20017 5.20309 6.46405 5.36688 6.69573C5.53068 6.92741 5.74189 7.12159 5.98649 7.26537L13.3852 11.6254C13.6031 11.7492 13.7677 11.9489 13.8477 12.1864C13.9277 12.4239 13.9175 12.6825 13.819 12.9129C13.7614 13.0412 13.6775 13.156 13.5726 13.2497C13.4676 13.3433 13.3442 13.4138 13.2101 13.4565C13.0761 13.4992 12.9346 13.5132 12.7948 13.4975C12.6551 13.4818 12.5202 13.4368 12.399 13.3654L9.77399 11.8229C9.6602 11.7574 9.52525 11.7394 9.39826 11.7726C9.27127 11.8058 9.16244 11.8876 9.09524 12.0004L5.27649 18.4879C5.14315 18.7142 5.05571 18.9646 5.01916 19.2248C4.98262 19.4849 4.99768 19.7497 5.0635 20.0041C5.12932 20.2584 5.2446 20.4973 5.40275 20.707C5.56091 20.9168 5.75884 21.0934 5.98524 21.2266L8.52774 22.7266C8.92482 22.9646 9.39371 23.0532 9.85024 22.9766L9.13274 28.0004H4.03399C3.7755 27.9963 3.52506 28.0903 3.3332 28.2636C3.14135 28.4369 3.02236 28.6765 3.00024 28.9341C2.99116 29.0709 3.0103 29.2081 3.05647 29.3372C3.10264 29.4663 3.17486 29.5845 3.26864 29.6845C3.36242 29.7844 3.47576 29.8641 3.60162 29.9184C3.72747 29.9728 3.86316 30.0007 4.00024 30.0004H28.0002C28.1373 30.0007 28.273 29.9728 28.3989 29.9184C28.5247 29.8641 28.6381 29.7844 28.7318 29.6845C28.8256 29.5845 28.8978 29.4663 28.944 29.3372C28.9902 29.2081 29.0093 29.0709 29.0002 28.9341ZM11.1527 28.0004L12.2502 20.3504L13.8465 17.6379L15.6252 14.6166C15.7532 14.3925 15.9611 14.2251 16.2073 14.1479C16.4535 14.0707 16.7198 14.0895 16.9527 14.2004C17.0751 14.2619 17.1835 14.3478 17.2713 14.453C17.3591 14.5581 17.4243 14.6801 17.463 14.8115C17.5017 14.9429 17.513 15.0808 17.4962 15.2167C17.4793 15.3526 17.4348 15.4836 17.3652 15.6016L15.824 18.2266C15.757 18.3409 15.7381 18.477 15.7713 18.6052C15.8046 18.7334 15.8874 18.8431 16.0015 18.9104L19.8765 21.1916L20.8477 28.0004H11.1527Z" fill="#1C1C1E"/>
</svg>
