<svg width="32" height="32" viewBox="0 0 32 32" fill="none" xmlns="http://www.w3.org/2000/svg">
<path d="M29 11.9998C29.0015 13.4965 28.6297 14.97 27.9182 16.2869C27.2067 17.6037 26.1781 18.7224 24.9253 19.5415C23.6726 20.3606 22.2353 20.8543 20.7437 20.978C19.252 21.1017 17.7531 20.8514 16.3825 20.2498L9.87503 27.7773C9.86003 27.7948 9.84253 27.8135 9.82628 27.8298C9.07605 28.58 8.05851 29.0015 6.99753 29.0015C5.93654 29.0015 4.91901 28.58 4.16878 27.8298C3.41855 27.0795 2.99707 26.062 2.99707 25.001C2.99707 23.94 3.41855 22.9225 4.16878 22.1723C4.18628 22.156 4.20378 22.1385 4.22253 22.1235L11.75 15.6173C11.0756 14.0745 10.847 12.3736 11.0902 10.7076C11.3334 9.04153 12.0386 7.47697 13.1259 6.19137C14.2131 4.90577 15.6389 3.95059 17.2415 3.43419C18.844 2.91778 20.5592 2.86081 22.1925 3.26975C22.3609 3.31195 22.5154 3.39725 22.6408 3.51726C22.7662 3.63727 22.8582 3.78785 22.9078 3.9542C22.9573 4.12055 22.9627 4.29694 22.9235 4.46601C22.8842 4.63509 22.8016 4.79103 22.6838 4.9185L18 9.99975L18.7075 13.2935L22 13.9998L27.0813 9.30975C27.2087 9.19194 27.3647 9.10933 27.5338 9.07005C27.7028 9.03078 27.8792 9.03619 28.0456 9.08575C28.2119 9.13532 28.3625 9.22733 28.4825 9.35274C28.6025 9.47815 28.6878 9.63263 28.73 9.801C28.9095 10.5201 29.0002 11.2586 29 11.9998Z" fill="#1C1C1E"/>
</svg>
