<svg width="32" height="32" viewBox="0 0 32 32" fill="none" xmlns="http://www.w3.org/2000/svg">
<path d="M8.67471 18.1112C7.70729 19.7987 6.92084 21.5836 6.32846 23.4362C6.30049 23.5234 6.24911 23.6013 6.17993 23.6613C6.11075 23.7213 6.02642 23.7611 5.93615 23.7764C5.84587 23.7918 5.75312 23.782 5.668 23.7483C5.58288 23.7145 5.50867 23.658 5.45346 23.585C4.17284 21.8118 3.363 19.7426 3.09971 17.5712C3.09115 17.4994 3.09828 17.4266 3.12059 17.3578C3.14291 17.289 3.17988 17.2259 3.22895 17.1728C3.27803 17.1197 3.33804 17.0778 3.40486 17.0501C3.47167 17.0225 3.54369 17.0096 3.61596 17.0125C5.35347 17.0802 7.06564 17.4521 8.67471 18.1112ZM5.49971 9.64248C8.24928 9.94839 10.9189 10.7586 13.3747 12.0325C14.2619 11.1593 15.2056 10.3454 16.1997 9.59623C13.5289 8.0176 10.5953 6.93359 7.53971 6.39623C7.46364 6.38261 7.38544 6.38681 7.31127 6.4085C7.23709 6.43019 7.16896 6.46878 7.11221 6.52123C6.36337 7.22588 5.69967 8.01585 5.13471 8.87498C5.08865 8.94655 5.06163 9.02868 5.05619 9.11361C5.05075 9.19854 5.06707 9.28345 5.10362 9.3603C5.14017 9.43716 5.19574 9.50341 5.26505 9.55279C5.33436 9.60217 5.41513 9.63304 5.49971 9.64248ZM29.9472 27.6687C29.8798 27.4717 29.7519 27.3009 29.5818 27.1809C29.4117 27.0608 29.2079 26.9975 28.9997 27H22.9197C24.4379 26.0434 25.7421 24.7835 26.7507 23.2993C27.7593 21.8152 28.4505 20.1387 28.781 18.375C28.7975 18.2885 28.7909 18.1991 28.7618 18.116C28.7328 18.0328 28.6822 17.9589 28.6154 17.9015C28.5485 17.8442 28.4677 17.8055 28.3811 17.7894C28.2945 17.7734 28.2052 17.7804 28.1222 17.81C25.9885 18.5502 24.0484 19.7603 22.4452 21.3509C20.842 22.9416 19.6166 24.8722 18.8597 27H16.7497C17.6019 24.252 19.1349 21.7641 21.2062 19.7673C23.2775 17.7705 25.8199 16.3297 28.5972 15.5787C28.7087 15.5478 28.8059 15.4792 28.8725 15.3846C28.939 15.2901 28.9708 15.1753 28.9622 15.06C28.9008 14.1903 28.7508 13.3292 28.5147 12.49C28.4796 12.3628 28.3957 12.2546 28.2812 12.1891C28.1667 12.1235 28.0309 12.1059 27.9035 12.14C24.145 13.1141 20.739 15.1322 18.0794 17.961C15.4199 20.7898 13.6154 24.3136 12.8747 28.125C12.8491 28.2537 12.8752 28.3873 12.9472 28.4969C13.0192 28.6066 13.1314 28.6836 13.2597 28.7112C14.1602 28.9044 15.0787 29.0012 15.9997 29H28.9997C29.1598 29.0006 29.3178 28.9628 29.4602 28.8897C29.6027 28.8166 29.7255 28.7103 29.8184 28.5799C29.9112 28.4494 29.9714 28.2985 29.9938 28.14C30.0162 27.9814 30.0002 27.8198 29.9472 27.6687ZM3.57221 15.01C5.69858 15.0736 7.79356 15.5402 9.74596 16.385C10.416 15.3942 11.1488 14.4473 11.9397 13.55C9.50748 12.3737 6.86704 11.689 4.16971 11.535C4.06021 11.5295 3.95195 11.5602 3.8616 11.6223C3.77126 11.6845 3.70383 11.7745 3.66971 11.8787C3.38901 12.7154 3.19507 13.5787 3.09096 14.455C3.08334 14.5235 3.08995 14.5928 3.11039 14.6586C3.13083 14.7244 3.16464 14.7852 3.20971 14.8373C3.25478 14.8895 3.31013 14.9317 3.3723 14.9614C3.43446 14.9911 3.5021 15.0076 3.57096 15.01H3.57221ZM10.7297 5.08248C13.2972 5.81746 15.7456 6.9179 17.9997 8.34998C19.5317 7.37311 21.1562 6.54955 22.8497 5.89123C22.9352 5.85745 23.0097 5.80077 23.065 5.72742C23.1204 5.65407 23.1545 5.56688 23.1635 5.47543C23.1725 5.38398 23.1562 5.29181 23.1163 5.20903C23.0764 5.12626 23.0144 5.05609 22.9372 5.00623C21.1216 3.85942 19.0499 3.18091 16.9076 3.03147C14.7653 2.88204 12.6195 3.26635 10.6622 4.14998C10.5702 4.19273 10.4934 4.26245 10.4419 4.34989C10.3905 4.43732 10.3669 4.53834 10.3742 4.63952C10.3815 4.7407 10.4195 4.83726 10.483 4.91638C10.5464 4.9955 10.6325 5.05343 10.7297 5.08248ZM26.9997 10.3137C27.0736 10.2935 27.1418 10.2565 27.1992 10.2057C27.2565 10.1549 27.3014 10.0916 27.3304 10.0207C27.3594 9.94982 27.3717 9.8732 27.3664 9.79678C27.361 9.72036 27.3382 9.64619 27.2997 9.57998C26.8448 8.78396 26.3077 8.03781 25.6972 7.35373C25.6334 7.28051 25.5497 7.22745 25.4562 7.20103C25.3628 7.17462 25.2636 7.17599 25.171 7.20498C20.9384 8.55137 17.1194 10.9556 14.0754 14.1901C11.0314 17.4245 8.86322 21.3823 7.77596 25.6887C7.7526 25.783 7.75718 25.882 7.78915 25.9736C7.82111 26.0653 7.87907 26.1457 7.95596 26.205C8.67519 26.7735 9.45241 27.2646 10.2747 27.67C10.3431 27.7043 10.4185 27.7225 10.495 27.7232C10.5715 27.7238 10.6472 27.7069 10.7161 27.6737C10.7851 27.6405 10.8455 27.5919 10.8927 27.5316C10.9399 27.4714 10.9727 27.4011 10.9885 27.3262C11.852 23.3 13.8003 19.5866 16.6224 16.5879C19.4446 13.5893 23.0332 11.4196 26.9997 10.3137Z" fill="#1C1C1E"/>
</svg>
