<svg width="32" height="32" viewBox="0 0 32 32" fill="none" xmlns="http://www.w3.org/2000/svg">
<path d="M3 27H21" stroke="#1C1C1E" stroke-width="1.5" stroke-linecap="round" stroke-linejoin="round"/>
<path d="M10.9999 14.5639L7.33112 11.0001C7.20632 10.8878 7.11181 10.7459 7.05629 10.5875C7.00077 10.4291 6.98603 10.2592 7.01343 10.0936C7.04082 9.92796 7.10948 9.7719 7.21306 9.63979C7.31664 9.50767 7.45181 9.40376 7.60612 9.33763L8.49987 9.00014L15.6911 11.6464L22.5461 7.55264C23.369 7.0684 24.3379 6.89447 25.2778 7.06227C26.2178 7.23008 27.0666 7.72856 27.6711 8.46763L29.9999 11.4551L11.5736 22.4551C10.8293 22.8885 9.96489 23.0701 9.10907 22.9728C8.25325 22.8755 7.45169 22.5046 6.82362 21.9151L2.31612 17.5001C2.19489 17.3865 2.10389 17.2445 2.05133 17.0868C1.99878 16.9292 1.98634 16.761 2.01512 16.5973C2.0439 16.4337 2.11301 16.2798 2.21619 16.1495C2.31938 16.0193 2.45339 15.9168 2.60612 15.8514L2.99987 15.6589L6.97362 17.0001L10.9999 14.5639Z" stroke="#1C1C1E" stroke-width="1.5" stroke-linecap="round" stroke-linejoin="round"/>
</svg>
