<svg width="32" height="32" viewBox="0 0 32 32" fill="none" xmlns="http://www.w3.org/2000/svg">
<path d="M6 14H29C29 16.3869 28.0518 18.6761 26.364 20.364C24.6761 22.0518 22.3869 23 20 23H15C12.6131 23 10.3239 22.0518 8.63604 20.364C6.94821 18.6761 6 16.3869 6 14Z" stroke="#1C1C1E" stroke-width="1.5" stroke-linecap="round" stroke-linejoin="round"/>
<path d="M18 14V6C18 5.73478 18.1054 5.48043 18.2929 5.29289C18.4804 5.10536 18.7348 5 19 5H20C22.3869 5 24.6761 5.94821 26.364 7.63604C28.0518 9.32387 29 11.6131 29 14" stroke="#1C1C1E" stroke-width="1.5" stroke-linecap="round" stroke-linejoin="round"/>
<path d="M2 10C3.06087 10 4.07828 10.4214 4.82843 11.1716C5.57857 11.9217 6 12.9391 6 14" stroke="#1C1C1E" stroke-width="1.5" stroke-linecap="round" stroke-linejoin="round"/>
<path d="M11 29.75C11.9665 29.75 12.75 28.9665 12.75 28C12.75 27.0335 11.9665 26.25 11 26.25C10.0335 26.25 9.25 27.0335 9.25 28C9.25 28.9665 10.0335 29.75 11 29.75Z" fill="#1C1C1E"/>
<path d="M24 29.75C24.9665 29.75 25.75 28.9665 25.75 28C25.75 27.0335 24.9665 26.25 24 26.25C23.0335 26.25 22.25 27.0335 22.25 28C22.25 28.9665 23.0335 29.75 24 29.75Z" fill="#1C1C1E"/>
<path d="M18 14L26.1787 7.4563" stroke="#1C1C1E" stroke-width="1.5" stroke-linecap="round" stroke-linejoin="round"/>
</svg>
