<svg width="32" height="32" viewBox="0 0 32 32" fill="none" xmlns="http://www.w3.org/2000/svg">
<path d="M6.17171 11.8292C5.42148 11.079 5 10.0614 5 9.00046C5 7.93947 5.42148 6.92194 6.17171 6.17171C6.92194 5.42148 7.93947 5 9.00046 5C10.0614 5 11.079 5.42148 11.8292 6.17171L25.8292 20.1717C26.5794 20.9219 27.0009 21.9395 27.0009 23.0005C27.0009 24.0614 26.5794 25.079 25.8292 25.8292C25.079 26.5794 24.0614 27.0009 23.0005 27.0009C21.9395 27.0009 20.9219 26.5794 20.1717 25.8292L6.17171 11.8292Z" stroke="#1C1C1E" stroke-width="1.5" stroke-linecap="round" stroke-linejoin="round"/>
<path d="M20.1717 6.17171C20.9219 5.42148 21.9395 5 23.0005 5C23.5258 5 24.046 5.10348 24.5314 5.30452C25.0167 5.50556 25.4577 5.80023 25.8292 6.17171C26.2007 6.54318 26.4954 6.98419 26.6964 7.46955C26.8974 7.95491 27.0009 8.47511 27.0009 9.00046C27.0009 9.5258 26.8974 10.046 26.6964 10.5314C26.4954 11.0167 26.2007 11.4577 25.8292 11.8292L11.8292 25.8292C11.4577 26.2007 11.0167 26.4954 10.5314 26.6964C10.046 26.8974 9.5258 27.0009 9.00046 27.0009C8.47511 27.0009 7.95491 26.8974 7.46955 26.6964C6.98419 26.4954 6.54318 26.2007 6.17171 25.8292C5.42148 25.079 5 24.0614 5 23.0005C5 21.9395 5.42148 20.9219 6.17171 20.1717L20.1717 6.17171Z" stroke="#1C1C1E" stroke-width="1.5" stroke-linecap="round" stroke-linejoin="round"/>
<path opacity="0.5" d="M16 16.5C16.2761 16.5 16.5 16.2761 16.5 16C16.5 15.7239 16.2761 15.5 16 15.5C15.7239 15.5 15.5 15.7239 15.5 16C15.5 16.2761 15.7239 16.5 16 16.5Z" stroke="#1C1C1E" stroke-width="1.5" stroke-linecap="round" stroke-linejoin="round"/>
<path d="M16 17.25C16.6904 17.25 17.25 16.6904 17.25 16C17.25 15.3096 16.6904 14.75 16 14.75C15.3096 14.75 14.75 15.3096 14.75 16C14.75 16.6904 15.3096 17.25 16 17.25Z" fill="#1C1C1E"/>
</svg>
