<svg width="32" height="32" viewBox="0 0 32 32" fill="none" xmlns="http://www.w3.org/2000/svg">
<path d="M11 22C12.3807 22 13.5 20.8807 13.5 19.5C13.5 18.1193 12.3807 17 11 17C9.61929 17 8.5 18.1193 8.5 19.5C8.5 20.8807 9.61929 22 11 22Z" stroke="#1C1C1E" stroke-width="1.5" stroke-linecap="round" stroke-linejoin="round"/>
<path d="M27 16C27 12.8174 25.7357 9.76516 23.4853 7.51472C21.2348 5.26428 18.1826 4 15 4C11.8174 4 8.76516 5.26428 6.51472 7.51472C4.26428 9.76516 3 12.8174 3 16V19C3 21.1217 3.84285 23.1566 5.34315 24.6569C6.84344 26.1571 8.87827 27 11 27C13.1217 27 15.1566 26.1571 16.6569 24.6569C18.1571 23.1566 19 21.1217 19 19V16H31" stroke="#1C1C1E" stroke-width="1.5" stroke-linecap="round" stroke-linejoin="round"/>
<path d="M11 27H16C18.1217 27 20.1566 26.1571 21.6569 24.6569C23.1571 23.1566 24 21.1217 24 19V16" stroke="#1C1C1E" stroke-width="1.5" stroke-linecap="round" stroke-linejoin="round"/>
</svg>
