<svg width="32" height="32" viewBox="0 0 32 32" fill="none" xmlns="http://www.w3.org/2000/svg">
<path d="M16 12V17" stroke="#1C1C1E" stroke-width="1.5" stroke-linecap="round" stroke-linejoin="round"/>
<path d="M16 22.75C16.6904 22.75 17.25 22.1904 17.25 21.5C17.25 20.8096 16.6904 20.25 16 20.25C15.3096 20.25 14.75 20.8096 14.75 21.5C14.75 22.1904 15.3096 22.75 16 22.75Z" fill="#1C1C1E"/>
<path d="M12 1H20" stroke="#1C1C1E" stroke-width="1.5" stroke-linecap="round" stroke-linejoin="round"/>
<path d="M22 5H10C8.89543 5 8 5.89543 8 7V28C8 29.1046 8.89543 30 10 30H22C23.1046 30 24 29.1046 24 28V7C24 5.89543 23.1046 5 22 5Z" stroke="#1C1C1E" stroke-width="1.5" stroke-linecap="round" stroke-linejoin="round"/>
</svg>
