<svg width="32" height="32" viewBox="0 0 32 32" fill="none" xmlns="http://www.w3.org/2000/svg">
<path d="M6 5L26 27" stroke="#1C1C1E" stroke-width="1.5" stroke-linecap="round" stroke-linejoin="round"/>
<path d="M12 24C12 25.0609 12.4214 26.0783 13.1716 26.8284C13.9217 27.5786 14.9391 28 16 28C17.0609 28 18.0783 27.5786 18.8284 26.8284C19.5786 26.0783 20 25.0609 20 24" stroke="#1C1C1E" stroke-width="1.5" stroke-linecap="round" stroke-linejoin="round"/>
<path d="M11.5596 5.16997C12.9288 4.39342 14.4777 3.98956 16.0518 3.99869C17.6258 4.00782 19.17 4.42962 20.5301 5.22201C21.8902 6.01439 23.0187 7.14964 23.803 8.51445C24.5872 9.87925 24.9998 11.4259 24.9996 13C24.9996 16.6375 25.6846 19.695 26.3833 21.475" stroke="#1C1C1E" stroke-width="1.5" stroke-linecap="round" stroke-linejoin="round"/>
<path d="M23.2723 24.0002H5.99984C5.82482 23.9991 5.65314 23.9522 5.50195 23.864C5.35077 23.7758 5.22539 23.6494 5.13833 23.4976C5.05127 23.3457 5.00559 23.1737 5.00586 22.9987C5.00613 22.8236 5.05233 22.6518 5.13984 22.5002C5.96359 21.0752 6.99984 17.4764 6.99984 13.0002C6.99684 11.1652 7.55754 9.37357 8.60609 7.86768" stroke="#1C1C1E" stroke-width="1.5" stroke-linecap="round" stroke-linejoin="round"/>
</svg>
