<svg width="32" height="32" viewBox="0 0 32 32" fill="none" xmlns="http://www.w3.org/2000/svg">
<path d="M16 4L24 10L16 16V4Z" stroke="#1C1C1E" stroke-width="1.5" stroke-linecap="round" stroke-linejoin="round"/>
<path d="M16 16L24 22L16 28V16Z" stroke="#1C1C1E" stroke-width="1.5" stroke-linecap="round" stroke-linejoin="round"/>
<path d="M8 10L16 16" stroke="#1C1C1E" stroke-width="1.5" stroke-linecap="round" stroke-linejoin="round"/>
<path d="M8 22L16 16" stroke="#1C1C1E" stroke-width="1.5" stroke-linecap="round" stroke-linejoin="round"/>
<path d="M7.5 17.25C8.19036 17.25 8.75 16.6904 8.75 16C8.75 15.3096 8.19036 14.75 7.5 14.75C6.80964 14.75 6.25 15.3096 6.25 16C6.25 16.6904 6.80964 17.25 7.5 17.25Z" fill="#1C1C1E"/>
<path d="M25.5 17.25C26.1904 17.25 26.75 16.6904 26.75 16C26.75 15.3096 26.1904 14.75 25.5 14.75C24.8096 14.75 24.25 15.3096 24.25 16C24.25 16.6904 24.8096 17.25 25.5 17.25Z" fill="#1C1C1E"/>
</svg>
