<svg width="32" height="32" viewBox="0 0 32 32" fill="none" xmlns="http://www.w3.org/2000/svg">
<path d="M16 28C22.6274 28 28 22.6274 28 16C28 9.37258 22.6274 4 16 4C9.37258 4 4 9.37258 4 16C4 22.6274 9.37258 28 16 28Z" stroke="#1C1C1E" stroke-width="1.5" stroke-linecap="round" stroke-linejoin="round"/>
<path d="M16.5 15.75C17.1904 15.75 17.75 15.1904 17.75 14.5C17.75 13.8096 17.1904 13.25 16.5 13.25C15.8096 13.25 15.25 13.8096 15.25 14.5C15.25 15.1904 15.8096 15.75 16.5 15.75Z" fill="#1C1C1E"/>
<path d="M20.5 12.75C21.1904 12.75 21.75 12.1904 21.75 11.5C21.75 10.8096 21.1904 10.25 20.5 10.25C19.8096 10.25 19.25 10.8096 19.25 11.5C19.25 12.1904 19.8096 12.75 20.5 12.75Z" fill="#1C1C1E"/>
<path d="M21.5 17.75C22.1904 17.75 22.75 17.1904 22.75 16.5C22.75 15.8096 22.1904 15.25 21.5 15.25C20.8096 15.25 20.25 15.8096 20.25 16.5C20.25 17.1904 20.8096 17.75 21.5 17.75Z" fill="#1C1C1E"/>
</svg>
