<svg width="32" height="32" viewBox="0 0 32 32" fill="none" xmlns="http://www.w3.org/2000/svg">
<path d="M17 26.9999V3.99989C16.9999 3.81891 16.9507 3.64135 16.8576 3.48615C16.7645 3.33094 16.631 3.20391 16.4714 3.11859C16.3118 3.03327 16.1321 2.99286 15.9513 3.00168C15.7705 3.01049 15.5955 3.06819 15.445 3.16864L5.445 9.83489C5.30784 9.9264 5.19543 10.0504 5.11779 10.1959C5.04015 10.3413 4.99969 10.5037 5 10.6686V26.9999" stroke="#1C1C1E" stroke-width="1.5" stroke-linecap="round" stroke-linejoin="round"/>
<path d="M17 11H26C26.2652 11 26.5196 11.1054 26.7071 11.2929C26.8946 11.4804 27 11.7348 27 12V27" stroke="#1C1C1E" stroke-width="1.5" stroke-linecap="round" stroke-linejoin="round"/>
<path d="M2 27H30" stroke="#1C1C1E" stroke-width="1.5" stroke-linecap="round" stroke-linejoin="round"/>
<path d="M13 14V16" stroke="#1C1C1E" stroke-width="1.5" stroke-linecap="round" stroke-linejoin="round"/>
<path d="M9 14V16" stroke="#1C1C1E" stroke-width="1.5" stroke-linecap="round" stroke-linejoin="round"/>
<path d="M9 21V23" stroke="#1C1C1E" stroke-width="1.5" stroke-linecap="round" stroke-linejoin="round"/>
<path d="M13 21V23" stroke="#1C1C1E" stroke-width="1.5" stroke-linecap="round" stroke-linejoin="round"/>
</svg>
