<svg width="32" height="32" viewBox="0 0 32 32" fill="none" xmlns="http://www.w3.org/2000/svg">
<path d="M26 5H6C5.44772 5 5 5.44772 5 6V26C5 26.5523 5.44772 27 6 27H26C26.5523 27 27 26.5523 27 26V6C27 5.44772 26.5523 5 26 5Z" stroke="#1C1C1E" stroke-width="1.5" stroke-linecap="round" stroke-linejoin="round"/>
<path d="M22 3V7" stroke="#1C1C1E" stroke-width="1.5" stroke-linecap="round" stroke-linejoin="round"/>
<path d="M10 3V7" stroke="#1C1C1E" stroke-width="1.5" stroke-linecap="round" stroke-linejoin="round"/>
<path d="M5 11H27" stroke="#1C1C1E" stroke-width="1.5" stroke-linecap="round" stroke-linejoin="round"/>
<path d="M16 17.75C16.6904 17.75 17.25 17.1904 17.25 16.5C17.25 15.8096 16.6904 15.25 16 15.25C15.3096 15.25 14.75 15.8096 14.75 16.5C14.75 17.1904 15.3096 17.75 16 17.75Z" fill="#1C1C1E"/>
<path d="M21.5 17.75C22.1904 17.75 22.75 17.1904 22.75 16.5C22.75 15.8096 22.1904 15.25 21.5 15.25C20.8096 15.25 20.25 15.8096 20.25 16.5C20.25 17.1904 20.8096 17.75 21.5 17.75Z" fill="#1C1C1E"/>
<path d="M10.5 22.75C11.1904 22.75 11.75 22.1904 11.75 21.5C11.75 20.8096 11.1904 20.25 10.5 20.25C9.80964 20.25 9.25 20.8096 9.25 21.5C9.25 22.1904 9.80964 22.75 10.5 22.75Z" fill="#1C1C1E"/>
<path d="M16 22.75C16.6904 22.75 17.25 22.1904 17.25 21.5C17.25 20.8096 16.6904 20.25 16 20.25C15.3096 20.25 14.75 20.8096 14.75 21.5C14.75 22.1904 15.3096 22.75 16 22.75Z" fill="#1C1C1E"/>
<path d="M21.5 22.75C22.1904 22.75 22.75 22.1904 22.75 21.5C22.75 20.8096 22.1904 20.25 21.5 20.25C20.8096 20.25 20.25 20.8096 20.25 21.5C20.25 22.1904 20.8096 22.75 21.5 22.75Z" fill="#1C1C1E"/>
</svg>
