<svg width="32" height="32" viewBox="0 0 32 32" fill="none" xmlns="http://www.w3.org/2000/svg">
<path d="M26 5H6C5.44772 5 5 5.44772 5 6V26C5 26.5523 5.44772 27 6 27H26C26.5523 27 27 26.5523 27 26V6C27 5.44772 26.5523 5 26 5Z" stroke="#1C1C1E" stroke-width="1.5" stroke-linecap="round" stroke-linejoin="round"/>
<path d="M22 3V7" stroke="#1C1C1E" stroke-width="1.5" stroke-linecap="round" stroke-linejoin="round"/>
<path d="M10 3V7" stroke="#1C1C1E" stroke-width="1.5" stroke-linecap="round" stroke-linejoin="round"/>
<path d="M16 15C16 14.2044 16.3161 13.4413 16.8787 12.8787C17.4413 12.3161 18.2044 12 19 12C19.7956 12 20.5587 12.3161 21.1213 12.8787C21.6839 13.4413 22 14.2044 22 15C22 19 16 22 16 22C16 22 10 19 10 15C10 14.2044 10.3161 13.4413 10.8787 12.8787C11.4413 12.3161 12.2044 12 13 12C13.7956 12 14.5587 12.3161 15.1213 12.8787C15.6839 13.4413 16 14.2044 16 15Z" stroke="#1C1C1E" stroke-width="1.5" stroke-linecap="round" stroke-linejoin="round"/>
</svg>
