<svg width="32" height="32" viewBox="0 0 32 32" fill="none" xmlns="http://www.w3.org/2000/svg">
<path d="M28.0002 4L22.9502 9.05" stroke="#1C1C1E" stroke-width="1.5" stroke-linecap="round" stroke-linejoin="round"/>
<path d="M5.47577 27.8749C5.28682 27.9747 5.07088 28.0113 4.85959 27.9794C4.6483 27.9475 4.45278 27.8488 4.30168 27.6977C4.15059 27.5466 4.05186 27.3511 4.01998 27.1398C3.9881 26.9285 4.02474 26.7126 4.12452 26.5236C4.12452 26.5236 7.99953 13.9999 13.0495 9.04987C14.3623 7.73705 16.1429 6.99951 17.9995 6.99951C19.8561 6.99951 21.6367 7.73705 22.9495 9.04987C24.2623 10.3627 24.9999 12.1433 24.9999 13.9999C24.9999 15.8565 24.2623 17.637 22.9495 18.9499C17.9995 23.9999 5.47577 27.8749 5.47577 27.8749Z" stroke="#1C1C1E" stroke-width="1.5" stroke-linecap="round" stroke-linejoin="round"/>
<path d="M28.9997 9H22.8984" stroke="#1C1C1E" stroke-width="1.5" stroke-linecap="round" stroke-linejoin="round"/>
<path d="M23 9.10125V3" stroke="#1C1C1E" stroke-width="1.5" stroke-linecap="round" stroke-linejoin="round"/>
<path d="M14 19L17.7125 22.7125" stroke="#1C1C1E" stroke-width="1.5" stroke-linecap="round" stroke-linejoin="round"/>
<path d="M13.0498 9.0498L17.9998 13.9998" stroke="#1C1C1E" stroke-width="1.5" stroke-linecap="round" stroke-linejoin="round"/>
</svg>
