<svg width="32" height="32" viewBox="0 0 32 32" fill="none" xmlns="http://www.w3.org/2000/svg">
<path d="M12 30H18" stroke="#1C1C1E" stroke-width="1.5" stroke-linecap="round" stroke-linejoin="round"/>
<path d="M12.2124 2H17.7874C17.7874 2 24.2874 22 14.9999 22C5.71243 22 12.2124 2 12.2124 2Z" stroke="#1C1C1E" stroke-width="1.5" stroke-linecap="round" stroke-linejoin="round"/>
<path d="M15 22V30" stroke="#1C1C1E" stroke-width="1.5" stroke-linecap="round" stroke-linejoin="round"/>
<path d="M27.5 7.75C28.1904 7.75 28.75 7.19036 28.75 6.5C28.75 5.80964 28.1904 5.25 27.5 5.25C26.8096 5.25 26.25 5.80964 26.25 6.5C26.25 7.19036 26.8096 7.75 27.5 7.75Z" fill="#1C1C1E"/>
<path d="M24.5 3.75C25.1904 3.75 25.75 3.19036 25.75 2.5C25.75 1.80964 25.1904 1.25 24.5 1.25C23.8096 1.25 23.25 1.80964 23.25 2.5C23.25 3.19036 23.8096 3.75 24.5 3.75Z" fill="#1C1C1E"/>
<path d="M24.5 13.75C25.1904 13.75 25.75 13.1904 25.75 12.5C25.75 11.8096 25.1904 11.25 24.5 11.25C23.8096 11.25 23.25 11.8096 23.25 12.5C23.25 13.1904 23.8096 13.75 24.5 13.75Z" fill="#1C1C1E"/>
<path d="M10.5254 9H19.4754" stroke="#1C1C1E" stroke-width="1.5" stroke-linecap="round" stroke-linejoin="round"/>
</svg>
