<svg width="32" height="32" viewBox="0 0 32 32" fill="none" xmlns="http://www.w3.org/2000/svg">
<path d="M28 26H4V6" stroke="#1C1C1E" stroke-width="1.5" stroke-linecap="round" stroke-linejoin="round"/>
<path d="M16.5 19.75C17.1904 19.75 17.75 19.1904 17.75 18.5C17.75 17.8096 17.1904 17.25 16.5 17.25C15.8096 17.25 15.25 17.8096 15.25 18.5C15.25 19.1904 15.8096 19.75 16.5 19.75Z" fill="#1C1C1E"/>
<path d="M13.5 12.75C14.1904 12.75 14.75 12.1904 14.75 11.5C14.75 10.8096 14.1904 10.25 13.5 10.25C12.8096 10.25 12.25 10.8096 12.25 11.5C12.25 12.1904 12.8096 12.75 13.5 12.75Z" fill="#1C1C1E"/>
<path d="M9.5 21.75C10.1904 21.75 10.75 21.1904 10.75 20.5C10.75 19.8096 10.1904 19.25 9.5 19.25C8.80964 19.25 8.25 19.8096 8.25 20.5C8.25 21.1904 8.80964 21.75 9.5 21.75Z" fill="#1C1C1E"/>
<path d="M21.5 15.75C22.1904 15.75 22.75 15.1904 22.75 14.5C22.75 13.8096 22.1904 13.25 21.5 13.25C20.8096 13.25 20.25 13.8096 20.25 14.5C20.25 15.1904 20.8096 15.75 21.5 15.75Z" fill="#1C1C1E"/>
<path d="M24.5 10.75C25.1904 10.75 25.75 10.1904 25.75 9.5C25.75 8.80964 25.1904 8.25 24.5 8.25C23.8096 8.25 23.25 8.80964 23.25 9.5C23.25 10.1904 23.8096 10.75 24.5 10.75Z" fill="#1C1C1E"/>
<path d="M23.5 21.75C24.1904 21.75 24.75 21.1904 24.75 20.5C24.75 19.8096 24.1904 19.25 23.5 19.25C22.8096 19.25 22.25 19.8096 22.25 20.5C22.25 21.1904 22.8096 21.75 23.5 21.75Z" fill="#1C1C1E"/>
</svg>
