<svg width="32" height="32" viewBox="0 0 32 32" fill="none" xmlns="http://www.w3.org/2000/svg">
<path d="M16 17.25C16.6904 17.25 17.25 16.6904 17.25 16C17.25 15.3096 16.6904 14.75 16 14.75C15.3096 14.75 14.75 15.3096 14.75 16C14.75 16.6904 15.3096 17.25 16 17.25Z" fill="#1C1C1E"/>
<path d="M10.5 17.25C11.1904 17.25 11.75 16.6904 11.75 16C11.75 15.3096 11.1904 14.75 10.5 14.75C9.80964 14.75 9.25 15.3096 9.25 16C9.25 16.6904 9.80964 17.25 10.5 17.25Z" fill="#1C1C1E"/>
<path d="M21.5 17.25C22.1904 17.25 22.75 16.6904 22.75 16C22.75 15.3096 22.1904 14.75 21.5 14.75C20.8096 14.75 20.25 15.3096 20.25 16C20.25 16.6904 20.8096 17.25 21.5 17.25Z" fill="#1C1C1E"/>
<path d="M5.64375 28.7638C5.4981 28.8863 5.3205 28.9647 5.13183 28.9898C4.94315 29.0149 4.75124 28.9856 4.57862 28.9054C4.40601 28.8252 4.25987 28.6974 4.15738 28.537C4.05488 28.3766 4.00028 28.1903 4 28V8C4 7.73478 4.10536 7.48043 4.29289 7.29289C4.48043 7.10536 4.73478 7 5 7H27C27.2652 7 27.5196 7.10536 27.7071 7.29289C27.8946 7.48043 28 7.73478 28 8V24C28 24.2652 27.8946 24.5196 27.7071 24.7071C27.5196 24.8946 27.2652 25 27 25H10L5.64375 28.7638Z" stroke="#1C1C1E" stroke-width="1.5" stroke-linecap="round" stroke-linejoin="round"/>
</svg>
