<svg width="32" height="32" viewBox="0 0 32 32" fill="none" xmlns="http://www.w3.org/2000/svg">
<path d="M16.5 17.25C17.1904 17.25 17.75 16.6904 17.75 16C17.75 15.3096 17.1904 14.75 16.5 14.75C15.8096 14.75 15.25 15.3096 15.25 16C15.25 16.6904 15.8096 17.25 16.5 17.25Z" fill="#1C1C1E"/>
<path d="M11 17.25C11.6904 17.25 12.25 16.6904 12.25 16C12.25 15.3096 11.6904 14.75 11 14.75C10.3096 14.75 9.75 15.3096 9.75 16C9.75 16.6904 10.3096 17.25 11 17.25Z" fill="#1C1C1E"/>
<path d="M22 17.25C22.6904 17.25 23.25 16.6904 23.25 16C23.25 15.3096 22.6904 14.75 22 14.75C21.3096 14.75 20.75 15.3096 20.75 16C20.75 16.6904 21.3096 17.25 22 17.25Z" fill="#1C1C1E"/>
<path d="M16.5 27H6C5.73478 27 5.48043 26.8946 5.29289 26.7071C5.10536 26.5196 5 26.2652 5 26V15.5C5 12.45 6.2116 9.52494 8.36827 7.36827C10.5249 5.2116 13.45 4 16.5 4C18.0102 4 19.5056 4.29746 20.9009 4.87539C22.2961 5.45331 23.5639 6.3004 24.6317 7.36827C25.6996 8.43615 26.5467 9.7039 27.1246 11.0991C27.7025 12.4944 28 13.9898 28 15.5C28 17.0102 27.7025 18.5056 27.1246 19.9009C26.5467 21.2961 25.6996 22.5639 24.6317 23.6317C23.5639 24.6996 22.2961 25.5467 20.9009 26.1246C19.5056 26.7025 18.0102 27 16.5 27Z" stroke="#1C1C1E" stroke-width="1.5" stroke-linecap="round" stroke-linejoin="round"/>
</svg>
