<svg width="32" height="32" viewBox="0 0 32 32" fill="none" xmlns="http://www.w3.org/2000/svg">
<path d="M16 16.25C16.6904 16.25 17.25 15.6904 17.25 15C17.25 14.3096 16.6904 13.75 16 13.75C15.3096 13.75 14.75 14.3096 14.75 15C14.75 15.6904 15.3096 16.25 16 16.25Z" fill="#1C1C1E"/>
<path d="M10.5 16.25C11.1904 16.25 11.75 15.6904 11.75 15C11.75 14.3096 11.1904 13.75 10.5 13.75C9.80964 13.75 9.25 14.3096 9.25 15C9.25 15.6904 9.80964 16.25 10.5 16.25Z" fill="#1C1C1E"/>
<path d="M21.5 16.25C22.1904 16.25 22.75 15.6904 22.75 15C22.75 14.3096 22.1904 13.75 21.5 13.75C20.8096 13.75 20.25 14.3096 20.25 15C20.25 15.6904 20.8096 16.25 21.5 16.25Z" fill="#1C1C1E"/>
<path d="M13.1337 24L15.1337 27.5C15.2211 27.6533 15.3475 27.7808 15.5001 27.8694C15.6527 27.9581 15.826 28.0047 16.0025 28.0047C16.179 28.0047 16.3523 27.9581 16.5049 27.8694C16.6575 27.7808 16.7839 27.6533 16.8713 27.5L18.8713 24H27C27.2652 24 27.5196 23.8946 27.7071 23.7071C27.8946 23.5196 28 23.2652 28 23V7C28 6.73478 27.8946 6.48043 27.7071 6.29289C27.5196 6.10536 27.2652 6 27 6H5C4.73478 6 4.48043 6.10536 4.29289 6.29289C4.10536 6.48043 4 6.73478 4 7V23C4 23.2652 4.10536 23.5196 4.29289 23.7071C4.48043 23.8946 4.73478 24 5 24H13.1337Z" stroke="#1C1C1E" stroke-width="1.5" stroke-linecap="round" stroke-linejoin="round"/>
</svg>
