<svg width="32" height="32" viewBox="0 0 32 32" fill="none" xmlns="http://www.w3.org/2000/svg">
<path d="M13.0002 18.4288L25.2927 6.29255C25.3855 6.19958 25.4958 6.12582 25.6172 6.07549C25.7386 6.02517 25.8687 5.99927 26.0002 5.99927C26.1316 5.99927 26.2617 6.02517 26.3831 6.07549C26.5045 6.12582 26.6148 6.19958 26.7077 6.29255L29.7077 9.24255C29.8006 9.33543 29.8744 9.44572 29.9247 9.56711C29.975 9.68851 30.0009 9.81864 30.0009 9.95005C30.0009 10.0815 29.975 10.2116 29.9247 10.333C29.8744 10.4544 29.8006 10.5647 29.7077 10.6576L13.6577 26.7076C13.5648 26.8005 13.4545 26.8743 13.3331 26.9246C13.2117 26.9749 13.0816 27.0008 12.9502 27.0008C12.8187 27.0008 12.6886 26.9749 12.5672 26.9246C12.4458 26.8743 12.3355 26.8005 12.2427 26.7076L3.29266 17.7076C3.10527 17.52 3 17.2658 3 17.0007C3 16.7356 3.10527 16.4813 3.29266 16.2938L6.29266 13.2938C6.38553 13.2008 6.49582 13.1271 6.61722 13.0767C6.73862 13.0264 6.86875 13.0005 7.00016 13.0005C7.13158 13.0005 7.2617 13.0264 7.3831 13.0767C7.5045 13.1271 7.61479 13.2008 7.70766 13.2938L13.0002 18.4288Z" stroke="#1C1C1E" stroke-width="1.5" stroke-linecap="round" stroke-linejoin="round"/>
</svg>
