<svg width="32" height="32" viewBox="0 0 32 32" fill="none" xmlns="http://www.w3.org/2000/svg">
<path d="M12 20L11 16" stroke="#1C1C1E" stroke-width="1.5" stroke-linecap="round" stroke-linejoin="round"/>
<path d="M20 20L21 16" stroke="#1C1C1E" stroke-width="1.5" stroke-linecap="round" stroke-linejoin="round"/>
<path d="M16 20V16" stroke="#1C1C1E" stroke-width="1.5" stroke-linecap="round" stroke-linejoin="round"/>
<path d="M21.7059 8.14C22.5287 7.95909 23.3803 7.95345 24.2053 8.12345C25.0304 8.29345 25.8104 8.63527 26.4946 9.12668C27.1788 9.61808 27.7519 10.2481 28.1765 10.9756C28.6011 11.7031 28.8678 12.5119 28.9591 13.3493C29.0505 14.1868 28.9645 15.034 28.7067 15.836C28.4489 16.638 28.0251 17.3767 27.463 18.0041C26.9008 18.6314 26.2129 19.1334 25.4439 19.4773C24.6749 19.8212 23.8421 19.9993 22.9997 20H8.99969C8.1573 19.9993 7.32451 19.8212 6.55551 19.4773C5.78652 19.1334 5.09855 18.6314 4.53639 18.0041C3.97423 17.3767 3.55047 16.638 3.2927 15.836C3.03493 15.034 2.94892 14.1868 3.04027 13.3493C3.13162 12.5119 3.39828 11.7031 3.8229 10.9756C4.24752 10.2481 4.82058 9.61808 5.50478 9.12668C6.18898 8.63527 6.96899 8.29345 7.79405 8.12345C8.6191 7.95345 9.47071 7.95909 10.2934 8.14" stroke="#1C1C1E" stroke-width="1.5" stroke-linecap="round" stroke-linejoin="round"/>
<path d="M10 10C10 8.4087 10.6321 6.88258 11.7574 5.75736C12.8826 4.63214 14.4087 4 16 4C17.5913 4 19.1174 4.63214 20.2426 5.75736C21.3679 6.88258 22 8.4087 22 10" stroke="#1C1C1E" stroke-width="1.5" stroke-linecap="round" stroke-linejoin="round"/>
<path d="M25 19.6592V26.0004C25 26.2656 24.8946 26.52 24.7071 26.7075C24.5196 26.8951 24.2652 27.0004 24 27.0004H8C7.73478 27.0004 7.48043 26.8951 7.29289 26.7075C7.10536 26.52 7 26.2656 7 26.0004V19.6592" stroke="#1C1C1E" stroke-width="1.5" stroke-linecap="round" stroke-linejoin="round"/>
</svg>
