<svg width="32" height="32" viewBox="0 0 32 32" fill="none" xmlns="http://www.w3.org/2000/svg">
<path d="M11 28C15.4183 28 19 24.4183 19 20C19 15.5817 15.4183 12 11 12C6.58172 12 3 15.5817 3 20C3 24.4183 6.58172 28 11 28Z" stroke="#1C1C1E" stroke-width="1.5" stroke-linecap="round" stroke-linejoin="round"/>
<path d="M14 17C14 17 13 18 11 18C9 18 8 17 8 17" stroke="#1C1C1E" stroke-width="1.5" stroke-linecap="round" stroke-linejoin="round"/>
<path d="M25 15C25 15 24 16 22 16C20 16 19 15 19 15" stroke="#1C1C1E" stroke-width="1.5" stroke-linecap="round" stroke-linejoin="round"/>
<path d="M22 16.0001C21 2.00013 7 4.00013 7 4.00013C13 8.00013 11 18.0001 11 18.0001" stroke="#1C1C1E" stroke-width="1.5" stroke-linecap="round" stroke-linejoin="round"/>
<path d="M15.4766 13.3754C16.3878 12.092 17.6574 11.1059 19.1263 10.5406C20.5953 9.97531 22.1984 9.85589 23.7349 10.1973C25.2714 10.5387 26.673 11.3258 27.7643 12.46C28.8557 13.5942 29.5882 15.0252 29.8701 16.5737C30.1521 18.1222 29.971 19.7195 29.3495 21.1656C28.7281 22.6117 27.6938 23.8423 26.3763 24.7034C25.0588 25.5645 23.5165 26.0179 21.9425 26.0066C20.3686 25.9954 18.8329 25.5202 17.5278 24.6404" stroke="#1C1C1E" stroke-width="1.5" stroke-linecap="round" stroke-linejoin="round"/>
</svg>
