<svg width="32" height="32" viewBox="0 0 32 32" fill="none" xmlns="http://www.w3.org/2000/svg">
<path d="M12.0002 26H9.00015C8.0076 25.9988 7.02666 25.7865 6.12242 25.3772C5.21817 24.9679 4.4113 24.3711 3.75535 23.6262C3.09939 22.8813 2.60934 22.0054 2.31773 21.0566C2.02611 20.1079 1.9396 19.108 2.06392 18.1232C2.18824 17.1385 2.52055 16.1915 3.03881 15.345C3.55707 14.4985 4.24942 13.7718 5.06993 13.2133C5.89044 12.6548 6.82034 12.2772 7.79793 12.1055C8.77552 11.9338 9.77844 11.972 10.7402 12.2175" stroke="#1C1C1E" stroke-width="1.5" stroke-linecap="round" stroke-linejoin="round"/>
<path d="M10 16C10 14.4155 10.3765 12.8536 11.0986 11.4432C11.8206 10.0327 12.8675 8.81406 14.1529 7.88758C15.4383 6.96109 16.9255 6.35333 18.4919 6.11437C20.0583 5.87541 21.6591 6.0121 23.1623 6.51317C24.6655 7.01424 26.0281 7.86534 27.1378 8.99635C28.2476 10.1274 29.0727 11.5059 29.5451 13.0183C30.0176 14.5308 30.1239 16.1338 29.8552 17.6954C29.5866 19.257 28.9507 20.7324 28 22" stroke="#1C1C1E" stroke-width="1.5" stroke-linecap="round" stroke-linejoin="round"/>
<path d="M15 22L19 26L23 22" stroke="#1C1C1E" stroke-width="1.5" stroke-linecap="round" stroke-linejoin="round"/>
<path d="M19 16V26" stroke="#1C1C1E" stroke-width="1.5" stroke-linecap="round" stroke-linejoin="round"/>
</svg>
