<svg width="32" height="32" viewBox="0 0 32 32" fill="none" xmlns="http://www.w3.org/2000/svg">
<path d="M9.5 25.75C10.1904 25.75 10.75 25.1904 10.75 24.5C10.75 23.8096 10.1904 23.25 9.5 23.25C8.80964 23.25 8.25 23.8096 8.25 24.5C8.25 25.1904 8.80964 25.75 9.5 25.75Z" fill="#1C1C1E"/>
<path d="M14.5 27.75C15.1904 27.75 15.75 27.1904 15.75 26.5C15.75 25.8096 15.1904 25.25 14.5 25.25C13.8096 25.25 13.25 25.8096 13.25 26.5C13.25 27.1904 13.8096 27.75 14.5 27.75Z" fill="#1C1C1E"/>
<path d="M20.5 25.75C21.1904 25.75 21.75 25.1904 21.75 24.5C21.75 23.8096 21.1904 23.25 20.5 23.25C19.8096 23.25 19.25 23.8096 19.25 24.5C19.25 25.1904 19.8096 25.75 20.5 25.75Z" fill="#1C1C1E"/>
<path d="M8.5 30.75C9.19036 30.75 9.75 30.1904 9.75 29.5C9.75 28.8096 9.19036 28.25 8.5 28.25C7.80964 28.25 7.25 28.8096 7.25 29.5C7.25 30.1904 7.80964 30.75 8.5 30.75Z" fill="#1C1C1E"/>
<path d="M19.5 30.75C20.1904 30.75 20.75 30.1904 20.75 29.5C20.75 28.8096 20.1904 28.25 19.5 28.25C18.8096 28.25 18.25 28.8096 18.25 29.5C18.25 30.1904 18.8096 30.75 19.5 30.75Z" fill="#1C1C1E"/>
<path d="M11.0006 11.0003C11.0968 9.34178 11.6764 7.74766 12.6681 6.41473C13.6598 5.08179 15.02 4.06838 16.581 3.49955C18.1419 2.93073 19.8352 2.83138 21.452 3.21378C23.0687 3.59617 24.5382 4.44357 25.6789 5.6514C26.8196 6.85923 27.5817 8.37463 27.8712 10.0106C28.1607 11.6465 27.9648 13.3314 27.3078 14.8573C26.6507 16.3833 25.5613 17.6834 24.1739 18.5974C22.7866 19.5113 21.1619 19.999 19.5006 20.0004H9.50058C8.70265 19.9996 7.91445 19.8252 7.19066 19.4893C6.46687 19.1534 5.82483 18.6641 5.30909 18.0552C4.79336 17.4464 4.41628 16.7326 4.20402 15.9634C3.99177 15.1942 3.94941 14.3881 4.07991 13.6009C4.2104 12.8137 4.51061 12.0643 4.95971 11.4048C5.40881 10.7452 5.99604 10.1913 6.68065 9.78143C7.36526 9.37156 8.13086 9.11555 8.92432 9.03118C9.71777 8.94681 10.5201 9.0361 11.2756 9.29285" stroke="#1C1C1E" stroke-width="1.5" stroke-linecap="round" stroke-linejoin="round"/>
</svg>
