<svg width="32" height="32" viewBox="0 0 32 32" fill="none" xmlns="http://www.w3.org/2000/svg">
<path d="M15 25H9" stroke="#1C1C1E" stroke-width="1.5" stroke-linecap="round" stroke-linejoin="round"/>
<path d="M23 25H20" stroke="#1C1C1E" stroke-width="1.5" stroke-linecap="round" stroke-linejoin="round"/>
<path d="M20 29H13" stroke="#1C1C1E" stroke-width="1.5" stroke-linecap="round" stroke-linejoin="round"/>
<path d="M11.0006 12.0003C11.0968 10.3418 11.6764 8.74766 12.6681 7.41473C13.6598 6.08179 15.02 5.06838 16.581 4.49955C18.1419 3.93073 19.8352 3.83138 21.452 4.21378C23.0687 4.59617 24.5382 5.44357 25.6789 6.6514C26.8196 7.85923 27.5817 9.37463 27.8712 11.0106C28.1607 12.6465 27.9648 14.3314 27.3078 15.8573C26.6507 17.3833 25.5613 18.6834 24.1739 19.5974C22.7866 20.5113 21.1619 20.999 19.5006 21.0004H9.50058C8.70265 20.9996 7.91445 20.8252 7.19066 20.4893C6.46687 20.1534 5.82483 19.6641 5.30909 19.0552C4.79336 18.4464 4.41628 17.7326 4.20402 16.9634C3.99177 16.1942 3.94941 15.3881 4.07991 14.6009C4.2104 13.8137 4.51061 13.0643 4.95971 12.4048C5.40881 11.7452 5.99604 11.1913 6.68065 10.7814C7.36526 10.3716 8.13086 10.1156 8.92432 10.0312C9.71777 9.94681 10.5201 10.0361 11.2756 10.2929" stroke="#1C1C1E" stroke-width="1.5" stroke-linecap="round" stroke-linejoin="round"/>
</svg>
