<svg width="32" height="32" viewBox="0 0 32 32" fill="none" xmlns="http://www.w3.org/2000/svg">
<path d="M20.9788 12.3484C22.0385 11.9697 23.1833 11.8966 24.2826 12.1375C25.3819 12.3784 26.3912 12.9236 27.1954 13.7108C27.9995 14.4981 28.5661 15.4956 28.8304 16.5894C29.0946 17.6833 29.0459 18.8295 28.6899 19.897C28.3338 20.9645 27.6846 21.9104 26.8166 22.6265C25.9486 23.3427 24.8966 23.8003 23.7809 23.9471C22.6652 24.0939 21.5306 23.924 20.5069 23.4568C19.4831 22.9895 18.6114 22.2438 17.9913 21.3047L20.0001 27.9997H12.0001L14.0088 21.3047C13.3887 22.2438 12.517 22.9895 11.4932 23.4568C10.4695 23.924 9.33495 24.0939 8.21922 23.9471C7.10349 23.8003 6.05154 23.3427 5.18351 22.6265C4.31547 21.9104 3.66634 20.9645 3.31025 19.897C2.95416 18.8295 2.90547 17.6833 3.16974 16.5894C3.434 15.4956 4.00057 14.4981 4.80474 13.7108C5.6089 12.9236 6.61825 12.3784 7.71751 12.1375C8.81676 11.8966 9.96161 11.9697 11.0213 12.3484C10.4141 11.4456 10.0638 10.3946 10.008 9.30795C9.95212 8.22132 10.1928 7.13995 10.7043 6.1796C11.2157 5.21924 11.9787 4.41603 12.9116 3.85595C13.8444 3.29587 14.912 3 16.0001 3C17.0881 3 18.1557 3.29587 19.0885 3.85595C20.0214 4.41603 20.7844 5.21924 21.2958 6.1796C21.8073 7.13995 22.048 8.22132 21.9921 9.30795C21.9363 10.3946 21.586 11.4456 20.9788 12.3484Z" stroke="#1C1C1E" stroke-width="1.5" stroke-linecap="round" stroke-linejoin="round"/>
</svg>
