<svg width="32" height="32" viewBox="0 0 32 32" fill="none" xmlns="http://www.w3.org/2000/svg">
<path d="M19.5 22.75C20.1904 22.75 20.75 22.1904 20.75 21.5C20.75 20.8096 20.1904 20.25 19.5 20.25C18.8096 20.25 18.25 20.8096 18.25 21.5C18.25 22.1904 18.8096 22.75 19.5 22.75Z" fill="#1C1C1E"/>
<path d="M11.5 21.75C12.1904 21.75 12.75 21.1904 12.75 20.5C12.75 19.8096 12.1904 19.25 11.5 19.25C10.8096 19.25 10.25 19.8096 10.25 20.5C10.25 21.1904 10.8096 21.75 11.5 21.75Z" fill="#1C1C1E"/>
<path d="M10.5 14.75C11.1904 14.75 11.75 14.1904 11.75 13.5C11.75 12.8096 11.1904 12.25 10.5 12.25C9.80964 12.25 9.25 12.8096 9.25 13.5C9.25 14.1904 9.80964 14.75 10.5 14.75Z" fill="#1C1C1E"/>
<path d="M16.5 16.75C17.1904 16.75 17.75 16.1904 17.75 15.5C17.75 14.8096 17.1904 14.25 16.5 14.25C15.8096 14.25 15.25 14.8096 15.25 15.5C15.25 16.1904 15.8096 16.75 16.5 16.75Z" fill="#1C1C1E"/>
<path d="M28 16C26.4087 16 24.8826 15.3679 23.7574 14.2426C22.6321 13.1174 22 11.5913 22 10C20.4087 10 18.8826 9.36786 17.7574 8.24264C16.6321 7.11742 16 5.5913 16 4C13.6266 4 11.3066 4.70379 9.33316 6.02236C7.35977 7.34094 5.8217 9.21509 4.91345 11.4078C4.0052 13.6005 3.76756 16.0133 4.23058 18.3411C4.6936 20.6689 5.83649 22.8071 7.51472 24.4853C9.19295 26.1635 11.3312 27.3064 13.6589 27.7694C15.9867 28.2324 18.3995 27.9948 20.5922 27.0866C22.7849 26.1783 24.6591 24.6402 25.9776 22.6668C27.2962 20.6935 28 18.3734 28 16Z" stroke="#1C1C1E" stroke-width="1.5" stroke-linecap="round" stroke-linejoin="round"/>
</svg>
