<svg width="32" height="32" viewBox="0 0 32 32" fill="none" xmlns="http://www.w3.org/2000/svg">
<path d="M5 16C10 24 16 24 16 24C16 24 22 24 27 16C28.0609 16 29.0783 16.4214 29.8284 17.1716C30.5786 17.9217 31 18.9391 31 20C31 21.0609 30.5786 22.0783 29.8284 22.8284C29.0783 23.5786 28.0609 24 27 24H5C3.93913 24 2.92172 23.5786 2.17157 22.8284C1.42143 22.0783 1 21.0609 1 20C1 18.9391 1.42143 17.9217 2.17157 17.1716C2.92172 16.4214 3.93913 16 5 16Z" stroke="#1C1C1E" stroke-width="1.5" stroke-linecap="round" stroke-linejoin="round"/>
<path d="M8.18359 20.0226L10.6923 6.81635C10.7242 6.64671 10.7994 6.48821 10.9107 6.35626C11.022 6.22432 11.1656 6.12342 11.3274 6.0634C11.4892 6.00337 11.6638 5.98625 11.8342 6.01371C12.0047 6.04117 12.1651 6.11228 12.2998 6.2201L15.3748 8.78135C15.5522 8.92336 15.7726 9.00073 15.9998 9.00073C16.227 9.00073 16.4475 8.92336 16.6248 8.78135L19.6998 6.2201C19.8346 6.11228 19.995 6.04117 20.1654 6.01371C20.3358 5.98625 20.5105 6.00337 20.6723 6.0634C20.8341 6.12342 20.9777 6.22432 21.089 6.35626C21.2002 6.48821 21.2755 6.64671 21.3073 6.81635L23.8161 20.0226" stroke="#1C1C1E" stroke-width="1.5" stroke-linecap="round" stroke-linejoin="round"/>
<path d="M8.75781 17H23.2428" stroke="#1C1C1E" stroke-width="1.5" stroke-linecap="round" stroke-linejoin="round"/>
</svg>
