<svg width="32" height="32" viewBox="0 0 32 32" fill="none" xmlns="http://www.w3.org/2000/svg">
<path d="M16 22V1" stroke="#1C1C1E" stroke-width="1.5" stroke-linecap="round" stroke-linejoin="round"/>
<path d="M13 4H19" stroke="#1C1C1E" stroke-width="1.5" stroke-linecap="round" stroke-linejoin="round"/>
<path d="M3 14.5C3 12.7761 3.68482 11.1228 4.90381 9.90381C6.12279 8.68482 7.77609 8 9.5 8C13.09 8 16 10.41 16 14C16 10.41 18.91 8 22.5 8C24.2239 8 25.8772 8.68482 27.0962 9.90381C28.3152 11.1228 29 12.7761 29 14.5C29 21 23 23 23 23V26C23 26.2652 22.8946 26.5196 22.7071 26.7071C22.5196 26.8946 22.2652 27 22 27H10C9.73478 27 9.48043 26.8946 9.29289 26.7071C9.10536 26.5196 9 26.2652 9 26V23C9 23 3 21 3 14.5Z" stroke="#1C1C1E" stroke-width="1.5" stroke-linecap="round" stroke-linejoin="round"/>
</svg>
