<svg width="32" height="32" viewBox="0 0 32 32" fill="none" xmlns="http://www.w3.org/2000/svg">
<path d="M1 15H31" stroke="#1C1C1E" stroke-width="1.5" stroke-linecap="round" stroke-linejoin="round"/>
<path d="M9.5 26C11.433 26 13 24.433 13 22.5C13 20.567 11.433 19 9.5 19C7.567 19 6 20.567 6 22.5C6 24.433 7.567 26 9.5 26Z" stroke="#1C1C1E" stroke-width="1.5" stroke-linecap="round" stroke-linejoin="round"/>
<path d="M22.5 26C24.433 26 26 24.433 26 22.5C26 20.567 24.433 19 22.5 19C20.567 19 19 20.567 19 22.5C19 24.433 20.567 26 22.5 26Z" stroke="#1C1C1E" stroke-width="1.5" stroke-linecap="round" stroke-linejoin="round"/>
<path d="M12.9648 23H19.0348" stroke="#1C1C1E" stroke-width="1.5" stroke-linecap="round" stroke-linejoin="round"/>
<path d="M5 15L11.2362 6.41129C11.3268 6.28727 11.4447 6.18577 11.5808 6.11466C11.7169 6.04355 11.8675 6.00474 12.0211 6.00124C12.1746 5.99773 12.3268 6.02963 12.466 6.09445C12.6052 6.15927 12.7276 6.25528 12.8237 6.37504L14.4412 8.25004C14.6287 8.48317 14.866 8.6713 15.1358 8.80056C15.4055 8.92982 15.7009 8.99692 16 8.99692C16.2991 8.99692 16.5945 8.92982 16.8642 8.80056C17.134 8.6713 17.3713 8.48317 17.5588 8.25004L19.1763 6.37504C19.2724 6.25528 19.3948 6.15927 19.534 6.09445C19.6732 6.02963 19.8254 5.99773 19.9789 6.00124C20.1325 6.00474 20.2831 6.04355 20.4192 6.11466C20.5553 6.18577 20.6732 6.28727 20.7638 6.41129L27 15" stroke="#1C1C1E" stroke-width="1.5" stroke-linecap="round" stroke-linejoin="round"/>
</svg>
