<svg width="32" height="32" viewBox="0 0 32 32" fill="none" xmlns="http://www.w3.org/2000/svg">
<path d="M11.5 18.75C12.1904 18.75 12.75 18.1904 12.75 17.5C12.75 16.8096 12.1904 16.25 11.5 16.25C10.8096 16.25 10.25 16.8096 10.25 17.5C10.25 18.1904 10.8096 18.75 11.5 18.75Z" fill="#1C1C1E"/>
<path d="M20.5 18.75C21.1904 18.75 21.75 18.1904 21.75 17.5C21.75 16.8096 21.1904 16.25 20.5 16.25C19.8096 16.25 19.25 16.8096 19.25 17.5C19.25 18.1904 19.8096 18.75 20.5 18.75Z" fill="#1C1C1E"/>
<path d="M16 24V27" stroke="#1C1C1E" stroke-width="1.5" stroke-linecap="round" stroke-linejoin="round"/>
<path d="M18 22L16 24L14 22" stroke="#1C1C1E" stroke-width="1.5" stroke-linecap="round" stroke-linejoin="round"/>
<path d="M13 6H19" stroke="#1C1C1E" stroke-width="1.5" stroke-linecap="round" stroke-linejoin="round"/>
<path d="M13.0003 5.99974L6.29651 4.02974C6.16424 3.99674 6.02662 3.99113 5.8921 4.01326C5.75759 4.03539 5.62902 4.08479 5.51429 4.15843C5.39956 4.23207 5.3011 4.32838 5.22496 4.44146C5.14882 4.55454 5.0966 4.68199 5.07151 4.81599L3.01901 15.816C2.82651 16.8447 4.14401 17.441 4.78901 16.6185L13.0003 5.99974Z" stroke="#1C1C1E" stroke-width="1.5" stroke-linecap="round" stroke-linejoin="round"/>
<path d="M19 5.99974L25.7038 4.02974C25.836 3.99674 25.9736 3.99113 26.1082 4.01326C26.2427 4.03539 26.3712 4.08479 26.486 4.15843C26.6007 4.23207 26.6992 4.32838 26.7753 4.44146C26.8514 4.55454 26.9037 4.68199 26.9287 4.81599L28.9813 15.816C29.1738 16.8447 27.8563 17.441 27.2113 16.6185L19 5.99974Z" stroke="#1C1C1E" stroke-width="1.5" stroke-linecap="round" stroke-linejoin="round"/>
<path d="M26 15.0479V23.0004C26 24.0612 25.5786 25.0786 24.8284 25.8288C24.0783 26.5789 23.0609 27.0004 22 27.0004H10C8.93913 27.0004 7.92172 26.5789 7.17157 25.8288C6.42143 25.0786 6 24.0612 6 23.0004V15.0479" stroke="#1C1C1E" stroke-width="1.5" stroke-linecap="round" stroke-linejoin="round"/>
</svg>
