<svg width="32" height="32" viewBox="0 0 32 32" fill="none" xmlns="http://www.w3.org/2000/svg">
<path d="M16 8.75C16.6904 8.75 17.25 8.19036 17.25 7.5C17.25 6.80964 16.6904 6.25 16 6.25C15.3096 6.25 14.75 6.80964 14.75 7.5C14.75 8.19036 15.3096 8.75 16 8.75Z" fill="#1C1C1E"/>
<path d="M16 17.25C16.6904 17.25 17.25 16.6904 17.25 16C17.25 15.3096 16.6904 14.75 16 14.75C15.3096 14.75 14.75 15.3096 14.75 16C14.75 16.6904 15.3096 17.25 16 17.25Z" fill="#1C1C1E"/>
<path d="M16 25.75C16.6904 25.75 17.25 25.1904 17.25 24.5C17.25 23.8096 16.6904 23.25 16 23.25C15.3096 23.25 14.75 23.8096 14.75 24.5C14.75 25.1904 15.3096 25.75 16 25.75Z" fill="#1C1C1E"/>
</svg>
