<svg width="32" height="32" viewBox="0 0 32 32" fill="none" xmlns="http://www.w3.org/2000/svg">
<path d="M16 28C22.6274 28 28 22.6274 28 16C28 9.37258 22.6274 4 16 4C9.37258 4 4 9.37258 4 16C4 22.6274 9.37258 28 16 28Z" stroke="#1C1C1E" stroke-width="1.5" stroke-linecap="round" stroke-linejoin="round"/>
<path d="M8.875 25.6588C10.6554 22.7098 13.1676 20.2709 16.1681 18.5786C19.1685 16.8864 22.5553 15.9981 26 16C26.6737 16 27.3413 16.0338 28 16.0988" stroke="#1C1C1E" stroke-width="1.5" stroke-linecap="round" stroke-linejoin="round"/>
<path d="M23.5005 6.63672C21.627 8.93946 19.2635 10.7953 16.5822 12.0692C13.9008 13.3431 10.969 14.0028 8.00047 14.0005C6.73544 14.0008 5.4732 13.8819 4.23047 13.6455" stroke="#1C1C1E" stroke-width="1.5" stroke-linecap="round" stroke-linejoin="round"/>
<path d="M10.7412 5.21094C13.7488 6.97517 16.2425 9.49544 17.9748 12.5215C19.7071 15.5476 20.6177 18.9741 20.6162 22.4609C20.6173 24.0948 20.4188 25.7227 20.025 27.3084" stroke="#1C1C1E" stroke-width="1.5" stroke-linecap="round" stroke-linejoin="round"/>
</svg>
