<svg width="32" height="32" viewBox="0 0 32 32" fill="none" xmlns="http://www.w3.org/2000/svg">
<path d="M28 25H4" stroke="#1C1C1E" stroke-width="1.5" stroke-linecap="round" stroke-linejoin="round"/>
<path d="M4.22785 17.35L14.4354 4.74999C14.624 4.51754 14.8622 4.33012 15.1325 4.20139C15.4028 4.07266 15.6985 4.00586 15.9979 4.00586C16.2972 4.00586 16.5929 4.07266 16.8632 4.20139C17.1335 4.33012 17.3717 4.51754 17.5604 4.74999L27.7729 17.35C27.8931 17.4983 27.9689 17.6776 27.9916 17.8672C28.0143 18.0567 27.9829 18.2489 27.9011 18.4214C27.8193 18.5939 27.6904 18.7397 27.5292 18.8421C27.3681 18.9445 27.1813 18.9992 26.9904 19H5.01035C4.81944 18.9992 4.63263 18.9445 4.47148 18.8421C4.31034 18.7397 4.18143 18.5939 4.09962 18.4214C4.01781 18.2489 3.98644 18.0567 4.00913 17.8672C4.03182 17.6776 4.10764 17.4983 4.22785 17.35Z" stroke="#1C1C1E" stroke-width="1.5" stroke-linecap="round" stroke-linejoin="round"/>
</svg>
