<svg width="32" height="32" viewBox="0 0 32 32" fill="none" xmlns="http://www.w3.org/2000/svg">
<path d="M12 13L20 21" stroke="#1C1C1E" stroke-width="1.5" stroke-linecap="round" stroke-linejoin="round"/>
<path d="M13.9997 26.9999L27.4134 13.5862C27.5992 13.4005 27.7466 13.18 27.8471 12.9373C27.9476 12.6946 27.9994 12.4345 27.9994 12.1718C27.9994 11.9091 27.9476 11.649 27.8471 11.4063C27.7466 11.1637 27.5992 10.9432 27.4134 10.7574L22.2422 5.58619C22.0565 5.40043 21.836 5.25307 21.5933 5.15253C21.3506 5.05199 21.0905 5.00024 20.8278 5.00024C20.5651 5.00024 20.305 5.05199 20.0624 5.15253C19.8197 5.25307 19.5992 5.40043 19.4134 5.58619L4.58595 20.4137C4.40018 20.5994 4.25282 20.8199 4.15228 21.0626C4.05175 21.3053 4 21.5654 4 21.8281C4 22.0907 4.05175 22.3509 4.15228 22.5935C4.25282 22.8362 4.40018 23.0567 4.58595 23.2424L8.34345 26.9999H26.9997" stroke="#1C1C1E" stroke-width="1.5" stroke-linecap="round" stroke-linejoin="round"/>
</svg>
