<svg width="32" height="32" viewBox="0 0 32 32" fill="none" xmlns="http://www.w3.org/2000/svg">
<path d="M16 17.75C20.092 15.9303 24.5216 14.9933 29 15" stroke="#1C1C1E" stroke-width="1.5" stroke-linecap="round" stroke-linejoin="round"/>
<path d="M20.6113 20.2788C23.3263 19.4283 26.1551 18.9971 29.0001 19" stroke="#1C1C1E" stroke-width="1.5" stroke-linecap="round" stroke-linejoin="round"/>
<path d="M24.6113 23.4C26.059 23.1334 27.528 22.9995 29.0001 23" stroke="#1C1C1E" stroke-width="1.5" stroke-linecap="round" stroke-linejoin="round"/>
<path d="M3 23C7.72187 22.9923 12.3401 24.3843 16.2712 27" stroke="#1C1C1E" stroke-width="1.5" stroke-linecap="round" stroke-linejoin="round"/>
<path d="M3 19C10.3291 18.9903 17.3679 21.8638 22.5963 27" stroke="#1C1C1E" stroke-width="1.5" stroke-linecap="round" stroke-linejoin="round"/>
<path d="M3 15C7.79792 14.9953 12.5352 16.0717 16.8601 18.1492C21.1849 20.2266 24.9861 23.2518 27.9813 27" stroke="#1C1C1E" stroke-width="1.5" stroke-linecap="round" stroke-linejoin="round"/>
<path d="M10 15.7675V10L18 4L26 10V15.1388" stroke="#1C1C1E" stroke-width="1.5" stroke-linecap="round" stroke-linejoin="round"/>
<path d="M15 17.3263V12H21V16.0075" stroke="#1C1C1E" stroke-width="1.5" stroke-linecap="round" stroke-linejoin="round"/>
</svg>
