<svg width="32" height="32" viewBox="0 0 32 32" fill="none" xmlns="http://www.w3.org/2000/svg">
<path d="M5 8.98119V23.0187C5.00153 23.1954 5.0504 23.3685 5.14154 23.52C5.23268 23.6714 5.36275 23.7957 5.5182 23.8798C5.67366 23.9639 5.84882 24.0048 6.02545 23.9982C6.20208 23.9917 6.37372 23.9379 6.5225 23.8424L17.5462 16.8237C17.6851 16.7357 17.7995 16.6141 17.8788 16.4701C17.9581 16.3261 17.9997 16.1643 17.9997 15.9999C17.9997 15.8355 17.9581 15.6738 17.8788 15.5298C17.7995 15.3858 17.6851 15.2641 17.5462 15.1762L6.5225 8.15744C6.37372 8.06202 6.20208 8.00823 6.02545 8.00166C5.84882 7.99509 5.67366 8.03599 5.5182 8.1201C5.36275 8.20421 5.23268 8.32846 5.14154 8.4799C5.0504 8.63134 5.00153 8.80445 5 8.98119Z" stroke="#1C1C1E" stroke-width="1.5" stroke-linecap="round" stroke-linejoin="round"/>
<path d="M18 8.98119V23.0187C18.0015 23.1954 18.0504 23.3685 18.1415 23.52C18.2327 23.6714 18.3627 23.7957 18.5182 23.8798C18.6737 23.9639 18.8488 24.0048 19.0254 23.9982C19.2021 23.9917 19.3737 23.9379 19.5225 23.8424L30.5462 16.8237C30.6851 16.7357 30.7995 16.6141 30.8788 16.4701C30.9581 16.3261 30.9997 16.1643 30.9997 15.9999C30.9997 15.8355 30.9581 15.6738 30.8788 15.5298C30.7995 15.3858 30.6851 15.2641 30.5462 15.1762L19.5225 8.15744C19.3737 8.06202 19.2021 8.00823 19.0254 8.00166C18.8488 7.99509 18.6737 8.03599 18.5182 8.1201C18.3627 8.20421 18.2327 8.32846 18.1415 8.4799C18.0504 8.63134 18.0015 8.80445 18 8.98119Z" stroke="#1C1C1E" stroke-width="1.5" stroke-linecap="round" stroke-linejoin="round"/>
</svg>
