<svg width="32" height="32" viewBox="0 0 32 32" fill="none" xmlns="http://www.w3.org/2000/svg">
<path d="M23 9L4 28" stroke="#1C1C1E" stroke-width="1.5" stroke-linecap="round" stroke-linejoin="round"/>
<path d="M18.2925 23.7079C18.1051 23.895 17.8511 24.0002 17.5863 24.0004H8V14.4141C8.00012 14.1492 8.10532 13.8952 8.2925 13.7079L17.05 5.05036C18.3628 3.73754 20.1434 3 22 3C22.9193 3 23.8296 3.18107 24.6789 3.53287C25.5282 3.88467 26.3 4.40031 26.95 5.05036C27.6 5.7004 28.1157 6.47211 28.4675 7.32144C28.8193 8.17076 29.0004 9.08106 29.0004 10.0004C29.0004 10.9197 28.8193 11.83 28.4675 12.6793C28.1157 13.5286 27.6 14.3003 26.95 14.9504L18.2925 23.7079Z" stroke="#1C1C1E" stroke-width="1.5" stroke-linecap="round" stroke-linejoin="round"/>
<path d="M14 8.06543V18.0004" stroke="#1C1C1E" stroke-width="1.5" stroke-linecap="round" stroke-linejoin="round"/>
<path d="M17 15H26.9" stroke="#1C1C1E" stroke-width="1.5" stroke-linecap="round" stroke-linejoin="round"/>
</svg>
