<svg width="32" height="32" viewBox="0 0 32 32" fill="none" xmlns="http://www.w3.org/2000/svg">
<path d="M5 14H27V25C27 25.2652 26.8946 25.5196 26.7071 25.7071C26.5196 25.8946 26.2652 26 26 26H6C5.73478 26 5.48043 25.8946 5.29289 25.7071C5.10536 25.5196 5 25.2652 5 25V14Z" stroke="#1C1C1E" stroke-width="1.5" stroke-linecap="round" stroke-linejoin="round"/>
<path d="M5.05408 14L26.0003 8.47122L24.9803 4.72122C24.91 4.47089 24.7437 4.25842 24.5176 4.12994C24.2915 4.00146 24.0239 3.96733 23.7728 4.03497L4.73158 9.05872C4.60714 9.09041 4.49023 9.1465 4.38763 9.22372C4.28504 9.30095 4.19879 9.39778 4.13391 9.50859C4.06902 9.61941 4.02679 9.74201 4.00965 9.86927C3.99252 9.99654 4.00082 10.1259 4.03408 10.25L5.05408 14Z" stroke="#1C1C1E" stroke-width="1.5" stroke-linecap="round" stroke-linejoin="round"/>
<path d="M8.46387 8.07373L14.4376 11.5237" stroke="#1C1C1E" stroke-width="1.5" stroke-linecap="round" stroke-linejoin="round"/>
<path d="M15.8262 6.13135L21.7999 9.5801" stroke="#1C1C1E" stroke-width="1.5" stroke-linecap="round" stroke-linejoin="round"/>
</svg>
