<svg width="32" height="32" viewBox="0 0 32 32" fill="none" xmlns="http://www.w3.org/2000/svg">
<path d="M22 16C22.0051 19.91 21.2437 23.783 19.7588 27.4" stroke="#1C1C1E" stroke-width="1.5" stroke-linecap="round" stroke-linejoin="round"/>
<path d="M20.4713 12C19.6611 11.0946 18.5951 10.4565 17.4144 10.1701C16.2337 9.88367 14.9939 9.96245 13.8589 10.396C12.7239 10.8296 11.7473 11.5975 11.0583 12.5981C10.3692 13.5988 10.0002 14.785 10 16C10.0042 19.0496 9.22974 22.0497 7.75 24.7162" stroke="#1C1C1E" stroke-width="1.5" stroke-linecap="round" stroke-linejoin="round"/>
<path d="M12 4.68268C13.8103 4.04474 15.7471 3.85003 17.6481 4.11486C19.5492 4.37968 21.3591 5.09633 22.9261 6.20474C24.4931 7.31316 25.7716 8.78103 26.6544 10.4854C27.5372 12.1897 27.9986 14.0808 28 16.0002C28.0015 18.6918 27.7022 21.3751 27.1075 24.0002" stroke="#1C1C1E" stroke-width="1.5" stroke-linecap="round" stroke-linejoin="round"/>
<path d="M2.91113 21.0004C3.63064 19.4318 4.00206 17.7261 3.99988 16.0004C3.99822 14.3118 4.35375 12.642 5.04314 11.1006C5.73252 9.55921 6.74015 8.18105 7.99988 7.05664" stroke="#1C1C1E" stroke-width="1.5" stroke-linecap="round" stroke-linejoin="round"/>
<path d="M13.821 26C13.571 26.5525 13.2976 27.0942 13.001 27.625" stroke="#1C1C1E" stroke-width="1.5" stroke-linecap="round" stroke-linejoin="round"/>
<path d="M16 16C16.0036 18.0236 15.7516 20.0395 15.25 22" stroke="#1C1C1E" stroke-width="1.5" stroke-linecap="round" stroke-linejoin="round"/>
</svg>
