<svg width="32" height="32" viewBox="0 0 32 32" fill="none" xmlns="http://www.w3.org/2000/svg">
<path d="M21 14H11C8.79086 14 7 15.7909 7 18V19C7 21.2091 8.79086 23 11 23H21C23.2091 23 25 21.2091 25 19V18C25 15.7909 23.2091 14 21 14Z" stroke="#1C1C1E" stroke-width="1.5" stroke-linecap="round" stroke-linejoin="round"/>
<path d="M3 9C3 8.20435 3.31607 7.44129 3.87868 6.87868C4.44129 6.31607 5.20435 6 6 6C6.79565 6 7.55871 6.31607 8.12132 6.87868C8.68393 7.44129 9 8.20435 9 9H23C23 8.20435 23.3161 7.44129 23.8787 6.87868C24.4413 6.31607 25.2044 6 26 6C26.7956 6 27.5587 6.31607 28.1213 6.87868C28.6839 7.44129 29 8.20435 29 9V19C29 21.1217 28.1571 23.1566 26.6569 24.6569C25.1566 26.1571 23.1217 27 21 27H11C8.87827 27 6.84344 26.1571 5.34315 24.6569C3.84285 23.1566 3 21.1217 3 19V9Z" stroke="#1C1C1E" stroke-width="1.5" stroke-linecap="round" stroke-linejoin="round"/>
<path d="M11.5 19.75C12.1904 19.75 12.75 19.1904 12.75 18.5C12.75 17.8096 12.1904 17.25 11.5 17.25C10.8096 17.25 10.25 17.8096 10.25 18.5C10.25 19.1904 10.8096 19.75 11.5 19.75Z" fill="#1C1C1E"/>
<path d="M20.5 19.75C21.1904 19.75 21.75 19.1904 21.75 18.5C21.75 17.8096 21.1904 17.25 20.5 17.25C19.8096 17.25 19.25 17.8096 19.25 18.5C19.25 19.1904 19.8096 19.75 20.5 19.75Z" fill="#1C1C1E"/>
</svg>
