<svg width="32" height="32" viewBox="0 0 32 32" fill="none" xmlns="http://www.w3.org/2000/svg">
<path d="M21 30H13C12.7348 30 12.4804 29.8946 12.2929 29.7071C12.1054 29.5196 12 29.2652 12 29V13C12 11.6739 12.5268 10.4021 13.4645 9.46447C14.4021 8.52678 15.6739 8 17 8C18.3261 8 19.5979 8.52678 20.5355 9.46447C21.4732 10.4021 22 11.6739 22 13V29C22 29.2652 21.8946 29.5196 21.7071 29.7071C21.5196 29.8946 21.2652 30 21 30Z" stroke="#1C1C1E" stroke-width="1.5" stroke-linecap="round" stroke-linejoin="round"/>
<path d="M8 21H22" stroke="#1C1C1E" stroke-width="1.5" stroke-linecap="round" stroke-linejoin="round"/>
<path d="M17 8V4" stroke="#1C1C1E" stroke-width="1.5" stroke-linecap="round" stroke-linejoin="round"/>
<path d="M23 1L17 4L27 7" stroke="#1C1C1E" stroke-width="1.5" stroke-linecap="round" stroke-linejoin="round"/>
<path d="M8 26V13C8 10.6131 8.94821 8.32387 10.636 6.63604C12.3239 4.94821 14.6131 4 17 4" stroke="#1C1C1E" stroke-width="1.5" stroke-linecap="round" stroke-linejoin="round"/>
</svg>
