<svg width="32" height="32" viewBox="0 0 32 32" fill="none" xmlns="http://www.w3.org/2000/svg">
<path d="M19.5 10.75C20.1904 10.75 20.75 10.1904 20.75 9.5C20.75 8.80964 20.1904 8.25 19.5 8.25C18.8096 8.25 18.25 8.80964 18.25 9.5C18.25 10.1904 18.8096 10.75 19.5 10.75Z" fill="#1C1C1E"/>
<path d="M1 21.9837L8.00875 23.9912L10.0087 31L13.0087 23.9912C32.3138 23.5325 27.5 4.83496 27.375 4.62496C27.1587 4.49996 8.46875 -0.307542 8 18.9875L1 21.9837Z" stroke="#1C1C1E" stroke-width="1.5" stroke-linecap="round" stroke-linejoin="round"/>
<path d="M23.2278 20.9526C22.407 21.0622 21.572 20.985 20.7851 20.7267C19.9982 20.4685 19.2799 20.0359 18.6836 19.4612C18.0873 18.8865 17.6284 18.1846 17.3413 17.4079C17.0542 16.6311 16.9462 15.7995 17.0253 14.9751C16.2013 15.0542 15.3701 14.9462 14.5937 14.6593C13.8172 14.3724 13.1155 13.9139 12.5409 13.3181C11.9663 12.7222 11.5336 12.0043 11.2751 11.2179C11.0166 10.4315 10.9389 9.59695 11.0478 8.77637" stroke="#1C1C1E" stroke-width="1.5" stroke-linecap="round" stroke-linejoin="round"/>
</svg>
