<svg width="32" height="32" viewBox="0 0 32 32" fill="none" xmlns="http://www.w3.org/2000/svg">
<path d="M7.39 4.07992C7.23802 4.01555 7.07246 3.9898 6.90811 4.00496C6.74375 4.02013 6.58571 4.07574 6.44807 4.16684C6.31043 4.25794 6.19749 4.38169 6.1193 4.52705C6.04112 4.67241 6.00013 4.83486 6 4.99992V12.9999C6 13.2651 6.10536 13.5195 6.29289 13.707C6.48043 13.8946 6.73478 13.9999 7 13.9999H27C28.09 13.9999 28.3937 12.4999 27.39 12.0787L7.39 4.07992Z" stroke="#1C1C1E" stroke-width="1.5" stroke-linecap="round" stroke-linejoin="round"/>
<path d="M27.3888 19.9212C28.3888 19.4962 28.0888 18 26.9988 18H7C6.73478 18 6.48043 18.1054 6.29289 18.2929C6.10536 18.4804 6 18.7348 6 19V27C5.99993 27.1652 6.04076 27.3278 6.11886 27.4733C6.19696 27.6188 6.30988 27.7427 6.44755 27.834C6.58522 27.9252 6.74334 27.9809 6.9078 27.9962C7.07225 28.0114 7.23792 27.9857 7.39 27.9212L27.3888 19.9212Z" stroke="#1C1C1E" stroke-width="1.5" stroke-linecap="round" stroke-linejoin="round"/>
</svg>
