<svg width="32" height="32" viewBox="0 0 32 32" fill="none" xmlns="http://www.w3.org/2000/svg">
<path d="M16 20C18.2091 20 20 18.2091 20 16C20 13.7909 18.2091 12 16 12C13.7909 12 12 13.7909 12 16C12 18.2091 13.7909 20 16 20Z" stroke="#1C1C1E" stroke-width="1.5" stroke-linecap="round" stroke-linejoin="round"/>
<path d="M13.9637 12.5562C12.9762 10.695 12 8.48125 12 7C12 5.93913 12.4214 4.92172 13.1716 4.17157C13.9217 3.42143 14.9391 3 16 3C17.0609 3 18.0783 3.42143 18.8284 4.17157C19.5786 4.92172 20 5.93913 20 7C20 8.48125 19.0237 10.695 18.0362 12.5562" stroke="#1C1C1E" stroke-width="1.5" stroke-linecap="round" stroke-linejoin="round"/>
<path d="M11.9996 16.041C9.89333 15.966 7.48833 15.7048 6.20583 14.9635C5.7441 14.7045 5.33839 14.3563 5.01223 13.9393C4.68608 13.5222 4.44596 13.0446 4.3058 12.534C4.16564 12.0235 4.12823 11.4902 4.19574 10.9651C4.26325 10.4399 4.43433 9.93344 4.69907 9.47495C4.96381 9.01645 5.31694 8.61507 5.73798 8.29408C6.15902 7.97309 6.63959 7.73889 7.15184 7.60504C7.66408 7.47119 8.1978 7.44036 8.72204 7.51434C9.24629 7.58833 9.75063 7.76565 10.2058 8.03603C11.4883 8.77603 12.9183 10.7285 14.0358 12.5148" stroke="#1C1C1E" stroke-width="1.5" stroke-linecap="round" stroke-linejoin="round"/>
<path d="M14.0358 19.4852C12.9183 21.2715 11.4883 23.224 10.2058 23.964C9.75063 24.2344 9.24629 24.4117 8.72204 24.4857C8.1978 24.5597 7.66408 24.5288 7.15184 24.395C6.63959 24.2611 6.15902 24.0269 5.73798 23.7059C5.31694 23.3849 4.96381 22.9836 4.69907 22.5251C4.43433 22.0666 4.26325 21.5601 4.19574 21.035C4.12823 20.5098 4.16564 19.9765 4.3058 19.466C4.44596 18.9554 4.68608 18.4778 5.01223 18.0607C5.33839 17.6437 5.7441 17.2955 6.20583 17.0365C7.48833 16.2952 9.89333 16.0365 11.9996 15.959" stroke="#1C1C1E" stroke-width="1.5" stroke-linecap="round" stroke-linejoin="round"/>
<path d="M18.0362 19.4438C19.0237 21.3051 20 23.5188 20 25.0001C20 26.061 19.5786 27.0784 18.8284 27.8285C18.0783 28.5787 17.0609 29.0001 16 29.0001C14.9391 29.0001 13.9217 28.5787 13.1716 27.8285C12.4214 27.0784 12 26.061 12 25.0001C12 23.5188 12.9762 21.3051 13.9637 19.4438" stroke="#1C1C1E" stroke-width="1.5" stroke-linecap="round" stroke-linejoin="round"/>
<path d="M20.0001 15.959C22.1064 16.034 24.5114 16.2952 25.7939 17.0365C26.2556 17.2955 26.6613 17.6437 26.9875 18.0607C27.3136 18.4778 27.5537 18.9554 27.6939 19.466C27.8341 19.9765 27.8715 20.5098 27.804 21.035C27.7364 21.5601 27.5654 22.0666 27.3006 22.5251C27.0359 22.9836 26.6828 23.3849 26.2617 23.7059C25.8407 24.0269 25.3601 24.2611 24.8479 24.395C24.3356 24.5288 23.8019 24.5597 23.2777 24.4857C22.7534 24.4117 22.2491 24.2344 21.7939 23.964C20.5114 23.224 19.0814 21.2715 17.9639 19.4852" stroke="#1C1C1E" stroke-width="1.5" stroke-linecap="round" stroke-linejoin="round"/>
<path d="M17.9639 12.5148C19.0814 10.7285 20.5114 8.77603 21.7939 8.03603C22.2491 7.76565 22.7534 7.58833 23.2777 7.51434C23.8019 7.44036 24.3356 7.47119 24.8479 7.60504C25.3601 7.73889 25.8407 7.97309 26.2617 8.29408C26.6828 8.61507 27.0359 9.01645 27.3006 9.47495C27.5654 9.93344 27.7364 10.4399 27.804 10.9651C27.8715 11.4902 27.8341 12.0235 27.6939 12.534C27.5537 13.0446 27.3136 13.5222 26.9875 13.9393C26.6613 14.3563 26.2556 14.7045 25.7939 14.9635C24.5114 15.7048 22.1064 15.9635 20.0001 16.041" stroke="#1C1C1E" stroke-width="1.5" stroke-linecap="round" stroke-linejoin="round"/>
</svg>
