<svg width="32" height="32" viewBox="0 0 32 32" fill="none" xmlns="http://www.w3.org/2000/svg">
<path d="M16 24.9999C16 24.9999 21 22.2499 21 14.8974C21 9.1474 17.9312 6.2049 16.6012 5.2024C16.4279 5.07199 16.2169 5.00146 16 5.00146C15.7831 5.00146 15.5721 5.07199 15.3988 5.2024C14.0688 6.2049 11 9.1424 11 14.8974C11 22.2499 16 24.9999 16 24.9999Z" stroke="#1C1C1E" stroke-width="1.5" stroke-linecap="round" stroke-linejoin="round"/>
<path d="M11.825 10.1C10.16 8.75005 8.56998 8.22379 7.62498 8.02254C7.37638 7.96953 7.11695 8.01078 6.89705 8.13828C6.67715 8.26579 6.51247 8.47045 6.43498 8.71254C5.94998 10.2125 5.33748 13.67 7.82373 17.9963C10.31 22.3225 14.4575 24.6713 15.995 24.9963" stroke="#1C1C1E" stroke-width="1.5" stroke-linecap="round" stroke-linejoin="round"/>
<path d="M20.175 10.1C21.84 8.74755 23.425 8.22504 24.37 8.02254C24.6186 7.96953 24.878 8.01078 25.0979 8.13828C25.3178 8.26579 25.4825 8.47045 25.56 8.71254C26.045 10.2125 26.6575 13.67 24.1712 17.9963C21.685 22.3225 17.5375 24.6713 16 25" stroke="#1C1C1E" stroke-width="1.5" stroke-linecap="round" stroke-linejoin="round"/>
<path d="M16 24.9999C17.9212 24.9999 21.0963 24.9774 24.75 22.7949C28.4037 20.6124 29.5863 17.8774 29.965 16.4774C30.0359 16.2248 30.0039 15.9544 29.876 15.7253C29.7482 15.4963 29.5347 15.3271 29.2825 15.2549C28.0205 14.9406 26.704 14.9133 25.43 15.1749" stroke="#1C1C1E" stroke-width="1.5" stroke-linecap="round" stroke-linejoin="round"/>
<path d="M6.57 15.1749C5.296 14.9133 3.97954 14.9406 2.7175 15.2549C2.46525 15.3271 2.25185 15.4963 2.12395 15.7253C1.99606 15.9544 1.96407 16.2248 2.035 16.4774C2.41 17.8774 3.59625 20.6112 7.25 22.7949C10.9038 24.9787 14.0788 24.9999 16 24.9999" stroke="#1C1C1E" stroke-width="1.5" stroke-linecap="round" stroke-linejoin="round"/>
</svg>
