<svg width="32" height="32" viewBox="0 0 32 32" fill="none" xmlns="http://www.w3.org/2000/svg">
<path d="M10.5 21.75C11.1904 21.75 11.75 21.1904 11.75 20.5C11.75 19.8096 11.1904 19.25 10.5 19.25C9.80964 19.25 9.25 19.8096 9.25 20.5C9.25 21.1904 9.80964 21.75 10.5 21.75Z" fill="#1C1C1E"/>
<path d="M15 25.0002C15.1498 25.0002 15.2977 24.9666 15.4328 24.9018C15.5679 24.837 15.6866 24.7426 15.7804 24.6258C15.8741 24.5089 15.9403 24.3724 15.9742 24.2265C16.0081 24.0806 16.0088 23.9289 15.9763 23.7827L14.0238 17.2177C13.9912 17.0715 13.9919 16.9198 14.0258 16.7739C14.0597 16.6279 14.1259 16.4915 14.2196 16.3746C14.3134 16.2577 14.4321 16.1634 14.5672 16.0986C14.7023 16.0338 14.8502 16.0002 15 16.0002H27V15.5002C27.0002 13.9761 26.6974 12.4672 26.1092 11.0612C25.5211 9.65515 24.6593 8.38006 23.574 7.31001C22.4888 6.23997 21.2016 5.39633 19.7874 4.82812C18.3732 4.25992 16.8602 3.97849 15.3363 4.00019C9.08125 4.08894 4 9.24019 4 15.5002C3.99884 17.3727 4.45537 19.2171 5.32987 20.8728C6.20436 22.5286 7.47031 23.9455 9.0175 25.0002H15Z" stroke="#1C1C1E" stroke-width="1.5" stroke-linecap="round" stroke-linejoin="round"/>
<path d="M18.4997 16L21.5384 26.2838C21.5998 26.491 21.7266 26.6728 21.8998 26.8019C22.0731 26.931 22.2836 27.0005 22.4997 27H26.9997C27.2649 27 27.5193 26.8946 27.7068 26.7071C27.8943 26.5196 27.9997 26.2652 27.9997 26V22C27.9997 21.7348 27.8943 21.4804 27.7068 21.2929C27.5193 21.1054 27.2649 21 26.9997 21H15.1484" stroke="#1C1C1E" stroke-width="1.5" stroke-linecap="round" stroke-linejoin="round"/>
</svg>
