<svg width="32" height="32" viewBox="0 0 32 32" fill="none" xmlns="http://www.w3.org/2000/svg">
<path d="M19 24H26V25.5C26 26.4283 25.6313 27.3185 24.9749 27.9749C24.3185 28.6313 23.4283 29 22.5 29C21.5717 29 20.6815 28.6313 20.0251 27.9749C19.3687 27.3185 19 26.4283 19 25.5V24Z" stroke="#1C1C1E" stroke-width="1.5" stroke-linecap="round" stroke-linejoin="round"/>
<path d="M6 21H13V22.5C13 23.4283 12.6313 24.3185 11.9749 24.9749C11.3185 25.6313 10.4283 26 9.5 26C8.57174 26 7.6815 25.6313 7.02513 24.9749C6.36875 24.3185 6 23.4283 6 22.5V21Z" stroke="#1C1C1E" stroke-width="1.5" stroke-linecap="round" stroke-linejoin="round"/>
<path d="M6.34274 17C3.06774 13 6.43524 3 9.50024 3C12.5652 3 15.9327 13 12.6577 17H6.34274Z" stroke="#1C1C1E" stroke-width="1.5" stroke-linecap="round" stroke-linejoin="round"/>
<path d="M19.3427 20C16.0677 16 19.4352 6 22.5002 6C25.5652 6 28.9327 16 25.6577 20H19.3427Z" stroke="#1C1C1E" stroke-width="1.5" stroke-linecap="round" stroke-linejoin="round"/>
</svg>
