<svg width="32" height="32" viewBox="0 0 32 32" fill="none" xmlns="http://www.w3.org/2000/svg">
<path d="M8 11V14C8 14.5304 8.21071 15.0391 8.58579 15.4142C8.96086 15.7893 9.46957 16 10 16H22C22.5304 16 23.0391 15.7893 23.4142 15.4142C23.7893 15.0391 24 14.5304 24 14V11" stroke="#1C1C1E" stroke-width="1.5" stroke-linecap="round" stroke-linejoin="round"/>
<path d="M16 16V21" stroke="#1C1C1E" stroke-width="1.5" stroke-linecap="round" stroke-linejoin="round"/>
<path d="M8 11C9.65685 11 11 9.65685 11 8C11 6.34315 9.65685 5 8 5C6.34315 5 5 6.34315 5 8C5 9.65685 6.34315 11 8 11Z" stroke="#1C1C1E" stroke-width="1.5" stroke-linecap="round" stroke-linejoin="round"/>
<path d="M16 27C17.6569 27 19 25.6569 19 24C19 22.3431 17.6569 21 16 21C14.3431 21 13 22.3431 13 24C13 25.6569 14.3431 27 16 27Z" stroke="#1C1C1E" stroke-width="1.5" stroke-linecap="round" stroke-linejoin="round"/>
<path d="M24 11C25.6569 11 27 9.65685 27 8C27 6.34315 25.6569 5 24 5C22.3431 5 21 6.34315 21 8C21 9.65685 22.3431 11 24 11Z" stroke="#1C1C1E" stroke-width="1.5" stroke-linecap="round" stroke-linejoin="round"/>
</svg>
