<svg width="32" height="32" viewBox="0 0 32 32" fill="none" xmlns="http://www.w3.org/2000/svg">
<path d="M21 21L27 27" stroke="#1C1C1E" stroke-width="1.5" stroke-linecap="round" stroke-linejoin="round"/>
<path d="M27 21L21 27" stroke="#1C1C1E" stroke-width="1.5" stroke-linecap="round" stroke-linejoin="round"/>
<path d="M4 16H28" stroke="#1C1C1E" stroke-width="1.5" stroke-linecap="round" stroke-linejoin="round"/>
<path d="M16 28C13.6266 28 11.3066 27.2962 9.33316 25.9776C7.35977 24.6591 5.8217 22.7849 4.91345 20.5922C4.0052 18.3995 3.76756 15.9867 4.23058 13.6589C4.6936 11.3312 5.83649 9.19295 7.51472 7.51472C9.19295 5.83649 11.3312 4.6936 13.6589 4.23058C15.9867 3.76756 18.3995 4.0052 20.5922 4.91345C22.7849 5.8217 24.6591 7.35977 25.9776 9.33316C27.2962 11.3066 28 13.6266 28 16" stroke="#1C1C1E" stroke-width="1.5" stroke-linecap="round" stroke-linejoin="round"/>
<path d="M16 28C16 28 11 24 11 16C11 8 16 4 16 4C16 4 21 8 21 16" stroke="#1C1C1E" stroke-width="1.5" stroke-linecap="round" stroke-linejoin="round"/>
</svg>
