<svg width="32" height="32" viewBox="0 0 32 32" fill="none" xmlns="http://www.w3.org/2000/svg">
<path d="M9 11C9 9.14348 9.7375 7.36301 11.0503 6.05025C12.363 4.7375 14.1435 4 16 4C17.8565 4 19.637 4.7375 20.9497 6.05025C22.2625 7.36301 23 9.14348 23 11V14C23 15.8565 22.2625 17.637 20.9497 18.9497C19.637 20.2625 17.8565 21 16 21C14.1435 21 12.363 20.2625 11.0503 18.9497C9.7375 17.637 9 15.8565 9 14V11Z" stroke="#1C1C1E" stroke-width="1.5" stroke-linecap="round" stroke-linejoin="round"/>
<path d="M23 4V21C23 22.8565 22.2625 24.637 20.9497 25.9497C19.637 27.2625 17.8565 28 16 28C13.625 28 11.265 26.8138 10 25" stroke="#1C1C1E" stroke-width="1.5" stroke-linecap="round" stroke-linejoin="round"/>
</svg>
