<svg width="32" height="32" viewBox="0 0 32 32" fill="none" xmlns="http://www.w3.org/2000/svg">
<path d="M11.7063 4.47C11.7962 4.32625 11.9211 4.20769 12.0693 4.12548C12.2176 4.04326 12.3843 4.00008 12.5538 4H19.4463C19.6158 4.00008 19.7825 4.04326 19.9308 4.12548C20.079 4.20769 20.204 4.32625 20.2938 4.47L28.8476 18.4925C28.9435 18.6457 28.9962 18.822 28.9999 19.0027C29.0037 19.1834 28.9583 19.3617 28.8688 19.5187L25.4526 25.5C25.3647 25.6522 25.2382 25.7786 25.0859 25.8664C24.9336 25.9542 24.7608 26.0003 24.5851 26H7.41506C7.23927 26.0003 7.06653 25.9542 6.91422 25.8664C6.76192 25.7786 6.63545 25.6522 6.54756 25.5L3.13131 19.5187C3.04178 19.3617 2.99647 19.1834 3.00021 19.0027C3.00396 18.822 3.0566 18.6457 3.15256 18.4925L11.7063 4.47Z" stroke="#1C1C1E" stroke-width="1.5" stroke-linecap="round" stroke-linejoin="round"/>
<path d="M6.88965 25.8496L19.9259 4.12207" stroke="#1C1C1E" stroke-width="1.5" stroke-linecap="round" stroke-linejoin="round"/>
<path d="M25.1105 25.8496L12.0742 4.12207" stroke="#1C1C1E" stroke-width="1.5" stroke-linecap="round" stroke-linejoin="round"/>
<path d="M3 19H29" stroke="#1C1C1E" stroke-width="1.5" stroke-linecap="round" stroke-linejoin="round"/>
</svg>
