<svg width="32" height="32" viewBox="0 0 32 32" fill="none" xmlns="http://www.w3.org/2000/svg">
<path d="M21 14C22.6569 14 24 12.6569 24 11C24 9.34315 22.6569 8 21 8C19.3431 8 18 9.34315 18 11C18 12.6569 19.3431 14 21 14Z" stroke="#1C1C1E" stroke-width="1.5" stroke-linecap="round" stroke-linejoin="round"/>
<path d="M3 14.1525V7.8475C3.00001 7.6109 3.08391 7.38196 3.2368 7.20138C3.38968 7.02081 3.60164 6.90029 3.835 6.86125L21 4C22.8565 4 24.637 4.7375 25.9497 6.05025C27.2625 7.36301 28 9.14348 28 11C28 12.8565 27.2625 14.637 25.9497 15.9497C24.637 17.2625 22.8565 18 21 18L3.835 15.1388C3.60164 15.0997 3.38968 14.9792 3.2368 14.7986C3.08391 14.618 3.00001 14.3891 3 14.1525Z" stroke="#1C1C1E" stroke-width="1.5" stroke-linecap="round" stroke-linejoin="round"/>
<path d="M19 26V27C19 28.0609 19.4214 29.0783 20.1716 29.8284C20.9217 30.5786 21.9391 31 23 31H25" stroke="#1C1C1E" stroke-width="1.5" stroke-linecap="round" stroke-linejoin="round"/>
<path d="M25.3113 16.5146L21.2663 25.4134C21.1868 25.5881 21.0588 25.7363 20.8974 25.8403C20.7361 25.9443 20.5482 25.9996 20.3563 25.9996H18C17.7348 25.9996 17.4804 25.8943 17.2929 25.7068C17.1054 25.5192 17 25.2649 17 24.9996V17.3334" stroke="#1C1C1E" stroke-width="1.5" stroke-linecap="round" stroke-linejoin="round"/>
</svg>
