<svg width="32" height="32" viewBox="0 0 32 32" fill="none" xmlns="http://www.w3.org/2000/svg">
<path d="M11 16L3 24L12 27L17 22" stroke="#1C1C1E" stroke-width="1.5" stroke-linecap="round" stroke-linejoin="round"/>
<path d="M22.9998 20L19.7073 23.2925C19.6145 23.3855 19.5042 23.4592 19.3828 23.5096C19.2614 23.5599 19.1313 23.5858 18.9998 23.5858C18.8684 23.5858 18.7383 23.5599 18.6169 23.5096C18.4955 23.4592 18.3852 23.3855 18.2923 23.2925L9.70735 14.7075C9.61437 14.6146 9.54061 14.5043 9.49029 14.3829C9.43997 14.2615 9.41406 14.1314 9.41406 14C9.41406 13.8686 9.43997 13.7385 9.49029 13.6171C9.54061 13.4957 9.61437 13.3854 9.70735 13.2925L12.9998 10" stroke="#1C1C1E" stroke-width="1.5" stroke-linecap="round" stroke-linejoin="round"/>
<path d="M30.9998 14L24.7073 20.2925C24.6145 20.3855 24.5042 20.4592 24.3828 20.5096C24.2614 20.5599 24.1313 20.5858 23.9998 20.5858C23.8684 20.5858 23.7383 20.5599 23.6169 20.5096C23.4955 20.4592 23.3852 20.3855 23.2923 20.2925L12.7073 9.7075C12.6144 9.61463 12.5406 9.50434 12.4903 9.38294C12.44 9.26154 12.4141 9.13142 12.4141 9C12.4141 8.86858 12.44 8.73846 12.4903 8.61706C12.5406 8.49566 12.6144 8.38537 12.7073 8.2925L18.9998 2" stroke="#1C1C1E" stroke-width="1.5" stroke-linecap="round" stroke-linejoin="round"/>
</svg>
