<svg width="32" height="32" viewBox="0 0 32 32" fill="none" xmlns="http://www.w3.org/2000/svg">
<path d="M27 6H9C8.44772 6 8 6.44772 8 7V21C8 21.5523 8.44772 22 9 22H27C27.5523 22 28 21.5523 28 21V7C28 6.44772 27.5523 6 27 6Z" stroke="#1C1C1E" stroke-width="1.5" stroke-linecap="round" stroke-linejoin="round"/>
<path d="M21.5 11.75C22.1904 11.75 22.75 11.1904 22.75 10.5C22.75 9.80964 22.1904 9.25 21.5 9.25C20.8096 9.25 20.25 9.80964 20.25 10.5C20.25 11.1904 20.8096 11.75 21.5 11.75Z" fill="#1C1C1E"/>
<path d="M8 16.0863L12.7925 11.2926C12.8854 11.1996 12.9957 11.1258 13.1171 11.0755C13.2385 11.0252 13.3686 10.9993 13.5 10.9993C13.6314 10.9993 13.7615 11.0252 13.8829 11.0755C14.0043 11.1258 14.1146 11.1996 14.2075 11.2926L20.4137 17.5001L23.625 14.2926C23.8125 14.1052 24.0668 13.9999 24.3319 13.9999C24.597 13.9999 24.8512 14.1052 25.0387 14.2926L28 17.2576" stroke="#1C1C1E" stroke-width="1.5" stroke-linecap="round" stroke-linejoin="round"/>
<path d="M24 22V25C24 25.2652 23.8946 25.5196 23.7071 25.7071C23.5196 25.8946 23.2652 26 23 26H5C4.73478 26 4.48043 25.8946 4.29289 25.7071C4.10536 25.5196 4 25.2652 4 25V11C4 10.7348 4.10536 10.4804 4.29289 10.2929C4.48043 10.1054 4.73478 10 5 10H8" stroke="#1C1C1E" stroke-width="1.5" stroke-linecap="round" stroke-linejoin="round"/>
</svg>
