<svg width="32" height="32" viewBox="0 0 32 32" fill="none" xmlns="http://www.w3.org/2000/svg">
<path d="M27 6H5C4.44772 6 4 6.44772 4 7V25C4 25.5523 4.44772 26 5 26H27C27.5523 26 28 25.5523 28 25V7C28 6.44772 27.5523 6 27 6Z" stroke="#1C1C1E" stroke-width="1.5" stroke-linecap="round" stroke-linejoin="round"/>
<path d="M19.5 13.75C20.1904 13.75 20.75 13.1904 20.75 12.5C20.75 11.8096 20.1904 11.25 19.5 11.25C18.8096 11.25 18.25 11.8096 18.25 12.5C18.25 13.1904 18.8096 13.75 19.5 13.75Z" fill="#1C1C1E"/>
<path d="M18.4141 20.4999L21.6253 17.2924C21.8128 17.105 22.0671 16.9998 22.3322 16.9998C22.5973 16.9998 22.8515 17.105 23.0391 17.2924L28.0003 22.2574" stroke="#1C1C1E" stroke-width="1.5" stroke-linecap="round" stroke-linejoin="round"/>
<path d="M4 21.0863L10.7925 14.2926C10.8854 14.1996 10.9957 14.1258 11.1171 14.0755C11.2385 14.0252 11.3686 13.9993 11.5 13.9993C11.6314 13.9993 11.7615 14.0252 11.8829 14.0755C12.0043 14.1258 12.1146 14.1996 12.2075 14.2926L23.9137 26.0001" stroke="#1C1C1E" stroke-width="1.5" stroke-linecap="round" stroke-linejoin="round"/>
</svg>
