<svg width="32" height="32" viewBox="0 0 32 32" fill="none" xmlns="http://www.w3.org/2000/svg">
<path d="M3 28C3 28 8 24 16 24C24 24 29 28 29 28" stroke="#1C1C1E" stroke-width="1.5" stroke-linecap="round" stroke-linejoin="round"/>
<path d="M22.0001 9C12.0001 14 16.0001 24 16.0001 24" stroke="#1C1C1E" stroke-width="1.5" stroke-linecap="round" stroke-linejoin="round"/>
<path d="M22 9.0001C22 9.0001 19.85 7.9276 17.5 8.0001C15.3175 8.07135 12.9625 9.14885 12 13.0001" stroke="#1C1C1E" stroke-width="1.5" stroke-linecap="round" stroke-linejoin="round"/>
<path d="M22 9C22 9 20 1.1875 13 5.09375" stroke="#1C1C1E" stroke-width="1.5" stroke-linecap="round" stroke-linejoin="round"/>
<path d="M29 17C29 9 22 9 22 9" stroke="#1C1C1E" stroke-width="1.5" stroke-linecap="round" stroke-linejoin="round"/>
<path d="M22 9.00007C22 9.00007 24 2.38757 29 6.16632" stroke="#1C1C1E" stroke-width="1.5" stroke-linecap="round" stroke-linejoin="round"/>
<path d="M22.9996 17C22.9996 17 25.8259 13 22.0059 9" stroke="#1C1C1E" stroke-width="1.5" stroke-linecap="round" stroke-linejoin="round"/>
<path d="M6.5 20C7.88071 20 9 18.8807 9 17.5C9 16.1193 7.88071 15 6.5 15C5.11929 15 4 16.1193 4 17.5C4 18.8807 5.11929 20 6.5 20Z" stroke="#1C1C1E" stroke-width="1.5" stroke-linecap="round" stroke-linejoin="round"/>
</svg>
