<svg width="32" height="32" viewBox="0 0 32 32" fill="none" xmlns="http://www.w3.org/2000/svg">
<path d="M28 21V25C28 25.2652 27.8946 25.5196 27.7071 25.7071C27.5196 25.8946 27.2652 26 27 26H24C23.7348 26 23.4804 25.8946 23.2929 25.7071C23.1054 25.5196 23 25.2652 23 25V21" stroke="#1C1C1E" stroke-width="1.5" stroke-linecap="round" stroke-linejoin="round"/>
<path d="M9 21V25C9 25.2652 8.89464 25.5196 8.70711 25.7071C8.51957 25.8946 8.26522 26 8 26H5C4.73478 26 4.48043 25.8946 4.29289 25.7071C4.10536 25.5196 4 25.2652 4 25V21" stroke="#1C1C1E" stroke-width="1.5" stroke-linecap="round" stroke-linejoin="round"/>
<path d="M2 12H30" stroke="#1C1C1E" stroke-width="1.5" stroke-linecap="round" stroke-linejoin="round"/>
<path d="M18 16V21" stroke="#1C1C1E" stroke-width="1.5" stroke-linecap="round" stroke-linejoin="round"/>
<path d="M14 16V21" stroke="#1C1C1E" stroke-width="1.5" stroke-linecap="round" stroke-linejoin="round"/>
<path d="M28 21H4V12L5.33 5.79C5.37807 5.56618 5.50148 5.36564 5.67962 5.22185C5.85775 5.07807 6.07983 4.99976 6.30875 5H25.6912C25.9202 4.99976 26.1422 5.07807 26.3204 5.22185C26.4985 5.36564 26.6219 5.56618 26.67 5.79L28 12V21Z" stroke="#1C1C1E" stroke-width="1.5" stroke-linecap="round" stroke-linejoin="round"/>
<path d="M8.5 17.75C9.19036 17.75 9.75 17.1904 9.75 16.5C9.75 15.8096 9.19036 15.25 8.5 15.25C7.80964 15.25 7.25 15.8096 7.25 16.5C7.25 17.1904 7.80964 17.75 8.5 17.75Z" fill="#1C1C1E"/>
<path d="M23.5 17.75C24.1904 17.75 24.75 17.1904 24.75 16.5C24.75 15.8096 24.1904 15.25 23.5 15.25C22.8096 15.25 22.25 15.8096 22.25 16.5C22.25 17.1904 22.8096 17.75 23.5 17.75Z" fill="#1C1C1E"/>
</svg>
