<svg width="32" height="32" viewBox="0 0 32 32" fill="none" xmlns="http://www.w3.org/2000/svg">
<path d="M26 19H6C5.44772 19 5 19.4477 5 20V26C5 26.5523 5.44772 27 6 27H26C26.5523 27 27 26.5523 27 26V20C27 19.4477 26.5523 19 26 19Z" stroke="#1C1C1E" stroke-width="1.5" stroke-linecap="round" stroke-linejoin="round"/>
<path d="M16 19V11" stroke="#1C1C1E" stroke-width="1.5" stroke-linecap="round" stroke-linejoin="round"/>
<path d="M16 11C18.2091 11 20 9.20914 20 7C20 4.79086 18.2091 3 16 3C13.7909 3 12 4.79086 12 7C12 9.20914 13.7909 11 16 11Z" stroke="#1C1C1E" stroke-width="1.5" stroke-linecap="round" stroke-linejoin="round"/>
<path d="M25 15H21" stroke="#1C1C1E" stroke-width="1.5" stroke-linecap="round" stroke-linejoin="round"/>
</svg>
