<svg width="32" height="32" viewBox="0 0 32 32" fill="none" xmlns="http://www.w3.org/2000/svg">
<path d="M16 28C22.6274 28 28 22.6274 28 16C28 9.37258 22.6274 4 16 4C9.37258 4 4 9.37258 4 16C4 22.6274 9.37258 28 16 28Z" stroke="#1C1C1E" stroke-width="1.5" stroke-linecap="round" stroke-linejoin="round"/>
<path d="M16 28C22.6274 28 28 22.6274 28 16C28 9.37258 22.6274 4 16 4C9.37258 4 4 9.37258 4 16C4 22.6274 9.37258 28 16 28Z" stroke="#1C1C1E" stroke-width="1.5" stroke-linecap="round" stroke-linejoin="round"/>
<path d="M14 17.4651C13.2374 17.0248 12.6415 16.3452 12.3045 15.5317C11.9675 14.7182 11.9084 13.8162 12.1363 12.9657C12.3642 12.1152 12.8664 11.3636 13.565 10.8276C14.2635 10.2915 15.1195 10.001 16 10.001C16.8805 10.001 17.7365 10.2915 18.435 10.8276C19.1336 11.3636 19.6358 12.1152 19.8637 12.9657C20.0916 13.8162 20.0325 14.7182 19.6955 15.5317C19.3586 16.3452 18.7626 17.0248 18 17.4651L20 22.0001H12L14 17.4651Z" stroke="#1C1C1E" stroke-width="1.5" stroke-linecap="round" stroke-linejoin="round"/>
</svg>
