<svg width="32" height="32" viewBox="0 0 32 32" fill="none" xmlns="http://www.w3.org/2000/svg">
<path d="M13.5837 21C13.1945 21.8918 12.5535 22.6507 11.7393 23.1836C10.9251 23.7165 9.97309 24.0002 9 24H8C6.4087 24 4.88258 23.3679 3.75736 22.2426C2.63214 21.1174 2 19.5913 2 18V15C2 13.4087 2.63214 11.8826 3.75736 10.7574C4.88258 9.63214 6.4087 9 8 9H9.17875C10.3206 8.99991 11.4388 9.32566 12.402 9.93899C13.3652 10.5523 14.1333 11.4278 14.6163 12.4625L18.3838 20.5375C18.8667 21.5722 19.6348 22.4477 20.598 23.061C21.5612 23.6743 22.6794 24.0001 23.8213 24H26C27.0609 24 28.0783 23.5786 28.8284 22.8284C29.5786 22.0783 30 21.0609 30 20C30 18.9391 29.5786 17.9217 28.8284 17.1716C28.0783 16.4214 27.0609 16 26 16H23.5C22.5717 16 21.6815 15.6313 21.0251 14.9749C20.3687 14.3185 20 13.4283 20 12.5C20 11.5717 20.3687 10.6815 21.0251 10.0251C21.6815 9.36875 22.5717 9 23.5 9H26C26.7956 9 27.5587 9.31607 28.1213 9.87868C28.6839 10.4413 29 11.2044 29 12" stroke="#1C1C1E" stroke-width="1.5" stroke-linecap="round" stroke-linejoin="round"/>
</svg>
