<svg width="32" height="32" viewBox="0 0 32 32" fill="none" xmlns="http://www.w3.org/2000/svg">
<path d="M12.5 15.25C13.1904 15.25 13.75 14.6904 13.75 14C13.75 13.3096 13.1904 12.75 12.5 12.75C11.8096 12.75 11.25 13.3096 11.25 14C11.25 14.6904 11.8096 15.25 12.5 15.25Z" fill="#1C1C1E"/>
<path d="M19.5 15.25C20.1904 15.25 20.75 14.6904 20.75 14C20.75 13.3096 20.1904 12.75 19.5 12.75C18.8096 12.75 18.25 13.3096 18.25 14C18.25 14.6904 18.8096 15.25 19.5 15.25Z" fill="#1C1C1E"/>
<path d="M19.5 19C18.4496 19.6536 17.2372 20 16 20C14.7628 20 13.5504 19.6536 12.5 19" stroke="#1C1C1E" stroke-width="1.5" stroke-linecap="round" stroke-linejoin="round"/>
<path d="M23 7H9C7.34315 7 6 8.34315 6 10V22C6 23.6569 7.34315 25 9 25H23C24.6569 25 26 23.6569 26 22V10C26 8.34315 24.6569 7 23 7Z" stroke="#1C1C1E" stroke-width="1.5" stroke-linecap="round" stroke-linejoin="round"/>
<path d="M12 7V4C12 3.73478 12.1054 3.48043 12.2929 3.29289C12.4804 3.10536 12.7348 3 13 3H19C19.2652 3 19.5196 3.10536 19.7071 3.29289C19.8946 3.48043 20 3.73478 20 4V7" stroke="#1C1C1E" stroke-width="1.5" stroke-linecap="round" stroke-linejoin="round"/>
<path d="M9 25V28C9 28.2652 9.10536 28.5196 9.29289 28.7071C9.48043 28.8946 9.73478 29 10 29H22C22.2652 29 22.5196 28.8946 22.7071 28.7071C22.8946 28.5196 23 28.2652 23 28V25" stroke="#1C1C1E" stroke-width="1.5" stroke-linecap="round" stroke-linejoin="round"/>
</svg>
