<svg width="32" height="32" viewBox="0 0 32 32" fill="none" xmlns="http://www.w3.org/2000/svg">
<path d="M10 7H22" stroke="#1C1C1E" stroke-width="1.5" stroke-linecap="round" stroke-linejoin="round"/>
<path d="M9.99964 7.00001L7.99964 26.905C7.98637 27.0441 8.00238 27.1844 8.04666 27.3169C8.09094 27.4494 8.16249 27.5712 8.2567 27.6744C8.35092 27.7775 8.46571 27.8598 8.59367 27.9159C8.72163 27.972 8.85993 28.0006 8.99964 28H22.9996C23.1394 28.0006 23.2776 27.972 23.4056 27.9159C23.5336 27.8598 23.6484 27.7775 23.7426 27.6744C23.8368 27.5712 23.9083 27.4494 23.9526 27.3169C23.9969 27.1844 24.0129 27.0441 23.9996 26.905L21.9996 7.00001L16.6396 2.23126C16.46 2.08159 16.2335 1.99963 15.9996 1.99963C15.7658 1.99963 15.5393 2.08159 15.3596 2.23126L9.99964 7.00001Z" stroke="#1C1C1E" stroke-width="1.5" stroke-linecap="round" stroke-linejoin="round"/>
<path d="M16 11V14" stroke="#1C1C1E" stroke-width="1.5" stroke-linecap="round" stroke-linejoin="round"/>
<path d="M26 11V14H6V11" stroke="#1C1C1E" stroke-width="1.5" stroke-linecap="round" stroke-linejoin="round"/>
<path d="M8.59668 21H23.4042" stroke="#1C1C1E" stroke-width="1.5" stroke-linecap="round" stroke-linejoin="round"/>
</svg>
