<svg width="32" height="32" viewBox="0 0 32 32" fill="none" xmlns="http://www.w3.org/2000/svg">
<path d="M4 26C4 26 8 21 8 11C8 8.87827 8.84285 6.84344 10.3431 5.34315C11.8434 3.84285 13.8783 3 16 3C18.1217 3 20.1566 3.84285 21.6569 5.34315C23.1571 6.84344 24 8.87827 24 11C24 21 28 26 28 26" stroke="#1C1C1E" stroke-width="1.5" stroke-linecap="round" stroke-linejoin="round"/>
<path d="M12.5 13.75C13.1904 13.75 13.75 13.1904 13.75 12.5C13.75 11.8096 13.1904 11.25 12.5 11.25C11.8096 11.25 11.25 11.8096 11.25 12.5C11.25 13.1904 11.8096 13.75 12.5 13.75Z" fill="#1C1C1E"/>
<path d="M19.5 13.75C20.1904 13.75 20.75 13.1904 20.75 12.5C20.75 11.8096 20.1904 11.25 19.5 11.25C18.8096 11.25 18.25 11.8096 18.25 12.5C18.25 13.1904 18.8096 13.75 19.5 13.75Z" fill="#1C1C1E"/>
<path d="M20 17L16 19L12 17" stroke="#1C1C1E" stroke-width="1.5" stroke-linecap="round" stroke-linejoin="round"/>
<path d="M11 26C12 24.2062 13.8637 23 16 23C18.1363 23 20 24.2062 21 26" stroke="#1C1C1E" stroke-width="1.5" stroke-linecap="round" stroke-linejoin="round"/>
</svg>
