<svg width="32" height="32" viewBox="0 0 32 32" fill="none" xmlns="http://www.w3.org/2000/svg">
<path d="M26 11H6C5.44772 11 5 11.4477 5 12V26C5 26.5523 5.44772 27 6 27H26C26.5523 27 27 26.5523 27 26V12C27 11.4477 26.5523 11 26 11Z" stroke="#1C1C1E" stroke-width="1.5" stroke-linecap="round" stroke-linejoin="round"/>
<path d="M16 20.25C16.6904 20.25 17.25 19.6904 17.25 19C17.25 18.3096 16.6904 17.75 16 17.75C15.3096 17.75 14.75 18.3096 14.75 19C14.75 19.6904 15.3096 20.25 16 20.25Z" fill="#1C1C1E"/>
<path d="M11 11V7C11 5.67392 11.5268 4.40215 12.4645 3.46447C13.4021 2.52678 14.6739 2 16 2C18.4188 2 20.5362 3.7175 21 6" stroke="#1C1C1E" stroke-width="1.5" stroke-linecap="round" stroke-linejoin="round"/>
</svg>
