<svg width="32" height="32" viewBox="0 0 32 32" fill="none" xmlns="http://www.w3.org/2000/svg">
<path d="M25 18.25C25.6904 18.25 26.25 17.6904 26.25 17C26.25 16.3096 25.6904 15.75 25 15.75C24.3096 15.75 23.75 16.3096 23.75 17C23.75 17.6904 24.3096 18.25 25 18.25Z" fill="#1C1C1E"/>
<path d="M25 25C27.7614 25 30 21.4183 30 17C30 12.5817 27.7614 9 25 9C22.2386 9 20 12.5817 20 17C20 21.4183 22.2386 25 25 25Z" stroke="#1C1C1E" stroke-width="1.5" stroke-linecap="round" stroke-linejoin="round"/>
<path d="M12 9L17 4H21" stroke="#1C1C1E" stroke-width="1.5" stroke-linecap="round" stroke-linejoin="round"/>
<path d="M25 25H7C4.23875 25 2 21.4187 2 17C2 12.5813 4.23875 9 7 9H25" stroke="#1C1C1E" stroke-width="1.5" stroke-linecap="round" stroke-linejoin="round"/>
<path d="M2.15723 15H12.9997" stroke="#1C1C1E" stroke-width="1.5" stroke-linecap="round" stroke-linejoin="round"/>
<path d="M10 20H20.3638" stroke="#1C1C1E" stroke-width="1.5" stroke-linecap="round" stroke-linejoin="round"/>
</svg>
