<svg width="32" height="32" viewBox="0 0 32 32" fill="none" xmlns="http://www.w3.org/2000/svg">
<path d="M28.28 18.21C28.4877 18.1494 28.6702 18.0231 28.8 17.85C28.9298 17.6769 29 17.4664 29 17.25V12.75C29 12.5336 28.9298 12.3231 28.8 12.15C28.6702 11.9769 28.4877 11.8506 28.28 11.79L6.28 5.04C6.13096 4.99653 5.97386 4.98836 5.82111 5.01613C5.66837 5.0439 5.5242 5.10685 5.4 5.2C5.2758 5.29315 5.175 5.41393 5.10557 5.55279C5.03614 5.69164 5 5.84476 5 6V24C5 24.1552 5.03614 24.3084 5.10557 24.4472C5.175 24.5861 5.2758 24.7069 5.4 24.8C5.5242 24.8931 5.66837 24.9561 5.82111 24.9839C5.97386 25.0116 6.13096 25.0035 6.28 24.96L28.28 18.21Z" stroke="#1C1C1E" stroke-width="1.5" stroke-linecap="round" stroke-linejoin="round"/>
<path d="M24 19.5225V24C24 24.2652 23.8946 24.5196 23.7071 24.7071C23.5196 24.8946 23.2652 25 23 25H19C18.7348 25 18.4804 24.8946 18.2929 24.7071C18.1054 24.5196 18 24.2652 18 24V8.63623" stroke="#1C1C1E" stroke-width="1.5" stroke-linecap="round" stroke-linejoin="round"/>
</svg>
