<svg width="32" height="32" viewBox="0 0 32 32" fill="none" xmlns="http://www.w3.org/2000/svg">
<path d="M12 24C14.2091 24 16 22.2091 16 20C16 17.7909 14.2091 16 12 16C9.79086 16 8 17.7909 8 20C8 22.2091 9.79086 24 12 24Z" stroke="#1C1C1E" stroke-width="1.5" stroke-linecap="round" stroke-linejoin="round"/>
<path d="M21 22L27 16" stroke="#1C1C1E" stroke-width="1.5" stroke-linecap="round" stroke-linejoin="round"/>
<path d="M20 16L23 13" stroke="#1C1C1E" stroke-width="1.5" stroke-linecap="round" stroke-linejoin="round"/>
<path d="M26 10L28 8" stroke="#1C1C1E" stroke-width="1.5" stroke-linecap="round" stroke-linejoin="round"/>
<path d="M16 12L25 3" stroke="#1C1C1E" stroke-width="1.5" stroke-linecap="round" stroke-linejoin="round"/>
<path d="M17.6559 25.6562C16.9171 26.417 16.0345 27.0232 15.0593 27.4397C14.0841 27.8562 13.0358 28.0747 11.9755 28.0825C10.9151 28.0902 9.86372 27.8871 8.88255 27.4849C7.90138 27.0826 7.00996 26.4894 6.26014 25.7395C5.51031 24.9897 4.91704 24.0983 4.51482 23.1171C4.1126 22.1359 3.90946 21.0846 3.91721 20.0242C3.92496 18.9638 4.14344 17.9156 4.55996 16.9404C4.97648 15.9652 5.58272 15.0825 6.34342 14.3438L16.6859 4" stroke="#1C1C1E" stroke-width="1.5" stroke-linecap="round" stroke-linejoin="round"/>
</svg>
