<svg width="32" height="32" viewBox="0 0 32 32" fill="none" xmlns="http://www.w3.org/2000/svg">
<path d="M19.0004 19L29.2941 16.125C29.4959 16.0632 29.6729 15.9391 29.7999 15.7706C29.9268 15.602 29.9972 15.3976 30.001 15.1866C30.0047 14.9756 29.9416 14.7689 29.8207 14.5959C29.6998 14.423 29.5273 14.2927 29.3279 14.2238L7.32786 6.06376C7.15137 6.00373 6.96163 5.99423 6.78003 6.03633C6.59843 6.07843 6.43222 6.17045 6.30015 6.302C6.16808 6.43355 6.0754 6.5994 6.03259 6.78083C5.98978 6.96226 5.99853 7.15204 6.05786 7.32876L14.2179 29.3288C14.2868 29.5282 14.4171 29.7007 14.59 29.8216C14.763 29.9425 14.9697 30.0056 15.1807 30.0019C15.3917 29.9981 15.5961 29.9277 15.7647 29.8008C15.9332 29.6738 16.0573 29.4968 16.1191 29.295L19.0004 19Z" stroke="#1C1C1E" stroke-width="1.5" stroke-linecap="round" stroke-linejoin="round"/>
</svg>
