<svg width="32" height="32" viewBox="0 0 32 32" fill="none" xmlns="http://www.w3.org/2000/svg">
<path d="M26 5H6C5.44772 5 5 5.44772 5 6V26C5 26.5523 5.44772 27 6 27H26C26.5523 27 27 26.5523 27 26V6C27 5.44772 26.5523 5 26 5Z" stroke="#1C1C1E" stroke-width="1.5" stroke-linecap="round" stroke-linejoin="round"/>
<path d="M16 15.5C17.6569 15.5 19 14.1569 19 12.5C19 10.8431 17.6569 9.5 16 9.5C14.3431 9.5 13 10.8431 13 12.5C13 14.1569 14.3431 15.5 16 15.5Z" stroke="#1C1C1E" stroke-width="1.5" stroke-linecap="round" stroke-linejoin="round"/>
<path d="M16 22.5C17.933 22.5 19.5 20.933 19.5 19C19.5 17.067 17.933 15.5 16 15.5C14.067 15.5 12.5 17.067 12.5 19C12.5 20.933 14.067 22.5 16 22.5Z" stroke="#1C1C1E" stroke-width="1.5" stroke-linecap="round" stroke-linejoin="round"/>
</svg>
