<svg width="32" height="32" viewBox="0 0 32 32" fill="none" xmlns="http://www.w3.org/2000/svg">
<path d="M8 7.75C8.9665 7.75 9.75 6.9665 9.75 6C9.75 5.0335 8.9665 4.25 8 4.25C7.0335 4.25 6.25 5.0335 6.25 6C6.25 6.9665 7.0335 7.75 8 7.75Z" fill="#1C1C1E"/>
<path d="M16 7.75C16.9665 7.75 17.75 6.9665 17.75 6C17.75 5.0335 16.9665 4.25 16 4.25C15.0335 4.25 14.25 5.0335 14.25 6C14.25 6.9665 15.0335 7.75 16 7.75Z" fill="#1C1C1E"/>
<path d="M24 7.75C24.9665 7.75 25.75 6.9665 25.75 6C25.75 5.0335 24.9665 4.25 24 4.25C23.0335 4.25 22.25 5.0335 22.25 6C22.25 6.9665 23.0335 7.75 24 7.75Z" fill="#1C1C1E"/>
<path d="M8 14.75C8.9665 14.75 9.75 13.9665 9.75 13C9.75 12.0335 8.9665 11.25 8 11.25C7.0335 11.25 6.25 12.0335 6.25 13C6.25 13.9665 7.0335 14.75 8 14.75Z" fill="#1C1C1E"/>
<path d="M16 14.75C16.9665 14.75 17.75 13.9665 17.75 13C17.75 12.0335 16.9665 11.25 16 11.25C15.0335 11.25 14.25 12.0335 14.25 13C14.25 13.9665 15.0335 14.75 16 14.75Z" fill="#1C1C1E"/>
<path d="M24 14.75C24.9665 14.75 25.75 13.9665 25.75 13C25.75 12.0335 24.9665 11.25 24 11.25C23.0335 11.25 22.25 12.0335 22.25 13C22.25 13.9665 23.0335 14.75 24 14.75Z" fill="#1C1C1E"/>
<path d="M8 21.75C8.9665 21.75 9.75 20.9665 9.75 20C9.75 19.0335 8.9665 18.25 8 18.25C7.0335 18.25 6.25 19.0335 6.25 20C6.25 20.9665 7.0335 21.75 8 21.75Z" fill="#1C1C1E"/>
<path d="M16 21.75C16.9665 21.75 17.75 20.9665 17.75 20C17.75 19.0335 16.9665 18.25 16 18.25C15.0335 18.25 14.25 19.0335 14.25 20C14.25 20.9665 15.0335 21.75 16 21.75Z" fill="#1C1C1E"/>
<path d="M16 28.75C16.9665 28.75 17.75 27.9665 17.75 27C17.75 26.0335 16.9665 25.25 16 25.25C15.0335 25.25 14.25 26.0335 14.25 27C14.25 27.9665 15.0335 28.75 16 28.75Z" fill="#1C1C1E"/>
<path d="M24 21.75C24.9665 21.75 25.75 20.9665 25.75 20C25.75 19.0335 24.9665 18.25 24 18.25C23.0335 18.25 22.25 19.0335 22.25 20C22.25 20.9665 23.0335 21.75 24 21.75Z" fill="#1C1C1E"/>
</svg>
