<svg width="32" height="32" viewBox="0 0 32 32" fill="none" xmlns="http://www.w3.org/2000/svg">
<path d="M20.5562 4H11.4438C11.3124 3.9999 11.1823 4.02568 11.0609 4.07586C10.9395 4.12605 10.8292 4.19967 10.7363 4.2925L4.2925 10.7363C4.19967 10.8292 4.12605 10.9395 4.07586 11.0609C4.02568 11.1823 3.9999 11.3124 4 11.4438V20.5562C3.9999 20.6876 4.02568 20.8177 4.07586 20.9391C4.12605 21.0605 4.19967 21.1708 4.2925 21.2638L10.7363 27.7075C10.8292 27.8003 10.9395 27.8739 11.0609 27.9241C11.1823 27.9743 11.3124 28.0001 11.4438 28H20.5562C20.6876 28.0001 20.8177 27.9743 20.9391 27.9241C21.0605 27.8739 21.1708 27.8003 21.2638 27.7075L27.7075 21.2638C27.8003 21.1708 27.8739 21.0605 27.9241 20.9391C27.9743 20.8177 28.0001 20.6876 28 20.5562V11.4438C28.0001 11.3124 27.9743 11.1823 27.9241 11.0609C27.8739 10.9395 27.8003 10.8292 27.7075 10.7363L21.2638 4.2925C21.1708 4.19967 21.0605 4.12605 20.9391 4.07586C20.8177 4.02568 20.6876 3.9999 20.5562 4Z" stroke="#1C1C1E" stroke-width="1.5" stroke-linecap="round" stroke-linejoin="round"/>
</svg>
