<svg width="32" height="32" viewBox="0 0 32 32" fill="none" xmlns="http://www.w3.org/2000/svg">
<path d="M26 5H6C5.44772 5 5 5.44772 5 6V26C5 26.5523 5.44772 27 6 27H26C26.5523 27 27 26.5523 27 26V6C27 5.44772 26.5523 5 26 5Z" stroke="#1C1C1E" stroke-width="1.5" stroke-linecap="round" stroke-linejoin="round"/>
<path d="M10.5 10.75C11.1904 10.75 11.75 10.1904 11.75 9.5C11.75 8.80964 11.1904 8.25 10.5 8.25C9.80964 8.25 9.25 8.80964 9.25 9.5C9.25 10.1904 9.80964 10.75 10.5 10.75Z" fill="#1C1C1E"/>
<path d="M16 10.75C16.6904 10.75 17.25 10.1904 17.25 9.5C17.25 8.80964 16.6904 8.25 16 8.25C15.3096 8.25 14.75 8.80964 14.75 9.5C14.75 10.1904 15.3096 10.75 16 10.75Z" fill="#1C1C1E"/>
<path d="M21.5 10.75C22.1904 10.75 22.75 10.1904 22.75 9.5C22.75 8.80964 22.1904 8.25 21.5 8.25C20.8096 8.25 20.25 8.80964 20.25 9.5C20.25 10.1904 20.8096 10.75 21.5 10.75Z" fill="#1C1C1E"/>
<path d="M23 14H9V23H23V14Z" stroke="#1C1C1E" stroke-width="1.5" stroke-linecap="round" stroke-linejoin="round"/>
</svg>
