<svg width="32" height="32" viewBox="0 0 32 32" fill="none" xmlns="http://www.w3.org/2000/svg">
<path d="M25 7H6C5.44772 7 5 7.44772 5 8V16C5 16.5523 5.44772 17 6 17H25C25.5523 17 26 16.5523 26 16V8C26 7.44772 25.5523 7 25 7Z" stroke="#1C1C1E" stroke-width="1.5" stroke-linecap="round" stroke-linejoin="round"/>
<path d="M26 12H29C29.2652 12 29.5196 12.1054 29.7071 12.2929C29.8946 12.4804 30 12.7348 30 13V19.25C30 19.4672 29.9292 19.6785 29.7984 19.852C29.6676 20.0254 29.4839 20.1515 29.275 20.2113L16.725 23.7925C16.5168 23.8521 16.3335 23.9776 16.2027 24.1503C16.072 24.323 16.0009 24.5334 16 24.75V29" stroke="#1C1C1E" stroke-width="1.5" stroke-linecap="round" stroke-linejoin="round"/>
<path d="M5 12H2" stroke="#1C1C1E" stroke-width="1.5" stroke-linecap="round" stroke-linejoin="round"/>
</svg>
