<svg width="32" height="32" viewBox="0 0 32 32" fill="none" xmlns="http://www.w3.org/2000/svg">
<path d="M16 24C16 23.2043 16.3161 22.4413 16.8787 21.8787C17.4413 21.3161 18.2044 21 19 21H24.7763C25.4558 21.0001 26.1152 20.7695 26.6465 20.346C27.1779 19.9225 27.5498 19.3312 27.7013 18.6687C27.9077 17.7592 28.008 16.8289 28 15.8962C27.9438 9.29375 22.48 3.93375 15.875 4C12.7141 4.03292 9.69388 5.31173 7.47041 7.55861C5.24694 9.80548 3.99983 12.8389 4 16C4 21.2262 7.34125 25.18 12 26.8262C12.4523 26.9862 12.9364 27.0353 13.4116 26.9694C13.8868 26.9036 14.3393 26.7248 14.7312 26.4479C15.123 26.1711 15.4427 25.8043 15.6635 25.3784C15.8842 24.9524 15.9997 24.4798 16 24Z" stroke="#1C1C1E" stroke-width="1.5" stroke-linecap="round" stroke-linejoin="round"/>
<path d="M16 10.75C16.6904 10.75 17.25 10.1904 17.25 9.5C17.25 8.80964 16.6904 8.25 16 8.25C15.3096 8.25 14.75 8.80964 14.75 9.5C14.75 10.1904 15.3096 10.75 16 10.75Z" fill="#1C1C1E"/>
<path d="M10.5 13.75C11.1904 13.75 11.75 13.1904 11.75 12.5C11.75 11.8096 11.1904 11.25 10.5 11.25C9.80964 11.25 9.25 11.8096 9.25 12.5C9.25 13.1904 9.80964 13.75 10.5 13.75Z" fill="#1C1C1E"/>
<path d="M10.5 20.75C11.1904 20.75 11.75 20.1904 11.75 19.5C11.75 18.8096 11.1904 18.25 10.5 18.25C9.80964 18.25 9.25 18.8096 9.25 19.5C9.25 20.1904 9.80964 20.75 10.5 20.75Z" fill="#1C1C1E"/>
<path d="M21.5 13.75C22.1904 13.75 22.75 13.1904 22.75 12.5C22.75 11.8096 22.1904 11.25 21.5 11.25C20.8096 11.25 20.25 11.8096 20.25 12.5C20.25 13.1904 20.8096 13.75 21.5 13.75Z" fill="#1C1C1E"/>
</svg>
