<svg width="32" height="32" viewBox="0 0 32 32" fill="none" xmlns="http://www.w3.org/2000/svg">
<path d="M18 16H10" stroke="#1C1C1E" stroke-width="1.5" stroke-linecap="round" stroke-linejoin="round"/>
<path d="M6.06096 27.6601C5.99066 27.8521 5.98091 28.0611 6.03304 28.2588C6.08517 28.4566 6.19667 28.6336 6.35251 28.766C6.50835 28.8984 6.70103 28.9799 6.9046 28.9994C7.10816 29.0189 7.31281 28.9755 7.49096 28.8751L28.491 16.8639C28.6473 16.7774 28.7775 16.6506 28.8683 16.4967C28.959 16.3428 29.0068 16.1675 29.0068 15.9889C29.0068 15.8102 28.959 15.6349 28.8683 15.481C28.7775 15.3271 28.6473 15.2003 28.491 15.1139L7.49096 3.1326C7.31335 3.03326 7.10965 2.99048 6.90708 3.00997C6.70451 3.02945 6.5127 3.11028 6.35728 3.24166C6.20186 3.37303 6.09022 3.5487 6.03727 3.7452C5.98432 3.9417 5.99259 4.14967 6.06096 4.34135L9.99971 16.0001L6.06096 27.6601Z" stroke="#1C1C1E" stroke-width="1.5" stroke-linecap="round" stroke-linejoin="round"/>
</svg>
