<svg width="32" height="32" viewBox="0 0 32 32" fill="none" xmlns="http://www.w3.org/2000/svg">
<path d="M27 26.0001C27 26.1465 26.9678 26.2912 26.9057 26.4238C26.8436 26.5565 26.7532 26.6739 26.6407 26.7677C26.5283 26.8615 26.3966 26.9295 26.255 26.9669C26.1134 27.0042 25.9653 27.01 25.8213 26.9838L5.82125 23.3476C5.59083 23.3057 5.38242 23.1843 5.23234 23.0046C5.08226 22.8248 5.00003 22.598 5 22.3638V9.63635C5.00003 9.40216 5.08226 9.17541 5.23234 8.99564C5.38242 8.81586 5.59083 8.69446 5.82125 8.6526L25.8213 5.01635C25.9653 4.99017 26.1134 4.99596 26.255 5.03331C26.3966 5.07066 26.5283 5.13865 26.6407 5.23249C26.7532 5.32633 26.8436 5.44371 26.9057 5.57635C26.9678 5.70899 27 5.85365 27 6.0001V26.0001Z" stroke="#1C1C1E" stroke-width="1.5" stroke-linecap="round" stroke-linejoin="round"/>
<path d="M2 16H30" stroke="#1C1C1E" stroke-width="1.5" stroke-linecap="round" stroke-linejoin="round"/>
</svg>
