<svg width="32" height="32" viewBox="0 0 32 32" fill="none" xmlns="http://www.w3.org/2000/svg">
<path d="M16 8C17.6569 8 19 6.65685 19 5C19 3.34315 17.6569 2 16 2C14.3431 2 13 3.34315 13 5C13 6.65685 14.3431 8 16 8Z" stroke="#1C1C1E" stroke-width="1.5" stroke-linecap="round" stroke-linejoin="round"/>
<path d="M18.6462 10C19.0719 10.0001 19.4926 10.0907 19.8806 10.2659C20.2685 10.4412 20.6147 10.6969 20.8962 11.0162L26.5612 17.4387C26.7007 17.5783 26.8114 17.7439 26.8869 17.9262C26.9624 18.1085 27.0013 18.3039 27.0013 18.5012C27.0013 18.6986 26.9624 18.894 26.8869 19.0763C26.8114 19.2586 26.7007 19.4242 26.5612 19.5637C26.4217 19.7033 26.256 19.814 26.0737 19.8895C25.8914 19.965 25.696 20.0039 25.4987 20.0039C25.3014 20.0039 25.106 19.965 24.9237 19.8895C24.7414 19.814 24.5757 19.7033 24.4362 19.5637L19.9999 16L22.8587 26.8662C23.0201 27.2258 23.0335 27.6344 22.896 28.0038C22.7586 28.3731 22.4813 28.6735 22.1241 28.8401C21.7669 29.0066 21.3585 29.0259 20.9872 28.8937C20.6159 28.7615 20.3116 28.4885 20.1399 28.1338L15.9999 21L11.8599 28.1338C11.6883 28.4885 11.384 28.7615 11.0127 28.8937C10.6414 29.0259 10.233 29.0066 9.87582 28.8401C9.51863 28.6735 9.24132 28.3731 9.10385 28.0038C8.96638 27.6344 8.9798 27.2258 9.1412 26.8662L11.9999 16L7.5612 19.5613C7.2794 19.843 6.89721 20.0014 6.4987 20.0014C6.10018 20.0014 5.71799 19.843 5.4362 19.5613C5.1544 19.2795 4.99609 18.8973 4.99609 18.4988C4.99609 18.1002 5.1544 17.718 5.4362 17.4363L11.1037 11.0162C11.3852 10.6969 11.7314 10.4412 12.1193 10.2659C12.5072 10.0907 12.928 10.0001 13.3537 10H18.6462Z" stroke="#1C1C1E" stroke-width="1.5" stroke-linecap="round" stroke-linejoin="round"/>
</svg>
