<svg width="32" height="32" viewBox="0 0 32 32" fill="none" xmlns="http://www.w3.org/2000/svg">
<path d="M16 8C17.6569 8 19 6.65685 19 5C19 3.34315 17.6569 2 16 2C14.3431 2 13 3.34315 13 5C13 6.65685 14.3431 8 16 8Z" stroke="#1C1C1E" stroke-width="1.5" stroke-linecap="round" stroke-linejoin="round"/>
<path d="M4.87455 12.8625C3.41331 12.1875 3.8933 10 5.49955 10H26.4996C28.1083 10 28.5883 12.1875 27.1246 12.8625L19.9996 16L22.8583 26.8662C23.0197 27.2258 23.0331 27.6344 22.8957 28.0038C22.7582 28.3731 22.4809 28.6735 22.1237 28.8401C21.7665 29.0066 21.3581 29.0259 20.9868 28.8937C20.6155 28.7615 20.3112 28.4885 20.1396 28.1338L15.9996 21L11.8596 28.1338C11.6879 28.4885 11.3836 28.7615 11.0123 28.8937C10.641 29.0259 10.2326 29.0066 9.87543 28.8401C9.51824 28.6735 9.24093 28.3731 9.10346 28.0038C8.96599 27.6344 8.9794 27.2258 9.1408 26.8662L11.9996 16L4.87455 12.8625Z" stroke="#1C1C1E" stroke-width="1.5" stroke-linecap="round" stroke-linejoin="round"/>
</svg>
