<svg width="32" height="32" viewBox="0 0 32 32" fill="none" xmlns="http://www.w3.org/2000/svg">
<path d="M16 11L12 28" stroke="#1C1C1E" stroke-width="1.5" stroke-linecap="round" stroke-linejoin="round"/>
<path d="M8.3375 19C7.57134 17.6716 7.12096 16.1848 7.02119 14.6545C6.92142 13.1242 7.17493 11.5915 7.76212 10.1749C8.34932 8.75821 9.25446 7.49558 10.4076 6.48462C11.5607 5.47365 12.9308 4.74143 14.4121 4.34457C15.8934 3.94771 17.4461 3.89684 18.9502 4.19591C20.4542 4.49497 21.8694 5.13595 23.0862 6.06928C24.303 7.00261 25.2888 8.20329 25.9675 9.57847C26.6461 10.9536 26.9994 12.4665 27 14C27 19.5225 23 23 19 23C15 23 13.7963 20.3663 13.7963 20.3663" stroke="#1C1C1E" stroke-width="1.5" stroke-linecap="round" stroke-linejoin="round"/>
</svg>
