<svg width="32" height="32" viewBox="0 0 32 32" fill="none" xmlns="http://www.w3.org/2000/svg">
<path d="M22 8V24" stroke="#1C1C1E" stroke-width="1.5" stroke-linecap="round" stroke-linejoin="round"/>
<path d="M28 8V24" stroke="#1C1C1E" stroke-width="1.5" stroke-linecap="round" stroke-linejoin="round"/>
<path d="M4 8.98125V23.0188C4.00153 23.1955 4.0504 23.3686 4.14154 23.52C4.23268 23.6715 4.36275 23.7957 4.5182 23.8798C4.67366 23.964 4.84882 24.0049 5.02545 23.9983C5.20208 23.9917 5.37372 23.9379 5.5225 23.8425L16.5462 16.8238C16.6851 16.7358 16.7995 16.6142 16.8788 16.4701C16.9581 16.3261 16.9997 16.1644 16.9997 16C16.9997 15.8356 16.9581 15.6739 16.8788 15.5299C16.7995 15.3858 16.6851 15.2642 16.5462 15.1763L5.5225 8.1575C5.37372 8.06208 5.20208 8.00829 5.02545 8.00172C4.84882 7.99515 4.67366 8.03605 4.5182 8.12016C4.36275 8.20427 4.23268 8.32852 4.14154 8.47996C4.0504 8.6314 4.00153 8.80451 4 8.98125Z" stroke="#1C1C1E" stroke-width="1.5" stroke-linecap="round" stroke-linejoin="round"/>
</svg>
