<svg width="32" height="32" viewBox="0 0 32 32" fill="none" xmlns="http://www.w3.org/2000/svg">
<path d="M4 10L7.81875 26.2288C7.87033 26.4483 7.99459 26.6439 8.17135 26.7839C8.34811 26.9239 8.56701 27.0001 8.7925 27H23.2075C23.433 27.0001 23.6519 26.9239 23.8286 26.7839C24.0054 26.6439 24.1297 26.4483 24.1812 26.2288L28 10L21 12L16.375 10.1488C16.1367 10.0535 15.8708 10.0535 15.6325 10.1488L11 12L4 10Z" stroke="#1C1C1E" stroke-width="1.5" stroke-linecap="round" stroke-linejoin="round"/>
<path d="M11 12L13 27" stroke="#1C1C1E" stroke-width="1.5" stroke-linecap="round" stroke-linejoin="round"/>
<path d="M21 12L19 27" stroke="#1C1C1E" stroke-width="1.5" stroke-linecap="round" stroke-linejoin="round"/>
<path d="M27 10.288C26.9642 9.53069 26.7377 8.79472 26.3415 8.14837C25.9453 7.50202 25.3922 6.96625 24.7336 6.59079C24.0749 6.21534 23.3321 6.01238 22.5741 6.00074C21.816 5.9891 21.0673 6.16917 20.3975 6.52423C20.1751 5.52509 19.6187 4.63162 18.8202 3.99127C18.0216 3.35092 17.0286 3.00195 16.005 3.00195C14.9814 3.00195 13.9884 3.35092 13.1898 3.99127C12.3913 4.63162 11.8349 5.52509 11.6125 6.52423C10.9424 6.16692 10.1928 5.985 9.43345 5.99541C8.67411 6.00583 7.92976 6.20825 7.26972 6.58381C6.60968 6.95937 6.05542 7.49586 5.65856 8.14332C5.2617 8.79077 5.03515 9.52814 5 10.2867" stroke="#1C1C1E" stroke-width="1.5" stroke-linecap="round" stroke-linejoin="round"/>
</svg>
