<svg width="32" height="32" viewBox="0 0 32 32" fill="none" xmlns="http://www.w3.org/2000/svg">
<path d="M19 25C17.3438 25 16 23.6075 16 21.8888C16 20.17 17.3438 18.7775 19 18.7775C19.3776 18.7776 19.7516 18.851 20.1012 18.9937C20.2916 18.0673 20.7408 17.2139 21.3966 16.5325C22.0525 15.8511 22.8882 15.3698 23.8067 15.1442C24.7251 14.9187 25.6887 14.9583 26.5856 15.2584C27.4825 15.5586 28.2759 16.1069 28.8736 16.8398C29.4714 17.5727 29.849 18.4601 29.9627 19.399C30.0764 20.3379 29.9214 21.2898 29.5159 22.1442C29.1103 22.9985 28.4707 23.7204 27.6714 24.2259C26.8721 24.7314 25.9458 24.9998 25 25H19Z" stroke="#1C1C1E" stroke-width="1.5" stroke-linecap="round" stroke-linejoin="round"/>
<path d="M2 22.0001V20.0001C1.99979 17.6409 2.69501 15.3339 3.99876 13.3677C5.3025 11.4014 7.15692 9.86304 9.33019 8.94494C11.5034 8.02684 13.8991 7.76973 16.2177 8.20574C18.5363 8.64175 20.6749 9.75154 22.3662 11.3964" stroke="#1C1C1E" stroke-width="1.5" stroke-linecap="round" stroke-linejoin="round"/>
<path d="M6 22.0001V20.0001C5.99984 18.5214 6.40956 17.0715 7.18364 15.8115C7.95773 14.5515 9.06589 13.5308 10.3851 12.8626C11.7043 12.1944 13.1828 11.9049 14.6566 12.0263C16.1304 12.1476 17.5417 12.6751 18.7337 13.5501" stroke="#1C1C1E" stroke-width="1.5" stroke-linecap="round" stroke-linejoin="round"/>
<path d="M10 22V20C9.99996 19.3958 10.1368 18.7995 10.4002 18.2558C10.6636 17.712 11.0468 17.235 11.521 16.8606C11.9951 16.4861 12.548 16.224 13.138 16.0937C13.728 15.9635 14.3398 15.9687 14.9275 16.1088" stroke="#1C1C1E" stroke-width="1.5" stroke-linecap="round" stroke-linejoin="round"/>
</svg>
