<svg width="32" height="32" viewBox="0 0 32 32" fill="none" xmlns="http://www.w3.org/2000/svg">
<path d="M22.5 5H27V9.5" stroke="#1C1C1E" stroke-width="1.5" stroke-linecap="round" stroke-linejoin="round"/>
<path d="M22.5 27H27V22.5" stroke="#1C1C1E" stroke-width="1.5" stroke-linecap="round" stroke-linejoin="round"/>
<path d="M9.5 27H5V22.5" stroke="#1C1C1E" stroke-width="1.5" stroke-linecap="round" stroke-linejoin="round"/>
<path d="M9.5 5H5V9.5" stroke="#1C1C1E" stroke-width="1.5" stroke-linecap="round" stroke-linejoin="round"/>
<path d="M16 24C20.4183 24 24 20.4183 24 16C24 11.5817 20.4183 8 16 8C11.5817 8 8 11.5817 8 16C8 20.4183 11.5817 24 16 24Z" stroke="#1C1C1E" stroke-width="1.5" stroke-linecap="round" stroke-linejoin="round"/>
<path d="M13 15.75C13.6904 15.75 14.25 15.1904 14.25 14.5C14.25 13.8096 13.6904 13.25 13 13.25C12.3096 13.25 11.75 13.8096 11.75 14.5C11.75 15.1904 12.3096 15.75 13 15.75Z" fill="#1C1C1E"/>
<path d="M19 15.75C19.6904 15.75 20.25 15.1904 20.25 14.5C20.25 13.8096 19.6904 13.25 19 13.25C18.3096 13.25 17.75 13.8096 17.75 14.5C17.75 15.1904 18.3096 15.75 19 15.75Z" fill="#1C1C1E"/>
<path d="M19 19C18.295 19.625 17.015 20 16 20C14.985 20 13.705 19.625 13 19" stroke="#1C1C1E" stroke-width="1.5" stroke-linecap="round" stroke-linejoin="round"/>
</svg>
