<svg width="32" height="32" viewBox="0 0 32 32" fill="none" xmlns="http://www.w3.org/2000/svg">
<path d="M16 13C18.4853 13 20.5 10.9853 20.5 8.5C20.5 6.01472 18.4853 4 16 4C13.5147 4 11.5 6.01472 11.5 8.5C11.5 10.9853 13.5147 13 16 13Z" stroke="#1C1C1E" stroke-width="1.5" stroke-linecap="round" stroke-linejoin="round"/>
<path d="M25 28H7L24 13" stroke="#1C1C1E" stroke-width="1.5" stroke-linecap="round" stroke-linejoin="round"/>
<path d="M23.3945 18.875C24.4409 20.3791 25.001 22.1678 24.9995 24" stroke="#1C1C1E" stroke-width="1.5" stroke-linecap="round" stroke-linejoin="round"/>
<path d="M7.11328 22.565C7.3442 21.1332 7.91772 19.7785 8.785 18.616C9.65227 17.4536 10.7876 16.518 12.0944 15.8889C13.4011 15.2598 14.8405 14.9558 16.29 15.0028C17.7396 15.0498 19.1563 15.4463 20.4195 16.1588" stroke="#1C1C1E" stroke-width="1.5" stroke-linecap="round" stroke-linejoin="round"/>
</svg>
