<svg width="32" height="32" viewBox="0 0 32 32" fill="none" xmlns="http://www.w3.org/2000/svg">
<path d="M31 18V24" stroke="#1C1C1E" stroke-width="1.5" stroke-linecap="round" stroke-linejoin="round"/>
<path d="M22.9997 4.58594L6.58594 20.9997" stroke="#1C1C1E" stroke-width="1.5" stroke-linecap="round" stroke-linejoin="round"/>
<path d="M1.07368 20.5736C1.03893 20.6085 1.01528 20.653 1.00572 20.7013C0.996163 20.7497 1.00111 20.7998 1.01995 20.8453C1.03878 20.8909 1.07066 20.9299 1.11158 20.9573C1.1525 20.9848 1.20063 20.9996 1.24993 20.9998H6.58618L11.2924 25.7073C11.3853 25.8003 11.4956 25.874 11.617 25.9244C11.7384 25.9747 11.8685 26.0006 11.9999 26.0006C12.1313 26.0006 12.2615 25.9747 12.3829 25.9244C12.5043 25.874 12.6146 25.8003 12.7074 25.7073L27.7074 10.7073C27.8004 10.6144 27.8742 10.5041 27.9245 10.3828C27.9748 10.2614 28.0007 10.1312 28.0007 9.99981C28.0007 9.86839 27.9748 9.73827 27.9245 9.61687C27.8742 9.49547 27.8004 9.38518 27.7074 9.29231L20.7074 2.29231C20.6146 2.19933 20.5043 2.12557 20.3829 2.07525C20.2615 2.02493 20.1313 1.99902 19.9999 1.99902C19.8685 1.99902 19.7384 2.02493 19.617 2.07525C19.4956 2.12557 19.3853 2.19933 19.2924 2.29231L1.07368 20.5736Z" stroke="#1C1C1E" stroke-width="1.5" stroke-linecap="round" stroke-linejoin="round"/>
<path d="M20.707 17.707L23.707 20.707C23.8944 20.8942 24.1484 20.9994 24.4133 20.9995H30.9995" stroke="#1C1C1E" stroke-width="1.5" stroke-linecap="round" stroke-linejoin="round"/>
</svg>
