<svg width="32" height="32" viewBox="0 0 32 32" fill="none" xmlns="http://www.w3.org/2000/svg">
<path d="M16 17V12" stroke="#1C1C1E" stroke-width="1.5" stroke-linecap="round" stroke-linejoin="round"/>
<path d="M16 22.75C16.6904 22.75 17.25 22.1904 17.25 21.5C17.25 20.8096 16.6904 20.25 16 20.25C15.3096 20.25 14.75 20.8096 14.75 21.5C14.75 22.1904 15.3096 22.75 16 22.75Z" fill="#1C1C1E"/>
<path d="M27 14V7C27 6.73478 26.8946 6.48043 26.7071 6.29289C26.5196 6.10536 26.2652 6 26 6H6C5.73478 6 5.48043 6.10536 5.29289 6.29289C5.10536 6.48043 5 6.73478 5 7V14C5 26 16 29 16 29C16 29 27 26 27 14Z" stroke="#1C1C1E" stroke-width="1.5" stroke-linecap="round" stroke-linejoin="round"/>
</svg>
