<svg width="32" height="32" viewBox="0 0 32 32" fill="none" xmlns="http://www.w3.org/2000/svg">
<path d="M2 4H5L9.59375 20.535C9.71066 20.9561 9.96229 21.3273 10.3101 21.5919C10.658 21.8565 11.083 21.9998 11.52 22H23.875C24.3123 22.0001 24.7375 21.8569 25.0856 21.5923C25.4337 21.3277 25.6855 20.9563 25.8025 20.535L29 9H6.38875" stroke="#1C1C1E" stroke-width="1.5" stroke-linecap="round" stroke-linejoin="round"/>
<path d="M11 28.75C11.9665 28.75 12.75 27.9665 12.75 27C12.75 26.0335 11.9665 25.25 11 25.25C10.0335 25.25 9.25 26.0335 9.25 27C9.25 27.9665 10.0335 28.75 11 28.75Z" fill="#1C1C1E"/>
<path d="M24 28.75C24.9665 28.75 25.75 27.9665 25.75 27C25.75 26.0335 24.9665 25.25 24 25.25C23.0335 25.25 22.25 26.0335 22.25 27C22.25 27.9665 23.0335 28.75 24 28.75Z" fill="#1C1C1E"/>
</svg>
