<svg width="32" height="32" viewBox="0 0 32 32" fill="none" xmlns="http://www.w3.org/2000/svg">
<path d="M6.5 30.75C7.19036 30.75 7.75 30.1904 7.75 29.5C7.75 28.8096 7.19036 28.25 6.5 28.25C5.80964 28.25 5.25 28.8096 5.25 29.5C5.25 30.1904 5.80964 30.75 6.5 30.75Z" fill="#1C1C1E"/>
<path d="M10.5 26.75C11.1904 26.75 11.75 26.1904 11.75 25.5C11.75 24.8096 11.1904 24.25 10.5 24.25C9.80964 24.25 9.25 24.8096 9.25 25.5C9.25 26.1904 9.80964 26.75 10.5 26.75Z" fill="#1C1C1E"/>
<path d="M2.5 26.75C3.19036 26.75 3.75 26.1904 3.75 25.5C3.75 24.8096 3.19036 24.25 2.5 24.25C1.80964 24.25 1.25 24.8096 1.25 25.5C1.25 26.1904 1.80964 26.75 2.5 26.75Z" fill="#1C1C1E"/>
<path d="M6.5 22.75C7.19036 22.75 7.75 22.1904 7.75 21.5C7.75 20.8096 7.19036 20.25 6.5 20.25C5.80964 20.25 5.25 20.8096 5.25 21.5C5.25 22.1904 5.80964 22.75 6.5 22.75Z" fill="#1C1C1E"/>
<path d="M30.9997 5H26.9997L22.9997 9M22.9997 9L20.2385 25.1637C20.2081 25.3448 20.1285 25.5139 20.0084 25.6527C19.8883 25.7915 19.7323 25.8946 19.5575 25.9506C19.3827 26.0066 19.1959 26.0135 19.0174 25.9704C18.839 25.9273 18.6759 25.8359 18.546 25.7062L6.29597 13.4563C6.16634 13.3263 6.07496 13.1632 6.03186 12.9848C5.98877 12.8064 5.9956 12.6195 6.05163 12.4447C6.10765 12.2699 6.21071 12.1139 6.34949 11.9938C6.48828 11.8737 6.65745 11.7941 6.83847 11.7638L22.9997 9Z" stroke="#1C1C1E" stroke-width="1.5" stroke-linecap="round" stroke-linejoin="round"/>
</svg>
