<svg width="32" height="32" viewBox="0 0 32 32" fill="none" xmlns="http://www.w3.org/2000/svg">
<path d="M7 5V27" stroke="#1C1C1E" stroke-width="1.5" stroke-linecap="round" stroke-linejoin="round"/>
<path d="M24.9996 5.985V26.015C24.9959 26.1911 24.9459 26.3632 24.8544 26.5137C24.7629 26.6643 24.6333 26.788 24.4787 26.8724C24.324 26.9567 24.1498 26.9988 23.9737 26.9942C23.7976 26.9896 23.6258 26.9386 23.4758 26.8463L7.46205 16.8312C7.32072 16.7434 7.20413 16.621 7.12328 16.4755C7.04243 16.3301 7 16.1664 7 16C7 15.8336 7.04243 15.6699 7.12328 15.5245C7.20413 15.379 7.32072 15.2566 7.46205 15.1687L23.4758 5.15375C23.6258 5.06145 23.7976 5.01042 23.9737 5.00583C24.1498 5.00124 24.324 5.04326 24.4787 5.12763C24.6333 5.21199 24.7629 5.33571 24.8544 5.48627C24.9459 5.63683 24.9959 5.80887 24.9996 5.985Z" stroke="#1C1C1E" stroke-width="1.5" stroke-linecap="round" stroke-linejoin="round"/>
</svg>
