<svg width="32" height="32" viewBox="0 0 32 32" fill="none" xmlns="http://www.w3.org/2000/svg">
<path d="M11.5 18.75C12.1904 18.75 12.75 18.1904 12.75 17.5C12.75 16.8096 12.1904 16.25 11.5 16.25C10.8096 16.25 10.25 16.8096 10.25 17.5C10.25 18.1904 10.8096 18.75 11.5 18.75Z" fill="#1C1C1E"/>
<path d="M20.5 18.75C21.1904 18.75 21.75 18.1904 21.75 17.5C21.75 16.8096 21.1904 16.25 20.5 16.25C19.8096 16.25 19.25 16.8096 19.25 17.5C19.25 18.1904 19.8096 18.75 20.5 18.75Z" fill="#1C1C1E"/>
<path d="M16 28C22.6274 28 28 22.6274 28 16C28 9.37258 22.6274 4 16 4C9.37258 4 4 9.37258 4 16C4 22.6274 9.37258 28 16 28Z" stroke="#1C1C1E" stroke-width="1.5" stroke-linecap="round" stroke-linejoin="round"/>
<path d="M10 11L16 15L22 11" stroke="#1C1C1E" stroke-width="1.5" stroke-linecap="round" stroke-linejoin="round"/>
<path d="M13 23C13.95 22.3687 14.7737 22 16 22C17.2263 22 18.05 22.3687 19 23" stroke="#1C1C1E" stroke-width="1.5" stroke-linecap="round" stroke-linejoin="round"/>
</svg>
