<svg width="32" height="32" viewBox="0 0 32 32" fill="none" xmlns="http://www.w3.org/2000/svg">
<path d="M19.5278 27.4735C16.9699 28.258 14.2231 28.1642 11.7246 27.2071C9.22613 26.25 7.11968 24.4846 5.74058 22.1919C4.36149 19.8992 3.78903 17.211 4.11435 14.5553C4.43968 11.8997 5.64407 9.42916 7.5358 7.53713C9.42753 5.64511 11.8978 4.44032 14.5535 4.11458C17.2091 3.78884 19.8973 4.36088 22.1902 5.73961C24.4832 7.11834 26.2489 9.22452 27.2065 11.7228C28.164 14.2211 28.2582 16.968 27.4741 19.526L19.5278 27.4735Z" stroke="#1C1C1E" stroke-width="1.5" stroke-linecap="round" stroke-linejoin="round"/>
<path d="M11.5 14.75C12.1904 14.75 12.75 14.1904 12.75 13.5C12.75 12.8096 12.1904 12.25 11.5 12.25C10.8096 12.25 10.25 12.8096 10.25 13.5C10.25 14.1904 10.8096 14.75 11.5 14.75Z" fill="#1C1C1E"/>
<path d="M20.5 14.75C21.1904 14.75 21.75 14.1904 21.75 13.5C21.75 12.8096 21.1904 12.25 20.5 12.25C19.8096 12.25 19.25 12.8096 19.25 13.5C19.25 14.1904 19.8096 14.75 20.5 14.75Z" fill="#1C1C1E"/>
<path d="M21 19C19.9625 20.7938 18.2213 22 16 22C13.7787 22 12.0375 20.7938 11 19" stroke="#1C1C1E" stroke-width="1.5" stroke-linecap="round" stroke-linejoin="round"/>
</svg>
