<svg width="32" height="32" viewBox="0 0 32 32" fill="none" xmlns="http://www.w3.org/2000/svg">
<path d="M4 24.0004C4 24.2656 4.10536 24.52 4.2929 24.7075C4.48043 24.8951 4.73479 25.0004 5 25.0004H30C30.2652 25.0004 30.5196 24.8951 30.7071 24.7075C30.8946 24.52 31 24.2656 31 24.0004V20.8829C30.9998 20.0436 30.7356 19.2255 30.2447 18.5447C29.7539 17.8638 29.0613 17.3546 28.265 17.0892L20.6738 14.5579C20.1465 14.3821 19.6616 14.0984 19.2501 13.7247C18.8386 13.3511 18.5095 12.8958 18.2838 12.3879L15.375 5.59417C15.2722 5.36407 15.0864 5.18125 14.8546 5.08229C14.6229 4.98332 14.3623 4.97551 14.125 5.06042L4.65875 8.50042C4.46532 8.57065 4.29825 8.69884 4.18036 8.86752C4.06247 9.03619 3.99948 9.23713 4 9.44292V24.0004Z" stroke="#1C1C1E" stroke-width="1.5" stroke-linecap="round" stroke-linejoin="round"/>
<path d="M4 21H31" stroke="#1C1C1E" stroke-width="1.5" stroke-linecap="round" stroke-linejoin="round"/>
<path d="M15 13L18.0688 11.8838" stroke="#1C1C1E" stroke-width="1.5" stroke-linecap="round" stroke-linejoin="round"/>
<path d="M13 10.0004L16.6887 8.65918" stroke="#1C1C1E" stroke-width="1.5" stroke-linecap="round" stroke-linejoin="round"/>
<path d="M17 15.9996L20.8263 14.6084" stroke="#1C1C1E" stroke-width="1.5" stroke-linecap="round" stroke-linejoin="round"/>
</svg>
