<svg width="32" height="32" viewBox="0 0 32 32" fill="none" xmlns="http://www.w3.org/2000/svg">
<path d="M15 20L27 8" stroke="#1C1C1E" stroke-width="1.5" stroke-linecap="round" stroke-linejoin="round"/>
<path d="M7.055 19.9999C7.01837 19.6678 7.00001 19.334 7 18.9999C7.00121 17.5716 7.34207 16.164 7.99444 14.8934C8.64681 13.6228 9.59199 12.5255 10.752 11.6921C11.912 10.8588 13.2535 10.3132 14.6659 10.1005C16.0783 9.88774 17.521 10.0139 18.875 10.4686" stroke="#1C1C1E" stroke-width="1.5" stroke-linecap="round" stroke-linejoin="round"/>
<path d="M27.578 13.0795C28.3798 14.6528 28.854 16.3724 28.9717 18.1343C29.0894 19.8962 28.8483 21.6636 28.263 23.3295C28.1946 23.5259 28.0667 23.6961 27.8971 23.8164C27.7275 23.9367 27.5247 24.0012 27.3167 24.0008H4.68297C4.47465 23.9999 4.27174 23.9344 4.10225 23.8132C3.93276 23.6921 3.80504 23.5213 3.73672 23.3245C3.23676 21.9029 2.98763 20.4052 3.00047 18.8983C3.05547 11.7495 8.96672 5.93579 16.1255 5.99954C18.1432 6.01574 20.1292 6.50283 21.9255 7.42204" stroke="#1C1C1E" stroke-width="1.5" stroke-linecap="round" stroke-linejoin="round"/>
</svg>
