<svg width="32" height="32" viewBox="0 0 32 32" fill="none" xmlns="http://www.w3.org/2000/svg">
<path d="M28 14.1438L28.6325 13.5988C28.7881 13.4626 28.9004 13.2837 28.9554 13.0844C29.0104 12.885 29.0058 12.6739 28.9421 12.4772C28.8784 12.2804 28.7584 12.1067 28.5969 11.9774C28.4355 11.8482 28.2397 11.7691 28.0338 11.75L27 11.6613" stroke="#1C1C1E" stroke-width="1.5" stroke-linecap="round" stroke-linejoin="round"/>
<path d="M23.0546 21L22.5459 18.8475L23.9996 17.5938" stroke="#1C1C1E" stroke-width="1.5" stroke-linecap="round" stroke-linejoin="round"/>
<path d="M16 23.6362V3" stroke="#1C1C1E" stroke-width="1.5" stroke-linecap="round" stroke-linejoin="round"/>
<path d="M22 27.3263L22.84 27.8425C23.0175 27.9502 23.2229 28.0029 23.4303 27.994C23.6377 27.985 23.8378 27.9147 24.0053 27.792C24.1728 27.6694 24.3002 27.4998 24.3713 27.3047C24.4424 27.1097 24.4542 26.898 24.405 26.6963L24.24 26" stroke="#1C1C1E" stroke-width="1.5" stroke-linecap="round" stroke-linejoin="round"/>
<path d="M21.9997 11.2588L20.0447 11.1L16.9672 3.65001C16.8888 3.45781 16.7548 3.29333 16.5825 3.17755C16.4102 3.06177 16.2073 2.99994 15.9997 2.99994C15.7921 2.99994 15.5892 3.06177 15.4169 3.17755C15.2446 3.29333 15.1107 3.45781 15.0322 3.65001L11.9547 11.1L3.96598 11.75C3.75894 11.7682 3.56184 11.847 3.39932 11.9765C3.23679 12.1061 3.11605 12.2806 3.05217 12.4784C2.98828 12.6762 2.9841 12.8884 3.04014 13.0886C3.09617 13.2887 3.20994 13.4679 3.36723 13.6038L9.45473 18.8538L7.59473 26.6963C7.54556 26.898 7.55728 27.1097 7.62843 27.3048C7.69957 27.4998 7.82693 27.6694 7.99442 27.792C8.16191 27.9147 8.36201 27.985 8.56942 27.994C8.77684 28.003 8.98226 27.9502 9.15973 27.8425L15.9997 23.6363L17.4047 24.5" stroke="#1C1C1E" stroke-width="1.5" stroke-linecap="round" stroke-linejoin="round"/>
</svg>
