<svg width="32" height="32" viewBox="0 0 32 32" fill="none" xmlns="http://www.w3.org/2000/svg">
<path d="M15.9997 23.6362L22.8397 27.8425C23.0172 27.9502 23.2226 28.0029 23.43 27.994C23.6375 27.985 23.8376 27.9147 24.005 27.792C24.1725 27.6694 24.2999 27.4998 24.371 27.3047C24.4422 27.1097 24.4539 26.8979 24.4047 26.6962L22.5447 18.8475L28.6322 13.5975C28.7874 13.4612 28.8993 13.2825 28.9541 13.0833C29.0089 12.8841 29.0042 12.6733 28.9405 12.4768C28.8768 12.2803 28.757 12.1068 28.5958 11.9776C28.4346 11.8485 28.2391 11.7693 28.0335 11.75L20.0447 11.1L16.9672 3.65C16.8888 3.45779 16.7548 3.29331 16.5825 3.17754C16.4102 3.06176 16.2073 2.99992 15.9997 2.99992C15.7921 2.99992 15.5892 3.06176 15.4169 3.17754C15.2446 3.29331 15.1107 3.45779 15.0322 3.65L11.9547 11.1L3.96598 11.75C3.75894 11.7682 3.56184 11.847 3.39932 11.9765C3.23679 12.1061 3.11605 12.2806 3.05217 12.4784C2.98828 12.6762 2.9841 12.8884 3.04014 13.0886C3.09617 13.2887 3.20994 13.4679 3.36723 13.6037L9.45473 18.8537L7.59473 26.6962C7.54556 26.8979 7.55728 27.1097 7.62843 27.3047C7.69957 27.4998 7.82693 27.6694 7.99442 27.792C8.16191 27.9147 8.36201 27.985 8.56942 27.994C8.77684 28.0029 8.98226 27.9502 9.15973 27.8425L15.9997 23.6362Z" stroke="#1C1C1E" stroke-width="1.5" stroke-linecap="round" stroke-linejoin="round"/>
</svg>
