<svg width="32" height="32" viewBox="0 0 32 32" fill="none" xmlns="http://www.w3.org/2000/svg">
<path d="M18.9999 25.8C17.1929 24.8788 15.6758 23.476 14.6162 21.7465C13.5567 20.017 12.9959 18.0282 12.9959 16C12.9959 13.9718 13.5567 11.983 14.6162 10.2535C15.6758 8.52405 17.1929 7.12119 18.9999 6.2C17.323 5.3451 15.4547 4.93482 13.5738 5.00841C11.693 5.08201 9.86245 5.63702 8.25743 6.62034C6.6524 7.60367 5.32656 8.98241 4.40674 10.6247C3.48692 12.2669 3.00391 14.1177 3.00391 16C3.00391 17.8823 3.48692 19.7331 4.40674 21.3754C5.32656 23.0176 6.6524 24.3963 8.25743 25.3797C9.86245 26.363 11.693 26.918 13.5738 26.9916C15.4547 27.0652 17.323 26.6549 18.9999 25.8Z" stroke="#1C1C1E" stroke-width="1.5" stroke-linecap="round" stroke-linejoin="round"/>
<path d="M22.1825 16L20 12.2913L24.0737 13.3L26.7987 10L27.1325 14.3313L31 16L27.1325 17.6688L26.7987 22L24.0737 18.7L20 19.7087L22.1825 16Z" stroke="#1C1C1E" stroke-width="1.5" stroke-linecap="round" stroke-linejoin="round"/>
</svg>
