<svg width="32" height="32" viewBox="0 0 32 32" fill="none" xmlns="http://www.w3.org/2000/svg">
<path d="M16 18.75C16.6904 18.75 17.25 18.1904 17.25 17.5C17.25 16.8096 16.6904 16.25 16 16.25C15.3096 16.25 14.75 16.8096 14.75 17.5C14.75 18.1904 15.3096 18.75 16 18.75Z" fill="#1C1C1E"/>
<path d="M16 28C22.6274 28 28 22.6274 28 16C28 9.37258 22.6274 4 16 4C9.37258 4 4 9.37258 4 16C4 22.6274 9.37258 28 16 28Z" stroke="#1C1C1E" stroke-width="1.5" stroke-linecap="round" stroke-linejoin="round"/>
<path d="M4.2002 18.1937C5.69919 16.5568 7.52237 15.2496 9.55383 14.3553C11.5853 13.4611 13.7806 12.9993 16.0002 12.9993C18.2198 12.9993 20.4151 13.4611 22.4466 14.3553C24.478 15.2496 26.3012 16.5568 27.8002 18.1937" stroke="#1C1C1E" stroke-width="1.5" stroke-linecap="round" stroke-linejoin="round"/>
<path d="M14.9754 27.9562L12.2429 20.65C12.1716 20.4592 12.0437 20.2947 11.8764 20.1786C11.7091 20.0624 11.5103 20.0001 11.3066 20H4.68164" stroke="#1C1C1E" stroke-width="1.5" stroke-linecap="round" stroke-linejoin="round"/>
<path d="M17.0186 27.9575L19.7561 20.6488C19.8276 20.458 19.9558 20.2936 20.1233 20.1777C20.2908 20.0617 20.4898 19.9998 20.6936 20H27.3186" stroke="#1C1C1E" stroke-width="1.5" stroke-linecap="round" stroke-linejoin="round"/>
</svg>
