<svg width="32" height="32" viewBox="0 0 32 32" fill="none" xmlns="http://www.w3.org/2000/svg">
<path d="M26 21.25C26.6904 21.25 27.25 20.6904 27.25 20C27.25 19.3096 26.6904 18.75 26 18.75C25.3096 18.75 24.75 19.3096 24.75 20C24.75 20.6904 25.3096 21.25 26 21.25Z" fill="#1C1C1E"/>
<path d="M26 24C28.2091 24 30 22.2091 30 20C30 17.7909 28.2091 16 26 16C23.7909 16 22 17.7909 22 20C22 22.2091 23.7909 24 26 24Z" stroke="#1C1C1E" stroke-width="1.5" stroke-linecap="round" stroke-linejoin="round"/>
<path d="M13 18V24C13 25.3261 13.5268 26.5979 14.4645 27.5355C15.4021 28.4732 16.6739 29 18 29H21C22.3261 29 23.5979 28.4732 24.5355 27.5355C25.4732 26.5979 26 25.3261 26 24" stroke="#1C1C1E" stroke-width="1.5" stroke-linecap="round" stroke-linejoin="round"/>
<path d="M17 5H20V10.8962C20 14.7425 16.94 17.95 13.0925 18C12.1655 18.0123 11.2453 17.8402 10.3853 17.4939C9.52532 17.1476 8.74269 16.634 8.08285 15.9827C7.42301 15.3315 6.8991 14.5557 6.54155 13.7003C6.184 12.845 5.99992 11.9271 6 11V5H9" stroke="#1C1C1E" stroke-width="1.5" stroke-linecap="round" stroke-linejoin="round"/>
</svg>
