<svg width="32" height="32" viewBox="0 0 32 32" fill="none" xmlns="http://www.w3.org/2000/svg">
<path d="M30 20H2" stroke="#1C1C1E" stroke-width="1.5" stroke-linecap="round" stroke-linejoin="round"/>
<path d="M26 25H6" stroke="#1C1C1E" stroke-width="1.5" stroke-linecap="round" stroke-linejoin="round"/>
<path d="M8.25 20.0001C7.9475 18.8186 7.91912 17.5836 8.16704 16.3895C8.41495 15.1954 8.9326 14.0738 9.68041 13.1104C10.4282 12.147 11.3864 11.3673 12.4817 10.8309C13.577 10.2946 14.7804 10.0157 16 10.0157C17.2196 10.0157 18.423 10.2946 19.5183 10.8309C20.6136 11.3673 21.5718 12.147 22.3196 13.1104C23.0674 14.0738 23.585 15.1954 23.833 16.3895C24.0809 17.5836 24.0525 18.8186 23.75 20.0001" stroke="#1C1C1E" stroke-width="1.5" stroke-linecap="round" stroke-linejoin="round"/>
<path d="M10 5L11 7" stroke="#1C1C1E" stroke-width="1.5" stroke-linecap="round" stroke-linejoin="round"/>
<path d="M3 12L5 13" stroke="#1C1C1E" stroke-width="1.5" stroke-linecap="round" stroke-linejoin="round"/>
<path d="M29 12L27 13" stroke="#1C1C1E" stroke-width="1.5" stroke-linecap="round" stroke-linejoin="round"/>
<path d="M22 5L21 7" stroke="#1C1C1E" stroke-width="1.5" stroke-linecap="round" stroke-linejoin="round"/>
</svg>
