<svg width="32" height="32" viewBox="0 0 32 32" fill="none" xmlns="http://www.w3.org/2000/svg">
<path d="M8.50016 20.5L4.29266 24.7075C4.10527 24.895 4 25.1493 4 25.4144C4 25.6795 4.10527 25.9337 4.29266 26.1213L5.87516 27.7075C5.96803 27.8005 6.07832 27.8742 6.19972 27.9246C6.32112 27.9749 6.45125 28.0008 6.58266 28.0008C6.71408 28.0008 6.8442 27.9749 6.9656 27.9246C7.087 27.8742 7.19729 27.8005 7.29016 27.7075L11.5002 23.5" stroke="#1C1C1E" stroke-width="1.5" stroke-linecap="round" stroke-linejoin="round"/>
<path d="M6.87864 14.2936L5.29295 15.8793C4.90194 16.2703 4.90194 16.9042 5.29295 17.2953L14.7037 26.706C15.0947 27.097 15.7286 27.097 16.1196 26.706L17.7053 25.1203C18.0963 24.7293 18.0963 24.0953 17.7053 23.7043L8.29462 14.2936C7.90361 13.9026 7.26965 13.9026 6.87864 14.2936Z" stroke="#1C1C1E" stroke-width="1.5" stroke-linecap="round" stroke-linejoin="round"/>
<path d="M20 12L13 19" stroke="#1C1C1E" stroke-width="1.5" stroke-linecap="round" stroke-linejoin="round"/>
<path d="M10.3047 16.3037L18.9997 5H26.9997V13L15.6959 21.695" stroke="#1C1C1E" stroke-width="1.5" stroke-linecap="round" stroke-linejoin="round"/>
</svg>
