<svg width="32" height="32" viewBox="0 0 32 32" fill="none" xmlns="http://www.w3.org/2000/svg">
<path d="M7 10H13L9.5 15C10.077 15.0001 10.6451 15.1428 11.1536 15.4155C11.6622 15.6883 12.0954 16.0825 12.4147 16.5631C12.734 17.0437 12.9296 17.5958 12.9839 18.1703C13.0383 18.7448 12.9498 19.3238 12.7262 19.8558C12.5027 20.3878 12.1511 20.8562 11.7028 21.2195C11.2544 21.5827 10.7232 21.8295 10.1564 21.9378C9.58964 22.0461 9.00488 22.0126 8.45417 21.8403C7.90347 21.6679 7.40393 21.3621 7 20.95" stroke="#1C1C1E" stroke-width="1.5" stroke-linecap="round" stroke-linejoin="round"/>
<path d="M17 22H20C21.5913 22 23.1174 21.3679 24.2426 20.2426C25.3679 19.1174 26 17.5913 26 16C26 14.4087 25.3679 12.8826 24.2426 11.7574C23.1174 10.6321 21.5913 10 20 10H17V22Z" stroke="#1C1C1E" stroke-width="1.5" stroke-linecap="round" stroke-linejoin="round"/>
<path d="M4 6H28" stroke="#1C1C1E" stroke-width="1.5" stroke-linecap="round" stroke-linejoin="round"/>
<path d="M4 26H28" stroke="#1C1C1E" stroke-width="1.5" stroke-linecap="round" stroke-linejoin="round"/>
</svg>
