<svg width="32" height="32" viewBox="0 0 32 32" fill="none" xmlns="http://www.w3.org/2000/svg">
<path d="M4 6H10V19H4C3.73478 19 3.48043 18.8946 3.29289 18.7071C3.10536 18.5196 3 18.2652 3 18V7C3 6.73478 3.10536 6.48043 3.29289 6.29289C3.48043 6.10536 3.73478 6 4 6Z" stroke="#1C1C1E" stroke-width="1.5" stroke-linecap="round" stroke-linejoin="round"/>
<path d="M10 19L15 29C16.0609 29 17.0783 28.5786 17.8284 27.8284C18.5786 27.0783 19 26.0609 19 25V22H27C27.2837 21.9999 27.5641 21.9395 27.8227 21.8227C28.0813 21.7059 28.312 21.5355 28.4996 21.3227C28.6872 21.1099 28.8274 20.8596 28.9109 20.5884C28.9944 20.3173 29.0192 20.0315 28.9837 19.75L27.4837 7.75C27.4229 7.26678 27.1878 6.82238 26.8225 6.50019C26.4573 6.17799 25.987 6.00014 25.5 6H10" stroke="#1C1C1E" stroke-width="1.5" stroke-linecap="round" stroke-linejoin="round"/>
</svg>
