<svg width="32" height="32" viewBox="0 0 32 32" fill="none" xmlns="http://www.w3.org/2000/svg">
<path d="M8 14V5C8 4.73478 8.10536 4.48043 8.29289 4.29289C8.48043 4.10536 8.73478 4 9 4H23C23.2652 4 23.5196 4.10536 23.7071 4.29289C23.8946 4.48043 24 4.73478 24 5V14" stroke="#1C1C1E" stroke-width="1.5" stroke-linecap="round" stroke-linejoin="round"/>
<path d="M12 8H14" stroke="#1C1C1E" stroke-width="1.5" stroke-linecap="round" stroke-linejoin="round"/>
<path d="M27 14C27 16.9174 25.8411 19.7153 23.7782 21.7782C21.7153 23.8411 18.9174 25 16 25C13.0826 25 10.2847 23.8411 8.22183 21.7782C6.15893 19.7153 5 16.9174 5 14H27Z" stroke="#1C1C1E" stroke-width="1.5" stroke-linecap="round" stroke-linejoin="round"/>
<path d="M11.5525 24.0635L11.01 27.8585C10.9898 28.0003 11.0003 28.1448 11.0407 28.2822C11.0812 28.4197 11.1507 28.5468 11.2446 28.655C11.3385 28.7632 11.4545 28.85 11.5848 28.9095C11.7152 28.969 11.8568 28.9997 12 28.9997H20C20.1433 28.9997 20.2849 28.969 20.4152 28.9095C20.5455 28.85 20.6616 28.7632 20.7554 28.655C20.8493 28.5468 20.9188 28.4197 20.9593 28.2822C20.9998 28.1448 21.0103 28.0003 20.99 27.8585L20.4475 24.0635" stroke="#1C1C1E" stroke-width="1.5" stroke-linecap="round" stroke-linejoin="round"/>
</svg>
