<svg width="32" height="32" viewBox="0 0 32 32" fill="none" xmlns="http://www.w3.org/2000/svg">
<path d="M26.5 27C28.433 27 30 25.433 30 23.5C30 21.567 28.433 20 26.5 20C24.567 20 23 21.567 23 23.5C23 25.433 24.567 27 26.5 27Z" stroke="#1C1C1E" stroke-width="1.5" stroke-linecap="round" stroke-linejoin="round"/>
<path d="M8.5 27C11.5376 27 14 24.5376 14 21.5C14 18.4624 11.5376 16 8.5 16C5.46243 16 3 18.4624 3 21.5C3 24.5376 5.46243 27 8.5 27Z" stroke="#1C1C1E" stroke-width="1.5" stroke-linecap="round" stroke-linejoin="round"/>
<path d="M8.5 22.75C9.19036 22.75 9.75 22.1904 9.75 21.5C9.75 20.8096 9.19036 20.25 8.5 20.25C7.80964 20.25 7.25 20.8096 7.25 21.5C7.25 22.1904 7.80964 22.75 8.5 22.75Z" fill="#1C1C1E"/>
<path d="M29 21V16.75C28.9999 16.535 28.9306 16.3258 28.8023 16.1533C28.6739 15.9808 28.4934 15.8543 28.2875 15.7925L18 13V6H7V12" stroke="#1C1C1E" stroke-width="1.5" stroke-linecap="round" stroke-linejoin="round"/>
<path d="M5 6H7" stroke="#1C1C1E" stroke-width="1.5" stroke-linecap="round" stroke-linejoin="round"/>
<path d="M18 6H20" stroke="#1C1C1E" stroke-width="1.5" stroke-linecap="round" stroke-linejoin="round"/>
<path d="M5 12H8.5C11.0196 12 13.4359 13.0009 15.2175 14.7825C16.9991 16.5641 18 18.9804 18 21.5V23H23.035" stroke="#1C1C1E" stroke-width="1.5" stroke-linecap="round" stroke-linejoin="round"/>
<path d="M18 13V23" stroke="#1C1C1E" stroke-width="1.5" stroke-linecap="round" stroke-linejoin="round"/>
<path d="M23 14.3538V9" stroke="#1C1C1E" stroke-width="1.5" stroke-linecap="round" stroke-linejoin="round"/>
</svg>
