<svg width="32" height="32" viewBox="0 0 32 32" fill="none" xmlns="http://www.w3.org/2000/svg">
<path d="M12 26L9 30" stroke="#1C1C1E" stroke-width="1.5" stroke-linecap="round" stroke-linejoin="round"/>
<path d="M20 26L23 30" stroke="#1C1C1E" stroke-width="1.5" stroke-linecap="round" stroke-linejoin="round"/>
<path d="M6 16H26" stroke="#1C1C1E" stroke-width="1.5" stroke-linecap="round" stroke-linejoin="round"/>
<path d="M23 7H9C7.34315 7 6 8.34315 6 10V23C6 24.6569 7.34315 26 9 26H23C24.6569 26 26 24.6569 26 23V10C26 8.34315 24.6569 7 23 7Z" stroke="#1C1C1E" stroke-width="1.5" stroke-linecap="round" stroke-linejoin="round"/>
<path d="M16 2V7" stroke="#1C1C1E" stroke-width="1.5" stroke-linecap="round" stroke-linejoin="round"/>
<path d="M10.5 22.75C11.1904 22.75 11.75 22.1904 11.75 21.5C11.75 20.8096 11.1904 20.25 10.5 20.25C9.80964 20.25 9.25 20.8096 9.25 21.5C9.25 22.1904 9.80964 22.75 10.5 22.75Z" fill="#1C1C1E"/>
<path d="M21.5 22.75C22.1904 22.75 22.75 22.1904 22.75 21.5C22.75 20.8096 22.1904 20.25 21.5 20.25C20.8096 20.25 20.25 20.8096 20.25 21.5C20.25 22.1904 20.8096 22.75 21.5 22.75Z" fill="#1C1C1E"/>
<path d="M11 2H21" stroke="#1C1C1E" stroke-width="1.5" stroke-linecap="round" stroke-linejoin="round"/>
</svg>
