<svg width="32" height="32" viewBox="0 0 32 32" fill="none" xmlns="http://www.w3.org/2000/svg">
<path d="M16 29V11" stroke="#1C1C1E" stroke-width="1.5" stroke-linecap="round" stroke-linejoin="round"/>
<path d="M16 19L10 16" stroke="#1C1C1E" stroke-width="1.5" stroke-linecap="round" stroke-linejoin="round"/>
<path d="M16 16L22 13" stroke="#1C1C1E" stroke-width="1.5" stroke-linecap="round" stroke-linejoin="round"/>
<path d="M16 22.2425C17.4734 23.4249 19.3191 24.0452 21.2075 23.9925C25.4488 23.885 29.0113 20.215 29 15.9725C28.9955 14.3798 28.5157 12.8247 27.622 11.5064C26.7284 10.1881 25.4615 9.16649 23.9838 8.57248C23.3857 6.93576 22.2991 5.52239 20.8711 4.52379C19.443 3.52519 17.7426 2.98962 16 2.98962C14.2575 2.98962 12.557 3.52519 11.129 4.52379C9.70093 5.52239 8.61431 6.93576 8.01628 8.57248C6.53773 9.16681 5.27036 10.1892 4.37664 11.5085C3.48292 12.8278 3.00356 14.384 3.00003 15.9775C2.98878 20.22 6.55253 23.89 10.7938 23.9975C12.6824 24.0486 14.5277 23.4265 16 22.2425Z" stroke="#1C1C1E" stroke-width="1.5" stroke-linecap="round" stroke-linejoin="round"/>
</svg>
