<svg width="32" height="32" viewBox="0 0 32 32" fill="none" xmlns="http://www.w3.org/2000/svg">
<path d="M9 29.75C9.9665 29.75 10.75 28.9665 10.75 28C10.75 27.0335 9.9665 26.25 9 26.25C8.0335 26.25 7.25 27.0335 7.25 28C7.25 28.9665 8.0335 29.75 9 29.75Z" fill="#1C1C1E"/>
<path d="M27 29.75C27.9665 29.75 28.75 28.9665 28.75 28C28.75 27.0335 27.9665 26.25 27 26.25C26.0335 26.25 25.25 27.0335 25.25 28C25.25 28.9665 26.0335 29.75 27 29.75Z" fill="#1C1C1E"/>
<path d="M3 6L5.7075 8.7075C5.89468 8.89489 5.99988 9.14889 6 9.41375V23" stroke="#1C1C1E" stroke-width="1.5" stroke-linecap="round" stroke-linejoin="round"/>
<path d="M4 23H30" stroke="#1C1C1E" stroke-width="1.5" stroke-linecap="round" stroke-linejoin="round"/>
</svg>
