<svg width="32" height="32" viewBox="0 0 32 32" fill="none" xmlns="http://www.w3.org/2000/svg">
<path d="M28 26C29.6569 26 31 24.6569 31 23C31 21.3431 29.6569 20 28 20C26.3431 20 25 21.3431 25 23C25 24.6569 26.3431 26 28 26Z" stroke="#1C1C1E" stroke-width="1.5" stroke-linecap="round" stroke-linejoin="round"/>
<path d="M4 26C5.65685 26 7 24.6569 7 23C7 21.3431 5.65685 20 4 20C2.34315 20 1 21.3431 1 23C1 24.6569 2.34315 26 4 26Z" stroke="#1C1C1E" stroke-width="1.5" stroke-linecap="round" stroke-linejoin="round"/>
<path d="M10 26C11.6569 26 13 24.6569 13 23C13 21.3431 11.6569 20 10 20C8.34315 20 7 21.3431 7 23C7 24.6569 8.34315 26 10 26Z" stroke="#1C1C1E" stroke-width="1.5" stroke-linecap="round" stroke-linejoin="round"/>
<path d="M25 23H13" stroke="#1C1C1E" stroke-width="1.5" stroke-linecap="round" stroke-linejoin="round"/>
<path d="M19 23V7C19 6.73478 19.1054 6.48043 19.2929 6.29289C19.4804 6.10536 19.7348 6 20 6H21C22.5913 6 24.1174 6.63214 25.2426 7.75736C26.3679 8.88258 27 10.4087 27 12V13C28.0609 13 29.0783 13.4214 29.8284 14.1716C30.5786 14.9217 31 15.9391 31 17V23" stroke="#1C1C1E" stroke-width="1.5" stroke-linecap="round" stroke-linejoin="round"/>
<path d="M15 23V9H2C1.73478 9 1.48043 9.10536 1.29289 9.29289C1.10536 9.48043 1 9.73478 1 10V23" stroke="#1C1C1E" stroke-width="1.5" stroke-linecap="round" stroke-linejoin="round"/>
</svg>
