<svg width="32" height="32" viewBox="0 0 32 32" fill="none" xmlns="http://www.w3.org/2000/svg">
<path d="M16 20C18.7614 20 21 17.7614 21 15C21 12.2386 18.7614 10 16 10C13.2386 10 11 12.2386 11 15C11 17.7614 13.2386 20 16 20Z" stroke="#1C1C1E" stroke-width="1.5" stroke-linecap="round" stroke-linejoin="round"/>
<path d="M13 4.37526C14.9674 3.8645 17.0326 3.8645 19 4.37526" stroke="#1C1C1E" stroke-width="1.5" stroke-linecap="round" stroke-linejoin="round"/>
<path d="M4.43652 12.7878C4.97822 10.8291 6.0108 9.04098 7.43652 7.59277" stroke="#1C1C1E" stroke-width="1.5" stroke-linecap="round" stroke-linejoin="round"/>
<path d="M19 27.625C17.0326 28.1358 14.9674 28.1358 13 27.625" stroke="#1C1C1E" stroke-width="1.5" stroke-linecap="round" stroke-linejoin="round"/>
<path d="M24.5635 7.59082C25.9896 9.03973 27.0222 10.8287 27.5635 12.7883" stroke="#1C1C1E" stroke-width="1.5" stroke-linecap="round" stroke-linejoin="round"/>
<path d="M27.5646 19.2129C26.9521 21.414 25.724 23.3945 24.0246 24.9216C23.2722 23.4397 22.1241 22.195 20.7076 21.3255C19.2912 20.4561 17.6616 19.9959 15.9996 19.9959C14.3375 19.9959 12.708 20.4561 11.2915 21.3255C9.87502 22.195 8.72696 23.4397 7.97457 24.9216C6.27517 23.3945 5.04705 21.414 4.43457 19.2129" stroke="#1C1C1E" stroke-width="1.5" stroke-linecap="round" stroke-linejoin="round"/>
</svg>
