<svg width="32" height="32" viewBox="0 0 32 32" fill="none" xmlns="http://www.w3.org/2000/svg">
<path d="M16 20C18.7614 20 21 17.7614 21 15C21 12.2386 18.7614 10 16 10C13.2386 10 11 12.2386 11 15C11 17.7614 13.2386 20 16 20Z" stroke="#1C1C1E" stroke-width="1.5" stroke-linecap="round" stroke-linejoin="round"/>
<path d="M7.97461 24.9209C8.727 23.4389 9.87506 22.1942 11.2915 21.3248C12.708 20.4553 14.3376 19.9951 15.9996 19.9951C17.6616 19.9951 19.2912 20.4553 20.7077 21.3248C22.1242 22.1942 23.2722 23.4389 24.0246 24.9209" stroke="#1C1C1E" stroke-width="1.5" stroke-linecap="round" stroke-linejoin="round"/>
<path d="M22 7H28" stroke="#1C1C1E" stroke-width="1.5" stroke-linecap="round" stroke-linejoin="round"/>
<path d="M27.3173 12C28.1929 14.4807 28.2285 17.1805 27.4185 19.6834C26.6085 22.1863 24.9979 24.3533 22.835 25.8506C20.672 27.348 18.0766 28.0925 15.4488 27.9694C12.821 27.8463 10.3066 26.8625 8.29307 25.1696C6.27949 23.4767 4.87851 21.1686 4.30599 18.601C3.73346 16.0333 4.02118 13.3487 5.1248 10.9607C6.22842 8.57272 8.0867 6.61391 10.4133 5.38613C12.7399 4.15835 15.4056 3.72972 17.9998 4.1663" stroke="#1C1C1E" stroke-width="1.5" stroke-linecap="round" stroke-linejoin="round"/>
</svg>
