<svg width="32" height="32" viewBox="0 0 32 32" fill="none" xmlns="http://www.w3.org/2000/svg">
<path d="M16 27C22.0751 27 27 22.0751 27 16C27 9.92487 22.0751 5 16 5C9.92487 5 5 9.92487 5 16C5 22.0751 9.92487 27 16 27Z" stroke="#1C1C1E" stroke-width="1.5" stroke-linecap="round" stroke-linejoin="round"/>
<path d="M13.5 16C14.8807 16 16 14.8807 16 13.5C16 12.1193 14.8807 11 13.5 11C12.1193 11 11 12.1193 11 13.5C11 14.8807 12.1193 16 13.5 16Z" stroke="#1C1C1E" stroke-width="1.5" stroke-linecap="round" stroke-linejoin="round"/>
<path d="M22 17.75C22.9665 17.75 23.75 16.9665 23.75 16C23.75 15.0335 22.9665 14.25 22 14.25C21.0335 14.25 20.25 15.0335 20.25 16C20.25 16.9665 21.0335 17.75 22 17.75Z" fill="#1C1C1E"/>
<path d="M16 23.75C16.9665 23.75 17.75 22.9665 17.75 22C17.75 21.0335 16.9665 20.25 16 20.25C15.0335 20.25 14.25 21.0335 14.25 22C14.25 22.9665 15.0335 23.75 16 23.75Z" fill="#1C1C1E"/>
<path d="M16 2V5" stroke="#1C1C1E" stroke-width="1.5" stroke-linecap="round" stroke-linejoin="round"/>
<path d="M30 16H27" stroke="#1C1C1E" stroke-width="1.5" stroke-linecap="round" stroke-linejoin="round"/>
<path d="M2 16H5" stroke="#1C1C1E" stroke-width="1.5" stroke-linecap="round" stroke-linejoin="round"/>
<path d="M16 27V30" stroke="#1C1C1E" stroke-width="1.5" stroke-linecap="round" stroke-linejoin="round"/>
<path d="M6 6L8.22125 8.22125" stroke="#1C1C1E" stroke-width="1.5" stroke-linecap="round" stroke-linejoin="round"/>
<path d="M23.7783 8.22125L25.9996 6" stroke="#1C1C1E" stroke-width="1.5" stroke-linecap="round" stroke-linejoin="round"/>
<path d="M25.9996 26.0001L23.7783 23.7788" stroke="#1C1C1E" stroke-width="1.5" stroke-linecap="round" stroke-linejoin="round"/>
<path d="M6 26.0001L8.22125 23.7788" stroke="#1C1C1E" stroke-width="1.5" stroke-linecap="round" stroke-linejoin="round"/>
</svg>
