<svg width="32" height="32" viewBox="0 0 32 32" fill="none" xmlns="http://www.w3.org/2000/svg">
<path d="M14.0997 21.6813C12.6234 22.905 10.7009 24.0888 8.61345 23.9913C6.52531 23.8936 4.55835 22.9824 3.13352 21.4528C1.70868 19.9232 0.939163 17.8966 0.98964 15.8068C1.04012 13.717 1.90658 11.73 3.4036 10.2709C4.90063 8.81189 6.90928 7.99677 8.9997 8.00001H22.8809C27.2772 8.00001 30.9422 11.5 30.9984 15.8938C31.0125 16.9531 30.816 18.0048 30.4204 18.9876C30.0247 19.9704 29.4378 20.8648 28.6936 21.619C27.9495 22.3731 27.063 22.9719 26.0855 23.3807C25.1081 23.7894 24.0592 23.9999 22.9997 24C21.0647 24 19.2897 22.8313 17.9059 21.6875C17.3711 21.2443 16.6986 21.0013 16.0039 21.0001C15.3093 20.999 14.636 21.2398 14.0997 21.6813Z" stroke="#1C1C1E" stroke-width="1.5" stroke-linecap="round" stroke-linejoin="round"/>
<path d="M10 12H22" stroke="#1C1C1E" stroke-width="1.5" stroke-linecap="round" stroke-linejoin="round"/>
</svg>
