<svg width="32" height="32" viewBox="0 0 32 32" fill="none" xmlns="http://www.w3.org/2000/svg">
<path d="M17.9997 12.5H25.9997C27.0606 12.5 28.078 12.9214 28.8281 13.6716C29.5783 14.4217 29.9997 15.4391 29.9997 16.5V19.5H7.63222C6.77207 19.5 5.93482 19.2228 5.24468 18.7094C4.55453 18.196 4.04826 17.4738 3.80097 16.65L2.04222 10.7875C1.9974 10.6382 1.98811 10.4805 2.01509 10.327C2.04206 10.1734 2.10455 10.0283 2.19758 9.90325C2.2906 9.77816 2.41158 9.67656 2.55085 9.60654C2.69012 9.53653 2.84384 9.50004 2.99972 9.5H3.99972L6.99972 12.5H11.6135L10.0522 7.81625C10.0021 7.66602 9.98845 7.50605 10.0123 7.3495C10.0361 7.19295 10.0968 7.0443 10.1893 6.91578C10.2818 6.78726 10.4035 6.68255 10.5444 6.61026C10.6853 6.53798 10.8414 6.50019 10.9997 6.5H11.9997L17.9997 12.5Z" stroke="#1C1C1E" stroke-width="3" stroke-linecap="round" stroke-linejoin="round"/>
<path d="M26 28C27.3807 28 28.5 26.8807 28.5 25.5C28.5 24.1193 27.3807 23 26 23C24.6193 23 23.5 24.1193 23.5 25.5C23.5 26.8807 24.6193 28 26 28Z" fill="#1C1C1E"/>
<path d="M14 28C15.3807 28 16.5 26.8807 16.5 25.5C16.5 24.1193 15.3807 23 14 23C12.6193 23 11.5 24.1193 11.5 25.5C11.5 26.8807 12.6193 28 14 28Z" fill="#1C1C1E"/>
</svg>
