<svg width="32" height="32" viewBox="0 0 32 32" fill="none" xmlns="http://www.w3.org/2000/svg">
<path d="M3 27H21" stroke="#1C1C1E" stroke-width="3" stroke-linecap="round" stroke-linejoin="round"/>
<path d="M10.9999 14.0639L7.33112 10.5001C7.20632 10.3878 7.11181 10.2459 7.05629 10.0875C7.00077 9.92908 6.98603 9.75922 7.01343 9.59359C7.04082 9.42796 7.10948 9.2719 7.21306 9.13979C7.31664 9.00767 7.45181 8.90376 7.60612 8.83763L8.49987 8.50014L15.6911 11.1464L22.5461 7.05264C23.369 6.5684 24.3379 6.39447 25.2778 6.56227C26.2178 6.73008 27.0666 7.22856 27.6711 7.96764L29.9999 10.9551L11.5736 21.9551C10.8293 22.3885 9.96489 22.5701 9.10907 22.4728C8.25325 22.3755 7.45169 22.0046 6.82362 21.4151L2.31612 17.0001C2.19489 16.8865 2.10389 16.7445 2.05133 16.5868C1.99878 16.4292 1.98634 16.261 2.01512 16.0973C2.0439 15.9337 2.11301 15.7798 2.21619 15.6495C2.31938 15.5193 2.45339 15.4168 2.60612 15.3514L2.99987 15.1589L6.97362 16.5001L10.9999 14.0639Z" stroke="#1C1C1E" stroke-width="3" stroke-linecap="round" stroke-linejoin="round"/>
</svg>
