<svg width="32" height="32" viewBox="0 0 32 32" fill="none" xmlns="http://www.w3.org/2000/svg">
<path d="M13 27H30.5" stroke="#1C1C1E" stroke-width="3" stroke-linecap="round" stroke-linejoin="round"/>
<path d="M29 22.5001L6.92125 16.3176C6.08086 16.0822 5.3405 15.5785 4.81308 14.8831C4.28566 14.1878 4.00012 13.3391 4 12.4663V6.00007C3.99999 5.84161 4.03763 5.68542 4.10983 5.54436C4.18203 5.40331 4.28672 5.28143 4.41527 5.18877C4.54382 5.09612 4.69254 5.03533 4.84919 5.01144C5.00584 4.98754 5.16592 5.00121 5.31625 5.05132L6 5.28007L7.5 9.43257L13 11.0001V6.00007C13 5.84161 13.0376 5.68542 13.1098 5.54436C13.182 5.40331 13.2867 5.28143 13.4153 5.18877C13.5438 5.09612 13.6925 5.03533 13.8492 5.01144C14.0058 4.98754 14.1659 5.00121 14.3162 5.05132L15 5.28007L18 12.4301L26.07 14.6801C26.9135 14.9142 27.6568 15.4186 28.1861 16.1159C28.7153 16.8131 29.0013 17.6647 29 18.5401V22.5001Z" stroke="#1C1C1E" stroke-width="3" stroke-linecap="round" stroke-linejoin="round"/>
</svg>
