<svg width="32" height="32" viewBox="0 0 32 32" fill="none" xmlns="http://www.w3.org/2000/svg">
<path d="M27 14C27 20.075 20 29 16 29C12 29 5 20.075 5 14C5 11.0826 6.15893 8.28473 8.22183 6.22183C10.2847 4.15893 13.0826 3 16 3C18.9174 3 21.7153 4.15893 23.7782 6.22183C25.8411 8.28473 27 11.0826 27 14Z" stroke="#1C1C1E" stroke-width="3" stroke-linecap="round" stroke-linejoin="round"/>
<path d="M14.0968 18.0979C14.9252 17.2695 14.4337 15.4349 12.999 14.0002C11.5643 12.5655 9.72972 12.074 8.90132 12.9024C8.07292 13.7308 8.56441 15.5654 9.9991 17.0001C11.4338 18.4348 13.2684 18.9263 14.0968 18.0979Z" fill="#1C1C1E"/>
<path d="M22 16.9998C23.4347 15.5651 23.9262 13.7305 23.0978 12.9021C22.2694 12.0737 20.4348 12.5652 19.0001 13.9999C17.5654 15.4346 17.0739 17.2692 17.9023 18.0976C18.7307 18.926 20.5653 18.4345 22 16.9998Z" fill="#1C1C1E"/>
<path d="M14.5 23H17.5" stroke="#1C1C1E" stroke-width="3" stroke-linecap="round" stroke-linejoin="round"/>
</svg>
