<svg width="32" height="32" viewBox="0 0 32 32" fill="none" xmlns="http://www.w3.org/2000/svg">
<path d="M16 4V6.5" stroke="#1C1C1E" stroke-width="3" stroke-linecap="round" stroke-linejoin="round"/>
<path d="M16 25.5V28" stroke="#1C1C1E" stroke-width="3" stroke-linecap="round" stroke-linejoin="round"/>
<path d="M16 13.5V18.5" stroke="#1C1C1E" stroke-width="3" stroke-linecap="round" stroke-linejoin="round"/>
<path d="M23 6.5H9C8.44772 6.5 8 6.94772 8 7.5V12.5C8 13.0523 8.44772 13.5 9 13.5H23C23.5523 13.5 24 13.0523 24 12.5V7.5C24 6.94772 23.5523 6.5 23 6.5Z" stroke="#1C1C1E" stroke-width="3" stroke-linecap="round" stroke-linejoin="round"/>
<path d="M26 18.5H6C5.44772 18.5 5 18.9477 5 19.5V24.5C5 25.0523 5.44772 25.5 6 25.5H26C26.5523 25.5 27 25.0523 27 24.5V19.5C27 18.9477 26.5523 18.5 26 18.5Z" stroke="#1C1C1E" stroke-width="3" stroke-linecap="round" stroke-linejoin="round"/>
</svg>
