<svg width="32" height="32" viewBox="0 0 32 32" fill="none" xmlns="http://www.w3.org/2000/svg">
<path d="M5 5V27" stroke="#1C1C1E" stroke-width="3" stroke-linecap="round" stroke-linejoin="round"/>
<path d="M22 7H11C10.4477 7 10 7.44772 10 8V12.5C10 13.0523 10.4477 13.5 11 13.5H22C22.5523 13.5 23 13.0523 23 12.5V8C23 7.44772 22.5523 7 22 7Z" stroke="#1C1C1E" stroke-width="3" stroke-linecap="round" stroke-linejoin="round"/>
<path d="M27 18.5H11C10.4477 18.5 10 18.9477 10 19.5V24C10 24.5523 10.4477 25 11 25H27C27.5523 25 28 24.5523 28 24V19.5C28 18.9477 27.5523 18.5 27 18.5Z" stroke="#1C1C1E" stroke-width="3" stroke-linecap="round" stroke-linejoin="round"/>
</svg>
