<svg width="32" height="32" viewBox="0 0 32 32" fill="none" xmlns="http://www.w3.org/2000/svg">
<path d="M27 5H5" stroke="#1C1C1E" stroke-width="3" stroke-linecap="round" stroke-linejoin="round"/>
<path d="M25 22V11C25 10.4477 24.5523 10 24 10H19.5C18.9477 10 18.5 10.4477 18.5 11V22C18.5 22.5523 18.9477 23 19.5 23H24C24.5523 23 25 22.5523 25 22Z" stroke="#1C1C1E" stroke-width="3" stroke-linecap="round" stroke-linejoin="round"/>
<path d="M12.5 10H8C7.44772 10 7 10.4477 7 11V27C7 27.5523 7.44772 28 8 28H12.5C13.0523 28 13.5 27.5523 13.5 27V11C13.5 10.4477 13.0523 10 12.5 10Z" stroke="#1C1C1E" stroke-width="3" stroke-linecap="round" stroke-linejoin="round"/>
</svg>
