<svg width="32" height="32" viewBox="0 0 32 32" fill="none" xmlns="http://www.w3.org/2000/svg">
<path d="M27 27H5" stroke="#1C1C1E" stroke-width="3" stroke-linecap="round" stroke-linejoin="round"/>
<path d="M18.5 10V21C18.5 21.5523 18.9477 22 19.5 22H24C24.5523 22 25 21.5523 25 21V10C25 9.44771 24.5523 9 24 9H19.5C18.9477 9 18.5 9.44771 18.5 10Z" stroke="#1C1C1E" stroke-width="3" stroke-linecap="round" stroke-linejoin="round"/>
<path d="M12.5 4H8C7.44772 4 7 4.44772 7 5V21C7 21.5523 7.44772 22 8 22H12.5C13.0523 22 13.5 21.5523 13.5 21V5C13.5 4.44772 13.0523 4 12.5 4Z" stroke="#1C1C1E" stroke-width="3" stroke-linecap="round" stroke-linejoin="round"/>
</svg>
