<svg width="32" height="32" viewBox="0 0 32 32" fill="none" xmlns="http://www.w3.org/2000/svg">
<path d="M30 21L28 23C28 23 23.5 28 16 28C8.5 28 4 23 4 23" stroke="#1C1C1E" stroke-width="3" stroke-linecap="round" stroke-linejoin="round"/>
<path d="M26 21H30V25" stroke="#1C1C1E" stroke-width="3" stroke-linecap="round" stroke-linejoin="round"/>
<path d="M15.5 22C18.5376 22 21 19.5376 21 16.5C21 13.4624 18.5376 11 15.5 11C12.4624 11 10 13.4624 10 16.5C10 19.5376 12.4624 22 15.5 22Z" stroke="#1C1C1E" stroke-width="3" stroke-linecap="round" stroke-linejoin="round"/>
<path d="M20.9996 22.0004V10.5004C20.9997 9.31464 20.6166 8.16066 19.9074 7.21041C19.1983 6.26017 18.201 5.56455 17.0643 5.22724C15.9275 4.88994 14.7123 4.92901 13.5996 5.33864C12.4869 5.74827 11.5363 6.50651 10.8896 7.50035" stroke="#1C1C1E" stroke-width="3" stroke-linecap="round" stroke-linejoin="round"/>
</svg>
