<svg width="32" height="32" viewBox="0 0 32 32" fill="none" xmlns="http://www.w3.org/2000/svg">
<path d="M20.5 20.5C21.6046 20.5 22.5 19.6046 22.5 18.5C22.5 17.3954 21.6046 16.5 20.5 16.5C19.3954 16.5 18.5 17.3954 18.5 18.5C18.5 19.6046 19.3954 20.5 20.5 20.5Z" fill="#1C1C1E"/>
<path d="M11.5 20.5C12.6046 20.5 13.5 19.6046 13.5 18.5C13.5 17.3954 12.6046 16.5 11.5 16.5C10.3954 16.5 9.5 17.3954 9.5 18.5C9.5 19.6046 10.3954 20.5 11.5 20.5Z" fill="#1C1C1E"/>
<path d="M3 23.0001V20.1413C3 12.9563 8.76875 7.02508 15.9537 7.00008C17.6648 6.99399 19.3603 7.32576 20.9428 7.97634C22.5254 8.62693 23.964 9.58354 25.1761 10.7913C26.3881 11.9991 27.3498 13.4342 28.006 15.0145C28.6622 16.5947 29 18.289 29 20.0001V23.0001C29 23.2653 28.8946 23.5197 28.7071 23.7072C28.5196 23.8947 28.2652 24.0001 28 24.0001H4C3.73478 24.0001 3.48043 23.8947 3.29289 23.7072C3.10536 23.5197 3 23.2653 3 23.0001Z" stroke="#1C1C1E" stroke-width="3" stroke-linecap="round" stroke-linejoin="round"/>
<path d="M4 6L7.88375 9.88375" stroke="#1C1C1E" stroke-width="3" stroke-linecap="round" stroke-linejoin="round"/>
<path d="M28.0002 6L24.1377 9.8625" stroke="#1C1C1E" stroke-width="3" stroke-linecap="round" stroke-linejoin="round"/>
</svg>
