<svg width="32" height="32" viewBox="0 0 32 32" fill="none" xmlns="http://www.w3.org/2000/svg">
<path d="M27 6H5C4.44772 6 4 6.44772 4 7V25C4 25.5523 4.44772 26 5 26H27C27.5523 26 28 25.5523 28 25V7C28 6.44772 27.5523 6 27 6Z" stroke="#1C1C1E" stroke-width="3" stroke-linecap="round" stroke-linejoin="round"/>
<path d="M9.5 13.5C10.6046 13.5 11.5 12.6046 11.5 11.5C11.5 10.3954 10.6046 9.5 9.5 9.5C8.39543 9.5 7.5 10.3954 7.5 11.5C7.5 12.6046 8.39543 13.5 9.5 13.5Z" fill="#1C1C1E"/>
<path d="M15.5 13.5C16.6046 13.5 17.5 12.6046 17.5 11.5C17.5 10.3954 16.6046 9.5 15.5 9.5C14.3954 9.5 13.5 10.3954 13.5 11.5C13.5 12.6046 14.3954 13.5 15.5 13.5Z" fill="#1C1C1E"/>
</svg>
