<svg width="32" height="32" viewBox="0 0 32 32" fill="none" xmlns="http://www.w3.org/2000/svg">
<path d="M26.9996 9.19019C25.5659 7.8327 23.1247 7.00021 20.9997 7.00021C19.1822 6.99599 17.4179 7.61349 15.9997 8.7502C14.6111 7.63681 12.8895 7.0207 11.1098 7.00021C6.4998 6.93771 2.88233 10.7877 2.99983 15.3989C3.05002 17.3757 3.49181 19.3229 4.29964 21.1278C5.10746 22.9327 6.26527 24.5594 7.70605 25.9138C8.4482 26.6132 9.42999 27.0019 10.4498 27.0001H21.4122C21.9566 27.0023 22.4957 26.8925 22.9959 26.6774C23.4961 26.4624 23.9467 26.1467 24.3197 25.7501C26.3009 23.6251 26.9996 21.6001 26.9996 21.6001C24.9009 20.1589 23.9997 17.7414 23.9997 15.0026C23.9997 12.7152 25.4597 10.6514 26.9996 9.19269V9.19019Z" stroke="#1C1C1E" stroke-width="3" stroke-linecap="round" stroke-linejoin="round"/>
<path d="M18.4994 1.50023C18.026 1.76305 17.6105 2.11894 17.2782 2.54647" stroke="#1C1C1E" stroke-width="3" stroke-linecap="round" stroke-linejoin="round"/>
</svg>
