<svg width="32" height="32" viewBox="0 0 32 32" fill="none" xmlns="http://www.w3.org/2000/svg">
<path d="M16.4033 28H15.5958C15.1421 28.0005 14.7017 27.8468 14.3469 27.564C13.9921 27.2812 13.744 26.8862 13.6433 26.4438L12.0508 19.4438C11.9842 19.151 11.9844 18.847 12.0513 18.5543C12.1182 18.2616 12.2501 17.9878 12.4373 17.7531C12.6245 17.5183 12.8621 17.3287 13.1326 17.1984C13.403 17.068 13.6993 17.0002 13.9996 17H17.9996C18.3001 16.9996 18.5969 17.067 18.8678 17.1972C19.1387 17.3273 19.3768 17.5168 19.5644 17.7516C19.752 17.9864 19.8843 18.2605 19.9514 18.5534C20.0185 18.8464 20.0188 19.1507 19.9521 19.4438L18.3596 26.4438C18.2588 26.8868 18.0101 27.2823 17.6545 27.5652C17.299 27.848 16.8577 28.0014 16.4033 28Z" stroke="#1C1C1E" stroke-width="3" stroke-linecap="round" stroke-linejoin="round"/>
<path d="M16 17C17.933 17 19.5 15.433 19.5 13.5C19.5 11.567 17.933 10 16 10C14.067 10 12.5 11.567 12.5 13.5C12.5 15.433 14.067 17 16 17Z" stroke="#1C1C1E" stroke-width="3" stroke-linecap="round" stroke-linejoin="round"/>
<path d="M8.2175 25.1349C6.34887 23.5428 5.01349 21.4158 4.39152 19.041C3.76956 16.6662 3.89092 14.1577 4.73923 11.854C5.58755 9.55034 7.12201 7.56225 9.13561 6.15796C11.1492 4.75366 13.5451 4.00073 16 4.00073C18.4549 4.00073 20.8508 4.75366 22.8644 6.15796C24.878 7.56225 26.4125 9.55034 27.2608 11.854C28.1091 14.1577 28.2304 16.6662 27.6085 19.041C26.9865 21.4158 25.6511 23.5428 23.7825 25.1349" stroke="#1C1C1E" stroke-width="3" stroke-linecap="round" stroke-linejoin="round"/>
</svg>
