<svg width="32" height="32" viewBox="0 0 32 32" fill="none" xmlns="http://www.w3.org/2000/svg">
<path d="M11.5 17H20.5" stroke="#1C1C1E" stroke-width="3" stroke-linecap="round" stroke-linejoin="round"/>
<path d="M20.5 20.4999V15.9999C20.5 15.0324 20.7808 14.0856 21.3082 13.2744C21.8357 12.4632 22.5872 11.8225 23.4716 11.4299C24.3559 11.0374 25.3352 10.9099 26.2906 11.0629C27.2461 11.2159 28.1365 11.6428 28.8541 12.2919C29.5717 12.941 30.0855 13.7844 30.3333 14.7197C30.5811 15.655 30.5521 16.6421 30.25 17.5613C29.9478 18.4805 29.3855 19.2923 28.6311 19.8982C27.8767 20.5042 26.9627 20.8782 26 20.9749V24.9999C26 25.2652 25.8946 25.5195 25.7071 25.707C25.5196 25.8946 25.2652 25.9999 25 25.9999H7C6.73478 25.9999 6.48043 25.8946 6.29289 25.707C6.10536 25.5195 6 25.2652 6 24.9999V20.9749C5.03726 20.8782 4.12328 20.5042 3.36891 19.8982C2.61453 19.2923 2.05217 18.4805 1.75003 17.5613C1.44788 16.6421 1.41894 15.655 1.6667 14.7197C1.91447 13.7844 2.4283 12.941 3.14587 12.2919C3.86345 11.6428 4.75395 11.2159 5.70936 11.0629C6.66477 10.9099 7.64406 11.0374 8.52844 11.4299C9.41283 11.8225 10.1643 12.4632 10.6918 13.2744C11.2192 14.0856 11.5 15.0324 11.5 15.9999V20.4999" stroke="#1C1C1E" stroke-width="3" stroke-linecap="round" stroke-linejoin="round"/>
<path d="M6 11.025V9C6 7.93913 6.42143 6.92172 7.17157 6.17157C7.92172 5.42143 8.93913 5 10 5H22C23.0609 5 24.0783 5.42143 24.8284 6.17157C25.5786 6.92172 26 7.93913 26 9V11.025" stroke="#1C1C1E" stroke-width="3" stroke-linecap="round" stroke-linejoin="round"/>
</svg>
