<svg width="32" height="32" viewBox="0 0 32 32" fill="none" xmlns="http://www.w3.org/2000/svg">
<path d="M26.2824 26.282C28.4366 24.1278 25.5795 17.7779 19.9008 12.0992C14.222 6.42051 7.87219 3.56336 5.71796 5.71759C3.56373 7.87182 6.42089 14.2217 12.0996 19.9004C17.7783 25.5791 24.1282 28.4362 26.2824 26.282Z" stroke="#1C1C1E" stroke-width="3" stroke-linecap="round" stroke-linejoin="round"/>
<path d="M19.9008 19.9008C25.5795 14.2221 28.4366 7.87221 26.2824 5.71798C24.1282 3.56375 17.7783 6.42091 12.0996 12.0996C6.42089 17.7783 3.56373 24.1282 5.71796 26.2824C7.87219 28.4366 14.222 25.5795 19.9008 19.9008Z" stroke="#1C1C1E" stroke-width="3" stroke-linecap="round" stroke-linejoin="round"/>
<path d="M16 18C17.1046 18 18 17.1046 18 16C18 14.8954 17.1046 14 16 14C14.8954 14 14 14.8954 14 16C14 17.1046 14.8954 18 16 18Z" fill="#1C1C1E"/>
</svg>
