<svg width="32" height="32" viewBox="0 0 32 32" fill="none" xmlns="http://www.w3.org/2000/svg">
<path d="M20.5583 23.2063C20.4258 23.3389 20.2587 23.4316 20.0761 23.4738C19.8935 23.516 19.7027 23.5061 19.5255 23.4451C19.3482 23.3841 19.1917 23.2745 19.0737 23.1289C18.9558 22.9832 18.8811 22.8073 18.8583 22.6213C17.972 15.9788 13.557 12.1463 11.427 10.6513C11.3072 10.5677 11.2072 10.459 11.1339 10.3326C11.0607 10.2063 11.016 10.0654 11.003 9.91993C10.99 9.77445 11.009 9.6279 11.0588 9.49057C11.1085 9.35324 11.1877 9.22847 11.2908 9.12503L16.1245 4.29128C16.228 4.18839 16.3527 4.10938 16.4899 4.05979C16.6271 4.0102 16.7735 3.99123 16.9188 4.00421C17.0641 4.01719 17.2048 4.06182 17.331 4.13494C17.4573 4.20807 17.566 4.30794 17.6495 4.42753C19.1495 6.55253 22.977 10.9725 29.6195 11.8588C29.8056 11.8816 29.9815 11.9563 30.1271 12.0742C30.2728 12.1922 30.3824 12.3487 30.4434 12.5259C30.5043 12.7032 30.5143 12.894 30.4721 13.0766C30.4298 13.2592 30.3371 13.4263 30.2045 13.5588L20.5583 23.2063Z" stroke="#1C1C1E" stroke-width="3" stroke-linecap="round" stroke-linejoin="round"/>
<path d="M16.1158 15.4186L5.76705 25.7674C5.29555 26.2228 4.66404 26.4748 4.00855 26.4691C3.35306 26.4634 2.72603 26.2005 2.26251 25.7369C1.79899 25.2734 1.53606 24.6464 1.53037 23.9909C1.52467 23.3354 1.77666 22.7039 2.23205 22.2324L12.7708 11.6924" stroke="#1C1C1E" stroke-width="3" stroke-linecap="round" stroke-linejoin="round"/>
<path d="M18.6924 5.7708L20.7324 3.73205C21.2039 3.27666 21.8354 3.02467 22.4909 3.03037C23.1464 3.03606 23.7734 3.29899 24.2369 3.76251C24.7005 4.22603 24.9634 4.85306 24.9691 5.50855C24.9748 6.16404 24.7228 6.79555 24.2674 7.26705L22.4186 9.1158" stroke="#1C1C1E" stroke-width="3" stroke-linecap="round" stroke-linejoin="round"/>
</svg>
