<svg width="32" height="32" viewBox="0 0 32 32" fill="none" xmlns="http://www.w3.org/2000/svg">
<path d="M11.5 18C12.6046 18 13.5 17.1046 13.5 16C13.5 14.8954 12.6046 14 11.5 14C10.3954 14 9.5 14.8954 9.5 16C9.5 17.1046 10.3954 18 11.5 18Z" fill="#1C1C1E"/>
<path d="M20.5 18C21.6046 18 22.5 17.1046 22.5 16C22.5 14.8954 21.6046 14 20.5 14C19.3954 14 18.5 14.8954 18.5 16C18.5 17.1046 19.3954 18 20.5 18Z" fill="#1C1C1E"/>
<path d="M19.5 21.5C18.4496 22.1536 17.2372 22.5 16 22.5C14.7628 22.5 13.5504 22.1536 12.5 21.5" stroke="#1C1C1E" stroke-width="3" stroke-linecap="round" stroke-linejoin="round"/>
<path d="M16 28C22.6274 28 28 22.6274 28 16C28 9.37258 22.6274 4 16 4C9.37258 4 4 9.37258 4 16C4 22.6274 9.37258 28 16 28Z" stroke="#1C1C1E" stroke-width="3" stroke-linecap="round" stroke-linejoin="round"/>
<path d="M15.4913 4.00977C13.5 6.50727 13.5 8.99977 13.5 8.99977C13.5 9.66281 13.7634 10.2987 14.2322 10.7675C14.7011 11.2364 15.337 11.4998 16 11.4998C16.663 11.4998 17.2989 11.2364 17.7678 10.7675C18.2366 10.2987 18.5 9.66281 18.5 8.99977" stroke="#1C1C1E" stroke-width="3" stroke-linecap="round" stroke-linejoin="round"/>
</svg>
