<svg width="32" height="32" viewBox="0 0 32 32" fill="none" xmlns="http://www.w3.org/2000/svg">
<path d="M6 14H29C29 16.3869 28.0518 18.6761 26.364 20.364C24.6761 22.0518 22.3869 23 20 23H15C12.6131 23 10.3239 22.0518 8.63604 20.364C6.94821 18.6761 6 16.3869 6 14Z" stroke="#1C1C1E" stroke-width="3" stroke-linecap="round" stroke-linejoin="round"/>
<path d="M18 14V6C18 5.73478 18.1054 5.48043 18.2929 5.29289C18.4804 5.10536 18.7348 5 19 5H20C22.3869 5 24.6761 5.94821 26.364 7.63604C28.0518 9.32387 29 11.6131 29 14" stroke="#1C1C1E" stroke-width="3" stroke-linecap="round" stroke-linejoin="round"/>
<path d="M11 30.5C12.3807 30.5 13.5 29.3807 13.5 28C13.5 26.6193 12.3807 25.5 11 25.5C9.61929 25.5 8.5 26.6193 8.5 28C8.5 29.3807 9.61929 30.5 11 30.5Z" fill="#1C1C1E"/>
<path d="M24 30.5C25.3807 30.5 26.5 29.3807 26.5 28C26.5 26.6193 25.3807 25.5 24 25.5C22.6193 25.5 21.5 26.6193 21.5 28C21.5 29.3807 22.6193 30.5 24 30.5Z" fill="#1C1C1E"/>
<path d="M18 14L26.1787 7.4563" stroke="#1C1C1E" stroke-width="3" stroke-linecap="round" stroke-linejoin="round"/>
<path d="M6 14C6 13.0717 5.63125 12.1815 4.97487 11.5251C4.3185 10.8687 3.42826 10.5 2.5 10.5" stroke="#1C1C1E" stroke-width="3" stroke-linecap="round" stroke-linejoin="round"/>
</svg>
