<svg width="32" height="32" viewBox="0 0 32 32" fill="none" xmlns="http://www.w3.org/2000/svg">
<path d="M7.70875 25.515L2 16L7.70875 6.485C7.79766 6.33702 7.92336 6.21457 8.07363 6.12958C8.2239 6.04459 8.39361 5.99995 8.56625 6H27C27.2652 6 27.5196 6.10536 27.7071 6.29289C27.8946 6.48043 28 6.73478 28 7V25C28 25.2652 27.8946 25.5196 27.7071 25.7071C27.5196 25.8946 27.2652 26 27 26H8.56625C8.39361 26.0001 8.2239 25.9554 8.07363 25.8704C7.92336 25.7854 7.79766 25.663 7.70875 25.515Z" stroke="#1C1C1E" stroke-width="3" stroke-linecap="round" stroke-linejoin="round"/>
<path d="M20 13L14 19" stroke="#1C1C1E" stroke-width="3" stroke-linecap="round" stroke-linejoin="round"/>
<path d="M20 19L14 13" stroke="#1C1C1E" stroke-width="3" stroke-linecap="round" stroke-linejoin="round"/>
</svg>
