<svg width="32" height="32" viewBox="0 0 32 32" fill="none" xmlns="http://www.w3.org/2000/svg">
<path d="M16 28C22.6274 28 28 22.6274 28 16C28 9.37258 22.6274 4 16 4C9.37258 4 4 9.37258 4 16C4 22.6274 9.37258 28 16 28Z" stroke="#1C1C1E" stroke-width="3" stroke-linecap="round" stroke-linejoin="round"/>
<path d="M7.5 7.53027C8.23576 8.26825 8.87274 9.0985 9.395 10.0003" stroke="#1C1C1E" stroke-width="3" stroke-linecap="round" stroke-linejoin="round"/>
<path d="M9.395 22C8.87274 22.9018 8.23576 23.732 7.5 24.47" stroke="#1C1C1E" stroke-width="3" stroke-linecap="round" stroke-linejoin="round"/>
<path d="M24.5005 7.53027C23.7647 8.26825 23.1277 9.0985 22.6055 10.0003" stroke="#1C1C1E" stroke-width="3" stroke-linecap="round" stroke-linejoin="round"/>
<path d="M22.6055 22C23.1277 22.9018 23.7647 23.732 24.5005 24.47" stroke="#1C1C1E" stroke-width="3" stroke-linecap="round" stroke-linejoin="round"/>
<path d="M10.9072 14.5C10.969 14.9976 10.9999 15.4986 10.9997 16C10.9999 16.5014 10.969 17.0024 10.9072 17.5" stroke="#1C1C1E" stroke-width="3" stroke-linecap="round" stroke-linejoin="round"/>
<path d="M21.0925 14.5C20.9692 15.4962 20.9692 16.5038 21.0925 17.5" stroke="#1C1C1E" stroke-width="3" stroke-linecap="round" stroke-linejoin="round"/>
</svg>
