<svg width="32" height="32" viewBox="0 0 32 32" fill="none" xmlns="http://www.w3.org/2000/svg">
<path d="M4 16C4 12.8174 5.26428 9.76516 7.51472 7.51472C9.76516 5.26428 12.8174 4 16 4C19.1826 4 22.2348 5.26428 24.4853 7.51472C26.7357 9.76516 28 12.8174 28 16V23C27.9998 23.3697 27.8971 23.7322 27.7033 24.0471C27.5095 24.362 27.2322 24.617 26.9023 24.7838C26.5723 24.9506 26.2025 25.0226 25.8341 24.992C25.4656 24.9613 25.1129 24.8291 24.815 24.61C22.8163 23.1575 19.875 22 16 22C12.125 22 9.18375 23.1575 7.185 24.61C6.88715 24.8291 6.5344 24.9613 6.16593 24.992C5.79747 25.0226 5.42771 24.9506 5.09774 24.7838C4.76776 24.617 4.49048 24.362 4.2967 24.0471C4.10291 23.7322 4.00021 23.3697 4 23V16Z" stroke="#1C1C1E" stroke-width="3" stroke-linecap="round" stroke-linejoin="round"/>
<path d="M4 19C7.46192 16.4036 11.6726 15 16 15C20.3274 15 24.5381 16.4036 28 19" stroke="#1C1C1E" stroke-width="3" stroke-linecap="round" stroke-linejoin="round"/>
<path d="M11.0498 15.6175C11.5711 8.42875 15.9998 4 15.9998 4C15.9998 4 20.4286 8.42875 20.9498 15.6175" stroke="#1C1C1E" stroke-width="3" stroke-linecap="round" stroke-linejoin="round"/>
</svg>
