<svg width="32" height="32" viewBox="0 0 32 32" fill="none" xmlns="http://www.w3.org/2000/svg">
<path d="M24.5 8H3.5C2.39543 8 1.5 8.89543 1.5 10V22C1.5 23.1046 2.39543 24 3.5 24H24.5C25.6046 24 26.5 23.1046 26.5 22V10C26.5 8.89543 25.6046 8 24.5 8Z" stroke="#1C1C1E" stroke-width="3" stroke-linecap="round" stroke-linejoin="round"/>
<path d="M30.5 13V19" stroke="#1C1C1E" stroke-width="3" stroke-linecap="round" stroke-linejoin="round"/>
<path d="M14 12.5V14.5" stroke="#1C1C1E" stroke-width="3" stroke-linecap="round" stroke-linejoin="round"/>
<path d="M14 21C15.1046 21 16 20.1046 16 19C16 17.8954 15.1046 17 14 17C12.8954 17 12 17.8954 12 19C12 20.1046 12.8954 21 14 21Z" fill="#1C1C1E"/>
</svg>
