<svg width="32" height="32" viewBox="0 0 32 32" fill="none" xmlns="http://www.w3.org/2000/svg">
<path d="M4 15.5H11.25C12.3772 15.5 13.4582 15.9478 14.2552 16.7448C15.0522 17.5418 15.5 18.6228 15.5 19.75C15.5 20.8772 15.0522 21.9582 14.2552 22.7552C13.4582 23.5522 12.3772 24 11.25 24H4V8H10.75C11.7446 8 12.6984 8.39509 13.4017 9.09835C14.1049 9.80161 14.5 10.7554 14.5 11.75C14.5 12.7446 14.1049 13.6984 13.4017 14.4017C12.6984 15.1049 11.7446 15.5 10.75 15.5" stroke="#1C1C1E" stroke-width="3" stroke-linecap="round" stroke-linejoin="round"/>
<path d="M21 9.5H29" stroke="#1C1C1E" stroke-width="3" stroke-linecap="round" stroke-linejoin="round"/>
<path d="M27.1813 23.5001C26.2048 23.9735 25.1008 24.1164 24.0359 23.9072C22.9711 23.6979 22.0033 23.1479 21.2785 22.3402C20.5538 21.5325 20.1115 20.5109 20.0184 19.4297C19.9254 18.3485 20.1866 17.2664 20.7627 16.3468C21.3387 15.4271 22.1984 14.7198 23.2118 14.3317C24.2252 13.9436 25.3374 13.8957 26.3804 14.1953C27.4234 14.4949 28.3406 15.1257 28.9936 15.9925C29.6466 16.8592 29.9998 17.9149 30 19.0001H20" stroke="#1C1C1E" stroke-width="3" stroke-linecap="round" stroke-linejoin="round"/>
</svg>
