<svg width="32" height="32" viewBox="0 0 32 32" fill="none" xmlns="http://www.w3.org/2000/svg">
<path d="M12 23V24C12 25.0609 12.4214 26.0783 13.1716 26.8284C13.9217 27.5786 14.9391 28 16 28C17.0609 28 18.0783 27.5786 18.8284 26.8284C19.5786 26.0783 20 25.0609 20 24V23" stroke="#1C1C1E" stroke-width="3" stroke-linecap="round" stroke-linejoin="round"/>
<path d="M6.99984 13C6.99984 10.6131 7.94806 8.32387 9.63588 6.63604C11.3237 4.94821 13.6129 4 15.9998 4C18.3868 4 20.676 4.94821 22.3638 6.63604C24.0516 8.32387 24.9998 10.6131 24.9998 13C24.9998 17.4775 26.0373 20.075 26.8623 21.5C26.95 21.6518 26.9962 21.8239 26.9963 21.9991C26.9965 22.1744 26.9506 22.3466 26.8632 22.4985C26.7759 22.6504 26.6501 22.7767 26.4986 22.8647C26.3471 22.9527 26.1751 22.9994 25.9998 23H5.99984C5.82482 22.9989 5.65314 22.952 5.50195 22.8638C5.35077 22.7756 5.22539 22.6492 5.13833 22.4974C5.05127 22.3456 5.00559 22.1735 5.00586 21.9985C5.00613 21.8235 5.05233 21.6516 5.13984 21.5C5.96359 20.075 6.99984 17.4763 6.99984 13Z" stroke="#1C1C1E" stroke-width="3" stroke-linecap="round" stroke-linejoin="round"/>
</svg>
