<svg width="32" height="32" viewBox="0 0 32 32" fill="none" xmlns="http://www.w3.org/2000/svg">
<path d="M6 5L26 27" stroke="#1C1C1E" stroke-width="3" stroke-linecap="round" stroke-linejoin="round"/>
<path d="M12 28H20" stroke="#1C1C1E" stroke-width="3" stroke-linecap="round" stroke-linejoin="round"/>
<path d="M12.4922 4.70868C13.8608 4.12951 15.3515 3.89826 16.8313 4.03557C18.311 4.17289 19.7338 4.6745 20.9724 5.49561C22.2111 6.31673 23.2271 7.43179 23.9299 8.74126C24.6326 10.0507 25.0002 11.5138 24.9997 12.9999C24.9997 15.9049 25.4359 18.0187 25.9684 19.5324" stroke="#1C1C1E" stroke-width="3" stroke-linecap="round" stroke-linejoin="round"/>
<path d="M22.3636 22.9997H5.99984C5.82482 22.9986 5.65314 22.9517 5.50195 22.8635C5.35077 22.7753 5.22539 22.6489 5.13833 22.4971C5.05127 22.3452 5.00559 22.1732 5.00586 21.9982C5.00613 21.8232 5.05233 21.6513 5.13984 21.4997C5.96359 20.0747 6.99984 17.4759 6.99984 12.9997C6.99684 11.1647 7.55754 9.37308 8.60609 7.86719" stroke="#1C1C1E" stroke-width="3" stroke-linecap="round" stroke-linejoin="round"/>
</svg>
