<svg width="32" height="32" viewBox="0 0 32 32" fill="none" xmlns="http://www.w3.org/2000/svg">
<path d="M12 23.5V24.5C12 25.5609 12.4214 26.5783 13.1716 27.3284C13.9217 28.0786 14.9391 28.5 16 28.5C17.0609 28.5 18.0783 28.0786 18.8284 27.3284C19.5786 26.5783 20 25.5609 20 24.5V23.5" stroke="#1C1C1E" stroke-width="3" stroke-linecap="round" stroke-linejoin="round"/>
<path d="M23 3C24.9311 4.23215 26.4973 5.9585 27.5362 8" stroke="#1C1C1E" stroke-width="3" stroke-linecap="round" stroke-linejoin="round"/>
<path d="M4.46387 8C5.50283 5.9585 7.06906 4.23215 9.00012 3" stroke="#1C1C1E" stroke-width="3" stroke-linecap="round" stroke-linejoin="round"/>
<path d="M6.50039 23.5C6.31468 23.4997 6.13272 23.4477 5.9749 23.3498C5.81707 23.2519 5.68962 23.1121 5.60683 22.9458C5.52404 22.7796 5.48917 22.5936 5.50614 22.4086C5.5231 22.2237 5.59123 22.0471 5.70289 21.8988C6.73164 20.5613 7.98039 18.075 8.00039 14C8.00039 11.8783 8.84325 9.84344 10.3435 8.34315C11.8438 6.84285 13.8787 6 16.0004 6C18.1221 6 20.157 6.84285 21.6572 8.34315C23.1575 9.84344 24.0004 11.8783 24.0004 14C24.0204 18.075 25.2691 20.5613 26.2941 21.8988C26.4056 22.0469 26.4737 22.2231 26.4908 22.4077C26.5079 22.5923 26.4734 22.778 26.3911 22.9441C26.3087 23.1103 26.1818 23.2502 26.0245 23.3484C25.8673 23.4465 25.6858 23.499 25.5004 23.5H6.50039Z" stroke="#1C1C1E" stroke-width="3" stroke-linecap="round" stroke-linejoin="round"/>
</svg>
