<svg width="32" height="32" viewBox="0 0 32 32" fill="none" xmlns="http://www.w3.org/2000/svg">
<path d="M26 10C26 9.46957 25.7893 8.96086 25.4142 8.58579C25.0391 8.21071 24.5304 8 24 8H18.5L25.5 20" stroke="#1C1C1E" stroke-width="3" stroke-linecap="round" stroke-linejoin="round"/>
<path d="M25.5 25C28.2614 25 30.5 22.7614 30.5 20C30.5 17.2386 28.2614 15 25.5 15C22.7386 15 20.5 17.2386 20.5 20C20.5 22.7614 22.7386 25 25.5 25Z" stroke="#1C1C1E" stroke-width="3" stroke-linecap="round" stroke-linejoin="round"/>
<path d="M6.5 25C9.26142 25 11.5 22.7614 11.5 20C11.5 17.2386 9.26142 15 6.5 15C3.73858 15 1.5 17.2386 1.5 20C1.5 22.7614 3.73858 25 6.5 25Z" stroke="#1C1C1E" stroke-width="3" stroke-linecap="round" stroke-linejoin="round"/>
<path d="M20.8337 12H12.8337L6.5 20" stroke="#1C1C1E" stroke-width="3" stroke-linecap="round" stroke-linejoin="round"/>
<path d="M6.5 8H10.5L16.0413 17.5" stroke="#1C1C1E" stroke-width="3" stroke-linecap="round" stroke-linejoin="round"/>
</svg>
