<svg width="32" height="32" viewBox="0 0 32 32" fill="none" xmlns="http://www.w3.org/2000/svg">
<path d="M16 4L24 10L16 16V4Z" stroke="#1C1C1E" stroke-width="3" stroke-linecap="round" stroke-linejoin="round"/>
<path d="M16 16L24 22L16 28V16Z" stroke="#1C1C1E" stroke-width="3" stroke-linecap="round" stroke-linejoin="round"/>
<path d="M8 10L16 16" stroke="#1C1C1E" stroke-width="3" stroke-linecap="round" stroke-linejoin="round"/>
<path d="M8 22L16 16" stroke="#1C1C1E" stroke-width="3" stroke-linecap="round" stroke-linejoin="round"/>
<path d="M7 18C8.10457 18 9 17.1046 9 16C9 14.8954 8.10457 14 7 14C5.89543 14 5 14.8954 5 16C5 17.1046 5.89543 18 7 18Z" fill="#1C1C1E"/>
<path d="M26 18C27.1046 18 28 17.1046 28 16C28 14.8954 27.1046 14 26 14C24.8954 14 24 14.8954 24 16C24 17.1046 24.8954 18 26 18Z" fill="#1C1C1E"/>
</svg>
