<svg width="32" height="32" viewBox="0 0 32 32" fill="none" xmlns="http://www.w3.org/2000/svg">
<path d="M11 8H17C17.2652 8 17.5196 8.10536 17.7071 8.29289C17.8947 8.48043 18 8.73478 18 9V10.8325C20.1056 11.7515 21.8306 13.3674 22.8849 15.4086C23.9392 17.4498 24.2585 19.7918 23.7891 22.0407C23.3197 24.2897 22.0903 26.3084 20.3075 27.7575C18.5248 29.2066 16.2974 29.9977 14 29.9977C11.7026 29.9977 9.47527 29.2066 7.69252 27.7575C5.90976 26.3084 4.68033 24.2897 4.21095 22.0407C3.74157 19.7918 4.06087 17.4498 5.11515 15.4086C6.16944 13.3674 7.89441 11.7515 10 10.8325V9C10 8.73478 10.1054 8.48043 10.2929 8.29289C10.4804 8.10536 10.7348 8 11 8Z" stroke="#1C1C1E" stroke-width="3" stroke-linecap="round" stroke-linejoin="round"/>
<path d="M14 8C14 8 14 3 18 3C22 3 22.5 10 26.5 10C30.5 10 30.5 5 30.5 5" stroke="#1C1C1E" stroke-width="3" stroke-linecap="round" stroke-linejoin="round"/>
<path d="M12.5 24.7712C11.4848 24.452 10.5979 23.8171 9.96841 22.959C9.33893 22.1008 8.99967 21.0643 9 20" stroke="#1C1C1E" stroke-width="3" stroke-linecap="round" stroke-linejoin="round"/>
</svg>
