<svg width="32" height="32" viewBox="0 0 32 32" fill="none" xmlns="http://www.w3.org/2000/svg">
<path d="M11 25.9125C8.91072 24.9549 7.14038 23.4174 5.89947 21.4829C4.65856 19.5484 3.99928 17.2983 4 15H28C28.0007 17.2983 27.3414 19.5484 26.1005 21.4829C24.8596 23.4174 23.0893 24.9549 21 25.9125V27C21 27.2652 20.8946 27.5196 20.7071 27.7071C20.5196 27.8946 20.2652 28 20 28H12C11.7348 28 11.4804 27.8946 11.2929 27.7071C11.1054 27.5196 11 27.2652 11 27V25.9125Z" stroke="#1C1C1E" stroke-width="3" stroke-linecap="round" stroke-linejoin="round"/>
<path d="M21.5 10.5C21.5 10.5 19.25 9.85 21.5 7.25C23.75 4.65 21.5 4 21.5 4" stroke="#1C1C1E" stroke-width="3" stroke-linecap="round" stroke-linejoin="round"/>
<path d="M16 10.5C16 10.5 13.75 9.85 16 7.25C18.25 4.65 16 4 16 4" stroke="#1C1C1E" stroke-width="3" stroke-linecap="round" stroke-linejoin="round"/>
<path d="M10.5 10.5C10.5 10.5 8.25 9.85 10.5 7.25C12.75 4.65 10.5 4 10.5 4" stroke="#1C1C1E" stroke-width="3" stroke-linecap="round" stroke-linejoin="round"/>
</svg>
