<svg width="32" height="32" viewBox="0 0 32 32" fill="none" xmlns="http://www.w3.org/2000/svg">
<path d="M6 14C6 11.3478 7.05357 8.8043 8.92893 6.92893C10.8043 5.05357 13.3478 4 16 4C18.6522 4 21.1957 5.05357 23.0711 6.92893C24.9464 8.8043 26 11.3478 26 14" stroke="#1C1C1E" stroke-width="3" stroke-linecap="round" stroke-linejoin="round"/>
<path d="M11.2002 14C11.6613 11.7413 12.8886 9.71121 14.6744 8.25339C16.4602 6.79557 18.6949 5.99953 21.0002 6C21.3597 6.00019 21.719 6.01938 22.0764 6.0575" stroke="#1C1C1E" stroke-width="3" stroke-linecap="round" stroke-linejoin="round"/>
<path d="M16.832 13.9998C17.4834 12.5098 18.4878 11.2009 19.7583 10.186C21.0289 9.17111 22.5275 8.48084 24.1245 8.1748" stroke="#1C1C1E" stroke-width="3" stroke-linecap="round" stroke-linejoin="round"/>
<path d="M11 24.9125C8.91072 23.9549 7.14038 22.4174 5.89947 20.4829C4.65856 18.5484 3.99928 16.2983 4 14H28C28.0007 16.2983 27.3414 18.5484 26.1005 20.4829C24.8596 22.4174 23.0893 23.9549 21 24.9125V26C21 26.2652 20.8946 26.5196 20.7071 26.7071C20.5196 26.8946 20.2652 27 20 27H12C11.7348 27 11.4804 26.8946 11.2929 26.7071C11.1054 26.5196 11 26.2652 11 26V24.9125Z" stroke="#1C1C1E" stroke-width="3" stroke-linecap="round" stroke-linejoin="round"/>
</svg>
