<svg width="32" height="32" viewBox="0 0 32 32" fill="none" xmlns="http://www.w3.org/2000/svg">
<path d="M8.99953 21.5H7.99953C6.5832 21.5013 5.21209 21.0015 4.12883 20.089C3.04556 19.1766 2.32 17.9104 2.08053 16.5145C1.84107 15.1185 2.10314 13.6829 2.82037 12.4616C3.53761 11.2403 4.66376 10.3121 5.99953 9.84125V9C5.99953 7.67392 6.52631 6.40215 7.464 5.46447C8.40168 4.52678 9.67345 4 10.9995 4C12.3256 4 13.5974 4.52678 14.5351 5.46447C15.4727 6.40215 15.9995 7.67392 15.9995 9V22" stroke="#1C1C1E" stroke-width="3" stroke-linecap="round" stroke-linejoin="round"/>
<path d="M23 21.5H24C25.4163 21.5013 26.7874 21.0015 27.8707 20.089C28.954 19.1766 29.6795 17.9104 29.919 16.5145C30.1585 15.1185 29.8964 13.6829 29.1792 12.4616C28.4619 11.2403 27.3358 10.3121 26 9.84125V9C26 7.67392 25.4732 6.40215 24.5355 5.46447C23.5979 4.52678 22.3261 4 21 4C19.6739 4 18.4021 4.52678 17.4645 5.46447C16.5268 6.40215 16 7.67392 16 9" stroke="#1C1C1E" stroke-width="3" stroke-linecap="round" stroke-linejoin="round"/>
<path d="M24.5 14.5C23.5717 14.5 22.6815 14.1313 22.0251 13.4749C21.3687 12.8185 21 11.9283 21 11V10.5" stroke="#1C1C1E" stroke-width="3" stroke-linecap="round" stroke-linejoin="round"/>
<path d="M7.5 14.5C8.42826 14.5 9.3185 14.1313 9.97487 13.4749C10.6313 12.8185 11 11.9283 11 11V10.5" stroke="#1C1C1E" stroke-width="3" stroke-linecap="round" stroke-linejoin="round"/>
<path d="M19 17.4163C18.1739 17.7768 17.4605 18.354 16.9356 19.0867C16.4106 19.8195 16.0934 20.6805 16.0177 21.5787C15.9419 22.4769 16.1104 23.3789 16.5053 24.1892C16.9002 24.9995 17.5068 25.688 18.2609 26.1818C19.015 26.6756 19.8886 26.9564 20.7892 26.9944C21.6898 27.0324 22.5839 26.8262 23.3769 26.3977C24.17 25.9692 24.8324 25.3343 25.2942 24.5601C25.7559 23.786 25.9998 22.9014 26 22V21.1588" stroke="#1C1C1E" stroke-width="3" stroke-linecap="round" stroke-linejoin="round"/>
<path d="M13 17.4163C13.8261 17.7768 14.5395 18.354 15.0644 19.0867C15.5894 19.8195 15.9066 20.6805 15.9823 21.5787C16.0581 22.4769 15.8896 23.3789 15.4947 24.1892C15.0998 24.9995 14.4932 25.688 13.7391 26.1818C12.985 26.6756 12.1114 26.9564 11.2108 26.9944C10.3102 27.0324 9.4161 26.8262 8.62307 26.3977C7.83004 25.9692 7.1676 25.3343 6.70585 24.5601C6.2441 23.786 6.00021 22.9014 6 22V21.1588" stroke="#1C1C1E" stroke-width="3" stroke-linecap="round" stroke-linejoin="round"/>
</svg>
