<svg width="32" height="32" viewBox="0 0 32 32" fill="none" xmlns="http://www.w3.org/2000/svg">
<path d="M25.2213 5C26.301 6.66016 26.9125 8.58102 26.9913 10.5598C27.0701 12.5387 26.6132 14.5021 25.6688 16.2428C24.7244 17.9835 23.3276 19.437 21.6259 20.4499C19.9241 21.4627 17.9804 21.9974 16 21.9974C14.0196 21.9974 12.0759 21.4627 10.3742 20.4499C8.67236 19.437 7.27557 17.9835 6.33121 16.2428C5.38684 14.5021 4.92994 12.5387 5.00871 10.5598C5.08748 8.58102 5.69901 6.66016 6.77875 5H25.2213Z" stroke="#1C1C1E" stroke-width="3" stroke-linecap="round" stroke-linejoin="round"/>
<path d="M16 22V28" stroke="#1C1C1E" stroke-width="3" stroke-linecap="round" stroke-linejoin="round"/>
<path d="M11 28H21" stroke="#1C1C1E" stroke-width="3" stroke-linecap="round" stroke-linejoin="round"/>
<path d="M5 11H27" stroke="#1C1C1E" stroke-width="3" stroke-linecap="round" stroke-linejoin="round"/>
</svg>
