<svg width="32" height="32" viewBox="0 0 32 32" fill="none" xmlns="http://www.w3.org/2000/svg">
<path d="M27 8H5C4.44772 8 4 8.44772 4 9V25C4 25.5523 4.44772 26 5 26H27C27.5523 26 28 25.5523 28 25V9C28 8.44772 27.5523 8 27 8Z" stroke="#1C1C1E" stroke-width="3" stroke-linecap="round" stroke-linejoin="round"/>
<path d="M4 20.5H28" stroke="#1C1C1E" stroke-width="3" stroke-linecap="round" stroke-linejoin="round"/>
<path d="M4 13.5H28" stroke="#1C1C1E" stroke-width="3" stroke-linecap="round" stroke-linejoin="round"/>
<path d="M21 8V5C21 4.46957 20.7893 3.96086 20.4142 3.58579C20.0391 3.21071 19.5304 3 19 3H13C12.4696 3 11.9609 3.21071 11.5858 3.58579C11.2107 3.96086 11 4.46957 11 5V8" stroke="#1C1C1E" stroke-width="3" stroke-linecap="round" stroke-linejoin="round"/>
</svg>
