<svg width="32" height="32" viewBox="0 0 32 32" fill="none" xmlns="http://www.w3.org/2000/svg">
<path d="M22.5 10.5H4.5C3.94772 10.5 3.5 10.9477 3.5 11.5V25.5C3.5 26.0523 3.94772 26.5 4.5 26.5H22.5C23.0523 26.5 23.5 26.0523 23.5 25.5V11.5C23.5 10.9477 23.0523 10.5 22.5 10.5Z" stroke="#1C1C1E" stroke-width="3" stroke-linecap="round" stroke-linejoin="round"/>
<path d="M8.5 10.5V6.5C8.5 6.23478 8.60536 5.98043 8.79289 5.79289C8.98043 5.60536 9.23478 5.5 9.5 5.5H27.5C27.7652 5.5 28.0196 5.60536 28.2071 5.79289C28.3946 5.98043 28.5 6.23478 28.5 6.5V20.5C28.5 20.7652 28.3946 21.0196 28.2071 21.2071C28.0196 21.3946 27.7652 21.5 27.5 21.5H23.5" stroke="#1C1C1E" stroke-width="3" stroke-linecap="round" stroke-linejoin="round"/>
<path d="M3.5 15.5H23.5" stroke="#1C1C1E" stroke-width="3" stroke-linecap="round" stroke-linejoin="round"/>
</svg>
