<svg width="32" height="32" viewBox="0 0 32 32" fill="none" xmlns="http://www.w3.org/2000/svg">
<path d="M6 14C6 11.3478 7.05357 8.8043 8.92893 6.92893C10.8043 5.05357 13.3478 4 16 4C18.6522 4 21.1957 5.05357 23.0711 6.92893C24.9464 8.8043 26 11.3478 26 14V19C26 21.6522 24.9464 24.1957 23.0711 26.0711C21.1957 27.9464 18.6522 29 16 29C13.3478 29 10.8043 27.9464 8.92893 26.0711C7.05357 24.1957 6 21.6522 6 19V14Z" stroke="#1C1C1E" stroke-width="3" stroke-linecap="round" stroke-linejoin="round"/>
<path d="M26 16H6" stroke="#1C1C1E" stroke-width="3" stroke-linecap="round" stroke-linejoin="round"/>
<path d="M19.5 13C20.6046 13 21.5 12.1046 21.5 11C21.5 9.89543 20.6046 9 19.5 9C18.3954 9 17.5 9.89543 17.5 11C17.5 12.1046 18.3954 13 19.5 13Z" fill="#1C1C1E"/>
<path d="M12.5 13C13.6046 13 14.5 12.1046 14.5 11C14.5 9.89543 13.6046 9 12.5 9C11.3954 9 10.5 9.89543 10.5 11C10.5 12.1046 11.3954 13 12.5 13Z" fill="#1C1C1E"/>
<path d="M25 4L22.5537 6.44625" stroke="#1C1C1E" stroke-width="3" stroke-linecap="round" stroke-linejoin="round"/>
<path d="M7 4L9.44625 6.44625" stroke="#1C1C1E" stroke-width="3" stroke-linecap="round" stroke-linejoin="round"/>
</svg>
