<svg width="32" height="32" viewBox="0 0 32 32" fill="none" xmlns="http://www.w3.org/2000/svg">
<path d="M26 27V5C26 4.44772 25.5523 4 25 4L7 4C6.44772 4 6 4.44772 6 5V27C6 27.5523 6.44772 28 7 28H25C25.5523 28 26 27.5523 26 27Z" stroke="#1C1C1E" stroke-width="3" stroke-linecap="round" stroke-linejoin="round"/>
<path d="M11.5 9.5H20.5" stroke="#1C1C1E" stroke-width="3" stroke-linecap="round" stroke-linejoin="round"/>
<path d="M13 18C14.1046 18 15 17.1046 15 16C15 14.8954 14.1046 14 13 14C11.8954 14 11 14.8954 11 16C11 17.1046 11.8954 18 13 18Z" fill="#1C1C1E"/>
<path d="M19 18C20.1046 18 21 17.1046 21 16C21 14.8954 20.1046 14 19 14C17.8954 14 17 14.8954 17 16C17 17.1046 17.8954 18 19 18Z" fill="#1C1C1E"/>
<path d="M13 24C14.1046 24 15 23.1046 15 22C15 20.8954 14.1046 20 13 20C11.8954 20 11 20.8954 11 22C11 23.1046 11.8954 24 13 24Z" fill="#1C1C1E"/>
<path d="M19 24C20.1046 24 21 23.1046 21 22C21 20.8954 20.1046 20 19 20C17.8954 20 17 20.8954 17 22C17 23.1046 17.8954 24 19 24Z" fill="#1C1C1E"/>
</svg>
