<svg width="32" height="32" viewBox="0 0 32 32" fill="none" xmlns="http://www.w3.org/2000/svg">
<path d="M5 21.5L27 28" stroke="#1C1C1E" stroke-width="3" stroke-linecap="round" stroke-linejoin="round"/>
<path d="M27 21.5L5 28" stroke="#1C1C1E" stroke-width="3" stroke-linecap="round" stroke-linejoin="round"/>
<path d="M19 16.5C19 17.2956 18.6839 18.0587 18.1213 18.6213C17.5587 19.1839 16.7956 19.5 16 19.5C15.2044 19.5 14.4413 19.1839 13.8787 18.6213C13.3161 18.0587 13 17.2956 13 16.5C13 13.5 16 12 16 12C16 12 19 13.5 19 16.5Z" stroke="#1C1C1E" stroke-width="3" stroke-linecap="round" stroke-linejoin="round"/>
<path d="M22.5 13C22.5 14.7239 21.8152 16.3772 20.5962 17.5962C19.3772 18.8152 17.7239 19.5 16 19.5C14.2761 19.5 12.6228 18.8152 11.4038 17.5962C10.1848 16.3772 9.5 14.7239 9.5 13C9.5 7.5 16 4 16 4C16 4 22.5 7.5 22.5 13Z" stroke="#1C1C1E" stroke-width="3" stroke-linecap="round" stroke-linejoin="round"/>
</svg>
