<svg width="32" height="32" viewBox="0 0 32 32" fill="none" xmlns="http://www.w3.org/2000/svg">
<path d="M2 14H30" stroke="#1C1C1E" stroke-width="3" stroke-linecap="round" stroke-linejoin="round"/>
<path d="M28 21V25C28 25.2652 27.8946 25.5196 27.7071 25.7071C27.5196 25.8946 27.2652 26 27 26H23.5C23.2348 26 22.9804 25.8946 22.7929 25.7071C22.6054 25.5196 22.5 25.2652 22.5 25V21" stroke="#1C1C1E" stroke-width="3" stroke-linecap="round" stroke-linejoin="round"/>
<path d="M9.5 21V25C9.5 25.2652 9.39464 25.5196 9.20711 25.7071C9.01957 25.8946 8.76522 26 8.5 26H5C4.73478 26 4.48043 25.8946 4.29289 25.7071C4.10536 25.5196 4 25.2652 4 25V21" stroke="#1C1C1E" stroke-width="3" stroke-linecap="round" stroke-linejoin="round"/>
<path d="M28 14L24.2638 5.59375C24.1852 5.41702 24.057 5.26686 23.8949 5.16148C23.7327 5.05609 23.5434 5 23.35 5H8.65C8.45659 5 8.26733 5.05609 8.10514 5.16148C7.94296 5.26686 7.81482 5.41702 7.73625 5.59375L4 14V21H28V14Z" stroke="#1C1C1E" stroke-width="3" stroke-linecap="round" stroke-linejoin="round"/>
</svg>
