<svg width="32" height="32" viewBox="0 0 32 32" fill="none" xmlns="http://www.w3.org/2000/svg">
<path d="M26 7H6C4.89543 7 4 7.89543 4 9V23C4 24.1046 4.89543 25 6 25H26C27.1046 25 28 24.1046 28 23V9C28 7.89543 27.1046 7 26 7Z" stroke="#1C1C1E" stroke-width="3" stroke-linecap="round" stroke-linejoin="round"/>
<path d="M4 12.5H12C12 13.5609 12.4214 14.5783 13.1716 15.3284C13.9217 16.0786 14.9391 16.5 16 16.5C17.0609 16.5 18.0783 16.0786 18.8284 15.3284C19.5786 14.5783 20 13.5609 20 12.5H28" stroke="#1C1C1E" stroke-width="3" stroke-linecap="round" stroke-linejoin="round"/>
</svg>
