<svg width="32" height="32" viewBox="0 0 32 32" fill="none" xmlns="http://www.w3.org/2000/svg">
<path d="M7 29L16 11.5L25 29" stroke="#1C1C1E" stroke-width="3" stroke-linecap="round" stroke-linejoin="round"/>
<path d="M9 25.5H23" stroke="#1C1C1E" stroke-width="3" stroke-linecap="round" stroke-linejoin="round"/>
<path d="M11.4814 9.35644C11.8831 8.50913 12.5149 7.79184 13.3047 7.28645C14.0945 6.78107 15.0105 6.50796 15.9481 6.49831C16.8858 6.48867 17.8072 6.74287 18.6073 7.2319C19.4073 7.72093 20.0537 8.42508 20.4727 9.26394" stroke="#1C1C1E" stroke-width="3" stroke-linecap="round" stroke-linejoin="round"/>
<path d="M7.51375 17.2929C6.57 15.7789 6.04846 14.04 6.00322 12.2565C5.95797 10.4731 6.39067 8.70996 7.25645 7.15007C8.12222 5.59018 9.38953 4.29031 10.927 3.38526C12.4644 2.4802 14.216 2.00293 16 2.00293C17.784 2.00293 19.5356 2.4802 21.073 3.38526C22.6105 4.29031 23.8778 5.59018 24.7436 7.15007C25.6093 8.70996 26.042 10.4731 25.9968 12.2565C25.9515 14.04 25.43 15.7789 24.4862 17.2929" stroke="#1C1C1E" stroke-width="3" stroke-linecap="round" stroke-linejoin="round"/>
<path d="M11.3711 20.5H20.6286" stroke="#1C1C1E" stroke-width="3" stroke-linecap="round" stroke-linejoin="round"/>
</svg>
