<svg width="32" height="32" viewBox="0 0 32 32" fill="none" xmlns="http://www.w3.org/2000/svg">
<path d="M9 17.5H14.5" stroke="#1C1C1E" stroke-width="3" stroke-linecap="round" stroke-linejoin="round"/>
<path d="M9 12.5H14.5" stroke="#1C1C1E" stroke-width="3" stroke-linecap="round" stroke-linejoin="round"/>
<path d="M24.5 21.5C27.5376 21.5 30 19.0376 30 16C30 12.9624 27.5376 10.5 24.5 10.5C21.4624 10.5 19 12.9624 19 16C19 19.0376 21.4624 21.5 24.5 21.5Z" stroke="#1C1C1E" stroke-width="3" stroke-linecap="round" stroke-linejoin="round"/>
<path d="M21 20.2422V28.4997L24.5 26.4997L28 28.4997V20.2422" stroke="#1C1C1E" stroke-width="3" stroke-linecap="round" stroke-linejoin="round"/>
<path d="M21 24H5C4.73478 24 4.48043 23.8946 4.29289 23.7071C4.10536 23.5196 4 23.2652 4 23V7C4 6.73478 4.10536 6.48043 4.29289 6.29289C4.48043 6.10536 4.73478 6 5 6H27C27.2652 6 27.5196 6.10536 27.7071 6.29289C27.8946 6.48043 28 6.73478 28 7V11.7575" stroke="#1C1C1E" stroke-width="3" stroke-linecap="round" stroke-linejoin="round"/>
</svg>
