<svg width="32" height="32" viewBox="0 0 32 32" fill="none" xmlns="http://www.w3.org/2000/svg">
<path d="M24 4H8C7.44772 4 7 4.44772 7 5V11C7 11.5523 7.44772 12 8 12H24C24.5523 12 25 11.5523 25 11V5C25 4.44772 24.5523 4 24 4Z" stroke="#1C1C1E" stroke-width="3" stroke-linecap="round" stroke-linejoin="round"/>
<path d="M26 17.5H6C5.44772 17.5 5 17.9477 5 18.5V21.5C5 22.0523 5.44772 22.5 6 22.5H26C26.5523 22.5 27 22.0523 27 21.5V18.5C27 17.9477 26.5523 17.5 26 17.5Z" stroke="#1C1C1E" stroke-width="3" stroke-linecap="round" stroke-linejoin="round"/>
<path d="M11 12V17.5" stroke="#1C1C1E" stroke-width="3" stroke-linecap="round" stroke-linejoin="round"/>
<path d="M21 12V17.5" stroke="#1C1C1E" stroke-width="3" stroke-linecap="round" stroke-linejoin="round"/>
<path d="M23.5 22.5V28" stroke="#1C1C1E" stroke-width="3" stroke-linecap="round" stroke-linejoin="round"/>
<path d="M8.5 22.5V28" stroke="#1C1C1E" stroke-width="3" stroke-linecap="round" stroke-linejoin="round"/>
</svg>
