<svg width="32" height="32" viewBox="0 0 32 32" fill="none" xmlns="http://www.w3.org/2000/svg">
<path d="M13 22C14.933 22 16.5 20.433 16.5 18.5C16.5 16.567 14.933 15 13 15C11.067 15 9.5 16.567 9.5 18.5C9.5 20.433 11.067 22 13 22Z" stroke="#1C1C1E" stroke-width="3" stroke-linecap="round" stroke-linejoin="round"/>
<path d="M23.5 21.5V10.5H8.5" stroke="#1C1C1E" stroke-width="3" stroke-linecap="round" stroke-linejoin="round"/>
<path d="M18.6575 26H27C27.2652 26 27.5196 25.8946 27.7071 25.7071C27.8946 25.5196 28 25.2652 28 25V7C28 6.73478 27.8946 6.48043 27.7071 6.29289C27.5196 6.10536 27.2652 6 27 6H5C4.73478 6 4.48043 6.10536 4.29289 6.29289C4.10536 6.48043 4 6.73478 4 7V25C4 25.2652 4.10536 25.5196 4.29289 25.7071C4.48043 25.8946 4.73478 26 5 26H7.34125C7.75405 24.8289 8.52004 23.8147 9.53357 23.0973C10.5471 22.3799 11.7583 21.9946 13 21.9946C14.2417 21.9946 15.4529 22.3799 16.4664 23.0973C17.48 23.8147 18.2459 24.8289 18.6588 26H18.6575Z" stroke="#1C1C1E" stroke-width="3" stroke-linecap="round" stroke-linejoin="round"/>
</svg>
