<svg width="32" height="32" viewBox="0 0 32 32" fill="none" xmlns="http://www.w3.org/2000/svg">
<path d="M12 30H18" stroke="#1C1C1E" stroke-width="3" stroke-linecap="round" stroke-linejoin="round"/>
<path d="M12.2124 2H17.7874C17.7874 2 24.2874 22 14.9999 22C5.71243 22 12.2124 2 12.2124 2Z" stroke="#1C1C1E" stroke-width="3" stroke-linecap="round" stroke-linejoin="round"/>
<path d="M15 22V30" stroke="#1C1C1E" stroke-width="3" stroke-linecap="round" stroke-linejoin="round"/>
<path d="M28 9C29.1046 9 30 8.10457 30 7C30 5.89543 29.1046 5 28 5C26.8954 5 26 5.89543 26 7C26 8.10457 26.8954 9 28 9Z" fill="#1C1C1E"/>
<path d="M24.5 4.5C25.6046 4.5 26.5 3.60457 26.5 2.5C26.5 1.39543 25.6046 0.5 24.5 0.5C23.3954 0.5 22.5 1.39543 22.5 2.5C22.5 3.60457 23.3954 4.5 24.5 4.5Z" fill="#1C1C1E"/>
<path d="M25 15C26.1046 15 27 14.1046 27 13C27 11.8954 26.1046 11 25 11C23.8954 11 23 11.8954 23 13C23 14.1046 23.8954 15 25 15Z" fill="#1C1C1E"/>
<path d="M10.5254 9H19.4754" stroke="#1C1C1E" stroke-width="3" stroke-linecap="round" stroke-linejoin="round"/>
</svg>
