<svg width="32" height="32" viewBox="0 0 32 32" fill="none" xmlns="http://www.w3.org/2000/svg">
<path d="M14 21L16 16H12L14 11" stroke="#1C1C1E" stroke-width="3" stroke-linecap="round" stroke-linejoin="round"/>
<path d="M7 27V7C7 6.46957 7.21071 5.96086 7.58579 5.58579C7.96086 5.21071 8.46957 5 9 5H19C19.5304 5 20.0391 5.21071 20.4142 5.58579C20.7893 5.96086 21 6.46957 21 7V27" stroke="#1C1C1E" stroke-width="3" stroke-linecap="round" stroke-linejoin="round"/>
<path d="M4 27H24" stroke="#1C1C1E" stroke-width="3" stroke-linecap="round" stroke-linejoin="round"/>
<path d="M21 14H24C24.5304 14 25.0391 14.2107 25.4142 14.5858C25.7893 14.9609 26 15.4696 26 16V20.75C26 21.3467 26.2371 21.919 26.659 22.341C27.081 22.7629 27.6533 23 28.25 23C28.8467 23 29.419 22.7629 29.841 22.341C30.2629 21.919 30.5 21.3467 30.5 20.75V10.8287C30.5 10.5659 30.4483 10.3057 30.3477 10.0629C30.2471 9.82011 30.0996 9.59952 29.9137 9.41375L27.5 7" stroke="#1C1C1E" stroke-width="3" stroke-linecap="round" stroke-linejoin="round"/>
</svg>
