<svg width="32" height="32" viewBox="0 0 32 32" fill="none" xmlns="http://www.w3.org/2000/svg">
<path d="M16 21V28" stroke="#1C1C1E" stroke-width="3" stroke-linecap="round" stroke-linejoin="round"/>
<path d="M5.60674 10C4.28596 12.2876 3.75693 14.9472 4.10168 17.5661C4.44643 20.1851 5.6457 22.6171 7.5135 24.485C9.3813 26.3529 11.8133 27.5524 14.4322 27.8973C17.0511 28.2422 19.7107 27.7133 21.9984 26.3927C24.2861 25.072 26.0742 23.0334 27.0853 20.593C28.0963 18.1526 28.2739 15.4468 27.5904 12.8952C26.907 10.3436 25.4007 8.08882 23.3052 6.48053C21.2097 4.87224 18.642 4.00032 16.0005 4V11C17.1011 11.0002 18.1709 11.3636 19.0439 12.0338C19.917 12.704 20.5445 13.6436 20.8292 14.7067C21.1139 15.7699 21.0398 16.8973 20.6185 17.9141C20.1972 18.9309 19.4521 19.7802 18.4989 20.3304C17.5456 20.8806 16.4375 21.1009 15.3463 20.9572C14.2551 20.8134 13.2418 20.3136 12.4636 19.5353C11.6854 18.757 11.1857 17.7437 11.0421 16.6525C10.8985 15.5613 11.1189 14.4532 11.6692 13.5L5.60674 10Z" stroke="#1C1C1E" stroke-width="3" stroke-linecap="round" stroke-linejoin="round"/>
<path d="M11.1687 17.2949L4.40625 19.1062" stroke="#1C1C1E" stroke-width="3" stroke-linecap="round" stroke-linejoin="round"/>
</svg>
