<svg width="32" height="32" viewBox="0 0 32 32" fill="none" xmlns="http://www.w3.org/2000/svg">
<path d="M28 26H4V6" stroke="#1C1C1E" stroke-width="3" stroke-linecap="round" stroke-linejoin="round"/>
<path d="M16.5 20.5C17.6046 20.5 18.5 19.6046 18.5 18.5C18.5 17.3954 17.6046 16.5 16.5 16.5C15.3954 16.5 14.5 17.3954 14.5 18.5C14.5 19.6046 15.3954 20.5 16.5 20.5Z" fill="#1C1C1E"/>
<path d="M13.5 13.5C14.6046 13.5 15.5 12.6046 15.5 11.5C15.5 10.3954 14.6046 9.5 13.5 9.5C12.3954 9.5 11.5 10.3954 11.5 11.5C11.5 12.6046 12.3954 13.5 13.5 13.5Z" fill="#1C1C1E"/>
<path d="M9.5 22.5C10.6046 22.5 11.5 21.6046 11.5 20.5C11.5 19.3954 10.6046 18.5 9.5 18.5C8.39543 18.5 7.5 19.3954 7.5 20.5C7.5 21.6046 8.39543 22.5 9.5 22.5Z" fill="#1C1C1E"/>
<path d="M21.5 16.5C22.6046 16.5 23.5 15.6046 23.5 14.5C23.5 13.3954 22.6046 12.5 21.5 12.5C20.3954 12.5 19.5 13.3954 19.5 14.5C19.5 15.6046 20.3954 16.5 21.5 16.5Z" fill="#1C1C1E"/>
<path d="M24.5 11.5C25.6046 11.5 26.5 10.6046 26.5 9.5C26.5 8.39543 25.6046 7.5 24.5 7.5C23.3954 7.5 22.5 8.39543 22.5 9.5C22.5 10.6046 23.3954 11.5 24.5 11.5Z" fill="#1C1C1E"/>
<path d="M23.5 22.5C24.6046 22.5 25.5 21.6046 25.5 20.5C25.5 19.3954 24.6046 18.5 23.5 18.5C22.3954 18.5 21.5 19.3954 21.5 20.5C21.5 21.6046 22.3954 22.5 23.5 22.5Z" fill="#1C1C1E"/>
</svg>
