<svg width="32" height="32" viewBox="0 0 32 32" fill="none" xmlns="http://www.w3.org/2000/svg">
<path d="M4.0525 17.1253C4.0175 16.7553 4 16.3803 4 16.0003C3.99916 13.7026 4.65845 11.4531 5.89944 9.51934C7.14042 7.58563 8.91083 6.04916 11 5.09277V13.269L4.0525 17.1253Z" stroke="#1C1C1E" stroke-width="3" stroke-linecap="round" stroke-linejoin="round"/>
<path d="M15.9998 16.0525V4C18.1023 4.00031 20.1677 4.553 21.9894 5.6027C23.811 6.6524 25.3249 8.16228 26.3794 9.98113C27.434 11.8 27.9921 13.864 27.998 15.9664C28.0039 18.0688 27.4573 20.1359 26.413 21.9606C25.3687 23.7854 23.8632 25.3037 22.0475 26.3636C20.2318 27.4235 18.1694 27.9877 16.067 27.9998C13.9646 28.0119 11.8959 27.4714 10.0681 26.4325C8.24034 25.3935 6.71758 23.8926 5.65234 22.08L15.9998 16.0525Z" stroke="#1C1C1E" stroke-width="3" stroke-linecap="round" stroke-linejoin="round"/>
</svg>
