<svg width="32" height="32" viewBox="0 0 32 32" fill="none" xmlns="http://www.w3.org/2000/svg">
<path d="M6 5L26 27" stroke="#1C1C1E" stroke-width="3" stroke-linecap="round" stroke-linejoin="round"/>
<path d="M23.6988 24.4689C21.6592 26.111 19.1184 27.0044 16.5 27.0002H6.00001C5.73479 27.0002 5.48044 26.8948 5.2929 26.7073C5.10537 26.5198 5.00001 26.2654 5.00001 26.0002V15.5002C4.99614 12.5045 6.16492 9.6263 8.25626 7.48145" stroke="#1C1C1E" stroke-width="3" stroke-linecap="round" stroke-linejoin="round"/>
<path d="M12.5 4.71501C13.7802 4.24062 15.1347 3.99849 16.5 4.00001C18.0102 4.00001 19.5056 4.29746 20.9009 4.87539C22.2961 5.45332 23.5639 6.30041 24.6317 7.36828C25.6996 8.43615 26.5467 9.7039 27.1246 11.0991C27.7025 12.4944 28 13.9898 28 15.5C28.0025 17.2344 27.611 18.9466 26.855 20.5075" stroke="#1C1C1E" stroke-width="3" stroke-linecap="round" stroke-linejoin="round"/>
</svg>
