<svg width="32" height="32" viewBox="0 0 32 32" fill="none" xmlns="http://www.w3.org/2000/svg">
<path d="M6 5L26 27" stroke="#1C1C1E" stroke-width="3" stroke-linecap="round" stroke-linejoin="round"/>
<path d="M6.90875 6H5C4.73478 6 4.48043 6.10536 4.29289 6.29289C4.10536 6.48043 4 6.73478 4 7V23C4 23.2652 4.10536 23.5196 4.29289 23.7071C4.48043 23.8946 4.73478 24 5 24H13.1337L15.1337 27.5C15.2211 27.6533 15.3475 27.7808 15.5001 27.8694C15.6527 27.9581 15.826 28.0047 16.0025 28.0047C16.179 28.0047 16.3523 27.9581 16.5049 27.8694C16.6575 27.7808 16.7839 27.6533 16.8713 27.5L18.8713 24H23.2775" stroke="#1C1C1E" stroke-width="3" stroke-linecap="round" stroke-linejoin="round"/>
<path d="M27.9998 21.7675V7C27.9998 6.73478 27.8944 6.48043 27.7069 6.29289C27.5193 6.10536 27.265 6 26.9998 6H13.666" stroke="#1C1C1E" stroke-width="3" stroke-linecap="round" stroke-linejoin="round"/>
</svg>
