<svg width="32" height="32" viewBox="0 0 32 32" fill="none" xmlns="http://www.w3.org/2000/svg">
<path d="M3 20H3.9325C5.61375 20 7.03125 18.625 7 16.9425C6.98494 16.1569 6.66223 15.4085 6.10125 14.8583C5.54026 14.308 4.78579 13.9999 4 14H3V11H29V23C29 23.2652 28.8946 23.5196 28.7071 23.7071C28.5196 23.8946 28.2652 24 28 24H3V20Z" stroke="#1C1C1E" stroke-width="3" stroke-linecap="round" stroke-linejoin="round"/>
<path d="M3 11L23 5C24.5913 5 26.1174 5.63214 27.2426 6.75736C28.3679 7.88258 29 9.4087 29 11" stroke="#1C1C1E" stroke-width="3" stroke-linecap="round" stroke-linejoin="round"/>
<path d="M17.5 11V13C17.5 13.9283 17.8687 14.8185 18.5251 15.4749C19.1815 16.1313 20.0717 16.5 21 16.5C21.9283 16.5 22.8185 16.1313 23.4749 15.4749C24.1313 14.8185 24.5 13.9283 24.5 13V11" stroke="#1C1C1E" stroke-width="3" stroke-linecap="round" stroke-linejoin="round"/>
<path d="M10.5 24V22.5C10.5 21.5717 10.8687 20.6815 11.5251 20.0251C12.1815 19.3687 13.0717 19 14 19C14.9283 19 15.8185 19.3687 16.4749 20.0251C17.1313 20.6815 17.5 21.5717 17.5 22.5V24" stroke="#1C1C1E" stroke-width="3" stroke-linecap="round" stroke-linejoin="round"/>
</svg>
