<svg width="32" height="32" viewBox="0 0 32 32" fill="none" xmlns="http://www.w3.org/2000/svg">
<path d="M28 17H4C3.44772 17 3 17.4477 3 18V22C3 22.5523 3.44772 23 4 23H28C28.5523 23 29 22.5523 29 22V18C29 17.4477 28.5523 17 28 17Z" stroke="#1C1C1E" stroke-width="3" stroke-linecap="round" stroke-linejoin="round"/>
<path d="M11 23V17" stroke="#1C1C1E" stroke-width="3" stroke-linecap="round" stroke-linejoin="round"/>
<path d="M26.5 12.5C26.5 12.5 24.25 11.55 26.5 7.75C28.75 3.95 26.5 3 26.5 3" stroke="#1C1C1E" stroke-width="3" stroke-linecap="round" stroke-linejoin="round"/>
<path d="M20.5 12.5C20.5 12.5 18.25 11.55 20.5 7.75C22.75 3.95 20.5 3 20.5 3" stroke="#1C1C1E" stroke-width="3" stroke-linecap="round" stroke-linejoin="round"/>
</svg>
