<svg width="32" height="32" viewBox="0 0 32 32" fill="none" xmlns="http://www.w3.org/2000/svg">
<path d="M9.75 13.5C11.8211 13.5 13.5 11.8211 13.5 9.75C13.5 7.67893 11.8211 6 9.75 6C7.67893 6 6 7.67893 6 9.75C6 11.8211 7.67893 13.5 9.75 13.5Z" stroke="#1C1C1E" stroke-width="3" stroke-linecap="round" stroke-linejoin="round"/>
<path d="M22.25 13.5C24.3211 13.5 26 11.8211 26 9.75C26 7.67893 24.3211 6 22.25 6C20.1789 6 18.5 7.67893 18.5 9.75C18.5 11.8211 20.1789 13.5 22.25 13.5Z" stroke="#1C1C1E" stroke-width="3" stroke-linecap="round" stroke-linejoin="round"/>
<path d="M9.75 26C11.8211 26 13.5 24.3211 13.5 22.25C13.5 20.1789 11.8211 18.5 9.75 18.5C7.67893 18.5 6 20.1789 6 22.25C6 24.3211 7.67893 26 9.75 26Z" stroke="#1C1C1E" stroke-width="3" stroke-linecap="round" stroke-linejoin="round"/>
<path d="M22.25 26C24.3211 26 26 24.3211 26 22.25C26 20.1789 24.3211 18.5 22.25 18.5C20.1789 18.5 18.5 20.1789 18.5 22.25C18.5 24.3211 20.1789 26 22.25 26Z" stroke="#1C1C1E" stroke-width="3" stroke-linecap="round" stroke-linejoin="round"/>
</svg>
