<svg width="32" height="32" viewBox="0 0 32 32" fill="none" xmlns="http://www.w3.org/2000/svg">
<path d="M28 17C27.4912 23.16 22.2913 28 16 28C12.8174 28 9.76516 26.7357 7.51472 24.4853C5.26428 22.2348 4 19.1826 4 16C4 9.70875 8.84 4.50875 15 4" stroke="#1C1C1E" stroke-width="3" stroke-linecap="round" stroke-linejoin="round"/>
<path d="M16 9.5V16H22.5" stroke="#1C1C1E" stroke-width="3" stroke-linecap="round" stroke-linejoin="round"/>
<path d="M26 12C27.1046 12 28 11.1046 28 10C28 8.89543 27.1046 8 26 8C24.8954 8 24 8.89543 24 10C24 11.1046 24.8954 12 26 12Z" fill="#1C1C1E"/>
<path d="M22 8C23.1046 8 24 7.10457 24 6C24 4.89543 23.1046 4 22 4C20.8954 4 20 4.89543 20 6C20 7.10457 20.8954 8 22 8Z" fill="#1C1C1E"/>
</svg>
