<svg width="32" height="32" viewBox="0 0 32 32" fill="none" xmlns="http://www.w3.org/2000/svg">
<path d="M22 13L16 16V9" stroke="#1C1C1E" stroke-width="3" stroke-linecap="round" stroke-linejoin="round"/>
<path d="M20 28C20.4588 26.275 22.075 25 24 25C25.925 25 27.5412 26.275 28 28" stroke="#1C1C1E" stroke-width="3" stroke-linecap="round" stroke-linejoin="round"/>
<path d="M24 25C25.6569 25 27 23.6569 27 22C27 20.3431 25.6569 19 24 19C22.3431 19 21 20.3431 21 22C21 23.6569 22.3431 25 24 25Z" stroke="#1C1C1E" stroke-width="3" stroke-linecap="round" stroke-linejoin="round"/>
<path d="M14.5001 27.9076C12.2725 27.6266 10.1684 26.7263 8.42698 25.3089C6.68558 23.8916 5.37676 22.0141 4.64928 19.89C3.9218 17.7658 3.80486 15.4802 4.31175 13.2929C4.81864 11.1056 5.92902 9.10432 7.51667 7.51667C9.10432 5.92902 11.1056 4.81864 13.2929 4.31175C15.4802 3.80486 17.7658 3.9218 19.89 4.64928C22.0141 5.37676 23.8916 6.68558 25.3089 8.42698C26.7263 10.1684 27.6266 12.2725 27.9076 14.5001" stroke="#1C1C1E" stroke-width="3" stroke-linecap="round" stroke-linejoin="round"/>
</svg>
