<svg width="32" height="32" viewBox="0 0 32 32" fill="none" xmlns="http://www.w3.org/2000/svg">
<path d="M10.5002 26H9.00015C8.0076 25.9988 7.02666 25.7865 6.12242 25.3772C5.21817 24.9679 4.4113 24.3711 3.75535 23.6262C3.09939 22.8813 2.60934 22.0054 2.31773 21.0566C2.02611 20.1079 1.9396 19.108 2.06392 18.1232C2.18824 17.1385 2.52055 16.1915 3.03881 15.345C3.55707 14.4985 4.24942 13.7718 5.06993 13.2133C5.89044 12.6548 6.82034 12.2772 7.79793 12.1055C8.77552 11.9338 9.77844 11.972 10.7402 12.2175" stroke="#1C1C1E" stroke-width="3" stroke-linecap="round" stroke-linejoin="round"/>
<path d="M15 22L19 26L23 22" stroke="#1C1C1E" stroke-width="3" stroke-linecap="round" stroke-linejoin="round"/>
<path d="M19 16V26" stroke="#1C1C1E" stroke-width="3" stroke-linecap="round" stroke-linejoin="round"/>
<path d="M10 16C10.0007 14.4905 10.3431 13.0007 11.0015 11.6424C11.6599 10.2841 12.6173 9.09247 13.8019 8.15687C14.9865 7.22127 16.3675 6.56599 17.8414 6.24015C19.3153 5.91431 20.8439 5.92638 22.3124 6.27544C23.781 6.6245 25.1515 7.3015 26.3212 8.25568C27.4908 9.20986 28.4293 10.4165 29.0662 11.785C29.7032 13.1535 30.022 14.6485 29.9988 16.1578C29.9757 17.6672 29.6111 19.1516 28.9325 20.5" stroke="#1C1C1E" stroke-width="3" stroke-linecap="round" stroke-linejoin="round"/>
</svg>
