<svg width="32" height="32" viewBox="0 0 32 32" fill="none" xmlns="http://www.w3.org/2000/svg">
<path d="M21 28C22.1046 28 23 27.1046 23 26C23 24.8954 22.1046 24 21 24C19.8954 24 19 24.8954 19 26C19 27.1046 19.8954 28 21 28Z" fill="#1C1C1E"/>
<path d="M15 28C16.1046 28 17 27.1046 17 26C17 24.8954 16.1046 24 15 24C13.8954 24 13 24.8954 13 26C13 27.1046 13.8954 28 15 28Z" fill="#1C1C1E"/>
<path d="M9 28C10.1046 28 11 27.1046 11 26C11 24.8954 10.1046 24 9 24C7.89543 24 7 24.8954 7 26C7 27.1046 7.89543 28 9 28Z" fill="#1C1C1E"/>
<path d="M11.0006 11.0003C11.0968 9.34178 11.6764 7.74766 12.6681 6.41473C13.6598 5.08179 15.02 4.06838 16.581 3.49955C18.1419 2.93073 19.8352 2.83138 21.452 3.21378C23.0687 3.59617 24.5382 4.44357 25.6789 5.6514C26.8196 6.85923 27.5817 8.37463 27.8712 10.0106C28.1607 11.6465 27.9648 13.3314 27.3078 14.8573C26.6507 16.3833 25.5613 17.6834 24.1739 18.5974C22.7866 19.5113 21.1619 19.999 19.5006 20.0004H9.50058C8.70265 19.9996 7.91445 19.8252 7.19066 19.4893C6.46687 19.1534 5.82483 18.6641 5.30909 18.0552C4.79336 17.4464 4.41628 16.7326 4.20402 15.9634C3.99177 15.1942 3.94941 14.3881 4.07991 13.6009C4.2104 12.8137 4.51061 12.0643 4.95971 11.4048C5.40881 10.7452 5.99604 10.1913 6.68065 9.78143C7.36526 9.37156 8.13086 9.11555 8.92432 9.03118C9.71777 8.94681 10.5201 9.0361 11.2756 9.29285" stroke="#1C1C1E" stroke-width="3" stroke-linecap="round" stroke-linejoin="round"/>
</svg>
