<svg width="32" height="32" viewBox="0 0 32 32" fill="none" xmlns="http://www.w3.org/2000/svg">
<path d="M13.0006 18.0004C13.0968 16.3418 13.6764 14.7477 14.6681 13.4147C15.6598 12.0818 17.02 11.0684 18.581 10.4996C20.1419 9.93073 21.8352 9.83138 23.452 10.2138C25.0687 10.5962 26.5382 11.4436 27.6789 12.6514C28.8196 13.8592 29.5817 15.3746 29.8712 17.0106C30.1607 18.6465 29.9648 20.3314 29.3078 21.8573C28.6507 23.3833 27.5613 24.6834 26.1739 25.5974C24.7866 26.5113 23.1619 26.999 21.5006 27.0004H11.5006C10.7027 26.9996 9.91445 26.8252 9.19066 26.4893C8.46687 26.1534 7.82483 25.6641 7.30909 25.0552C6.79336 24.4464 6.41628 23.7326 6.20402 22.9634C5.99177 22.1942 5.94941 21.3881 6.07991 20.6009C6.2104 19.8137 6.51061 19.0643 6.95971 18.4048C7.40881 17.7452 7.99604 17.1913 8.68065 16.7814C9.36526 16.3716 10.1309 16.1156 10.9243 16.0312C11.7178 15.9468 12.5201 16.0361 13.2756 16.2929" stroke="#1C1C1E" stroke-width="3" stroke-linecap="round" stroke-linejoin="round"/>
<path d="M8.04715 17.2184C6.96268 16.6985 6.00906 15.9413 5.25693 15.0029C4.50479 14.0644 3.97341 12.9688 3.70215 11.7971C5.02413 12.1004 6.40147 12.0628 7.70497 11.688C9.00847 11.3133 10.1954 10.6135 11.1545 9.65448C12.1135 8.69542 12.8133 7.50847 13.188 6.20497C13.5628 4.90147 13.6004 3.52413 13.2971 2.20215C15.0605 2.60875 16.6339 3.6012 17.7605 5.01743C18.887 6.43367 19.5001 8.19001 19.4996 9.99965C19.4996 10.0784 19.4996 10.1584 19.4996 10.2371" stroke="#1C1C1E" stroke-width="3" stroke-linecap="round" stroke-linejoin="round"/>
</svg>
