<svg width="32" height="32" viewBox="0 0 32 32" fill="none" xmlns="http://www.w3.org/2000/svg">
<path d="M15 24.5H9" stroke="#1C1C1E" stroke-width="3" stroke-linecap="round" stroke-linejoin="round"/>
<path d="M23 24.5H20" stroke="#1C1C1E" stroke-width="3" stroke-linecap="round" stroke-linejoin="round"/>
<path d="M20 29H13" stroke="#1C1C1E" stroke-width="3" stroke-linecap="round" stroke-linejoin="round"/>
<path d="M11.5005 12C11.5005 10.4178 11.9696 8.87103 12.8487 7.55544C13.7278 6.23985 14.9772 5.21447 16.439 4.60897C17.9008 4.00347 19.5093 3.84504 21.0612 4.15372C22.613 4.4624 24.0385 5.22433 25.1573 6.34315C26.2761 7.46197 27.0381 8.88743 27.3467 10.4393C27.6554 11.9911 27.497 13.5997 26.8915 15.0615C26.286 16.5233 25.2606 17.7727 23.945 18.6518C22.6294 19.5308 21.0827 20 19.5005 20H9.50046C8.75081 19.9995 8.01088 19.8304 7.3354 19.5053C6.65993 19.1802 6.06621 18.7073 5.59817 18.1217C5.13013 17.5362 4.79975 16.8528 4.63149 16.1223C4.46322 15.3918 4.46138 14.6328 4.62608 13.9015C4.79079 13.1701 5.11783 12.4852 5.58301 11.8973C6.04819 11.3095 6.6396 10.8337 7.31348 10.5053C7.98737 10.1769 8.72647 10.0043 9.4761 10.0001C10.2257 9.99591 10.9667 10.1604 11.6442 10.4813" stroke="#1C1C1E" stroke-width="3" stroke-linecap="round" stroke-linejoin="round"/>
</svg>
