<svg width="32" height="32" viewBox="0 0 32 32" fill="none" xmlns="http://www.w3.org/2000/svg">
<path d="M12.5002 26H9.00015C8.0076 25.9988 7.02666 25.7865 6.12242 25.3772C5.21817 24.9679 4.4113 24.3711 3.75535 23.6262C3.09939 22.8813 2.60934 22.0054 2.31773 21.0566C2.02611 20.1079 1.9396 19.108 2.06392 18.1232C2.18824 17.1385 2.52055 16.1915 3.03881 15.345C3.55707 14.4985 4.24942 13.7718 5.06993 13.2133C5.89044 12.6548 6.82034 12.2772 7.79793 12.1055C8.77552 11.9338 9.77844 11.972 10.7402 12.2175" stroke="#1C1C1E" stroke-width="3" stroke-linecap="round" stroke-linejoin="round"/>
<path d="M15.5 20L19.5 16L23.5 20" stroke="#1C1C1E" stroke-width="3" stroke-linecap="round" stroke-linejoin="round"/>
<path d="M19.5 26V16" stroke="#1C1C1E" stroke-width="3" stroke-linecap="round" stroke-linejoin="round"/>
<path d="M10 16C10.0013 14.5534 10.3164 13.1244 10.9236 11.8114C11.5308 10.4984 12.4156 9.33277 13.517 8.39495C14.6184 7.45713 15.9102 6.76943 17.3031 6.37931C18.6961 5.98918 20.1572 5.90592 21.5855 6.13527C23.0137 6.36462 24.3753 6.90112 25.5761 7.70775C26.7769 8.51438 27.7884 9.57193 28.5408 10.8074C29.2933 12.0429 29.7687 13.427 29.9343 14.8641C30.0999 16.3011 29.9517 17.757 29.5 19.1313" stroke="#1C1C1E" stroke-width="3" stroke-linecap="round" stroke-linejoin="round"/>
</svg>
