<svg width="32" height="32" viewBox="0 0 32 32" fill="none" xmlns="http://www.w3.org/2000/svg">
<path d="M10.9575 7.09172L10.4375 4.13672" stroke="#1C1C1E" stroke-width="3" stroke-linecap="round" stroke-linejoin="round"/>
<path d="M7.08641 9.55719L4.62891 7.83594" stroke="#1C1C1E" stroke-width="3" stroke-linecap="round" stroke-linejoin="round"/>
<path d="M6.09172 14.0391L3.13672 14.5603" stroke="#1C1C1E" stroke-width="3" stroke-linecap="round" stroke-linejoin="round"/>
<path d="M15.4404 8.08641L17.1604 5.62891" stroke="#1C1C1E" stroke-width="3" stroke-linecap="round" stroke-linejoin="round"/>
<path d="M12.0006 18.0004C12.0968 16.3418 12.6764 14.7477 13.6681 13.4147C14.6598 12.0818 16.02 11.0684 17.581 10.4996C19.1419 9.93073 20.8352 9.83138 22.452 10.2138C24.0687 10.5962 25.5382 11.4436 26.6789 12.6514C27.8196 13.8592 28.5817 15.3746 28.8712 17.0106C29.1607 18.6465 28.9648 20.3314 28.3078 21.8573C27.6507 23.3833 26.5613 24.6834 25.1739 25.5974C23.7866 26.5113 22.1619 26.999 20.5006 27.0004H10.5006C9.70265 26.9996 8.91445 26.8252 8.19066 26.4893C7.46687 26.1534 6.82483 25.6641 6.30909 25.0552C5.79336 24.4464 5.41628 23.7326 5.20402 22.9634C4.99177 22.1942 4.94941 21.3881 5.07991 20.6009C5.2104 19.8137 5.51061 19.0643 5.95971 18.4048C6.40881 17.7452 6.99604 17.1913 7.68065 16.7814C8.36526 16.3716 9.13086 16.1156 9.92432 16.0312C10.7178 15.9468 11.5201 16.0361 12.2756 16.2929" stroke="#1C1C1E" stroke-width="3" stroke-linecap="round" stroke-linejoin="round"/>
<path d="M7.45675 16.9191C6.89543 16.2664 6.48113 15.5005 6.242 14.6735C6.00286 13.8466 5.94449 12.9778 6.07083 12.1262C6.19718 11.2747 6.50529 10.4603 6.97424 9.73838C7.44319 9.01645 8.062 8.40389 8.78865 7.94229C9.5153 7.4807 10.3328 7.18087 11.1856 7.06317C12.0383 6.94548 12.9065 7.01267 13.731 7.26019C14.5555 7.50771 15.3171 7.92976 15.9641 8.49768C16.611 9.06559 17.1282 9.76608 17.4805 10.5516" stroke="#1C1C1E" stroke-width="3" stroke-linecap="round" stroke-linejoin="round"/>
</svg>
