<svg width="32" height="32" viewBox="0 0 32 32" fill="none" xmlns="http://www.w3.org/2000/svg">
<path d="M13.1254 22.3523C12.3513 23.0874 11.3951 23.6025 10.3554 23.8447C9.31574 24.0869 8.2303 24.0473 7.21104 23.7301C6.19177 23.4129 5.2756 22.8294 4.55703 22.04C3.83846 21.2506 3.34352 20.2837 3.12326 19.2392C2.90299 18.1947 2.96539 17.1103 3.304 16.0979C3.64262 15.0856 4.24519 14.1819 5.04956 13.4801C5.85394 12.7783 6.83098 12.3038 7.8799 12.1056C8.92883 11.9073 10.0116 11.9925 11.0167 12.3523C10.4094 11.4495 10.0592 10.3985 10.0033 9.31186C9.94748 8.22523 10.1882 7.14386 10.6996 6.1835C11.2111 5.22314 11.9741 4.41994 12.9069 3.85986C13.8398 3.29978 14.9073 3.00391 15.9954 3.00391C17.0835 3.00391 18.1511 3.29978 19.0839 3.85986C20.0167 4.41994 20.7797 5.22314 21.2912 6.1835C21.8027 7.14386 22.0434 8.22523 21.9875 9.31186C21.9317 10.3985 21.5814 11.4495 20.9742 12.3523C21.9792 11.9925 23.062 11.9073 24.1109 12.1056C25.1598 12.3038 26.1369 12.7783 26.9413 13.4801C27.7456 14.1819 28.3482 15.0856 28.6868 16.0979C29.0254 17.1103 29.0878 18.1947 28.8676 19.2392C28.6473 20.2837 28.1524 21.2506 27.4338 22.04C26.7152 22.8294 25.7991 23.4129 24.7798 23.7301C23.7605 24.0473 22.6751 24.0869 21.6354 23.8447C20.5958 23.6025 19.6396 23.0874 18.8654 22.3523L20.0004 27.9998H12.0004L13.1254 22.3523Z" stroke="#1C1C1E" stroke-width="3" stroke-linecap="round" stroke-linejoin="round"/>
</svg>
