<svg width="32" height="32" viewBox="0 0 32 32" fill="none" xmlns="http://www.w3.org/2000/svg">
<path d="M12.0317 8.50001C12.1586 7.49028 12.6657 6.56692 13.4496 5.91793C14.2335 5.26895 15.2352 4.94315 16.2509 5.00688C17.2666 5.07061 18.2198 5.51907 18.9164 6.26095C19.613 7.00283 20.0007 7.98233 20.0004 9.00001L2.40293 22.2C2.2352 22.3258 2.11125 22.5012 2.0486 22.7012C1.98596 22.9013 1.9878 23.1161 2.05385 23.3151C2.11991 23.514 2.24684 23.6872 2.4167 23.8102C2.58656 23.9331 2.79076 23.9995 3.00043 24H29.0004C29.2102 23.9997 29.4146 23.9335 29.5847 23.8107C29.7547 23.6879 29.8819 23.5147 29.9481 23.3156C30.0143 23.1166 30.0162 22.9018 29.9536 22.7015C29.891 22.5013 29.767 22.3259 29.5992 22.2L16.0004 12" stroke="#1C1C1E" stroke-width="3" stroke-linecap="round" stroke-linejoin="round"/>
</svg>
