<svg width="32" height="32" viewBox="0 0 32 32" fill="none" xmlns="http://www.w3.org/2000/svg">
<path d="M22 22C21.0718 21.994 20.1577 21.7728 19.3295 21.3537C18.5014 20.9346 17.7817 20.329 17.2272 19.5847C16.6727 18.8404 16.2984 17.9775 16.1338 17.0641C15.9692 16.1506 16.0188 15.2114 16.2786 14.3203C16.5385 13.4293 17.0016 12.6106 17.6314 11.9288C18.2612 11.247 19.0406 10.7206 19.9083 10.3911C20.776 10.0615 21.7083 9.93775 22.632 10.0295C23.5556 10.1213 24.4454 10.4261 25.2313 10.92C25.3067 10.9681 25.3937 10.9951 25.4831 10.9981C25.5726 11.0011 25.6612 10.9801 25.7397 10.9372C25.8183 10.8942 25.8838 10.8311 25.9296 10.7542C25.9754 10.6773 25.9997 10.5895 26 10.5V6C26 5.73478 25.8946 5.48043 25.7071 5.29289C25.5196 5.10536 25.2652 5 25 5H7C6.73478 5 6.48043 5.10536 6.29289 5.29289C6.10536 5.48043 6 5.73478 6 6V26C6 26.2652 6.10536 26.5196 6.29289 26.7071C6.48043 26.8946 6.73478 27 7 27H25C25.2652 27 25.5196 26.8946 25.7071 26.7071C25.8946 26.5196 26 26.2652 26 26V21.5C25.9997 21.4109 25.9756 21.3234 25.9302 21.2467C25.8848 21.1701 25.8197 21.1069 25.7417 21.0638C25.6637 21.0207 25.5756 20.9993 25.4865 21.0017C25.3974 21.0041 25.3106 21.0303 25.235 21.0775C24.2375 21.7175 23.2838 22.0512 22 22Z" stroke="#1C1C1E" stroke-width="3" stroke-linecap="round" stroke-linejoin="round"/>
</svg>
