<svg width="32" height="32" viewBox="0 0 32 32" fill="none" xmlns="http://www.w3.org/2000/svg">
<path d="M10.4125 27C8.49859 26.1218 6.87697 24.7127 5.74027 22.9401C4.60357 21.1674 3.99957 19.1058 4 17V11H26V17C26.0004 19.1058 25.3964 21.1674 24.2597 22.9401C23.123 24.7127 21.5014 26.1218 19.5875 27" stroke="#1C1C1E" stroke-width="3" stroke-linecap="round" stroke-linejoin="round"/>
<path d="M4 27H26" stroke="#1C1C1E" stroke-width="3" stroke-linecap="round" stroke-linejoin="round"/>
<path d="M25.9996 11H26.4996C27.5605 11 28.5779 11.4214 29.3281 12.1716C30.0782 12.9217 30.4996 13.9391 30.4996 15V16C30.4996 17.0609 30.0782 18.0783 29.3281 18.8284C28.5779 19.5786 27.5605 20 26.4996 20H25.5771" stroke="#1C1C1E" stroke-width="3" stroke-linecap="round" stroke-linejoin="round"/>
<path d="M10 3V6" stroke="#1C1C1E" stroke-width="3" stroke-linecap="round" stroke-linejoin="round"/>
<path d="M15 3V6" stroke="#1C1C1E" stroke-width="3" stroke-linecap="round" stroke-linejoin="round"/>
<path d="M20 3V6" stroke="#1C1C1E" stroke-width="3" stroke-linecap="round" stroke-linejoin="round"/>
</svg>
