<svg width="32" height="32" viewBox="0 0 32 32" fill="none" xmlns="http://www.w3.org/2000/svg">
<path d="M16.5 26V6C16.5 5.44772 16.0523 5 15.5 5H12.5C11.9477 5 11.5 5.44772 11.5 6V26C11.5 26.5523 11.9477 27 12.5 27H15.5C16.0523 27 16.5 26.5523 16.5 26Z" stroke="#1C1C1E" stroke-width="3" stroke-linecap="round" stroke-linejoin="round"/>
<path d="M26 26V6C26 5.44772 25.5523 5 25 5H22C21.4477 5 21 5.44772 21 6V26C21 26.5523 21.4477 27 22 27H25C25.5523 27 26 26.5523 26 26Z" stroke="#1C1C1E" stroke-width="3" stroke-linecap="round" stroke-linejoin="round"/>
<path d="M2 16H7" stroke="#1C1C1E" stroke-width="3" stroke-linecap="round" stroke-linejoin="round"/>
<path d="M4.5 13.5V18.5" stroke="#1C1C1E" stroke-width="3" stroke-linecap="round" stroke-linejoin="round"/>
</svg>
