<svg width="32" height="32" viewBox="0 0 32 32" fill="none" xmlns="http://www.w3.org/2000/svg">
<path d="M13.5 26L13.5 6C13.5 5.44772 13.0523 5 12.5 5H8C7.44772 5 7 5.44772 7 6L7 26C7 26.5523 7.44772 27 8 27H12.5C13.0523 27 13.5 26.5523 13.5 26Z" stroke="#1C1C1E" stroke-width="3" stroke-linecap="round" stroke-linejoin="round"/>
<path d="M25 26V6C25 5.44772 24.5523 5 24 5H19.5C18.9477 5 18.5 5.44772 18.5 6V26C18.5 26.5523 18.9477 27 19.5 27H24C24.5523 27 25 26.5523 25 26Z" stroke="#1C1C1E" stroke-width="3" stroke-linecap="round" stroke-linejoin="round"/>
</svg>
