<svg width="32" height="32" viewBox="0 0 32 32" fill="none" xmlns="http://www.w3.org/2000/svg">
<path d="M19.5 23.5C20.6046 23.5 21.5 22.6046 21.5 21.5C21.5 20.3954 20.6046 19.5 19.5 19.5C18.3954 19.5 17.5 20.3954 17.5 21.5C17.5 22.6046 18.3954 23.5 19.5 23.5Z" fill="#1C1C1E"/>
<path d="M11.5 22.5C12.6046 22.5 13.5 21.6046 13.5 20.5C13.5 19.3954 12.6046 18.5 11.5 18.5C10.3954 18.5 9.5 19.3954 9.5 20.5C9.5 21.6046 10.3954 22.5 11.5 22.5Z" fill="#1C1C1E"/>
<path d="M10.5 15.5C11.6046 15.5 12.5 14.6046 12.5 13.5C12.5 12.3954 11.6046 11.5 10.5 11.5C9.39543 11.5 8.5 12.3954 8.5 13.5C8.5 14.6046 9.39543 15.5 10.5 15.5Z" fill="#1C1C1E"/>
<path d="M16.5 17.5C17.6046 17.5 18.5 16.6046 18.5 15.5C18.5 14.3954 17.6046 13.5 16.5 13.5C15.3954 13.5 14.5 14.3954 14.5 15.5C14.5 16.6046 15.3954 17.5 16.5 17.5Z" fill="#1C1C1E"/>
<path d="M28 16C26.4087 16 24.8826 15.3679 23.7574 14.2426C22.6321 13.1174 22 11.5913 22 10C20.4087 10 18.8826 9.36786 17.7574 8.24264C16.6321 7.11742 16 5.5913 16 4C13.6266 4 11.3066 4.70379 9.33316 6.02236C7.35977 7.34094 5.8217 9.21509 4.91345 11.4078C4.0052 13.6005 3.76756 16.0133 4.23058 18.3411C4.6936 20.6689 5.83649 22.8071 7.51472 24.4853C9.19295 26.1635 11.3312 27.3064 13.6589 27.7694C15.9867 28.2324 18.3995 27.9948 20.5922 27.0866C22.7849 26.1783 24.6591 24.6402 25.9776 22.6668C27.2962 20.6935 28 18.3734 28 16Z" stroke="#1C1C1E" stroke-width="3" stroke-linecap="round" stroke-linejoin="round"/>
</svg>
