<svg width="32" height="32" viewBox="0 0 32 32" fill="none" xmlns="http://www.w3.org/2000/svg">
<path d="M5.5 16C10.5 24 16 24 16 24C16 24 21.5 24 26.5 16C27.5609 16 28.5783 16.4214 29.3284 17.1716C30.0786 17.9217 30.5 18.9391 30.5 20C30.5 21.0609 30.0786 22.0783 29.3284 22.8284C28.5783 23.5786 27.5609 24 26.5 24H5.5C4.43913 24 3.42172 23.5786 2.67157 22.8284C1.92143 22.0783 1.5 21.0609 1.5 20C1.5 18.9391 1.92143 17.9217 2.67157 17.1716C3.42172 16.4214 4.43913 16 5.5 16Z" stroke="#1C1C1E" stroke-width="3" stroke-linecap="round" stroke-linejoin="round"/>
<path d="M8.75781 17H23.2428" stroke="#1C1C1E" stroke-width="3" stroke-linecap="round" stroke-linejoin="round"/>
<path d="M8.25586 19.6351L10.6921 6.81635C10.724 6.64671 10.7992 6.48821 10.9105 6.35626C11.0218 6.22432 11.1653 6.12342 11.3272 6.0634C11.489 6.00337 11.6636 5.98625 11.834 6.01371C12.0044 6.04117 12.1648 6.11228 12.2996 6.2201L15.3746 8.78135C15.552 8.92336 15.7724 9.00073 15.9996 9.00073C16.2268 9.00073 16.4472 8.92336 16.6246 8.78135L19.6996 6.2201C19.8344 6.11228 19.9948 6.04117 20.1652 6.01371C20.3356 5.98625 20.5102 6.00337 20.6721 6.0634C20.8339 6.12342 20.9774 6.22432 21.0887 6.35626C21.2 6.48821 21.2752 6.64671 21.3071 6.81635L23.7496 19.6351" stroke="#1C1C1E" stroke-width="3" stroke-linecap="round" stroke-linejoin="round"/>
</svg>
