<svg width="32" height="32" viewBox="0 0 32 32" fill="none" xmlns="http://www.w3.org/2000/svg">
<path d="M24 5H8C6.34315 5 5 6.34315 5 8V24C5 25.6569 6.34315 27 8 27H24C25.6569 27 27 25.6569 27 24V8C27 6.34315 25.6569 5 24 5Z" stroke="#1C1C1E" stroke-width="3" stroke-linecap="round" stroke-linejoin="round"/>
<path d="M11 13C12.1046 13 13 12.1046 13 11C13 9.89543 12.1046 9 11 9C9.89543 9 9 9.89543 9 11C9 12.1046 9.89543 13 11 13Z" fill="#1C1C1E"/>
<path d="M16 18C17.1046 18 18 17.1046 18 16C18 14.8954 17.1046 14 16 14C14.8954 14 14 14.8954 14 16C14 17.1046 14.8954 18 16 18Z" fill="#1C1C1E"/>
<path d="M21 23C22.1046 23 23 22.1046 23 21C23 19.8954 22.1046 19 21 19C19.8954 19 19 19.8954 19 21C19 22.1046 19.8954 23 21 23Z" fill="#1C1C1E"/>
</svg>
