<svg width="32" height="32" viewBox="0 0 32 32" fill="none" xmlns="http://www.w3.org/2000/svg">
<path d="M24 5H8C6.34315 5 5 6.34315 5 8V24C5 25.6569 6.34315 27 8 27H24C25.6569 27 27 25.6569 27 24V8C27 6.34315 25.6569 5 24 5Z" stroke="#1C1C1E" stroke-width="3" stroke-linecap="round" stroke-linejoin="round"/>
<path d="M12 12.5C13.1046 12.5 14 11.6046 14 10.5C14 9.39543 13.1046 8.5 12 8.5C10.8954 8.5 10 9.39543 10 10.5C10 11.6046 10.8954 12.5 12 12.5Z" fill="#1C1C1E"/>
<path d="M20 12.5C21.1046 12.5 22 11.6046 22 10.5C22 9.39543 21.1046 8.5 20 8.5C18.8954 8.5 18 9.39543 18 10.5C18 11.6046 18.8954 12.5 20 12.5Z" fill="#1C1C1E"/>
<path d="M12 18C13.1046 18 14 17.1046 14 16C14 14.8954 13.1046 14 12 14C10.8954 14 10 14.8954 10 16C10 17.1046 10.8954 18 12 18Z" fill="#1C1C1E"/>
<path d="M20 18C21.1046 18 22 17.1046 22 16C22 14.8954 21.1046 14 20 14C18.8954 14 18 14.8954 18 16C18 17.1046 18.8954 18 20 18Z" fill="#1C1C1E"/>
<path d="M12 23.5C13.1046 23.5 14 22.6046 14 21.5C14 20.3954 13.1046 19.5 12 19.5C10.8954 19.5 10 20.3954 10 21.5C10 22.6046 10.8954 23.5 12 23.5Z" fill="#1C1C1E"/>
<path d="M20 23.5C21.1046 23.5 22 22.6046 22 21.5C22 20.3954 21.1046 19.5 20 19.5C18.8954 19.5 18 20.3954 18 21.5C18 22.6046 18.8954 23.5 20 23.5Z" fill="#1C1C1E"/>
</svg>
