<svg width="32" height="32" viewBox="0 0 32 32" fill="none" xmlns="http://www.w3.org/2000/svg">
<path d="M11.5 19C12.6046 19 13.5 18.1046 13.5 17C13.5 15.8954 12.6046 15 11.5 15C10.3954 15 9.5 15.8954 9.5 17C9.5 18.1046 10.3954 19 11.5 19Z" fill="#1C1C1E"/>
<path d="M20.5 19C21.6046 19 22.5 18.1046 22.5 17C22.5 15.8954 21.6046 15 20.5 15C19.3954 15 18.5 15.8954 18.5 17C18.5 18.1046 19.3954 19 20.5 19Z" fill="#1C1C1E"/>
<path d="M18.9337 10.1787L19.8024 6.75748C19.8648 6.5106 20.018 6.29631 20.2314 6.15731C20.4447 6.01831 20.7026 5.96481 20.9537 6.00748L25.4612 6.74998C25.6558 6.78157 25.8369 6.86941 25.9821 7.00269C26.1274 7.13596 26.2305 7.30883 26.2787 7.49998L29.9699 22.0462C30.0263 22.2749 30.0002 22.5161 29.8961 22.7274C29.7921 22.9387 29.6168 23.1065 29.4012 23.2012L21.0262 26.9137C20.8991 26.9714 20.7615 27.0024 20.622 27.0047C20.4824 27.007 20.3439 26.9806 20.215 26.9272C20.086 26.8737 19.9695 26.7944 19.8725 26.694C19.7755 26.5936 19.7002 26.4744 19.6512 26.3437L18.2012 22.4" stroke="#1C1C1E" stroke-width="3" stroke-linecap="round" stroke-linejoin="round"/>
<path d="M13.0663 10.1787L12.1913 6.75748C12.1289 6.5106 11.9757 6.29631 11.7624 6.15731C11.549 6.01831 11.2911 5.96481 11.0401 6.00748L6.53881 6.74998C6.34422 6.78157 6.16313 6.86941 6.01787 7.00269C5.8726 7.13596 5.76952 7.30883 5.72131 7.49998L2.03006 22.0437C1.97367 22.2724 1.9998 22.5136 2.10385 22.7249C2.20789 22.9362 2.38318 23.104 2.59881 23.1987L10.9738 26.9112C11.1009 26.9689 11.2385 26.9999 11.378 27.0022C11.5176 27.0045 11.6561 26.9781 11.785 26.9247C11.914 26.8712 12.0305 26.7919 12.1275 26.6915C12.2245 26.5911 12.2998 26.4719 12.3488 26.3412L13.8038 22.4" stroke="#1C1C1E" stroke-width="3" stroke-linecap="round" stroke-linejoin="round"/>
<path d="M10.5 10.6549C12.2997 10.2127 14.1468 9.99273 16 9.99993C17.8532 9.99273 19.7003 10.2127 21.5 10.6549" stroke="#1C1C1E" stroke-width="3" stroke-linecap="round" stroke-linejoin="round"/>
<path d="M21.5 21.8447C19.7003 22.2869 17.8532 22.5069 16 22.4997C14.1468 22.5069 12.2997 22.2869 10.5 21.8447" stroke="#1C1C1E" stroke-width="3" stroke-linecap="round" stroke-linejoin="round"/>
</svg>
