<svg width="32" height="32" viewBox="0 0 32 32" fill="none" xmlns="http://www.w3.org/2000/svg">
<path d="M13 5H24" stroke="#1C1C1E" stroke-width="3" stroke-linecap="round" stroke-linejoin="round"/>
<path d="M8 3V6.4375C7.99996 8.10893 8.46537 9.74734 9.34407 11.1692C10.2228 12.591 11.48 13.74 12.975 14.4875L19.025 17.5125C20.52 18.26 21.7772 19.409 22.6559 20.8308C23.5346 22.2527 24 23.8911 24 25.5625V29" stroke="#1C1C1E" stroke-width="3" stroke-linecap="round" stroke-linejoin="round"/>
<path d="M8 27H19" stroke="#1C1C1E" stroke-width="3" stroke-linecap="round" stroke-linejoin="round"/>
<path d="M8.73535 22H16.8204" stroke="#1C1C1E" stroke-width="3" stroke-linecap="round" stroke-linejoin="round"/>
<path d="M10.8337 19.0059C9.939 19.8475 9.226 20.8633 8.73865 21.9908C8.2513 23.1184 7.99993 24.3338 8 25.5621V28.9996" stroke="#1C1C1E" stroke-width="3" stroke-linecap="round" stroke-linejoin="round"/>
<path d="M23.9998 3V6.4375C24.0007 7.66691 23.7497 8.88347 23.2624 10.0121C22.775 11.1408 22.0615 12.1577 21.166 13" stroke="#1C1C1E" stroke-width="3" stroke-linecap="round" stroke-linejoin="round"/>
<path d="M15.1797 10H23.2647" stroke="#1C1C1E" stroke-width="3" stroke-linecap="round" stroke-linejoin="round"/>
</svg>
