<svg width="32" height="32" viewBox="0 0 32 32" fill="none" xmlns="http://www.w3.org/2000/svg">
<path d="M16 18.5C17.3807 18.5 18.5 17.3807 18.5 16C18.5 14.6193 17.3807 13.5 16 13.5C14.6193 13.5 13.5 14.6193 13.5 16C13.5 17.3807 14.6193 18.5 16 18.5Z" stroke="#1C1C1E" stroke-width="3" stroke-linecap="round" stroke-linejoin="round"/>
<path d="M26 18.5C27.3807 18.5 28.5 17.3807 28.5 16C28.5 14.6193 27.3807 13.5 26 13.5C24.6193 13.5 23.5 14.6193 23.5 16C23.5 17.3807 24.6193 18.5 26 18.5Z" stroke="#1C1C1E" stroke-width="3" stroke-linecap="round" stroke-linejoin="round"/>
<path d="M6 18.5C7.38071 18.5 8.5 17.3807 8.5 16C8.5 14.6193 7.38071 13.5 6 13.5C4.61929 13.5 3.5 14.6193 3.5 16C3.5 17.3807 4.61929 18.5 6 18.5Z" stroke="#1C1C1E" stroke-width="3" stroke-linecap="round" stroke-linejoin="round"/>
</svg>
