<svg width="32" height="32" viewBox="0 0 32 32" fill="none" xmlns="http://www.w3.org/2000/svg">
<path d="M7.5 13.5C8.60457 13.5 9.5 12.6046 9.5 11.5C9.5 10.3954 8.60457 9.5 7.5 9.5C6.39543 9.5 5.5 10.3954 5.5 11.5C5.5 12.6046 6.39543 13.5 7.5 13.5Z" fill="#1C1C1E"/>
<path d="M16 13.5C17.1046 13.5 18 12.6046 18 11.5C18 10.3954 17.1046 9.5 16 9.5C14.8954 9.5 14 10.3954 14 11.5C14 12.6046 14.8954 13.5 16 13.5Z" fill="#1C1C1E"/>
<path d="M24.5 13.5C25.6046 13.5 26.5 12.6046 26.5 11.5C26.5 10.3954 25.6046 9.5 24.5 9.5C23.3954 9.5 22.5 10.3954 22.5 11.5C22.5 12.6046 23.3954 13.5 24.5 13.5Z" fill="#1C1C1E"/>
<path d="M7.5 22.5C8.60457 22.5 9.5 21.6046 9.5 20.5C9.5 19.3954 8.60457 18.5 7.5 18.5C6.39543 18.5 5.5 19.3954 5.5 20.5C5.5 21.6046 6.39543 22.5 7.5 22.5Z" fill="#1C1C1E"/>
<path d="M16 22.5C17.1046 22.5 18 21.6046 18 20.5C18 19.3954 17.1046 18.5 16 18.5C14.8954 18.5 14 19.3954 14 20.5C14 21.6046 14.8954 22.5 16 22.5Z" fill="#1C1C1E"/>
<path d="M24.5 22.5C25.6046 22.5 26.5 21.6046 26.5 20.5C26.5 19.3954 25.6046 18.5 24.5 18.5C23.3954 18.5 22.5 19.3954 22.5 20.5C22.5 21.6046 23.3954 22.5 24.5 22.5Z" fill="#1C1C1E"/>
</svg>
