<svg width="32" height="32" viewBox="0 0 32 32" fill="none" xmlns="http://www.w3.org/2000/svg">
<path d="M11.5 9.5C12.6046 9.5 13.5 8.60457 13.5 7.5C13.5 6.39543 12.6046 5.5 11.5 5.5C10.3954 5.5 9.5 6.39543 9.5 7.5C9.5 8.60457 10.3954 9.5 11.5 9.5Z" fill="#1C1C1E"/>
<path d="M20.5 9.5C21.6046 9.5 22.5 8.60457 22.5 7.5C22.5 6.39543 21.6046 5.5 20.5 5.5C19.3954 5.5 18.5 6.39543 18.5 7.5C18.5 8.60457 19.3954 9.5 20.5 9.5Z" fill="#1C1C1E"/>
<path d="M11.5 18C12.6046 18 13.5 17.1046 13.5 16C13.5 14.8954 12.6046 14 11.5 14C10.3954 14 9.5 14.8954 9.5 16C9.5 17.1046 10.3954 18 11.5 18Z" fill="#1C1C1E"/>
<path d="M20.5 18C21.6046 18 22.5 17.1046 22.5 16C22.5 14.8954 21.6046 14 20.5 14C19.3954 14 18.5 14.8954 18.5 16C18.5 17.1046 19.3954 18 20.5 18Z" fill="#1C1C1E"/>
<path d="M11.5 26.5C12.6046 26.5 13.5 25.6046 13.5 24.5C13.5 23.3954 12.6046 22.5 11.5 22.5C10.3954 22.5 9.5 23.3954 9.5 24.5C9.5 25.6046 10.3954 26.5 11.5 26.5Z" fill="#1C1C1E"/>
<path d="M20.5 26.5C21.6046 26.5 22.5 25.6046 22.5 24.5C22.5 23.3954 21.6046 22.5 20.5 22.5C19.3954 22.5 18.5 23.3954 18.5 24.5C18.5 25.6046 19.3954 26.5 20.5 26.5Z" fill="#1C1C1E"/>
</svg>
