<svg width="32" height="32" viewBox="0 0 32 32" fill="none" xmlns="http://www.w3.org/2000/svg">
<path d="M7.5 9.5C8.60457 9.5 9.5 8.60457 9.5 7.5C9.5 6.39543 8.60457 5.5 7.5 5.5C6.39543 5.5 5.5 6.39543 5.5 7.5C5.5 8.60457 6.39543 9.5 7.5 9.5Z" fill="#1C1C1E"/>
<path d="M16 9.5C17.1046 9.5 18 8.60457 18 7.5C18 6.39543 17.1046 5.5 16 5.5C14.8954 5.5 14 6.39543 14 7.5C14 8.60457 14.8954 9.5 16 9.5Z" fill="#1C1C1E"/>
<path d="M24.5 9.5C25.6046 9.5 26.5 8.60457 26.5 7.5C26.5 6.39543 25.6046 5.5 24.5 5.5C23.3954 5.5 22.5 6.39543 22.5 7.5C22.5 8.60457 23.3954 9.5 24.5 9.5Z" fill="#1C1C1E"/>
<path d="M7.5 18C8.60457 18 9.5 17.1046 9.5 16C9.5 14.8954 8.60457 14 7.5 14C6.39543 14 5.5 14.8954 5.5 16C5.5 17.1046 6.39543 18 7.5 18Z" fill="#1C1C1E"/>
<path d="M16 18C17.1046 18 18 17.1046 18 16C18 14.8954 17.1046 14 16 14C14.8954 14 14 14.8954 14 16C14 17.1046 14.8954 18 16 18Z" fill="#1C1C1E"/>
<path d="M24.5 18C25.6046 18 26.5 17.1046 26.5 16C26.5 14.8954 25.6046 14 24.5 14C23.3954 14 22.5 14.8954 22.5 16C22.5 17.1046 23.3954 18 24.5 18Z" fill="#1C1C1E"/>
<path d="M7.5 26.5C8.60457 26.5 9.5 25.6046 9.5 24.5C9.5 23.3954 8.60457 22.5 7.5 22.5C6.39543 22.5 5.5 23.3954 5.5 24.5C5.5 25.6046 6.39543 26.5 7.5 26.5Z" fill="#1C1C1E"/>
<path d="M16 26.5C17.1046 26.5 18 25.6046 18 24.5C18 23.3954 17.1046 22.5 16 22.5C14.8954 22.5 14 23.3954 14 24.5C14 25.6046 14.8954 26.5 16 26.5Z" fill="#1C1C1E"/>
<path d="M24.5 26.5C25.6046 26.5 26.5 25.6046 26.5 24.5C26.5 23.3954 25.6046 22.5 24.5 22.5C23.3954 22.5 22.5 23.3954 22.5 24.5C22.5 25.6046 23.3954 26.5 24.5 26.5Z" fill="#1C1C1E"/>
</svg>
