<svg width="32" height="32" viewBox="0 0 32 32" fill="none" xmlns="http://www.w3.org/2000/svg">
<path d="M16 3V16" stroke="#1C1C1E" stroke-width="3" stroke-linecap="round" stroke-linejoin="round"/>
<path d="M10 10L16 16L22 10" stroke="#1C1C1E" stroke-width="3" stroke-linecap="round" stroke-linejoin="round"/>
<path d="M23.5 16H28C28.2652 16 28.5196 16.1054 28.7071 16.2929C28.8946 16.4804 29 16.7348 29 17V25C29 25.2652 28.8946 25.5196 28.7071 25.7071C28.5196 25.8946 28.2652 26 28 26H4C3.73478 26 3.48043 25.8946 3.29289 25.7071C3.10536 25.5196 3 25.2652 3 25V17C3 16.7348 3.10536 16.4804 3.29289 16.2929C3.48043 16.1054 3.73478 16 4 16H8.5" stroke="#1C1C1E" stroke-width="3" stroke-linecap="round" stroke-linejoin="round"/>
<path d="M23.5 23C24.6046 23 25.5 22.1046 25.5 21C25.5 19.8954 24.6046 19 23.5 19C22.3954 19 21.5 19.8954 21.5 21C21.5 22.1046 22.3954 23 23.5 23Z" fill="#1C1C1E"/>
</svg>
