<svg width="32" height="32" viewBox="0 0 32 32" fill="none" xmlns="http://www.w3.org/2000/svg">
<path d="M6 5L26 27" stroke="#1C1C1E" stroke-width="3" stroke-linecap="round" stroke-linejoin="round"/>
<path d="M20 27.0004C18.9913 28.2216 17.7075 29.0004 16 29.0004C14.5413 29.0004 13.1424 28.4209 12.1109 27.3894C11.0795 26.358 10.5 24.959 10.5 23.5004C10.5 18.3141 6.00001 20.0004 6.00001 13.0004C5.99647 10.883 6.66817 8.81977 7.91751 7.11035" stroke="#1C1C1E" stroke-width="3" stroke-linecap="round" stroke-linejoin="round"/>
<path d="M11.4288 10.9717C11.1448 11.6103 10.9987 12.3016 11 13.0004" stroke="#1C1C1E" stroke-width="3" stroke-linecap="round" stroke-linejoin="round"/>
<path d="M21.1338 21.6475C20.8335 21.8541 20.4825 21.9748 20.1186 21.9964C19.7548 22.018 19.392 21.9398 19.0694 21.7702C18.7467 21.6005 18.4766 21.346 18.2881 21.034C18.0997 20.722 18 20.3645 18 20C17.9981 19.4873 18.0914 18.9787 18.275 18.5" stroke="#1C1C1E" stroke-width="3" stroke-linecap="round" stroke-linejoin="round"/>
<path d="M11.7832 3.93035C13.3072 3.22172 14.9852 2.90864 16.6623 3.02004C18.3393 3.13144 19.9611 3.66372 21.378 4.5677C22.7949 5.47168 23.9611 6.7182 24.7689 8.19207C25.5766 9.66595 25.9998 11.3196 25.9995 13.0003" stroke="#1C1C1E" stroke-width="3" stroke-linecap="round" stroke-linejoin="round"/>
<path d="M20.8925 13.9487C20.9648 13.6377 21.0008 13.3193 21 13C21 11.6739 20.4732 10.4021 19.5355 9.46447C18.5979 8.52678 17.3261 8 16 8C15.8337 8 15.6688 8.00875 15.5 8.02375" stroke="#1C1C1E" stroke-width="3" stroke-linecap="round" stroke-linejoin="round"/>
</svg>
