<svg width="32" height="32" viewBox="0 0 32 32" fill="none" xmlns="http://www.w3.org/2000/svg">
<path d="M5 21.5V24C5 24.5523 5.44772 25 6 25H26C26.5523 25 27 24.5523 27 24V21.5C27 20.9477 26.5523 20.5 26 20.5H6C5.44772 20.5 5 20.9477 5 21.5Z" stroke="#1C1C1E" stroke-width="3" stroke-linecap="round" stroke-linejoin="round"/>
<path d="M5.2903 13.75L14.5103 4.13374C14.7031 3.93305 14.9345 3.77338 15.1905 3.66431C15.4466 3.55524 15.722 3.49902 16.0003 3.49902C16.2786 3.49902 16.554 3.55524 16.8101 3.66431C17.0661 3.77338 17.2975 3.93305 17.4903 4.13374L26.7103 13.75C26.851 13.8964 26.9455 14.0811 26.9819 14.2809C27.0183 14.4807 26.9951 14.6868 26.9151 14.8735C26.8351 15.0601 26.7019 15.2191 26.5321 15.3305C26.3623 15.442 26.1634 15.5009 25.9603 15.5H6.03405C5.83149 15.4997 5.63349 15.4398 5.46464 15.3279C5.29579 15.216 5.16354 15.057 5.08431 14.8706C5.00508 14.6842 4.98237 14.4786 5.01899 14.2793C5.05561 14.0801 5.14995 13.896 5.2903 13.75Z" stroke="#1C1C1E" stroke-width="3" stroke-linecap="round" stroke-linejoin="round"/>
</svg>
