<svg width="32" height="32" viewBox="0 0 32 32" fill="none" xmlns="http://www.w3.org/2000/svg">
<path d="M11.5 12.5H20.5" stroke="#1C1C1E" stroke-width="3" stroke-linecap="round" stroke-linejoin="round"/>
<path d="M11.5 17.5H20.5" stroke="#1C1C1E" stroke-width="3" stroke-linecap="round" stroke-linejoin="round"/>
<path d="M26.1758 19H27.4995C28.2952 19 29.0582 18.6839 29.6209 18.1213C30.1835 17.5587 30.4995 16.7956 30.4995 16V13C30.4995 12.2044 30.1835 11.4413 29.6209 10.8787C29.0582 10.3161 28.2952 10 27.4995 10H26.4995" stroke="#1C1C1E" stroke-width="3" stroke-linecap="round" stroke-linejoin="round"/>
<path d="M5.82375 19H4.5C3.70435 19 2.94129 18.6839 2.37868 18.1213C1.81607 17.5587 1.5 16.7956 1.5 16V13C1.5 12.2044 1.81607 11.4413 2.37868 10.8787C2.94129 10.3161 3.70435 10 4.5 10H5.5" stroke="#1C1C1E" stroke-width="3" stroke-linecap="round" stroke-linejoin="round"/>
<path d="M5.99969 9.59997C5.99934 9.40048 6.05867 9.20545 6.17005 9.03995C6.28142 8.87444 6.43976 8.74603 6.62469 8.67122L15.6247 5.07122C15.863 4.97593 16.1289 4.97593 16.3672 5.07122L25.3672 8.67122C25.5521 8.74603 25.7105 8.87444 25.8218 9.03995C25.9332 9.20545 25.9925 9.40048 25.9922 9.59997V17C25.9922 24 15.9922 26 15.9922 26C15.9922 26 5.99219 24 5.99219 17L5.99969 9.59997Z" stroke="#1C1C1E" stroke-width="3" stroke-linecap="round" stroke-linejoin="round"/>
</svg>
