<svg width="32" height="32" viewBox="0 0 32 32" fill="none" xmlns="http://www.w3.org/2000/svg">
<path d="M16 28C22.6274 28 28 22.6274 28 16C28 9.37258 22.6274 4 16 4C9.37258 4 4 9.37258 4 16C4 22.6274 9.37258 28 16 28Z" stroke="#1C1C1E" stroke-width="3" stroke-linecap="round" stroke-linejoin="round"/>
<path d="M20.3228 9.7925C20.1947 9.55308 20.004 9.3529 19.7711 9.21333C19.5382 9.07376 19.2718 9.00003 19.0003 9H13.0003C12.7285 8.9996 12.4618 9.07302 12.2285 9.21242C11.9953 9.35182 11.8043 9.55196 11.6759 9.79147C11.5476 10.031 11.4867 10.3009 11.4998 10.5723C11.5129 10.8437 11.5995 11.1065 11.7503 11.3325L14.7503 15.8325C14.8871 16.0388 15.0728 16.208 15.291 16.325C15.5091 16.4421 15.7527 16.5033 16.0003 16.5033C16.2478 16.5033 16.4915 16.4421 16.7096 16.325C16.9277 16.208 17.1134 16.0388 17.2503 15.8325L20.2503 11.3325C20.4006 11.1064 20.4867 10.8437 20.4995 10.5725C20.5123 10.3013 20.4512 10.0317 20.3228 9.7925Z" fill="#1C1C1E"/>
<path d="M24.3228 15.7925C24.1947 15.5531 24.004 15.3529 23.7711 15.2133C23.5382 15.0738 23.2718 15 23.0003 15H17.0003C16.7285 14.9996 16.4618 15.073 16.2285 15.2124C15.9953 15.3518 15.8043 15.552 15.6759 15.7915C15.5476 16.031 15.4867 16.3009 15.4998 16.5723C15.5129 16.8437 15.5995 17.1065 15.7503 17.3325L18.7503 21.8325C18.8871 22.0388 19.0728 22.208 19.291 22.325C19.5091 22.4421 19.7527 22.5033 20.0003 22.5033C20.2478 22.5033 20.4915 22.4421 20.7096 22.325C20.9277 22.208 21.1134 22.0388 21.2503 21.8325L24.2503 17.3325C24.4006 17.1064 24.4867 16.8437 24.4995 16.5725C24.5123 16.3013 24.4512 16.0317 24.3228 15.7925Z" fill="#1C1C1E"/>
<path d="M16.3228 15.7925C16.1947 15.5531 16.004 15.3529 15.7711 15.2133C15.5382 15.0738 15.2718 15 15.0003 15H9.00027C8.72854 14.9996 8.4618 15.073 8.22855 15.2124C7.99529 15.3518 7.80429 15.552 7.67593 15.7915C7.54758 16.031 7.4867 16.3009 7.49979 16.5723C7.51288 16.8437 7.59946 17.1065 7.75027 17.3325L10.7503 21.8325C10.8871 22.0388 11.0728 22.208 11.291 22.325C11.5091 22.4421 11.7527 22.5033 12.0003 22.5033C12.2478 22.5033 12.4915 22.4421 12.7096 22.325C12.9277 22.208 13.1134 22.0388 13.2503 21.8325L16.2503 17.3325C16.4006 17.1064 16.4867 16.8437 16.4995 16.5725C16.5123 16.3013 16.4512 16.0317 16.3228 15.7925Z" fill="#1C1C1E"/>
</svg>
