<svg width="32" height="32" viewBox="0 0 32 32" fill="none" xmlns="http://www.w3.org/2000/svg">
<path d="M16 17.75C20.092 15.9303 24.5216 14.9933 29 15" stroke="#1C1C1E" stroke-width="3" stroke-linecap="round" stroke-linejoin="round"/>
<path d="M3 15C7.79792 14.9953 12.5352 16.0717 16.8601 18.1492C21.1849 20.2266 24.9861 23.2518 27.9813 27" stroke="#1C1C1E" stroke-width="3" stroke-linecap="round" stroke-linejoin="round"/>
<path d="M10 15.7675V10L18 4L26 10V15.1388" stroke="#1C1C1E" stroke-width="3" stroke-linecap="round" stroke-linejoin="round"/>
<path d="M15 17.3263V12H21V16.0075" stroke="#1C1C1E" stroke-width="3" stroke-linecap="round" stroke-linejoin="round"/>
<path d="M3 20C9.70749 19.9904 16.1766 22.487 21.1388 27" stroke="#1C1C1E" stroke-width="3" stroke-linecap="round" stroke-linejoin="round"/>
<path d="M3 25C6.16776 24.9956 9.29882 25.6779 12.1775 27" stroke="#1C1C1E" stroke-width="3" stroke-linecap="round" stroke-linejoin="round"/>
<path d="M21.6689 21.0075C24.0549 20.337 26.5218 19.998 29.0002 20" stroke="#1C1C1E" stroke-width="3" stroke-linecap="round" stroke-linejoin="round"/>
</svg>
