<svg width="32" height="32" viewBox="0 0 32 32" fill="none" xmlns="http://www.w3.org/2000/svg">
<path d="M4.5 8.98119V23.0187C4.50153 23.1954 4.5504 23.3685 4.64154 23.52C4.73268 23.6714 4.86275 23.7957 5.0182 23.8798C5.17366 23.9639 5.34882 24.0048 5.52545 23.9982C5.70208 23.9917 5.87372 23.9379 6.0225 23.8424L17.0462 16.8237C17.1851 16.7357 17.2995 16.6141 17.3788 16.4701C17.4581 16.3261 17.4997 16.1643 17.4997 15.9999C17.4997 15.8355 17.4581 15.6738 17.3788 15.5298C17.2995 15.3858 17.1851 15.2641 17.0462 15.1762L6.0225 8.15744C5.87372 8.06202 5.70208 8.00823 5.52545 8.00166C5.34882 7.99509 5.17366 8.03599 5.0182 8.1201C4.86275 8.20421 4.73268 8.32846 4.64154 8.4799C4.5504 8.63134 4.50153 8.80445 4.5 8.98119Z" stroke="#1C1C1E" stroke-width="3" stroke-linecap="round" stroke-linejoin="round"/>
<path d="M17.5 8.98119V23.0187C17.5015 23.1954 17.5504 23.3685 17.6415 23.52C17.7327 23.6714 17.8627 23.7957 18.0182 23.8798C18.1737 23.9639 18.3488 24.0048 18.5254 23.9982C18.7021 23.9917 18.8737 23.9379 19.0225 23.8424L30.0462 16.8237C30.1851 16.7357 30.2995 16.6141 30.3788 16.4701C30.4581 16.3261 30.4997 16.1643 30.4997 15.9999C30.4997 15.8355 30.4581 15.6738 30.3788 15.5298C30.2995 15.3858 30.1851 15.2641 30.0462 15.1762L19.0225 8.15744C18.8737 8.06202 18.7021 8.00823 18.5254 8.00166C18.3488 7.99509 18.1737 8.03599 18.0182 8.1201C17.8627 8.20421 17.7327 8.32846 17.6415 8.4799C17.5504 8.63134 17.5015 8.80445 17.5 8.98119Z" stroke="#1C1C1E" stroke-width="3" stroke-linecap="round" stroke-linejoin="round"/>
</svg>
