<svg width="32" height="32" viewBox="0 0 32 32" fill="none" xmlns="http://www.w3.org/2000/svg">
<path d="M23.9375 14.8286L18.9375 10.8286C18.7169 10.6519 18.4508 10.5412 18.17 10.5092C17.8892 10.4771 17.6051 10.5251 17.3503 10.6475C17.0956 10.7699 16.8806 10.9618 16.7302 11.2011C16.5797 11.4403 16.4999 11.7172 16.5 11.9998V19.9998C16.4999 20.2825 16.5797 20.5593 16.7302 20.7986C16.8806 21.0379 17.0956 21.2297 17.3503 21.3522C17.6051 21.4746 17.8892 21.5225 18.17 21.4905C18.4508 21.4584 18.7169 21.3477 18.9375 21.1711L23.9375 17.1711C24.1131 17.0305 24.2549 16.8523 24.3524 16.6496C24.4498 16.4468 24.5004 16.2248 24.5004 15.9998C24.5004 15.7749 24.4498 15.5528 24.3524 15.3501C24.2549 15.1473 24.1131 14.9691 23.9375 14.8286Z" fill="#1C1C1E"/>
<path d="M16.9375 14.8286L11.9375 10.8286C11.7169 10.6519 11.4508 10.5412 11.17 10.5092C10.8892 10.4771 10.6051 10.5251 10.3503 10.6475C10.0956 10.7699 9.88062 10.9618 9.73018 11.2011C9.57973 11.4403 9.49994 11.7172 9.5 11.9998V19.9998C9.49994 20.2825 9.57973 20.5593 9.73018 20.7986C9.88062 21.0379 10.0956 21.2297 10.3503 21.3522C10.6051 21.4746 10.8892 21.5225 11.17 21.4905C11.4508 21.4584 11.7169 21.3477 11.9375 21.1711L16.9375 17.1711C17.1131 17.0305 17.2549 16.8523 17.3524 16.6496C17.4498 16.4468 17.5004 16.2248 17.5004 15.9998C17.5004 15.7749 17.4498 15.5528 17.3524 15.3501C17.2549 15.1473 17.1131 14.9691 16.9375 14.8286Z" fill="#1C1C1E"/>
<path d="M16 28C22.6274 28 28 22.6274 28 16C28 9.37258 22.6274 4 16 4C9.37258 4 4 9.37258 4 16C4 22.6274 9.37258 28 16 28Z" stroke="#1C1C1E" stroke-width="3" stroke-linecap="round" stroke-linejoin="round"/>
</svg>
