<svg width="32" height="32" viewBox="0 0 32 32" fill="none" xmlns="http://www.w3.org/2000/svg">
<path d="M21 20C23.2091 20 25 18.2091 25 16C25 13.7909 23.2091 12 21 12C18.7909 12 17 13.7909 17 16C17 18.2091 18.7909 20 21 20Z" stroke="#1C1C1E" stroke-width="3" stroke-linecap="round" stroke-linejoin="round"/>
<path d="M17 12H21C22.0609 12 23.0783 11.5786 23.8284 10.8284C24.5786 10.0783 25 9.06087 25 8C25 6.93913 24.5786 5.92172 23.8284 5.17157C23.0783 4.42143 22.0609 4 21 4H17" stroke="#1C1C1E" stroke-width="3" stroke-linecap="round" stroke-linejoin="round"/>
<path d="M17 4H12C10.9391 4 9.92172 4.42143 9.17157 5.17157C8.42143 5.92172 8 6.93913 8 8C8 9.06087 8.42143 10.0783 9.17157 10.8284C9.92172 11.5786 10.9391 12 12 12H17V4Z" stroke="#1C1C1E" stroke-width="3" stroke-linecap="round" stroke-linejoin="round"/>
<path d="M17 12H12C10.9391 12 9.92172 12.4214 9.17157 13.1716C8.42143 13.9217 8 14.9391 8 16C8 17.0609 8.42143 18.0783 9.17157 18.8284C9.92172 19.5786 10.9391 20 12 20H17V12Z" stroke="#1C1C1E" stroke-width="3" stroke-linecap="round" stroke-linejoin="round"/>
<path d="M17 20H12.5C11.61 20 10.74 20.2639 9.99994 20.7584C9.25992 21.2529 8.68314 21.9557 8.34254 22.7779C8.00195 23.6002 7.91283 24.505 8.08647 25.3779C8.2601 26.2508 8.68869 27.0526 9.31802 27.682C9.94736 28.3113 10.7492 28.7399 11.6221 28.9135C12.495 29.0872 13.3998 28.9981 14.2221 28.6575C15.0443 28.3169 15.7471 27.7401 16.2416 27.0001C16.7361 26.26 17 25.39 17 24.5V20Z" stroke="#1C1C1E" stroke-width="3" stroke-linecap="round" stroke-linejoin="round"/>
</svg>
