<svg width="32" height="32" viewBox="0 0 32 32" fill="none" xmlns="http://www.w3.org/2000/svg">
<path d="M22.5 28H25C25.2652 28 25.5196 27.8946 25.7071 27.7071C25.8946 27.5196 26 27.2652 26 27V11L19 4H7C6.73478 4 6.48043 4.10536 6.29289 4.29289C6.10536 4.48043 6 4.73478 6 5V13.5" stroke="#1C1C1E" stroke-width="3" stroke-linecap="round" stroke-linejoin="round"/>
<path d="M18.5 4V11.5H26" stroke="#1C1C1E" stroke-width="3" stroke-linecap="round" stroke-linejoin="round"/>
<path d="M17.4874 19.2002C17.4874 19.2002 13.8087 18.2277 13.5124 20.5752C13.2162 22.9227 18.3162 21.8402 17.9849 24.4152C17.6762 26.8102 14.0124 25.7902 14.0124 25.7902" stroke="#1C1C1E" stroke-width="3" stroke-linecap="round" stroke-linejoin="round"/>
<path d="M4.5 23.75C4.5 24.3467 4.73705 24.919 5.15901 25.341C5.58097 25.7629 6.15326 26 6.75 26C7.34674 26 7.91903 25.7629 8.34099 25.341C8.76295 24.919 9 24.3467 9 23.75V19" stroke="#1C1C1E" stroke-width="3" stroke-linecap="round" stroke-linejoin="round"/>
</svg>
