<svg width="32" height="32" viewBox="0 0 32 32" fill="none" xmlns="http://www.w3.org/2000/svg">
<path d="M18.5 4V11.5H26" stroke="#1C1C1E" stroke-width="3" stroke-linecap="round" stroke-linejoin="round"/>
<path d="M6 13.5V5C6 4.73478 6.10536 4.48043 6.29289 4.29289C6.48043 4.10536 6.73478 4 7 4H19L26 11V13.5" stroke="#1C1C1E" stroke-width="3" stroke-linecap="round" stroke-linejoin="round"/>
<path d="M8.98743 19.2002C8.98743 19.2002 5.30868 18.2277 5.01243 20.5752C4.71618 22.9227 9.81618 21.8402 9.48493 24.4152C9.17618 26.8102 5.51243 25.7902 5.51243 25.7902" stroke="#1C1C1E" stroke-width="3" stroke-linecap="round" stroke-linejoin="round"/>
<path d="M13 19L15.5 26L18 19" stroke="#1C1C1E" stroke-width="3" stroke-linecap="round" stroke-linejoin="round"/>
<path d="M26 23.5H26.5V25.1087C26.2449 25.3856 25.9359 25.6075 25.592 25.7608C25.2481 25.914 24.8765 25.9954 24.5 26C22.8438 26 21.5 24.4325 21.5 22.5C21.5 20.5675 22.8438 19 24.5 19C25.0358 19.0016 25.5586 19.165 26 19.4688" stroke="#1C1C1E" stroke-width="3" stroke-linecap="round" stroke-linejoin="round"/>
</svg>
