<svg width="32" height="32" viewBox="0 0 32 32" fill="none" xmlns="http://www.w3.org/2000/svg">
<path d="M18.5 4V11.5H26" stroke="#1C1C1E" stroke-width="3" stroke-linecap="round" stroke-linejoin="round"/>
<path d="M6 13.5V5C6 4.73478 6.10536 4.48043 6.29289 4.29289C6.48043 4.10536 6.73478 4 7 4H19L26 11V13.5" stroke="#1C1C1E" stroke-width="3" stroke-linecap="round" stroke-linejoin="round"/>
<path d="M9.5 25.1087C9.24488 25.3856 8.93589 25.6075 8.59198 25.7608C8.24807 25.914 7.87648 25.9954 7.5 26C5.8425 26 4.5 24.4325 4.5 22.5C4.5 20.5675 5.8425 19 7.5 19C7.87648 19.0046 8.24807 19.086 8.59198 19.2392C8.93589 19.3925 9.24488 19.6144 9.5 19.8913" stroke="#1C1C1E" stroke-width="3" stroke-linecap="round" stroke-linejoin="round"/>
<path d="M17.4874 19.1997C17.4874 19.1997 13.8087 18.2272 13.5124 20.5747C13.2162 22.9222 18.3162 21.8397 17.9849 24.4147C17.6762 26.8097 14.0124 25.7897 14.0124 25.7897" stroke="#1C1C1E" stroke-width="3" stroke-linecap="round" stroke-linejoin="round"/>
<path d="M21.5 19L24 26L26.5 19" stroke="#1C1C1E" stroke-width="3" stroke-linecap="round" stroke-linejoin="round"/>
</svg>
