<svg width="32" height="32" viewBox="0 0 32 32" fill="none" xmlns="http://www.w3.org/2000/svg">
<path d="M18.5 4V11.5H26" stroke="#1C1C1E" stroke-width="3" stroke-linecap="round" stroke-linejoin="round"/>
<path d="M6 13.5V5C6 4.73478 6.10536 4.48043 6.29289 4.29289C6.48043 4.10536 6.73478 4 7 4H19L26 11V13.5" stroke="#1C1C1E" stroke-width="3" stroke-linecap="round" stroke-linejoin="round"/>
<path d="M4 19V26H6C6.92826 26 7.8185 25.6313 8.47487 24.9749C9.13125 24.3185 9.5 23.4283 9.5 22.5C9.5 21.5717 9.13125 20.6815 8.47487 20.0251C7.8185 19.3687 6.92826 19 6 19H4Z" stroke="#1C1C1E" stroke-width="3" stroke-linecap="round" stroke-linejoin="round"/>
<path d="M27.5 25.1087C27.2449 25.3856 26.9359 25.6075 26.592 25.7608C26.2481 25.914 25.8765 25.9954 25.5 26C23.8425 26 22.5 24.4325 22.5 22.5C22.5 20.5675 23.8425 19 25.5 19C25.8765 19.0046 26.2481 19.086 26.592 19.2392C26.9359 19.3925 27.2449 19.6144 27.5 19.8913" stroke="#1C1C1E" stroke-width="3" stroke-linecap="round" stroke-linejoin="round"/>
<path d="M16 26C17.6569 26 19 24.433 19 22.5C19 20.567 17.6569 19 16 19C14.3431 19 13 20.567 13 22.5C13 24.433 14.3431 26 16 26Z" stroke="#1C1C1E" stroke-width="3" stroke-linecap="round" stroke-linejoin="round"/>
</svg>
