<svg width="32" height="32" viewBox="0 0 32 32" fill="none" xmlns="http://www.w3.org/2000/svg">
<path d="M23.5 28H25C25.2652 28 25.5196 27.8946 25.7071 27.7071C25.8946 27.5196 26 27.2652 26 27V11L19 4H7C6.73478 4 6.48043 4.10536 6.29289 4.29289C6.10536 4.48043 6 4.73478 6 5V13.5" stroke="#1C1C1E" stroke-width="3" stroke-linecap="round" stroke-linejoin="round"/>
<path d="M18.5 4V11.5H26" stroke="#1C1C1E" stroke-width="3" stroke-linecap="round" stroke-linejoin="round"/>
<path d="M6 24H8C8.66304 24 9.29893 23.7366 9.76777 23.2678C10.2366 22.7989 10.5 22.163 10.5 21.5C10.5 20.837 10.2366 20.2011 9.76777 19.7322C9.29893 19.2634 8.66304 19 8 19H6V26" stroke="#1C1C1E" stroke-width="3" stroke-linecap="round" stroke-linejoin="round"/>
<path d="M10.5 25.9999L9.16504 23.7124" stroke="#1C1C1E" stroke-width="3" stroke-linecap="round" stroke-linejoin="round"/>
<path d="M18.4874 19.2002C18.4874 19.2002 14.8087 18.2277 14.5124 20.5752C14.2162 22.9227 19.3162 21.8402 18.9849 24.4152C18.6762 26.8102 15.0124 25.7902 15.0124 25.7902" stroke="#1C1C1E" stroke-width="3" stroke-linecap="round" stroke-linejoin="round"/>
</svg>
