<svg width="32" height="32" viewBox="0 0 32 32" fill="none" xmlns="http://www.w3.org/2000/svg">
<path d="M18.5 4V11.5H26" stroke="#1C1C1E" stroke-width="3" stroke-linecap="round" stroke-linejoin="round"/>
<path d="M6 13.5V5C6 4.73478 6.10536 4.48043 6.29289 4.29289C6.48043 4.10536 6.73478 4 7 4H19L26 11V13.5" stroke="#1C1C1E" stroke-width="3" stroke-linecap="round" stroke-linejoin="round"/>
<path d="M13 24H15C15.663 24 16.2989 23.7366 16.7678 23.2678C17.2366 22.7989 17.5 22.163 17.5 21.5C17.5 20.837 17.2366 20.2011 16.7678 19.7322C16.2989 19.2634 15.663 19 15 19H13V26" stroke="#1C1C1E" stroke-width="3" stroke-linecap="round" stroke-linejoin="round"/>
<path d="M26 23.5H26.5V25.1087C26.2449 25.3856 25.9359 25.6075 25.592 25.7608C25.2481 25.914 24.8765 25.9954 24.5 26C22.8438 26 21.5 24.4325 21.5 22.5C21.5 20.5675 22.8438 19 24.5 19C25.0358 19.0016 25.5586 19.165 26 19.4688" stroke="#1C1C1E" stroke-width="3" stroke-linecap="round" stroke-linejoin="round"/>
<path d="M4 23.75C4 24.3467 4.23705 24.919 4.65901 25.341C5.08097 25.7629 5.65326 26 6.25 26C6.84674 26 7.41903 25.7629 7.84099 25.341C8.26295 24.919 8.5 24.3467 8.5 23.75V19" stroke="#1C1C1E" stroke-width="3" stroke-linecap="round" stroke-linejoin="round"/>
</svg>
