<svg width="32" height="32" viewBox="0 0 32 32" fill="none" xmlns="http://www.w3.org/2000/svg">
<path d="M16 28C22.6274 28 28 22.6274 28 16C28 9.37258 22.6274 4 16 4C9.37258 4 4 9.37258 4 16C4 22.6274 9.37258 28 16 28Z" stroke="#1C1C1E" stroke-width="3" stroke-linecap="round" stroke-linejoin="round"/>
<path d="M16 28H29" stroke="#1C1C1E" stroke-width="3" stroke-linecap="round" stroke-linejoin="round"/>
<path d="M16 13C17.3807 13 18.5 11.8807 18.5 10.5C18.5 9.11929 17.3807 8 16 8C14.6193 8 13.5 9.11929 13.5 10.5C13.5 11.8807 14.6193 13 16 13Z" fill="#1C1C1E"/>
<path d="M16 24C17.3807 24 18.5 22.8807 18.5 21.5C18.5 20.1193 17.3807 19 16 19C14.6193 19 13.5 20.1193 13.5 21.5C13.5 22.8807 14.6193 24 16 24Z" fill="#1C1C1E"/>
<path d="M21.5 18.5C22.8807 18.5 24 17.3807 24 16C24 14.6193 22.8807 13.5 21.5 13.5C20.1193 13.5 19 14.6193 19 16C19 17.3807 20.1193 18.5 21.5 18.5Z" fill="#1C1C1E"/>
<path d="M10.5 18.5C11.8807 18.5 13 17.3807 13 16C13 14.6193 11.8807 13.5 10.5 13.5C9.11929 13.5 8 14.6193 8 16C8 17.3807 9.11929 18.5 10.5 18.5Z" fill="#1C1C1E"/>
</svg>
