<svg width="32" height="32" viewBox="0 0 32 32" fill="none" xmlns="http://www.w3.org/2000/svg">
<path d="M25 4H7C6.44772 4 6 4.44772 6 5V27C6 27.5523 6.44772 28 7 28H25C25.5523 28 26 27.5523 26 27V5C26 4.44772 25.5523 4 25 4Z" stroke="#1C1C1E" stroke-width="3" stroke-linecap="round" stroke-linejoin="round"/>
<path d="M11.5 12C12.6046 12 13.5 11.1046 13.5 10C13.5 8.89543 12.6046 8 11.5 8C10.3954 8 9.5 8.89543 9.5 10C9.5 11.1046 10.3954 12 11.5 12Z" fill="#1C1C1E"/>
<path d="M11.5 24C12.6046 24 13.5 23.1046 13.5 22C13.5 20.8954 12.6046 20 11.5 20C10.3954 20 9.5 20.8954 9.5 22C9.5 23.1046 10.3954 24 11.5 24Z" fill="#1C1C1E"/>
<path d="M11.5 18C12.6046 18 13.5 17.1046 13.5 16C13.5 14.8954 12.6046 14 11.5 14C10.3954 14 9.5 14.8954 9.5 16C9.5 17.1046 10.3954 18 11.5 18Z" fill="#1C1C1E"/>
</svg>
