<svg width="32" height="32" viewBox="0 0 32 32" fill="none" xmlns="http://www.w3.org/2000/svg">
<path d="M19.9662 11.4999C19.1002 10.7369 18.0324 10.2399 16.8909 10.0685C15.7495 9.89708 14.5829 10.0586 13.5309 10.5336C12.4789 11.0085 11.5863 11.7769 10.96 12.7464C10.3337 13.716 10.0004 14.8456 10 15.9999C10.0036 19.0494 9.22917 22.0494 7.75 24.7161" stroke="#1C1C1E" stroke-width="3" stroke-linecap="round" stroke-linejoin="round"/>
<path d="M22.0005 16.5C21.9431 20.2418 21.1837 23.9396 19.7617 27.4013" stroke="#1C1C1E" stroke-width="3" stroke-linecap="round" stroke-linejoin="round"/>
<path d="M13.585 26.5C13.4 26.88 13.205 27.255 13 27.625" stroke="#1C1C1E" stroke-width="3" stroke-linecap="round" stroke-linejoin="round"/>
<path d="M16 16C16.0008 17.8516 15.7881 19.6971 15.3662 21.5" stroke="#1C1C1E" stroke-width="3" stroke-linecap="round" stroke-linejoin="round"/>
<path d="M12.5 4.5187C14.2939 3.97362 16.1906 3.85615 18.038 4.17571C19.8855 4.49527 21.6325 5.24298 23.1391 6.35896C24.6457 7.47495 25.8701 8.9282 26.7142 10.6024C27.5583 12.2765 27.9986 14.125 28 16C28.0015 18.6915 27.7022 21.3749 27.1075 24" stroke="#1C1C1E" stroke-width="3" stroke-linecap="round" stroke-linejoin="round"/>
<path d="M2.91016 20.9996C3.63005 19.4311 4.0019 17.7254 4.00016 15.9996C3.99809 14.4268 4.30616 12.8691 4.90673 11.4155C5.50729 9.96188 6.38858 8.64097 7.50016 7.52832" stroke="#1C1C1E" stroke-width="3" stroke-linecap="round" stroke-linejoin="round"/>
</svg>
