<svg width="32" height="32" viewBox="0 0 32 32" fill="none" xmlns="http://www.w3.org/2000/svg">
<path d="M13.5 16C13.5 15.337 13.7634 14.7011 14.2322 14.2322C14.7011 13.7634 15.337 13.5 16 13.5C16.663 13.5 17.2989 13.7634 17.7678 14.2322C18.2366 14.7011 18.5 15.337 18.5 16C18.5046 20.3558 17.431 24.645 15.375 28.485" stroke="#1C1C1E" stroke-width="3" stroke-linecap="round" stroke-linejoin="round"/>
<path d="M16 8.5C17.9891 8.5 19.8968 9.29018 21.3033 10.6967C22.7098 12.1032 23.5 14.0109 23.5 16C23.5 17.0108 23.4533 18.0108 23.36 19" stroke="#1C1C1E" stroke-width="3" stroke-linecap="round" stroke-linejoin="round"/>
<path d="M6.41895 24.0274C7.78796 21.5736 8.50455 18.8097 8.5002 15.9999C8.49921 14.9447 8.72145 13.9013 9.15232 12.9381C9.58318 11.9749 10.2129 11.1137 11.0002 10.4111" stroke="#1C1C1E" stroke-width="3" stroke-linecap="round" stroke-linejoin="round"/>
<path d="M12.915 21C12.3962 23.1756 11.5391 25.2564 10.375 27.1663" stroke="#1C1C1E" stroke-width="3" stroke-linecap="round" stroke-linejoin="round"/>
<path d="M22.4748 24C22.1846 25.1067 21.8341 26.1966 21.4248 27.265" stroke="#1C1C1E" stroke-width="3" stroke-linecap="round" stroke-linejoin="round"/>
<path d="M2.78516 20C3.25903 18.7197 3.50114 17.3652 3.50016 16C3.50016 12.6848 4.81712 9.50537 7.16132 7.16117C9.50553 4.81696 12.685 3.5 16.0002 3.5C19.3154 3.5 22.4948 4.81696 24.839 7.16117C27.1832 9.50537 28.5002 12.6848 28.5002 16C28.5028 18.6907 28.2094 21.3735 27.6252 24" stroke="#1C1C1E" stroke-width="3" stroke-linecap="round" stroke-linejoin="round"/>
</svg>
