<svg width="32" height="32" viewBox="0 0 32 32" fill="none" xmlns="http://www.w3.org/2000/svg">
<path d="M20 13.5H12C9.23858 13.5 7 15.7386 7 18.5C7 21.2614 9.23858 23.5 12 23.5H20C22.7614 23.5 25 21.2614 25 18.5C25 15.7386 22.7614 13.5 20 13.5Z" stroke="#1C1C1E" stroke-width="3" stroke-linecap="round" stroke-linejoin="round"/>
<path d="M12 20.5C13.1046 20.5 14 19.6046 14 18.5C14 17.3954 13.1046 16.5 12 16.5C10.8954 16.5 10 17.3954 10 18.5C10 19.6046 10.8954 20.5 12 20.5Z" fill="#1C1C1E"/>
<path d="M20 20.5C21.1046 20.5 22 19.6046 22 18.5C22 17.3954 21.1046 16.5 20 16.5C18.8954 16.5 18 17.3954 18 18.5C18 19.6046 18.8954 20.5 20 20.5Z" fill="#1C1C1E"/>
<path d="M2.5 9C2.5 8.20435 2.81607 7.44129 3.37868 6.87868C3.94129 6.31607 4.70435 6 5.5 6C6.29565 6 7.05871 6.31607 7.62132 6.87868C8.18393 7.44129 8.5 8.20435 8.5 9H23.5C23.5 8.20435 23.8161 7.44129 24.3787 6.87868C24.9413 6.31607 25.7044 6 26.5 6C27.2956 6 28.0587 6.31607 28.6213 6.87868C29.1839 7.44129 29.5 8.20435 29.5 9V18.5C29.5 21.0196 28.4991 23.4359 26.7175 25.2175C24.9359 26.9991 22.5196 28 20 28H12C9.48044 28 7.06408 26.9991 5.28249 25.2175C3.50089 23.4359 2.5 21.0196 2.5 18.5V9Z" stroke="#1C1C1E" stroke-width="3" stroke-linecap="round" stroke-linejoin="round"/>
</svg>
