<svg width="32" height="32" viewBox="0 0 32 32" fill="none" xmlns="http://www.w3.org/2000/svg">
<path d="M19.9997 30H13.9998C13.7346 30 13.4802 29.8947 13.2927 29.7071C13.1052 29.5196 12.9998 29.2653 12.9998 29V13.0003C12.9998 11.9394 13.4212 10.922 14.1714 10.1719C14.9215 9.42177 15.9389 9.00035 16.9997 9.00035C18.0606 9.00035 19.078 9.42177 19.8281 10.1719C20.5783 10.922 20.9997 11.9394 20.9997 13.0003V29C20.9997 29.2653 20.8943 29.5196 20.7068 29.7071C20.5193 29.8947 20.2649 30 19.9997 30Z" stroke="#1C1C1E" stroke-width="3" stroke-linecap="round" stroke-linejoin="round"/>
<path d="M7.99988 21.0002H20.9997" stroke="#1C1C1E" stroke-width="3" stroke-linecap="round" stroke-linejoin="round"/>
<path d="M16.9997 9.00035V4.00043" stroke="#1C1C1E" stroke-width="3" stroke-linecap="round" stroke-linejoin="round"/>
<path d="M22.4997 1.50047L16.9997 4.00043L26.9996 7.00038" stroke="#1C1C1E" stroke-width="3" stroke-linecap="round" stroke-linejoin="round"/>
<path d="M7.99988 26.0001V13.0003C7.99988 10.6134 8.94807 8.32423 10.6359 6.63643C12.3237 4.94862 14.6128 4.00043 16.9997 4.00043" stroke="#1C1C1E" stroke-width="3" stroke-linecap="round" stroke-linejoin="round"/>
</svg>
