<svg width="32" height="32" viewBox="0 0 32 32" fill="none" xmlns="http://www.w3.org/2000/svg">
<path d="M11.5792 4.61127C12.0004 3.60752 13.5004 3.91127 13.5004 5.00002V25C13.5004 25.2652 13.3951 25.5196 13.2075 25.7071C13.02 25.8947 12.7657 26 12.5004 26H5.00044C4.83528 26.0001 4.67267 25.9593 4.52714 25.8812C4.38161 25.8031 4.2577 25.6901 4.16645 25.5525C4.07521 25.4148 4.01949 25.2567 4.00426 25.0922C3.98903 24.9278 4.01477 24.7621 4.07919 24.61L11.5792 4.61127Z" stroke="#1C1C1E" stroke-width="3" stroke-linecap="round" stroke-linejoin="round"/>
<path d="M20.4212 4.61127C20 3.60752 18.5 3.91127 18.5 5.00002V25C18.5 25.2652 18.6054 25.5196 18.7929 25.7071C18.9804 25.8947 19.2348 26 19.5 26H27C27.1652 26.0001 27.3278 25.9593 27.4733 25.8812C27.6188 25.8031 27.7427 25.6901 27.834 25.5525C27.9252 25.4148 27.9809 25.2567 27.9962 25.0922C28.0114 24.9278 27.9857 24.7621 27.9212 24.61L20.4212 4.61127Z" stroke="#1C1C1E" stroke-width="3" stroke-linecap="round" stroke-linejoin="round"/>
</svg>
