<svg width="32" height="32" viewBox="0 0 32 32" fill="none" xmlns="http://www.w3.org/2000/svg">
<path d="M5 10.4137V26C5 26.2652 5.10536 26.5196 5.29289 26.7071C5.48043 26.8946 5.73478 27 6 27H26C26.2652 27 26.5196 26.8946 26.7071 26.7071C26.8946 26.5196 27 26.2652 27 26V6C27 5.73478 26.8946 5.48043 26.7071 5.29289C26.5196 5.10536 26.2652 5 26 5H10.4137C10.1489 5.00012 9.89489 5.10532 9.7075 5.2925L5.2925 9.7075C5.10532 9.89489 5.00012 10.1489 5 10.4137Z" stroke="#1C1C1E" stroke-width="3" stroke-linecap="round" stroke-linejoin="round"/>
<path d="M16 22.5C18.0711 22.5 19.75 20.8211 19.75 18.75C19.75 16.6789 18.0711 15 16 15C13.9289 15 12.25 16.6789 12.25 18.75C12.25 20.8211 13.9289 22.5 16 22.5Z" stroke="#1C1C1E" stroke-width="3" stroke-linecap="round" stroke-linejoin="round"/>
<path d="M10 5.09V9.5C10 9.76522 10.1054 10.0196 10.2929 10.2071C10.4804 10.3946 10.7348 10.5 11 10.5H21C21.2652 10.5 21.5196 10.3946 21.7071 10.2071C21.8946 10.0196 22 9.76522 22 9.5V5" stroke="#1C1C1E" stroke-width="3" stroke-linecap="round" stroke-linejoin="round"/>
</svg>
