<svg width="32" height="32" viewBox="0 0 32 32" fill="none" xmlns="http://www.w3.org/2000/svg">
<path d="M21.5 24.5L22 27" stroke="#1C1C1E" stroke-width="3" stroke-linecap="round" stroke-linejoin="round"/>
<path d="M16 25V28" stroke="#1C1C1E" stroke-width="3" stroke-linecap="round" stroke-linejoin="round"/>
<path d="M10.5 24.5L10 27" stroke="#1C1C1E" stroke-width="3" stroke-linecap="round" stroke-linejoin="round"/>
<path d="M22.125 8.6025C26.7863 9.57625 30 11.625 30 14C30 17.3138 23.7325 20 16 20C8.2675 20 2 17.3138 2 14C2 11.625 5.2325 9.56375 9.91875 8.59375" stroke="#1C1C1E" stroke-width="3" stroke-linecap="round" stroke-linejoin="round"/>
<path d="M9 12.4876C9.00023 12.9377 9.15281 13.3744 9.4329 13.7266C9.71299 14.0789 10.1041 14.326 10.5425 14.4276C12.3345 14.8224 14.1651 15.0144 16 15.0001C17.834 15.0144 19.6639 14.8223 21.455 14.4276C21.8932 14.3252 22.2841 14.078 22.5645 13.726C22.8449 13.374 22.9983 12.9377 23 12.4876V12.0001C23.0001 11.073 22.816 10.1552 22.4584 9.2998C22.1009 8.44444 21.577 7.66862 20.9172 7.01738C20.2573 6.36615 19.4747 5.85247 18.6147 5.50618C17.7547 5.15989 16.8345 4.98787 15.9075 5.00012C12.06 5.05012 9 8.25762 9 12.1039V12.4876Z" stroke="#1C1C1E" stroke-width="3" stroke-linecap="round" stroke-linejoin="round"/>
</svg>
