<svg width="32" height="32" viewBox="0 0 32 32" fill="none" xmlns="http://www.w3.org/2000/svg">
<path d="M12.2987 5.83625L16 10H4V6.5C4 6.23478 4.10536 5.98043 4.29289 5.79289C4.48043 5.60536 4.73478 5.5 5 5.5H11.5513C11.6925 5.50006 11.8322 5.53006 11.961 5.58802C12.0899 5.64598 12.205 5.73058 12.2987 5.83625Z" stroke="#1C1C1E" stroke-width="3" stroke-linecap="round" stroke-linejoin="round"/>
<path d="M14.07 26H4.9225C4.67804 25.9993 4.44378 25.9019 4.27092 25.7291C4.09806 25.5562 4.00066 25.322 4 25.0775V10H27C27.2652 10 27.5196 10.1054 27.7071 10.2929C27.8946 10.4804 28 10.7348 28 11V14" stroke="#1C1C1E" stroke-width="3" stroke-linecap="round" stroke-linejoin="round"/>
<path d="M23 24.8175L26.7087 27L25.7 22.9263L29 20.2013L24.6688 19.8675L23 16L21.3312 19.8675L17 20.2013L20.3 22.9263L19.2913 27L23 24.8175Z" stroke="#1C1C1E" stroke-width="3" stroke-linecap="round" stroke-linejoin="round"/>
</svg>
