<svg width="32" height="32" viewBox="0 0 32 32" fill="none" xmlns="http://www.w3.org/2000/svg">
<path d="M24.5 14.5V25.6112C24.5 25.847 24.4064 26.073 24.2397 26.2397C24.073 26.4064 23.847 26.5 23.6112 26.5H4.5C4.23478 26.5 3.98043 26.3946 3.79289 26.2071C3.60536 26.0196 3.5 25.7652 3.5 25.5V11.5C3.5 11.2348 3.60536 10.9804 3.79289 10.7929C3.98043 10.6054 4.23478 10.5 4.5 10.5H10.1663C10.3826 10.5 10.5932 10.5702 10.7662 10.7L14.5 13.5H23.5C23.7652 13.5 24.0196 13.6054 24.2071 13.7929C24.3946 13.9804 24.5 14.2348 24.5 14.5Z" stroke="#1C1C1E" stroke-width="3" stroke-linecap="round" stroke-linejoin="round"/>
<path d="M8.5 10.5V6.5C8.5 6.23478 8.60536 5.98043 8.79289 5.79289C8.98043 5.60536 9.23478 5.5 9.5 5.5H15.1663C15.3826 5.5 15.5932 5.57018 15.7662 5.7L19.5 8.5H28.5C28.7652 8.5 29.0196 8.60536 29.2071 8.79289C29.3946 8.98043 29.5 9.23478 29.5 9.5V20.6112C29.5 20.847 29.4064 21.073 29.2397 21.2397C29.073 21.4064 28.847 21.5 28.6112 21.5H24.5" stroke="#1C1C1E" stroke-width="3" stroke-linecap="round" stroke-linejoin="round"/>
</svg>
