<svg width="32" height="32" viewBox="0 0 32 32" fill="none" xmlns="http://www.w3.org/2000/svg">
<path d="M20 28C20.4588 26.275 22.075 25 24 25C25.925 25 27.5412 26.275 28 28" stroke="#1C1C1E" stroke-width="3" stroke-linecap="round" stroke-linejoin="round"/>
<path d="M24 25C25.6569 25 27 23.6569 27 22C27 20.3431 25.6569 19 24 19C22.3431 19 21 20.3431 21 22C21 23.6569 22.3431 25 24 25Z" stroke="#1C1C1E" stroke-width="3" stroke-linecap="round" stroke-linejoin="round"/>
<path d="M14.07 26H4.9225C4.67804 25.9993 4.44378 25.9019 4.27092 25.7291C4.09806 25.5562 4.00066 25.322 4 25.0775V10H27C27.2652 10 27.5196 10.1054 27.7071 10.2929C27.8946 10.4804 28 10.7348 28 11V13.5" stroke="#1C1C1E" stroke-width="3" stroke-linecap="round" stroke-linejoin="round"/>
<path d="M12.2987 5.83625L16 10H4V6.5C4 6.23478 4.10536 5.98043 4.29289 5.79289C4.48043 5.60536 4.73478 5.5 5 5.5H11.5513C11.6925 5.50006 11.8322 5.53006 11.961 5.58802C12.0899 5.64598 12.205 5.73058 12.2987 5.83625Z" stroke="#1C1C1E" stroke-width="3" stroke-linecap="round" stroke-linejoin="round"/>
</svg>
