<svg width="32" height="32" viewBox="0 0 32 32" fill="none" xmlns="http://www.w3.org/2000/svg">
<path d="M13 26H5C4.73478 26 4.48043 25.8946 4.29289 25.7071C4.10536 25.5196 4 25.2652 4 25V8C4 7.73478 4.10536 7.48043 4.29289 7.29289C4.48043 7.10536 4.73478 7 5 7H11.6663C11.8826 7 12.0932 7.07018 12.2662 7.2L15.7338 9.8C15.9068 9.92982 16.1174 10 16.3337 10H27C27.2652 10 27.5196 10.1054 27.7071 10.2929C27.8946 10.4804 28 10.7348 28 11V11.5" stroke="#1C1C1E" stroke-width="3" stroke-linecap="round" stroke-linejoin="round"/>
<path d="M28 20.5H19V26H28V20.5Z" stroke="#1C1C1E" stroke-width="3" stroke-linecap="round" stroke-linejoin="round"/>
<path d="M21 20.5V18.5C21 17.837 21.2634 17.2011 21.7322 16.7322C22.2011 16.2634 22.837 16 23.5 16C24.163 16 24.7989 16.2634 25.2678 16.7322C25.7366 17.2011 26 17.837 26 18.5V20.5" stroke="#1C1C1E" stroke-width="3" stroke-linecap="round" stroke-linejoin="round"/>
</svg>
