<svg width="32" height="32" viewBox="0 0 32 32" fill="none" xmlns="http://www.w3.org/2000/svg">
<path d="M19.5 24H26.5V25.5C26.5 26.4283 26.1313 27.3185 25.4749 27.9749C24.8185 28.6313 23.9283 29 23 29C22.0717 29 21.1815 28.6313 20.5251 27.9749C19.8687 27.3185 19.5 26.4283 19.5 25.5V24Z" stroke="#1C1C1E" stroke-width="3" stroke-linecap="round" stroke-linejoin="round"/>
<path d="M5.5 21H12.5V22.5C12.5 23.4283 12.1313 24.3185 11.4749 24.9749C10.8185 25.6313 9.92826 26 9 26C8.07174 26 7.1815 25.6313 6.52513 24.9749C5.86875 24.3185 5.5 23.4283 5.5 22.5V21Z" stroke="#1C1C1E" stroke-width="3" stroke-linecap="round" stroke-linejoin="round"/>
<path d="M5.84274 16C2.56774 12.2863 5.93524 3 9.00024 3C12.0652 3 15.4327 12.2863 12.1577 16H5.84274Z" stroke="#1C1C1E" stroke-width="3" stroke-linecap="round" stroke-linejoin="round"/>
<path d="M19.8427 19C16.5677 15.2863 19.9352 6 23.0002 6C26.0652 6 29.4327 15.2863 26.1577 19H19.8427Z" stroke="#1C1C1E" stroke-width="3" stroke-linecap="round" stroke-linejoin="round"/>
</svg>
