<svg width="32" height="32" viewBox="0 0 32 32" fill="none" xmlns="http://www.w3.org/2000/svg">
<path d="M14.5 25.0002C14.6498 25.0002 14.7977 24.9666 14.9328 24.9018C15.0679 24.837 15.1866 24.7426 15.2804 24.6258C15.3741 24.5089 15.4403 24.3724 15.4742 24.2265C15.5081 24.0806 15.5088 23.9289 15.4763 23.7827L13.5238 17.2177C13.4912 17.0715 13.4919 16.9198 13.5258 16.7739C13.5597 16.6279 13.6259 16.4915 13.7196 16.3746C13.8134 16.2577 13.9321 16.1634 14.0672 16.0986C14.2023 16.0338 14.3502 16.0002 14.5 16.0002H27V15.5002C27.0002 13.9761 26.6974 12.4672 26.1092 11.0612C25.5211 9.65515 24.6593 8.38006 23.574 7.31001C22.4888 6.23997 21.2016 5.39633 19.7874 4.82812C18.3732 4.25992 16.8602 3.97849 15.3363 4.00019C9.08125 4.08894 4 9.24019 4 15.5002C3.99884 17.3727 4.45537 19.2171 5.32987 20.8728C6.20436 22.5286 7.47031 23.9455 9.0175 25.0002H14.5Z" stroke="#1C1C1E" stroke-width="3" stroke-linecap="round" stroke-linejoin="round"/>
<path d="M18.4997 16L21.5384 26.2838C21.5998 26.491 21.7266 26.6728 21.8998 26.8019C22.0731 26.931 22.2836 27.0005 22.4997 27H26.9997C27.2649 27 27.5193 26.8946 27.7068 26.7071C27.8943 26.5196 27.9997 26.2652 27.9997 26V22C27.9997 21.7348 27.8943 21.4804 27.7068 21.2929C27.5193 21.1054 27.2649 21 26.9997 21H14.6484" stroke="#1C1C1E" stroke-width="3" stroke-linecap="round" stroke-linejoin="round"/>
</svg>
