<svg width="32" height="32" viewBox="0 0 32 32" fill="none" xmlns="http://www.w3.org/2000/svg">
<path d="M19 13H22" stroke="#1C1C1E" stroke-width="3" stroke-linecap="round" stroke-linejoin="round"/>
<path d="M9 13H13" stroke="#1C1C1E" stroke-width="3" stroke-linecap="round" stroke-linejoin="round"/>
<path d="M11 11V15" stroke="#1C1C1E" stroke-width="3" stroke-linecap="round" stroke-linejoin="round"/>
<path d="M13.239 19L7.97528 24.975C7.44891 25.5011 6.76855 25.8458 6.03299 25.9589C5.29742 26.072 4.54494 25.9477 3.88482 25.6041C3.2247 25.2604 2.6913 24.7153 2.36208 24.0479C2.03285 23.3804 1.92495 22.6254 2.05403 21.8925L4.09903 11.375C4.3632 9.87169 5.14798 8.5093 6.31585 7.52655C7.48372 6.5438 8.96019 6.00338 10.4865 6H21.5003C23.2242 6 24.8775 6.68482 26.0965 7.90381C27.3155 9.12279 28.0003 10.7761 28.0003 12.5C28.0003 14.2239 27.3155 15.8772 26.0965 17.0962C24.8775 18.3152 23.2242 19 21.5003 19H13.239Z" stroke="#1C1C1E" stroke-width="3" stroke-linecap="round" stroke-linejoin="round"/>
<path d="M18.7617 19L24.0255 24.975C24.5518 25.5011 25.2322 25.8458 25.9678 25.9589C26.7033 26.072 27.4558 25.9477 28.1159 25.6041C28.776 25.2604 29.3094 24.7153 29.6387 24.0479C29.9679 23.3804 30.0758 22.6254 29.9467 21.8925L27.9017 11.375" stroke="#1C1C1E" stroke-width="3" stroke-linecap="round" stroke-linejoin="round"/>
</svg>
