<svg width="32" height="32" viewBox="0 0 32 32" fill="none" xmlns="http://www.w3.org/2000/svg">
<path d="M16.4137 4H25C25.2652 4 25.5196 4.10536 25.7071 4.29289C25.8946 4.48043 26 4.73478 26 5V27C26 27.2652 25.8946 27.5196 25.7071 27.7071C25.5196 27.8946 25.2652 28 25 28H7C6.73478 28 6.48043 27.8946 6.29289 27.7071C6.10536 27.5196 6 27.2652 6 27V14.4137C6.00012 14.1489 6.10532 13.8949 6.2925 13.7075L15.7075 4.2925C15.8949 4.10532 16.1489 4.00012 16.4137 4Z" stroke="#1C1C1E" stroke-width="3" stroke-linecap="round" stroke-linejoin="round"/>
<path d="M18.5 8.5H21" stroke="#1C1C1E" stroke-width="3" stroke-linecap="round" stroke-linejoin="round"/>
<path d="M11 15.5L21 23.5" stroke="#1C1C1E" stroke-width="3" stroke-linecap="round" stroke-linejoin="round"/>
<path d="M21 15.5L11 23.5" stroke="#1C1C1E" stroke-width="3" stroke-linecap="round" stroke-linejoin="round"/>
<path d="M8.79231 11.2076L5.79231 8.20755C5.69933 8.11468 5.62557 8.00439 5.57525 7.88299C5.52493 7.7616 5.49902 7.63147 5.49902 7.50005C5.49902 7.36864 5.52493 7.23851 5.57525 7.11711C5.62557 6.99572 5.69933 6.88543 5.79231 6.79255L8.79231 3.79255C8.88518 3.69958 8.99547 3.62582 9.11687 3.57549C9.23827 3.52517 9.36839 3.49927 9.49981 3.49927C9.63123 3.49927 9.76135 3.52517 9.88275 3.57549C10.0041 3.62582 10.1144 3.69958 10.2073 3.79255L13.2073 6.79255" stroke="#1C1C1E" stroke-width="3" stroke-linecap="round" stroke-linejoin="round"/>
</svg>
