<svg width="32" height="32" viewBox="0 0 32 32" fill="none" xmlns="http://www.w3.org/2000/svg">
<path d="M15.294 2.29189L7.29402 10.2919C6.9035 10.6824 6.9035 11.3156 7.29402 11.7061L9.29425 13.7064C9.68477 14.0969 10.3179 14.0969 10.7085 13.7064L18.7085 5.70633C19.099 5.31581 19.099 4.68264 18.7085 4.29212L16.7083 2.29189C16.3177 1.90136 15.6846 1.90136 15.294 2.29189Z" stroke="#1C1C1E" stroke-width="3" stroke-linecap="round" stroke-linejoin="round"/>
<path d="M26.294 13.2919L18.294 21.2919C17.9035 21.6824 17.9035 22.3156 18.294 22.7061L20.2942 24.7064C20.6848 25.0969 21.3179 25.0969 21.7085 24.7064L29.7085 16.7063C30.099 16.3158 30.099 15.6826 29.7085 15.2921L27.7083 13.2919C27.3177 12.9014 26.6846 12.9014 26.294 13.2919Z" stroke="#1C1C1E" stroke-width="3" stroke-linecap="round" stroke-linejoin="round"/>
<path d="M18.207 6.20703L25.792 13.792" stroke="#1C1C1E" stroke-width="3" stroke-linecap="round" stroke-linejoin="round"/>
<path d="M11.207 13.207L18.792 20.792" stroke="#1C1C1E" stroke-width="3" stroke-linecap="round" stroke-linejoin="round"/>
<path d="M16.7671 18.7674L8.26705 27.2674C7.79555 27.7228 7.16404 27.9748 6.50855 27.9691C5.85306 27.9634 5.22603 27.7005 4.76251 27.237C4.29899 26.7734 4.03606 26.1464 4.03037 25.4909C4.02467 24.8354 4.27666 24.2039 4.73205 23.7324L13.2321 15.2324" stroke="#1C1C1E" stroke-width="3" stroke-linecap="round" stroke-linejoin="round"/>
</svg>
