<svg width="32" height="32" viewBox="0 0 32 32" fill="none" xmlns="http://www.w3.org/2000/svg">
<path d="M16 21C18.7614 21 21 18.7614 21 16C21 13.2386 18.7614 11 16 11C13.2386 11 11 13.2386 11 16C11 18.7614 13.2386 21 16 21Z" stroke="#1C1C1E" stroke-width="3" stroke-linecap="round" stroke-linejoin="round"/>
<path d="M5.17867 22.2612C4.62614 21.3095 4.20283 20.2884 3.91992 19.2249L6.01742 16.5999C5.99367 16.1986 5.99367 15.7962 6.01742 15.3949L3.92117 12.7699C4.2036 11.7063 4.62604 10.6848 5.17742 9.73242L8.51617 9.35742C8.78279 9.05704 9.06704 8.77279 9.36742 8.50617L9.74242 5.16867C10.6935 4.61992 11.7132 4.19999 12.7749 3.91992L15.3999 6.01742C15.8012 5.99367 16.2036 5.99367 16.6049 6.01742L19.2299 3.92117C20.2936 4.2036 21.315 4.62604 22.2674 5.17742L22.6424 8.51617C22.9428 8.78279 23.2271 9.06704 23.4937 9.36742L26.8312 9.74242C27.3837 10.6941 27.807 11.7152 28.0899 12.7787L25.9924 15.4037C26.0162 15.805 26.0162 16.2074 25.9924 16.6087L28.0887 19.2337C27.8082 20.297 27.3879 21.3184 26.8387 22.2712L23.4999 22.6462C23.2333 22.9466 22.9491 23.2308 22.6487 23.4974L22.2737 26.8349C21.322 27.3875 20.3009 27.8108 19.2374 28.0937L16.6124 25.9962C16.2111 26.0199 15.8087 26.0199 15.4074 25.9962L12.7824 28.0924C11.7191 27.812 10.6977 27.3916 9.74492 26.8424L9.36992 23.5037C9.06954 23.2371 8.78529 22.9528 8.51867 22.6524L5.17867 22.2612Z" stroke="#1C1C1E" stroke-width="3" stroke-linecap="round" stroke-linejoin="round"/>
</svg>
