<svg width="32" height="32" viewBox="0 0 32 32" fill="none" xmlns="http://www.w3.org/2000/svg">
<path d="M12.5 16.5C13.6046 16.5 14.5 15.6046 14.5 14.5C14.5 13.3954 13.6046 12.5 12.5 12.5C11.3954 12.5 10.5 13.3954 10.5 14.5C10.5 15.6046 11.3954 16.5 12.5 16.5Z" fill="#1C1C1E"/>
<path d="M19.5 16.5C20.6046 16.5 21.5 15.6046 21.5 14.5C21.5 13.3954 20.6046 12.5 19.5 12.5C18.3954 12.5 17.5 13.3954 17.5 14.5C17.5 15.6046 18.3954 16.5 19.5 16.5Z" fill="#1C1C1E"/>
<path d="M27 27L23.3337 24L19.6663 27L16 24L12.3337 27L8.66625 24L5 27V15C5 12.0826 6.15893 9.28473 8.22183 7.22183C10.2847 5.15893 13.0826 4 16 4C18.9174 4 21.7153 5.15893 23.7782 7.22183C25.8411 9.28473 27 12.0826 27 15V27Z" stroke="#1C1C1E" stroke-width="3" stroke-linecap="round" stroke-linejoin="round"/>
</svg>
