<svg width="32" height="32" viewBox="0 0 32 32" fill="none" xmlns="http://www.w3.org/2000/svg">
<path d="M21.9185 12.0004L24.3748 5.32787C24.4098 5.22777 24.4764 5.14171 24.5644 5.08254C24.6524 5.02338 24.7572 4.9943 24.8632 4.99965C24.9691 5.00499 25.0705 5.04448 25.1521 5.1122C25.2337 5.17992 25.2912 5.27225 25.316 5.37537L27.8023 14.8904C28.1205 16.0925 28.0653 17.3631 27.644 18.5331C27.2226 19.7031 26.4551 20.7171 25.4435 21.4404L16.286 27.9104C16.2034 27.9689 16.1047 28.0003 16.0035 28.0003C15.9023 28.0003 15.8036 27.9689 15.721 27.9104L6.55978 21.4404C5.54818 20.7171 4.78068 19.7031 4.35935 18.5331C3.93801 17.3631 3.88279 16.0925 4.20103 14.8904L6.68728 5.37537C6.71316 5.27365 6.77093 5.1829 6.85213 5.1164C6.93333 5.0499 7.03369 5.01116 7.13851 5.00585C7.24333 5.00054 7.3471 5.02894 7.43461 5.08689C7.52211 5.14484 7.58876 5.22929 7.62478 5.32787L10.081 12.0004H21.9185Z" stroke="#1C1C1E" stroke-width="3" stroke-linecap="round" stroke-linejoin="round"/>
</svg>
