<svg width="32" height="32" viewBox="0 0 32 32" fill="none" xmlns="http://www.w3.org/2000/svg">
<path d="M17 20.5C21.1421 20.5 24.5 17.1421 24.5 13C24.5 8.85786 21.1421 5.5 17 5.5C12.8579 5.5 9.5 8.85786 9.5 13C9.5 17.1421 12.8579 20.5 17 20.5Z" stroke="#1C1C1E" stroke-width="3" stroke-linecap="round" stroke-linejoin="round"/>
<path d="M13 30H21" stroke="#1C1C1E" stroke-width="3" stroke-linecap="round" stroke-linejoin="round"/>
<path d="M17 25.5V30" stroke="#1C1C1E" stroke-width="3" stroke-linecap="round" stroke-linejoin="round"/>
<path d="M25.4999 22.165C23.1287 24.3631 19.998 25.5569 16.7653 25.4957C13.5326 25.4345 10.4494 24.123 8.16312 21.8368C5.87685 19.5505 4.5654 16.4672 4.5042 13.2345C4.44299 10.0018 5.63678 6.87118 7.83488 4.5" stroke="#1C1C1E" stroke-width="3" stroke-linecap="round" stroke-linejoin="round"/>
</svg>
