<svg width="32" height="32" viewBox="0 0 32 32" fill="none" xmlns="http://www.w3.org/2000/svg">
<path d="M13 19H19" stroke="#1C1C1E" stroke-width="3" stroke-linecap="round" stroke-linejoin="round"/>
<path d="M29 19C29 21.2088 25.2088 23 23 23C21.9391 23 20.9217 22.5786 20.1716 21.8284C19.4214 21.0783 19 20.0609 19 19C19 17.9391 19.4214 16.9217 20.1716 16.1716C20.9217 15.4214 21.9391 15 23 15C25.2088 15 29 16.7912 29 19Z" stroke="#1C1C1E" stroke-width="3" stroke-linecap="round" stroke-linejoin="round"/>
<path d="M13 19C13 20.0609 12.5786 21.0783 11.8284 21.8284C11.0783 22.5786 10.0609 23 9 23C6.79125 23 3 21.2088 3 19C3 16.7912 6.79125 15 9 15C10.0609 15 11.0783 15.4214 11.8284 16.1716C12.5786 16.9217 13 17.9391 13 19Z" stroke="#1C1C1E" stroke-width="3" stroke-linecap="round" stroke-linejoin="round"/>
<path d="M29 19C29.3978 19 29.7794 18.842 30.0607 18.5607C30.342 18.2794 30.5 17.8978 30.5 17.5V17C30.5 14.8783 29.6571 12.8434 28.1569 11.3431C26.6566 9.84285 24.6217 9 22.5 9H9.5C7.37827 9 5.34344 9.84285 3.84315 11.3431C2.34285 12.8434 1.5 14.8783 1.5 17V17.5C1.5 17.8978 1.65804 18.2794 1.93934 18.5607C2.22064 18.842 2.60218 19 3 19" stroke="#1C1C1E" stroke-width="3" stroke-linecap="round" stroke-linejoin="round"/>
</svg>
