<svg width="32" height="32" viewBox="0 0 32 32" fill="none" xmlns="http://www.w3.org/2000/svg">
<path d="M20.5 14.5C21.6046 14.5 22.5 13.6046 22.5 12.5C22.5 11.3954 21.6046 10.5 20.5 10.5C19.3954 10.5 18.5 11.3954 18.5 12.5C18.5 13.6046 19.3954 14.5 20.5 14.5Z" fill="#1C1C1E"/>
<path d="M16.5 18.5C17.6046 18.5 18.5 17.6046 18.5 16.5C18.5 15.3954 17.6046 14.5 16.5 14.5C15.3954 14.5 14.5 15.3954 14.5 16.5C14.5 17.6046 15.3954 18.5 16.5 18.5Z" fill="#1C1C1E"/>
<path d="M16 22C21.5228 22 26 17.5228 26 12C26 6.47715 21.5228 2 16 2C10.4772 2 6 6.47715 6 12C6 17.5228 10.4772 22 16 22Z" stroke="#1C1C1E" stroke-width="3" stroke-linecap="round" stroke-linejoin="round"/>
<path d="M16 27V30.5" stroke="#1C1C1E" stroke-width="3" stroke-linecap="round" stroke-linejoin="round"/>
<path d="M21 26.1462C17.7638 27.2845 14.2362 27.2845 11 26.1462" stroke="#1C1C1E" stroke-width="3" stroke-linecap="round" stroke-linejoin="round"/>
</svg>
