<svg width="32" height="32" viewBox="0 0 32 32" fill="none" xmlns="http://www.w3.org/2000/svg">
<path d="M16 16V3C17.5076 2.99906 18.9848 3.42414 20.2614 4.22627C21.5379 5.02839 22.5618 6.1749 23.215 7.53364C23.8683 8.89239 24.1243 10.4081 23.9535 11.906C23.7828 13.4039 23.1923 14.8231 22.25 16" stroke="#1C1C1E" stroke-width="3" stroke-linecap="round" stroke-linejoin="round"/>
<path d="M16 16H3C2.99906 14.4924 3.42414 13.0152 4.22627 11.7386C5.02839 10.4621 6.1749 9.43822 7.53364 8.78498C8.89239 8.13173 10.4081 7.87573 11.906 8.04647C13.4039 8.21721 14.8231 8.80774 16 9.75" stroke="#1C1C1E" stroke-width="3" stroke-linecap="round" stroke-linejoin="round"/>
<path d="M16.0001 16V29C14.4925 29.0009 13.0153 28.5759 11.7388 27.7737C10.4622 26.9716 9.43835 25.8251 8.7851 24.4664C8.13186 23.1076 7.87585 21.5919 8.04659 20.094C8.21733 18.5961 8.80786 17.1769 9.75012 16" stroke="#1C1C1E" stroke-width="3" stroke-linecap="round" stroke-linejoin="round"/>
<path d="M16 16H29C29.0009 17.5076 28.5759 18.9848 27.7737 20.2614C26.9716 21.5379 25.8251 22.5618 24.4664 23.215C23.1076 23.8683 21.5919 24.1243 20.094 23.9535C18.5961 23.7828 17.1769 23.1923 16 22.25" stroke="#1C1C1E" stroke-width="3" stroke-linecap="round" stroke-linejoin="round"/>
</svg>
