<svg width="32" height="32" viewBox="0 0 32 32" fill="none" xmlns="http://www.w3.org/2000/svg">
<path d="M3 24V8C3 7.73478 3.10536 7.48043 3.29289 7.29289C3.48043 7.10536 3.73478 7 4 7H28C28.2652 7 28.5196 7.10536 28.7071 7.29289C28.8946 7.48043 29 7.73478 29 8V24C29 24.2652 28.8946 24.5196 28.7071 24.7071C28.5196 24.8946 28.2652 25 28 25H20L16.7075 21.7075C16.6146 21.6145 16.5043 21.5408 16.3829 21.4904C16.2615 21.4401 16.1314 21.4142 16 21.4142C15.8686 21.4142 15.7385 21.4401 15.6171 21.4904C15.4957 21.5408 15.3854 21.6145 15.2925 21.7075L12 25H4C3.73478 25 3.48043 24.8946 3.29289 24.7071C3.10536 24.5196 3 24.2652 3 24Z" stroke="#1C1C1E" stroke-width="3" stroke-linecap="round" stroke-linejoin="round"/>
<path d="M10.25 18.5C11.7688 18.5 13 17.2688 13 15.75C13 14.2312 11.7688 13 10.25 13C8.73122 13 7.5 14.2312 7.5 15.75C7.5 17.2688 8.73122 18.5 10.25 18.5Z" stroke="#1C1C1E" stroke-width="3" stroke-linecap="round" stroke-linejoin="round"/>
<path d="M21.75 18.5C23.2688 18.5 24.5 17.2688 24.5 15.75C24.5 14.2312 23.2688 13 21.75 13C20.2312 13 19 14.2312 19 15.75C19 17.2688 20.2312 18.5 21.75 18.5Z" stroke="#1C1C1E" stroke-width="3" stroke-linecap="round" stroke-linejoin="round"/>
</svg>
