<svg width="32" height="32" viewBox="0 0 32 32" fill="none" xmlns="http://www.w3.org/2000/svg">
<path d="M16 30V26" stroke="#1C1C1E" stroke-width="3" stroke-linecap="round" stroke-linejoin="round"/>
<path d="M16 2V6" stroke="#1C1C1E" stroke-width="3" stroke-linecap="round" stroke-linejoin="round"/>
<path d="M2 16H6" stroke="#1C1C1E" stroke-width="3" stroke-linecap="round" stroke-linejoin="round"/>
<path d="M30 16H26" stroke="#1C1C1E" stroke-width="3" stroke-linecap="round" stroke-linejoin="round"/>
<path d="M6 5L26 27" stroke="#1C1C1E" stroke-width="3" stroke-linecap="round" stroke-linejoin="round"/>
<path d="M22.7264 23.4001C20.7638 25.184 18.1729 26.1152 15.5237 25.9889C12.8745 25.8625 10.384 24.6889 8.60013 22.7263C6.81622 20.7637 5.88501 18.1729 6.01137 15.5237C6.13772 12.8745 7.31128 10.384 9.27388 8.6001" stroke="#1C1C1E" stroke-width="3" stroke-linecap="round" stroke-linejoin="round"/>
<path d="M13.875 6.22625C14.5734 6.07599 15.2857 6.00015 16 6C17.5739 6.00138 19.1254 6.37395 20.5283 7.08743C21.9312 7.80092 23.1461 8.83521 24.0743 10.1063C25.0025 11.3774 25.6178 12.8496 25.8703 14.4031C26.1228 15.9567 26.0054 17.5479 25.5275 19.0475" stroke="#1C1C1E" stroke-width="3" stroke-linecap="round" stroke-linejoin="round"/>
</svg>
