<svg width="32" height="32" viewBox="0 0 32 32" fill="none" xmlns="http://www.w3.org/2000/svg">
<path d="M16 28C13.3478 28 10.8043 26.9464 8.92893 25.0711C7.05357 23.1957 6 20.6522 6 18V17C8.65216 17 11.1957 18.0536 13.0711 19.9289C14.9464 21.8043 16 24.3478 16 27V28Z" stroke="#1C1C1E" stroke-width="3" stroke-linecap="round" stroke-linejoin="round"/>
<path d="M6 5L26 27" stroke="#1C1C1E" stroke-width="3" stroke-linecap="round" stroke-linejoin="round"/>
<path d="M6 17V8.00001C7.08933 7.99875 8.17153 8.17567 9.20375 8.52376" stroke="#1C1C1E" stroke-width="3" stroke-linecap="round" stroke-linejoin="round"/>
<path d="M12.9922 5.25875C13.8793 4.36335 14.8925 3.60239 15.9997 3C15.9997 3 20.0484 5.02375 21.4997 9.0725" stroke="#1C1C1E" stroke-width="3" stroke-linecap="round" stroke-linejoin="round"/>
<path d="M26 17V8.00001C24.5889 7.99845 23.1934 8.29636 21.906 8.87406C20.6185 9.45176 19.4682 10.2961 18.5312 11.3513" stroke="#1C1C1E" stroke-width="3" stroke-linecap="round" stroke-linejoin="round"/>
<path d="M25.895 19.4513C25.9648 18.9707 25.9999 18.4856 26 18V17C25.2857 17.0002 24.5734 17.076 23.875 17.2262" stroke="#1C1C1E" stroke-width="3" stroke-linecap="round" stroke-linejoin="round"/>
<path d="M19.2738 19.5996C18.2414 20.536 17.4168 21.6782 16.8529 22.9528C16.2891 24.2273 15.9985 25.6059 16 26.9996V27.9996C17.4606 28.0009 18.9037 27.6816 20.2274 27.0643C21.5512 26.4471 22.7234 25.5468 23.6613 24.4271" stroke="#1C1C1E" stroke-width="3" stroke-linecap="round" stroke-linejoin="round"/>
</svg>
