<svg width="32" height="32" viewBox="0 0 32 32" fill="none" xmlns="http://www.w3.org/2000/svg">
<path d="M14.7812 13.2587L13.2188 9.74121" stroke="#1C1C1E" stroke-width="3" stroke-linecap="round" stroke-linejoin="round"/>
<path d="M22.1542 13.9492L18.8467 15.0517" stroke="#1C1C1E" stroke-width="3" stroke-linecap="round" stroke-linejoin="round"/>
<path d="M22.6322 21.1583L18.3672 17.8408" stroke="#1C1C1E" stroke-width="3" stroke-linecap="round" stroke-linejoin="round"/>
<path d="M13.7572 17.9922L9.24219 22.0072" stroke="#1C1C1E" stroke-width="3" stroke-linecap="round" stroke-linejoin="round"/>
<path d="M16 19C17.6569 19 19 17.6569 19 16C19 14.3431 17.6569 13 16 13C14.3431 13 13 14.3431 13 16C13 17.6569 14.3431 19 16 19Z" stroke="#1C1C1E" stroke-width="3" stroke-linecap="round" stroke-linejoin="round"/>
<path d="M12 10C13.6569 10 15 8.65685 15 7C15 5.34315 13.6569 4 12 4C10.3431 4 9 5.34315 9 7C9 8.65685 10.3431 10 12 10Z" stroke="#1C1C1E" stroke-width="3" stroke-linecap="round" stroke-linejoin="round"/>
<path d="M25 15.5C26.6569 15.5 28 14.1569 28 12.5C28 10.8431 26.6569 9.5 25 9.5C23.3431 9.5 22 10.8431 22 12.5C22 14.1569 23.3431 15.5 25 15.5Z" stroke="#1C1C1E" stroke-width="3" stroke-linecap="round" stroke-linejoin="round"/>
<path d="M25 26.5C26.6569 26.5 28 25.1569 28 23.5C28 21.8431 26.6569 20.5 25 20.5C23.3431 20.5 22 21.8431 22 23.5C22 25.1569 23.3431 26.5 25 26.5Z" stroke="#1C1C1E" stroke-width="3" stroke-linecap="round" stroke-linejoin="round"/>
<path d="M7 27C8.65685 27 10 25.6569 10 24C10 22.3431 8.65685 21 7 21C5.34315 21 4 22.3431 4 24C4 25.6569 5.34315 27 7 27Z" stroke="#1C1C1E" stroke-width="3" stroke-linecap="round" stroke-linejoin="round"/>
</svg>
