<svg width="32" height="32" viewBox="0 0 32 32" fill="none" xmlns="http://www.w3.org/2000/svg">
<path d="M2 23H29C29.2652 23 29.5196 22.8946 29.7071 22.7071C29.8946 22.5196 30 22.2652 30 22V8C30 7.73478 29.8946 7.48043 29.7071 7.29289C29.5196 7.10536 29.2652 7 29 7H2V26" stroke="#1C1C1E" stroke-width="3" stroke-linecap="round" stroke-linejoin="round"/>
<path d="M22 18.5C23.933 18.5 25.5 16.933 25.5 15C25.5 13.067 23.933 11.5 22 11.5C20.067 11.5 18.5 13.067 18.5 15C18.5 16.933 20.067 18.5 22 18.5Z" stroke="#1C1C1E" stroke-width="3" stroke-linecap="round" stroke-linejoin="round"/>
<path d="M12 26V23" stroke="#1C1C1E" stroke-width="3" stroke-linecap="round" stroke-linejoin="round"/>
<path d="M7 23V26" stroke="#1C1C1E" stroke-width="3" stroke-linecap="round" stroke-linejoin="round"/>
<path d="M17 26V23" stroke="#1C1C1E" stroke-width="3" stroke-linecap="round" stroke-linejoin="round"/>
<path d="M10 18.5C11.933 18.5 13.5 16.933 13.5 15C13.5 13.067 11.933 11.5 10 11.5C8.067 11.5 6.5 13.067 6.5 15C6.5 16.933 8.067 18.5 10 18.5Z" stroke="#1C1C1E" stroke-width="3" stroke-linecap="round" stroke-linejoin="round"/>
</svg>
