<svg width="32" height="32" viewBox="0 0 32 32" fill="none" xmlns="http://www.w3.org/2000/svg">
<path d="M7.50892 13.9999C7.90403 13.9934 8.28864 13.8716 8.61551 13.6495C8.94238 13.4275 9.19728 13.1148 9.34892 12.7499C9.56364 12.2067 9.88738 11.7132 10.3002 11.2999C12.4539 9.14613 16.5277 9.72863 19.4002 12.5999C22.2727 15.4711 22.8539 19.5461 20.7002 21.6999C20.2847 22.1135 19.7886 22.4373 19.2427 22.6511C18.8778 22.8028 18.5651 23.0577 18.343 23.3845C18.1209 23.7114 17.9992 24.096 17.9927 24.4911C17.9452 25.9999 17.4239 27.3749 16.4002 28.3999C13.7502 31.0499 8.73517 30.3336 5.20017 26.7999C1.66517 23.2661 0.950167 18.2499 3.60017 15.5999C4.62517 14.5761 6.00017 14.0549 7.50892 13.9999Z" stroke="#1C1C1E" stroke-width="3" stroke-linecap="round" stroke-linejoin="round"/>
<path d="M7.5 21.5L10.5 24.5" stroke="#1C1C1E" stroke-width="3" stroke-linecap="round" stroke-linejoin="round"/>
<path d="M14 21C15.6569 21 17 19.6569 17 18C17 16.3431 15.6569 15 14 15C12.3431 15 11 16.3431 11 18C11 19.6569 12.3431 21 14 21Z" fill="#1C1C1E"/>
<path d="M25.5 1.5L30.5 6.5" stroke="#1C1C1E" stroke-width="3" stroke-linecap="round" stroke-linejoin="round"/>
<path d="M21.75 6.75L25.25 10.25" stroke="#1C1C1E" stroke-width="3" stroke-linecap="round" stroke-linejoin="round"/>
<path d="M17.4238 11.0763L26.2501 2.25" stroke="#1C1C1E" stroke-width="3" stroke-linecap="round" stroke-linejoin="round"/>
<path d="M20.9238 14.5763L29.7501 5.75" stroke="#1C1C1E" stroke-width="3" stroke-linecap="round" stroke-linejoin="round"/>
</svg>
