<svg width="32" height="32" viewBox="0 0 32 32" fill="none" xmlns="http://www.w3.org/2000/svg">
<path d="M3 22.5L8.5 20.5L13.5 22.5L18.5 20.5L23.5 22.5L29 20.5" stroke="#1C1C1E" stroke-width="3" stroke-linecap="round" stroke-linejoin="round"/>
<path d="M3 16H29" stroke="#1C1C1E" stroke-width="3" stroke-linecap="round" stroke-linejoin="round"/>
<path d="M26 21.5917V23.0004C26 24.0613 25.5786 25.0787 24.8284 25.8289C24.0783 26.579 23.0609 27.0004 22 27.0004H10C8.93913 27.0004 7.92172 26.579 7.17157 25.8289C6.42143 25.0787 6 24.0613 6 23.0004V21.4092" stroke="#1C1C1E" stroke-width="3" stroke-linecap="round" stroke-linejoin="round"/>
<path d="M6.02457 11.5C5.86704 11.5033 5.71097 11.4692 5.56909 11.4007C5.4272 11.3322 5.30351 11.2312 5.2081 11.1058C5.11269 10.9804 5.04826 10.8342 5.02006 10.6792C4.99185 10.5242 5.00068 10.3647 5.04581 10.2137C6.18581 6.655 10.6571 4 15.9996 4C21.3421 4 25.8146 6.65625 26.9533 10.2163C26.998 10.3671 27.0064 10.5263 26.978 10.6809C26.9496 10.8356 26.8851 10.9814 26.7897 11.1065C26.6944 11.2316 26.5708 11.3324 26.4292 11.4008C26.2876 11.4691 26.1318 11.5031 25.9746 11.5H6.02457Z" stroke="#1C1C1E" stroke-width="3" stroke-linecap="round" stroke-linejoin="round"/>
</svg>
