<svg width="32" height="32" viewBox="0 0 32 32" fill="none" xmlns="http://www.w3.org/2000/svg">
<path d="M13.5 14.5L17.5 18.5" stroke="#1C1C1E" stroke-width="3" stroke-linecap="round" stroke-linejoin="round"/>
<path d="M5.00016 8.00017L6.72141 6.22142C7.74288 5.19981 8.95558 4.38941 10.2903 3.8365C11.625 3.2836 13.0555 2.99902 14.5002 2.99902C15.9448 2.99902 17.3754 3.2836 18.7101 3.8365C20.0447 4.38941 21.2574 5.19981 22.2789 6.22142L30.2077 14.2077C30.3951 14.3952 30.5003 14.6494 30.5003 14.9145C30.5003 15.1797 30.3951 15.4339 30.2077 15.6214L26.6252 19.2077C26.4376 19.3951 26.1834 19.5003 25.9183 19.5003C25.6532 19.5003 25.3989 19.3951 25.2114 19.2077L21.0002 15.0002L8.29266 27.7077C8.10514 27.8951 7.85089 28.0003 7.58579 28.0003C7.32068 28.0003 7.06643 27.8951 6.87891 27.7077L4.29266 25.1252C4.10527 24.9377 4 24.6834 4 24.4183C4 24.1532 4.10527 23.8989 4.29266 23.7114L17.0002 11.0002L9.97266 3.97267" stroke="#1C1C1E" stroke-width="3" stroke-linecap="round" stroke-linejoin="round"/>
<path d="M27.26 11.2402L22.25 16.2502" stroke="#1C1C1E" stroke-width="3" stroke-linecap="round" stroke-linejoin="round"/>
</svg>
