<svg width="32" height="32" viewBox="0 0 32 32" fill="none" xmlns="http://www.w3.org/2000/svg">
<path d="M26.2085 9H5.79096C5.54517 8.99997 5.30784 9.08979 5.12366 9.25256C4.93948 9.41533 4.82115 9.63981 4.79096 9.88375L3.00971 24.8838C2.99324 25.0245 3.00686 25.1671 3.04968 25.3022C3.09251 25.4373 3.16355 25.5617 3.2581 25.6673C3.35266 25.7728 3.46856 25.8571 3.59814 25.9144C3.72772 25.9718 3.86801 26.001 4.00971 26H27.9897C28.1314 26.001 28.2717 25.9718 28.4013 25.9144C28.5309 25.8571 28.6468 25.7728 28.7413 25.6673C28.8359 25.5617 28.9069 25.4373 28.9497 25.3022C28.9926 25.1671 29.0062 25.0245 28.9897 24.8838L27.2085 9.88375C27.1783 9.63981 27.0599 9.41533 26.8758 9.25256C26.6916 9.08979 26.4543 8.99997 26.2085 9Z" stroke="#1C1C1E" stroke-width="3" stroke-linecap="round" stroke-linejoin="round"/>
<path d="M11 9V8C11 6.67392 11.5268 5.40215 12.4645 4.46447C13.4021 3.52678 14.6739 3 16 3C17.3261 3 18.5979 3.52678 19.5355 4.46447C20.4732 5.40215 21 6.67392 21 8V9" stroke="#1C1C1E" stroke-width="3" stroke-linecap="round" stroke-linejoin="round"/>
</svg>
