<svg width="32" height="32" viewBox="0 0 32 32" fill="none" xmlns="http://www.w3.org/2000/svg">
<path d="M9.58496 9.07875L16 7L22.415 9.07875" stroke="#1C1C1E" stroke-width="3" stroke-linecap="round" stroke-linejoin="round"/>
<path d="M4.79659 7.80236L1.60659 14.1849C1.48803 14.4219 1.46844 14.6963 1.55212 14.9478C1.63579 15.1993 1.81589 15.4073 2.05284 15.5261L5.50034 17.2499L9.58534 9.07861L6.13909 7.35611C6.02165 7.29721 5.89375 7.26204 5.76271 7.25259C5.63166 7.24314 5.50004 7.25961 5.37537 7.30105C5.25069 7.34249 5.13541 7.4081 5.0361 7.49412C4.93679 7.58013 4.8554 7.68488 4.79659 7.80236Z" stroke="#1C1C1E" stroke-width="3" stroke-linecap="round" stroke-linejoin="round"/>
<path d="M26.5 17.2499L29.9475 15.5261C30.1845 15.4073 30.3646 15.1993 30.4483 14.9478C30.5319 14.6963 30.5123 14.4219 30.3938 14.1849L27.2038 7.80236C27.145 7.68488 27.0636 7.58013 26.9643 7.49412C26.865 7.4081 26.7497 7.34249 26.625 7.30105C26.5003 7.25961 26.3687 7.24314 26.2377 7.25259C26.1066 7.26204 25.9787 7.29721 25.8613 7.35611L22.415 9.07861L26.5 17.2499Z" stroke="#1C1C1E" stroke-width="3" stroke-linecap="round" stroke-linejoin="round"/>
<path d="M22.1696 9H17.9996L12.2921 14.5363C12.186 14.6423 12.1051 14.7709 12.0554 14.9124C12.0058 15.054 11.9886 15.2049 12.0051 15.354C12.0217 15.5031 12.0716 15.6465 12.1511 15.7737C12.2307 15.9009 12.3378 16.0086 12.4646 16.0888C14.6533 17.4875 17.6246 17.3912 19.9996 15L24.4996 19.25L26.4996 17.25" stroke="#1C1C1E" stroke-width="3" stroke-linecap="round" stroke-linejoin="round"/>
<path d="M24.5 19.25L19.75 24L12 22L5.5 17.25" stroke="#1C1C1E" stroke-width="3" stroke-linecap="round" stroke-linejoin="round"/>
<path d="M13.3663 26.9999L10.0413 26.1412L7 23.9199" stroke="#1C1C1E" stroke-width="3" stroke-linecap="round" stroke-linejoin="round"/>
</svg>
