<svg width="32" height="32" viewBox="0 0 32 32" fill="none" xmlns="http://www.w3.org/2000/svg">
<path d="M10 13.5H22C23.0609 13.5 24.0783 13.9214 24.8284 14.6716C25.5786 15.4217 26 16.4391 26 17.5V27C26 27.2652 25.8946 27.5196 25.7071 27.7071C25.5196 27.8946 25.2652 28 25 28H7C6.73478 28 6.48043 27.8946 6.29289 27.7071C6.10536 27.5196 6 27.2652 6 27V17.5C6 16.4391 6.42143 15.4217 7.17157 14.6716C7.92172 13.9214 8.93913 13.5 10 13.5Z" stroke="#1C1C1E" stroke-width="3" stroke-linecap="round" stroke-linejoin="round"/>
<path d="M10 13.5V11.5C10 10.7044 10.3161 9.94129 10.8787 9.37868C11.4413 8.81607 12.2044 8.5 13 8.5H19C19.7956 8.5 20.5587 8.81607 21.1213 9.37868C21.6839 9.94129 22 10.7044 22 11.5V13.5" stroke="#1C1C1E" stroke-width="3" stroke-linecap="round" stroke-linejoin="round"/>
<path d="M23 5C23 4.46957 22.7893 3.96086 22.4142 3.58579C22.0391 3.21071 21.5304 3 21 3H13" stroke="#1C1C1E" stroke-width="3" stroke-linecap="round" stroke-linejoin="round"/>
<path d="M16 3V8.5" stroke="#1C1C1E" stroke-width="3" stroke-linecap="round" stroke-linejoin="round"/>
</svg>
