<svg width="32" height="32" viewBox="0 0 32 32" fill="none" xmlns="http://www.w3.org/2000/svg">
<path d="M8.49953 28L5.33453 22.75C5.00823 22.1761 4.92218 21.4964 5.09515 20.8593C5.26812 20.2222 5.68607 19.6794 6.25779 19.3493C6.82951 19.0192 7.50858 18.9287 8.14682 19.0974C8.78506 19.2661 9.33065 19.6805 9.66453 20.25L11.9995 24V10.5C11.9995 9.83696 12.2629 9.20107 12.7318 8.73223C13.2006 8.26339 13.8365 8 14.4995 8C15.1626 8 15.7985 8.26339 16.2673 8.73223C16.7361 9.20107 16.9995 9.83696 16.9995 10.5V17.5C16.9995 16.837 17.2629 16.2011 17.7318 15.7322C18.2006 15.2634 18.8365 15 19.4995 15C20.1626 15 20.7985 15.2634 21.2673 15.7322C21.7361 16.2011 21.9995 16.837 21.9995 17.5V19.5C21.9995 18.837 22.2629 18.2011 22.7318 17.7322C23.2006 17.2634 23.8365 17 24.4995 17C25.1626 17 25.7985 17.2634 26.2673 17.7322C26.7361 18.2011 26.9995 18.837 26.9995 19.5V24C26.9995 25.73 26.7808 27.125 26.4995 28" stroke="#1C1C1E" stroke-width="3" stroke-linecap="round" stroke-linejoin="round"/>
<path d="M7 10.5C7 8.51088 7.79018 6.60322 9.1967 5.1967C10.6032 3.79018 12.5109 3 14.5 3C16.4891 3 18.3968 3.79018 19.8033 5.1967C21.2098 6.60322 22 8.51088 22 10.5" stroke="#1C1C1E" stroke-width="3" stroke-linecap="round" stroke-linejoin="round"/>
</svg>
