<svg width="32" height="32" viewBox="0 0 32 32" fill="none" xmlns="http://www.w3.org/2000/svg">
<path d="M10.4425 10.8752L9.72627 9.62517C9.4279 9.10833 8.93644 8.73119 8.36 8.5767C7.78356 8.42222 7.16936 8.50305 6.65252 8.80142C6.13568 9.09979 5.75853 9.59125 5.60405 10.1677C5.44956 10.7441 5.5304 11.3583 5.82877 11.8752L8.20377 15.9889" stroke="#1C1C1E" stroke-width="3" stroke-linecap="round" stroke-linejoin="round"/>
<path d="M13.6935 16.5004L10.4435 10.8754C10.2893 10.6193 10.1877 10.335 10.1446 10.0392C10.1015 9.74342 10.1178 9.442 10.1925 9.15255C10.2672 8.86311 10.3988 8.59146 10.5797 8.35346C10.7606 8.11546 10.987 7.91588 11.2459 7.76639C11.5048 7.61691 11.7908 7.5205 12.0874 7.4828C12.3839 7.44511 12.685 7.46688 12.973 7.54685C13.2611 7.62682 13.5303 7.76339 13.7649 7.94857C13.9996 8.13375 14.195 8.36383 14.3397 8.62538L18.896 16.5004" stroke="#1C1C1E" stroke-width="3" stroke-linecap="round" stroke-linejoin="round"/>
<path d="M12.7499 5.87517L12.0349 4.62517C11.7365 4.10833 11.245 3.73119 10.6686 3.5767C10.0921 3.42222 9.47795 3.50305 8.96111 3.80142C8.44427 4.09979 8.06712 4.59125 7.91264 5.16769C7.75816 5.74413 7.83899 6.35833 8.13736 6.87517L9.72611 9.62517" stroke="#1C1C1E" stroke-width="3" stroke-linecap="round" stroke-linejoin="round"/>
<path d="M14.3389 8.62538L12.7501 5.87538C12.5959 5.61929 12.4943 5.33503 12.4512 5.03923C12.4081 4.74342 12.4244 4.442 12.4991 4.15255C12.5738 3.86311 12.7055 3.59146 12.8863 3.35346C13.0672 3.11546 13.2937 2.91588 13.5525 2.76639C13.8114 2.61691 14.0975 2.5205 14.394 2.4828C14.6906 2.44511 14.9916 2.46688 15.2797 2.54685C15.5677 2.62682 15.8369 2.76339 16.0716 2.94857C16.3062 3.13375 16.5016 3.36383 16.6464 3.62538L21.2714 11.6254" stroke="#1C1C1E" stroke-width="3" stroke-linecap="round" stroke-linejoin="round"/>
<path d="M24.8746 21.9702C26.24 20.5648 27.1094 18.7522 27.3508 16.8077C27.5922 14.8632 27.1924 12.893 26.2121 11.1964L23.5759 6.62517C23.2775 6.10833 22.786 5.73119 22.2096 5.5767C21.6332 5.42222 21.019 5.50305 20.5021 5.80142C19.9853 6.09979 19.6081 6.59125 19.4537 7.16769C19.2992 7.74413 19.38 8.35833 19.6784 8.87517" stroke="#1C1C1E" stroke-width="3" stroke-linecap="round" stroke-linejoin="round"/>
<path d="M10.2264 19.5L7.69892 15.125C7.55119 14.8691 7.35449 14.6448 7.12006 14.4649C6.88564 14.285 6.61808 14.1531 6.33265 14.0766C5.75621 13.9221 5.14201 14.0029 4.62517 14.3013C4.10833 14.5997 3.73119 15.0911 3.5767 15.6676C3.42222 16.244 3.50305 16.8582 3.80142 17.375L5.00017 19.4488L8.20392 25C9.3974 27.0672 11.3632 28.5757 13.6688 29.1935C15.9745 29.8113 18.4311 29.4879 20.4983 28.2944C22.5655 27.1009 24.0739 25.1352 24.6917 22.8295C25.3095 20.5239 24.9861 18.0672 23.7927 16L21.2677 11.625C21.127 11.3562 20.9334 11.1185 20.6985 10.9264C20.4636 10.7342 20.1923 10.5916 19.9009 10.5071C19.6094 10.4225 19.3039 10.3978 19.0027 10.4344C18.7014 10.471 18.4107 10.5681 18.148 10.72C17.8853 10.8719 17.656 11.0753 17.4739 11.3181C17.2919 11.5608 17.1608 11.8379 17.0886 12.1327C17.0164 12.4274 17.0046 12.7337 17.0538 13.0331C17.1031 13.3326 17.2124 13.6189 17.3752 13.875" stroke="#1C1C1E" stroke-width="3" stroke-linecap="round" stroke-linejoin="round"/>
</svg>
