<svg width="32" height="32" viewBox="0 0 32 32" fill="none" xmlns="http://www.w3.org/2000/svg">
<path d="M6 26H2.5C2.23478 26 1.98043 25.8946 1.79289 25.7071C1.60536 25.5196 1.5 25.2652 1.5 25V20C1.5 19.7348 1.60536 19.4804 1.79289 19.2929C1.98043 19.1054 2.23478 19 2.5 19H6" stroke="#1C1C1E" stroke-width="3" stroke-linecap="round" stroke-linejoin="round"/>
<path d="M14 20H18L26.375 18.0738C26.6829 17.9894 27.0061 17.9771 27.3195 18.038C27.6329 18.0989 27.9281 18.2312 28.182 18.4247C28.436 18.6181 28.6419 18.8676 28.7838 19.1536C28.9256 19.4396 28.9996 19.7545 29 20.0738C29.0002 20.4592 28.8929 20.8371 28.6902 21.165C28.4875 21.4929 28.1974 21.7578 27.8525 21.93L23 24L15 26H6V19L9.125 15.875C9.40432 15.5967 9.73577 15.3761 10.1004 15.226C10.465 15.0758 10.8557 14.999 11.25 15H17.5C18.163 15 18.7989 15.2634 19.2678 15.7322C19.7366 16.2011 20 16.837 20 17.5C20 18.1631 19.7366 18.7989 19.2678 19.2678C18.7989 19.7366 18.163 20 17.5 20H14Z" stroke="#1C1C1E" stroke-width="3" stroke-linecap="round" stroke-linejoin="round"/>
<path d="M12.0913 15.0003C10.875 13.4653 10 11.8203 10 10.0003C10 7.28909 12.2087 5.00034 14.9325 5.00034C15.906 4.98892 16.8607 5.26832 17.6744 5.80278C18.4881 6.33724 19.1238 7.10242 19.5 8.00034C19.8762 7.10242 20.5119 6.33724 21.3256 5.80278C22.1393 5.26832 23.094 4.98892 24.0675 5.00034C26.7912 5.00034 29 7.28909 29 10.0003C29 13.6541 25.4775 16.8841 22.7225 18.9153" stroke="#1C1C1E" stroke-width="3" stroke-linecap="round" stroke-linejoin="round"/>
</svg>
