<svg width="32" height="32" viewBox="0 0 32 32" fill="none" xmlns="http://www.w3.org/2000/svg">
<path d="M16 25C17.1046 25 18 24.1046 18 23C18 21.8954 17.1046 21 16 21C14.8954 21 14 21.8954 14 23C14 24.1046 14.8954 25 16 25Z" fill="#1C1C1E"/>
<path d="M11 9.5V5.5C11 4.83696 11.2634 4.20107 11.7322 3.73223C12.2011 3.26339 12.837 3 13.5 3C14.163 3 14.7989 3.26339 15.2678 3.73223C15.7366 4.20107 16 4.83696 16 5.5V13" stroke="#1C1C1E" stroke-width="3" stroke-linecap="round" stroke-linejoin="round"/>
<path d="M16 7.5C16 6.83696 16.2634 6.20107 16.7322 5.73223C17.2011 5.26339 17.837 5 18.5 5C19.163 5 19.7989 5.26339 20.2678 5.73223C20.7366 6.20107 21 6.83696 21 7.5V14" stroke="#1C1C1E" stroke-width="3" stroke-linecap="round" stroke-linejoin="round"/>
<path d="M21 14C21 13.337 21.2634 12.7011 21.7322 12.2322C22.2011 11.7634 22.837 11.5 23.5 11.5C24.163 11.5 24.7989 11.7634 25.2678 12.2322C25.7366 12.7011 26 13.337 26 14V19C26 21.6522 24.9464 24.1957 23.0711 26.0711C21.1957 27.9464 18.6522 29 16 29C13.3478 29 10.8043 27.9464 8.92893 26.0711C7.05357 24.1957 6 21.6522 6 19V9.5C6 8.83696 6.26339 8.20107 6.73223 7.73223C7.20107 7.26339 7.83696 7 8.5 7C9.16304 7 9.79893 7.26339 10.2678 7.73223C10.7366 8.20107 11 8.83696 11 9.5V14" stroke="#1C1C1E" stroke-width="3" stroke-linecap="round" stroke-linejoin="round"/>
<path d="M11.0996 20.5C11.5602 19.5966 12.2616 18.838 13.1264 18.3082C13.9911 17.7784 14.9855 17.498 15.9996 17.498C17.0137 17.498 18.0081 17.7784 18.8728 18.3082C19.7376 18.838 20.439 19.5966 20.8996 20.5" stroke="#1C1C1E" stroke-width="3" stroke-linecap="round" stroke-linejoin="round"/>
</svg>
