<svg width="32" height="32" viewBox="0 0 32 32" fill="none" xmlns="http://www.w3.org/2000/svg">
<path d="M6 26H2.5C2.23478 26 1.98043 25.8946 1.79289 25.7071C1.60536 25.5196 1.5 25.2652 1.5 25V20C1.5 19.7348 1.60536 19.4804 1.79289 19.2929C1.98043 19.1054 2.23478 19 2.5 19H6" stroke="#1C1C1E" stroke-width="3" stroke-linecap="round" stroke-linejoin="round"/>
<path d="M25.5 13.5C27.433 13.5 29 11.933 29 10C29 8.067 27.433 6.5 25.5 6.5C23.567 6.5 22 8.067 22 10C22 11.933 23.567 13.5 25.5 13.5Z" stroke="#1C1C1E" stroke-width="3" stroke-linecap="round" stroke-linejoin="round"/>
<path d="M14 20H18L26.375 18.0738C26.6829 17.9894 27.0061 17.9771 27.3195 18.038C27.6329 18.0989 27.9281 18.2312 28.182 18.4247C28.436 18.6181 28.6419 18.8676 28.7838 19.1536C28.9256 19.4396 28.9996 19.7545 29 20.0738C29.0002 20.4592 28.8929 20.8371 28.6902 21.165C28.4875 21.4929 28.1974 21.7578 27.8525 21.93L23 24L15 26H6V19L9.125 15.875C9.40432 15.5967 9.73577 15.3761 10.1004 15.226C10.465 15.0758 10.8557 14.999 11.25 15H17.5C18.163 15 18.7989 15.2634 19.2678 15.7322C19.7366 16.2011 20 16.837 20 17.5C20 18.1631 19.7366 18.7989 19.2678 19.2678C18.7989 19.7366 18.163 20 17.5 20H14Z" stroke="#1C1C1E" stroke-width="3" stroke-linecap="round" stroke-linejoin="round"/>
<path d="M22.0578 10.6347C21.4006 10.9611 20.6575 11.0727 19.9334 10.9537C19.2093 10.8347 18.541 10.4911 18.0228 9.97156C17.5046 9.452 17.1629 8.78272 17.0458 8.05833C16.9287 7.33394 17.0423 6.59108 17.3705 5.93476C17.6986 5.27844 18.2248 4.74186 18.8745 4.40086C19.5243 4.05987 20.2648 3.93172 20.9913 4.03452C21.7179 4.13732 22.3937 4.46587 22.9234 4.97374C23.453 5.4816 23.8096 6.14308 23.9428 6.86468" stroke="#1C1C1E" stroke-width="3" stroke-linecap="round" stroke-linejoin="round"/>
</svg>
