<svg width="32" height="32" viewBox="0 0 32 32" fill="none" xmlns="http://www.w3.org/2000/svg">
<path d="M12.0816 7.75029C11.7553 7.1764 11.6693 6.49674 11.8422 5.85963C12.0152 5.22253 12.4331 4.6797 13.0049 4.34961C13.5766 4.01952 14.2557 3.92896 14.8939 4.0977C15.5321 4.26644 16.0777 4.68078 16.4116 5.25029L20.1616 11.7503" stroke="#1C1C1E" stroke-width="3" stroke-linecap="round" stroke-linejoin="round"/>
<path d="M8.66467 11.8333L6.88467 8.74952C6.55315 8.17516 6.46337 7.49263 6.63509 6.85207C6.8068 6.21152 7.22594 5.66541 7.8003 5.33389C8.37466 5.00237 9.05719 4.91259 9.69774 5.0843C10.3383 5.25602 10.8844 5.67516 11.2159 6.24952L15.1122 12.9995" stroke="#1C1C1E" stroke-width="3" stroke-linecap="round" stroke-linejoin="round"/>
<path d="M19.8587 20.0002C19.139 18.9367 18.8561 17.637 19.0686 16.3706C19.281 15.1042 19.9726 13.9681 21 13.1977L20.165 11.7502C19.8334 11.1753 19.7439 10.4923 19.9159 9.85139C20.088 9.21049 20.5076 8.66418 21.0825 8.33266C21.6573 8.00114 22.3403 7.91156 22.9812 8.08363C23.6221 8.25569 24.1684 8.67531 24.5 9.25016L26.6637 13.0002C27.3203 14.1378 27.7464 15.3937 27.9177 16.696C28.0889 17.9983 28.002 19.3216 27.6619 20.5904C27.3217 21.8591 26.735 23.0484 25.9352 24.0904C25.1354 25.1324 24.1382 26.0067 23.0006 26.6633C20.703 27.9894 17.9727 28.3484 15.4104 27.6615C12.848 26.9745 10.6635 25.2978 9.33746 23.0002L4.33746 14.3352C4.01116 13.7613 3.92511 13.0816 4.09808 12.4445C4.27105 11.8074 4.689 11.2646 5.26072 10.9345C5.83244 10.6044 6.51151 10.5138 7.14975 10.6826C7.78799 10.8513 8.33358 11.2656 8.66746 11.8352L11.0712 16.0002" stroke="#1C1C1E" stroke-width="3" stroke-linecap="round" stroke-linejoin="round"/>
<path d="M27.5137 5.0791C26.6638 4.26986 25.6364 3.67057 24.5137 3.3291" stroke="#1C1C1E" stroke-width="3" stroke-linecap="round" stroke-linejoin="round"/>
<path d="M7.27879 28.5C6.40022 27.5984 5.63766 26.5906 5.00879 25.5" stroke="#1C1C1E" stroke-width="3" stroke-linecap="round" stroke-linejoin="round"/>
</svg>
