<svg width="32" height="32" viewBox="0 0 32 32" fill="none" xmlns="http://www.w3.org/2000/svg">
<path d="M15.5 12.5C14.9067 12.5 14.3266 12.3241 13.8333 11.9944C13.3399 11.6648 12.9554 11.1962 12.7284 10.6481C12.5013 10.0999 12.4419 9.49667 12.5576 8.91473C12.6734 8.33279 12.9591 7.79824 13.3787 7.37868C13.7982 6.95912 14.3328 6.6734 14.9147 6.55765C15.4967 6.44189 16.0999 6.5013 16.6481 6.72836C17.1962 6.95543 17.6648 7.33994 17.9944 7.83329C18.3241 8.32664 18.5 8.90666 18.5 9.5C18.5 10.2957 18.1839 11.0587 17.6213 11.6213C17.0587 12.1839 16.2957 12.5 15.5 12.5Z" fill="#1C1C1E"/>
<path d="M18 20C17.4067 20 16.8266 19.8241 16.3333 19.4944C15.8399 19.1648 15.4554 18.6962 15.2284 18.1481C15.0013 17.5999 14.9419 16.9967 15.0576 16.4147C15.1734 15.8328 15.4591 15.2982 15.8787 14.8787C16.2982 14.4591 16.8328 14.1734 17.4147 14.0576C17.9967 13.9419 18.5999 14.0013 19.1481 14.2284C19.6962 14.4554 20.1648 14.8399 20.4944 15.3333C20.8241 15.8266 21 16.4067 21 17C21 17.7957 20.6839 18.5587 20.1213 19.1213C19.5587 19.6839 18.7957 20 18 20Z" fill="#1C1C1E"/>
<path d="M15.0004 27H9.0004C8.73519 27 8.48083 26.8946 8.2933 26.7071C8.10576 26.5196 8.0004 26.2652 8.0004 26V21.4763L4.5529 19.8975C4.32511 19.7833 4.14949 19.5865 4.0619 19.3472C3.97432 19.1079 3.98139 18.8443 4.08165 18.61L7.0004 13C7.0004 11.2954 7.43612 9.61916 8.26619 8.13036C9.09625 6.64155 10.2931 5.38964 11.7431 4.49349C13.1931 3.59735 14.8481 3.08673 16.5509 3.01011C18.2538 2.93349 19.9479 3.29342 21.4725 4.05573C22.9971 4.81803 24.3016 5.95741 25.262 7.36565C26.2224 8.7739 26.8069 10.4043 26.96 12.1019C27.1131 13.7996 26.8297 15.5083 26.1366 17.0656C25.4436 18.6229 24.3641 19.9773 23.0004 21L24.0004 29" stroke="#1C1C1E" stroke-width="3" stroke-linecap="round" stroke-linejoin="round"/>
<path d="M26.7975 11H23L18 17" stroke="#1C1C1E" stroke-width="3" stroke-linecap="round" stroke-linejoin="round"/>
<path d="M15.5 9.50008V3.11133" stroke="#1C1C1E" stroke-width="3" stroke-linecap="round" stroke-linejoin="round"/>
</svg>
