<svg width="32" height="32" viewBox="0 0 32 32" fill="none" xmlns="http://www.w3.org/2000/svg">
<path d="M22 10H30" stroke="#1C1C1E" stroke-width="3" stroke-linecap="round" stroke-linejoin="round"/>
<path d="M22 22H30" stroke="#1C1C1E" stroke-width="3" stroke-linecap="round" stroke-linejoin="round"/>
<path d="M22 16H30" stroke="#1C1C1E" stroke-width="3" stroke-linecap="round" stroke-linejoin="round"/>
<path d="M11.0003 25C9.81256 25 8.63659 24.765 7.54016 24.3084C6.44372 23.8518 5.4485 23.1827 4.61187 22.3397C3.77524 21.4967 3.11374 20.4964 2.66551 19.3965C2.21728 18.2966 1.99119 17.1189 2.00026 15.9312C2.03776 10.9687 6.15026 7 11.1128 7H16.0003C16.2655 7 16.5198 7.10536 16.7074 7.29289C16.8949 7.48043 17.0003 7.73478 17.0003 8V24C17.0003 24.2652 16.8949 24.5196 16.7074 24.7071C16.5198 24.8946 16.2655 25 16.0003 25H11.0003Z" stroke="#1C1C1E" stroke-width="3" stroke-linecap="round" stroke-linejoin="round"/>
</svg>
