<svg width="32" height="32" viewBox="0 0 32 32" fill="none" xmlns="http://www.w3.org/2000/svg">
<path d="M4 17H9L11 14L15 20L17 17H20" stroke="#1C1C1E" stroke-width="3" stroke-linecap="round" stroke-linejoin="round"/>
<path d="M3.04102 12C3.22551 10.3498 4.01176 8.82558 5.24942 7.71867C6.48709 6.61175 8.08932 5.99987 9.74977 6C12.5735 6 14.9923 7.53875 15.9998 10C17.0073 7.53875 19.426 6 22.2498 6C24.04 6 25.7569 6.71116 27.0227 7.97703C28.2886 9.2429 28.9998 10.9598 28.9998 12.75C28.9998 21 15.9998 28 15.9998 28C15.9998 28 11.5798 25.625 7.89477 22" stroke="#1C1C1E" stroke-width="3" stroke-linecap="round" stroke-linejoin="round"/>
</svg>
