<svg width="32" height="32" viewBox="0 0 32 32" fill="none" xmlns="http://www.w3.org/2000/svg">
<path d="M4 15C10.2975 15 15.6888 18.91 17.9125 24.385C17.9888 24.5679 18.1177 24.7239 18.2828 24.8334C18.4479 24.9429 18.6419 25.0009 18.84 25H29.5C29.7652 25 30.0196 24.8946 30.2071 24.7071C30.3946 24.5196 30.5 24.2652 30.5 24V23.4088C30.4973 22.7292 30.2633 22.0707 29.8363 21.542C29.4094 21.0133 28.815 20.6457 28.1513 20.5L22 19L8 5C5.57375 7.6525 4 11.125 4 15Z" stroke="#1C1C1E" stroke-width="3" stroke-linecap="round" stroke-linejoin="round"/>
<path d="M10 16.25V24C10 24.2652 9.89464 24.5196 9.70711 24.7071C9.51957 24.8946 9.26522 25 9 25H5C4.73478 25 4.48043 24.8946 4.29289 24.7071C4.10536 24.5196 4 24.2652 4 24V15" stroke="#1C1C1E" stroke-width="3" stroke-linecap="round" stroke-linejoin="round"/>
</svg>
