<svg width="32" height="32" viewBox="0 0 32 32" fill="none" xmlns="http://www.w3.org/2000/svg">
<path d="M16 28C22.6274 28 28 22.6274 28 16C28 9.37258 22.6274 4 16 4C9.37258 4 4 9.37258 4 16C4 22.6274 9.37258 28 16 28Z" stroke="#1C1C1E" stroke-width="3" stroke-linecap="round" stroke-linejoin="round"/>
<path d="M13 18.5V13L19 10V18.5" stroke="#1C1C1E" stroke-width="3" stroke-linecap="round" stroke-linejoin="round"/>
<path d="M21 26.9125V19.5C21 19.2348 20.8946 18.9804 20.7071 18.7929C20.5196 18.6054 20.2652 18.5 20 18.5H12C11.7348 18.5 11.4804 18.6054 11.2929 18.7929C11.1054 18.9804 11 19.2348 11 19.5V26.9125" stroke="#1C1C1E" stroke-width="3" stroke-linecap="round" stroke-linejoin="round"/>
</svg>
