<svg width="32" height="32" viewBox="0 0 32 32" fill="none" xmlns="http://www.w3.org/2000/svg">
<path d="M21.5002 23V26C21.5002 26.2652 21.6056 26.5196 21.7931 26.7071C21.9807 26.8946 22.235 27 22.5002 27H25.8215C26.0408 26.9997 26.2539 26.9274 26.428 26.7942C26.6022 26.6609 26.7277 26.4741 26.7852 26.2625L29.4652 16.4387C29.5028 16.3009 29.5104 16.1567 29.4876 16.0156C29.4647 15.8746 29.4119 15.7401 29.3327 15.6213L22.5477 5.445C22.4565 5.30819 22.3328 5.196 22.1878 5.11838C22.0429 5.04076 21.881 5.0001 21.7165 5H10.284C10.1195 5.0001 9.95762 5.04076 9.81262 5.11838C9.66763 5.196 9.54402 5.30819 9.45274 5.445L2.66774 15.625C2.58854 15.7439 2.53574 15.8784 2.51288 16.0194C2.49003 16.1604 2.49765 16.3047 2.53524 16.4425L5.21524 26.2625C5.2728 26.4741 5.39831 26.6609 5.57245 26.7942C5.74659 26.9274 5.95971 26.9997 6.17899 27H9.50024C9.76545 27 10.0198 26.8946 10.2073 26.7071C10.3949 26.5196 10.5002 26.2652 10.5002 26V23" stroke="#1C1C1E" stroke-width="3" stroke-linecap="round" stroke-linejoin="round"/>
<path d="M16 10.5L23 6.125V22C23 22.2652 22.8946 22.5196 22.7071 22.7071C22.5196 22.8946 22.2652 23 22 23H10C9.73478 23 9.48043 22.8946 9.29289 22.7071C9.10536 22.5196 9 22.2652 9 22V6.125L16 10.5Z" stroke="#1C1C1E" stroke-width="3" stroke-linecap="round" stroke-linejoin="round"/>
<path d="M18.5 8.93652V16.0003" stroke="#1C1C1E" stroke-width="3" stroke-linecap="round" stroke-linejoin="round"/>
<path d="M13.5 8.93652V17.0003" stroke="#1C1C1E" stroke-width="3" stroke-linecap="round" stroke-linejoin="round"/>
</svg>
