<svg width="32" height="32" viewBox="0 0 32 32" fill="none" xmlns="http://www.w3.org/2000/svg">
<path d="M6.29524 6.7075C6.15538 6.5678 6.06006 6.38977 6.02133 6.19592C5.9826 6.00207 6.0022 5.80109 6.07764 5.61836C6.15308 5.43564 6.28099 5.27938 6.4452 5.16932C6.60941 5.05926 6.80256 5.00034 7.00024 5H25.0002C25.1981 4.99984 25.3916 5.05841 25.5562 5.16828C25.7208 5.27815 25.8491 5.43439 25.9249 5.61721C26.0006 5.80003 26.0204 6.00122 25.9818 6.19531C25.9431 6.38939 25.8478 6.56764 25.7077 6.7075L16.0002 16L6.29524 6.7075Z" stroke="#1C1C1E" stroke-width="3" stroke-linecap="round" stroke-linejoin="round"/>
<path d="M6.29524 25.2925C6.15538 25.4322 6.06006 25.6102 6.02133 25.8041C5.9826 25.9979 6.0022 26.1989 6.07764 26.3816C6.15308 26.5644 6.28099 26.7206 6.4452 26.8307C6.60941 26.9407 6.80256 26.9997 7.00024 27H25.0002C25.1981 27.0002 25.3916 26.9416 25.5562 26.8317C25.7208 26.7218 25.8491 26.5656 25.9249 26.3828C26.0006 26.2 26.0204 25.9988 25.9818 25.8047C25.9431 25.6106 25.8478 25.4324 25.7077 25.2925L16.0002 16L6.29524 25.2925Z" stroke="#1C1C1E" stroke-width="3" stroke-linecap="round" stroke-linejoin="round"/>
<path d="M9.21094 9.5H22.7884" stroke="#1C1C1E" stroke-width="3" stroke-linecap="round" stroke-linejoin="round"/>
</svg>
