<svg width="32" height="32" viewBox="0 0 32 32" fill="none" xmlns="http://www.w3.org/2000/svg">
<path d="M24.0087 17L16.875 29.5C16.7876 29.6533 16.6612 29.7808 16.5086 29.8694C16.356 29.9581 16.1827 30.0047 16.0062 30.0047C15.8297 30.0047 15.6564 29.9581 15.5038 29.8694C15.3513 29.7808 15.2249 29.6533 15.1375 29.5L7.99121 17" stroke="#1C1C1E" stroke-width="3" stroke-linecap="round" stroke-linejoin="round"/>
<path d="M19.3614 25.1325L14.7139 17" stroke="#1C1C1E" stroke-width="3" stroke-linecap="round" stroke-linejoin="round"/>
<path d="M7.49959 17C6.87961 17.0006 6.28152 16.7709 5.82142 16.3553C5.36132 15.9398 5.07204 15.3681 5.00973 14.7512C4.94743 14.1344 5.11654 13.5164 5.48424 13.0173C5.85195 12.5181 6.39201 12.1734 6.99959 12.05V12C6.99959 9.61305 7.9478 7.32387 9.63563 5.63604C11.3235 3.94821 13.6126 3 15.9996 3C18.3865 3 20.6757 3.94821 22.3635 5.63604C24.0514 7.32387 24.9996 9.61305 24.9996 12V12.05C25.6072 12.1734 26.1472 12.5181 26.5149 13.0173C26.8826 13.5164 27.0517 14.1344 26.9894 14.7512C26.9271 15.3681 26.6379 15.9398 26.1778 16.3553C25.7177 16.7709 25.1196 17.0006 24.4996 17H7.49959Z" stroke="#1C1C1E" stroke-width="3" stroke-linecap="round" stroke-linejoin="round"/>
</svg>
