<svg width="32" height="32" viewBox="0 0 32 32" fill="none" xmlns="http://www.w3.org/2000/svg">
<path d="M26 5H11C10.4477 5 10 5.44772 10 6V21C10 21.5523 10.4477 22 11 22H26C26.5523 22 27 21.5523 27 21V6C27 5.44772 26.5523 5 26 5Z" stroke="#1C1C1E" stroke-width="3" stroke-linecap="round" stroke-linejoin="round"/>
<path d="M16 13.5C17.3807 13.5 18.5 12.3807 18.5 11C18.5 9.61929 17.3807 8.5 16 8.5C14.6193 8.5 13.5 9.61929 13.5 11C13.5 12.3807 14.6193 13.5 16 13.5Z" fill="#1C1C1E"/>
<path d="M23 22V26C23 26.2652 22.8946 26.5196 22.7071 26.7071C22.5196 26.8946 22.2652 27 22 27H6C5.73478 27 5.48043 26.8946 5.29289 26.7071C5.10536 26.5196 5 26.2652 5 26V10C5 9.73478 5.10536 9.48043 5.29289 9.29289C5.48043 9.10536 5.73478 9 6 9H10" stroke="#1C1C1E" stroke-width="3" stroke-linecap="round" stroke-linejoin="round"/>
<path d="M13.5859 22.0001L21.7922 13.7926C21.8851 13.6996 21.9953 13.6258 22.1167 13.5755C22.2381 13.5252 22.3683 13.4993 22.4997 13.4993C22.6311 13.4993 22.7612 13.5252 22.8826 13.5755C23.004 13.6258 23.1143 13.6996 23.2072 13.7926L26.9997 17.5863" stroke="#1C1C1E" stroke-width="3" stroke-linecap="round" stroke-linejoin="round"/>
</svg>
