<svg width="32" height="32" viewBox="0 0 32 32" fill="none" xmlns="http://www.w3.org/2000/svg">
<path d="M22 13C23.1046 13 24 12.1046 24 11C24 9.89543 23.1046 9 22 9C20.8954 9 20 9.89543 20 11C20 12.1046 20.8954 13 22 13Z" fill="#1C1C1E"/>
<path d="M27 6H10C9.44772 6 9 6.44772 9 7V20C9 20.5523 9.44772 21 10 21H27C27.5523 21 28 20.5523 28 20V7C28 6.44772 27.5523 6 27 6Z" stroke="#1C1C1E" stroke-width="3" stroke-linecap="round" stroke-linejoin="round"/>
<path d="M24 21V25C24 25.2652 23.8946 25.5196 23.7071 25.7071C23.5196 25.8946 23.2652 26 23 26H5C4.73478 26 4.48043 25.8946 4.29289 25.7071C4.10536 25.5196 4 25.2652 4 25V11C4 10.7348 4.10536 10.4804 4.29289 10.2929C4.48043 10.1054 4.73478 10 5 10H9" stroke="#1C1C1E" stroke-width="3" stroke-linecap="round" stroke-linejoin="round"/>
<path d="M9 19.5863L14.7925 13.7926C14.8854 13.6996 14.9957 13.6258 15.1171 13.5755C15.2385 13.5252 15.3686 13.4993 15.5 13.4993C15.6314 13.4993 15.7615 13.5252 15.8829 13.5755C16.0043 13.6258 16.1146 13.6996 16.2075 13.7926L23.4137 21.0001" stroke="#1C1C1E" stroke-width="3" stroke-linecap="round" stroke-linejoin="round"/>
</svg>
