<svg width="32" height="32" viewBox="0 0 32 32" fill="none" xmlns="http://www.w3.org/2000/svg">
<path d="M17.2158 26L18.2083 23.025L23.0833 21.0775L25.0308 16.2025L28.0058 15.21V25C28.0058 25.2652 27.9005 25.5195 27.7129 25.7071C27.5254 25.8946 27.271 26 27.0058 26H17.2158Z" stroke="#1C1C1E" stroke-width="3" stroke-linecap="round" stroke-linejoin="round"/>
<path d="M11.9462 26L14.1962 19.2437L19.23 17.2313L21.25 12.1975L28.0063 9.9475V7C28.0063 6.73478 27.9009 6.48043 27.7134 6.29289C27.5258 6.10536 27.2715 6 27.0063 6H5C4.73478 6 4.48043 6.10536 4.29289 6.29289C4.10536 6.48043 4 6.73478 4 7V25C4 25.2652 4.10536 25.5196 4.29289 25.7071C4.48043 25.8946 4.73478 26 5 26H11.9462Z" stroke="#1C1C1E" stroke-width="3" stroke-linecap="round" stroke-linejoin="round"/>
<path d="M4 21.0863L10.7925 14.2926C10.8854 14.1996 10.9957 14.1258 11.1171 14.0755C11.2385 14.0252 11.3686 13.9993 11.5 13.9993C11.6314 13.9993 11.7615 14.0252 11.8829 14.0755C12.0043 14.1258 12.1146 14.1996 12.2075 14.2926L16.3125 18.3976" stroke="#1C1C1E" stroke-width="3" stroke-linecap="round" stroke-linejoin="round"/>
</svg>
