<svg width="32" height="32" viewBox="0 0 32 32" fill="none" xmlns="http://www.w3.org/2000/svg">
<path d="M15.5 12.5C16.6046 12.5 17.5 11.6046 17.5 10.5C17.5 9.39543 16.6046 8.5 15.5 8.5C14.3954 8.5 13.5 9.39543 13.5 10.5C13.5 11.6046 14.3954 12.5 15.5 12.5Z" fill="#1C1C1E"/>
<path d="M16 28C22.6274 28 28 22.6274 28 16C28 9.37258 22.6274 4 16 4C9.37258 4 4 9.37258 4 16C4 22.6274 9.37258 28 16 28Z" stroke="#1C1C1E" stroke-width="3" stroke-linecap="round" stroke-linejoin="round"/>
<path d="M15 15.5C15.2652 15.5 15.5196 15.6054 15.7071 15.7929C15.8946 15.9804 16 16.2348 16 16.5V21C16 21.2652 16.1054 21.5196 16.2929 21.7071C16.4804 21.8946 16.7348 22 17 22" stroke="#1C1C1E" stroke-width="3" stroke-linecap="round" stroke-linejoin="round"/>
</svg>
