<svg width="32" height="32" viewBox="0 0 32 32" fill="none" xmlns="http://www.w3.org/2000/svg">
<path d="M16 19C20.1421 19 23.5 15.6421 23.5 11.5C23.5 7.35786 20.1421 4 16 4C11.8579 4 8.5 7.35786 8.5 11.5C8.5 15.6421 11.8579 19 16 19Z" stroke="#1C1C1E" stroke-width="3" stroke-linecap="round" stroke-linejoin="round"/>
<path d="M20.5 27C24.6421 27 28 23.6421 28 19.5C28 15.3579 24.6421 12 20.5 12C16.3579 12 13 15.3579 13 19.5C13 23.6421 16.3579 27 20.5 27Z" stroke="#1C1C1E" stroke-width="3" stroke-linecap="round" stroke-linejoin="round"/>
<path d="M11.5 27C15.6421 27 19 23.6421 19 19.5C19 15.3579 15.6421 12 11.5 12C7.35786 12 4 15.3579 4 19.5C4 23.6421 7.35786 27 11.5 27Z" stroke="#1C1C1E" stroke-width="3" stroke-linecap="round" stroke-linejoin="round"/>
</svg>
