<svg width="32" height="32" viewBox="0 0 32 32" fill="none" xmlns="http://www.w3.org/2000/svg">
<path d="M28 21V25C28 25.2652 27.8946 25.5196 27.7071 25.7071C27.5196 25.8946 27.2652 26 27 26H23.5C23.2348 26 22.9804 25.8946 22.7929 25.7071C22.6054 25.5196 22.5 25.2652 22.5 25V21" stroke="#1C1C1E" stroke-width="3" stroke-linecap="round" stroke-linejoin="round"/>
<path d="M9.5 21V25C9.5 25.2652 9.39464 25.5196 9.20711 25.7071C9.01957 25.8946 8.76522 26 8.5 26H5C4.73478 26 4.48043 25.8946 4.29289 25.7071C4.10536 25.5196 4 25.2652 4 25V21" stroke="#1C1C1E" stroke-width="3" stroke-linecap="round" stroke-linejoin="round"/>
<path d="M2 12H30" stroke="#1C1C1E" stroke-width="3" stroke-linecap="round" stroke-linejoin="round"/>
<path d="M16 16.5V21" stroke="#1C1C1E" stroke-width="3" stroke-linecap="round" stroke-linejoin="round"/>
<path d="M21 16.5V21" stroke="#1C1C1E" stroke-width="3" stroke-linecap="round" stroke-linejoin="round"/>
<path d="M11 16.5V21" stroke="#1C1C1E" stroke-width="3" stroke-linecap="round" stroke-linejoin="round"/>
<path d="M28 21H4V12L5.33 5.79C5.37807 5.56618 5.50148 5.36564 5.67962 5.22185C5.85775 5.07807 6.07983 4.99976 6.30875 5H25.6912C25.9202 4.99976 26.1422 5.07807 26.3204 5.22185C26.4985 5.36564 26.6219 5.56618 26.67 5.79L28 12V21Z" stroke="#1C1C1E" stroke-width="3" stroke-linecap="round" stroke-linejoin="round"/>
</svg>
