<svg width="32" height="32" viewBox="0 0 32 32" fill="none" xmlns="http://www.w3.org/2000/svg">
<path d="M22.5 11.5C23.6046 11.5 24.5 10.6046 24.5 9.5C24.5 8.39543 23.6046 7.5 22.5 7.5C21.3954 7.5 20.5 8.39543 20.5 9.5C20.5 10.6046 21.3954 11.5 22.5 11.5Z" fill="#1C1C1E"/>
<path d="M11.6462 15.3537C11.2164 14.2841 10.9969 13.1415 11 11.9887C11 7.16625 14.885 3.15875 19.705 3.005C20.9363 2.96395 22.1629 3.17614 23.3089 3.62841C24.4548 4.08069 25.4957 4.76342 26.3671 5.63433C27.2385 6.50523 27.9217 7.54576 28.3746 8.69147C28.8275 9.83719 29.0404 11.0637 29 12.295C28.8413 17.115 24.8337 21 20.0112 21C18.8585 21.0031 17.7159 20.7836 16.6462 20.3537L15 22H12V25H9V28H5C4.73478 28 4.48043 27.8946 4.29289 27.7071C4.10536 27.5196 4 27.2652 4 27V23.4137C4.00012 23.1489 4.10532 22.8949 4.2925 22.7075L11.6462 15.3537Z" stroke="#1C1C1E" stroke-width="3" stroke-linecap="round" stroke-linejoin="round"/>
</svg>
