<svg width="32" height="32" viewBox="0 0 32 32" fill="none" xmlns="http://www.w3.org/2000/svg">
<path d="M16 28C22.6274 28 28 22.6274 28 16C28 9.37258 22.6274 4 16 4C9.37258 4 4 9.37258 4 16C4 22.6274 9.37258 28 16 28Z" stroke="#1C1C1E" stroke-width="3" stroke-linecap="round" stroke-linejoin="round"/>
<path d="M16 28C22.6274 28 28 22.6274 28 16C28 9.37258 22.6274 4 16 4C9.37258 4 4 9.37258 4 16C4 22.6274 9.37258 28 16 28Z" stroke="#1C1C1E" stroke-width="3" stroke-linecap="round" stroke-linejoin="round"/>
<path d="M13.5 17.1254C12.8531 16.6075 12.383 15.9014 12.1547 15.1047C11.9265 14.308 11.9513 13.4601 12.2257 12.6782C12.5002 11.8962 13.0108 11.2188 13.6869 10.7396C14.363 10.2603 15.1713 10.0029 16 10.0029C16.8287 10.0029 17.637 10.2603 18.3131 10.7396C18.9892 11.2188 19.4998 11.8962 19.7743 12.6782C20.0487 13.4601 20.0735 14.308 19.8453 15.1047C19.617 15.9014 19.1469 16.6075 18.5 17.1254L20 22.0004H12L13.5 17.1254Z" stroke="#1C1C1E" stroke-width="3" stroke-linecap="round" stroke-linejoin="round"/>
</svg>
