<svg width="32" height="32" viewBox="0 0 32 32" fill="none" xmlns="http://www.w3.org/2000/svg">
<path d="M12.5 16C13.6046 16 14.5 15.1046 14.5 14C14.5 12.8954 13.6046 12 12.5 12C11.3954 12 10.5 12.8954 10.5 14C10.5 15.1046 11.3954 16 12.5 16Z" fill="#1C1C1E"/>
<path d="M19.5 16C20.6046 16 21.5 15.1046 21.5 14C21.5 12.8954 20.6046 12 19.5 12C18.3954 12 17.5 12.8954 17.5 14C17.5 15.1046 18.3954 16 19.5 16Z" fill="#1C1C1E"/>
<path d="M19.5 19C18.4496 19.6536 17.2372 20 16 20C14.7628 20 13.5504 19.6536 12.5 19" stroke="#1C1C1E" stroke-width="3" stroke-linecap="round" stroke-linejoin="round"/>
<path d="M23 7.5H9C7.34315 7.5 6 8.84315 6 10.5V21.5C6 23.1569 7.34315 24.5 9 24.5H23C24.6569 24.5 26 23.1569 26 21.5V10.5C26 8.84315 24.6569 7.5 23 7.5Z" stroke="#1C1C1E" stroke-width="3" stroke-linecap="round" stroke-linejoin="round"/>
<path d="M12 7.5V4C12 3.73478 12.1054 3.48043 12.2929 3.29289C12.4804 3.10536 12.7348 3 13 3H19C19.2652 3 19.5196 3.10536 19.7071 3.29289C19.8946 3.48043 20 3.73478 20 4V7.5" stroke="#1C1C1E" stroke-width="3" stroke-linecap="round" stroke-linejoin="round"/>
<path d="M9 24.5V28C9 28.2652 9.10536 28.5196 9.29289 28.7071C9.48043 28.8946 9.73478 29 10 29H22C22.2652 29 22.5196 28.8946 22.7071 28.7071C22.8946 28.5196 23 28.2652 23 28V24.5" stroke="#1C1C1E" stroke-width="3" stroke-linecap="round" stroke-linejoin="round"/>
</svg>
