<svg width="32" height="32" viewBox="0 0 32 32" fill="none" xmlns="http://www.w3.org/2000/svg">
<path d="M10 21V28" stroke="#1C1C1E" stroke-width="3" stroke-linecap="round" stroke-linejoin="round"/>
<path d="M10 15C12.2091 15 14 13.8807 14 12.5C14 11.1193 12.2091 10 10 10C7.79086 10 6 11.1193 6 12.5C6 13.8807 7.79086 15 10 15Z" stroke="#1C1C1E" stroke-width="3" stroke-linecap="round" stroke-linejoin="round"/>
<path d="M20 10C22.2091 10 24 8.88071 24 7.5C24 6.11929 22.2091 5 20 5C17.7909 5 16 6.11929 16 7.5C16 8.88071 17.7909 10 20 10Z" stroke="#1C1C1E" stroke-width="3" stroke-linecap="round" stroke-linejoin="round"/>
<path d="M2 17L10 21L30 11" stroke="#1C1C1E" stroke-width="3" stroke-linecap="round" stroke-linejoin="round"/>
<path d="M30 11V18L10 28L2 24V17" stroke="#1C1C1E" stroke-width="3" stroke-linecap="round" stroke-linejoin="round"/>
<path d="M7.305 14.3474L2 16.9999" stroke="#1C1C1E" stroke-width="3" stroke-linecap="round" stroke-linejoin="round"/>
<path d="M17.3053 9.34741L13.4766 11.2624" stroke="#1C1C1E" stroke-width="3" stroke-linecap="round" stroke-linejoin="round"/>
<path d="M30.0004 11.0001L23.9316 7.96509" stroke="#1C1C1E" stroke-width="3" stroke-linecap="round" stroke-linejoin="round"/>
</svg>
