<svg width="32" height="32" viewBox="0 0 32 32" fill="none" xmlns="http://www.w3.org/2000/svg">
<path d="M16 24V18" stroke="#1C1C1E" stroke-width="3" stroke-linecap="round" stroke-linejoin="round"/>
<path d="M12 14L16 18L20 14" stroke="#1C1C1E" stroke-width="3" stroke-linecap="round" stroke-linejoin="round"/>
<path d="M11 29H21" stroke="#1C1C1E" stroke-width="3" stroke-linecap="round" stroke-linejoin="round"/>
<path d="M10.0002 21C8.76511 20.0754 7.76116 18.8772 7.06714 17.4993C6.37311 16.1215 6.00789 14.6015 6.00015 13.0587C5.97015 7.63625 10.3402 3.125 15.7589 3C17.88 2.94868 19.9624 3.57332 21.705 4.78358C23.4477 5.99385 24.7602 7.72701 25.4529 9.73246C26.1455 11.7379 26.1824 13.9117 25.5581 15.9394C24.9338 17.9672 23.6808 19.7439 21.9802 21.0125C21.6737 21.2449 21.4255 21.5455 21.2554 21.8905C21.0853 22.2355 20.9979 22.6154 21.0002 23C21.0002 23.2652 20.8948 23.5196 20.7073 23.7071C20.5197 23.8946 20.2654 24 20.0002 24H12.0002C11.7349 24 11.4806 23.8946 11.293 23.7071C11.1055 23.5196 11.0002 23.2652 11.0002 23V22.9712C10.9976 22.5877 10.906 22.2099 10.7324 21.8678C10.5589 21.5257 10.3082 21.2286 10.0002 21Z" stroke="#1C1C1E" stroke-width="3" stroke-linecap="round" stroke-linejoin="round"/>
</svg>
