<svg width="32" height="32" viewBox="0 0 32 32" fill="none" xmlns="http://www.w3.org/2000/svg">
<path d="M13.5888 24.6537L12.95 25.2924C12.4082 25.8343 11.7649 26.264 11.0569 26.557C10.3489 26.85 9.59 27.0005 8.82374 27C8.05747 26.9994 7.29884 26.8477 6.59125 26.5536C5.88366 26.2596 5.241 25.8289 4.70003 25.2862C3.61002 24.1924 2.9986 22.7107 3 21.1665C3.00141 19.6223 3.61553 18.1417 4.70753 17.0499L9.05003 12.7074C9.59119 12.1661 10.2337 11.7367 10.9408 11.4438C11.6479 11.1508 12.4059 11 13.1713 11C13.9367 11 14.6946 11.1508 15.4018 11.4438C16.1089 11.7367 16.7514 12.1661 17.2925 12.7074C18.0625 13.474 18.6014 14.4417 18.8475 15.4999" stroke="#1C1C1E" stroke-width="3" stroke-linecap="round" stroke-linejoin="round"/>
<path d="M18.4111 7.34617L19.0498 6.70742C19.591 6.16611 20.2335 5.73671 20.9406 5.44375C21.6478 5.15079 22.4057 5 23.1711 5C23.9365 5 24.6944 5.15079 25.4016 5.44375C26.1087 5.73671 26.7512 6.16611 27.2923 6.70742C27.8337 7.24858 28.2631 7.89107 28.556 8.5982C28.849 9.30533 28.9998 10.0633 28.9998 10.8287C28.9998 11.5941 28.849 12.352 28.556 13.0591C28.2631 13.7663 27.8337 14.4088 27.2923 14.9499L24.2423 17.9999L22.9498 19.2924C22.4081 19.8343 21.7647 20.264 21.0567 20.557C20.3487 20.85 19.5898 21.0005 18.8235 21C18.0573 20.9994 17.2987 20.8477 16.5911 20.5536C15.8835 20.2596 15.2408 19.8289 14.6998 19.2862C13.9343 18.5199 13.3982 17.5548 13.1523 16.4999" stroke="#1C1C1E" stroke-width="3" stroke-linecap="round" stroke-linejoin="round"/>
</svg>
