<svg width="32" height="32" viewBox="0 0 32 32" fill="none" xmlns="http://www.w3.org/2000/svg">
<path d="M27 4H5C4.44772 4 4 4.44772 4 5V27C4 27.5523 4.44772 28 5 28H27C27.5523 28 28 27.5523 28 27V5C28 4.44772 27.5523 4 27 4Z" stroke="#1C1C1E" stroke-width="3" stroke-linecap="round" stroke-linejoin="round"/>
<path d="M15.5 15V22" stroke="#1C1C1E" stroke-width="3" stroke-linecap="round" stroke-linejoin="round"/>
<path d="M10.5 15V22" stroke="#1C1C1E" stroke-width="3" stroke-linecap="round" stroke-linejoin="round"/>
<path d="M15.5 18.5C15.5 17.5717 15.8687 16.6815 16.5251 16.0251C17.1815 15.3687 18.0717 15 19 15C19.9283 15 20.8185 15.3687 21.4749 16.0251C22.1313 16.6815 22.5 17.5717 22.5 18.5V22" stroke="#1C1C1E" stroke-width="3" stroke-linecap="round" stroke-linejoin="round"/>
<path d="M10.5 12C11.6046 12 12.5 11.1046 12.5 10C12.5 8.89543 11.6046 8 10.5 8C9.39543 8 8.5 8.89543 8.5 10C8.5 11.1046 9.39543 12 10.5 12Z" fill="#1C1C1E"/>
</svg>
