<svg width="32" height="32" viewBox="0 0 32 32" fill="none" xmlns="http://www.w3.org/2000/svg">
<path d="M4 26C4 26 8 21 8 11C8 8.87827 8.84285 6.84344 10.3431 5.34315C11.8434 3.84285 13.8783 3 16 3C18.1217 3 20.1566 3.84285 21.6569 5.34315C23.1571 6.84344 24 8.87827 24 11C24 21 28 26 28 26" stroke="#1C1C1E" stroke-width="3" stroke-linecap="round" stroke-linejoin="round"/>
<path d="M13 15C14.1046 15 15 14.1046 15 13C15 11.8954 14.1046 11 13 11C11.8954 11 11 11.8954 11 13C11 14.1046 11.8954 15 13 15Z" fill="#1C1C1E"/>
<path d="M19 15C20.1046 15 21 14.1046 21 13C21 11.8954 20.1046 11 19 11C17.8954 11 17 11.8954 17 13C17 14.1046 17.8954 15 19 15Z" fill="#1C1C1E"/>
<path d="M19.5 18L16 19.5L12.5 18" stroke="#1C1C1E" stroke-width="3" stroke-linecap="round" stroke-linejoin="round"/>
<path d="M12.1826 26C13.22 25.0358 14.5838 24.4999 16.0001 24.4999C17.4164 24.4999 18.7802 25.0358 19.8176 26" stroke="#1C1C1E" stroke-width="3" stroke-linecap="round" stroke-linejoin="round"/>
</svg>
