<svg width="32" height="32" viewBox="0 0 32 32" fill="none" xmlns="http://www.w3.org/2000/svg">
<path d="M11 8H27" stroke="#1C1C1E" stroke-width="3" stroke-linecap="round" stroke-linejoin="round"/>
<path d="M11 16H27" stroke="#1C1C1E" stroke-width="3" stroke-linecap="round" stroke-linejoin="round"/>
<path d="M11 24H27" stroke="#1C1C1E" stroke-width="3" stroke-linecap="round" stroke-linejoin="round"/>
<path d="M5.5 18C6.60457 18 7.5 17.1046 7.5 16C7.5 14.8954 6.60457 14 5.5 14C4.39543 14 3.5 14.8954 3.5 16C3.5 17.1046 4.39543 18 5.5 18Z" fill="#1C1C1E"/>
<path d="M5.5 10C6.60457 10 7.5 9.10457 7.5 8C7.5 6.89543 6.60457 6 5.5 6C4.39543 6 3.5 6.89543 3.5 8C3.5 9.10457 4.39543 10 5.5 10Z" fill="#1C1C1E"/>
<path d="M5.5 26C6.60457 26 7.5 25.1046 7.5 24C7.5 22.8954 6.60457 22 5.5 22C4.39543 22 3.5 22.8954 3.5 24C3.5 25.1046 4.39543 26 5.5 26Z" fill="#1C1C1E"/>
</svg>
