<svg width="32" height="32" viewBox="0 0 32 32" fill="none" xmlns="http://www.w3.org/2000/svg">
<path d="M16 12.5C17.3807 12.5 18.5 11.3807 18.5 10C18.5 8.61929 17.3807 7.5 16 7.5C14.6193 7.5 13.5 8.61929 13.5 10C13.5 11.3807 14.6193 12.5 16 12.5Z" fill="#1C1C1E"/>
<path d="M23 10C23 17 16 21 16 21C16 21 9 17 9 10C9 8.14348 9.7375 6.36301 11.0503 5.05025C12.363 3.7375 14.1435 3 16 3C17.8565 3 19.637 3.7375 20.9497 5.05025C22.2625 6.36301 23 8.14348 23 10Z" stroke="#1C1C1E" stroke-width="3" stroke-linecap="round" stroke-linejoin="round"/>
<path d="M25.5 19.5863C27.6713 20.4801 29 21.6801 29 23.0001C29 25.7613 23.18 28.0001 16 28.0001C8.82 28.0001 3 25.7613 3 23.0001C3 21.6801 4.32875 20.4801 6.5 19.5863" stroke="#1C1C1E" stroke-width="3" stroke-linecap="round" stroke-linejoin="round"/>
</svg>
