<svg width="32" height="32" viewBox="0 0 32 32" fill="none" xmlns="http://www.w3.org/2000/svg">
<path d="M20 28H9C7.93913 28 6.92172 27.5786 6.17157 26.8284C5.42143 26.0783 5 25.0609 5 24V9C5 7.93913 5.42143 6.92172 6.17157 6.17157C6.92172 5.42143 7.93913 5 9 5H23C24.0609 5 25.0783 5.42143 25.8284 6.17157C26.5786 6.92172 27 7.93913 27 9V18C27 19.0609 26.5786 20.0783 25.8284 20.8284C25.0783 21.5786 24.0609 22 23 22H5" stroke="#1C1C1E" stroke-width="3" stroke-linecap="round" stroke-linejoin="round"/>
<path d="M16 17V13C16 12.2044 15.6839 11.4413 15.1213 10.8787C14.5587 10.3161 13.7956 10 13 10C12.2044 10 11.4413 10.3161 10.8787 10.8787C10.3161 11.4413 10 12.2044 10 13V17" stroke="#1C1C1E" stroke-width="3" stroke-linecap="round" stroke-linejoin="round"/>
<path d="M22 17V13C22 12.2044 21.6839 11.4413 21.1213 10.8787C20.5587 10.3161 19.7956 10 19 10C18.2044 10 17.4413 10.3161 16.8787 10.8787C16.3161 11.4413 16 12.2044 16 13" stroke="#1C1C1E" stroke-width="3" stroke-linecap="round" stroke-linejoin="round"/>
</svg>
