<svg width="32" height="32" viewBox="0 0 32 32" fill="none" xmlns="http://www.w3.org/2000/svg">
<path d="M17.5 8.5H4.5C3.94772 8.5 3.5 8.94772 3.5 9.5V22.5C3.5 23.0523 3.94772 23.5 4.5 23.5H17.5C18.0523 23.5 18.5 23.0523 18.5 22.5V9.5C18.5 8.94772 18.0523 8.5 17.5 8.5Z" stroke="#1C1C1E" stroke-width="3" stroke-linecap="round" stroke-linejoin="round"/>
<path d="M13 13H9" stroke="#1C1C1E" stroke-width="3" stroke-linecap="round" stroke-linejoin="round"/>
<path d="M11 19V13" stroke="#1C1C1E" stroke-width="3" stroke-linecap="round" stroke-linejoin="round"/>
<path d="M13.2916 8.50001C12.9951 7.7666 12.9227 6.96175 13.0836 6.18721C13.2445 5.41267 13.6315 4.70323 14.1955 4.1486C14.7596 3.59397 15.4755 3.21904 16.2526 3.07124C17.0298 2.92343 17.8333 3.00938 18.5616 3.31821C19.2899 3.62704 19.9103 4.14489 20.3443 4.80628C20.7783 5.46767 21.0064 6.2429 20.9999 7.03395C20.9933 7.82499 20.7523 8.59633 20.3074 9.25044C19.8625 9.90454 19.2337 10.412 18.5003 10.7088" stroke="#1C1C1E" stroke-width="3" stroke-linecap="round" stroke-linejoin="round"/>
<path d="M18.5 11H23C23.2652 11 23.5195 11.1054 23.7071 11.2929C23.8946 11.4804 24 11.7348 24 12V21C24 22.8565 23.2625 24.637 21.9497 25.9497C20.637 27.2625 18.8565 28 17 28C15.5824 28.0003 14.1982 27.5703 13.0304 26.7668C11.8626 25.9632 10.9662 24.8241 10.46 23.5" stroke="#1C1C1E" stroke-width="3" stroke-linecap="round" stroke-linejoin="round"/>
<path d="M23 11H27.9075C28.0646 11 28.2153 11.0624 28.3265 11.1735C28.4376 11.2847 28.5 11.4354 28.5 11.5925V19C28.5001 19.5905 28.3695 20.1738 28.1175 20.7078C27.8655 21.2419 27.4983 21.7135 27.0425 22.0888C26.5866 22.4642 26.0532 22.7339 25.4807 22.8787C24.9082 23.0235 24.3108 23.0397 23.7313 22.9263" stroke="#1C1C1E" stroke-width="3" stroke-linecap="round" stroke-linejoin="round"/>
<path d="M20.9561 6.40875C21.233 5.96617 21.6206 5.60351 22.0806 5.35663C22.5406 5.10975 23.0571 4.98719 23.579 5.00106C24.1009 5.01493 24.6101 5.16476 25.0564 5.43573C25.5026 5.7067 25.8704 6.08944 26.1234 6.54611C26.3764 7.00277 26.5059 7.51756 26.499 8.03959C26.4921 8.56162 26.3491 9.07281 26.0841 9.52265C25.8192 9.97248 25.4414 10.3454 24.9881 10.6045C24.5349 10.8636 24.0219 10.9999 23.4998 11" stroke="#1C1C1E" stroke-width="3" stroke-linecap="round" stroke-linejoin="round"/>
</svg>
