<svg width="32" height="32" viewBox="0 0 32 32" fill="none" xmlns="http://www.w3.org/2000/svg">
<path d="M19.5 12H26" stroke="#1C1C1E" stroke-width="3" stroke-linecap="round" stroke-linejoin="round"/>
<path d="M19.5 20H26" stroke="#1C1C1E" stroke-width="3" stroke-linecap="round" stroke-linejoin="round"/>
<path d="M8 8.5V5C8 4.73478 8.10536 4.48043 8.29289 4.29289C8.48043 4.10536 8.73478 4 9 4H25C25.2652 4 25.5196 4.10536 25.7071 4.29289C25.8946 4.48043 26 4.73478 26 5V27C26 27.2652 25.8946 27.5196 25.7071 27.7071C25.5196 27.8946 25.2652 28 25 28H9C8.73478 28 8.48043 27.8946 8.29289 27.7071C8.10536 27.5196 8 27.2652 8 27V23.5" stroke="#1C1C1E" stroke-width="3" stroke-linecap="round" stroke-linejoin="round"/>
<path d="M8 13L9.5 19L11.5 15L13.5 19L15 13" stroke="#1C1C1E" stroke-width="3" stroke-linecap="round" stroke-linejoin="round"/>
<path d="M18.5 8.5H4.5C3.94772 8.5 3.5 8.94772 3.5 9.5V22.5C3.5 23.0523 3.94772 23.5 4.5 23.5H18.5C19.0523 23.5 19.5 23.0523 19.5 22.5V9.5C19.5 8.94772 19.0523 8.5 18.5 8.5Z" stroke="#1C1C1E" stroke-width="3" stroke-linecap="round" stroke-linejoin="round"/>
</svg>
