<svg width="32" height="32" viewBox="0 0 32 32" fill="none" xmlns="http://www.w3.org/2000/svg">
<path d="M6 6L26 28" stroke="#1C1C1E" stroke-width="3" stroke-linecap="round" stroke-linejoin="round"/>
<path d="M16 26V30" stroke="#1C1C1E" stroke-width="3" stroke-linecap="round" stroke-linejoin="round"/>
<path d="M22.2138 23.835C20.7407 25.0032 18.9682 25.7325 17.0995 25.9392C15.2309 26.146 13.3418 25.8217 11.6491 25.0037C9.95629 24.1857 8.5284 22.9071 7.52922 21.3146C6.53003 19.722 6.00003 17.88 6 16" stroke="#1C1C1E" stroke-width="3" stroke-linecap="round" stroke-linejoin="round"/>
<path d="M25.9998 16C26.0014 17.2896 25.7531 18.5673 25.2686 19.7625" stroke="#1C1C1E" stroke-width="3" stroke-linecap="round" stroke-linejoin="round"/>
<path d="M18.835 20.125C18.0011 20.6984 17.012 21.0037 16 21C14.6739 21 13.4021 20.4732 12.4645 19.5355C11.5268 18.5979 11 17.3261 11 16V11.5" stroke="#1C1C1E" stroke-width="3" stroke-linecap="round" stroke-linejoin="round"/>
<path d="M11.9326 5.0925C12.3947 4.44475 13.005 3.91687 13.7126 3.55288C14.4201 3.18888 15.2044 2.99932 16.0001 3C17.3262 3 18.598 3.52679 19.5357 4.46447C20.4733 5.40215 21.0001 6.67392 21.0001 8V15.0675" stroke="#1C1C1E" stroke-width="3" stroke-linecap="round" stroke-linejoin="round"/>
</svg>
