<svg width="32" height="32" viewBox="0 0 32 32" fill="none" xmlns="http://www.w3.org/2000/svg">
<path d="M13.5141 3.51367C12.8855 5.59375 12.8329 7.80542 13.3619 9.91303C13.891 12.0206 14.982 13.9452 16.5185 15.4818C18.055 17.0183 19.9796 18.1093 22.0873 18.6383C24.1949 19.1674 26.4065 19.1148 28.4866 18.4862C27.8836 20.4689 26.7773 22.2617 25.2756 23.6899C23.7739 25.1181 21.9279 26.133 19.9174 26.6359C17.9069 27.1387 15.8005 27.1123 13.8032 26.5592C11.806 26.0061 9.986 24.9451 8.52058 23.4797C7.05516 22.0143 5.99423 20.1943 5.44113 18.1971C4.88802 16.1998 4.8616 14.0934 5.36443 12.0829C5.86726 10.0724 6.88219 8.22639 8.31039 6.72467C9.73859 5.22295 11.5314 4.1167 13.5141 3.51367Z" stroke="#1C1C1E" stroke-width="3" stroke-linecap="round" stroke-linejoin="round"/>
</svg>
