<svg width="32" height="32" viewBox="0 0 32 32" fill="none" xmlns="http://www.w3.org/2000/svg">
<path d="M26.5 25C28.7091 25 30.5 23.2091 30.5 21C30.5 18.7909 28.7091 17 26.5 17C24.2909 17 22.5 18.7909 22.5 21C22.5 23.2091 24.2909 25 26.5 25Z" stroke="#1C1C1E" stroke-width="3" stroke-linecap="round" stroke-linejoin="round"/>
<path d="M3.5 20.5V21C3.5 22.0609 3.92143 23.0783 4.67157 23.8284C5.42172 24.5786 6.43913 25 7.5 25C8.56087 25 9.57828 24.5786 10.3284 23.8284C11.0786 23.0783 11.5 22.0609 11.5 21V20.5" stroke="#1C1C1E" stroke-width="3" stroke-linecap="round" stroke-linejoin="round"/>
<path d="M3.5 12H13.5L16.6875 20.5" stroke="#1C1C1E" stroke-width="3" stroke-linecap="round" stroke-linejoin="round"/>
<path d="M5.5 12V14.8413C4.32989 15.2549 3.31686 16.0213 2.60047 17.0348C1.88409 18.0482 1.49961 19.2589 1.5 20.5H22.5312" stroke="#1C1C1E" stroke-width="3" stroke-linecap="round" stroke-linejoin="round"/>
<path d="M16.5 5H20.5L25.095 17.2537" stroke="#1C1C1E" stroke-width="3" stroke-linecap="round" stroke-linejoin="round"/>
</svg>
