<svg width="32" height="32" viewBox="0 0 32 32" fill="none" xmlns="http://www.w3.org/2000/svg">
<path d="M20 8.5C21.3807 8.5 22.5 7.38071 22.5 6C22.5 4.61929 21.3807 3.5 20 3.5C18.6193 3.5 17.5 4.61929 17.5 6C17.5 7.38071 18.6193 8.5 20 8.5Z" stroke="#1C1C1E" stroke-width="3" stroke-linecap="round" stroke-linejoin="round"/>
<path d="M1.5 25L10.6375 9.49248C10.7257 9.3421 10.8517 9.21741 11.003 9.13076C11.1543 9.04412 11.3257 8.99854 11.5 8.99854C11.6743 8.99854 11.8457 9.04412 11.997 9.13076C12.1483 9.21741 12.2743 9.3421 12.3625 9.49248L21.5 25H1.5Z" stroke="#1C1C1E" stroke-width="3" stroke-linecap="round" stroke-linejoin="round"/>
<path d="M18.3271 19.6174L21.9521 13.4924C22.0407 13.3432 22.1665 13.2196 22.3173 13.1337C22.4681 13.0478 22.6386 13.0027 22.8121 13.0027C22.9857 13.0027 23.1562 13.0478 23.307 13.1337C23.4578 13.2196 23.5836 13.3432 23.6721 13.4924L30.4996 24.9999H21.4996" stroke="#1C1C1E" stroke-width="3" stroke-linecap="round" stroke-linejoin="round"/>
<path d="M6.80371 16H16.1962" stroke="#1C1C1E" stroke-width="3" stroke-linecap="round" stroke-linejoin="round"/>
</svg>
