<svg width="32" height="32" viewBox="0 0 32 32" fill="none" xmlns="http://www.w3.org/2000/svg">
<path d="M2 11V22.5C2 23.163 2.26339 23.7989 2.73223 24.2678C3.20107 24.7366 3.83696 25 4.5 25" stroke="#1C1C1E" stroke-width="3" stroke-linecap="round" stroke-linejoin="round"/>
<path d="M13 13.5H22" stroke="#1C1C1E" stroke-width="3" stroke-linecap="round" stroke-linejoin="round"/>
<path d="M13 18.5H22" stroke="#1C1C1E" stroke-width="3" stroke-linecap="round" stroke-linejoin="round"/>
<path d="M7 22.5V8C7 7.73478 7.10536 7.48043 7.29289 7.29289C7.48043 7.10536 7.73478 7 8 7H27C27.2652 7 27.5196 7.10536 27.7071 7.29289C27.8946 7.48043 28 7.73478 28 8V23C28 23.5304 27.7893 24.0391 27.4142 24.4142C27.0391 24.7893 26.5304 25 26 25H4.5C4.8283 25 5.15339 24.9353 5.45671 24.8097C5.76002 24.6841 6.03562 24.4999 6.26777 24.2678C6.49991 24.0356 6.68406 23.76 6.8097 23.4567C6.93534 23.1534 7 22.8283 7 22.5Z" stroke="#1C1C1E" stroke-width="3" stroke-linecap="round" stroke-linejoin="round"/>
</svg>
