<svg width="32" height="32" viewBox="0 0 32 32" fill="none" xmlns="http://www.w3.org/2000/svg">
<path d="M18.9995 1.5C17.5814 1.49966 16.2089 2.00167 15.1257 2.91697C14.0424 3.83226 13.3184 5.10167 13.082 6.5" stroke="#1C1C1E" stroke-width="3" stroke-linecap="round" stroke-linejoin="round"/>
<path d="M18.5 6.5H19C19.6566 6.5 20.3068 6.37067 20.9134 6.1194C21.52 5.86812 22.0712 5.49983 22.5355 5.03553C22.9998 4.57124 23.3681 4.02005 23.6194 3.41342C23.8707 2.80679 24 2.15661 24 1.5" stroke="#1C1C1E" stroke-width="3" stroke-linecap="round" stroke-linejoin="round"/>
<path d="M2 27H30" stroke="#1C1C1E" stroke-width="3" stroke-linecap="round" stroke-linejoin="round"/>
<path d="M16.0186 11.5H21.0186C21.2759 11.4997 21.5235 11.5987 21.7098 11.7764C21.8961 11.954 22.0067 12.1966 22.0186 12.4538C22.3148 18.925 25.5186 24.9538 26.7136 27" stroke="#1C1C1E" stroke-width="3" stroke-linecap="round" stroke-linejoin="round"/>
<path d="M4.96094 27C6.62469 23.6538 8.76469 18.27 8.98219 12.455C8.99378 12.1977 9.10423 11.9547 9.29053 11.7768C9.47682 11.5989 9.72459 11.4997 9.98219 11.5H16.0197C16.2773 11.4997 16.5251 11.5989 16.7113 11.7768C16.8976 11.9547 17.0081 12.1977 17.0197 12.455C17.2372 18.27 19.3822 23.6538 21.0409 27" stroke="#1C1C1E" stroke-width="3" stroke-linecap="round" stroke-linejoin="round"/>
</svg>
