<svg width="32" height="32" viewBox="0 0 32 32" fill="none" xmlns="http://www.w3.org/2000/svg">
<path d="M8 8.5C9.38071 8.5 10.5 7.38071 10.5 6C10.5 4.61929 9.38071 3.5 8 3.5C6.61929 3.5 5.5 4.61929 5.5 6C5.5 7.38071 6.61929 8.5 8 8.5Z" fill="#1C1C1E"/>
<path d="M16 8.5C17.3807 8.5 18.5 7.38071 18.5 6C18.5 4.61929 17.3807 3.5 16 3.5C14.6193 3.5 13.5 4.61929 13.5 6C13.5 7.38071 14.6193 8.5 16 8.5Z" fill="#1C1C1E"/>
<path d="M24 8.5C25.3807 8.5 26.5 7.38071 26.5 6C26.5 4.61929 25.3807 3.5 24 3.5C22.6193 3.5 21.5 4.61929 21.5 6C21.5 7.38071 22.6193 8.5 24 8.5Z" fill="#1C1C1E"/>
<path d="M8 15.5C9.38071 15.5 10.5 14.3807 10.5 13C10.5 11.6193 9.38071 10.5 8 10.5C6.61929 10.5 5.5 11.6193 5.5 13C5.5 14.3807 6.61929 15.5 8 15.5Z" fill="#1C1C1E"/>
<path d="M16 15.5C17.3807 15.5 18.5 14.3807 18.5 13C18.5 11.6193 17.3807 10.5 16 10.5C14.6193 10.5 13.5 11.6193 13.5 13C13.5 14.3807 14.6193 15.5 16 15.5Z" fill="#1C1C1E"/>
<path d="M24 15.5C25.3807 15.5 26.5 14.3807 26.5 13C26.5 11.6193 25.3807 10.5 24 10.5C22.6193 10.5 21.5 11.6193 21.5 13C21.5 14.3807 22.6193 15.5 24 15.5Z" fill="#1C1C1E"/>
<path d="M8 22.5C9.38071 22.5 10.5 21.3807 10.5 20C10.5 18.6193 9.38071 17.5 8 17.5C6.61929 17.5 5.5 18.6193 5.5 20C5.5 21.3807 6.61929 22.5 8 22.5Z" fill="#1C1C1E"/>
<path d="M16 22.5C17.3807 22.5 18.5 21.3807 18.5 20C18.5 18.6193 17.3807 17.5 16 17.5C14.6193 17.5 13.5 18.6193 13.5 20C13.5 21.3807 14.6193 22.5 16 22.5Z" fill="#1C1C1E"/>
<path d="M16 29.5C17.3807 29.5 18.5 28.3807 18.5 27C18.5 25.6193 17.3807 24.5 16 24.5C14.6193 24.5 13.5 25.6193 13.5 27C13.5 28.3807 14.6193 29.5 16 29.5Z" fill="#1C1C1E"/>
<path d="M24 22.5C25.3807 22.5 26.5 21.3807 26.5 20C26.5 18.6193 25.3807 17.5 24 17.5C22.6193 17.5 21.5 18.6193 21.5 20C21.5 21.3807 22.6193 22.5 24 22.5Z" fill="#1C1C1E"/>
</svg>
