<svg width="32" height="32" viewBox="0 0 32 32" fill="none" xmlns="http://www.w3.org/2000/svg">
<path d="M22 20.5C23.1046 20.5 24 19.6046 24 18.5C24 17.3954 23.1046 16.5 22 16.5C20.8954 16.5 20 17.3954 20 18.5C20 19.6046 20.8954 20.5 22 20.5Z" fill="#1C1C1E"/>
<path d="M8.02414 11.9675C7.14537 11.8469 6.34517 11.3971 5.7853 10.7092C5.22543 10.0212 4.94766 9.14626 5.00815 8.26132C5.06864 7.37638 5.46287 6.54741 6.11115 5.942C6.75943 5.33659 7.61339 4.9999 8.50039 5L23.5004 12C24.4287 12 25.3189 11.6313 25.9753 10.9749C26.6316 10.3185 27.0004 9.42826 27.0004 8.5C27.0004 7.57174 26.6316 6.6815 25.9753 6.02513C25.3189 5.36875 24.4287 5 23.5004 5" stroke="#1C1C1E" stroke-width="3" stroke-linecap="round" stroke-linejoin="round"/>
<path d="M11.5 16.6663V26.9325" stroke="#1C1C1E" stroke-width="3" stroke-linecap="round" stroke-linejoin="round"/>
<path d="M6.11719 19.5375L16.4997 14V28" stroke="#1C1C1E" stroke-width="3" stroke-linecap="round" stroke-linejoin="round"/>
<path d="M24.9326 22.5C24.1502 24.052 22.9769 25.3733 21.5282 26.3336C20.0796 27.294 18.4057 27.8601 16.6715 27.9763C14.9374 28.0925 13.2029 27.7547 11.639 26.9963C10.0752 26.2378 8.73609 25.0849 7.75368 23.6511C6.77126 22.2174 6.1795 20.5523 6.03673 18.8201C5.89396 17.088 6.20511 15.3485 6.93951 13.7733C7.67392 12.198 8.8062 10.8413 10.2247 9.83707C11.6433 8.83279 13.299 8.21557 15.0288 8.04626" stroke="#1C1C1E" stroke-width="3" stroke-linecap="round" stroke-linejoin="round"/>
</svg>
