<svg width="32" height="32" viewBox="0 0 32 32" fill="none" xmlns="http://www.w3.org/2000/svg">
<path d="M9 29C9 28.2044 9.31607 27.4413 9.87868 26.8787C10.4413 26.3161 11.2044 26 12 26H20C20.7956 26 21.5587 26.3161 22.1213 26.8787C22.6839 27.4413 23 28.2044 23 29" stroke="#1C1C1E" stroke-width="3" stroke-linecap="round" stroke-linejoin="round"/>
<path d="M16 21V29" stroke="#1C1C1E" stroke-width="3" stroke-linecap="round" stroke-linejoin="round"/>
<path d="M2 16H5C5 17.3261 5.52678 18.5979 6.46447 19.5355C7.40215 20.4732 8.67392 21 10 21H22C23.3261 21 24.5979 20.4732 25.5355 19.5355C26.4732 18.5979 27 17.3261 27 16H30" stroke="#1C1C1E" stroke-width="3" stroke-linecap="round" stroke-linejoin="round"/>
<path d="M19.3017 3.00001H12.6992C12.4599 2.99931 12.2283 3.08444 12.0464 3.23994C11.8645 3.39545 11.7444 3.61102 11.7079 3.84751L10.0117 14.8475C9.9897 14.9901 9.9988 15.1357 10.0384 15.2744C10.078 15.4132 10.1471 15.5417 10.241 15.6511C10.335 15.7606 10.4515 15.8485 10.5825 15.9087C10.7136 15.9689 10.8562 16.0001 11.0004 16H21.0004C21.1449 16.0004 21.2878 15.9696 21.4191 15.9095C21.5505 15.8494 21.6673 15.7616 21.7615 15.6521C21.8558 15.5426 21.9251 15.4139 21.9648 15.275C22.0046 15.1361 22.0137 14.9903 21.9917 14.8475L20.2954 3.84751C20.2589 3.61059 20.1384 3.39468 19.956 3.23912C19.7736 3.08357 19.5414 2.99871 19.3017 3.00001Z" stroke="#1C1C1E" stroke-width="3" stroke-linecap="round" stroke-linejoin="round"/>
</svg>
