<svg width="32" height="32" viewBox="0 0 32 32" fill="none" xmlns="http://www.w3.org/2000/svg">
<path d="M1.5 11H30.5V11.5C30.5 15.3456 28.9723 19.0338 26.253 21.753C23.5338 24.4723 19.8456 26 16 26C12.1544 26 8.46623 24.4723 5.74695 21.753C3.02767 19.0338 1.5 15.3456 1.5 11.5V11Z" stroke="#1C1C1E" stroke-width="3" stroke-linecap="round" stroke-linejoin="round"/>
<path d="M6.5 11V11.5C6.5 14.0196 7.50089 16.4359 9.28249 18.2175C11.0641 19.9991 13.4804 21 16 21C18.5196 21 20.9359 19.9991 22.7175 18.2175C24.4991 16.4359 25.5 14.0196 25.5 11.5V11" stroke="#1C1C1E" stroke-width="3" stroke-linecap="round" stroke-linejoin="round"/>
<path d="M16.0002 11L11.0352 19.6" stroke="#1C1C1E" stroke-width="3" stroke-linecap="round" stroke-linejoin="round"/>
<path d="M16 11L20.965 19.6" stroke="#1C1C1E" stroke-width="3" stroke-linecap="round" stroke-linejoin="round"/>
</svg>
