<svg width="32" height="32" viewBox="0 0 32 32" fill="none" xmlns="http://www.w3.org/2000/svg">
<path d="M16 29C21.5228 29 26 24.5228 26 19C26 13.4772 21.5228 9 16 9C10.4772 9 6 13.4772 6 19C6 24.5228 10.4772 29 16 29Z" stroke="#1C1C1E" stroke-width="3" stroke-linecap="round" stroke-linejoin="round"/>
<path d="M16 9C16 7.14348 16.7375 5.36301 18.0503 4.05025C19.363 2.7375 21.1435 2 23 2H24C24 3.85652 23.2625 5.63699 21.9497 6.94975C20.637 8.2625 18.8565 9 17 9H16Z" stroke="#1C1C1E" stroke-width="3" stroke-linecap="round" stroke-linejoin="round"/>
<path d="M16 9C16 7.14348 15.2625 5.36301 13.9497 4.05025C12.637 2.7375 10.8565 2 9 2H8" stroke="#1C1C1E" stroke-width="3" stroke-linecap="round" stroke-linejoin="round"/>
<path d="M20.7712 20.5C20.5288 21.2679 20.1049 21.9661 19.5355 22.5355C18.9661 23.1049 18.2679 23.5288 17.5 23.7712" stroke="#1C1C1E" stroke-width="3" stroke-linecap="round" stroke-linejoin="round"/>
</svg>
