<svg width="32" height="32" viewBox="0 0 32 32" fill="none" xmlns="http://www.w3.org/2000/svg">
<path d="M26 5H6C5.44772 5 5 5.44772 5 6V26C5 26.5523 5.44772 27 6 27H26C26.5523 27 27 26.5523 27 26V6C27 5.44772 26.5523 5 26 5Z" stroke="#1C1C1E" stroke-width="3" stroke-linecap="round" stroke-linejoin="round"/>
<path d="M10.5 12C11.6046 12 12.5 11.1046 12.5 10C12.5 8.89543 11.6046 8 10.5 8C9.39543 8 8.5 8.89543 8.5 10C8.5 11.1046 9.39543 12 10.5 12Z" fill="#1C1C1E"/>
<path d="M16 12C17.1046 12 18 11.1046 18 10C18 8.89543 17.1046 8 16 8C14.8954 8 14 8.89543 14 10C14 11.1046 14.8954 12 16 12Z" fill="#1C1C1E"/>
<path d="M21.5 12C22.6046 12 23.5 11.1046 23.5 10C23.5 8.89543 22.6046 8 21.5 8C20.3954 8 19.5 8.89543 19.5 10C19.5 11.1046 20.3954 12 21.5 12Z" fill="#1C1C1E"/>
<path d="M22.5 15H9.5V22.5H22.5V15Z" stroke="#1C1C1E" stroke-width="3" stroke-linecap="round" stroke-linejoin="round"/>
</svg>
