<svg width="32" height="32" viewBox="0 0 32 32" fill="none" xmlns="http://www.w3.org/2000/svg">
<path d="M24 7H6.5C5.94772 7 5.5 7.44772 5.5 8V16C5.5 16.5523 5.94772 17 6.5 17H24C24.5523 17 25 16.5523 25 16V8C25 7.44772 24.5523 7 24 7Z" stroke="#1C1C1E" stroke-width="3" stroke-linecap="round" stroke-linejoin="round"/>
<path d="M25 12H29C29.2652 12 29.5196 12.1054 29.7071 12.2929C29.8946 12.4804 30 12.7348 30 13V19.75C30 19.9672 29.9292 20.1785 29.7984 20.352C29.6676 20.5254 29.4839 20.6515 29.275 20.7113L16.725 24.2925C16.5168 24.3521 16.3335 24.4776 16.2027 24.6503C16.072 24.823 16.0009 25.0334 16 25.25V29" stroke="#1C1C1E" stroke-width="3" stroke-linecap="round" stroke-linejoin="round"/>
<path d="M5.5 12H2" stroke="#1C1C1E" stroke-width="3" stroke-linecap="round" stroke-linejoin="round"/>
</svg>
