<svg width="32" height="32" viewBox="0 0 32 32" fill="none" xmlns="http://www.w3.org/2000/svg">
<path d="M5 13.5H27" stroke="#1C1C1E" stroke-width="3" stroke-linecap="round" stroke-linejoin="round"/>
<path d="M19.5 19C19.3567 19 19.2152 19.0308 19.0848 19.0902C18.9545 19.1497 18.8385 19.2365 18.7446 19.3447C18.6507 19.4529 18.5812 19.5801 18.5407 19.7175C18.5002 19.8549 18.4898 19.9994 18.51 20.1413L19 26C19 26.7956 18.6839 27.5587 18.1213 28.1213C17.5587 28.6839 16.7956 29 16 29C15.2044 29 14.4413 28.6839 13.8787 28.1213C13.3161 27.5587 13 26.7956 13 26L13.49 20.1413C13.5102 19.9994 13.4998 19.8549 13.4593 19.7175C13.4188 19.5801 13.3493 19.4529 13.2554 19.3447C13.1615 19.2365 13.0455 19.1497 12.9152 19.0902C12.7848 19.0308 12.6433 19 12.5 19H7C6.46957 19 5.96086 18.7893 5.58579 18.4142C5.21071 18.0391 5 17.5304 5 17V8C5 6.93913 5.42143 5.92172 6.17157 5.17157C6.92172 4.42143 7.93913 4 9 4H27V17C27 17.5304 26.7893 18.0391 26.4142 18.4142C26.0391 18.7893 25.5304 19 25 19H19.5Z" stroke="#1C1C1E" stroke-width="3" stroke-linecap="round" stroke-linejoin="round"/>
<path d="M21.5 4V8.5" stroke="#1C1C1E" stroke-width="3" stroke-linecap="round" stroke-linejoin="round"/>
</svg>
