<svg width="32" height="32" viewBox="0 0 32 32" fill="none" xmlns="http://www.w3.org/2000/svg">
<path d="M16 24C16 23.2043 16.3161 22.4413 16.8787 21.8787C17.4413 21.3161 18.2044 21 19 21H24.7763C25.4558 21.0001 26.1152 20.7695 26.6465 20.346C27.1779 19.9225 27.5498 19.3312 27.7013 18.6687C27.9077 17.7592 28.008 16.8289 28 15.8962C27.9438 9.29375 22.48 3.93375 15.875 4C12.7141 4.03292 9.69388 5.31173 7.47041 7.55861C5.24694 9.80548 3.99983 12.8389 4 16C4 21.2262 7.34125 25.18 12 26.8262C12.4523 26.9862 12.9364 27.0353 13.4116 26.9694C13.8868 26.9036 14.3393 26.7248 14.7312 26.4479C15.123 26.1711 15.4427 25.8043 15.6635 25.3784C15.8842 24.9524 15.9997 24.4798 16 24Z" stroke="#1C1C1E" stroke-width="3" stroke-linecap="round" stroke-linejoin="round"/>
<path d="M16 11.5C17.1046 11.5 18 10.6046 18 9.5C18 8.39543 17.1046 7.5 16 7.5C14.8954 7.5 14 8.39543 14 9.5C14 10.6046 14.8954 11.5 16 11.5Z" fill="#1C1C1E"/>
<path d="M10.5 14.5C11.6046 14.5 12.5 13.6046 12.5 12.5C12.5 11.3954 11.6046 10.5 10.5 10.5C9.39543 10.5 8.5 11.3954 8.5 12.5C8.5 13.6046 9.39543 14.5 10.5 14.5Z" fill="#1C1C1E"/>
<path d="M10.5 21.5C11.6046 21.5 12.5 20.6046 12.5 19.5C12.5 18.3954 11.6046 17.5 10.5 17.5C9.39543 17.5 8.5 18.3954 8.5 19.5C8.5 20.6046 9.39543 21.5 10.5 21.5Z" fill="#1C1C1E"/>
<path d="M21.5 14.5C22.6046 14.5 23.5 13.6046 23.5 12.5C23.5 11.3954 22.6046 10.5 21.5 10.5C20.3954 10.5 19.5 11.3954 19.5 12.5C19.5 13.6046 20.3954 14.5 21.5 14.5Z" fill="#1C1C1E"/>
</svg>
