<svg width="32" height="32" viewBox="0 0 32 32" fill="none" xmlns="http://www.w3.org/2000/svg">
<path d="M11.4997 8.50002H7.2422C7.11975 8.49906 7.00119 8.54307 6.90903 8.62371C6.81687 8.70435 6.75751 8.81601 6.7422 8.93752L5.9922 14.9375C5.98329 15.0082 5.9896 15.08 6.01071 15.1481C6.03181 15.2162 6.06723 15.2789 6.11458 15.3322C6.16193 15.3855 6.22012 15.428 6.28524 15.457C6.35037 15.4859 6.42094 15.5006 6.4922 15.5C7.95169 15.5003 9.3516 14.9212 10.3843 13.8899C11.417 12.8586 11.998 11.4595 11.9997 10V9.00002C11.9997 8.86741 11.947 8.74023 11.8533 8.64646C11.7595 8.55269 11.6323 8.50002 11.4997 8.50002Z" fill="#1C1C1E"/>
<path d="M26 14.9375L25.25 8.93752C25.2347 8.81601 25.1753 8.70435 25.0832 8.62371C24.991 8.54307 24.8725 8.49906 24.75 8.50002H20.5C20.3674 8.50002 20.2402 8.55269 20.1464 8.64646C20.0527 8.74023 20 8.86741 20 9.00002V10C20.002 11.4594 20.5831 12.8583 21.6158 13.8896C22.6484 14.9208 24.0481 15.5 25.5075 15.5C25.5788 15.5006 25.6493 15.4859 25.7145 15.457C25.7796 15.428 25.8378 15.3855 25.8851 15.3322C25.9325 15.2789 25.9679 15.2162 25.989 15.1481C26.0101 15.08 26.0164 15.0082 26.0075 14.9375H26Z" fill="#1C1C1E"/>
<path d="M23.2503 4C23.494 3.99992 23.7292 4.08877 23.912 4.24989C24.0947 4.411 24.2124 4.63328 24.2428 4.875L26.9928 26.875C27.0106 27.0158 26.9982 27.1587 26.9564 27.2944C26.9146 27.43 26.8445 27.5552 26.7506 27.6616C26.6567 27.768 26.5412 27.8532 26.4119 27.9115C26.2825 27.9699 26.1422 28 26.0003 28H20.9141C20.6911 28 20.4745 27.9254 20.2988 27.7881C20.123 27.6509 19.9982 27.4588 19.9441 27.2425L16.0003 12L12.0566 27.2425C12.0025 27.4588 11.8777 27.6509 11.7019 27.7881C11.5262 27.9254 11.3096 28 11.0866 28H6.00034C5.85844 28 5.71815 27.9699 5.5888 27.9115C5.45944 27.8532 5.34399 27.768 5.25011 27.6616C5.15623 27.5552 5.08608 27.43 5.04431 27.2944C5.00253 27.1587 4.99011 27.0158 5.00784 26.875L7.75784 4.875C7.7883 4.63328 7.90594 4.411 8.08869 4.24989C8.27144 4.08877 8.50672 3.99992 8.75034 4H23.2503Z" stroke="#1C1C1E" stroke-width="3" stroke-linecap="round" stroke-linejoin="round"/>
<path d="M16 12V9" stroke="#1C1C1E" stroke-width="3" stroke-linecap="round" stroke-linejoin="round"/>
<path d="M7.24219 9H24.7572" stroke="#1C1C1E" stroke-width="3" stroke-linecap="round" stroke-linejoin="round"/>
</svg>
