<svg width="32" height="32" viewBox="0 0 32 32" fill="none" xmlns="http://www.w3.org/2000/svg">
<path d="M3.00041 26C2.83341 26.0001 2.66905 25.9583 2.52233 25.8785C2.37561 25.7988 2.25121 25.6835 2.16047 25.5433C2.06973 25.4031 2.01556 25.2424 2.00288 25.0759C1.99021 24.9094 2.01944 24.7423 2.08791 24.59L10.1879 6.59C10.267 6.41397 10.3954 6.2646 10.5576 6.15991C10.7197 6.05522 10.9087 5.99968 11.1017 6H29.0004C29.1674 5.99993 29.3318 6.04169 29.4785 6.12146C29.6252 6.20124 29.7496 6.31648 29.8404 6.45669C29.9311 6.59689 29.9853 6.75759 29.9979 6.92411C30.0106 7.09063 29.9814 7.25768 29.9129 7.41L21.8129 25.41C21.7339 25.5858 21.6057 25.7351 21.4438 25.8398C21.2819 25.9444 21.0932 26.0001 20.9004 26H3.00041Z" stroke="#1C1C1E" stroke-width="3" stroke-linecap="round" stroke-linejoin="round"/>
</svg>
