<svg width="32" height="32" viewBox="0 0 32 32" fill="none" xmlns="http://www.w3.org/2000/svg">
<path d="M26.5 16.5C28.1569 16.5 29.5 15.1569 29.5 13.5C29.5 11.8431 28.1569 10.5 26.5 10.5C24.8431 10.5 23.5 11.8431 23.5 13.5C23.5 15.1569 24.8431 16.5 26.5 16.5Z" fill="#1C1C1E"/>
<path d="M5.5 16.5C7.15685 16.5 8.5 15.1569 8.5 13.5C8.5 11.8431 7.15685 10.5 5.5 10.5C3.84315 10.5 2.5 11.8431 2.5 13.5C2.5 15.1569 3.84315 16.5 5.5 16.5Z" fill="#1C1C1E"/>
<path d="M11.5 10.5C13.1569 10.5 14.5 9.15685 14.5 7.5C14.5 5.84315 13.1569 4.5 11.5 4.5C9.84315 4.5 8.5 5.84315 8.5 7.5C8.5 9.15685 9.84315 10.5 11.5 10.5Z" fill="#1C1C1E"/>
<path d="M20.5 10.5C22.1569 10.5 23.5 9.15685 23.5 7.5C23.5 5.84315 22.1569 4.5 20.5 4.5C18.8431 4.5 17.5 5.84315 17.5 7.5C17.5 9.15685 18.8431 10.5 20.5 10.5Z" fill="#1C1C1E"/>
<path d="M15.9996 13C15.0245 13.0004 14.0758 13.3175 13.2965 13.9036C12.5171 14.4898 11.9493 15.3132 11.6784 16.25C11.2781 17.6278 10.3494 18.7916 9.09462 19.4875C8.18374 19.9732 7.49588 20.7922 7.17488 21.7733C6.85388 22.7544 6.9246 23.8216 7.37224 24.7517C7.81989 25.6819 8.6098 26.403 9.5768 26.7642C10.5438 27.1255 11.613 27.0989 12.5609 26.69C14.7636 25.7869 17.2332 25.7869 19.4359 26.69C20.3837 27.0989 21.4529 27.1255 22.4199 26.7642C23.3869 26.403 24.1769 25.6819 24.6245 24.7517C25.0721 23.8216 25.1429 22.7544 24.8219 21.7733C24.5009 20.7922 23.813 19.9732 22.9021 19.4875C21.6481 18.7914 20.7202 17.6276 20.3209 16.25C20.05 15.3132 19.4821 14.4898 18.7028 13.9036C17.9234 13.3175 16.9748 13.0004 15.9996 13Z" stroke="#1C1C1E" stroke-width="3" stroke-linecap="round" stroke-linejoin="round"/>
</svg>
