<svg width="32" height="32" viewBox="0 0 32 32" fill="none" xmlns="http://www.w3.org/2000/svg">
<path d="M17.9998 16C19.3378 15.9998 20.6373 15.5524 21.6919 14.7289C22.7464 13.9054 23.4954 12.753 23.8198 11.455C24.0409 10.5705 24.0576 9.64725 23.8684 8.75537C23.6793 7.8635 23.2894 7.02644 22.7284 6.3078C22.1673 5.58915 21.4499 5.00781 20.6306 4.60793C19.8112 4.20804 18.9116 4.00014 17.9998 4H10.4998C10.2769 4.00003 10.0603 4.0746 9.88451 4.21185C9.70876 4.3491 9.58392 4.54116 9.52985 4.7575L5.02985 22.7575C4.993 22.9049 4.99023 23.0588 5.02175 23.2074C5.05327 23.3561 5.11825 23.4956 5.21176 23.6154C5.30527 23.7351 5.42484 23.832 5.56139 23.8987C5.69795 23.9653 5.8479 24 5.99985 24H9.9386C10.1616 24 10.3782 23.9254 10.5539 23.7881C10.7297 23.6509 10.8545 23.4588 10.9086 23.2425L12.5336 16.7575C12.5875 16.5418 12.7118 16.3502 12.8868 16.213C13.0618 16.0758 13.2775 16.0009 13.4998 16H17.9998Z" stroke="#1C1C1E" stroke-width="3" stroke-linecap="round" stroke-linejoin="round"/>
<path d="M10.9088 23.2425L10.0338 26.7575C9.99698 26.9046 9.99415 27.0582 10.0255 27.2065C10.0568 27.3549 10.1214 27.4942 10.2145 27.6139C10.3076 27.7336 10.4267 27.8306 10.5628 27.8974C10.6989 27.9643 10.8484 27.9994 11 28H14.9388C15.1618 28 15.3783 27.9254 15.5541 27.7881C15.7298 27.6509 15.8547 27.4588 15.9088 27.2425L17.0338 22.7575C17.0877 22.5418 17.212 22.3502 17.3869 22.213C17.5619 22.0758 17.7777 22.0009 18 22H22C23.338 21.9998 24.6375 21.5524 25.692 20.7289C26.7465 19.9054 27.4955 18.753 27.82 17.455C28.0411 16.5705 28.0577 15.6473 27.8686 14.7554C27.6795 13.8635 27.2896 13.0264 26.7285 12.3078C26.1675 11.5892 25.4501 11.0078 24.6307 10.6079C23.8114 10.208 22.9117 10.0001 22 10H15C14.777 10 14.5604 10.0746 14.3847 10.2119C14.2089 10.3491 14.0841 10.5412 14.03 10.7575L12.53 16.7575" stroke="#1C1C1E" stroke-width="3" stroke-linecap="round" stroke-linejoin="round"/>
</svg>
