<svg width="32" height="32" viewBox="0 0 32 32" fill="none" xmlns="http://www.w3.org/2000/svg">
<path d="M15.25 19.5C16.7688 19.5 18 18.2688 18 16.75C18 15.2312 16.7688 14 15.25 14C13.7312 14 12.5 15.2312 12.5 16.75C12.5 18.2688 13.7312 19.5 15.25 19.5Z" stroke="#1C1C1E" stroke-width="3" stroke-linecap="round" stroke-linejoin="round"/>
<path d="M5.00098 26.9999L13.3047 18.6949" stroke="#1C1C1E" stroke-width="3" stroke-linecap="round" stroke-linejoin="round"/>
<path d="M5 27L22.4312 24.095C22.6042 24.0661 22.7665 23.9922 22.9019 23.8807C23.0372 23.7693 23.1409 23.6242 23.2025 23.46L26 16L16 6L8.54 8.7975C8.37583 8.8591 8.23074 8.96278 8.11929 9.09815C8.00784 9.23351 7.93394 9.39581 7.905 9.56875L5 27Z" stroke="#1C1C1E" stroke-width="3" stroke-linecap="round" stroke-linejoin="round"/>
<path d="M26 16L29.7075 12.2925C29.8949 12.105 30.0002 11.8508 30.0002 11.5857C30.0002 11.3206 29.8949 11.0663 29.7075 10.8788L21.125 2.29254C20.9375 2.10514 20.6832 1.99988 20.4181 1.99988C20.153 1.99988 19.8988 2.10514 19.7113 2.29254L16 6.00004" stroke="#1C1C1E" stroke-width="3" stroke-linecap="round" stroke-linejoin="round"/>
</svg>
