<svg width="32" height="32" viewBox="0 0 32 32" fill="none" xmlns="http://www.w3.org/2000/svg">
<path d="M16 28C22.6274 28 28 22.6274 28 16C28 9.37258 22.6274 4 16 4C9.37258 4 4 9.37258 4 16C4 22.6274 9.37258 28 16 28Z" stroke="#1C1C1E" stroke-width="3" stroke-linecap="round" stroke-linejoin="round"/>
<path d="M22 26.395V22L16 9L10 22V26.395" stroke="#1C1C1E" stroke-width="3" stroke-linecap="round" stroke-linejoin="round"/>
<path d="M16 25C16 24.2044 16.3161 23.4413 16.8787 22.8787C17.4413 22.3161 18.2044 22 19 22C19.7956 22 20.5587 22.3161 21.1213 22.8787C21.6839 23.4413 22 24.2044 22 25" stroke="#1C1C1E" stroke-width="3" stroke-linecap="round" stroke-linejoin="round"/>
<path d="M16 28V25C16 24.2044 15.6839 23.4413 15.1213 22.8787C14.5587 22.3161 13.7956 22 13 22C12.2044 22 11.4413 22.3161 10.8787 22.8787C10.3161 23.4413 10 24.2044 10 25" stroke="#1C1C1E" stroke-width="3" stroke-linecap="round" stroke-linejoin="round"/>
<path d="M12.3076 17H19.6926" stroke="#1C1C1E" stroke-width="3" stroke-linecap="round" stroke-linejoin="round"/>
</svg>
