<svg width="32" height="32" viewBox="0 0 32 32" fill="none" xmlns="http://www.w3.org/2000/svg">
<path d="M17 8L24 15" stroke="#1C1C1E" stroke-width="3" stroke-linecap="round" stroke-linejoin="round"/>
<path d="M6 5L26 27" stroke="#1C1C1E" stroke-width="3" stroke-linecap="round" stroke-linejoin="round"/>
<path d="M19.3337 19.6663L12.2925 26.7075C12.1051 26.8947 11.8511 26.9999 11.5863 27H6C5.73478 27 5.48043 26.8947 5.29289 26.7071C5.10536 26.5196 5 26.2652 5 26V20.4138C5.00012 20.1489 5.10532 19.8949 5.2925 19.7075L12.6675 12.3325" stroke="#1C1C1E" stroke-width="3" stroke-linecap="round" stroke-linejoin="round"/>
<path d="M16 16L9 23" stroke="#1C1C1E" stroke-width="3" stroke-linecap="round" stroke-linejoin="round"/>
<path d="M16.2061 8.79364L20.7061 4.29364C20.8936 4.10624 21.1478 4.00098 21.4129 4.00098C21.678 4.00098 21.9323 4.10624 22.1198 4.29364L27.7073 9.87489C27.8947 10.0624 28 10.3167 28 10.5818C28 10.8469 27.8947 11.1011 27.7073 11.2886L22.8748 16.1249" stroke="#1C1C1E" stroke-width="3" stroke-linecap="round" stroke-linejoin="round"/>
<path d="M20.5 11.5L19.54 12.46" stroke="#1C1C1E" stroke-width="3" stroke-linecap="round" stroke-linejoin="round"/>
<path d="M5.5 19.5L12.5 26.5" stroke="#1C1C1E" stroke-width="3" stroke-linecap="round" stroke-linejoin="round"/>
</svg>
