<svg width="32" height="32" viewBox="0 0 32 32" fill="none" xmlns="http://www.w3.org/2000/svg">
<path d="M16 10C17.6569 10 19 8.65685 19 7C19 5.34315 17.6569 4 16 4C14.3431 4 13 5.34315 13 7C13 8.65685 14.3431 10 16 10Z" stroke="#1C1C1E" stroke-width="3" stroke-linecap="round" stroke-linejoin="round"/>
<path d="M8 14.5C9.38071 14.5 10.5 13.3807 10.5 12C10.5 10.6193 9.38071 9.5 8 9.5C6.61929 9.5 5.5 10.6193 5.5 12C5.5 13.3807 6.61929 14.5 8 14.5Z" fill="#1C1C1E"/>
<path d="M27 14.2003C27 14.2003 23 10.9916 17 15.0753C10.6912 19.3628 7 17.6816 7 17.6816" stroke="#1C1C1E" stroke-width="3" stroke-linecap="round" stroke-linejoin="round"/>
<path d="M17.4922 18.2441L21.9997 22.0004L19.9997 28.0004" stroke="#1C1C1E" stroke-width="3" stroke-linecap="round" stroke-linejoin="round"/>
<path d="M17.945 14.4746C17.7825 17.9196 16.9075 26.3271 8 28.9996" stroke="#1C1C1E" stroke-width="3" stroke-linecap="round" stroke-linejoin="round"/>
</svg>
