<svg width="32" height="32" viewBox="0 0 32 32" fill="none" xmlns="http://www.w3.org/2000/svg">
<path d="M3.72755 22.75L22.9276 28.4012C23.2869 28.5053 23.6657 28.5241 24.0336 28.456C24.4015 28.388 24.7485 28.2349 25.0468 28.0092C25.3452 27.7834 25.5867 27.4911 25.7522 27.1555C25.9177 26.8199 26.0026 26.4504 26.0001 26.0762C26.0015 25.554 25.834 25.0454 25.5227 24.6261C25.2114 24.2069 24.7728 23.8996 24.2726 23.75L5.07255 18.0987C4.71317 17.9946 4.33444 17.9758 3.96652 18.0439C3.5986 18.1119 3.25164 18.265 2.95328 18.4907C2.65491 18.7165 2.41337 19.0088 2.24789 19.3444C2.0824 19.68 1.99754 20.0495 2.00005 20.4237C1.99865 20.9459 2.1661 21.4545 2.47742 21.8738C2.78875 22.293 3.22726 22.6003 3.72755 22.75Z" stroke="#1C1C1E" stroke-width="3" stroke-linecap="round" stroke-linejoin="round"/>
<path d="M21 8.5C22.3807 8.5 23.5 7.38071 23.5 6C23.5 4.61929 22.3807 3.5 21 3.5C19.6193 3.5 18.5 4.61929 18.5 6C18.5 7.38071 19.6193 8.5 21 8.5Z" stroke="#1C1C1E" stroke-width="3" stroke-linecap="round" stroke-linejoin="round"/>
<path d="M10 10L27 15" stroke="#1C1C1E" stroke-width="3" stroke-linecap="round" stroke-linejoin="round"/>
<path d="M13.7139 15.9287L20.0001 17.75L17.3426 21.7112" stroke="#1C1C1E" stroke-width="3" stroke-linecap="round" stroke-linejoin="round"/>
<path d="M16.4104 11.885L11.0879 19.8688" stroke="#1C1C1E" stroke-width="3" stroke-linecap="round" stroke-linejoin="round"/>
</svg>
