<svg width="32" height="32" viewBox="0 0 32 32" fill="none" xmlns="http://www.w3.org/2000/svg">
<path d="M21 9C22.3807 9 23.5 7.88071 23.5 6.5C23.5 5.11929 22.3807 4 21 4C19.6193 4 18.5 5.11929 18.5 6.5C18.5 7.88071 19.6193 9 21 9Z" stroke="#1C1C1E" stroke-width="3" stroke-linecap="round" stroke-linejoin="round"/>
<path d="M25.5 26C27.433 26 29 24.433 29 22.5C29 20.567 27.433 19 25.5 19C23.567 19 22 20.567 22 22.5C22 24.433 23.567 26 25.5 26Z" stroke="#1C1C1E" stroke-width="3" stroke-linecap="round" stroke-linejoin="round"/>
<path d="M6.75 26C8.82107 26 10.5 24.3211 10.5 22.25C10.5 20.1789 8.82107 18.5 6.75 18.5C4.67893 18.5 3 20.1789 3 22.25C3 24.3211 4.67893 26 6.75 26Z" stroke="#1C1C1E" stroke-width="3" stroke-linecap="round" stroke-linejoin="round"/>
<path d="M23.5 14.5H19L15 10.5L11 14.5L16 19.5V25.5" stroke="#1C1C1E" stroke-width="3" stroke-linecap="round" stroke-linejoin="round"/>
</svg>
