<svg width="32" height="32" viewBox="0 0 32 32" fill="none" xmlns="http://www.w3.org/2000/svg">
<path d="M22 10C23.3807 10 24.5 8.88071 24.5 7.5C24.5 6.11929 23.3807 5 22 5C20.6193 5 19.5 6.11929 19.5 7.5C19.5 8.88071 20.6193 10 22 10Z" stroke="#1C1C1E" stroke-width="3" stroke-linecap="round" stroke-linejoin="round"/>
<path d="M19.1175 14.6175L5 10.5" stroke="#1C1C1E" stroke-width="3" stroke-linecap="round" stroke-linejoin="round"/>
<path d="M25 15.5H20L16 11.5L14.29 13.21" stroke="#1C1C1E" stroke-width="3" stroke-linecap="round" stroke-linejoin="round"/>
<path d="M29 25.2C28.0604 25.8262 26.9951 26.2393 25.879 26.4103C24.7628 26.5813 23.6228 26.5061 22.5387 26.19L3 20.5" stroke="#1C1C1E" stroke-width="3" stroke-linecap="round" stroke-linejoin="round"/>
<path d="M11 17.5L18 19.5L13.8425 23.6575" stroke="#1C1C1E" stroke-width="3" stroke-linecap="round" stroke-linejoin="round"/>
</svg>
