<svg width="32" height="32" viewBox="0 0 32 32" fill="none" xmlns="http://www.w3.org/2000/svg">
<path d="M6 5L26 27" stroke="#1C1C1E" stroke-width="3" stroke-linecap="round" stroke-linejoin="round"/>
<path d="M14.3063 14.1363C13.7034 14.2341 13.1103 14.3847 12.5338 14.5863C12.3709 14.6446 12.2262 14.7445 12.1139 14.876C12.0016 15.0076 11.9257 15.1663 11.8938 15.3363L11.1563 19.025C11.1226 19.1867 11.0493 19.3376 10.9431 19.4641C10.8369 19.5906 10.701 19.6888 10.5475 19.75L4.41127 21.9275C4.21104 22.0095 3.98961 22.0243 3.78023 21.9698C3.57084 21.9153 3.3848 21.7943 3.25002 21.625C1.42502 19.2713 1.59252 16.1463 3.75002 13.985C5.62767 12.112 7.91993 10.7075 10.4413 9.88501" stroke="#1C1C1E" stroke-width="3" stroke-linecap="round" stroke-linejoin="round"/>
<path d="M16.3975 9C20.7262 9.095 25.0225 10.75 28.2425 13.9738C30.4037 16.135 30.5712 19.26 28.7425 21.6138C28.6031 21.7928 28.4062 21.9183 28.185 21.9688" stroke="#1C1C1E" stroke-width="3" stroke-linecap="round" stroke-linejoin="round"/>
</svg>
