<svg width="32" height="32" viewBox="0 0 32 32" fill="none" xmlns="http://www.w3.org/2000/svg">
<path d="M23 17C24.1046 17 25 16.1046 25 15C25 13.8954 24.1046 13 23 13C21.8954 13 21 13.8954 21 15C21 16.1046 21.8954 17 23 17Z" fill="#1C1C1E"/>
<path d="M14.5 9.5H19.5" stroke="#1C1C1E" stroke-width="3" stroke-linecap="round" stroke-linejoin="round"/>
<path d="M27.5 5H18.5" stroke="#1C1C1E" stroke-width="3" stroke-linecap="round" stroke-linejoin="round"/>
<path d="M1.5 18C1.5 17.2044 1.81607 16.4413 2.37868 15.8787C2.94129 15.3161 3.70435 15 4.5 15" stroke="#1C1C1E" stroke-width="3" stroke-linecap="round" stroke-linejoin="round"/>
<path d="M28.0425 12H28.5C29.0304 12 29.5391 12.2107 29.9142 12.5858C30.2893 12.9609 30.5 13.4696 30.5 14V18C30.5 18.5304 30.2893 19.0391 29.9142 19.4142C29.5391 19.7893 29.0304 20 28.5 20H27.5L25.2375 26.3363C25.1681 26.5306 25.0403 26.6988 24.8715 26.8176C24.7028 26.9364 24.5014 27.0002 24.295 27H22.705C22.4986 27.0002 22.2972 26.9364 22.1285 26.8176C21.9597 26.6988 21.8319 26.5306 21.7625 26.3363L21.2863 25H12.7138L12.2375 26.3363C12.1681 26.5306 12.0403 26.6988 11.8715 26.8176C11.7028 26.9364 11.5014 27.0002 11.295 27H9.70501C9.49862 27.0002 9.29723 26.9364 9.12849 26.8176C8.95975 26.6988 8.8319 26.5306 8.76251 26.3363L7.12501 21.75C5.43419 19.909 4.49722 17.4996 4.50001 15C4.50001 12.3478 5.55357 9.8043 7.42894 7.92893C9.3043 6.05357 11.8478 5 14.5 5H18.5C20.4514 4.99944 22.3603 5.56981 23.9915 6.64083C25.6226 7.71185 26.9048 9.23671 27.68 11.0275C27.8171 11.3454 27.9381 11.6699 28.0425 12Z" stroke="#1C1C1E" stroke-width="3" stroke-linecap="round" stroke-linejoin="round"/>
</svg>
