<svg width="32" height="32" viewBox="0 0 32 32" fill="none" xmlns="http://www.w3.org/2000/svg">
<path d="M9.26705 28.7671C8.79555 29.2224 8.16404 29.4744 7.50855 29.4687C6.85306 29.463 6.22603 29.2001 5.76251 28.7366C5.29899 28.2731 5.03606 27.646 5.03037 26.9906C5.02467 26.3351 5.27666 25.7036 5.73205 25.2321L14.2146 16.7496L9.23205 11.7671C8.77666 11.2955 8.52467 10.664 8.53037 10.0085C8.53606 9.35306 8.79899 8.72603 9.26251 8.26251C9.72603 7.79899 10.3531 7.53606 11.0085 7.53037C11.664 7.52467 12.2955 7.77666 12.7671 8.23205L20.6871 15.7946C20.7838 15.8864 20.8612 15.9966 20.9147 16.1188C20.9682 16.241 20.9967 16.3726 20.9986 16.506C21.0005 16.6393 20.9756 16.7717 20.9256 16.8953C20.8755 17.019 20.8012 17.1313 20.7071 17.2258L9.26705 28.7671Z" stroke="#1C1C1E" stroke-width="3" stroke-linecap="round" stroke-linejoin="round"/>
<path d="M10.2352 12.7695L7.29266 15.707C7.10527 15.8945 7 16.1488 7 16.4139C7 16.679 7.10527 16.9333 7.29266 17.1208L10.5677 20.3958" stroke="#1C1C1E" stroke-width="3" stroke-linecap="round" stroke-linejoin="round"/>
<path d="M17.9504 13.1798L20.8629 10.2923C21.0491 10.1062 21.3012 10.001 21.5644 9.99962C21.8277 9.99822 22.0809 10.1007 22.2691 10.2848L24.4504 12.2073C24.6379 12.3947 24.8921 12.5 25.1572 12.5C25.4223 12.5 25.6766 12.3947 25.8641 12.2073L26.3291 11.7423C27.0791 10.9922 27.5004 9.9749 27.5004 8.91419C27.5004 7.85347 27.0791 6.83618 26.3291 6.08606L22.2041 2.29231C22.1112 2.19933 22.0009 2.12557 21.8795 2.07525C21.7581 2.02493 21.628 1.99902 21.4966 1.99902C21.3652 1.99902 21.2351 2.02493 21.1137 2.07525C20.9923 2.12557 20.882 2.19933 20.7891 2.29231L13.8291 9.22231" stroke="#1C1C1E" stroke-width="3" stroke-linecap="round" stroke-linejoin="round"/>
</svg>
