<svg width="32" height="32" viewBox="0 0 32 32" fill="none" xmlns="http://www.w3.org/2000/svg">
<path d="M3.14531 8.86225C3.07703 8.74985 3.0316 8.62508 3.01162 8.4951C2.99163 8.36511 2.99748 8.23246 3.02883 8.10474C3.06018 7.97702 3.11641 7.85674 3.19431 7.75078C3.27221 7.64482 3.37025 7.55527 3.48281 7.48725C7.25869 5.20339 11.5875 3.99609 16.0003 3.99609C20.4132 3.99609 24.7419 5.20339 28.5178 7.48725C28.6304 7.55527 28.7284 7.64482 28.8063 7.75078C28.8842 7.85674 28.9404 7.97702 28.9718 8.10474C29.0031 8.23246 29.009 8.36511 28.989 8.4951C28.969 8.62508 28.9236 8.74985 28.8553 8.86225L16.8553 28.5198C16.7663 28.6673 16.6407 28.7893 16.4907 28.874C16.3407 28.9587 16.1713 29.0032 15.9991 29.0032C15.8268 29.0032 15.6574 28.9587 15.5074 28.874C15.3574 28.7893 15.2318 28.6673 15.1428 28.5198L3.14531 8.86225Z" stroke="#1C1C1E" stroke-width="3" stroke-linecap="round" stroke-linejoin="round"/>
<path d="M5.25879 12.3249C8.42209 10.159 12.1663 9 16 9C19.8338 9 23.578 10.159 26.7413 12.3249" stroke="#1C1C1E" stroke-width="3" stroke-linecap="round" stroke-linejoin="round"/>
<path d="M19.9998 23.3748C19.3953 23.2181 18.8358 22.9219 18.3663 22.5101C17.8968 22.0983 17.5303 21.5823 17.296 21.0034C17.0617 20.4245 16.9663 19.7988 17.0173 19.1763C17.0683 18.5539 17.2643 17.952 17.5896 17.419C17.915 16.8859 18.3607 16.4364 18.891 16.1065C19.4212 15.7767 20.0214 15.5755 20.6434 15.5192C21.2653 15.4629 21.8918 15.553 22.4727 15.7824C23.0536 16.0117 23.5727 16.3739 23.9885 16.8398" stroke="#1C1C1E" stroke-width="3" stroke-linecap="round" stroke-linejoin="round"/>
<path d="M5.93359 13.4315C6.34156 12.9451 6.85945 12.5628 7.44445 12.3161C8.02945 12.0695 8.66476 11.9656 9.29784 12.0132C9.93092 12.0607 10.5436 12.2582 11.0852 12.5895C11.6268 12.9207 12.0818 13.376 12.4126 13.9179C12.7434 14.4598 12.9404 15.0727 12.9874 15.7058C13.0344 16.3389 12.93 16.9741 12.6829 17.5589C12.4358 18.1437 12.053 18.6613 11.5663 19.0689C11.0795 19.4764 10.5027 19.7623 9.88359 19.9028" stroke="#1C1C1E" stroke-width="3" stroke-linecap="round" stroke-linejoin="round"/>
</svg>
