<svg width="32" height="32" viewBox="0 0 32 32" fill="none" xmlns="http://www.w3.org/2000/svg">
<path d="M21.3538 14.7662L14.8538 10.2662C14.6287 10.1104 14.3652 10.0192 14.092 10.0024C13.8187 9.98561 13.5461 10.0439 13.3036 10.171C13.0611 10.2981 12.8581 10.4891 12.7164 10.7234C12.5748 10.9577 12.4999 11.2262 12.5 11.5V20.5C12.4999 20.7738 12.5748 21.0423 12.7164 21.2766C12.8581 21.5108 13.0611 21.7019 13.3036 21.829C13.5461 21.9561 13.8187 22.0144 14.092 21.9976C14.3652 21.9808 14.6287 21.8896 14.8538 21.7337L21.3538 17.2337C21.5533 17.0957 21.7164 16.9114 21.8291 16.6965C21.9417 16.4816 22.0006 16.2426 22.0006 16C22.0006 15.7574 21.9417 15.5184 21.8291 15.3035C21.7164 15.0886 21.5533 14.9042 21.3538 14.7662Z" fill="#1C1C1E"/>
<path d="M16 28C22.6274 28 28 22.6274 28 16C28 9.37258 22.6274 4 16 4C9.37258 4 4 9.37258 4 16C4 22.6274 9.37258 28 16 28Z" stroke="#1C1C1E" stroke-width="3" stroke-linecap="round" stroke-linejoin="round"/>
</svg>
