<svg width="32" height="32" viewBox="0 0 32 32" fill="none" xmlns="http://www.w3.org/2000/svg">
<path d="M18.4876 13.512C15.4951 8.52329 19.4876 3.53579 27.9651 4.03454C28.4639 12.5133 23.4764 16.4995 18.4876 13.512Z" stroke="#1C1C1E" stroke-width="3" stroke-linecap="round" stroke-linejoin="round"/>
<path d="M11.7934 13.7934C13.9322 10.2309 11.0809 6.66842 5.02467 7.02467C4.66842 13.0809 8.23092 15.9322 11.7934 13.7934Z" stroke="#1C1C1E" stroke-width="3" stroke-linecap="round" stroke-linejoin="round"/>
<path d="M7 19.5H25" stroke="#1C1C1E" stroke-width="3" stroke-linecap="round" stroke-linejoin="round"/>
<path d="M22.8888 19.5L21.1738 27.2175C21.1244 27.4395 21.0007 27.638 20.8232 27.7803C20.6457 27.9225 20.425 28 20.1976 28H11.8026C11.5751 28 11.3544 27.9225 11.177 27.7803C10.9995 27.638 10.8758 27.4395 10.8263 27.2175L9.11133 19.5" stroke="#1C1C1E" stroke-width="3" stroke-linecap="round" stroke-linejoin="round"/>
<path d="M18.4875 13.5127L12.5 19.5002" stroke="#1C1C1E" stroke-width="3" stroke-linecap="round" stroke-linejoin="round"/>
<path d="M11.7939 13.7939L15.0002 17.0002" stroke="#1C1C1E" stroke-width="3" stroke-linecap="round" stroke-linejoin="round"/>
</svg>
