<svg width="32" height="32" viewBox="0 0 32 32" fill="none" xmlns="http://www.w3.org/2000/svg">
<path d="M16 24.5C17.1046 24.5 18 23.6046 18 22.5C18 21.3954 17.1046 20.5 16 20.5C14.8954 20.5 14 21.3954 14 22.5C14 23.6046 14.8954 24.5 16 24.5Z" fill="#1C1C1E"/>
<path d="M16 28C22.6274 28 28 22.6274 28 16C28 9.37258 22.6274 4 16 4C9.37258 4 4 9.37258 4 16C4 22.6274 9.37258 28 16 28Z" stroke="#1C1C1E" stroke-width="3" stroke-linecap="round" stroke-linejoin="round"/>
<path d="M16 17.5V16.5C18.2088 16.5 20 14.9325 20 13C20 11.0675 18.2088 9.5 16 9.5C13.7912 9.5 12 11.0675 12 13V13.5" stroke="#1C1C1E" stroke-width="3" stroke-linecap="round" stroke-linejoin="round"/>
</svg>
