<svg width="32" height="32" viewBox="0 0 32 32" fill="none" xmlns="http://www.w3.org/2000/svg">
<path d="M26.6221 16.6226C30.5035 12.7413 31.1327 7.0776 28.0275 3.97245C24.9223 0.867291 19.2587 1.4965 15.3774 5.37782C11.496 9.25914 10.8668 14.9228 13.972 18.028C17.0771 21.1331 22.7408 20.5039 26.6221 16.6226Z" stroke="#1C1C1E" stroke-width="3" stroke-linecap="round" stroke-linejoin="round"/>
<path d="M6.70688 21.2931L2.79304 25.2069C2.40252 25.5974 2.40252 26.2306 2.79304 26.6211L5.3784 29.2065C5.76893 29.597 6.40209 29.597 6.79262 29.2065L10.7065 25.2926C11.097 24.9021 11.097 24.2689 10.7065 23.8784L8.12109 21.2931C7.73057 20.9025 7.0974 20.9025 6.70688 21.2931Z" stroke="#1C1C1E" stroke-width="3" stroke-linecap="round" stroke-linejoin="round"/>
<path d="M9.41406 22.5863L13.9728 18.0275" stroke="#1C1C1E" stroke-width="3" stroke-linecap="round" stroke-linejoin="round"/>
<path d="M24.5 2.14124V18.3225" stroke="#1C1C1E" stroke-width="3" stroke-linecap="round" stroke-linejoin="round"/>
<path d="M17.5 3.67627V19.8588" stroke="#1C1C1E" stroke-width="3" stroke-linecap="round" stroke-linejoin="round"/>
<path d="M13.6777 7.5H29.859" stroke="#1C1C1E" stroke-width="3" stroke-linecap="round" stroke-linejoin="round"/>
<path d="M12.1416 14.5H28.3229" stroke="#1C1C1E" stroke-width="3" stroke-linecap="round" stroke-linejoin="round"/>
</svg>
