<svg width="32" height="32" viewBox="0 0 32 32" fill="none" xmlns="http://www.w3.org/2000/svg">
<path d="M4 9H27C27.2652 9 27.5196 9.10536 27.7071 9.29289C27.8946 9.48043 28 9.73478 28 10V24C28 24.2652 27.8946 24.5196 27.7071 24.7071C27.5196 24.8946 27.2652 25 27 25H5C4.73478 25 4.48043 24.8946 4.29289 24.7071C4.10536 24.5196 4 24.2652 4 24V9Z" stroke="#1C1C1E" stroke-width="3" stroke-linecap="round" stroke-linejoin="round"/>
<path d="M4 9L24 3" stroke="#1C1C1E" stroke-width="3" stroke-linecap="round" stroke-linejoin="round"/>
<path d="M20 20C21.6569 20 23 18.6569 23 17C23 15.3431 21.6569 14 20 14C18.3431 14 17 15.3431 17 17C17 18.6569 18.3431 20 20 20Z" stroke="#1C1C1E" stroke-width="3" stroke-linecap="round" stroke-linejoin="round"/>
<path d="M9 14.5H12" stroke="#1C1C1E" stroke-width="3" stroke-linecap="round" stroke-linejoin="round"/>
<path d="M9 19.5H12" stroke="#1C1C1E" stroke-width="3" stroke-linecap="round" stroke-linejoin="round"/>
</svg>
