<svg width="32" height="32" viewBox="0 0 32 32" fill="none" xmlns="http://www.w3.org/2000/svg">
<path d="M16 18C17.1046 18 18 17.1046 18 16C18 14.8954 17.1046 14 16 14C14.8954 14 14 14.8954 14 16C14 17.1046 14.8954 18 16 18Z" fill="#1C1C1E"/>
<path d="M13.2208 11.2499L10.4708 6.49992C10.4014 6.37936 10.3076 6.27462 10.1953 6.19238C10.0831 6.11015 9.95496 6.05224 9.81907 6.02236C9.68319 5.99248 9.54257 5.99128 9.40619 6.01884C9.26982 6.0464 9.1407 6.10212 9.02709 6.18242C7.60849 7.18372 6.42425 8.48113 5.55622 9.98497C4.68819 11.4888 4.15707 13.1632 3.99959 14.8924C3.98642 15.0321 4.00242 15.173 4.04659 15.3062C4.09075 15.4393 4.16211 15.5619 4.25613 15.666C4.35015 15.7701 4.46479 15.8536 4.59278 15.9111C4.72076 15.9686 4.85929 15.9988 4.99959 15.9999H10.4996" stroke="#1C1C1E" stroke-width="3" stroke-linecap="round" stroke-linejoin="round"/>
<path d="M18.7783 11.2499L21.5283 6.49992C21.5978 6.37936 21.6916 6.27462 21.8038 6.19238C21.916 6.11015 22.0442 6.05224 22.1801 6.02236C22.316 5.99248 22.4566 5.99128 22.593 6.01884C22.7293 6.0464 22.8585 6.10212 22.9721 6.18242C24.3907 7.18372 25.5749 8.48113 26.4429 9.98497C27.311 11.4888 27.8421 13.1632 27.9996 14.8924C28.0127 15.0321 27.9967 15.173 27.9526 15.3062C27.9084 15.4393 27.8371 15.5619 27.743 15.666C27.649 15.7701 27.5344 15.8536 27.4064 15.9111C27.2784 15.9686 27.1399 15.9988 26.9996 15.9999H21.4996" stroke="#1C1C1E" stroke-width="3" stroke-linecap="round" stroke-linejoin="round"/>
<path d="M18.7496 20.7637L21.4784 25.4887C21.5479 25.6089 21.5916 25.7423 21.6067 25.8803C21.6217 26.0184 21.6079 26.1581 21.5661 26.2905C21.5242 26.4229 21.4552 26.5451 21.3635 26.6494C21.2718 26.7537 21.1594 26.8377 21.0334 26.8962C19.4549 27.6234 17.7376 28 15.9996 28C14.2617 28 12.5444 27.6234 10.9659 26.8962C10.8399 26.8377 10.7275 26.7537 10.6358 26.6494C10.5441 26.5451 10.4751 26.4229 10.4332 26.2905C10.3914 26.1581 10.3775 26.0184 10.3926 25.8803C10.4077 25.7423 10.4514 25.6089 10.5209 25.4887L13.2496 20.7637" stroke="#1C1C1E" stroke-width="3" stroke-linecap="round" stroke-linejoin="round"/>
</svg>
