<svg width="32" height="32" viewBox="0 0 32 32" fill="none" xmlns="http://www.w3.org/2000/svg">
<path d="M19.5 25C17.8438 25 16.5 23.6075 16.5 21.8888C16.5 20.17 17.8438 18.7775 19.5 18.7775C19.8776 18.7776 20.2516 18.851 20.6012 18.9937C20.7916 18.0673 21.2408 17.2139 21.8966 16.5325C22.5525 15.8511 23.3882 15.3698 24.3067 15.1442C25.2251 14.9187 26.1887 14.9583 27.0856 15.2584C27.9825 15.5586 28.7759 16.1069 29.3736 16.8398C29.9714 17.5727 30.349 18.4601 30.4627 19.399C30.5764 20.3379 30.4214 21.2898 30.0159 22.1442C29.6103 22.9985 28.9707 23.7204 28.1714 24.2259C27.3721 24.7314 26.4458 24.9998 25.5 25H19.5Z" stroke="#1C1C1E" stroke-width="3" stroke-linecap="round" stroke-linejoin="round"/>
<path d="M11.5 21.9999V19.9999C11.5 19.6187 11.5872 19.2426 11.7549 18.9003C11.9226 18.558 12.1663 18.2586 12.4675 18.0249" stroke="#1C1C1E" stroke-width="3" stroke-linecap="round" stroke-linejoin="round"/>
<path d="M6.5 22.0001V20.0001C6.49985 18.6733 6.85169 17.3702 7.5196 16.2238C8.18751 15.0773 9.14759 14.1286 10.3019 13.4744C11.4562 12.8202 12.7634 12.4839 14.0901 12.4998C15.4168 12.5157 16.7155 12.8833 17.8538 13.5651" stroke="#1C1C1E" stroke-width="3" stroke-linecap="round" stroke-linejoin="round"/>
<path d="M1.5 21.9999V19.9999C1.50011 17.6022 2.18983 15.2551 3.4869 13.2385C4.78397 11.2219 6.63366 9.6209 8.81541 8.6264C10.9972 7.63191 13.4189 7.28588 15.7919 7.62959C18.1648 7.9733 20.3888 8.99224 22.1987 10.5649" stroke="#1C1C1E" stroke-width="3" stroke-linecap="round" stroke-linejoin="round"/>
</svg>
