<svg width="32" height="32" viewBox="0 0 32 32" fill="none" xmlns="http://www.w3.org/2000/svg">
<path d="M23 5.5C23.8284 5.5 24.5 4.82843 24.5 4C24.5 3.17157 23.8284 2.5 23 2.5C22.1716 2.5 21.5 3.17157 21.5 4C21.5 4.82843 22.1716 5.5 23 5.5Z" stroke="#1C1C1E" stroke-width="3" stroke-linecap="round" stroke-linejoin="round"/>
<path d="M7.42622 11.235C9.71497 9.84375 12.715 9 16 9C19.285 9 22.285 9.84375 24.5737 11.235C24.836 10.8751 25.1752 10.5782 25.5666 10.3657C25.9579 10.1532 26.3917 10.0305 26.8364 10.0065C27.281 9.98254 27.7255 10.0579 28.1374 10.227C28.5494 10.3961 28.9185 10.6549 29.218 10.9844C29.5176 11.314 29.74 11.7061 29.8691 12.1323C29.9982 12.5584 30.0309 13.008 29.9646 13.4484C29.8984 13.8888 29.7349 14.3089 29.4861 14.6782C29.2373 15.0476 28.9094 15.3569 28.5262 15.5837C28.8378 16.3513 28.9987 17.1716 29 18C29 22.97 23.18 27 16 27C8.81997 27 2.99997 22.97 2.99997 18C3.00127 17.1716 3.16211 16.3513 3.47372 15.5837C3.09051 15.3569 2.76261 15.0476 2.51381 14.6782C2.26501 14.3089 2.10157 13.8888 2.03533 13.4484C1.96909 13.008 2.00172 12.5584 2.13085 12.1323C2.25998 11.7061 2.48238 11.314 2.7819 10.9844C3.08142 10.6549 3.45055 10.3961 3.86251 10.227C4.27446 10.0579 4.71891 9.98254 5.16358 10.0065C5.60826 10.0305 6.04202 10.1532 6.43339 10.3657C6.82475 10.5782 7.1639 10.8751 7.42622 11.235Z" stroke="#1C1C1E" stroke-width="3" stroke-linecap="round" stroke-linejoin="round"/>
<path d="M11 18.5C12.3807 18.5 13.5 17.3807 13.5 16C13.5 14.6193 12.3807 13.5 11 13.5C9.61929 13.5 8.5 14.6193 8.5 16C8.5 17.3807 9.61929 18.5 11 18.5Z" fill="#1C1C1E"/>
<path d="M21 18.5C22.3807 18.5 23.5 17.3807 23.5 16C23.5 14.6193 22.3807 13.5 21 13.5C19.6193 13.5 18.5 14.6193 18.5 16C18.5 17.3807 19.6193 18.5 21 18.5Z" fill="#1C1C1E"/>
<path d="M19.5 21.5C17.2143 22.1667 14.7857 22.1667 12.5 21.5" stroke="#1C1C1E" stroke-width="3" stroke-linecap="round" stroke-linejoin="round"/>
<path d="M16 9L17 3L21.52 3.75375" stroke="#1C1C1E" stroke-width="3" stroke-linecap="round" stroke-linejoin="round"/>
</svg>
