<svg width="32" height="32" viewBox="0 0 32 32" fill="none" xmlns="http://www.w3.org/2000/svg">
<path d="M16 28C22.6274 28 28 22.6274 28 16C28 9.37258 22.6274 4 16 4C9.37258 4 4 9.37258 4 16C4 22.6274 9.37258 28 16 28Z" stroke="#1C1C1E" stroke-width="3" stroke-linecap="round" stroke-linejoin="round"/>
<path d="M14.6504 10.6475C14.3956 10.5251 14.1114 10.4771 13.8305 10.5092C13.5496 10.5412 13.2835 10.652 13.0629 10.8288L8.06289 14.8288C7.88725 14.9693 7.74546 15.1475 7.64803 15.3503C7.55059 15.553 7.5 15.7751 7.5 16C7.5 16.2249 7.55059 16.447 7.64803 16.6497C7.74546 16.8525 7.88725 17.0307 8.06289 17.1713L13.0629 21.1713C13.2835 21.3479 13.5496 21.4586 13.8304 21.4906C14.1112 21.5227 14.3953 21.4747 14.6501 21.3523C14.9048 21.2299 15.1198 21.038 15.2702 20.7988C15.4207 20.5595 15.5005 20.2826 15.5004 20V12C15.5005 11.7174 15.4208 11.4405 15.2704 11.2012C15.12 10.9619 14.9051 10.77 14.6504 10.6475Z" fill="#1C1C1E"/>
<path d="M21.6504 10.6475C21.3956 10.5251 21.1114 10.4771 20.8305 10.5092C20.5496 10.5412 20.2835 10.652 20.0629 10.8288L15.0629 14.8288C14.8872 14.9693 14.7455 15.1475 14.648 15.3503C14.5506 15.553 14.5 15.7751 14.5 16C14.5 16.2249 14.5506 16.447 14.648 16.6497C14.7455 16.8525 14.8872 17.0307 15.0629 17.1713L20.0629 21.1713C20.2835 21.3479 20.5496 21.4586 20.8304 21.4906C21.1112 21.5227 21.3953 21.4747 21.6501 21.3523C21.9048 21.2299 22.1198 21.038 22.2702 20.7988C22.4207 20.5595 22.5005 20.2826 22.5004 20V12C22.5005 11.7174 22.4208 11.4405 22.2704 11.2012C22.12 10.9619 21.9051 10.77 21.6504 10.6475Z" fill="#1C1C1E"/>
</svg>
