<svg width="32" height="32" viewBox="0 0 32 32" fill="none" xmlns="http://www.w3.org/2000/svg">
<path d="M27.9997 8.98125V23.0188C27.9981 23.1955 27.9493 23.3686 27.8581 23.52C27.767 23.6715 27.6369 23.7957 27.4815 23.8798C27.326 23.964 27.1508 24.0049 26.9742 23.9983C26.7976 23.9917 26.6259 23.9379 26.4772 23.8425L15.4534 16.8238C15.3145 16.7358 15.2001 16.6142 15.1208 16.4701C15.0416 16.3261 15 16.1644 15 16C15 15.8356 15.0416 15.6739 15.1208 15.5299C15.2001 15.3858 15.3145 15.2642 15.4534 15.1763L26.4772 8.1575C26.6259 8.06208 26.7976 8.00829 26.9742 8.00172C27.1508 7.99515 27.326 8.03605 27.4815 8.12016C27.6369 8.20427 27.767 8.32852 27.8581 8.47996C27.9493 8.6314 27.9981 8.80451 27.9997 8.98125Z" stroke="#1C1C1E" stroke-width="3" stroke-linecap="round" stroke-linejoin="round"/>
<path d="M14.9997 8.98125V23.0188C14.9981 23.1955 14.9493 23.3686 14.8581 23.52C14.767 23.6715 14.6369 23.7957 14.4815 23.8798C14.326 23.964 14.1508 24.0049 13.9742 23.9983C13.7976 23.9917 13.6259 23.9379 13.4772 23.8425L2.45341 16.8238C2.31451 16.7358 2.20011 16.6142 2.12084 16.4701C2.04157 16.3261 2 16.1644 2 16C2 15.8356 2.04157 15.6739 2.12084 15.5299C2.20011 15.3858 2.31451 15.2642 2.45341 15.1763L13.4772 8.1575C13.6259 8.06208 13.7976 8.00829 13.9742 8.00172C14.1508 7.99515 14.326 8.03605 14.4815 8.12016C14.6369 8.20427 14.767 8.32852 14.8581 8.47996C14.9493 8.6314 14.9981 8.80451 14.9997 8.98125Z" stroke="#1C1C1E" stroke-width="3" stroke-linecap="round" stroke-linejoin="round"/>
</svg>
