<svg width="32" height="32" viewBox="0 0 32 32" fill="none" xmlns="http://www.w3.org/2000/svg">
<path d="M23.8888 14.1113C26.8888 11.1113 27.0763 7.5425 26.9825 5.95125C26.9669 5.70873 26.8635 5.48018 26.6917 5.30834C26.5198 5.13649 26.2913 5.0331 26.0487 5.0175C24.4575 4.92375 20.8913 5.10875 17.8888 8.11125L10 16L16 22L23.8888 14.1113Z" stroke="#1C1C1E" stroke-width="3" stroke-linecap="round" stroke-linejoin="round"/>
<path d="M17.0003 9H9.29407C9.02921 9.00012 8.77521 9.10532 8.58782 9.2925L4.29407 13.5863C4.16298 13.7176 4.07103 13.8829 4.02853 14.0636C3.98602 14.2442 3.99464 14.4332 4.05341 14.6092C4.11218 14.7853 4.21878 14.9415 4.36129 15.0604C4.5038 15.1793 4.67659 15.2562 4.86032 15.2825L10.0003 16" stroke="#1C1C1E" stroke-width="3" stroke-linecap="round" stroke-linejoin="round"/>
<path d="M23 15V22.7062C22.9999 22.9711 22.8947 23.2251 22.7075 23.4125L18.4137 27.7062C18.2824 27.8373 18.1171 27.9293 17.9364 27.9718C17.7558 28.0143 17.5668 28.0057 17.3908 27.9469C17.2147 27.8881 17.0585 27.7815 16.9396 27.639C16.8207 27.4965 16.7438 27.3237 16.7175 27.14L16 22" stroke="#1C1C1E" stroke-width="3" stroke-linecap="round" stroke-linejoin="round"/>
<path d="M11.295 24.3663C10.4438 25.525 8.64375 27 5 27C5 23.3563 6.475 21.5563 7.63375 20.705" stroke="#1C1C1E" stroke-width="3" stroke-linecap="round" stroke-linejoin="round"/>
</svg>
