<svg width="32" height="32" viewBox="0 0 32 32" fill="none" xmlns="http://www.w3.org/2000/svg">
<path d="M26 18.5H6C5.44772 18.5 5 18.9477 5 19.5V24C5 24.5523 5.44772 25 6 25H26C26.5523 25 27 24.5523 27 24V19.5C27 18.9477 26.5523 18.5 26 18.5Z" stroke="#1C1C1E" stroke-width="3" stroke-linecap="round" stroke-linejoin="round"/>
<path d="M26 7H6C5.44772 7 5 7.44772 5 8V12.5C5 13.0523 5.44772 13.5 6 13.5H26C26.5523 13.5 27 13.0523 27 12.5V8C27 7.44772 26.5523 7 26 7Z" stroke="#1C1C1E" stroke-width="3" stroke-linecap="round" stroke-linejoin="round"/>
</svg>
