<svg width="32" height="32" viewBox="0 0 32 32" fill="none" xmlns="http://www.w3.org/2000/svg">
<path d="M25 7L18.5 13.5" stroke="#1C1C1E" stroke-width="3" stroke-linecap="round" stroke-linejoin="round"/>
<path d="M9.29231 16.6174C9.19933 16.5245 9.12557 16.4142 9.07525 16.2928C9.02493 16.1714 8.99902 16.0413 8.99902 15.9099C8.99902 15.7785 9.02493 15.6483 9.07525 15.5269C9.12557 15.4055 9.19933 15.2953 9.29231 15.2024L10.2923 14.2024C10.4661 14.0709 10.6781 13.9998 10.8961 13.9999H12.9998C13.265 13.9999 13.5194 13.8945 13.7069 13.707C13.8945 13.5195 13.9998 13.2651 13.9998 12.9999V10.9136C13.9999 10.6488 14.1051 10.3948 14.2923 10.2074L20.9461 3.55363C21.4385 3.06108 22.0231 2.67036 22.6665 2.40378C23.3099 2.13721 23.9996 2 24.6961 2C25.3925 2 26.0822 2.13721 26.7256 2.40378C27.369 2.67036 27.9537 3.06108 28.4461 3.55363C28.9386 4.04604 29.3293 4.63065 29.5959 5.27408C29.8625 5.91752 29.9997 6.60716 29.9997 7.30363C29.9997 8.0001 29.8625 8.68975 29.5959 9.33318C29.3293 9.97661 28.9386 10.5612 28.4461 11.0536L21.7923 17.7074C21.6049 17.8946 21.3509 17.9998 21.0861 17.9999H18.9998C18.7346 17.9999 18.4802 18.1052 18.2927 18.2928C18.1052 18.4803 17.9998 18.7347 17.9998 18.9999V21.1036C17.9999 21.3216 17.9288 21.5336 17.7973 21.7074L16.7973 22.7074C16.7044 22.8004 16.5941 22.8741 16.4728 22.9244C16.3514 22.9748 16.2212 23.0007 16.0898 23.0007C15.9584 23.0007 15.8283 22.9748 15.7069 22.9244C15.5855 22.8741 15.4752 22.8004 15.3823 22.7074L9.29231 16.6174Z" stroke="#1C1C1E" stroke-width="3" stroke-linecap="round" stroke-linejoin="round"/>
<path d="M12.3375 19.6621L2 29.9996" stroke="#1C1C1E" stroke-width="3" stroke-linecap="round" stroke-linejoin="round"/>
</svg>
