<svg width="32" height="32" viewBox="0 0 32 32" fill="none" xmlns="http://www.w3.org/2000/svg">
<path d="M4.5 8.5V7.5C4.5 7.23478 4.60536 6.98043 4.79289 6.79289C4.98043 6.60536 5.23478 6.5 5.5 6.5H26.5C26.7652 6.5 27.0196 6.60536 27.2071 6.79289C27.3946 6.98043 27.5 7.23478 27.5 7.5V24.5C27.5 24.7652 27.3946 25.0196 27.2071 25.2071C27.0196 25.3946 26.7652 25.5 26.5 25.5H21.5" stroke="#1C1C1E" stroke-width="3" stroke-linecap="round" stroke-linejoin="round"/>
<path d="M4.5 23.5C5.03043 23.5 5.53914 23.7107 5.91421 24.0858C6.28929 24.4609 6.5 24.9696 6.5 25.5" stroke="#1C1C1E" stroke-width="3" stroke-linecap="round" stroke-linejoin="round"/>
<path d="M4.5 18.5C6.35652 18.5 8.13699 19.2375 9.44975 20.5503C10.7625 21.863 11.5 23.6435 11.5 25.5" stroke="#1C1C1E" stroke-width="3" stroke-linecap="round" stroke-linejoin="round"/>
<path d="M4.5 13.5C7.6826 13.5 10.7348 14.7643 12.9853 17.0147C15.2357 19.2652 16.5 22.3174 16.5 25.5" stroke="#1C1C1E" stroke-width="3" stroke-linecap="round" stroke-linejoin="round"/>
</svg>
