<svg width="32" height="32" viewBox="0 0 32 32" fill="none" xmlns="http://www.w3.org/2000/svg">
<path d="M16 13C18.4853 13 20.5 10.9853 20.5 8.5C20.5 6.01472 18.4853 4 16 4C13.5147 4 11.5 6.01472 11.5 8.5C11.5 10.9853 13.5147 13 16 13Z" stroke="#1C1C1E" stroke-width="3" stroke-linecap="round" stroke-linejoin="round"/>
<path d="M25 28H7L24 14" stroke="#1C1C1E" stroke-width="3" stroke-linecap="round" stroke-linejoin="round"/>
<path d="M24.209 20.3047C24.5941 21.1589 24.8426 22.0683 24.9452 22.9997" stroke="#1C1C1E" stroke-width="3" stroke-linecap="round" stroke-linejoin="round"/>
<path d="M7.46387 21.1415C7.90233 19.833 8.63585 18.6428 9.6077 17.663C10.5796 16.6832 11.7637 15.94 13.0686 15.4909C14.3736 15.0418 15.7643 14.8988 17.1333 15.0729C18.5023 15.2471 19.813 15.7337 20.9639 16.4953" stroke="#1C1C1E" stroke-width="3" stroke-linecap="round" stroke-linejoin="round"/>
</svg>
