<svg width="32" height="32" viewBox="0 0 32 32" fill="none" xmlns="http://www.w3.org/2000/svg">
<path d="M14 29H27" stroke="#1C1C1E" stroke-width="3" stroke-linecap="round" stroke-linejoin="round"/>
<path d="M12.6047 9.55247C12.5352 9.6914 12.499 9.84462 12.499 9.99997C12.499 10.1553 12.5352 10.3085 12.6047 10.4475L16.5772 18.4475C16.6604 18.6136 16.7881 18.7533 16.9462 18.8509C17.1043 18.9485 17.2865 19.0001 17.4722 19H25.9997C26.265 19 26.5193 19.1053 26.7068 19.2929C26.8944 19.4804 26.9997 19.7348 26.9997 20V23.5C26.9997 23.7652 26.8944 24.0195 26.7068 24.2071C26.5193 24.3946 26.265 24.5 25.9997 24.5H14.0135C13.8279 24.4999 13.646 24.4481 13.4882 24.3506C13.3304 24.253 13.2028 24.1134 13.1197 23.9475L6.10474 9.94747C6.03522 9.80854 5.99902 9.65532 5.99902 9.49997C5.99902 9.34462 6.03522 9.1914 6.10474 9.05247L8.87474 3.55247C8.99352 3.31552 9.20151 3.13543 9.45301 3.05175C9.7045 2.96808 9.97893 2.98767 10.216 3.10622L13.9522 4.89497C14.1892 5.01375 14.3693 5.22174 14.453 5.47324C14.5366 5.72473 14.517 5.99916 14.3985 6.23622L12.6047 9.55247Z" stroke="#1C1C1E" stroke-width="3" stroke-linecap="round" stroke-linejoin="round"/>
</svg>
