<svg width="32" height="32" viewBox="0 0 32 32" fill="none" xmlns="http://www.w3.org/2000/svg">
<path d="M30.5 18V24" stroke="#1C1C1E" stroke-width="3" stroke-linecap="round" stroke-linejoin="round"/>
<path d="M23.9997 5.58594L7.58594 21.9997" stroke="#1C1C1E" stroke-width="3" stroke-linecap="round" stroke-linejoin="round"/>
<path d="M20.707 17.707L23.707 20.707C23.8944 20.8942 24.1484 20.9994 24.4133 20.9995H30.4995" stroke="#1C1C1E" stroke-width="3" stroke-linecap="round" stroke-linejoin="round"/>
<path d="M1.8748 19.8661C1.70056 20.0403 1.58172 20.2623 1.53323 20.5039C1.48473 20.7455 1.50875 20.9961 1.60226 21.2241C1.69576 21.4521 1.85459 21.6474 2.05876 21.7854C2.26294 21.9235 2.50336 21.998 2.7498 21.9998H7.58605L11.2923 25.7073C11.3852 25.8003 11.4955 25.874 11.6169 25.9244C11.7383 25.9747 11.8684 26.0006 11.9998 26.0006C12.1312 26.0006 12.2613 25.9747 12.3827 25.9244C12.5041 25.874 12.6144 25.8003 12.7073 25.7073L27.7073 10.7073C27.8003 10.6144 27.874 10.5041 27.9244 10.3828C27.9747 10.2614 28.0006 10.1312 28.0006 9.99981C28.0006 9.86839 27.9747 9.73827 27.9244 9.61687C27.874 9.49547 27.8003 9.38518 27.7073 9.29231L20.7073 2.29231C20.6144 2.19933 20.5041 2.12557 20.3827 2.07525C20.2613 2.02493 20.1312 1.99902 19.9998 1.99902C19.8684 1.99902 19.7383 2.02493 19.6169 2.07525C19.4955 2.12557 19.3852 2.19933 19.2923 2.29231L1.8748 19.8661Z" stroke="#1C1C1E" stroke-width="3" stroke-linecap="round" stroke-linejoin="round"/>
</svg>
