<svg width="32" height="32" viewBox="0 0 32 32" fill="none" xmlns="http://www.w3.org/2000/svg">
<path d="M16 16.5V12" stroke="#1C1C1E" stroke-width="3" stroke-linecap="round" stroke-linejoin="round"/>
<path d="M16 23.5C17.1046 23.5 18 22.6046 18 21.5C18 20.3954 17.1046 19.5 16 19.5C14.8954 19.5 14 20.3954 14 21.5C14 22.6046 14.8954 23.5 16 23.5Z" fill="#1C1C1E"/>
<path d="M27 14V7C27 6.73478 26.8946 6.48043 26.7071 6.29289C26.5196 6.10536 26.2652 6 26 6H6C5.73478 6 5.48043 6.10536 5.29289 6.29289C5.10536 6.48043 5 6.73478 5 7V14C5 26 16 29 16 29C16 29 27 26 27 14Z" stroke="#1C1C1E" stroke-width="3" stroke-linecap="round" stroke-linejoin="round"/>
</svg>
