<svg width="32" height="32" viewBox="0 0 32 32" fill="none" xmlns="http://www.w3.org/2000/svg">
<path d="M16 10L12.2075 13.705C12.0678 13.8449 11.8898 13.9402 11.6959 13.9789C11.5021 14.0176 11.3011 13.998 11.1184 13.9226C10.9356 13.8472 10.7794 13.7193 10.6693 13.555C10.5593 13.3908 10.5003 13.1977 10.5 13V6L12.5 4" stroke="#1C1C1E" stroke-width="3" stroke-linecap="round" stroke-linejoin="round"/>
<path d="M16 10V27" stroke="#1C1C1E" stroke-width="3" stroke-linecap="round" stroke-linejoin="round"/>
<path d="M21.5 6H25C25.2652 6 25.5196 6.10536 25.7071 6.29289C25.8946 6.48043 26 6.73478 26 7V26C26 26.2652 25.8946 26.5196 25.7071 26.7071C25.5196 26.8946 25.2652 27 25 27H7C6.73478 27 6.48043 26.8946 6.29289 26.7071C6.10536 26.5196 6 26.2652 6 26V7C6 6.73478 6.10536 6.48043 6.29289 6.29289C6.48043 6.10536 6.73478 6 7 6H10.5" stroke="#1C1C1E" stroke-width="3" stroke-linecap="round" stroke-linejoin="round"/>
<path d="M12.5 4H19.5" stroke="#1C1C1E" stroke-width="3" stroke-linecap="round" stroke-linejoin="round"/>
<path d="M19.5 4L21.5 6V13C21.5002 13.1979 21.4416 13.3914 21.3317 13.556C21.2218 13.7206 21.0656 13.8489 20.8828 13.9246C20.7 14.0004 20.4988 14.0202 20.3047 13.9815C20.1106 13.9429 19.9324 13.8475 19.7925 13.7075L16 10" stroke="#1C1C1E" stroke-width="3" stroke-linecap="round" stroke-linejoin="round"/>
<path d="M19.9342 3.75C19.8903 3.67388 19.827 3.61069 19.7509 3.5668C19.6747 3.52291 19.5884 3.49987 19.5005 3.5H12.5005C12.4127 3.50009 12.3266 3.52326 12.2506 3.56718C12.1747 3.6111 12.1117 3.67423 12.0678 3.75022C12.024 3.82622 12.001 3.9124 12.001 4.00013C12.001 4.08785 12.0241 4.17403 12.068 4.25L15.568 10.25C15.6119 10.3258 15.675 10.3887 15.7509 10.4324C15.8268 10.4761 15.9129 10.4991 16.0005 10.4991C16.0881 10.4991 16.1741 10.4761 16.25 10.4324C16.3259 10.3887 16.389 10.3258 16.433 10.25L19.933 4.25C19.977 4.1741 20.0004 4.08794 20.0006 4.00017C20.0008 3.9124 19.9779 3.82612 19.9342 3.75Z" fill="#1C1C1E"/>
</svg>
