<svg width="32" height="32" viewBox="0 0 32 32" fill="none" xmlns="http://www.w3.org/2000/svg">
<path d="M2.5 4H5L9.59375 20.535C9.71066 20.9561 9.96229 21.3273 10.3101 21.5919C10.658 21.8565 11.083 21.9998 11.52 22H23.875C24.3123 22.0001 24.7375 21.8569 25.0856 21.5923C25.4337 21.3277 25.6855 20.9563 25.8025 20.535L29 9H6.38875" stroke="#1C1C1E" stroke-width="3" stroke-linecap="round" stroke-linejoin="round"/>
<path d="M11 30C12.3807 30 13.5 28.8807 13.5 27.5C13.5 26.1193 12.3807 25 11 25C9.61929 25 8.5 26.1193 8.5 27.5C8.5 28.8807 9.61929 30 11 30Z" fill="#1C1C1E"/>
<path d="M24 30C25.3807 30 26.5 28.8807 26.5 27.5C26.5 26.1193 25.3807 25 24 25C22.6193 25 21.5 26.1193 21.5 27.5C21.5 28.8807 22.6193 30 24 30Z" fill="#1C1C1E"/>
</svg>
