<svg width="32" height="32" viewBox="0 0 32 32" fill="none" xmlns="http://www.w3.org/2000/svg">
<path d="M24 2L30 8" stroke="#1C1C1E" stroke-width="3" stroke-linecap="round" stroke-linejoin="round"/>
<path d="M27 5L11 21" stroke="#1C1C1E" stroke-width="3" stroke-linecap="round" stroke-linejoin="round"/>
<path d="M4 28.9998C3.73478 28.9998 3.48043 28.8945 3.29289 28.7069C3.10536 28.5194 3 28.265 3 27.9998V17.9998C2.9999 17.8684 3.02568 17.7384 3.07586 17.617C3.12605 17.4956 3.19967 17.3852 3.2925 17.2923L10.2925 10.2923C10.3854 10.1993 10.4957 10.1256 10.6171 10.0753C10.7385 10.0249 10.8686 9.99902 11 9.99902C11.1314 9.99902 11.2615 10.0249 11.3829 10.0753C11.5043 10.1256 11.6146 10.1993 11.7075 10.2923L21.7075 20.2923C21.8005 20.3852 21.8742 20.4955 21.9246 20.6169C21.9749 20.7383 22.0008 20.8684 22.0008 20.9998C22.0008 21.1312 21.9749 21.2614 21.9246 21.3828C21.8742 21.5041 21.8005 21.6144 21.7075 21.7073L14.7075 28.7073C14.6146 28.8001 14.5042 28.8738 14.3828 28.9239C14.2615 28.9741 14.1314 28.9999 14 28.9998H4Z" stroke="#1C1C1E" stroke-width="3" stroke-linecap="round" stroke-linejoin="round"/>
</svg>
