<svg width="32" height="32" viewBox="0 0 32 32" fill="none" xmlns="http://www.w3.org/2000/svg">
<path d="M6.5 31.5C7.60457 31.5 8.5 30.6046 8.5 29.5C8.5 28.3954 7.60457 27.5 6.5 27.5C5.39543 27.5 4.5 28.3954 4.5 29.5C4.5 30.6046 5.39543 31.5 6.5 31.5Z" fill="#1C1C1E"/>
<path d="M10.5 27.5C11.6046 27.5 12.5 26.6046 12.5 25.5C12.5 24.3954 11.6046 23.5 10.5 23.5C9.39543 23.5 8.5 24.3954 8.5 25.5C8.5 26.6046 9.39543 27.5 10.5 27.5Z" fill="#1C1C1E"/>
<path d="M2.5 27.5C3.60457 27.5 4.5 26.6046 4.5 25.5C4.5 24.3954 3.60457 23.5 2.5 23.5C1.39543 23.5 0.5 24.3954 0.5 25.5C0.5 26.6046 1.39543 27.5 2.5 27.5Z" fill="#1C1C1E"/>
<path d="M6.5 23.5C7.60457 23.5 8.5 22.6046 8.5 21.5C8.5 20.3954 7.60457 19.5 6.5 19.5C5.39543 19.5 4.5 20.3954 4.5 21.5C4.5 22.6046 5.39543 23.5 6.5 23.5Z" fill="#1C1C1E"/>
<path d="M30.4997 5H26.9997L22.9997 9M22.9997 9L20.2385 25.1637C20.2081 25.3448 20.1285 25.5139 20.0084 25.6527C19.8883 25.7915 19.7323 25.8946 19.5575 25.9506C19.3827 26.0066 19.1959 26.0135 19.0174 25.9704C18.839 25.9273 18.6759 25.8359 18.546 25.7062L6.29597 13.4563C6.16634 13.3263 6.07496 13.1632 6.03186 12.9848C5.98877 12.8064 5.9956 12.6195 6.05163 12.4447C6.10765 12.2699 6.21071 12.1139 6.34949 11.9938C6.48828 11.8737 6.65745 11.7941 6.83847 11.7638L22.9997 9Z" stroke="#1C1C1E" stroke-width="3" stroke-linecap="round" stroke-linejoin="round"/>
</svg>
