<svg width="32" height="32" viewBox="0 0 32 32" fill="none" xmlns="http://www.w3.org/2000/svg">
<path d="M4 9H6.8825C8.15591 8.99997 9.41093 9.30392 10.5432 9.88659C11.6755 10.4693 12.6523 11.3138 13.3925 12.35L18.6075 19.65C19.3477 20.6862 20.3245 21.5307 21.4568 22.1134C22.5891 22.6961 23.8441 23 25.1175 23H29" stroke="#1C1C1E" stroke-width="3" stroke-linecap="round" stroke-linejoin="round"/>
<path d="M26 6L29 9L26 12" stroke="#1C1C1E" stroke-width="3" stroke-linecap="round" stroke-linejoin="round"/>
<path d="M26 20L29 23L26 26" stroke="#1C1C1E" stroke-width="3" stroke-linecap="round" stroke-linejoin="round"/>
<path d="M19.0967 11.7325C19.8476 10.8742 20.7733 10.1863 21.8118 9.71505C22.8503 9.24378 23.9775 8.99998 25.1179 9H29.0004" stroke="#1C1C1E" stroke-width="3" stroke-linecap="round" stroke-linejoin="round"/>
<path d="M4 23H6.8825C8.02292 23 9.15016 22.7562 10.1886 22.285C11.2271 21.8137 12.1529 21.1258 12.9038 20.2675" stroke="#1C1C1E" stroke-width="3" stroke-linecap="round" stroke-linejoin="round"/>
</svg>
