<svg width="32" height="32" viewBox="0 0 32 32" fill="none" xmlns="http://www.w3.org/2000/svg">
<path d="M11.5 19.5C13.1569 19.5 14.5 18.1569 14.5 16.5C14.5 14.8431 13.1569 13.5 11.5 13.5C9.84315 13.5 8.5 14.8431 8.5 16.5C8.5 18.1569 9.84315 19.5 11.5 19.5Z" fill="#1C1C1E"/>
<path d="M20.5 19.5C22.1569 19.5 23.5 18.1569 23.5 16.5C23.5 14.8431 22.1569 13.5 20.5 13.5C18.8431 13.5 17.5 14.8431 17.5 16.5C17.5 18.1569 18.8431 19.5 20.5 19.5Z" fill="#1C1C1E"/>
<path d="M13.5 28V24" stroke="#1C1C1E" stroke-width="3" stroke-linecap="round" stroke-linejoin="round"/>
<path d="M18.5 28V24" stroke="#1C1C1E" stroke-width="3" stroke-linecap="round" stroke-linejoin="round"/>
<path d="M23.5 27C23.5 27.2652 23.3946 27.5196 23.2071 27.7071C23.0196 27.8946 22.7652 28 22.5 28H9.5C9.23478 28 8.98043 27.8946 8.79289 27.7071C8.60536 27.5196 8.5 27.2652 8.5 27V23.4775C5.75625 21.375 4 18.1312 4 14.5C4 8.14875 9.375 3 16 3C22.625 3 28 8.14875 28 14.5C28 18.1312 26.2438 21.375 23.5 23.4775V27Z" stroke="#1C1C1E" stroke-width="3" stroke-linecap="round" stroke-linejoin="round"/>
</svg>
