<svg width="32" height="32" viewBox="0 0 32 32" fill="none" xmlns="http://www.w3.org/2000/svg">
<path d="M16 28C22.6274 28 28 22.6274 28 16C28 9.37258 22.6274 4 16 4C9.37258 4 4 9.37258 4 16C4 22.6274 9.37258 28 16 28Z" stroke="#1C1C1E" stroke-width="3" stroke-linecap="round" stroke-linejoin="round"/>
<path d="M11 20H21" stroke="#1C1C1E" stroke-width="3" stroke-linecap="round" stroke-linejoin="round"/>
<path d="M11.5 15.5C12.6046 15.5 13.5 14.6046 13.5 13.5C13.5 12.3954 12.6046 11.5 11.5 11.5C10.3954 11.5 9.5 12.3954 9.5 13.5C9.5 14.6046 10.3954 15.5 11.5 15.5Z" fill="#1C1C1E"/>
<path d="M20.5 15.5C21.6046 15.5 22.5 14.6046 22.5 13.5C22.5 12.3954 21.6046 11.5 20.5 11.5C19.3954 11.5 18.5 12.3954 18.5 13.5C18.5 14.6046 19.3954 15.5 20.5 15.5Z" fill="#1C1C1E"/>
</svg>
