<svg width="32" height="32" viewBox="0 0 32 32" fill="none" xmlns="http://www.w3.org/2000/svg">
<path d="M11.5 19.5C12.6046 19.5 13.5 18.6046 13.5 17.5C13.5 16.3954 12.6046 15.5 11.5 15.5C10.3954 15.5 9.5 16.3954 9.5 17.5C9.5 18.6046 10.3954 19.5 11.5 19.5Z" fill="#1C1C1E"/>
<path d="M20.5 19.5C21.6046 19.5 22.5 18.6046 22.5 17.5C22.5 16.3954 21.6046 15.5 20.5 15.5C19.3954 15.5 18.5 16.3954 18.5 17.5C18.5 18.6046 19.3954 19.5 20.5 19.5Z" fill="#1C1C1E"/>
<path d="M16 28C22.6274 28 28 22.6274 28 16C28 9.37258 22.6274 4 16 4C9.37258 4 4 9.37258 4 16C4 22.6274 9.37258 28 16 28Z" stroke="#1C1C1E" stroke-width="3" stroke-linecap="round" stroke-linejoin="round"/>
<path d="M11.5 11.5L16 14.5L20.5 11.5" stroke="#1C1C1E" stroke-width="3" stroke-linecap="round" stroke-linejoin="round"/>
<path d="M13.5 22.1876C14.2563 21.7375 15.12 21.5 16 21.5C16.88 21.5 17.7437 21.7375 18.5 22.1876" stroke="#1C1C1E" stroke-width="3" stroke-linecap="round" stroke-linejoin="round"/>
</svg>
