<svg width="32" height="32" viewBox="0 0 32 32" fill="none" xmlns="http://www.w3.org/2000/svg">
<path d="M20.5 19C21.6046 19 22.5 18.1046 22.5 17C22.5 15.8954 21.6046 15 20.5 15C19.3954 15 18.5 15.8954 18.5 17C18.5 18.1046 19.3954 19 20.5 19Z" fill="#1C1C1E"/>
<path d="M15 13.5C16.1046 13.5 17 12.6046 17 11.5C17 10.3954 16.1046 9.5 15 9.5C13.8954 9.5 13 10.3954 13 11.5C13 12.6046 13.8954 13.5 15 13.5Z" fill="#1C1C1E"/>
<path d="M7.05481 24.0003C5.027 21.7402 3.93481 18.7935 3.99981 15.7578C4.12481 9.32277 9.39356 4.09152 15.8286 4.00027C18.1597 3.96664 20.4502 4.6128 22.42 5.85977C24.3899 7.10674 25.9539 8.90053 26.9208 11.0219C27.8878 13.1433 28.2159 15.5005 27.8649 17.8053C27.514 20.1101 26.4993 22.2628 24.9448 24.0003" stroke="#1C1C1E" stroke-width="3" stroke-linecap="round" stroke-linejoin="round"/>
<path d="M10 29.5C10 28.837 10.2634 28.2011 10.7322 27.7322C11.2011 27.2634 11.837 27 12.5 27H17.5C18.163 27 18.7989 26.7366 19.2678 26.2678C19.7366 25.7989 20 25.163 20 24.5C20 23.837 19.7366 23.2011 19.2678 22.7322C18.7989 22.2634 18.163 22 17.5 22H17C13.6862 22 10 19.3138 10 16C10.0001 15.665 10.0277 15.3305 10.0825 15" stroke="#1C1C1E" stroke-width="3" stroke-linecap="round" stroke-linejoin="round"/>
</svg>
