<svg width="32" height="32" viewBox="0 0 32 32" fill="none" xmlns="http://www.w3.org/2000/svg">
<path d="M4 24.0004C4 24.2656 4.10536 24.52 4.2929 24.7075C4.48043 24.8951 4.73479 25.0004 5 25.0004H29.5C29.7652 25.0004 30.0196 24.8951 30.2071 24.7075C30.3946 24.52 30.5 24.2656 30.5 24.0004V20.8829C30.4998 20.0436 30.2356 19.2255 29.7447 18.5447C29.2539 17.8638 28.5613 17.3546 27.765 17.0892L20.6738 14.5579C20.1465 14.3821 19.6616 14.0984 19.2501 13.7247C18.8386 13.3511 18.5095 12.8958 18.2838 12.3879L15.375 5.59417C15.2722 5.36407 15.0864 5.18125 14.8546 5.08229C14.6229 4.98332 14.3623 4.97551 14.125 5.06042L4.65875 8.50042C4.46532 8.57065 4.29825 8.69884 4.18036 8.86752C4.06247 9.03619 3.99948 9.23713 4 9.44292V24.0004Z" stroke="#1C1C1E" stroke-width="3" stroke-linecap="round" stroke-linejoin="round"/>
<path d="M4 20.5H30.4813" stroke="#1C1C1E" stroke-width="3" stroke-linecap="round" stroke-linejoin="round"/>
<path d="M15.5 14.4996L18.835 13.2871" stroke="#1C1C1E" stroke-width="3" stroke-linecap="round" stroke-linejoin="round"/>
<path d="M13.5 10.5003L16.9412 9.24902" stroke="#1C1C1E" stroke-width="3" stroke-linecap="round" stroke-linejoin="round"/>
</svg>
