<svg width="32" height="32" viewBox="0 0 32 32" fill="none" xmlns="http://www.w3.org/2000/svg">
<path d="M16 28C22.6274 28 28 22.6274 28 16C28 9.37258 22.6274 4 16 4C9.37258 4 4 9.37258 4 16C4 22.6274 9.37258 28 16 28Z" stroke="#1C1C1E" stroke-width="3" stroke-linecap="round" stroke-linejoin="round"/>
<path d="M16 11L11 14.4375L12.91 20H19.09L21 14.4375L16 11Z" stroke="#1C1C1E" stroke-width="3" stroke-linecap="round" stroke-linejoin="round"/>
<path d="M16 8V11" stroke="#1C1C1E" stroke-width="3" stroke-linecap="round" stroke-linejoin="round"/>
<path d="M8.14648 13.5113L11.0002 14.4375" stroke="#1C1C1E" stroke-width="3" stroke-linecap="round" stroke-linejoin="round"/>
<path d="M11.1465 22.4275L12.9102 20" stroke="#1C1C1E" stroke-width="3" stroke-linecap="round" stroke-linejoin="round"/>
<path d="M20.8536 22.4275L19.0898 20" stroke="#1C1C1E" stroke-width="3" stroke-linecap="round" stroke-linejoin="round"/>
<path d="M23.8538 13.5113L21 14.4375" stroke="#1C1C1E" stroke-width="3" stroke-linecap="round" stroke-linejoin="round"/>
<path d="M26.1247 7.84624C26.0103 7.70421 25.8591 7.59619 25.6877 7.53389C25.5162 7.47159 25.331 7.45737 25.1521 7.49277C24.9731 7.52817 24.8072 7.61185 24.6724 7.73475C24.5376 7.85764 24.439 8.01507 24.3872 8.18999L22.8947 13.2262C22.8373 13.4202 22.8399 13.627 22.9024 13.8193C22.9649 14.0117 23.0843 14.1806 23.2447 14.3037L27.3697 17.47C27.5141 17.5805 27.6857 17.6495 27.8664 17.6697C28.047 17.6899 28.2297 17.6606 28.3949 17.5847C28.56 17.5089 28.7014 17.3895 28.8038 17.2393C28.9062 17.0892 28.9657 16.9139 28.976 16.7325C28.9897 16.4825 28.9972 16.2325 28.9972 16C28.9952 13.0344 27.982 10.1582 26.1247 7.84624Z" fill="#1C1C1E"/>
<path d="M9.105 13.2262L7.6125 8.18999C7.56074 8.01507 7.46211 7.85764 7.3273 7.73475C7.19249 7.61185 7.02664 7.52817 6.84769 7.49277C6.66874 7.45737 6.48351 7.47159 6.31206 7.53389C6.14061 7.59619 5.98947 7.70421 5.875 7.84624C4.01688 10.1579 3.00272 13.0341 3 16C3 16.2362 3.0075 16.4825 3.02125 16.7325C3.03184 16.9135 3.09144 17.0883 3.1937 17.238C3.29595 17.3878 3.437 17.5069 3.60174 17.5827C3.76649 17.6584 3.94874 17.688 4.12898 17.6681C4.30923 17.6483 4.48068 17.5798 4.625 17.47L8.75 14.3037C8.91135 14.1812 9.03169 14.0126 9.09508 13.8202C9.15848 13.6278 9.16194 13.4207 9.105 13.2262Z" fill="#1C1C1E"/>
<path d="M21.5242 4.77876C21.5049 4.59939 21.4374 4.42859 21.329 4.28445C21.2205 4.14031 21.075 4.02821 20.908 3.96001C17.7615 2.68004 14.2395 2.68004 11.093 3.96001C10.9259 4.02816 10.7804 4.14024 10.6719 4.28437C10.5633 4.4285 10.4958 4.59931 10.4765 4.7787C10.4571 4.95808 10.4867 5.13936 10.562 5.30332C10.6373 5.46728 10.7555 5.60781 10.9042 5.71001L15.4342 8.82376C15.6009 8.93824 15.7983 8.99953 16.0005 8.99953C16.2027 8.99953 16.4001 8.93824 16.5667 8.82376L21.0967 5.71001C21.2454 5.60778 21.3636 5.46725 21.4388 5.3033C21.5141 5.13936 21.5436 4.95811 21.5242 4.77876Z" fill="#1C1C1E"/>
<path d="M27.0114 21.945C26.9252 21.7884 26.7985 21.6578 26.6446 21.5668C26.4907 21.4757 26.3152 21.4277 26.1364 21.4275H20.8539C20.6472 21.4275 20.4456 21.4916 20.2769 21.6109C20.1081 21.7302 19.9804 21.8989 19.9114 22.0937L18.0739 27.2837C18.0205 27.4346 18.0041 27.596 18.026 27.7545C18.048 27.913 18.1076 28.0639 18.1999 28.1946C18.2923 28.3253 18.4146 28.4319 18.5567 28.5055C18.6988 28.579 18.8564 28.6175 19.0164 28.6175C19.1008 28.6177 19.1849 28.6067 19.2664 28.585C22.459 27.7595 25.2167 25.7479 26.9777 22.96C27.0734 22.8092 27.1271 22.6356 27.133 22.4571C27.1389 22.2786 27.097 22.1018 27.0114 21.945Z" fill="#1C1C1E"/>
<path d="M13.9262 27.2837L12.0887 22.0937C12.0197 21.8989 11.892 21.7302 11.7232 21.6109C11.5545 21.4916 11.3529 21.4275 11.1462 21.4275H5.86492C5.68582 21.4275 5.51002 21.4757 5.35589 21.5669C5.20175 21.6582 5.07495 21.7891 4.98873 21.9461C4.90251 22.1031 4.86004 22.2803 4.86574 22.4594C4.87145 22.6384 4.92513 22.8126 5.02117 22.9637C6.78221 25.7516 9.5399 27.7633 12.7324 28.5887C12.814 28.6105 12.898 28.6214 12.9824 28.6212C13.1424 28.6212 13.3001 28.5828 13.4422 28.5092C13.5842 28.4356 13.7066 28.329 13.7989 28.1983C13.8913 28.0677 13.9509 27.9168 13.9728 27.7583C13.9948 27.5998 13.9783 27.4383 13.9249 27.2875L13.9262 27.2837Z" fill="#1C1C1E"/>
</svg>
