<svg width="32" height="32" viewBox="0 0 32 32" fill="none" xmlns="http://www.w3.org/2000/svg">
<path d="M18.8175 22.0875C19.7257 22.6558 20.7696 22.9705 21.8406 22.999C22.9116 23.0274 23.9706 22.7686 24.9078 22.2494C25.8449 21.7302 26.626 20.9695 27.1697 20.0464C27.7135 19.1233 28.0002 18.0714 28 17C28 9 16 3 16 3C16 3 4 9 4 17C3.99981 18.0714 4.28649 19.1233 4.83026 20.0464C5.37403 20.9695 6.15506 21.7302 7.09221 22.2494C8.02936 22.7686 9.08844 23.0274 10.1594 22.999C11.2304 22.9705 12.2743 22.6558 13.1825 22.0875L12 28H20L18.8175 22.0875Z" stroke="#1C1C1E" stroke-width="3" stroke-linecap="round" stroke-linejoin="round"/>
</svg>
