<svg width="32" height="32" viewBox="0 0 32 32" fill="none" xmlns="http://www.w3.org/2000/svg">
<path d="M10.5334 21.4662L3.64718 18.9287C3.4573 18.8586 3.29347 18.732 3.17775 18.5659C3.06204 18.3999 3 18.2023 3 17.9999C3 17.7975 3.06204 17.6 3.17775 17.4339C3.29347 17.2679 3.4573 17.1413 3.64718 17.0712L10.5334 14.5337L13.0709 7.64743C13.141 7.45755 13.2676 7.29371 13.4337 7.178C13.5997 7.06228 13.7973 7.00024 13.9997 7.00024C14.2021 7.00024 14.3996 7.06228 14.5657 7.178C14.7317 7.29371 14.8583 7.45755 14.9284 7.64743L17.4659 14.5337L24.3522 17.0712C24.5421 17.1413 24.7059 17.2679 24.8216 17.4339C24.9373 17.6 24.9994 17.7975 24.9994 17.9999C24.9994 18.2023 24.9373 18.3999 24.8216 18.5659C24.7059 18.732 24.5421 18.8586 24.3522 18.9287L17.4659 21.4662L14.9284 28.3524C14.8583 28.5423 14.7317 28.7061 14.5657 28.8219C14.3996 28.9376 14.2021 28.9996 13.9997 28.9996C13.7973 28.9996 13.5997 28.9376 13.4337 28.8219C13.2676 28.7061 13.141 28.5423 13.0709 28.3524L10.5334 21.4662Z" stroke="#1C1C1E" stroke-width="3" stroke-linecap="round" stroke-linejoin="round"/>
<path d="M22 2V8" stroke="#1C1C1E" stroke-width="3" stroke-linecap="round" stroke-linejoin="round"/>
<path d="M28 9V13" stroke="#1C1C1E" stroke-width="3" stroke-linecap="round" stroke-linejoin="round"/>
<path d="M19 5H25" stroke="#1C1C1E" stroke-width="3" stroke-linecap="round" stroke-linejoin="round"/>
<path d="M26 11H30" stroke="#1C1C1E" stroke-width="3" stroke-linecap="round" stroke-linejoin="round"/>
</svg>
