<svg width="32" height="32" viewBox="0 0 32 32" fill="none" xmlns="http://www.w3.org/2000/svg">
<path d="M25 27V5C25 4.44772 24.5523 4 24 4L8 4C7.44772 4 7 4.44772 7 5V27C7 27.5523 7.44772 28 8 28H24C24.5523 28 25 27.5523 25 27Z" stroke="#1C1C1E" stroke-width="3" stroke-linecap="round" stroke-linejoin="round"/>
<path d="M16 11.5C17.1046 11.5 18 10.6046 18 9.5C18 8.39543 17.1046 7.5 16 7.5C14.8954 7.5 14 8.39543 14 9.5C14 10.6046 14.8954 11.5 16 11.5Z" fill="#1C1C1E"/>
<path d="M16 23C18.2091 23 20 21.2091 20 19C20 16.7909 18.2091 15 16 15C13.7909 15 12 16.7909 12 19C12 21.2091 13.7909 23 16 23Z" stroke="#1C1C1E" stroke-width="3" stroke-linecap="round" stroke-linejoin="round"/>
</svg>
