<svg width="32" height="32" viewBox="0 0 32 32" fill="none" xmlns="http://www.w3.org/2000/svg">
<path d="M6 5L26 27" stroke="#1C1C1E" stroke-width="3" stroke-linecap="round" stroke-linejoin="round"/>
<path d="M10 11V21" stroke="#1C1C1E" stroke-width="3" stroke-linecap="round" stroke-linejoin="round"/>
<path d="M19 19.2999V27.9999L10 20.9999H4C3.73478 20.9999 3.48043 20.8945 3.29289 20.707C3.10536 20.5195 3 20.2651 3 19.9999V11.9999C3 11.7347 3.10536 11.4803 3.29289 11.2928C3.48043 11.1053 3.73478 10.9999 4 10.9999H10L10.8525 10.3374" stroke="#1C1C1E" stroke-width="3" stroke-linecap="round" stroke-linejoin="round"/>
<path d="M14.8096 7.25875L18.9996 4V11.8675" stroke="#1C1C1E" stroke-width="3" stroke-linecap="round" stroke-linejoin="round"/>
<path d="M24 13.3586C24.5416 13.9759 24.8801 14.7448 24.9695 15.561C25.059 16.3773 24.895 17.2013 24.5 17.9211" stroke="#1C1C1E" stroke-width="3" stroke-linecap="round" stroke-linejoin="round"/>
<path d="M27.709 10C29.1425 11.6012 29.9558 13.6626 30.0016 15.8112C30.0475 17.9599 29.3229 20.0541 27.959 21.715" stroke="#1C1C1E" stroke-width="3" stroke-linecap="round" stroke-linejoin="round"/>
</svg>
