<svg width="32" height="32" viewBox="0 0 32 32" fill="none" xmlns="http://www.w3.org/2000/svg">
<path d="M16 19L27 8" stroke="#1C1C1E" stroke-width="3" stroke-linecap="round" stroke-linejoin="round"/>
<path d="M8 19C8 16.8783 8.84285 14.8434 10.3431 13.3431C11.8434 11.8429 13.8783 11 16 11C16.2944 11 16.5886 11.0159 16.8813 11.0475" stroke="#1C1C1E" stroke-width="3" stroke-linecap="round" stroke-linejoin="round"/>
<path d="M28.0242 14.047C29.2379 17.0071 29.3229 20.3097 28.263 23.3283C28.1946 23.5247 28.0667 23.6949 27.8971 23.8152C27.7275 23.9355 27.5246 23.9999 27.3167 23.9995H4.68296C4.47464 23.9986 4.27173 23.9331 4.10224 23.812C3.93275 23.6908 3.80503 23.5201 3.73671 23.3233C3.23689 21.9021 2.98777 20.4048 3.00046 18.8983C3.05546 11.7495 8.96671 5.93579 16.1255 5.99954C17.7839 6.01303 19.4244 6.34443 20.958 6.97579" stroke="#1C1C1E" stroke-width="3" stroke-linecap="round" stroke-linejoin="round"/>
</svg>
