<svg width="32" height="32" viewBox="0 0 32 32" fill="none" xmlns="http://www.w3.org/2000/svg">
<path d="M12.5 6H7C6.44772 6 6 6.44772 6 7V12.5C6 13.0523 6.44772 13.5 7 13.5H12.5C13.0523 13.5 13.5 13.0523 13.5 12.5V7C13.5 6.44772 13.0523 6 12.5 6Z" stroke="#1C1C1E" stroke-width="3" stroke-linecap="round" stroke-linejoin="round"/>
<path d="M25 6H19.5C18.9477 6 18.5 6.44772 18.5 7V12.5C18.5 13.0523 18.9477 13.5 19.5 13.5H25C25.5523 13.5 26 13.0523 26 12.5V7C26 6.44772 25.5523 6 25 6Z" stroke="#1C1C1E" stroke-width="3" stroke-linecap="round" stroke-linejoin="round"/>
<path d="M12.5 18.5H7C6.44772 18.5 6 18.9477 6 19.5V25C6 25.5523 6.44772 26 7 26H12.5C13.0523 26 13.5 25.5523 13.5 25V19.5C13.5 18.9477 13.0523 18.5 12.5 18.5Z" stroke="#1C1C1E" stroke-width="3" stroke-linecap="round" stroke-linejoin="round"/>
<path d="M25 18.5H19.5C18.9477 18.5 18.5 18.9477 18.5 19.5V25C18.5 25.5523 18.9477 26 19.5 26H25C25.5523 26 26 25.5523 26 25V19.5C26 18.9477 25.5523 18.5 25 18.5Z" stroke="#1C1C1E" stroke-width="3" stroke-linecap="round" stroke-linejoin="round"/>
</svg>
