<svg width="32" height="32" viewBox="0 0 32 32" fill="none" xmlns="http://www.w3.org/2000/svg">
<path d="M5 28H27" stroke="#1C1C1E" stroke-width="3" stroke-linecap="round" stroke-linejoin="round"/>
<path d="M13.7899 17L11.9149 6.52751C11.8377 6.09515 11.8563 5.65111 11.9695 5.22674C12.0827 4.80238 12.2877 4.40805 12.5701 4.07161C12.8524 3.73516 13.2051 3.46481 13.6034 3.27965C14.0016 3.09448 14.4357 2.99902 14.8749 3.00001H17.1249C17.5636 2.99994 17.9969 3.09607 18.3944 3.28163C18.7919 3.4672 19.1439 3.73767 19.4255 4.07401C19.7071 4.41034 19.9116 4.80435 20.0244 5.22826C20.1373 5.65217 20.1558 6.09567 20.0787 6.52751L18.2037 17" stroke="#1C1C1E" stroke-width="3" stroke-linecap="round" stroke-linejoin="round"/>
<path d="M26 17H6C5.44772 17 5 17.4477 5 18V22C5 22.5523 5.44772 23 6 23H26C26.5523 23 27 22.5523 27 22V18C27 17.4477 26.5523 17 26 17Z" stroke="#1C1C1E" stroke-width="3" stroke-linecap="round" stroke-linejoin="round"/>
</svg>
