<svg width="32" height="32" viewBox="0 0 32 32" fill="none" xmlns="http://www.w3.org/2000/svg">
<path d="M16 28C22.6274 28 28 22.6274 28 16C28 9.37258 22.6274 4 16 4C9.37258 4 4 9.37258 4 16C4 22.6274 9.37258 28 16 28Z" stroke="#1C1C1E" stroke-width="3" stroke-linecap="round" stroke-linejoin="round"/>
<path d="M16.2989 11.7737L11.5614 17.9224C11.1724 18.4025 10.9751 19.0097 11.0073 19.6267C11.0396 20.2438 11.2992 20.827 11.7361 21.2639C12.1731 21.7009 12.7563 21.9605 13.3734 21.9928C13.9904 22.025 14.5975 21.8276 15.0777 21.4387L21.2264 16.7012" stroke="#1C1C1E" stroke-width="3" stroke-linecap="round" stroke-linejoin="round"/>
<path d="M11.7171 17.7176L5.05957 11.0601" stroke="#1C1C1E" stroke-width="3" stroke-linecap="round" stroke-linejoin="round"/>
<path d="M19 17.5C20.933 17.5 22.5 15.933 22.5 14C22.5 12.067 20.933 10.5 19 10.5C17.067 10.5 15.5 12.067 15.5 14C15.5 15.933 17.067 17.5 19 17.5Z" stroke="#1C1C1E" stroke-width="3" stroke-linecap="round" stroke-linejoin="round"/>
</svg>
