<svg width="32" height="32" viewBox="0 0 32 32" fill="none" xmlns="http://www.w3.org/2000/svg">
<path d="M16 20C17.1046 20 18 19.1046 18 18C18 16.8954 17.1046 16 16 16C14.8954 16 14 16.8954 14 18C14 19.1046 14.8954 20 16 20Z" fill="#1C1C1E"/>
<path d="M16 28C22.6274 28 28 22.6274 28 16C28 9.37258 22.6274 4 16 4C9.37258 4 4 9.37258 4 16C4 22.6274 9.37258 28 16 28Z" stroke="#1C1C1E" stroke-width="3" stroke-linecap="round" stroke-linejoin="round"/>
<path d="M4.2002 18.1937C5.69919 16.5568 7.52237 15.2496 9.55383 14.3553C11.5853 13.4611 13.7806 12.9993 16.0002 12.9993C18.2198 12.9993 20.4151 13.4611 22.4466 14.3553C24.478 15.2496 26.3012 16.5568 27.8002 18.1937" stroke="#1C1C1E" stroke-width="3" stroke-linecap="round" stroke-linejoin="round"/>
<path d="M17.4072 27.9188L19.756 21.6488C19.8275 21.458 19.9557 21.2936 20.1232 21.1777C20.2908 21.0617 20.4897 20.9998 20.6935 21H26.9122" stroke="#1C1C1E" stroke-width="3" stroke-linecap="round" stroke-linejoin="round"/>
<path d="M14.5866 27.9175L12.2429 21.65C12.1716 21.4592 12.0437 21.2947 11.8764 21.1786C11.7091 21.0624 11.5103 21.0001 11.3066 21H5.08789" stroke="#1C1C1E" stroke-width="3" stroke-linecap="round" stroke-linejoin="round"/>
</svg>
