<svg width="32" height="32" viewBox="0 0 32 32" fill="none" xmlns="http://www.w3.org/2000/svg">
<path d="M26 5H6C5.44772 5 5 5.44772 5 6V26C5 26.5523 5.44772 27 6 27H26C26.5523 27 27 26.5523 27 26V6C27 5.44772 26.5523 5 26 5Z" stroke="#1C1C1E" stroke-width="3" stroke-linecap="round" stroke-linejoin="round"/>
<path d="M12.0547 19.5C12.3722 20.9188 14.0172 22 15.9997 22C18.2084 22 19.9997 20.6562 19.9997 19C19.9997 15 12.2222 16.5 12.2222 13C12.2222 11.3438 13.7909 10 15.9997 10C17.6559 10 18.9534 10.75 19.4997 11.8325" stroke="#1C1C1E" stroke-width="3" stroke-linecap="round" stroke-linejoin="round"/>
</svg>
