<svg width="32" height="32" viewBox="0 0 32 32" fill="none" xmlns="http://www.w3.org/2000/svg">
<path d="M12 21C16.9706 21 21 16.9706 21 12C21 7.02944 16.9706 3 12 3C7.02944 3 3 7.02944 3 12C3 16.9706 7.02944 21 12 21Z" stroke="#1C1C1E" stroke-width="3" stroke-linecap="round" stroke-linejoin="round"/>
<path d="M20.9498 11.0498C22.6393 11.2292 24.2436 11.8832 25.577 12.9361C26.9104 13.989 27.9186 15.3979 28.4849 16.9998C29.0512 18.6016 29.1525 20.3311 28.777 21.9881C28.4016 23.6451 27.5648 25.1621 26.3635 26.3635C25.1621 27.5648 23.6451 28.4016 21.9881 28.777C20.3311 29.1525 18.6016 29.0512 16.9998 28.4849C15.3979 27.9186 13.989 26.9104 12.9361 25.577C11.8832 24.2436 11.2292 22.6393 11.0498 20.9498" stroke="#1C1C1E" stroke-width="3" stroke-linecap="round" stroke-linejoin="round"/>
<path d="M20.2051 15.7051L28.2051 23.7051" stroke="#1C1C1E" stroke-width="3" stroke-linecap="round" stroke-linejoin="round"/>
<path d="M15.7051 20.2051L23.7051 28.2051" stroke="#1C1C1E" stroke-width="3" stroke-linecap="round" stroke-linejoin="round"/>
</svg>
