<svg width="32" height="32" viewBox="0 0 32 32" fill="none" xmlns="http://www.w3.org/2000/svg">
<path d="M11 27V30" stroke="#1C1C1E" stroke-width="3" stroke-linecap="round" stroke-linejoin="round"/>
<path d="M21 27V30" stroke="#1C1C1E" stroke-width="3" stroke-linecap="round" stroke-linejoin="round"/>
<path d="M13 12V22" stroke="#1C1C1E" stroke-width="3" stroke-linecap="round" stroke-linejoin="round"/>
<path d="M19 12V22" stroke="#1C1C1E" stroke-width="3" stroke-linecap="round" stroke-linejoin="round"/>
<path d="M24 7H8C7.44772 7 7 7.44772 7 8V26C7 26.5523 7.44772 27 8 27H24C24.5523 27 25 26.5523 25 26V8C25 7.44772 24.5523 7 24 7Z" stroke="#1C1C1E" stroke-width="3" stroke-linecap="round" stroke-linejoin="round"/>
<path d="M20 7V3.5C20 2.96957 19.7893 2.46086 19.4142 2.08579C19.0391 1.71071 18.5304 1.5 18 1.5H14C13.4696 1.5 12.9609 1.71071 12.5858 2.08579C12.2107 2.46086 12 2.96957 12 3.5V7" stroke="#1C1C1E" stroke-width="3" stroke-linecap="round" stroke-linejoin="round"/>
</svg>
