<svg width="32" height="32" viewBox="0 0 32 32" fill="none" xmlns="http://www.w3.org/2000/svg">
<path d="M6.87892 14.2932L4.79295 16.3792C4.40194 16.7702 4.40194 17.4042 4.79295 17.7952L14.2037 27.2059C14.5947 27.5969 15.2286 27.5969 15.6196 27.2059L17.7056 25.1199C18.0966 24.7289 18.0966 24.095 17.7056 23.704L8.2949 14.2932C7.90389 13.9022 7.26993 13.9022 6.87892 14.2932Z" stroke="#1C1C1E" stroke-width="3" stroke-linecap="round" stroke-linejoin="round"/>
<path d="M20 12L13 19" stroke="#1C1C1E" stroke-width="3" stroke-linecap="round" stroke-linejoin="round"/>
<path d="M10.0547 16.0537L18.9997 5H26.9997V13L15.9459 21.945" stroke="#1C1C1E" stroke-width="3" stroke-linecap="round" stroke-linejoin="round"/>
<path d="M7.74981 20.75L4.04231 24.4562C3.94933 24.5491 3.87557 24.6594 3.82525 24.7808C3.77493 24.9022 3.74902 25.0323 3.74902 25.1637C3.74902 25.2952 3.77493 25.4253 3.82525 25.5467C3.87557 25.6681 3.94933 25.7784 4.04231 25.8713L6.12481 27.9575C6.21768 28.0505 6.32797 28.1242 6.44937 28.1746C6.57077 28.2249 6.70089 28.2508 6.83231 28.2508C6.96373 28.2508 7.09385 28.2249 7.21525 28.1746C7.33665 28.1242 7.44694 28.0505 7.53981 27.9575L11.2498 24.25" stroke="#1C1C1E" stroke-width="3" stroke-linecap="round" stroke-linejoin="round"/>
</svg>
