<svg width="32" height="32" viewBox="0 0 32 32" fill="none" xmlns="http://www.w3.org/2000/svg">
<path d="M1.5 21L4.28625 11.7125C4.34836 11.5056 4.47582 11.3243 4.64956 11.1959C4.82329 11.0674 5.03395 10.9987 5.25 11H12.7625C12.9775 11.0001 13.1867 11.0694 13.3592 11.1978C13.5317 11.3261 13.6582 11.5066 13.72 11.7125L16.5 21" stroke="#1C1C1E" stroke-width="3" stroke-linecap="round" stroke-linejoin="round"/>
<path d="M18.5 11H19.7563C19.9712 11.0001 20.1805 11.0694 20.3529 11.1977C20.5254 11.3261 20.6519 11.5066 20.7138 11.7125L23.5 21" stroke="#1C1C1E" stroke-width="3" stroke-linecap="round" stroke-linejoin="round"/>
<path d="M25.5 11H26.7563C26.9712 11.0001 27.1805 11.0694 27.3529 11.1977C27.5254 11.3261 27.6519 11.5066 27.7138 11.7125L30.5 21" stroke="#1C1C1E" stroke-width="3" stroke-linecap="round" stroke-linejoin="round"/>
<path d="M1.5 21H30.5" stroke="#1C1C1E" stroke-width="3" stroke-linecap="round" stroke-linejoin="round"/>
</svg>
