<svg width="32" height="32" viewBox="0 0 32 32" fill="none" xmlns="http://www.w3.org/2000/svg">
<path d="M5.2925 17.2925C5.10532 17.1051 5.00012 16.8511 5 16.5863V5H16.5863C16.8511 5.00012 17.1051 5.10532 17.2925 5.2925L29.7075 17.7075C29.8949 17.895 30.0002 18.1493 30.0002 18.4144C30.0002 18.6795 29.8949 18.9337 29.7075 19.1213L19.125 29.7075C18.9375 29.8949 18.6832 30.0002 18.4181 30.0002C18.153 30.0002 17.8988 29.8949 17.7113 29.7075L5.2925 17.2925Z" stroke="#1C1C1E" stroke-width="3" stroke-linecap="round" stroke-linejoin="round"/>
<path d="M11 13C12.1046 13 13 12.1046 13 11C13 9.89543 12.1046 9 11 9C9.89543 9 9 9.89543 9 11C9 12.1046 9.89543 13 11 13Z" fill="#1C1C1E"/>
</svg>
