<svg width="32" height="32" viewBox="0 0 32 32" fill="none" xmlns="http://www.w3.org/2000/svg">
<path d="M16 16L28 4" stroke="#1C1C1E" stroke-width="3" stroke-linecap="round" stroke-linejoin="round"/>
<path d="M24.4851 7.51499C22.3929 5.42508 19.6022 4.18207 16.6492 4.02479C13.6962 3.86752 10.7892 4.80708 8.48689 6.66294C6.18455 8.5188 4.64926 11.16 4.17604 14.0791C3.70281 16.9982 4.32502 19.9892 5.92312 22.4774C7.52122 24.9655 9.98246 26.7754 12.8339 27.5591C15.6854 28.3428 18.7259 28.0451 21.3711 26.7232C24.0164 25.4013 26.0799 23.1485 27.1651 20.3976C28.2502 17.6467 28.2805 14.5919 27.2501 11.82" stroke="#1C1C1E" stroke-width="3" stroke-linecap="round" stroke-linejoin="round"/>
<path d="M20.2422 11.7575C19.2968 10.8124 18.0629 10.21 16.7363 10.0459C15.4096 9.8819 14.0662 10.1656 12.9191 10.852C11.772 11.5384 10.887 12.5882 10.4045 13.8349C9.92199 15.0815 9.86961 16.4536 10.2557 17.7334C10.6417 19.0132 11.4441 20.1274 12.5355 20.8993C13.6269 21.6712 14.9449 22.0565 16.2802 21.994C17.6155 21.9316 18.8917 21.4251 19.9063 20.5548C20.921 19.6845 21.6159 18.5002 21.8809 17.19" stroke="#1C1C1E" stroke-width="3" stroke-linecap="round" stroke-linejoin="round"/>
</svg>
