<svg width="32" height="32" viewBox="0 0 32 32" fill="none" xmlns="http://www.w3.org/2000/svg">
<path d="M27 9H5C4.44772 9 4 9.44772 4 10V25C4 25.5523 4.44772 26 5 26H27C27.5523 26 28 25.5523 28 25V10C28 9.44772 27.5523 9 27 9Z" stroke="#1C1C1E" stroke-width="3" stroke-linecap="round" stroke-linejoin="round"/>
<path d="M10 3L16 9L22 3" stroke="#1C1C1E" stroke-width="3" stroke-linecap="round" stroke-linejoin="round"/>
<path d="M23 16.5C24.1046 16.5 25 15.6046 25 14.5C25 13.3954 24.1046 12.5 23 12.5C21.8954 12.5 21 13.3954 21 14.5C21 15.6046 21.8954 16.5 23 16.5Z" fill="#1C1C1E"/>
<path d="M23 22.5C24.1046 22.5 25 21.6046 25 20.5C25 19.3954 24.1046 18.5 23 18.5C21.8954 18.5 21 19.3954 21 20.5C21 21.6046 21.8954 22.5 23 22.5Z" fill="#1C1C1E"/>
<path d="M17.5 26V9" stroke="#1C1C1E" stroke-width="3" stroke-linecap="round" stroke-linejoin="round"/>
</svg>
