<svg width="32" height="32" viewBox="0 0 32 32" fill="none" xmlns="http://www.w3.org/2000/svg">
<path d="M30 26.0001H24L29.3962 18.8051C29.6564 18.4596 29.8387 18.0619 29.9307 17.6393C30.0227 17.2167 30.0223 16.7791 29.9294 16.3567C29.8365 15.9343 29.6534 15.537 29.3926 15.1919C29.1318 14.8469 28.7994 14.5624 28.4184 14.3578C28.0373 14.1532 27.6165 14.0334 27.1848 14.0067C26.7531 13.98 26.3208 14.0469 25.9174 14.2029C25.514 14.3589 25.1491 14.6003 24.8477 14.9105C24.5463 15.2207 24.3155 15.5924 24.1712 16.0001" stroke="#1C1C1E" stroke-width="3" stroke-linecap="round" stroke-linejoin="round"/>
<path d="M5 7L18 22" stroke="#1C1C1E" stroke-width="3" stroke-linecap="round" stroke-linejoin="round"/>
<path d="M18 7L5 22" stroke="#1C1C1E" stroke-width="3" stroke-linecap="round" stroke-linejoin="round"/>
</svg>
