<svg width="32" height="32" viewBox="0 0 32 32" fill="none" xmlns="http://www.w3.org/2000/svg">
<path d="M13.5 23.5V7" stroke="#1C1C1E" stroke-width="3" stroke-linecap="round" stroke-linejoin="round"/>
<path d="M8.5 19.3475V7C8.5 5.67392 9.02679 4.40215 9.96447 3.46447C10.9022 2.52678 12.1739 2 13.5 2C14.8261 2 16.0979 2.52678 17.0355 3.46447C17.9732 4.40215 18.5 5.67392 18.5 7V19.3463C19.2889 20.2959 19.7909 21.4506 19.9475 22.6752C20.1041 23.8998 19.9087 25.1436 19.3842 26.2612C18.8596 27.3788 18.0277 28.3239 16.9856 28.9859C15.9436 29.648 14.7346 29.9996 13.5 29.9996C12.2654 29.9996 11.0564 29.648 10.0144 28.9859C8.97233 28.3239 8.14038 27.3788 7.61585 26.2612C7.09132 25.1436 6.89592 23.8998 7.05249 22.6752C7.20907 21.4506 7.71116 20.2959 8.5 19.3463V19.3475Z" stroke="#1C1C1E" stroke-width="3" stroke-linecap="round" stroke-linejoin="round"/>
<path d="M13.5 26.5C15.1569 26.5 16.5 25.1569 16.5 23.5C16.5 21.8431 15.1569 20.5 13.5 20.5C11.8431 20.5 10.5 21.8431 10.5 23.5C10.5 25.1569 11.8431 26.5 13.5 26.5Z" fill="#1C1C1E"/>
<path d="M23 9.55003C25.8637 7.68503 27.1363 11.315 30 9.45003" stroke="#1C1C1E" stroke-width="3" stroke-linecap="round" stroke-linejoin="round"/>
<path d="M23 14.55C25.8637 12.685 27.1363 16.315 30 14.45" stroke="#1C1C1E" stroke-width="3" stroke-linecap="round" stroke-linejoin="round"/>
</svg>
