<svg width="32" height="32" viewBox="0 0 32 32" fill="none" xmlns="http://www.w3.org/2000/svg">
<path d="M16 23.5V11.5" stroke="#1C1C1E" stroke-width="3" stroke-linecap="round" stroke-linejoin="round"/>
<path d="M11 19.3475V7C11 5.67392 11.5268 4.40215 12.4645 3.46447C13.4022 2.52678 14.6739 2 16 2C17.3261 2 18.5979 2.52678 19.5355 3.46447C20.4732 4.40215 21 5.67392 21 7V19.3463C21.7889 20.2959 22.2909 21.4506 22.4475 22.6752C22.6041 23.8998 22.4087 25.1436 21.8842 26.2612C21.3596 27.3788 20.5277 28.3239 19.4856 28.9859C18.4436 29.648 17.2346 29.9996 16 29.9996C14.7654 29.9996 13.5564 29.648 12.5144 28.9859C11.4723 28.3239 10.6404 27.3788 10.1159 26.2612C9.59132 25.1436 9.39592 23.8998 9.55249 22.6752C9.70907 21.4506 10.2112 20.2959 11 19.3463V19.3475Z" stroke="#1C1C1E" stroke-width="3" stroke-linecap="round" stroke-linejoin="round"/>
<path d="M16 26.5C17.6569 26.5 19 25.1569 19 23.5C19 21.8431 17.6569 20.5 16 20.5C14.3431 20.5 13 21.8431 13 23.5C13 25.1569 14.3431 26.5 16 26.5Z" fill="#1C1C1E"/>
</svg>
