<svg width="32" height="32" viewBox="0 0 32 32" fill="none" xmlns="http://www.w3.org/2000/svg">
<path d="M12.5 7V25" stroke="#1C1C1E" stroke-width="3" stroke-linecap="round" stroke-linejoin="round"/>
<path d="M3 20C4.06087 20 5.07828 19.5786 5.82843 18.8284C6.57857 18.0783 7 17.0609 7 16C7 14.9391 6.57857 13.9217 5.82843 13.1716C5.07828 12.4214 4.06087 12 3 12V8C3 7.73478 3.10536 7.48043 3.29289 7.29289C3.48043 7.10536 3.73478 7 4 7H28C28.2652 7 28.5196 7.10536 28.7071 7.29289C28.8946 7.48043 29 7.73478 29 8V12C27.9391 12 26.9217 12.4214 26.1716 13.1716C25.4214 13.9217 25 14.9391 25 16C25 17.0609 25.4214 18.0783 26.1716 18.8284C26.9217 19.5786 27.9391 20 29 20V24C29 24.2652 28.8946 24.5196 28.7071 24.7071C28.5196 24.8946 28.2652 25 28 25H4C3.73478 25 3.48043 24.8946 3.29289 24.7071C3.10536 24.5196 3 24.2652 3 24V20Z" stroke="#1C1C1E" stroke-width="3" stroke-linecap="round" stroke-linejoin="round"/>
</svg>
