<svg width="32" height="32" viewBox="0 0 32 32" fill="none" xmlns="http://www.w3.org/2000/svg">
<path d="M22 7.5H10C7.79086 7.5 6 9.29086 6 11.5V25C6 27.2091 7.79086 29 10 29H22C24.2091 29 26 27.2091 26 25V11.5C26 9.29086 24.2091 7.5 22 7.5Z" stroke="#1C1C1E" stroke-width="3" stroke-linecap="round" stroke-linejoin="round"/>
<path d="M10 7.5V4C10 3.73478 10.1054 3.48043 10.2929 3.29289C10.4804 3.10536 10.7348 3 11 3H21C21.2652 3 21.5196 3.10536 21.7071 3.29289C21.8946 3.48043 22 3.73478 22 4V7.5" stroke="#1C1C1E" stroke-width="3" stroke-linecap="round" stroke-linejoin="round"/>
<path d="M16 7.5V3" stroke="#1C1C1E" stroke-width="3" stroke-linecap="round" stroke-linejoin="round"/>
<path d="M16 13.5V12" stroke="#1C1C1E" stroke-width="3" stroke-linecap="round" stroke-linejoin="round"/>
<path d="M16 24.5V22.5" stroke="#1C1C1E" stroke-width="3" stroke-linecap="round" stroke-linejoin="round"/>
<path d="M13.5 22.5H17.25C17.8467 22.5 18.419 22.2629 18.841 21.841C19.2629 21.419 19.5 20.8467 19.5 20.25C19.5 19.6533 19.2629 19.081 18.841 18.659C18.419 18.2371 17.8467 18 17.25 18H14.75C14.1533 18 13.581 17.7629 13.159 17.341C12.7371 16.919 12.5 16.3467 12.5 15.75C12.5 15.1533 12.7371 14.581 13.159 14.159C13.581 13.7371 14.1533 13.5 14.75 13.5H18.5" stroke="#1C1C1E" stroke-width="3" stroke-linecap="round" stroke-linejoin="round"/>
</svg>
