<svg width="32" height="32" viewBox="0 0 32 32" fill="none" xmlns="http://www.w3.org/2000/svg">
<path d="M8 17C9.10457 17 10 16.1046 10 15C10 13.8954 9.10457 13 8 13C6.89543 13 6 13.8954 6 15C6 16.1046 6.89543 17 8 17Z" fill="#1C1C1E"/>
<path d="M8 25C10.7614 25 13 20.5228 13 15C13 9.47715 10.7614 5 8 5C5.23858 5 3 9.47715 3 15C3 20.5228 5.23858 25 8 25Z" stroke="#1C1C1E" stroke-width="3" stroke-linecap="round" stroke-linejoin="round"/>
<path d="M13 15V26C13 26.2652 13.1054 26.5196 13.2929 26.7071C13.4804 26.8946 13.7348 27 14 27H28C28.2652 27 28.5196 26.8946 28.7071 26.7071C28.8946 26.5196 29 26.2652 29 26V15C29 9.4775 26.7613 5 24 5H8" stroke="#1C1C1E" stroke-width="3" stroke-linecap="round" stroke-linejoin="round"/>
<path d="M13 15H15.5" stroke="#1C1C1E" stroke-width="3" stroke-linecap="round" stroke-linejoin="round"/>
<path d="M20.5 15H21.5" stroke="#1C1C1E" stroke-width="3" stroke-linecap="round" stroke-linejoin="round"/>
<path d="M26.5 15H29" stroke="#1C1C1E" stroke-width="3" stroke-linecap="round" stroke-linejoin="round"/>
</svg>
