<svg width="32" height="32" viewBox="0 0 32 32" fill="none" xmlns="http://www.w3.org/2000/svg">
<path d="M8 13.5V5C8 4.73478 8.10536 4.48043 8.29289 4.29289C8.48043 4.10536 8.73478 4 9 4H23C23.2652 4 23.5196 4.10536 23.7071 4.29289C23.8946 4.48043 24 4.73478 24 5V13.5" stroke="#1C1C1E" stroke-width="3" stroke-linecap="round" stroke-linejoin="round"/>
<path d="M12.5 8.5H14.5" stroke="#1C1C1E" stroke-width="3" stroke-linecap="round" stroke-linejoin="round"/>
<path d="M27 13.5C27 16.4174 25.8411 19.2153 23.7782 21.2782C21.7153 23.3411 18.9174 24.5 16 24.5C13.0826 24.5 10.2847 23.3411 8.22183 21.2782C6.15893 19.2153 5 16.4174 5 13.5H27Z" stroke="#1C1C1E" stroke-width="3" stroke-linecap="round" stroke-linejoin="round"/>
<path d="M11.6249 23.5928L11.0149 27.859C10.9947 28.0004 11.0051 28.1445 11.0453 28.2816C11.0854 28.4187 11.1545 28.5455 11.2479 28.6537C11.3412 28.7618 11.4566 28.8487 11.5863 28.9085C11.716 28.9683 11.8571 28.9996 11.9999 29.0003H19.9999C20.1432 29.0003 20.2848 28.9695 20.4151 28.91C20.5454 28.8506 20.6615 28.7638 20.7553 28.6556C20.8492 28.5473 20.9187 28.4202 20.9592 28.2828C20.9997 28.1454 21.0101 28.0008 20.9899 27.859L20.3749 23.594" stroke="#1C1C1E" stroke-width="3" stroke-linecap="round" stroke-linejoin="round"/>
</svg>
