<svg width="32" height="32" viewBox="0 0 32 32" fill="none" xmlns="http://www.w3.org/2000/svg">
<path d="M7 23H22" stroke="#1C1C1E" stroke-width="3" stroke-linecap="round" stroke-linejoin="round"/>
<path d="M27 18.5004V6.56042C27 5.20417 25.9462 4.05042 24.5912 4.00167C24.2555 3.9894 23.9206 4.04496 23.6068 4.16501C23.2929 4.28507 23.0065 4.46716 22.7646 4.70041C22.5228 4.93365 22.3304 5.21327 22.199 5.52254C22.0676 5.83181 21.9999 6.1644 22 6.50042V27.0004C22 27.2656 21.8946 27.52 21.7071 27.7075C21.5196 27.8951 21.2652 28.0004 21 28.0004H8C7.73478 28.0004 7.48043 27.8951 7.29289 27.7075C7.10536 27.52 7 27.2656 7 27.0004V6.00042C7 5.46998 7.21071 4.96128 7.58579 4.5862C7.96086 4.21113 8.46957 4.00042 9 4.00042H24.5" stroke="#1C1C1E" stroke-width="3" stroke-linecap="round" stroke-linejoin="round"/>
</svg>
