<svg width="32" height="32" viewBox="0 0 32 32" fill="none" xmlns="http://www.w3.org/2000/svg">
<path d="M26.5 27C28.433 27 30 25.433 30 23.5C30 21.567 28.433 20 26.5 20C24.567 20 23 21.567 23 23.5C23 25.433 24.567 27 26.5 27Z" stroke="#1C1C1E" stroke-width="3" stroke-linecap="round" stroke-linejoin="round"/>
<path d="M8 27C10.7614 27 13 24.7614 13 22C13 19.2386 10.7614 17 8 17C5.23858 17 3 19.2386 3 22C3 24.7614 5.23858 27 8 27Z" stroke="#1C1C1E" stroke-width="3" stroke-linecap="round" stroke-linejoin="round"/>
<path d="M8 24C9.10457 24 10 23.1046 10 22C10 20.8954 9.10457 20 8 20C6.89543 20 6 20.8954 6 22C6 23.1046 6.89543 24 8 24Z" fill="#1C1C1E"/>
<path d="M29 21V16.75C28.9999 16.535 28.9306 16.3258 28.8023 16.1533C28.6739 15.9808 28.4934 15.8543 28.2875 15.7925L18 13V6H7V12" stroke="#1C1C1E" stroke-width="3" stroke-linecap="round" stroke-linejoin="round"/>
<path d="M5 6H7" stroke="#1C1C1E" stroke-width="3" stroke-linecap="round" stroke-linejoin="round"/>
<path d="M18 6H20" stroke="#1C1C1E" stroke-width="3" stroke-linecap="round" stroke-linejoin="round"/>
<path d="M5 12H8.5C11.0196 12 13.4359 13.0009 15.2175 14.7825C16.9991 16.5641 18 18.9804 18 21.5V23H23.035" stroke="#1C1C1E" stroke-width="3" stroke-linecap="round" stroke-linejoin="round"/>
<path d="M18 13V23" stroke="#1C1C1E" stroke-width="3" stroke-linecap="round" stroke-linejoin="round"/>
<path d="M23 14.3538V9.5" stroke="#1C1C1E" stroke-width="3" stroke-linecap="round" stroke-linejoin="round"/>
</svg>
