<svg width="32" height="32" viewBox="0 0 32 32" fill="none" xmlns="http://www.w3.org/2000/svg">
<path d="M23 4H9C8.44772 4 8 4.44772 8 5V27C8 27.5523 8.44772 28 9 28H23C23.5523 28 24 27.5523 24 27V5C24 4.44772 23.5523 4 23 4Z" stroke="#1C1C1E" stroke-width="3" stroke-linecap="round" stroke-linejoin="round"/>
<path d="M24 9H27" stroke="#1C1C1E" stroke-width="3" stroke-linecap="round" stroke-linejoin="round"/>
<path d="M24 19H27" stroke="#1C1C1E" stroke-width="3" stroke-linecap="round" stroke-linejoin="round"/>
<path d="M5 9H8" stroke="#1C1C1E" stroke-width="3" stroke-linecap="round" stroke-linejoin="round"/>
<path d="M5 19H8" stroke="#1C1C1E" stroke-width="3" stroke-linecap="round" stroke-linejoin="round"/>
<path d="M16 13.5C17.3807 13.5 18.5 12.3807 18.5 11C18.5 9.61929 17.3807 8.5 16 8.5C14.6193 8.5 13.5 9.61929 13.5 11C13.5 12.3807 14.6193 13.5 16 13.5Z" stroke="#1C1C1E" stroke-width="3" stroke-linecap="round" stroke-linejoin="round"/>
<path d="M16 23.5C17.3807 23.5 18.5 22.3807 18.5 21C18.5 19.6193 17.3807 18.5 16 18.5C14.6193 18.5 13.5 19.6193 13.5 21C13.5 22.3807 14.6193 23.5 16 23.5Z" stroke="#1C1C1E" stroke-width="3" stroke-linecap="round" stroke-linejoin="round"/>
</svg>
