<svg width="32" height="32" viewBox="0 0 32 32" fill="none" xmlns="http://www.w3.org/2000/svg">
<path d="M26 5H6C5.44772 5 5 5.44772 5 6V26C5 26.5523 5.44772 27 6 27H26C26.5523 27 27 26.5523 27 26V6C27 5.44772 26.5523 5 26 5Z" stroke="#1C1C1E" stroke-width="3" stroke-linecap="round" stroke-linejoin="round"/>
<path d="M5 19.5H9.58625C9.85111 19.5001 10.1051 19.6053 10.2925 19.7925L12.7075 22.2075C12.8949 22.3947 13.1489 22.4999 13.4137 22.5H18.5863C18.8511 22.4999 19.1051 22.3947 19.2925 22.2075L21.7075 19.7925C21.8949 19.6053 22.1489 19.5001 22.4137 19.5H27" stroke="#1C1C1E" stroke-width="3" stroke-linecap="round" stroke-linejoin="round"/>
</svg>
