<svg width="32" height="32" viewBox="0 0 32 32" fill="none" xmlns="http://www.w3.org/2000/svg">
<path d="M16.0001 13C15.9895 10.8981 16.788 8.87281 18.2301 7.34372C18.9187 6.60434 19.7522 6.01468 20.6787 5.6115C21.6052 5.20832 22.6047 5.00024 23.6151 5.00024C24.6255 5.00024 25.6251 5.20832 26.5515 5.6115C27.478 6.01468 28.3115 6.60434 29.0001 7.34372L16.0001 13Z" stroke="#1C1C1E" stroke-width="3" stroke-linecap="round" stroke-linejoin="round"/>
<path d="M16 13.065C17.8369 12.0114 20.0156 11.7257 22.062 12.2702C24.1085 12.8147 25.8571 14.1453 26.9275 15.9725C27.4535 16.8741 27.7949 17.8713 27.9321 18.9061C28.0692 19.9408 27.9992 20.9925 27.7262 22L16 13.065Z" stroke="#1C1C1E" stroke-width="3" stroke-linecap="round" stroke-linejoin="round"/>
<path d="M16 13C16.0106 10.8981 15.2121 8.87281 13.77 7.34372C13.0814 6.60434 12.2479 6.01468 11.3214 5.6115C10.395 5.20832 9.39539 5.00024 8.385 5.00024C7.37461 5.00024 6.37505 5.20832 5.44859 5.6115C4.52213 6.01468 3.68862 6.60434 3 7.34372L16 13Z" stroke="#1C1C1E" stroke-width="3" stroke-linecap="round" stroke-linejoin="round"/>
<path d="M16.0003 13.065C14.1634 12.0114 11.9847 11.7257 9.93827 12.2702C7.89182 12.8147 6.14319 14.1453 5.0728 15.9725C4.54684 16.8741 4.20537 17.8713 4.06825 18.9061C3.93112 19.9408 4.00108 20.9925 4.27405 22L16.0003 13.065Z" stroke="#1C1C1E" stroke-width="3" stroke-linecap="round" stroke-linejoin="round"/>
<path d="M16 13.065V28" stroke="#1C1C1E" stroke-width="3" stroke-linecap="round" stroke-linejoin="round"/>
</svg>
