<svg width="32" height="32" viewBox="0 0 32 32" fill="none" xmlns="http://www.w3.org/2000/svg">
<path d="M12 3H8C7.44772 3 7 3.44772 7 4V8C7 8.55228 7.44772 9 8 9H12C12.5523 9 13 8.55228 13 8V4C13 3.44772 12.5523 3 12 3Z" stroke="#1C1C1E" stroke-width="3" stroke-linecap="round" stroke-linejoin="round"/>
<path d="M26 12H22C21.4477 12 21 12.4477 21 13V17C21 17.5523 21.4477 18 22 18H26C26.5523 18 27 17.5523 27 17V13C27 12.4477 26.5523 12 26 12Z" stroke="#1C1C1E" stroke-width="3" stroke-linecap="round" stroke-linejoin="round"/>
<path d="M26 23H22C21.4477 23 21 23.4477 21 24V28C21 28.5523 21.4477 29 22 29H26C26.5523 29 27 28.5523 27 28V24C27 23.4477 26.5523 23 26 23Z" stroke="#1C1C1E" stroke-width="3" stroke-linecap="round" stroke-linejoin="round"/>
<path d="M10 15H21" stroke="#1C1C1E" stroke-width="3" stroke-linecap="round" stroke-linejoin="round"/>
<path d="M10 9V24C10 24.5304 10.2107 25.0391 10.5858 25.4142C10.9609 25.7893 11.4696 26 12 26H21" stroke="#1C1C1E" stroke-width="3" stroke-linecap="round" stroke-linejoin="round"/>
</svg>
