<svg width="32" height="32" viewBox="0 0 32 32" fill="none" xmlns="http://www.w3.org/2000/svg">
<path d="M9 30.5C10.3807 30.5 11.5 29.3807 11.5 28C11.5 26.6193 10.3807 25.5 9 25.5C7.61929 25.5 6.5 26.6193 6.5 28C6.5 29.3807 7.61929 30.5 9 30.5Z" fill="#1C1C1E"/>
<path d="M27 30.5C28.3807 30.5 29.5 29.3807 29.5 28C29.5 26.6193 28.3807 25.5 27 25.5C25.6193 25.5 24.5 26.6193 24.5 28C24.5 29.3807 25.6193 30.5 27 30.5Z" fill="#1C1C1E"/>
<path d="M3 6L5.7075 8.7075C5.89468 8.89489 5.99988 9.14889 6 9.41375V22.5" stroke="#1C1C1E" stroke-width="3" stroke-linecap="round" stroke-linejoin="round"/>
<path d="M4 22.5H30" stroke="#1C1C1E" stroke-width="3" stroke-linecap="round" stroke-linejoin="round"/>
</svg>
