<svg width="32" height="32" viewBox="0 0 32 32" fill="none" xmlns="http://www.w3.org/2000/svg">
<path d="M23 10H27.8225C28.0218 9.99991 28.2165 10.0594 28.3818 10.1707C28.5471 10.2821 28.6753 10.4403 28.75 10.625L30.5 15" stroke="#1C1C1E" stroke-width="3" stroke-linecap="round" stroke-linejoin="round"/>
<path d="M3 16H23" stroke="#1C1C1E" stroke-width="3" stroke-linecap="round" stroke-linejoin="round"/>
<path d="M24 27C25.6569 27 27 25.6569 27 24C27 22.3431 25.6569 21 24 21C22.3431 21 21 22.3431 21 24C21 25.6569 22.3431 27 24 27Z" stroke="#1C1C1E" stroke-width="3" stroke-linecap="round" stroke-linejoin="round"/>
<path d="M10 27C11.6569 27 13 25.6569 13 24C13 22.3431 11.6569 21 10 21C8.34315 21 7 22.3431 7 24C7 25.6569 8.34315 27 10 27Z" stroke="#1C1C1E" stroke-width="3" stroke-linecap="round" stroke-linejoin="round"/>
<path d="M21 24H13" stroke="#1C1C1E" stroke-width="3" stroke-linecap="round" stroke-linejoin="round"/>
<path d="M23 15H30.5V23C30.5 23.2652 30.3946 23.5196 30.2071 23.7071C30.0196 23.8946 29.7652 24 29.5 24H27" stroke="#1C1C1E" stroke-width="3" stroke-linecap="round" stroke-linejoin="round"/>
<path d="M7 24H4C3.73478 24 3.48043 23.8946 3.29289 23.7071C3.10536 23.5196 3 23.2652 3 23V9C3 8.73478 3.10536 8.48043 3.29289 8.29289C3.48043 8.10536 3.73478 8 4 8H23V21.1712" stroke="#1C1C1E" stroke-width="3" stroke-linecap="round" stroke-linejoin="round"/>
</svg>
