<svg width="33" height="32" viewBox="0 0 33 32" fill="none" xmlns="http://www.w3.org/2000/svg">
<path d="M24.001 15H27.291C27.4741 14.9997 27.6534 14.9477 27.8082 14.85C27.963 14.7522 28.087 14.6127 28.166 14.4475L30.4035 9.84625C30.515 9.61829 30.537 9.35685 30.4653 9.11345C30.3936 8.87004 30.2333 8.66233 30.016 8.53125L24.001 5" stroke="#1C1C1E" stroke-width="3" stroke-linecap="round" stroke-linejoin="round"/>
<path d="M8.00069 15H4.71069C4.5276 14.9997 4.3483 14.9477 4.19348 14.85C4.03867 14.7522 3.91463 14.6127 3.83569 14.4475L1.60319 9.84625C1.49172 9.61829 1.46967 9.35685 1.54139 9.11345C1.61312 8.87004 1.77342 8.66233 1.99069 8.53125L8.00069 5" stroke="#1C1C1E" stroke-width="3" stroke-linecap="round" stroke-linejoin="round"/>
<path d="M20.001 5C20.001 6.06087 19.5795 7.07828 18.8294 7.82843C18.0793 8.57857 17.0618 9 16.001 9C14.9401 9 13.9227 8.57857 13.1725 7.82843C12.4224 7.07828 12.001 6.06087 12.001 5H8.00098V26C8.00098 26.2652 8.10633 26.5196 8.29387 26.7071C8.48141 26.8946 8.73576 27 9.00098 27H23.001C23.2662 27 23.5205 26.8946 23.7081 26.7071C23.8956 26.5196 24.001 26.2652 24.001 26V5H20.001Z" stroke="#1C1C1E" stroke-width="3" stroke-linecap="round" stroke-linejoin="round"/>
</svg>
