<svg width="32" height="32" viewBox="0 0 32 32" fill="none" xmlns="http://www.w3.org/2000/svg">
<path d="M22 25C22 25.7956 21.6839 26.5587 21.1213 27.1213C20.5587 27.6839 19.7956 28 19 28C18.2044 28 17.4413 27.6839 16.8787 27.1213C16.3161 26.5587 16 25.7956 16 25V17" stroke="#1C1C1E" stroke-width="3" stroke-linecap="round" stroke-linejoin="round"/>
<path d="M4.00004 17C3.86091 17.0005 3.72319 16.9721 3.59569 16.9163C3.46819 16.8606 3.35373 16.7789 3.25961 16.6765C3.16549 16.574 3.09379 16.453 3.04909 16.3212C3.0044 16.1895 2.98769 16.0498 3.00004 15.9112C3.2854 12.6612 4.77813 9.63604 7.18387 7.43228C9.58961 5.22851 12.7338 4.0061 15.9963 4.0061C19.2588 4.0061 22.403 5.22851 24.8087 7.43228C27.2145 9.63604 28.7072 12.6612 28.9925 15.9112C29.0049 16.0498 28.9882 16.1895 28.9435 16.3212C28.8988 16.453 28.8271 16.574 28.733 16.6765C28.6389 16.7789 28.5244 16.8606 28.3969 16.9163C28.2694 16.9721 28.1317 17.0005 27.9925 17H4.00004Z" stroke="#1C1C1E" stroke-width="3" stroke-linecap="round" stroke-linejoin="round"/>
</svg>
