<svg width="32" height="32" viewBox="0 0 32 32" fill="none" xmlns="http://www.w3.org/2000/svg">
<path d="M16.5 11C18.1569 11 19.5 9.65685 19.5 8C19.5 6.34315 18.1569 5 16.5 5C14.8431 5 13.5 6.34315 13.5 8C13.5 9.65685 14.8431 11 16.5 11Z" stroke="#1C1C1E" stroke-width="3" stroke-linecap="round" stroke-linejoin="round"/>
<path d="M1.5 16H24.5" stroke="#1C1C1E" stroke-width="3" stroke-linecap="round" stroke-linejoin="round"/>
<path d="M24.5 11.5V20.5L30.5 16L24.5 11.5Z" stroke="#1C1C1E" stroke-width="3" stroke-linecap="round" stroke-linejoin="round"/>
<path d="M18.5 21H14.5C13.9477 21 13.5 21.4477 13.5 22V26C13.5 26.5523 13.9477 27 14.5 27H18.5C19.0523 27 19.5 26.5523 19.5 26V22C19.5 21.4477 19.0523 21 18.5 21Z" stroke="#1C1C1E" stroke-width="3" stroke-linecap="round" stroke-linejoin="round"/>
<path d="M13.5 8H9C8.73478 8 8.48043 8.10536 8.29289 8.29289C8.10536 8.48043 8 8.73478 8 9V23C8 23.2652 8.10536 23.5196 8.29289 23.7071C8.48043 23.8946 8.73478 24 9 24H13.5" stroke="#1C1C1E" stroke-width="3" stroke-linecap="round" stroke-linejoin="round"/>
</svg>
