<svg width="32" height="32" viewBox="0 0 32 32" fill="none" xmlns="http://www.w3.org/2000/svg">
<path d="M10 25C11.933 25 13.5 23.433 13.5 21.5C13.5 19.567 11.933 18 10 18C8.067 18 6.5 19.567 6.5 21.5C6.5 23.433 8.067 25 10 25Z" stroke="#1C1C1E" stroke-width="3" stroke-linecap="round" stroke-linejoin="round"/>
<path d="M10 11C11.933 11 13.5 9.433 13.5 7.5C13.5 5.567 11.933 4 10 4C8.067 4 6.5 5.567 6.5 7.5C6.5 9.433 8.067 11 10 11Z" stroke="#1C1C1E" stroke-width="3" stroke-linecap="round" stroke-linejoin="round"/>
<path d="M22 25C23.933 25 25.5 23.433 25.5 21.5C25.5 19.567 23.933 18 22 18C20.067 18 18.5 19.567 18.5 21.5C18.5 23.433 20.067 25 22 25Z" stroke="#1C1C1E" stroke-width="3" stroke-linecap="round" stroke-linejoin="round"/>
<path d="M22 11C23.933 11 25.5 9.433 25.5 7.5C25.5 5.567 23.933 4 22 4C20.067 4 18.5 5.567 18.5 7.5C18.5 9.433 20.067 11 22 11Z" stroke="#1C1C1E" stroke-width="3" stroke-linecap="round" stroke-linejoin="round"/>
<path d="M4 28C4.6986 27.0685 5.60448 26.3125 6.6459 25.7918C7.68731 25.2711 8.83566 25 10 25C11.1643 25 12.3127 25.2711 13.3541 25.7918C14.3955 26.3125 15.3014 27.0685 16 28C16.6986 27.0685 17.6045 26.3125 18.6459 25.7918C19.6873 25.2711 20.8357 25 22 25C23.1643 25 24.3127 25.2711 25.3541 25.7918C26.3955 26.3125 27.3014 27.0685 28 28" stroke="#1C1C1E" stroke-width="3" stroke-linecap="round" stroke-linejoin="round"/>
<path d="M4 14C4.6986 13.0685 5.60448 12.3125 6.6459 11.7918C7.68731 11.2711 8.83566 11 10 11C11.1643 11 12.3127 11.2711 13.3541 11.7918C14.3955 12.3125 15.3014 13.0685 16 14C16.6986 13.0685 17.6045 12.3125 18.6459 11.7918C19.6873 11.2711 20.8357 11 22 11C23.1643 11 24.3127 11.2711 25.3541 11.7918C26.3955 12.3125 27.3014 13.0685 28 14" stroke="#1C1C1E" stroke-width="3" stroke-linecap="round" stroke-linejoin="round"/>
</svg>
