<svg width="32" height="32" viewBox="0 0 32 32" fill="none" xmlns="http://www.w3.org/2000/svg">
<path d="M16 23C18.7614 23 21 20.7614 21 18C21 15.2386 18.7614 13 16 13C13.2386 13 11 15.2386 11 18C11 20.7614 13.2386 23 16 23Z" stroke="#1C1C1E" stroke-width="3" stroke-linecap="round" stroke-linejoin="round"/>
<path d="M9 27C9.71786 25.7818 10.7412 24.772 11.9689 24.0705C13.1965 23.369 14.586 23 16 23C17.414 23 18.8035 23.369 20.0311 24.0705C21.2588 24.772 22.2821 25.7818 23 27" stroke="#1C1C1E" stroke-width="3" stroke-linecap="round" stroke-linejoin="round"/>
<path d="M20.5 9.06827C20.8105 8.50571 21.2519 8.02623 21.7869 7.67039C22.3219 7.31455 22.9347 7.09283 23.5736 7.024C24.2124 6.95516 24.8584 7.04124 25.4569 7.27494C26.0555 7.50863 26.5889 7.88308 27.0121 8.36658C27.4352 8.85009 27.7357 9.42842 27.888 10.0526C28.0404 10.6768 28.0401 11.3286 27.8872 11.9527C27.7344 12.5767 27.4334 13.1548 27.0098 13.638C26.5862 14.1211 26.0525 14.4951 25.4538 14.7283C27.245 15.1158 28.94 16.5833 30.0037 17.9995" stroke="#1C1C1E" stroke-width="3" stroke-linecap="round" stroke-linejoin="round"/>
<path d="M2 18.0004C3.06375 16.5841 4.7575 15.1166 6.55 14.7291C5.95069 14.4966 5.41625 14.1231 4.99195 13.6401C4.56765 13.1572 4.266 12.5791 4.11254 11.9549C3.95908 11.3306 3.95833 10.6786 4.11036 10.054C4.2624 9.42939 4.56273 8.85063 4.98592 8.36674C5.40911 7.88284 5.9427 7.50807 6.54148 7.27418C7.14025 7.04028 7.78658 6.95414 8.42572 7.02305C9.06485 7.09197 9.67796 7.31392 10.2131 7.67009C10.7483 8.02626 11.1897 8.50616 11.5 9.06915" stroke="#1C1C1E" stroke-width="3" stroke-linecap="round" stroke-linejoin="round"/>
</svg>
