<svg width="32" height="32" viewBox="0 0 32 32" fill="none" xmlns="http://www.w3.org/2000/svg">
<path d="M13 20C17.1421 20 20.5 16.6421 20.5 12.5C20.5 8.35786 17.1421 5 13 5C8.85786 5 5.5 8.35786 5.5 12.5C5.5 16.6421 8.85786 20 13 20Z" stroke="#1C1C1E" stroke-width="3" stroke-linecap="round" stroke-linejoin="round"/>
<path d="M2.5 25C5.06875 21.9437 8.695 20 13 20C17.305 20 20.9313 21.9437 23.5 25" stroke="#1C1C1E" stroke-width="3" stroke-linecap="round" stroke-linejoin="round"/>
<path d="M27.5 17V14" stroke="#1C1C1E" stroke-width="3" stroke-linecap="round" stroke-linejoin="round"/>
<path d="M27.5002 16.9998L24.6465 16.0723" stroke="#1C1C1E" stroke-width="3" stroke-linecap="round" stroke-linejoin="round"/>
<path d="M27.5001 17L25.7363 19.4275" stroke="#1C1C1E" stroke-width="3" stroke-linecap="round" stroke-linejoin="round"/>
<path d="M27.5 17L29.2638 19.4275" stroke="#1C1C1E" stroke-width="3" stroke-linecap="round" stroke-linejoin="round"/>
<path d="M27.5 16.9998L30.3538 16.0723" stroke="#1C1C1E" stroke-width="3" stroke-linecap="round" stroke-linejoin="round"/>
</svg>
