<svg width="32" height="32" viewBox="0 0 32 32" fill="none" xmlns="http://www.w3.org/2000/svg">
<path d="M16 19.5C18.4853 19.5 20.5 17.4853 20.5 15C20.5 12.5147 18.4853 10.5 16 10.5C13.5147 10.5 11.5 12.5147 11.5 15C11.5 17.4853 13.5147 19.5 16 19.5Z" stroke="#1C1C1E" stroke-width="3" stroke-linecap="round" stroke-linejoin="round"/>
<path d="M25.5 16L28 18.5L30.5 16" stroke="#1C1C1E" stroke-width="3" stroke-linecap="round" stroke-linejoin="round"/>
<path d="M1.5 16L4 13.5L6.5 16" stroke="#1C1C1E" stroke-width="3" stroke-linecap="round" stroke-linejoin="round"/>
<path d="M4 13.5V16C3.99906 18.5406 4.8045 21.016 6.30033 23.0696C7.79615 25.1232 9.90517 26.6491 12.3236 27.4274C14.7421 28.2058 17.3452 28.1965 19.758 27.4008C22.1709 26.6052 24.2689 25.0643 25.75 23" stroke="#1C1C1E" stroke-width="3" stroke-linecap="round" stroke-linejoin="round"/>
<path d="M28 18.4996V15.9996C28.0009 13.459 27.1955 10.9836 25.6997 8.92997C24.2038 6.87636 22.0948 5.3505 19.6764 4.57214C17.2579 3.79378 14.6548 3.8031 12.242 4.59875C9.82913 5.3944 7.73109 6.93532 6.25 8.99958" stroke="#1C1C1E" stroke-width="3" stroke-linecap="round" stroke-linejoin="round"/>
<path d="M8.32715 25.2276C8.81606 23.5719 9.82746 22.1187 11.2103 21.0852C12.5932 20.0516 14.2732 19.4932 15.9996 19.4932C17.7261 19.4932 19.4061 20.0516 20.789 21.0852C22.1718 22.1187 23.1832 23.5719 23.6721 25.2276" stroke="#1C1C1E" stroke-width="3" stroke-linecap="round" stroke-linejoin="round"/>
</svg>
