<svg width="32" height="32" viewBox="0 0 32 32" fill="none" xmlns="http://www.w3.org/2000/svg">
<path d="M10.5 20C14.0899 20 17 17.0899 17 13.5C17 9.91015 14.0899 7 10.5 7C6.91015 7 4 9.91015 4 13.5C4 17.0899 6.91015 20 10.5 20Z" stroke="#1C1C1E" stroke-width="3" stroke-linecap="round" stroke-linejoin="round"/>
<path d="M1.625 24.5002C2.64648 23.1053 3.98241 21.9707 5.5244 21.1887C7.06639 20.4066 8.77102 19.999 10.5 19.999C12.229 19.999 13.9336 20.4066 15.4756 21.1887C17.0176 21.9707 18.3535 23.1053 19.375 24.5002" stroke="#1C1C1E" stroke-width="3" stroke-linecap="round" stroke-linejoin="round"/>
<path d="M21.5 20C23.2291 19.9985 24.9342 20.4052 26.4764 21.1872C28.0186 21.9692 29.3544 23.1042 30.375 24.5" stroke="#1C1C1E" stroke-width="3" stroke-linecap="round" stroke-linejoin="round"/>
<path d="M19.8271 7.2175C20.7206 6.98038 21.6543 6.93655 22.5661 7.08893C23.4778 7.24132 24.3465 7.58641 25.1143 8.10119C25.8821 8.61596 26.5312 9.28858 27.0184 10.0741C27.5056 10.8597 27.8197 11.7401 27.9396 12.6567C28.0595 13.5733 27.9826 14.5049 27.7139 15.3893C27.4452 16.2738 26.991 17.0908 26.3815 17.7858C25.772 18.4807 25.0213 19.0377 24.1794 19.4196C23.3376 19.8014 22.424 19.9993 21.4996 20" stroke="#1C1C1E" stroke-width="3" stroke-linecap="round" stroke-linejoin="round"/>
</svg>
