<svg width="32" height="32" viewBox="0 0 32 32" fill="none" xmlns="http://www.w3.org/2000/svg">
<path d="M8 18C9.65685 18 11 16.6569 11 15C11 13.3431 9.65685 12 8 12C6.34315 12 5 13.3431 5 15C5 16.6569 6.34315 18 8 18Z" stroke="#1C1C1E" stroke-width="3" stroke-linecap="round" stroke-linejoin="round"/>
<path d="M4 21C4.44375 19.275 6.13625 18 8 18C9.86375 18 11.5575 19.2737 12 21" stroke="#1C1C1E" stroke-width="3" stroke-linecap="round" stroke-linejoin="round"/>
<path d="M27 6H5C4.44772 6 4 6.44772 4 7V25C4 25.5523 4.44772 26 5 26H27C27.5523 26 28 25.5523 28 25V7C28 6.44772 27.5523 6 27 6Z" stroke="#1C1C1E" stroke-width="3" stroke-linecap="round" stroke-linejoin="round"/>
<path d="M18 6V26" stroke="#1C1C1E" stroke-width="3" stroke-linecap="round" stroke-linejoin="round"/>
<path d="M18 16H28" stroke="#1C1C1E" stroke-width="3" stroke-linecap="round" stroke-linejoin="round"/>
<path d="M23 13C24.1046 13 25 12.1046 25 11C25 9.89543 24.1046 9 23 9C21.8954 9 21 9.89543 21 11C21 12.1046 21.8954 13 23 13Z" fill="#1C1C1E"/>
<path d="M23 23C24.1046 23 25 22.1046 25 21C25 19.8954 24.1046 19 23 19C21.8954 19 21 19.8954 21 21C21 22.1046 21.8954 23 23 23Z" fill="#1C1C1E"/>
</svg>
