<svg width="32" height="32" viewBox="0 0 32 32" fill="none" xmlns="http://www.w3.org/2000/svg">
<path d="M8.5 12.5L11.5 19.5L14.5 12.5" stroke="#1C1C1E" stroke-width="3" stroke-linecap="round" stroke-linejoin="round"/>
<path d="M21.5 7H10.5C5.52944 7 1.5 11.0294 1.5 16C1.5 20.9706 5.52944 25 10.5 25H21.5C26.4706 25 30.5 20.9706 30.5 16C30.5 11.0294 26.4706 7 21.5 7Z" stroke="#1C1C1E" stroke-width="3" stroke-linecap="round" stroke-linejoin="round"/>
<path d="M18.5 17.5H21C21.663 17.5 22.2989 17.2366 22.7678 16.7678C23.2366 16.2989 23.5 15.663 23.5 15C23.5 14.337 23.2366 13.7011 22.7678 13.2322C22.2989 12.7634 21.663 12.5 21 12.5H18.5V19.5" stroke="#1C1C1E" stroke-width="3" stroke-linecap="round" stroke-linejoin="round"/>
<path d="M23.5002 19.5L21.9414 17.3175" stroke="#1C1C1E" stroke-width="3" stroke-linecap="round" stroke-linejoin="round"/>
</svg>
