<svg width="32" height="32" viewBox="0 0 32 32" fill="none" xmlns="http://www.w3.org/2000/svg">
<path d="M16 27C22.0751 27 27 22.0751 27 16C27 9.92487 22.0751 5 16 5C9.92487 5 5 9.92487 5 16C5 22.0751 9.92487 27 16 27Z" stroke="#1C1C1E" stroke-width="3" stroke-linecap="round" stroke-linejoin="round"/>
<path d="M13.5 16C14.8807 16 16 14.8807 16 13.5C16 12.1193 14.8807 11 13.5 11C12.1193 11 11 12.1193 11 13.5C11 14.8807 12.1193 16 13.5 16Z" fill="#1C1C1E"/>
<path d="M21 18.5C22.3807 18.5 23.5 17.3807 23.5 16C23.5 14.6193 22.3807 13.5 21 13.5C19.6193 13.5 18.5 14.6193 18.5 16C18.5 17.3807 19.6193 18.5 21 18.5Z" fill="#1C1C1E"/>
<path d="M16 23.5C17.3807 23.5 18.5 22.3807 18.5 21C18.5 19.6193 17.3807 18.5 16 18.5C14.6193 18.5 13.5 19.6193 13.5 21C13.5 22.3807 14.6193 23.5 16 23.5Z" fill="#1C1C1E"/>
<path d="M16 2V5" stroke="#1C1C1E" stroke-width="3" stroke-linecap="round" stroke-linejoin="round"/>
<path d="M30 16H27" stroke="#1C1C1E" stroke-width="3" stroke-linecap="round" stroke-linejoin="round"/>
<path d="M2 16H5" stroke="#1C1C1E" stroke-width="3" stroke-linecap="round" stroke-linejoin="round"/>
<path d="M16 27V30" stroke="#1C1C1E" stroke-width="3" stroke-linecap="round" stroke-linejoin="round"/>
<path d="M6 6L8.22125 8.22125" stroke="#1C1C1E" stroke-width="3" stroke-linecap="round" stroke-linejoin="round"/>
<path d="M23.7783 8.22125L25.9996 6" stroke="#1C1C1E" stroke-width="3" stroke-linecap="round" stroke-linejoin="round"/>
<path d="M25.9996 26.0001L23.7783 23.7788" stroke="#1C1C1E" stroke-width="3" stroke-linecap="round" stroke-linejoin="round"/>
<path d="M6 26.0001L8.22125 23.7788" stroke="#1C1C1E" stroke-width="3" stroke-linecap="round" stroke-linejoin="round"/>
</svg>
