<svg width="33" height="32" viewBox="0 0 33 32" fill="none" xmlns="http://www.w3.org/2000/svg">
<path d="M10.126 13H22.126" stroke="#1C1C1E" stroke-width="3" stroke-linecap="round" stroke-linejoin="round"/>
<path d="M22.626 8.00005C24.7477 7.96607 26.796 8.77634 28.3204 10.2526C29.8447 11.7289 30.7201 13.7502 30.7541 15.8719C30.7881 17.9937 29.9778 20.042 28.5016 21.5663C27.0253 23.0906 25.004 23.9661 22.8822 24.0001C21.0197 24.0588 19.2935 23.1013 17.9072 22.0863C17.3903 21.7081 16.7665 21.5042 16.126 21.5042C15.4855 21.5042 14.8616 21.7081 14.3447 22.0863C12.9585 23.0988 11.2322 24.0563 9.37598 24.0001C8.3254 23.9836 7.28835 23.7605 6.32403 23.3433C5.3597 22.926 4.487 22.323 3.75574 21.5685C2.27889 20.0448 1.46783 17.9968 1.50098 15.8751C1.53413 13.7533 2.40878 11.7317 3.93251 10.2548C5.45624 8.77796 7.50425 7.9669 9.62598 8.00005H22.626Z" stroke="#1C1C1E" stroke-width="3" stroke-linecap="round" stroke-linejoin="round"/>
</svg>
