<svg width="32" height="32" viewBox="0 0 32 32" fill="none" xmlns="http://www.w3.org/2000/svg">
<path d="M22.5 19C23.6046 19 24.5 18.1046 24.5 17C24.5 15.8954 23.6046 15 22.5 15C21.3954 15 20.5 15.8954 20.5 17C20.5 18.1046 21.3954 19 22.5 19Z" fill="#1C1C1E"/>
<path d="M4.99971 7.59125V22.5C4.99971 23.163 5.2631 23.7989 5.73195 24.2678C6.20079 24.7366 6.83667 25 7.49971 25H25.4997C26.1628 25 26.7986 24.7366 27.2675 24.2678C27.7363 23.7989 27.9997 23.163 27.9997 22.5V12.5C27.9997 11.837 27.7363 11.2011 27.2675 10.7322C26.7986 10.2634 26.1628 10 25.4997 10H7.55971C6.20346 10 5.04971 8.94625 4.99971 7.59125ZM4.99971 7.59125C4.98744 7.25535 5.04304 6.92042 5.16317 6.6065C5.2833 6.29257 5.46551 6.00609 5.69889 5.7642C5.93227 5.5223 6.21203 5.32995 6.52145 5.19864C6.83087 5.06734 7.16359 4.99978 7.49971 5H23.9997" stroke="#1C1C1E" stroke-width="3" stroke-linecap="round" stroke-linejoin="round"/>
</svg>
