<svg width="32" height="32" viewBox="0 0 32 32" fill="none" xmlns="http://www.w3.org/2000/svg">
<path d="M22 12C23.1046 12 24 11.1046 24 10C24 8.89543 23.1046 8 22 8C20.8954 8 20 8.89543 20 10C20 11.1046 20.8954 12 22 12Z" fill="#1C1C1E"/>
<path d="M26.5 4.5H5.5C4.94772 4.5 4.5 4.94772 4.5 5.5V26.5C4.5 27.0523 4.94772 27.5 5.5 27.5H26.5C27.0523 27.5 27.5 27.0523 27.5 26.5V5.5C27.5 4.94772 27.0523 4.5 26.5 4.5Z" stroke="#1C1C1E" stroke-width="3" stroke-linecap="round" stroke-linejoin="round"/>
<path d="M16.5 18.5L18.5 16.5" stroke="#1C1C1E" stroke-width="3" stroke-linecap="round" stroke-linejoin="round"/>
<path d="M13.5 15.5L14.5 14.5" stroke="#1C1C1E" stroke-width="3" stroke-linecap="round" stroke-linejoin="round"/>
<path d="M22.9165 14.9146C23.1453 16.374 22.9066 17.8684 22.2345 19.1839C21.5623 20.4995 20.4912 21.5686 19.1745 22.2383C17.8577 22.9081 16.3629 23.1441 14.9039 22.9125C13.4448 22.681 12.0965 21.9938 11.0518 20.9493C10.0071 19.9048 9.31958 18.5566 9.08773 17.0976C8.85588 15.6387 9.09155 14.1438 9.761 12.8269C10.4305 11.51 11.4994 10.4387 12.8147 9.76623C14.1301 9.09381 15.6245 8.85476 17.084 9.08331" stroke="#1C1C1E" stroke-width="3" stroke-linecap="round" stroke-linejoin="round"/>
</svg>
