<svg width="32" height="32" viewBox="0 0 32 32" fill="none" xmlns="http://www.w3.org/2000/svg">
<path d="M16 22V26" stroke="#1C1C1E" stroke-width="3" stroke-linecap="round" stroke-linejoin="round"/>
<path d="M6 5L26 27" stroke="#1C1C1E" stroke-width="3" stroke-linecap="round" stroke-linejoin="round"/>
<path d="M20.4078 20.8489C18.6322 21.8472 16.5705 22.2136 14.5597 21.8883C12.5489 21.563 10.7079 20.5651 9.33765 19.0579C7.96742 17.5507 7.14902 15.6232 7.01623 13.5906C6.88343 11.5579 7.44408 9.54037 8.60655 7.86768" stroke="#1C1C1E" stroke-width="3" stroke-linecap="round" stroke-linejoin="round"/>
<path d="M4 26H25.0912" stroke="#1C1C1E" stroke-width="3" stroke-linecap="round" stroke-linejoin="round"/>
<path d="M16.8298 16.9138C16.1461 17.0591 15.4363 17.0228 14.7711 16.8084C14.1058 16.594 13.5084 16.209 13.0382 15.6918C12.5681 15.1746 12.2417 14.5433 12.0915 13.8607C11.9413 13.1781 11.9726 12.468 12.1823 11.8013" stroke="#1C1C1E" stroke-width="3" stroke-linecap="round" stroke-linejoin="round"/>
<path d="M12.4922 4.70876C14.2099 3.98069 16.1114 3.80441 17.9337 4.20432C19.7559 4.60423 21.4089 5.56055 22.6639 6.941C23.9189 8.32145 24.7138 10.0578 24.9388 11.9098C25.1638 13.7618 24.8077 15.638 23.9197 17.2788" stroke="#1C1C1E" stroke-width="3" stroke-linecap="round" stroke-linejoin="round"/>
<path d="M16.4092 9.02148C17.3885 9.12205 18.2963 9.58023 18.9589 10.3083C19.6215 11.0364 19.9924 11.9833 20.0004 12.9677" stroke="#1C1C1E" stroke-width="3" stroke-linecap="round" stroke-linejoin="round"/>
</svg>
