<svg width="32" height="32" viewBox="0 0 32 32" fill="none" xmlns="http://www.w3.org/2000/svg">
<path d="M3.1 18.5C2.72237 19.2407 2.5176 20.0575 2.50109 20.8887C2.48457 21.72 2.65673 22.5442 3.00463 23.2994C3.35253 24.0545 3.86712 24.721 4.50969 25.2486C5.15226 25.7762 5.90609 26.1513 6.7145 26.3457C7.52292 26.54 8.36487 26.5485 9.17705 26.3706C9.98923 26.1926 10.7505 25.8329 11.4036 25.3184C12.0567 24.8038 12.5847 24.1479 12.9478 23.4C13.3109 22.652 13.4997 21.8314 13.5 21H24" stroke="#1C1C1E" stroke-width="3" stroke-linecap="round" stroke-linejoin="round"/>
<path d="M24.5 26.4775C25.3253 26.4018 26.1229 26.1406 26.8331 25.7133C27.5433 25.2861 28.1478 24.7038 28.6013 24.0101C29.0548 23.3164 29.3457 22.5292 29.4522 21.7072C29.5587 20.8853 29.4781 20.0499 29.2164 19.2635C28.9546 18.4771 28.5185 17.7601 27.9407 17.1659C27.3628 16.5717 26.6582 16.1159 25.8794 15.8323C25.1006 15.5488 24.2678 15.4449 23.4432 15.5285C22.6186 15.6121 21.8236 15.881 21.1175 16.315L16 8" stroke="#1C1C1E" stroke-width="3" stroke-linecap="round" stroke-linejoin="round"/>
<path d="M20.9 5.49979C20.5138 4.7438 19.9578 4.08748 19.2756 3.58221C18.5934 3.07694 17.8036 2.73645 16.9678 2.5874C16.1321 2.43834 15.2732 2.48477 14.4584 2.72304C13.6436 2.96132 12.895 3.38497 12.2713 3.96083C11.6475 4.53669 11.1655 5.24912 10.8631 6.04234C10.5606 6.83555 10.4459 7.68801 10.5278 8.53297C10.6098 9.37793 10.8862 10.1924 11.3355 10.9127C11.7848 11.633 12.3947 12.2395 13.1175 12.6848L8 20.9998" stroke="#1C1C1E" stroke-width="3" stroke-linecap="round" stroke-linejoin="round"/>
</svg>
