<svg width="32" height="32" viewBox="0 0 32 32" fill="none" xmlns="http://www.w3.org/2000/svg">
<path d="M19 22.0001C16.6139 21.9975 14.3262 21.0484 12.639 19.3612C10.9517 17.6739 10.0026 15.3863 10 13.0001C9.99981 12.3065 10.24 11.6343 10.6796 11.0978C11.1192 10.5613 11.7311 10.1937 12.4113 10.0576L13.8462 12.9326L12.3313 15.2001L12.5375 15.7001C13.253 17.4006 14.6058 18.7534 16.3062 19.4689L16.8062 19.6751L19.0775 18.1601L21.9525 19.5951C21.8148 20.2758 21.4452 20.8876 20.9068 21.3261C20.3683 21.7647 19.6944 22.0029 19 22.0001Z" fill="#1C1C1E" stroke="#1C1C1E" stroke-width="3" stroke-linecap="round" stroke-linejoin="round"/>
<path d="M9.99109 26.3889C12.5118 27.8478 15.4769 28.3401 18.3338 27.7742C21.1907 27.2083 23.7443 25.6227 25.5184 23.3131C27.2926 21.0035 28.1663 18.1275 27.9766 15.2213C27.7869 12.3151 26.5467 9.57703 24.4873 7.51766C22.428 5.45829 19.6899 4.21814 16.7837 4.02843C13.8775 3.83872 11.0015 4.71239 8.69189 6.48656C6.38228 8.26073 4.7967 10.8143 4.23078 13.6712C3.66486 16.5281 4.15723 19.4932 5.61609 22.0139L4.05234 26.6827C3.99358 26.8589 3.98505 27.0479 4.02771 27.2287C4.07037 27.4095 4.16254 27.5748 4.29387 27.7061C4.42521 27.8375 4.59052 27.9296 4.77129 27.9723C4.95206 28.0149 5.14114 28.0064 5.31734 27.9477L9.99109 26.3889Z" stroke="#1C1C1E" stroke-width="3" stroke-linecap="round" stroke-linejoin="round"/>
</svg>
