<svg width="32" height="32" viewBox="0 0 32 32" fill="none" xmlns="http://www.w3.org/2000/svg">
<path d="M13 8.5V17H24L28 25L30.5 24" stroke="#1C1C1E" stroke-width="3" stroke-linecap="round" stroke-linejoin="round"/>
<path d="M13 8.5C14.5188 8.5 15.75 7.26878 15.75 5.75C15.75 4.23122 14.5188 3 13 3C11.4812 3 10.25 4.23122 10.25 5.75C10.25 7.26878 11.4812 8.5 13 8.5Z" stroke="#1C1C1E" stroke-width="3" stroke-linecap="round" stroke-linejoin="round"/>
<path d="M21.0004 12H14.0004C12.5722 12.0004 11.1702 12.3832 9.9399 13.1086C8.70961 13.8339 7.69593 14.8754 7.00412 16.1249C6.31232 17.3743 5.96761 18.7862 6.00579 20.2139C6.04397 21.6416 6.46366 23.033 7.22126 24.2437C7.97887 25.4544 9.04677 26.4402 10.3141 27.0988C11.5814 27.7573 13.0019 28.0646 14.428 27.9887C15.8542 27.9128 17.2341 27.4565 18.4243 26.6672C19.6146 25.8778 20.5718 24.7843 21.1967 23.5" stroke="#1C1C1E" stroke-width="3" stroke-linecap="round" stroke-linejoin="round"/>
</svg>
