<svg width="32" height="32" viewBox="0 0 32 32" fill="none" xmlns="http://www.w3.org/2000/svg">
<path d="M22 9C23.6569 9 25 7.65685 25 6C25 4.34315 23.6569 3 22 3C20.3431 3 19 4.34315 19 6C19 7.65685 20.3431 9 22 9Z" stroke="#1C1C1E" stroke-width="3" stroke-linecap="round" stroke-linejoin="round"/>
<path d="M5.5 13.0142C7.30643 11.5237 9.54139 10.6488 11.8796 10.5166C14.2177 10.3844 16.5371 11.0019 18.5 12.2792L15.5 17.5004H24.5L22.5 27.5004" stroke="#1C1C1E" stroke-width="3" stroke-linecap="round" stroke-linejoin="round"/>
<path d="M18.9816 21.9999C18.8874 23.2178 18.452 24.3845 17.7252 25.3662C16.9984 26.348 16.0097 27.1051 14.8723 27.5507C13.735 27.9963 12.4952 28.1125 11.2949 27.8858C10.0946 27.6592 8.98246 27.0989 8.08597 26.2692C7.18948 25.4395 6.54492 24.374 6.22618 23.1948C5.90743 22.0156 5.92741 20.7705 6.28381 19.6022C6.64021 18.4338 7.31862 17.3895 8.24126 16.589C9.1639 15.7885 10.2934 15.2642 11.5004 15.0762" stroke="#1C1C1E" stroke-width="3" stroke-linecap="round" stroke-linejoin="round"/>
</svg>
