<svg width="32" height="32" viewBox="0 0 32 32" fill="none" xmlns="http://www.w3.org/2000/svg">
<path d="M16 27.5C17.1046 27.5 18 26.6046 18 25.5C18 24.3954 17.1046 23.5 16 23.5C14.8954 23.5 14 24.3954 14 25.5C14 26.6046 14.8954 27.5 16 27.5Z" fill="#1C1C1E"/>
<path d="M29 11.6491C25.3346 8.64294 20.7405 7 16 7C11.2595 7 6.66544 8.64294 3 11.6491" stroke="#1C1C1E" stroke-width="3" stroke-linecap="round" stroke-linejoin="round"/>
<path d="M25 16.1253C22.4384 14.0975 19.2671 12.9941 16 12.9941C12.7329 12.9941 9.56158 14.0975 7 16.1253" stroke="#1C1C1E" stroke-width="3" stroke-linecap="round" stroke-linejoin="round"/>
<path d="M21 20.6252C19.5471 19.5683 17.7966 18.999 16 18.999C14.2034 18.999 12.4529 19.5683 11 20.6252" stroke="#1C1C1E" stroke-width="3" stroke-linecap="round" stroke-linejoin="round"/>
</svg>
