<svg width="32" height="32" viewBox="0 0 32 32" fill="none" xmlns="http://www.w3.org/2000/svg">
<path d="M16 27.5C17.1046 27.5 18 26.6046 18 25.5C18 24.3954 17.1046 23.5 16 23.5C14.8954 23.5 14 24.3954 14 25.5C14 26.6046 14.8954 27.5 16 27.5Z" fill="#1C1C1E"/>
<path d="M6 5L26 27" stroke="#1C1C1E" stroke-width="3" stroke-linecap="round" stroke-linejoin="round"/>
<path d="M8.95 8.25C6.78955 9.04005 4.77796 10.1891 3 11.6488" stroke="#1C1C1E" stroke-width="3" stroke-linecap="round" stroke-linejoin="round"/>
<path d="M13.4725 13.2197C11.1069 13.6344 8.88219 14.6329 7 16.1247" stroke="#1C1C1E" stroke-width="3" stroke-linecap="round" stroke-linejoin="round"/>
<path d="M19.3512 19.6863C17.997 19.1069 16.5155 18.8887 15.0517 19.0533C13.5879 19.2178 12.1918 19.7594 11 20.6251" stroke="#1C1C1E" stroke-width="3" stroke-linecap="round" stroke-linejoin="round"/>
<path d="M28.9997 11.6488C25.3378 8.63639 20.7414 6.99275 15.9997 7.00002C15.5347 7.00002 15.0739 7.01544 14.6172 7.04627" stroke="#1C1C1E" stroke-width="3" stroke-linecap="round" stroke-linejoin="round"/>
<path d="M25 16.1255C23.7245 15.1147 22.2877 14.3261 20.75 13.793" stroke="#1C1C1E" stroke-width="3" stroke-linecap="round" stroke-linejoin="round"/>
</svg>
