<svg width="32" height="32" viewBox="0 0 32 32" fill="none" xmlns="http://www.w3.org/2000/svg">
<path d="M16 27.5C17.1046 27.5 18 26.6046 18 25.5C18 24.3954 17.1046 23.5 16 23.5C14.8954 23.5 14 24.3954 14 25.5C14 26.6046 14.8954 27.5 16 27.5Z" fill="#1C1C1E"/>
<path d="M28 7L22 13" stroke="#1C1C1E" stroke-width="3" stroke-linecap="round" stroke-linejoin="round"/>
<path d="M28 13L22 7" stroke="#1C1C1E" stroke-width="3" stroke-linecap="round" stroke-linejoin="round"/>
<path d="M21 20.6252C19.5471 19.5683 17.7966 18.999 16 18.999C14.2034 18.999 12.4529 19.5683 11 20.6252" stroke="#1C1C1E" stroke-width="3" stroke-linecap="round" stroke-linejoin="round"/>
<path d="M16 7.00002C11.2583 6.99275 6.66191 8.63639 3 11.6488" stroke="#1C1C1E" stroke-width="3" stroke-linecap="round" stroke-linejoin="round"/>
<path d="M16 13C12.7328 12.9934 9.56004 14.0951 7 16.125" stroke="#1C1C1E" stroke-width="3" stroke-linecap="round" stroke-linejoin="round"/>
</svg>
