<svg width="32" height="32" viewBox="0 0 32 32" fill="none" xmlns="http://www.w3.org/2000/svg">
<path d="M12.6525 6.5C13.2748 5.87344 14.1171 5.51462 15 5.5C15.7956 5.5 16.5587 5.81607 17.1213 6.37868C17.6839 6.94129 18 7.70435 18 8.5C18 9.29565 17.6839 10.0587 17.1213 10.6213C16.5587 11.1839 15.7956 11.5 15 11.5H3" stroke="#1C1C1E" stroke-width="3" stroke-linecap="round" stroke-linejoin="round"/>
<path d="M23.6525 11C24.2748 10.3734 25.1171 10.0146 26 10C26.7956 10 27.5587 10.3161 28.1213 10.8787C28.6839 11.4413 29 12.2044 29 13C29 13.7956 28.6839 14.5587 28.1213 15.1213C27.5587 15.6839 26.7956 16 26 16H4" stroke="#1C1C1E" stroke-width="3" stroke-linecap="round" stroke-linejoin="round"/>
<path d="M16.6525 25.5C17.2748 26.1266 18.1171 26.4854 19 26.5C19.7956 26.5 20.5587 26.1839 21.1213 25.6213C21.6839 25.0587 22 24.2956 22 23.5C22 22.7044 21.6839 21.9413 21.1213 21.3787C20.5587 20.8161 19.7956 20.5 19 20.5H5" stroke="#1C1C1E" stroke-width="3" stroke-linecap="round" stroke-linejoin="round"/>
</svg>
