<svg width="32" height="32" viewBox="0 0 32 32" fill="none" xmlns="http://www.w3.org/2000/svg">
<path d="M9.12532 27.1246C8.56174 27.6882 7.79735 28.0048 7.00032 28.0048C6.20329 28.0048 5.43891 27.6882 4.87532 27.1246C4.31174 26.561 3.99512 25.7967 3.99512 24.9996C3.99512 24.2026 4.31174 23.4382 4.87532 22.8746L12.8466 15.5896C12.1152 14.1359 11.8445 12.4937 12.0707 10.8822C12.2969 9.27069 13.0092 7.76646 14.1125 6.57026C15.2158 5.37406 16.6576 4.54277 18.2457 4.18732C19.8337 3.83187 21.4924 3.96916 23.0003 4.58088L18.0003 9.99963L18.7078 13.2921L22.0003 13.9996L27.4191 8.99963C28.0303 10.5078 28.1671 12.1666 27.8111 13.7546C27.4551 15.3425 26.6233 16.7842 25.4267 17.8871C24.23 18.99 22.7255 19.7017 21.1138 19.9273C19.5022 20.1529 17.86 19.8816 16.4066 19.1496L9.12532 27.1246Z" stroke="#1C1C1E" stroke-width="3" stroke-linecap="round" stroke-linejoin="round"/>
</svg>
